<?xml version="1.0" encoding="UTF-8" standalone="no"?>
<!DOCTYPE svg PUBLIC "-//W3C//DTD SVG 1.1//EN"
 "http://www.w3.org/Graphics/SVG/1.1/DTD/svg11.dtd">
<!-- Generated by graphviz version 2.40.1 (20161225.0304)
 -->
<!-- Title: G Pages: 1 -->
<svg width="610pt" height="1021pt"
 viewBox="0.00 0.00 610.04 1021.43" xmlns="http://www.w3.org/2000/svg" xmlns:xlink="http://www.w3.org/1999/xlink">
<g id="graph0" class="graph" transform="scale(1 1) rotate(0) translate(4 1017.4328)">
<title>G</title>
<polygon fill="#ffffff" stroke="transparent" points="-4,4 -4,-1017.4328 606.0415,-1017.4328 606.0415,4 -4,4"/>
<!-- addresses -->
<g id="node1" class="node">
<title>addresses</title>
<ellipse fill="none" stroke="#000000" cx="472.0208" cy="-995.4328" rx="48.0703" ry="18"/>
<text text-anchor="middle" x="472.0208" y="-991.2328" font-family="Times,serif" font-size="14.00" fill="#000000">addresses</text>
</g>
<!-- addresses__addID_addID__sites_join -->
<g id="node2" class="node">
<title>addresses__addID_addID__sites_join</title>
<ellipse fill="none" stroke="#000000" cx="472.0208" cy="-900.1377" rx="78.8882" ry="41.0911"/>
<text text-anchor="middle" x="472.0208" y="-912.7377" font-family="Times,serif" font-size="14.00" fill="#000000">LEFT JOIN sites</text>
<text text-anchor="middle" x="472.0208" y="-895.9377" font-family="Times,serif" font-size="14.00" fill="#000000">At level: 3</text>
<text text-anchor="middle" x="472.0208" y="-879.1377" font-family="Times,serif" font-size="14.00" fill="#000000">Required: false</text>
</g>
<!-- addresses&#45;&gt;addresses__addID_addID__sites_join -->
<g id="edge1" class="edge">
<title>addresses&#45;&gt;addresses__addID_addID__sites_join</title>
<path fill="none" stroke="#000000" d="M472.0208,-977.0589C472.0208,-969.7498 472.0208,-960.9402 472.0208,-951.9314"/>
<polygon fill="#000000" stroke="#000000" points="475.5209,-951.7449 472.0208,-941.7449 468.5209,-951.745 475.5209,-951.7449"/>
</g>
<!-- addresses__addID_addID__sites_join_Has_Rows -->
<g id="node3" class="node">
<title>addresses__addID_addID__sites_join_Has_Rows</title>
<ellipse fill="none" stroke="#000000" cx="435.0208" cy="-804.8427" rx="47.4704" ry="18"/>
<text text-anchor="middle" x="435.0208" y="-800.6427" font-family="Times,serif" font-size="14.00" fill="#000000">Has rows</text>
</g>
<!-- addresses__addID_addID__sites_join&#45;&gt;addresses__addID_addID__sites_join_Has_Rows -->
<g id="edge2" class="edge">
<title>addresses__addID_addID__sites_join&#45;&gt;addresses__addID_addID__sites_join_Has_Rows</title>
<path fill="none" stroke="#000000" d="M456.2221,-859.4477C452.6645,-850.285 448.9707,-840.7715 445.6823,-832.302"/>
<polygon fill="#000000" stroke="#000000" points="448.9229,-830.978 442.0407,-822.9228 442.3975,-833.5117 448.9229,-830.978"/>
</g>
<!-- addresses__addID_addID__sites_join_No_Rows -->
<g id="node18" class="node">
<title>addresses__addID_addID__sites_join_No_Rows</title>
<ellipse fill="none" stroke="#000000" cx="558.0208" cy="-721.4271" rx="44.0415" ry="18"/>
<text text-anchor="middle" x="558.0208" y="-717.2271" font-family="Times,serif" font-size="14.00" fill="#000000">No rows</text>
</g>
<!-- addresses__addID_addID__sites_join&#45;&gt;addresses__addID_addID__sites_join_No_Rows -->
<g id="edge20" class="edge">
<title>addresses__addID_addID__sites_join&#45;&gt;addresses__addID_addID__sites_join_No_Rows</title>
<path fill="none" stroke="#000000" d="M491.3208,-860.0316C507.6943,-826.007 530.735,-778.1278 545.0044,-748.4754"/>
<polygon fill="#000000" stroke="#000000" points="548.3026,-749.6931 549.4851,-739.1645 541.9949,-746.6577 548.3026,-749.6931"/>
</g>
<!-- addresses__addID_addID__sites_where -->
<g id="node4" class="node">
<title>addresses__addID_addID__sites_where</title>
<ellipse fill="none" stroke="#000000" cx="387.0208" cy="-721.4271" rx="108.6735" ry="29.3315"/>
<text text-anchor="middle" x="387.0208" y="-725.6271" font-family="Times,serif" font-size="14.00" fill="#000000">WHERE</text>
<text text-anchor="middle" x="387.0208" y="-708.8271" font-family="Times,serif" font-size="14.00" fill="#000000">sites.healthReg = &quot;CSC&quot;</text>
</g>
<!-- addresses__addID_addID__sites_join_Has_Rows&#45;&gt;addresses__addID_addID__sites_where -->
<g id="edge3" class="edge">
<title>addresses__addID_addID__sites_join_Has_Rows&#45;&gt;addresses__addID_addID__sites_where</title>
<path fill="none" stroke="#000000" d="M424.8412,-787.1524C420.1638,-779.0238 414.4239,-769.0489 408.8424,-759.3493"/>
<polygon fill="#000000" stroke="#000000" points="411.8174,-757.5017 403.7962,-750.5799 405.7502,-760.993 411.8174,-757.5017"/>
</g>
<!-- addresses__addID_addID__sites_where_Has_Rows -->
<g id="node5" class="node">
<title>addresses__addID_addID__sites_where_Has_Rows</title>
<ellipse fill="none" stroke="#000000" cx="262.0208" cy="-638.0114" rx="47.4704" ry="18"/>
<text text-anchor="middle" x="262.0208" y="-633.8114" font-family="Times,serif" font-size="14.00" fill="#000000">Has rows</text>
</g>
<!-- addresses__addID_addID__sites_where&#45;&gt;addresses__addID_addID__sites_where_Has_Rows -->
<g id="edge4" class="edge">
<title>addresses__addID_addID__sites_where&#45;&gt;addresses__addID_addID__sites_where_Has_Rows</title>
<path fill="none" stroke="#000000" d="M346.0911,-694.1137C329.1495,-682.8081 309.7978,-669.8943 293.9349,-659.3085"/>
<polygon fill="#000000" stroke="#000000" points="295.7793,-656.3316 285.5186,-653.6921 291.8937,-662.1542 295.7793,-656.3316"/>
</g>
<!-- addresses__addID_addID__sites_where_No_Rows -->
<g id="node17" class="node">
<title>addresses__addID_addID__sites_where_No_Rows</title>
<ellipse fill="none" stroke="#000000" cx="403.0208" cy="-542.7164" rx="44.0415" ry="18"/>
<text text-anchor="middle" x="403.0208" y="-538.5164" font-family="Times,serif" font-size="14.00" fill="#000000">No rows</text>
</g>
<!-- addresses__addID_addID__sites_where&#45;&gt;addresses__addID_addID__sites_where_No_Rows -->
<g id="edge18" class="edge">
<title>addresses__addID_addID__sites_where&#45;&gt;addresses__addID_addID__sites_where_No_Rows</title>
<path fill="none" stroke="#000000" d="M389.6628,-691.9166C392.6612,-658.4265 397.518,-604.179 400.4756,-571.1441"/>
<polygon fill="#000000" stroke="#000000" points="403.9946,-571.0872 401.4004,-560.8149 397.0225,-570.4629 403.9946,-571.0872"/>
</g>
<!-- sites__siteID_siteID__samples_join -->
<g id="node6" class="node">
<title>sites__siteID_siteID__samples_join</title>
<ellipse fill="none" stroke="#000000" cx="206.0208" cy="-542.7164" rx="93.4765" ry="41.0911"/>
<text text-anchor="middle" x="206.0208" y="-555.3164" font-family="Times,serif" font-size="14.00" fill="#000000">LEFT JOIN samples</text>
<text text-anchor="middle" x="206.0208" y="-538.5164" font-family="Times,serif" font-size="14.00" fill="#000000">At level: 2</text>
<text text-anchor="middle" x="206.0208" y="-521.7164" font-family="Times,serif" font-size="14.00" fill="#000000">Required: true</text>
</g>
<!-- addresses__addID_addID__sites_where_Has_Rows&#45;&gt;sites__siteID_siteID__samples_join -->
<g id="edge5" class="edge">
<title>addresses__addID_addID__sites_where_Has_Rows&#45;&gt;sites__siteID_siteID__samples_join</title>
<path fill="none" stroke="#000000" d="M251.4876,-620.0872C246.7336,-611.9973 240.8612,-602.0042 234.9341,-591.9181"/>
<polygon fill="#000000" stroke="#000000" points="237.8221,-589.9244 229.7381,-583.0761 231.787,-593.4709 237.8221,-589.9244"/>
</g>
<!-- sites__siteID_siteID__samples_join_Has_Rows -->
<g id="node7" class="node">
<title>sites__siteID_siteID__samples_join_Has_Rows</title>
<ellipse fill="none" stroke="#000000" cx="206.0208" cy="-447.4214" rx="47.4704" ry="18"/>
<text text-anchor="middle" x="206.0208" y="-443.2214" font-family="Times,serif" font-size="14.00" fill="#000000">Has rows</text>
</g>
<!-- sites__siteID_siteID__samples_join&#45;&gt;sites__siteID_siteID__samples_join_Has_Rows -->
<g id="edge6" class="edge">
<title>sites__siteID_siteID__samples_join&#45;&gt;sites__siteID_siteID__samples_join_Has_Rows</title>
<path fill="none" stroke="#000000" d="M206.0208,-501.1958C206.0208,-492.6442 206.0208,-483.8248 206.0208,-475.8643"/>
<polygon fill="#000000" stroke="#000000" points="209.5209,-475.6472 206.0208,-465.6473 202.5209,-475.6473 209.5209,-475.6472"/>
</g>
<!-- sites__siteID_siteID__samples_join_No_Rows -->
<g id="node16" class="node">
<title>sites__siteID_siteID__samples_join_No_Rows</title>
<ellipse fill="none" stroke="#000000" cx="44.0208" cy="-352.1263" rx="44.0415" ry="18"/>
<text text-anchor="middle" x="44.0208" y="-347.9263" font-family="Times,serif" font-size="14.00" fill="#000000">No rows</text>
</g>
<!-- sites__siteID_siteID__samples_join&#45;&gt;sites__siteID_siteID__samples_join_No_Rows -->
<g id="edge16" class="edge">
<title>sites__siteID_siteID__samples_join&#45;&gt;sites__siteID_siteID__samples_join_No_Rows</title>
<path fill="none" stroke="#000000" d="M172.8467,-503.6877C140.5894,-465.7376 92.5661,-409.239 65.1798,-377.0196"/>
<polygon fill="#000000" stroke="#000000" points="67.8273,-374.7301 58.684,-369.3774 62.4937,-379.2636 67.8273,-374.7301"/>
</g>
<!-- samples__siteID_siteID__sites_join -->
<g id="node8" class="node">
<title>samples__siteID_siteID__sites_join</title>
<ellipse fill="none" stroke="#000000" cx="206.0208" cy="-352.1263" rx="78.8882" ry="41.0911"/>
<text text-anchor="middle" x="206.0208" y="-364.7263" font-family="Times,serif" font-size="14.00" fill="#000000">LEFT JOIN sites</text>
<text text-anchor="middle" x="206.0208" y="-347.9263" font-family="Times,serif" font-size="14.00" fill="#000000">At level: 1</text>
<text text-anchor="middle" x="206.0208" y="-331.1263" font-family="Times,serif" font-size="14.00" fill="#000000">Required: true</text>
</g>
<!-- sites__siteID_siteID__samples_join_Has_Rows&#45;&gt;samples__siteID_siteID__sites_join -->
<g id="edge7" class="edge">
<title>sites__siteID_siteID__samples_join_Has_Rows&#45;&gt;samples__siteID_siteID__sites_join</title>
<path fill="none" stroke="#000000" d="M206.0208,-429.0475C206.0208,-421.7384 206.0208,-412.9288 206.0208,-403.92"/>
<polygon fill="#000000" stroke="#000000" points="209.5209,-403.7335 206.0208,-393.7335 202.5209,-403.7335 209.5209,-403.7335"/>
</g>
<!-- samples__siteID_siteID__sites_join_Has_Rows -->
<g id="node9" class="node">
<title>samples__siteID_siteID__sites_join_Has_Rows</title>
<ellipse fill="none" stroke="#000000" cx="262.0208" cy="-256.8313" rx="47.4704" ry="18"/>
<text text-anchor="middle" x="262.0208" y="-252.6313" font-family="Times,serif" font-size="14.00" fill="#000000">Has rows</text>
</g>
<!-- samples__siteID_siteID__sites_join&#45;&gt;samples__siteID_siteID__sites_join_Has_Rows -->
<g id="edge8" class="edge">
<title>samples__siteID_siteID__sites_join&#45;&gt;samples__siteID_siteID__sites_join_Has_Rows</title>
<path fill="none" stroke="#000000" d="M229.2833,-312.5405C234.9929,-302.8245 240.9732,-292.6478 246.2371,-283.6904"/>
<polygon fill="#000000" stroke="#000000" points="249.3728,-285.2624 251.4218,-274.8676 243.3377,-281.7159 249.3728,-285.2624"/>
</g>
<!-- samples__siteID_siteID__sites_join_No_Rows -->
<g id="node15" class="node">
<title>samples__siteID_siteID__sites_join_No_Rows</title>
<ellipse fill="none" stroke="#000000" cx="100.0208" cy="-173.4156" rx="44.0415" ry="18"/>
<text text-anchor="middle" x="100.0208" y="-169.2156" font-family="Times,serif" font-size="14.00" fill="#000000">No rows</text>
</g>
<!-- samples__siteID_siteID__sites_join&#45;&gt;samples__siteID_siteID__sites_join_No_Rows -->
<g id="edge14" class="edge">
<title>samples__siteID_siteID__sites_join&#45;&gt;samples__siteID_siteID__sites_join_No_Rows</title>
<path fill="none" stroke="#000000" d="M182.4959,-312.4646C162.2424,-278.3182 133.5686,-229.9757 115.9159,-200.214"/>
<polygon fill="#000000" stroke="#000000" points="118.7082,-198.061 110.5964,-191.2456 112.6876,-201.632 118.7082,-198.061"/>
</g>
<!-- samples__siteID_siteID__sites_where -->
<g id="node10" class="node">
<title>samples__siteID_siteID__sites_where</title>
<ellipse fill="none" stroke="#000000" cx="271.0208" cy="-173.4156" rx="108.6735" ry="29.3315"/>
<text text-anchor="middle" x="271.0208" y="-177.6156" font-family="Times,serif" font-size="14.00" fill="#000000">WHERE</text>
<text text-anchor="middle" x="271.0208" y="-160.8156" font-family="Times,serif" font-size="14.00" fill="#000000">sites.healthReg = &quot;CSC&quot;</text>
</g>
<!-- samples__siteID_siteID__sites_join_Has_Rows&#45;&gt;samples__siteID_siteID__sites_where -->
<g id="edge9" class="edge">
<title>samples__siteID_siteID__sites_join_Has_Rows&#45;&gt;samples__siteID_siteID__sites_where</title>
<path fill="none" stroke="#000000" d="M263.9736,-238.7313C264.7925,-231.1418 265.7791,-221.9972 266.7514,-212.986"/>
<polygon fill="#000000" stroke="#000000" points="270.2403,-213.2766 267.8333,-202.9588 263.2807,-212.5256 270.2403,-213.2766"/>
</g>
<!-- samples__siteID_siteID__sites_where_Has_Rows -->
<g id="node11" class="node">
<title>samples__siteID_siteID__sites_where_Has_Rows</title>
<ellipse fill="none" stroke="#000000" cx="483.0208" cy="-90" rx="47.4704" ry="18"/>
<text text-anchor="middle" x="483.0208" y="-85.8" font-family="Times,serif" font-size="14.00" fill="#000000">Has rows</text>
</g>
<!-- samples__siteID_siteID__sites_where&#45;&gt;samples__siteID_siteID__sites_where_Has_Rows -->
<g id="edge10" class="edge">
<title>samples__siteID_siteID__sites_where&#45;&gt;samples__siteID_siteID__sites_where_Has_Rows</title>
<path fill="none" stroke="#000000" d="M332.9098,-149.0641C367.4278,-135.4824 409.5414,-118.9119 440.3671,-106.7829"/>
<polygon fill="#000000" stroke="#000000" points="441.9308,-109.9289 449.9549,-103.0104 439.3678,-103.415 441.9308,-109.9289"/>
</g>
<!-- samples__siteID_siteID__sites_where_No_Rows -->
<g id="node13" class="node">
<title>samples__siteID_siteID__sites_where_No_Rows</title>
<ellipse fill="none" stroke="#000000" cx="228.0208" cy="-90" rx="44.0415" ry="18"/>
<text text-anchor="middle" x="228.0208" y="-85.8" font-family="Times,serif" font-size="14.00" fill="#000000">No rows</text>
</g>
<!-- samples__siteID_siteID__sites_where&#45;&gt;samples__siteID_siteID__sites_where_No_Rows -->
<g id="edge12" class="edge">
<title>samples__siteID_siteID__sites_where&#45;&gt;samples__siteID_siteID__sites_where_No_Rows</title>
<path fill="none" stroke="#000000" d="M255.9815,-144.2409C251.4283,-135.4083 246.4491,-125.7491 241.9705,-117.0611"/>
<polygon fill="#000000" stroke="#000000" points="245.0441,-115.3848 237.3511,-108.1 238.8221,-118.5922 245.0441,-115.3848"/>
</g>
<!-- granted -->
<g id="node12" class="node">
<title>granted</title>
<ellipse fill="none" stroke="#000000" cx="520.0208" cy="-18" rx="71.7874" ry="18"/>
<text text-anchor="middle" x="520.0208" y="-13.8" font-family="Times,serif" font-size="14.00" fill="#000000">Access Granted</text>
</g>
<!-- samples__siteID_siteID__sites_where_Has_Rows&#45;&gt;granted -->
<g id="edge11" class="edge">
<title>samples__siteID_siteID__sites_where_Has_Rows&#45;&gt;granted</title>
<path fill="none" stroke="#000000" d="M492.1668,-72.2022C496.3599,-64.0428 501.4229,-54.1904 506.076,-45.1358"/>
<polygon fill="#000000" stroke="#000000" points="509.2652,-46.5872 510.7229,-36.0931 503.0392,-43.3877 509.2652,-46.5872"/>
</g>
<!-- denied -->
<g id="node14" class="node">
<title>denied</title>
<ellipse fill="none" stroke="#000000" cx="143.0208" cy="-18" rx="68.8581" ry="18"/>
<text text-anchor="middle" x="143.0208" y="-13.8" font-family="Times,serif" font-size="14.00" fill="#000000">Access Denied</text>
</g>
<!-- samples__siteID_siteID__sites_where_No_Rows&#45;&gt;denied -->
<g id="edge13" class="edge">
<title>samples__siteID_siteID__sites_where_No_Rows&#45;&gt;denied</title>
<path fill="none" stroke="#000000" d="M208.733,-73.6621C197.6432,-64.2684 183.5118,-52.2983 171.1973,-41.8672"/>
<polygon fill="#000000" stroke="#000000" points="173.3102,-39.0701 163.4175,-35.2773 168.7858,-44.4114 173.3102,-39.0701"/>
</g>
<!-- samples__siteID_siteID__sites_join_No_Rows&#45;&gt;denied -->
<g id="edge15" class="edge">
<title>samples__siteID_siteID__sites_join_No_Rows&#45;&gt;denied</title>
<path fill="none" stroke="#000000" d="M105.0376,-155.2833C112.4817,-128.3778 126.5145,-77.6589 135.2817,-45.9715"/>
<polygon fill="#000000" stroke="#000000" points="138.7425,-46.5881 138.0359,-36.0168 131.996,-44.7214 138.7425,-46.5881"/>
</g>
<!-- sites__siteID_siteID__samples_join_No_Rows&#45;&gt;denied -->
<g id="edge17" class="edge">
<title>sites__siteID_siteID__samples_join_No_Rows&#45;&gt;denied</title>
<path fill="none" stroke="#000000" d="M40.5777,-333.9362C34.3641,-296.9386 23.9446,-210.7724 47.0208,-144 60.9624,-103.6591 93.2846,-65.9207 116.5762,-42.4567"/>
<polygon fill="#000000" stroke="#000000" points="119.118,-44.8658 123.7864,-35.3549 114.2059,-39.8787 119.118,-44.8658"/>
</g>
<!-- addresses__addID_addID__sites_where_No_Rows&#45;&gt;denied -->
<g id="edge19" class="edge">
<title>addresses__addID_addID__sites_where_No_Rows&#45;&gt;denied</title>
<path fill="none" stroke="#000000" d="M403.813,-524.5882C405.2229,-490.7164 408.0208,-415.5127 408.0208,-352.1263 408.0208,-352.1263 408.0208,-352.1263 408.0208,-173.4156 408.0208,-83.1398 292.1755,-44.2999 213.6728,-28.3439"/>
<polygon fill="#000000" stroke="#000000" points="214.3025,-24.9009 203.8171,-26.42 212.9612,-31.7712 214.3025,-24.9009"/>
</g>
<!-- addresses__addID_addID__sites_join_No_Rows&#45;&gt;granted -->
<g id="edge21" class="edge">
<title>addresses__addID_addID__sites_join_No_Rows&#45;&gt;granted</title>
<path fill="none" stroke="#000000" d="M558.0208,-703.417C558.0208,-671.186 558.0208,-601.511 558.0208,-542.7164 558.0208,-542.7164 558.0208,-542.7164 558.0208,-173.4156 558.0208,-127.7468 542.3467,-76.6338 531.1317,-45.9068"/>
<polygon fill="#000000" stroke="#000000" points="534.3188,-44.4379 527.5283,-36.3052 527.7651,-46.8974 534.3188,-44.4379"/>
</g>
</g>
</svg>
