<?xml version="1.0" encoding="UTF-8" standalone="no"?>
<!DOCTYPE svg PUBLIC "-//W3C//DTD SVG 1.1//EN"
 "http://www.w3.org/Graphics/SVG/1.1/DTD/svg11.dtd">
<!-- Generated by graphviz version 2.40.1 (20161225.0304)
 -->
<!-- Title: G Pages: 1 -->
<svg width="404pt" height="664pt"
 viewBox="0.00 0.00 404.04 664.01" xmlns="http://www.w3.org/2000/svg" xmlns:xlink="http://www.w3.org/1999/xlink">
<g id="graph0" class="graph" transform="scale(1 1) rotate(0) translate(4 660.0114)">
<title>G</title>
<polygon fill="#ffffff" stroke="transparent" points="-4,4 -4,-660.0114 400.0415,-660.0114 400.0415,4 -4,4"/>
<!-- contacts -->
<g id="node1" class="node">
<title>contacts</title>
<ellipse fill="none" stroke="#000000" cx="281.0208" cy="-638.0114" rx="42.8538" ry="18"/>
<text text-anchor="middle" x="281.0208" y="-633.8114" font-family="Times,serif" font-size="14.00" fill="#000000">contacts</text>
</g>
<!-- contacts__contID_contID__samples_join -->
<g id="node2" class="node">
<title>contacts__contID_contID__samples_join</title>
<ellipse fill="none" stroke="#000000" cx="281.0208" cy="-542.7164" rx="93.4765" ry="41.0911"/>
<text text-anchor="middle" x="281.0208" y="-555.3164" font-family="Times,serif" font-size="14.00" fill="#000000">LEFT JOIN samples</text>
<text text-anchor="middle" x="281.0208" y="-538.5164" font-family="Times,serif" font-size="14.00" fill="#000000">At level: 2</text>
<text text-anchor="middle" x="281.0208" y="-521.7164" font-family="Times,serif" font-size="14.00" fill="#000000">Required: false</text>
</g>
<!-- contacts&#45;&gt;contacts__contID_contID__samples_join -->
<g id="edge1" class="edge">
<title>contacts&#45;&gt;contacts__contID_contID__samples_join</title>
<path fill="none" stroke="#000000" d="M281.0208,-619.6376C281.0208,-612.3285 281.0208,-603.5189 281.0208,-594.5101"/>
<polygon fill="#000000" stroke="#000000" points="284.5209,-594.3235 281.0208,-584.3236 277.5209,-594.3236 284.5209,-594.3235"/>
</g>
<!-- contacts__contID_contID__samples_join_Has_Rows -->
<g id="node3" class="node">
<title>contacts__contID_contID__samples_join_Has_Rows</title>
<ellipse fill="none" stroke="#000000" cx="244.0208" cy="-447.4214" rx="47.4704" ry="18"/>
<text text-anchor="middle" x="244.0208" y="-443.2214" font-family="Times,serif" font-size="14.00" fill="#000000">Has rows</text>
</g>
<!-- contacts__contID_contID__samples_join&#45;&gt;contacts__contID_contID__samples_join_Has_Rows -->
<g id="edge2" class="edge">
<title>contacts__contID_contID__samples_join&#45;&gt;contacts__contID_contID__samples_join_Has_Rows</title>
<path fill="none" stroke="#000000" d="M265.1147,-501.7497C261.5671,-492.6127 257.8897,-483.1413 254.6183,-474.7156"/>
<polygon fill="#000000" stroke="#000000" points="257.8787,-473.4428 250.9965,-465.3876 251.3533,-475.9764 257.8787,-473.4428"/>
</g>
<!-- contacts__contID_contID__samples_join_No_Rows -->
<g id="node12" class="node">
<title>contacts__contID_contID__samples_join_No_Rows</title>
<ellipse fill="none" stroke="#000000" cx="352.0208" cy="-352.1263" rx="44.0415" ry="18"/>
<text text-anchor="middle" x="352.0208" y="-347.9263" font-family="Times,serif" font-size="14.00" fill="#000000">No rows</text>
</g>
<!-- contacts__contID_contID__samples_join&#45;&gt;contacts__contID_contID__samples_join_No_Rows -->
<g id="edge12" class="edge">
<title>contacts__contID_contID__samples_join&#45;&gt;contacts__contID_contID__samples_join_No_Rows</title>
<path fill="none" stroke="#000000" d="M296.252,-501.83C310.003,-464.9175 329.8556,-411.6256 341.7921,-379.5838"/>
<polygon fill="#000000" stroke="#000000" points="345.1605,-380.5677 345.3717,-369.9749 338.6009,-378.124 345.1605,-380.5677"/>
</g>
<!-- samples__siteID_siteID__sites_join -->
<g id="node4" class="node">
<title>samples__siteID_siteID__sites_join</title>
<ellipse fill="none" stroke="#000000" cx="211.0208" cy="-352.1263" rx="78.8882" ry="41.0911"/>
<text text-anchor="middle" x="211.0208" y="-364.7263" font-family="Times,serif" font-size="14.00" fill="#000000">LEFT JOIN sites</text>
<text text-anchor="middle" x="211.0208" y="-347.9263" font-family="Times,serif" font-size="14.00" fill="#000000">At level: 1</text>
<text text-anchor="middle" x="211.0208" y="-331.1263" font-family="Times,serif" font-size="14.00" fill="#000000">Required: true</text>
</g>
<!-- contacts__contID_contID__samples_join_Has_Rows&#45;&gt;samples__siteID_siteID__sites_join -->
<g id="edge3" class="edge">
<title>contacts__contID_contID__samples_join_Has_Rows&#45;&gt;samples__siteID_siteID__sites_join</title>
<path fill="none" stroke="#000000" d="M237.8137,-429.4971C235.1252,-421.7333 231.8296,-412.2165 228.481,-402.5468"/>
<polygon fill="#000000" stroke="#000000" points="231.7151,-401.1897 225.1354,-392.8855 225.1004,-403.4803 231.7151,-401.1897"/>
</g>
<!-- samples__siteID_siteID__sites_join_Has_Rows -->
<g id="node5" class="node">
<title>samples__siteID_siteID__sites_join_Has_Rows</title>
<ellipse fill="none" stroke="#000000" cx="213.0208" cy="-256.8313" rx="47.4704" ry="18"/>
<text text-anchor="middle" x="213.0208" y="-252.6313" font-family="Times,serif" font-size="14.00" fill="#000000">Has rows</text>
</g>
<!-- samples__siteID_siteID__sites_join&#45;&gt;samples__siteID_siteID__sites_join_Has_Rows -->
<g id="edge4" class="edge">
<title>samples__siteID_siteID__sites_join&#45;&gt;samples__siteID_siteID__sites_join_Has_Rows</title>
<path fill="none" stroke="#000000" d="M211.8922,-310.6057C212.0717,-302.0541 212.2568,-293.2347 212.4238,-285.2742"/>
<polygon fill="#000000" stroke="#000000" points="215.9276,-285.1285 212.6383,-275.0572 208.9291,-284.9815 215.9276,-285.1285"/>
</g>
<!-- samples__siteID_siteID__sites_join_No_Rows -->
<g id="node11" class="node">
<title>samples__siteID_siteID__sites_join_No_Rows</title>
<ellipse fill="none" stroke="#000000" cx="44.0208" cy="-173.4156" rx="44.0415" ry="18"/>
<text text-anchor="middle" x="44.0208" y="-169.2156" font-family="Times,serif" font-size="14.00" fill="#000000">No rows</text>
</g>
<!-- samples__siteID_siteID__sites_join&#45;&gt;samples__siteID_siteID__sites_join_No_Rows -->
<g id="edge10" class="edge">
<title>samples__siteID_siteID__sites_join&#45;&gt;samples__siteID_siteID__sites_join_No_Rows</title>
<path fill="none" stroke="#000000" d="M176.0121,-314.6627C143.1755,-279.5235 95.0282,-227.9999 66.8676,-197.8646"/>
<polygon fill="#000000" stroke="#000000" points="69.2071,-195.2419 59.8222,-190.3252 64.0926,-200.0213 69.2071,-195.2419"/>
</g>
<!-- samples__siteID_siteID__sites_where -->
<g id="node6" class="node">
<title>samples__siteID_siteID__sites_where</title>
<ellipse fill="none" stroke="#000000" cx="215.0208" cy="-173.4156" rx="108.6735" ry="29.3315"/>
<text text-anchor="middle" x="215.0208" y="-177.6156" font-family="Times,serif" font-size="14.00" fill="#000000">WHERE</text>
<text text-anchor="middle" x="215.0208" y="-160.8156" font-family="Times,serif" font-size="14.00" fill="#000000">sites.healthReg = &quot;CSC&quot;</text>
</g>
<!-- samples__siteID_siteID__sites_join_Has_Rows&#45;&gt;samples__siteID_siteID__sites_where -->
<g id="edge5" class="edge">
<title>samples__siteID_siteID__sites_join_Has_Rows&#45;&gt;samples__siteID_siteID__sites_where</title>
<path fill="none" stroke="#000000" d="M213.4547,-238.7313C213.6367,-231.1418 213.856,-221.9972 214.072,-212.986"/>
<polygon fill="#000000" stroke="#000000" points="217.5716,-213.0398 214.3124,-202.9588 210.5736,-212.872 217.5716,-213.0398"/>
</g>
<!-- samples__siteID_siteID__sites_where_Has_Rows -->
<g id="node7" class="node">
<title>samples__siteID_siteID__sites_where_Has_Rows</title>
<ellipse fill="none" stroke="#000000" cx="271.0208" cy="-90" rx="47.4704" ry="18"/>
<text text-anchor="middle" x="271.0208" y="-85.8" font-family="Times,serif" font-size="14.00" fill="#000000">Has rows</text>
</g>
<!-- samples__siteID_siteID__sites_where&#45;&gt;samples__siteID_siteID__sites_where_Has_Rows -->
<g id="edge6" class="edge">
<title>samples__siteID_siteID__sites_where&#45;&gt;samples__siteID_siteID__sites_where_Has_Rows</title>
<path fill="none" stroke="#000000" d="M234.6069,-144.2409C240.7573,-135.0795 247.5048,-125.0286 253.5024,-116.0947"/>
<polygon fill="#000000" stroke="#000000" points="256.5323,-117.8609 259.2002,-107.6075 250.7205,-113.9592 256.5323,-117.8609"/>
</g>
<!-- samples__siteID_siteID__sites_where_No_Rows -->
<g id="node9" class="node">
<title>samples__siteID_siteID__sites_where_No_Rows</title>
<ellipse fill="none" stroke="#000000" cx="149.0208" cy="-90" rx="44.0415" ry="18"/>
<text text-anchor="middle" x="149.0208" y="-85.8" font-family="Times,serif" font-size="14.00" fill="#000000">No rows</text>
</g>
<!-- samples__siteID_siteID__sites_where&#45;&gt;samples__siteID_siteID__sites_where_No_Rows -->
<g id="edge8" class="edge">
<title>samples__siteID_siteID__sites_where&#45;&gt;samples__siteID_siteID__sites_where_No_Rows</title>
<path fill="none" stroke="#000000" d="M191.9372,-144.2409C184.5375,-134.8886 176.4044,-124.6094 169.2268,-115.5378"/>
<polygon fill="#000000" stroke="#000000" points="171.9018,-113.278 162.9521,-107.6075 166.4123,-117.6214 171.9018,-113.278"/>
</g>
<!-- granted -->
<g id="node8" class="node">
<title>granted</title>
<ellipse fill="none" stroke="#000000" cx="295.0208" cy="-18" rx="71.7874" ry="18"/>
<text text-anchor="middle" x="295.0208" y="-13.8" font-family="Times,serif" font-size="14.00" fill="#000000">Access Granted</text>
</g>
<!-- samples__siteID_siteID__sites_where_Has_Rows&#45;&gt;granted -->
<g id="edge7" class="edge">
<title>samples__siteID_siteID__sites_where_Has_Rows&#45;&gt;granted</title>
<path fill="none" stroke="#000000" d="M277.077,-71.8314C279.672,-64.0463 282.7631,-54.7729 285.6425,-46.1347"/>
<polygon fill="#000000" stroke="#000000" points="289.0411,-47.0069 288.883,-36.4133 282.4003,-44.7933 289.0411,-47.0069"/>
</g>
<!-- denied -->
<g id="node10" class="node">
<title>denied</title>
<ellipse fill="none" stroke="#000000" cx="125.0208" cy="-18" rx="68.8581" ry="18"/>
<text text-anchor="middle" x="125.0208" y="-13.8" font-family="Times,serif" font-size="14.00" fill="#000000">Access Denied</text>
</g>
<!-- samples__siteID_siteID__sites_where_No_Rows&#45;&gt;denied -->
<g id="edge9" class="edge">
<title>samples__siteID_siteID__sites_where_No_Rows&#45;&gt;denied</title>
<path fill="none" stroke="#000000" d="M142.9646,-71.8314C140.3695,-64.0463 137.2784,-54.7729 134.399,-46.1347"/>
<polygon fill="#000000" stroke="#000000" points="137.6413,-44.7933 131.1585,-36.4133 131.0005,-47.0069 137.6413,-44.7933"/>
</g>
<!-- samples__siteID_siteID__sites_join_No_Rows&#45;&gt;denied -->
<g id="edge11" class="edge">
<title>samples__siteID_siteID__sites_join_No_Rows&#45;&gt;denied</title>
<path fill="none" stroke="#000000" d="M52.9378,-155.7747C63.215,-135.5015 80.665,-101.2586 96.0208,-72 100.6693,-63.1428 105.814,-53.5095 110.4638,-44.8642"/>
<polygon fill="#000000" stroke="#000000" points="113.6026,-46.4175 115.2682,-35.9544 107.4413,-43.0951 113.6026,-46.4175"/>
</g>
<!-- contacts__contID_contID__samples_join_No_Rows&#45;&gt;granted -->
<g id="edge13" class="edge">
<title>contacts__contID_contID__samples_join_No_Rows&#45;&gt;granted</title>
<path fill="none" stroke="#000000" d="M353.1297,-333.8819C355.3165,-288.3944 357.5943,-166.7974 327.0208,-72 323.9748,-62.5555 319.0468,-52.9974 313.9611,-44.6015"/>
<polygon fill="#000000" stroke="#000000" points="316.8001,-42.5445 308.4623,-36.0075 310.9038,-46.3172 316.8001,-42.5445"/>
</g>
</g>
</svg>
