<?xml version="1.0" encoding="UTF-8" standalone="no"?>
<!DOCTYPE svg PUBLIC "-//W3C//DTD SVG 1.1//EN"
 "http://www.w3.org/Graphics/SVG/1.1/DTD/svg11.dtd">
<!-- Generated by graphviz version 2.40.1 (20161225.0304)
 -->
<!-- Title: G Pages: 1 -->
<svg width="451pt" height="855pt"
 viewBox="0.00 0.00 451.04 854.60" xmlns="http://www.w3.org/2000/svg" xmlns:xlink="http://www.w3.org/1999/xlink">
<g id="graph0" class="graph" transform="scale(1 1) rotate(0) translate(4 850.6015)">
<title>G</title>
<polygon fill="#ffffff" stroke="transparent" points="-4,4 -4,-850.6015 447.0415,-850.6015 447.0415,4 -4,4"/>
<!-- instruments -->
<g id="node1" class="node">
<title>instruments</title>
<ellipse fill="none" stroke="#000000" cx="314.0208" cy="-828.6015" rx="56.1957" ry="18"/>
<text text-anchor="middle" x="314.0208" y="-824.4015" font-family="Times,serif" font-size="14.00" fill="#000000">instruments</text>
</g>
<!-- instruments__dataID_dataID__datasets_join -->
<g id="node2" class="node">
<title>instruments__dataID_dataID__datasets_join</title>
<ellipse fill="none" stroke="#000000" cx="314.0208" cy="-733.3065" rx="92.8656" ry="41.0911"/>
<text text-anchor="middle" x="314.0208" y="-745.9065" font-family="Times,serif" font-size="14.00" fill="#000000">LEFT JOIN datasets</text>
<text text-anchor="middle" x="314.0208" y="-729.1065" font-family="Times,serif" font-size="14.00" fill="#000000">At level: 3</text>
<text text-anchor="middle" x="314.0208" y="-712.3065" font-family="Times,serif" font-size="14.00" fill="#000000">Required: false</text>
</g>
<!-- instruments&#45;&gt;instruments__dataID_dataID__datasets_join -->
<g id="edge1" class="edge">
<title>instruments&#45;&gt;instruments__dataID_dataID__datasets_join</title>
<path fill="none" stroke="#000000" d="M314.0208,-810.2277C314.0208,-802.9185 314.0208,-794.1089 314.0208,-785.1001"/>
<polygon fill="#000000" stroke="#000000" points="317.5209,-784.9136 314.0208,-774.9136 310.5209,-784.9137 317.5209,-784.9136"/>
</g>
<!-- instruments__dataID_dataID__datasets_join_Has_Rows -->
<g id="node3" class="node">
<title>instruments__dataID_dataID__datasets_join_Has_Rows</title>
<ellipse fill="none" stroke="#000000" cx="277.0208" cy="-638.0114" rx="47.4704" ry="18"/>
<text text-anchor="middle" x="277.0208" y="-633.8114" font-family="Times,serif" font-size="14.00" fill="#000000">Has rows</text>
</g>
<!-- instruments__dataID_dataID__datasets_join&#45;&gt;instruments__dataID_dataID__datasets_join_Has_Rows -->
<g id="edge2" class="edge">
<title>instruments__dataID_dataID__datasets_join&#45;&gt;instruments__dataID_dataID__datasets_join_Has_Rows</title>
<path fill="none" stroke="#000000" d="M298.1147,-692.3397C294.5671,-683.2028 290.8897,-673.7314 287.6183,-665.3057"/>
<polygon fill="#000000" stroke="#000000" points="290.8787,-664.0329 283.9965,-655.9777 284.3533,-666.5665 290.8787,-664.0329"/>
</g>
<!-- instruments__dataID_dataID__datasets_join_No_Rows -->
<g id="node15" class="node">
<title>instruments__dataID_dataID__datasets_join_No_Rows</title>
<ellipse fill="none" stroke="#000000" cx="399.0208" cy="-542.7164" rx="44.0415" ry="18"/>
<text text-anchor="middle" x="399.0208" y="-538.5164" font-family="Times,serif" font-size="14.00" fill="#000000">No rows</text>
</g>
<!-- instruments__dataID_dataID__datasets_join&#45;&gt;instruments__dataID_dataID__datasets_join_No_Rows -->
<g id="edge16" class="edge">
<title>instruments__dataID_dataID__datasets_join&#45;&gt;instruments__dataID_dataID__datasets_join_No_Rows</title>
<path fill="none" stroke="#000000" d="M332.2554,-692.4201C348.7891,-655.3477 372.691,-601.754 386.9603,-569.7589"/>
<polygon fill="#000000" stroke="#000000" points="390.1839,-571.1235 391.0606,-560.565 383.7909,-568.2723 390.1839,-571.1235"/>
</g>
<!-- datasets__dataID_dataID__samples_join -->
<g id="node4" class="node">
<title>datasets__dataID_dataID__samples_join</title>
<ellipse fill="none" stroke="#000000" cx="195.0208" cy="-542.7164" rx="93.4765" ry="41.0911"/>
<text text-anchor="middle" x="195.0208" y="-555.3164" font-family="Times,serif" font-size="14.00" fill="#000000">LEFT JOIN samples</text>
<text text-anchor="middle" x="195.0208" y="-538.5164" font-family="Times,serif" font-size="14.00" fill="#000000">At level: 2</text>
<text text-anchor="middle" x="195.0208" y="-521.7164" font-family="Times,serif" font-size="14.00" fill="#000000">Required: true</text>
</g>
<!-- instruments__dataID_dataID__datasets_join_Has_Rows&#45;&gt;datasets__dataID_dataID__samples_join -->
<g id="edge3" class="edge">
<title>instruments__dataID_dataID__datasets_join_Has_Rows&#45;&gt;datasets__dataID_dataID__samples_join</title>
<path fill="none" stroke="#000000" d="M261.9807,-620.5328C254.3171,-611.6267 244.5979,-600.3317 234.9572,-589.1279"/>
<polygon fill="#000000" stroke="#000000" points="237.4971,-586.7136 228.3216,-581.4164 232.1911,-591.2794 237.4971,-586.7136"/>
</g>
<!-- datasets__dataID_dataID__samples_join_Has_Rows -->
<g id="node5" class="node">
<title>datasets__dataID_dataID__samples_join_Has_Rows</title>
<ellipse fill="none" stroke="#000000" cx="195.0208" cy="-447.4214" rx="47.4704" ry="18"/>
<text text-anchor="middle" x="195.0208" y="-443.2214" font-family="Times,serif" font-size="14.00" fill="#000000">Has rows</text>
</g>
<!-- datasets__dataID_dataID__samples_join&#45;&gt;datasets__dataID_dataID__samples_join_Has_Rows -->
<g id="edge4" class="edge">
<title>datasets__dataID_dataID__samples_join&#45;&gt;datasets__dataID_dataID__samples_join_Has_Rows</title>
<path fill="none" stroke="#000000" d="M195.0208,-501.1958C195.0208,-492.6442 195.0208,-483.8248 195.0208,-475.8643"/>
<polygon fill="#000000" stroke="#000000" points="198.5209,-475.6472 195.0208,-465.6473 191.5209,-475.6473 198.5209,-475.6472"/>
</g>
<!-- datasets__dataID_dataID__samples_join_No_Rows -->
<g id="node14" class="node">
<title>datasets__dataID_dataID__samples_join_No_Rows</title>
<ellipse fill="none" stroke="#000000" cx="44.0208" cy="-352.1263" rx="44.0415" ry="18"/>
<text text-anchor="middle" x="44.0208" y="-347.9263" font-family="Times,serif" font-size="14.00" fill="#000000">No rows</text>
</g>
<!-- datasets__dataID_dataID__samples_join&#45;&gt;datasets__dataID_dataID__samples_join_No_Rows -->
<g id="edge14" class="edge">
<title>datasets__dataID_dataID__samples_join&#45;&gt;datasets__dataID_dataID__samples_join_No_Rows</title>
<path fill="none" stroke="#000000" d="M164.0993,-503.6877C134.1597,-465.8984 89.6489,-409.7175 64.0686,-377.4305"/>
<polygon fill="#000000" stroke="#000000" points="66.6417,-375.042 57.6884,-369.3774 61.155,-379.389 66.6417,-375.042"/>
</g>
<!-- samples__siteID_siteID__sites_join -->
<g id="node6" class="node">
<title>samples__siteID_siteID__sites_join</title>
<ellipse fill="none" stroke="#000000" cx="195.0208" cy="-352.1263" rx="78.8882" ry="41.0911"/>
<text text-anchor="middle" x="195.0208" y="-364.7263" font-family="Times,serif" font-size="14.00" fill="#000000">LEFT JOIN sites</text>
<text text-anchor="middle" x="195.0208" y="-347.9263" font-family="Times,serif" font-size="14.00" fill="#000000">At level: 1</text>
<text text-anchor="middle" x="195.0208" y="-331.1263" font-family="Times,serif" font-size="14.00" fill="#000000">Required: true</text>
</g>
<!-- datasets__dataID_dataID__samples_join_Has_Rows&#45;&gt;samples__siteID_siteID__sites_join -->
<g id="edge5" class="edge">
<title>datasets__dataID_dataID__samples_join_Has_Rows&#45;&gt;samples__siteID_siteID__sites_join</title>
<path fill="none" stroke="#000000" d="M195.0208,-429.0475C195.0208,-421.7384 195.0208,-412.9288 195.0208,-403.92"/>
<polygon fill="#000000" stroke="#000000" points="198.5209,-403.7335 195.0208,-393.7335 191.5209,-403.7335 198.5209,-403.7335"/>
</g>
<!-- samples__siteID_siteID__sites_join_Has_Rows -->
<g id="node7" class="node">
<title>samples__siteID_siteID__sites_join_Has_Rows</title>
<ellipse fill="none" stroke="#000000" cx="219.0208" cy="-256.8313" rx="47.4704" ry="18"/>
<text text-anchor="middle" x="219.0208" y="-252.6313" font-family="Times,serif" font-size="14.00" fill="#000000">Has rows</text>
</g>
<!-- samples__siteID_siteID__sites_join&#45;&gt;samples__siteID_siteID__sites_join_Has_Rows -->
<g id="edge6" class="edge">
<title>samples__siteID_siteID__sites_join&#45;&gt;samples__siteID_siteID__sites_join_Has_Rows</title>
<path fill="none" stroke="#000000" d="M205.3382,-311.1596C207.5893,-302.2213 209.921,-292.9629 212.008,-284.6765"/>
<polygon fill="#000000" stroke="#000000" points="215.4477,-285.3495 214.496,-274.7975 208.6597,-283.6399 215.4477,-285.3495"/>
</g>
<!-- samples__siteID_siteID__sites_join_No_Rows -->
<g id="node13" class="node">
<title>samples__siteID_siteID__sites_join_No_Rows</title>
<ellipse fill="none" stroke="#000000" cx="96.0208" cy="-173.4156" rx="44.0415" ry="18"/>
<text text-anchor="middle" x="96.0208" y="-169.2156" font-family="Times,serif" font-size="14.00" fill="#000000">No rows</text>
</g>
<!-- samples__siteID_siteID__sites_join&#45;&gt;samples__siteID_siteID__sites_join_No_Rows -->
<g id="edge12" class="edge">
<title>samples__siteID_siteID__sites_join&#45;&gt;samples__siteID_siteID__sites_join_No_Rows</title>
<path fill="none" stroke="#000000" d="M172.8032,-312.0202C153.8728,-277.8476 127.2004,-229.6998 110.791,-200.0783"/>
<polygon fill="#000000" stroke="#000000" points="113.7542,-198.2045 105.8467,-191.1531 107.631,-201.5966 113.7542,-198.2045"/>
</g>
<!-- samples__siteID_siteID__sites_where -->
<g id="node8" class="node">
<title>samples__siteID_siteID__sites_where</title>
<ellipse fill="none" stroke="#000000" cx="267.0208" cy="-173.4156" rx="108.6735" ry="29.3315"/>
<text text-anchor="middle" x="267.0208" y="-177.6156" font-family="Times,serif" font-size="14.00" fill="#000000">WHERE</text>
<text text-anchor="middle" x="267.0208" y="-160.8156" font-family="Times,serif" font-size="14.00" fill="#000000">sites.healthReg = &quot;CSC&quot;</text>
</g>
<!-- samples__siteID_siteID__sites_join_Has_Rows&#45;&gt;samples__siteID_siteID__sites_where -->
<g id="edge7" class="edge">
<title>samples__siteID_siteID__sites_join_Has_Rows&#45;&gt;samples__siteID_siteID__sites_where</title>
<path fill="none" stroke="#000000" d="M229.2003,-239.141C233.8778,-231.0124 239.6177,-221.0375 245.1991,-211.3379"/>
<polygon fill="#000000" stroke="#000000" points="248.2914,-212.9815 250.2453,-202.5684 242.2242,-209.4902 248.2914,-212.9815"/>
</g>
<!-- samples__siteID_siteID__sites_where_Has_Rows -->
<g id="node9" class="node">
<title>samples__siteID_siteID__sites_where_Has_Rows</title>
<ellipse fill="none" stroke="#000000" cx="316.0208" cy="-90" rx="47.4704" ry="18"/>
<text text-anchor="middle" x="316.0208" y="-85.8" font-family="Times,serif" font-size="14.00" fill="#000000">Has rows</text>
</g>
<!-- samples__siteID_siteID__sites_where&#45;&gt;samples__siteID_siteID__sites_where_Has_Rows -->
<g id="edge8" class="edge">
<title>samples__siteID_siteID__sites_where&#45;&gt;samples__siteID_siteID__sites_where_Has_Rows</title>
<path fill="none" stroke="#000000" d="M284.1586,-144.2409C289.4841,-135.1749 295.3213,-125.2379 300.528,-116.3743"/>
<polygon fill="#000000" stroke="#000000" points="303.6306,-118.0027 305.6778,-107.6075 297.5949,-114.4571 303.6306,-118.0027"/>
</g>
<!-- samples__siteID_siteID__sites_where_No_Rows -->
<g id="node11" class="node">
<title>samples__siteID_siteID__sites_where_No_Rows</title>
<ellipse fill="none" stroke="#000000" cx="194.0208" cy="-90" rx="44.0415" ry="18"/>
<text text-anchor="middle" x="194.0208" y="-85.8" font-family="Times,serif" font-size="14.00" fill="#000000">No rows</text>
</g>
<!-- samples__siteID_siteID__sites_where&#45;&gt;samples__siteID_siteID__sites_where_No_Rows -->
<g id="edge10" class="edge">
<title>samples__siteID_siteID__sites_where&#45;&gt;samples__siteID_siteID__sites_where_No_Rows</title>
<path fill="none" stroke="#000000" d="M241.8983,-144.7087C233.4771,-135.0859 224.158,-124.4372 215.9966,-115.1113"/>
<polygon fill="#000000" stroke="#000000" points="218.3936,-112.5357 209.1741,-107.3154 213.1259,-117.1457 218.3936,-112.5357"/>
</g>
<!-- granted -->
<g id="node10" class="node">
<title>granted</title>
<ellipse fill="none" stroke="#000000" cx="360.0208" cy="-18" rx="71.7874" ry="18"/>
<text text-anchor="middle" x="360.0208" y="-13.8" font-family="Times,serif" font-size="14.00" fill="#000000">Access Granted</text>
</g>
<!-- samples__siteID_siteID__sites_where_Has_Rows&#45;&gt;granted -->
<g id="edge9" class="edge">
<title>samples__siteID_siteID__sites_where_Has_Rows&#45;&gt;granted</title>
<path fill="none" stroke="#000000" d="M326.8972,-72.2022C331.9742,-63.8944 338.1237,-53.8316 343.7391,-44.6427"/>
<polygon fill="#000000" stroke="#000000" points="346.8889,-46.2005 349.117,-35.8425 340.916,-42.5503 346.8889,-46.2005"/>
</g>
<!-- denied -->
<g id="node12" class="node">
<title>denied</title>
<ellipse fill="none" stroke="#000000" cx="96.0208" cy="-18" rx="68.8581" ry="18"/>
<text text-anchor="middle" x="96.0208" y="-13.8" font-family="Times,serif" font-size="14.00" fill="#000000">Access Denied</text>
</g>
<!-- samples__siteID_siteID__sites_where_No_Rows&#45;&gt;denied -->
<g id="edge11" class="edge">
<title>samples__siteID_siteID__sites_where_No_Rows&#45;&gt;denied</title>
<path fill="none" stroke="#000000" d="M172.2714,-74.0209C159.1669,-64.3931 142.2497,-51.9641 127.6805,-41.2602"/>
<polygon fill="#000000" stroke="#000000" points="129.5514,-38.2917 119.4203,-35.1915 125.4068,-43.9329 129.5514,-38.2917"/>
</g>
<!-- samples__siteID_siteID__sites_join_No_Rows&#45;&gt;denied -->
<g id="edge13" class="edge">
<title>samples__siteID_siteID__sites_join_No_Rows&#45;&gt;denied</title>
<path fill="none" stroke="#000000" d="M96.0208,-155.2833C96.0208,-128.4948 96.0208,-78.0995 96.0208,-46.3859"/>
<polygon fill="#000000" stroke="#000000" points="99.5209,-46.0168 96.0208,-36.0168 92.5209,-46.0169 99.5209,-46.0168"/>
</g>
<!-- datasets__dataID_dataID__samples_join_No_Rows&#45;&gt;denied -->
<g id="edge15" class="edge">
<title>datasets__dataID_dataID__samples_join_No_Rows&#45;&gt;denied</title>
<path fill="none" stroke="#000000" d="M41.5039,-334.0716C36.9601,-297.6736 29.0858,-213.0685 43.0208,-144 50.2622,-108.1082 68.0265,-69.7119 80.9992,-44.8672"/>
<polygon fill="#000000" stroke="#000000" points="84.0881,-46.513 85.7046,-36.0422 77.9112,-43.2196 84.0881,-46.513"/>
</g>
<!-- instruments__dataID_dataID__datasets_join_No_Rows&#45;&gt;granted -->
<g id="edge17" class="edge">
<title>instruments__dataID_dataID__datasets_join_No_Rows&#45;&gt;granted</title>
<path fill="none" stroke="#000000" d="M399.813,-524.5882C401.2229,-490.7164 404.0208,-415.5127 404.0208,-352.1263 404.0208,-352.1263 404.0208,-352.1263 404.0208,-173.4156 404.0208,-127.31 385.8719,-76.3213 372.886,-45.7391"/>
<polygon fill="#000000" stroke="#000000" points="375.9238,-43.9497 368.7138,-36.1866 369.509,-46.7516 375.9238,-43.9497"/>
</g>
</g>
</svg>
