<?xml version="1.0" encoding="UTF-8" standalone="no"?>
<!DOCTYPE svg PUBLIC "-//W3C//DTD SVG 1.1//EN"
 "http://www.w3.org/Graphics/SVG/1.1/DTD/svg11.dtd">
<!-- Generated by graphviz version 2.40.1 (20161225.0304)
 -->
<!-- Title: G Pages: 1 -->
<svg width="404pt" height="664pt"
 viewBox="0.00 0.00 403.86 664.01" xmlns="http://www.w3.org/2000/svg" xmlns:xlink="http://www.w3.org/1999/xlink">
<g id="graph0" class="graph" transform="scale(1 1) rotate(0) translate(4 660.0114)">
<title>G</title>
<polygon fill="#ffffff" stroke="transparent" points="-4,4 -4,-660.0114 399.8574,-660.0114 399.8574,4 -4,4"/>
<!-- measureSets -->
<g id="node1" class="node">
<title>measureSets</title>
<ellipse fill="none" stroke="#000000" cx="280.8366" cy="-638.0114" rx="59.1045" ry="18"/>
<text text-anchor="middle" x="280.8366" y="-633.8114" font-family="Times,serif" font-size="14.00" fill="#000000">measureSets</text>
</g>
<!-- measureSets__measSetRepID_measSetRepID__measures_join -->
<g id="node2" class="node">
<title>measureSets__measSetRepID_measSetRepID__measures_join</title>
<ellipse fill="none" stroke="#000000" cx="280.8366" cy="-542.7164" rx="98.354" ry="41.0911"/>
<text text-anchor="middle" x="280.8366" y="-555.3164" font-family="Times,serif" font-size="14.00" fill="#000000">LEFT JOIN measures</text>
<text text-anchor="middle" x="280.8366" y="-538.5164" font-family="Times,serif" font-size="14.00" fill="#000000">At level: 2</text>
<text text-anchor="middle" x="280.8366" y="-521.7164" font-family="Times,serif" font-size="14.00" fill="#000000">Required: true</text>
</g>
<!-- measureSets&#45;&gt;measureSets__measSetRepID_measSetRepID__measures_join -->
<g id="edge1" class="edge">
<title>measureSets&#45;&gt;measureSets__measSetRepID_measSetRepID__measures_join</title>
<path fill="none" stroke="#000000" d="M280.8366,-619.6376C280.8366,-612.3285 280.8366,-603.5189 280.8366,-594.5101"/>
<polygon fill="#000000" stroke="#000000" points="284.3367,-594.3235 280.8366,-584.3236 277.3367,-594.3236 284.3367,-594.3235"/>
</g>
<!-- measureSets__measSetRepID_measSetRepID__measures_join_Has_Rows -->
<g id="node3" class="node">
<title>measureSets__measSetRepID_measSetRepID__measures_join_Has_Rows</title>
<ellipse fill="none" stroke="#000000" cx="243.8366" cy="-447.4214" rx="47.4704" ry="18"/>
<text text-anchor="middle" x="243.8366" y="-443.2214" font-family="Times,serif" font-size="14.00" fill="#000000">Has rows</text>
</g>
<!-- measureSets__measSetRepID_measSetRepID__measures_join&#45;&gt;measureSets__measSetRepID_measSetRepID__measures_join_Has_Rows -->
<g id="edge2" class="edge">
<title>measureSets__measSetRepID_measSetRepID__measures_join&#45;&gt;measureSets__measSetRepID_measSetRepID__measures_join_Has_Rows</title>
<path fill="none" stroke="#000000" d="M264.9305,-501.7497C261.3829,-492.6127 257.7055,-483.1413 254.4341,-474.7156"/>
<polygon fill="#000000" stroke="#000000" points="257.6945,-473.4428 250.8123,-465.3876 251.1691,-475.9764 257.6945,-473.4428"/>
</g>
<!-- measureSets__measSetRepID_measSetRepID__measures_join_No_Rows -->
<g id="node12" class="node">
<title>measureSets__measSetRepID_measSetRepID__measures_join_No_Rows</title>
<ellipse fill="none" stroke="#000000" cx="351.8366" cy="-352.1263" rx="44.0415" ry="18"/>
<text text-anchor="middle" x="351.8366" y="-347.9263" font-family="Times,serif" font-size="14.00" fill="#000000">No rows</text>
</g>
<!-- measureSets__measSetRepID_measSetRepID__measures_join&#45;&gt;measureSets__measSetRepID_measSetRepID__measures_join_No_Rows -->
<g id="edge12" class="edge">
<title>measureSets__measSetRepID_measSetRepID__measures_join&#45;&gt;measureSets__measSetRepID_measSetRepID__measures_join_No_Rows</title>
<path fill="none" stroke="#000000" d="M296.0679,-501.83C309.8188,-464.9175 329.6715,-411.6256 341.608,-379.5838"/>
<polygon fill="#000000" stroke="#000000" points="344.9763,-380.5677 345.1875,-369.9749 338.4167,-378.124 344.9763,-380.5677"/>
</g>
<!-- measures__siteID_siteID__sites_join -->
<g id="node4" class="node">
<title>measures__siteID_siteID__sites_join</title>
<ellipse fill="none" stroke="#000000" cx="210.8366" cy="-352.1263" rx="78.8882" ry="41.0911"/>
<text text-anchor="middle" x="210.8366" y="-364.7263" font-family="Times,serif" font-size="14.00" fill="#000000">LEFT JOIN sites</text>
<text text-anchor="middle" x="210.8366" y="-347.9263" font-family="Times,serif" font-size="14.00" fill="#000000">At level: 1</text>
<text text-anchor="middle" x="210.8366" y="-331.1263" font-family="Times,serif" font-size="14.00" fill="#000000">Required: true</text>
</g>
<!-- measureSets__measSetRepID_measSetRepID__measures_join_Has_Rows&#45;&gt;measures__siteID_siteID__sites_join -->
<g id="edge3" class="edge">
<title>measureSets__measSetRepID_measSetRepID__measures_join_Has_Rows&#45;&gt;measures__siteID_siteID__sites_join</title>
<path fill="none" stroke="#000000" d="M237.6296,-429.4971C234.941,-421.7333 231.6454,-412.2165 228.2969,-402.5468"/>
<polygon fill="#000000" stroke="#000000" points="231.5309,-401.1897 224.9512,-392.8855 224.9163,-403.4803 231.5309,-401.1897"/>
</g>
<!-- measures__siteID_siteID__sites_join_Has_Rows -->
<g id="node5" class="node">
<title>measures__siteID_siteID__sites_join_Has_Rows</title>
<ellipse fill="none" stroke="#000000" cx="139.8366" cy="-256.8313" rx="47.4704" ry="18"/>
<text text-anchor="middle" x="139.8366" y="-252.6313" font-family="Times,serif" font-size="14.00" fill="#000000">Has rows</text>
</g>
<!-- measures__siteID_siteID__sites_join&#45;&gt;measures__siteID_siteID__sites_join_Has_Rows -->
<g id="edge4" class="edge">
<title>measures__siteID_siteID__sites_join&#45;&gt;measures__siteID_siteID__sites_join_Has_Rows</title>
<path fill="none" stroke="#000000" d="M182.1628,-313.6409C174.3837,-303.1999 166.1502,-292.149 159.0334,-282.5969"/>
<polygon fill="#000000" stroke="#000000" points="161.6378,-280.2343 152.8565,-274.3064 156.0245,-284.4165 161.6378,-280.2343"/>
</g>
<!-- measures__siteID_siteID__sites_join_No_Rows -->
<g id="node11" class="node">
<title>measures__siteID_siteID__sites_join_No_Rows</title>
<ellipse fill="none" stroke="#000000" cx="279.8366" cy="-173.4156" rx="44.0415" ry="18"/>
<text text-anchor="middle" x="279.8366" y="-169.2156" font-family="Times,serif" font-size="14.00" fill="#000000">No rows</text>
</g>
<!-- measures__siteID_siteID__sites_join&#45;&gt;measures__siteID_siteID__sites_join_No_Rows -->
<g id="edge10" class="edge">
<title>measures__siteID_siteID__sites_join&#45;&gt;measures__siteID_siteID__sites_join_No_Rows</title>
<path fill="none" stroke="#000000" d="M226.4938,-311.5741C239.5116,-277.8577 257.6926,-230.7687 269.1107,-201.1959"/>
<polygon fill="#000000" stroke="#000000" points="272.511,-202.1062 272.8478,-191.5167 265.9808,-199.5849 272.511,-202.1062"/>
</g>
<!-- measures__siteID_siteID__sites_where -->
<g id="node6" class="node">
<title>measures__siteID_siteID__sites_where</title>
<ellipse fill="none" stroke="#000000" cx="108.8366" cy="-173.4156" rx="108.6735" ry="29.3315"/>
<text text-anchor="middle" x="108.8366" y="-177.6156" font-family="Times,serif" font-size="14.00" fill="#000000">WHERE</text>
<text text-anchor="middle" x="108.8366" y="-160.8156" font-family="Times,serif" font-size="14.00" fill="#000000">sites.healthReg = &quot;CSC&quot;</text>
</g>
<!-- measures__siteID_siteID__sites_join_Has_Rows&#45;&gt;measures__siteID_siteID__sites_where -->
<g id="edge5" class="edge">
<title>measures__siteID_siteID__sites_join_Has_Rows&#45;&gt;measures__siteID_siteID__sites_where</title>
<path fill="none" stroke="#000000" d="M133.1101,-238.7313C130.2289,-230.9786 126.7447,-221.6032 123.3263,-212.4049"/>
<polygon fill="#000000" stroke="#000000" points="126.5802,-211.1132 119.8158,-202.9588 120.0186,-213.5517 126.5802,-211.1132"/>
</g>
<!-- measures__siteID_siteID__sites_where_Has_Rows -->
<g id="node7" class="node">
<title>measures__siteID_siteID__sites_where_Has_Rows</title>
<ellipse fill="none" stroke="#000000" cx="103.8366" cy="-90" rx="47.4704" ry="18"/>
<text text-anchor="middle" x="103.8366" y="-85.8" font-family="Times,serif" font-size="14.00" fill="#000000">Has rows</text>
</g>
<!-- measures__siteID_siteID__sites_where&#45;&gt;measures__siteID_siteID__sites_where_Has_Rows -->
<g id="edge6" class="edge">
<title>measures__siteID_siteID__sites_where&#45;&gt;measures__siteID_siteID__sites_where_Has_Rows</title>
<path fill="none" stroke="#000000" d="M107.0597,-143.7715C106.5679,-135.5664 106.0352,-126.6796 105.5472,-118.5388"/>
<polygon fill="#000000" stroke="#000000" points="109.0309,-118.1592 104.9387,-108.3866 102.0434,-118.5781 109.0309,-118.1592"/>
</g>
<!-- measures__siteID_siteID__sites_where_No_Rows -->
<g id="node9" class="node">
<title>measures__siteID_siteID__sites_where_No_Rows</title>
<ellipse fill="none" stroke="#000000" cx="212.8366" cy="-90" rx="44.0415" ry="18"/>
<text text-anchor="middle" x="212.8366" y="-85.8" font-family="Times,serif" font-size="14.00" fill="#000000">No rows</text>
</g>
<!-- measures__siteID_siteID__sites_where&#45;&gt;measures__siteID_siteID__sites_where_No_Rows -->
<g id="edge8" class="edge">
<title>measures__siteID_siteID__sites_where&#45;&gt;measures__siteID_siteID__sites_where_No_Rows</title>
<path fill="none" stroke="#000000" d="M143.7564,-145.4074C157.1166,-134.6915 172.1691,-122.6184 184.8046,-112.4837"/>
<polygon fill="#000000" stroke="#000000" points="187.106,-115.1246 192.717,-106.1374 182.7262,-109.664 187.106,-115.1246"/>
</g>
<!-- granted -->
<g id="node8" class="node">
<title>granted</title>
<ellipse fill="none" stroke="#000000" cx="103.8366" cy="-18" rx="71.7874" ry="18"/>
<text text-anchor="middle" x="103.8366" y="-13.8" font-family="Times,serif" font-size="14.00" fill="#000000">Access Granted</text>
</g>
<!-- measures__siteID_siteID__sites_where_Has_Rows&#45;&gt;granted -->
<g id="edge7" class="edge">
<title>measures__siteID_siteID__sites_where_Has_Rows&#45;&gt;granted</title>
<path fill="none" stroke="#000000" d="M103.8366,-71.8314C103.8366,-64.131 103.8366,-54.9743 103.8366,-46.4166"/>
<polygon fill="#000000" stroke="#000000" points="107.3367,-46.4132 103.8366,-36.4133 100.3367,-46.4133 107.3367,-46.4132"/>
</g>
<!-- denied -->
<g id="node10" class="node">
<title>denied</title>
<ellipse fill="none" stroke="#000000" cx="284.8366" cy="-18" rx="68.8581" ry="18"/>
<text text-anchor="middle" x="284.8366" y="-13.8" font-family="Times,serif" font-size="14.00" fill="#000000">Access Denied</text>
</g>
<!-- measures__siteID_siteID__sites_where_No_Rows&#45;&gt;denied -->
<g id="edge9" class="edge">
<title>measures__siteID_siteID__sites_where_No_Rows&#45;&gt;denied</title>
<path fill="none" stroke="#000000" d="M229.5358,-73.3008C238.5401,-64.2965 249.8314,-53.0052 259.8597,-42.9769"/>
<polygon fill="#000000" stroke="#000000" points="262.6272,-45.1592 267.2234,-35.6132 257.6774,-40.2094 262.6272,-45.1592"/>
</g>
<!-- measures__siteID_siteID__sites_join_No_Rows&#45;&gt;denied -->
<g id="edge11" class="edge">
<title>measures__siteID_siteID__sites_join_No_Rows&#45;&gt;denied</title>
<path fill="none" stroke="#000000" d="M280.42,-155.2833C281.2818,-128.4948 282.9031,-78.0995 283.9234,-46.3859"/>
<polygon fill="#000000" stroke="#000000" points="287.4335,-46.1242 284.257,-36.0168 280.4371,-45.8991 287.4335,-46.1242"/>
</g>
<!-- measureSets__measSetRepID_measSetRepID__measures_join_No_Rows&#45;&gt;denied -->
<g id="edge13" class="edge">
<title>measureSets__measSetRepID_measSetRepID__measures_join_No_Rows&#45;&gt;denied</title>
<path fill="none" stroke="#000000" d="M351.8326,-334.0479C351.4658,-297.6072 348.7949,-212.9292 332.8366,-144 324.6797,-108.7675 308.8866,-70.1711 297.6447,-45.1024"/>
<polygon fill="#000000" stroke="#000000" points="300.7702,-43.5207 293.4369,-35.8739 294.401,-46.4248 300.7702,-43.5207"/>
</g>
</g>
</svg>
