<?xml version="1.0" encoding="UTF-8" standalone="no"?>
<!DOCTYPE svg PUBLIC "-//W3C//DTD SVG 1.1//EN"
 "http://www.w3.org/Graphics/SVG/1.1/DTD/svg11.dtd">
<!-- Generated by graphviz version 2.40.1 (20161225.0304)
 -->
<!-- Title: G Pages: 1 -->
<svg width="346pt" height="473pt"
 viewBox="0.00 0.00 345.52 473.42" xmlns="http://www.w3.org/2000/svg" xmlns:xlink="http://www.w3.org/1999/xlink">
<g id="graph0" class="graph" transform="scale(1 1) rotate(0) translate(4 469.4214)">
<title>G</title>
<polygon fill="#ffffff" stroke="transparent" points="-4,4 -4,-469.4214 341.5154,-469.4214 341.5154,4 -4,4"/>
<!-- measures -->
<g id="node1" class="node">
<title>measures</title>
<ellipse fill="none" stroke="#000000" cx="193.8366" cy="-447.4214" rx="46.9265" ry="18"/>
<text text-anchor="middle" x="193.8366" y="-443.2214" font-family="Times,serif" font-size="14.00" fill="#000000">measures</text>
</g>
<!-- measures__siteID_siteID__sites_join -->
<g id="node2" class="node">
<title>measures__siteID_siteID__sites_join</title>
<ellipse fill="none" stroke="#000000" cx="193.8366" cy="-352.1263" rx="78.8882" ry="41.0911"/>
<text text-anchor="middle" x="193.8366" y="-364.7263" font-family="Times,serif" font-size="14.00" fill="#000000">LEFT JOIN sites</text>
<text text-anchor="middle" x="193.8366" y="-347.9263" font-family="Times,serif" font-size="14.00" fill="#000000">At level: 1</text>
<text text-anchor="middle" x="193.8366" y="-331.1263" font-family="Times,serif" font-size="14.00" fill="#000000">Required: true</text>
</g>
<!-- measures&#45;&gt;measures__siteID_siteID__sites_join -->
<g id="edge1" class="edge">
<title>measures&#45;&gt;measures__siteID_siteID__sites_join</title>
<path fill="none" stroke="#000000" d="M193.8366,-429.0475C193.8366,-421.7384 193.8366,-412.9288 193.8366,-403.92"/>
<polygon fill="#000000" stroke="#000000" points="197.3367,-403.7335 193.8366,-393.7335 190.3367,-403.7335 197.3367,-403.7335"/>
</g>
<!-- measures__siteID_siteID__sites_join_Has_Rows -->
<g id="node3" class="node">
<title>measures__siteID_siteID__sites_join_Has_Rows</title>
<ellipse fill="none" stroke="#000000" cx="156.8366" cy="-256.8313" rx="47.4704" ry="18"/>
<text text-anchor="middle" x="156.8366" y="-252.6313" font-family="Times,serif" font-size="14.00" fill="#000000">Has rows</text>
</g>
<!-- measures__siteID_siteID__sites_join&#45;&gt;measures__siteID_siteID__sites_join_Has_Rows -->
<g id="edge2" class="edge">
<title>measures__siteID_siteID__sites_join&#45;&gt;measures__siteID_siteID__sites_join_Has_Rows</title>
<path fill="none" stroke="#000000" d="M178.0379,-311.4362C174.4804,-302.2735 170.7866,-292.76 167.4982,-284.2906"/>
<polygon fill="#000000" stroke="#000000" points="170.7387,-282.9666 163.8565,-274.9114 164.2133,-285.5002 170.7387,-282.9666"/>
</g>
<!-- measures__siteID_siteID__sites_join_No_Rows -->
<g id="node9" class="node">
<title>measures__siteID_siteID__sites_join_No_Rows</title>
<ellipse fill="none" stroke="#000000" cx="279.8366" cy="-173.4156" rx="44.0415" ry="18"/>
<text text-anchor="middle" x="279.8366" y="-169.2156" font-family="Times,serif" font-size="14.00" fill="#000000">No rows</text>
</g>
<!-- measures__siteID_siteID__sites_join&#45;&gt;measures__siteID_siteID__sites_join_No_Rows -->
<g id="edge8" class="edge">
<title>measures__siteID_siteID__sites_join&#45;&gt;measures__siteID_siteID__sites_join_No_Rows</title>
<path fill="none" stroke="#000000" d="M213.1367,-312.0202C229.5101,-277.9956 252.5508,-230.1164 266.8203,-200.464"/>
<polygon fill="#000000" stroke="#000000" points="270.1184,-201.6817 271.3009,-191.1531 263.8108,-198.6463 270.1184,-201.6817"/>
</g>
<!-- measures__siteID_siteID__sites_where -->
<g id="node4" class="node">
<title>measures__siteID_siteID__sites_where</title>
<ellipse fill="none" stroke="#000000" cx="108.8366" cy="-173.4156" rx="108.6735" ry="29.3315"/>
<text text-anchor="middle" x="108.8366" y="-177.6156" font-family="Times,serif" font-size="14.00" fill="#000000">WHERE</text>
<text text-anchor="middle" x="108.8366" y="-160.8156" font-family="Times,serif" font-size="14.00" fill="#000000">sites.healthReg = &quot;CSC&quot;</text>
</g>
<!-- measures__siteID_siteID__sites_join_Has_Rows&#45;&gt;measures__siteID_siteID__sites_where -->
<g id="edge3" class="edge">
<title>measures__siteID_siteID__sites_join_Has_Rows&#45;&gt;measures__siteID_siteID__sites_where</title>
<path fill="none" stroke="#000000" d="M146.657,-239.141C141.9796,-231.0124 136.2397,-221.0375 130.6583,-211.3379"/>
<polygon fill="#000000" stroke="#000000" points="133.6332,-209.4902 125.612,-202.5684 127.566,-212.9815 133.6332,-209.4902"/>
</g>
<!-- measures__siteID_siteID__sites_where_Has_Rows -->
<g id="node5" class="node">
<title>measures__siteID_siteID__sites_where_Has_Rows</title>
<ellipse fill="none" stroke="#000000" cx="98.8366" cy="-90" rx="47.4704" ry="18"/>
<text text-anchor="middle" x="98.8366" y="-85.8" font-family="Times,serif" font-size="14.00" fill="#000000">Has rows</text>
</g>
<!-- measures__siteID_siteID__sites_where&#45;&gt;measures__siteID_siteID__sites_where_Has_Rows -->
<g id="edge4" class="edge">
<title>measures__siteID_siteID__sites_where&#45;&gt;measures__siteID_siteID__sites_where_Has_Rows</title>
<path fill="none" stroke="#000000" d="M105.2828,-143.7715C104.2992,-135.5664 103.2338,-126.6796 102.2579,-118.5388"/>
<polygon fill="#000000" stroke="#000000" points="105.7063,-117.8989 101.0408,-108.3866 98.7561,-118.7321 105.7063,-117.8989"/>
</g>
<!-- measures__siteID_siteID__sites_where_No_Rows -->
<g id="node7" class="node">
<title>measures__siteID_siteID__sites_where_No_Rows</title>
<ellipse fill="none" stroke="#000000" cx="207.8366" cy="-90" rx="44.0415" ry="18"/>
<text text-anchor="middle" x="207.8366" y="-85.8" font-family="Times,serif" font-size="14.00" fill="#000000">No rows</text>
</g>
<!-- measures__siteID_siteID__sites_where&#45;&gt;measures__siteID_siteID__sites_where_No_Rows -->
<g id="edge6" class="edge">
<title>measures__siteID_siteID__sites_where&#45;&gt;measures__siteID_siteID__sites_where_No_Rows</title>
<path fill="none" stroke="#000000" d="M142.3535,-145.1749C154.8416,-134.6526 168.8502,-122.8492 180.6959,-112.8682"/>
<polygon fill="#000000" stroke="#000000" points="183.1139,-115.4077 188.506,-106.2876 178.6035,-110.0546 183.1139,-115.4077"/>
</g>
<!-- granted -->
<g id="node6" class="node">
<title>granted</title>
<ellipse fill="none" stroke="#000000" cx="98.8366" cy="-18" rx="71.7874" ry="18"/>
<text text-anchor="middle" x="98.8366" y="-13.8" font-family="Times,serif" font-size="14.00" fill="#000000">Access Granted</text>
</g>
<!-- measures__siteID_siteID__sites_where_Has_Rows&#45;&gt;granted -->
<g id="edge5" class="edge">
<title>measures__siteID_siteID__sites_where_Has_Rows&#45;&gt;granted</title>
<path fill="none" stroke="#000000" d="M98.8366,-71.8314C98.8366,-64.131 98.8366,-54.9743 98.8366,-46.4166"/>
<polygon fill="#000000" stroke="#000000" points="102.3367,-46.4132 98.8366,-36.4133 95.3367,-46.4133 102.3367,-46.4132"/>
</g>
<!-- denied -->
<g id="node8" class="node">
<title>denied</title>
<ellipse fill="none" stroke="#000000" cx="268.8366" cy="-18" rx="68.8581" ry="18"/>
<text text-anchor="middle" x="268.8366" y="-13.8" font-family="Times,serif" font-size="14.00" fill="#000000">Access Denied</text>
</g>
<!-- measures__siteID_siteID__sites_where_No_Rows&#45;&gt;denied -->
<g id="edge7" class="edge">
<title>measures__siteID_siteID__sites_where_No_Rows&#45;&gt;denied</title>
<path fill="none" stroke="#000000" d="M222.2928,-72.937C229.7244,-64.1652 238.9326,-53.2965 247.1921,-43.5476"/>
<polygon fill="#000000" stroke="#000000" points="250.0534,-45.5848 253.8472,-35.6924 244.7125,-41.0598 250.0534,-45.5848"/>
</g>
<!-- measures__siteID_siteID__sites_join_No_Rows&#45;&gt;denied -->
<g id="edge9" class="edge">
<title>measures__siteID_siteID__sites_join_No_Rows&#45;&gt;denied</title>
<path fill="none" stroke="#000000" d="M278.5532,-155.2833C276.6572,-128.4948 273.0903,-78.0995 270.8457,-46.3859"/>
<polygon fill="#000000" stroke="#000000" points="274.3092,-45.7447 270.1118,-36.0168 267.3266,-46.239 274.3092,-45.7447"/>
</g>
</g>
</svg>
