<?xml version="1.0" encoding="UTF-8" standalone="no"?>
<!DOCTYPE svg PUBLIC "-//W3C//DTD SVG 1.1//EN"
 "http://www.w3.org/Graphics/SVG/1.1/DTD/svg11.dtd">
<!-- Generated by graphviz version 2.40.1 (20161225.0304)
 -->
<!-- Title: G Pages: 1 -->
<svg width="561pt" height="1403pt"
 viewBox="0.00 0.00 560.91 1402.61" xmlns="http://www.w3.org/2000/svg" xmlns:xlink="http://www.w3.org/1999/xlink">
<g id="graph0" class="graph" transform="scale(1 1) rotate(0) translate(4 1398.6129)">
<title>G</title>
<polygon fill="#ffffff" stroke="transparent" points="-4,4 -4,-1398.6129 556.9144,-1398.6129 556.9144,4 -4,4"/>
<!-- methodSteps -->
<g id="node1" class="node">
<title>methodSteps</title>
<ellipse fill="none" stroke="#000000" cx="157.0208" cy="-1376.6129" rx="60.8544" ry="18"/>
<text text-anchor="middle" x="157.0208" y="-1372.4129" font-family="Times,serif" font-size="14.00" fill="#000000">methodSteps</text>
</g>
<!-- methodSteps__orgID_orgID__organizations_join -->
<g id="node2" class="node">
<title>methodSteps__orgID_orgID__organizations_join</title>
<ellipse fill="none" stroke="#000000" cx="157.0208" cy="-1281.3179" rx="114.8569" ry="41.0911"/>
<text text-anchor="middle" x="157.0208" y="-1293.9179" font-family="Times,serif" font-size="14.00" fill="#000000">LEFT JOIN organizations</text>
<text text-anchor="middle" x="157.0208" y="-1277.1179" font-family="Times,serif" font-size="14.00" fill="#000000">At level: 5</text>
<text text-anchor="middle" x="157.0208" y="-1260.3179" font-family="Times,serif" font-size="14.00" fill="#000000">Required: true</text>
</g>
<!-- methodSteps&#45;&gt;methodSteps__orgID_orgID__organizations_join -->
<g id="edge1" class="edge">
<title>methodSteps&#45;&gt;methodSteps__orgID_orgID__organizations_join</title>
<path fill="none" stroke="#000000" d="M157.0208,-1358.2391C157.0208,-1350.93 157.0208,-1342.1204 157.0208,-1333.1116"/>
<polygon fill="#000000" stroke="#000000" points="160.5209,-1332.925 157.0208,-1322.9251 153.5209,-1332.9251 160.5209,-1332.925"/>
</g>
<!-- methodSteps__orgID_orgID__organizations_join_Has_Rows -->
<g id="node3" class="node">
<title>methodSteps__orgID_orgID__organizations_join_Has_Rows</title>
<ellipse fill="none" stroke="#000000" cx="233.0208" cy="-1186.0229" rx="47.4704" ry="18"/>
<text text-anchor="middle" x="233.0208" y="-1181.8229" font-family="Times,serif" font-size="14.00" fill="#000000">Has rows</text>
</g>
<!-- methodSteps__orgID_orgID__organizations_join&#45;&gt;methodSteps__orgID_orgID__organizations_join_Has_Rows -->
<g id="edge2" class="edge">
<title>methodSteps__orgID_orgID__organizations_join&#45;&gt;methodSteps__orgID_orgID__organizations_join_Has_Rows</title>
<path fill="none" stroke="#000000" d="M188.8113,-1241.4564C196.9083,-1231.3037 205.3919,-1220.6662 212.7375,-1211.4556"/>
<polygon fill="#000000" stroke="#000000" points="215.6211,-1213.4534 219.1199,-1203.4529 210.1484,-1209.0888 215.6211,-1213.4534"/>
</g>
<!-- methodSteps__orgID_orgID__organizations_join_No_Rows -->
<g id="node24" class="node">
<title>methodSteps__orgID_orgID__organizations_join_No_Rows</title>
<ellipse fill="none" stroke="#000000" cx="44.0208" cy="-1090.7278" rx="44.0415" ry="18"/>
<text text-anchor="middle" x="44.0208" y="-1086.5278" font-family="Times,serif" font-size="14.00" fill="#000000">No rows</text>
</g>
<!-- methodSteps__orgID_orgID__organizations_join&#45;&gt;methodSteps__orgID_orgID__organizations_join_No_Rows -->
<g id="edge28" class="edge">
<title>methodSteps__orgID_orgID__organizations_join&#45;&gt;methodSteps__orgID_orgID__organizations_join_No_Rows</title>
<path fill="none" stroke="#000000" d="M133.0564,-1240.8986C111.0035,-1203.7035 78.919,-1149.5885 59.8894,-1117.4925"/>
<polygon fill="#000000" stroke="#000000" points="62.7685,-1115.4856 54.6579,-1108.6688 56.7473,-1119.0556 62.7685,-1115.4856"/>
</g>
<!-- organizations__addID_addID__addresses_join -->
<g id="node4" class="node">
<title>organizations__addID_addID__addresses_join</title>
<ellipse fill="none" stroke="#000000" cx="349.0208" cy="-1090.7278" rx="99.0518" ry="41.0911"/>
<text text-anchor="middle" x="349.0208" y="-1103.3278" font-family="Times,serif" font-size="14.00" fill="#000000">LEFT JOIN addresses</text>
<text text-anchor="middle" x="349.0208" y="-1086.5278" font-family="Times,serif" font-size="14.00" fill="#000000">At level: 4</text>
<text text-anchor="middle" x="349.0208" y="-1069.7278" font-family="Times,serif" font-size="14.00" fill="#000000">Required: false</text>
</g>
<!-- methodSteps__orgID_orgID__organizations_join_Has_Rows&#45;&gt;organizations__addID_addID__addresses_join -->
<g id="edge3" class="edge">
<title>methodSteps__orgID_orgID__organizations_join_Has_Rows&#45;&gt;organizations__addID_addID__addresses_join</title>
<path fill="none" stroke="#000000" d="M252.9619,-1169.6411C264.8769,-1159.8528 280.6285,-1146.9127 295.9223,-1134.3486"/>
<polygon fill="#000000" stroke="#000000" points="298.3503,-1136.8837 303.8556,-1127.8314 293.9069,-1131.4748 298.3503,-1136.8837"/>
</g>
<!-- organizations__addID_addID__addresses_join_Has_Rows -->
<g id="node5" class="node">
<title>organizations__addID_addID__addresses_join_Has_Rows</title>
<ellipse fill="none" stroke="#000000" cx="349.0208" cy="-995.4328" rx="47.4704" ry="18"/>
<text text-anchor="middle" x="349.0208" y="-991.2328" font-family="Times,serif" font-size="14.00" fill="#000000">Has rows</text>
</g>
<!-- organizations__addID_addID__addresses_join&#45;&gt;organizations__addID_addID__addresses_join_Has_Rows -->
<g id="edge4" class="edge">
<title>organizations__addID_addID__addresses_join&#45;&gt;organizations__addID_addID__addresses_join_Has_Rows</title>
<path fill="none" stroke="#000000" d="M349.0208,-1049.2072C349.0208,-1040.6556 349.0208,-1031.8362 349.0208,-1023.8757"/>
<polygon fill="#000000" stroke="#000000" points="352.5209,-1023.6587 349.0208,-1013.6587 345.5209,-1023.6587 352.5209,-1023.6587"/>
</g>
<!-- organizations__addID_addID__addresses_join_No_Rows -->
<g id="node23" class="node">
<title>organizations__addID_addID__addresses_join_No_Rows</title>
<ellipse fill="none" stroke="#000000" cx="505.0208" cy="-900.1377" rx="44.0415" ry="18"/>
<text text-anchor="middle" x="505.0208" y="-895.9377" font-family="Times,serif" font-size="14.00" fill="#000000">No rows</text>
</g>
<!-- organizations__addID_addID__addresses_join&#45;&gt;organizations__addID_addID__addresses_join_No_Rows -->
<g id="edge26" class="edge">
<title>organizations__addID_addID__addresses_join&#45;&gt;organizations__addID_addID__addresses_join_No_Rows</title>
<path fill="none" stroke="#000000" d="M381.3441,-1051.2374C412.3113,-1013.4038 458.1095,-957.4507 484.4128,-925.3151"/>
<polygon fill="#000000" stroke="#000000" points="487.3473,-927.2558 490.9728,-917.3006 481.9305,-922.822 487.3473,-927.2558"/>
</g>
<!-- addresses__addID_addID__sites_join -->
<g id="node6" class="node">
<title>addresses__addID_addID__sites_join</title>
<ellipse fill="none" stroke="#000000" cx="349.0208" cy="-900.1377" rx="78.8882" ry="41.0911"/>
<text text-anchor="middle" x="349.0208" y="-912.7377" font-family="Times,serif" font-size="14.00" fill="#000000">LEFT JOIN sites</text>
<text text-anchor="middle" x="349.0208" y="-895.9377" font-family="Times,serif" font-size="14.00" fill="#000000">At level: 3</text>
<text text-anchor="middle" x="349.0208" y="-879.1377" font-family="Times,serif" font-size="14.00" fill="#000000">Required: false</text>
</g>
<!-- organizations__addID_addID__addresses_join_Has_Rows&#45;&gt;addresses__addID_addID__sites_join -->
<g id="edge5" class="edge">
<title>organizations__addID_addID__addresses_join_Has_Rows&#45;&gt;addresses__addID_addID__sites_join</title>
<path fill="none" stroke="#000000" d="M349.0208,-977.0589C349.0208,-969.7498 349.0208,-960.9402 349.0208,-951.9314"/>
<polygon fill="#000000" stroke="#000000" points="352.5209,-951.7449 349.0208,-941.7449 345.5209,-951.745 352.5209,-951.7449"/>
</g>
<!-- addresses__addID_addID__sites_join_Has_Rows -->
<g id="node7" class="node">
<title>addresses__addID_addID__sites_join_Has_Rows</title>
<ellipse fill="none" stroke="#000000" cx="295.0208" cy="-804.8427" rx="47.4704" ry="18"/>
<text text-anchor="middle" x="295.0208" y="-800.6427" font-family="Times,serif" font-size="14.00" fill="#000000">Has rows</text>
</g>
<!-- addresses__addID_addID__sites_join&#45;&gt;addresses__addID_addID__sites_join_Has_Rows -->
<g id="edge6" class="edge">
<title>addresses__addID_addID__sites_join&#45;&gt;addresses__addID_addID__sites_join_Has_Rows</title>
<path fill="none" stroke="#000000" d="M326.4328,-860.2762C320.9416,-850.5857 315.2001,-840.4536 310.1503,-831.5422"/>
<polygon fill="#000000" stroke="#000000" points="313.153,-829.7417 305.1778,-822.767 307.0628,-833.1928 313.153,-829.7417"/>
</g>
<!-- addresses__addID_addID__sites_join_No_Rows -->
<g id="node22" class="node">
<title>addresses__addID_addID__sites_join_No_Rows</title>
<ellipse fill="none" stroke="#000000" cx="444.0208" cy="-721.4271" rx="44.0415" ry="18"/>
<text text-anchor="middle" x="444.0208" y="-717.2271" font-family="Times,serif" font-size="14.00" fill="#000000">No rows</text>
</g>
<!-- addresses__addID_addID__sites_join&#45;&gt;addresses__addID_addID__sites_join_No_Rows -->
<g id="edge24" class="edge">
<title>addresses__addID_addID__sites_join&#45;&gt;addresses__addID_addID__sites_join_No_Rows</title>
<path fill="none" stroke="#000000" d="M370.3406,-860.0316C388.5062,-825.8591 414.1009,-777.7112 429.8473,-748.0897"/>
<polygon fill="#000000" stroke="#000000" points="432.9884,-749.6373 434.5918,-739.1645 426.8074,-746.3516 432.9884,-749.6373"/>
</g>
<!-- addresses__addID_addID__sites_where -->
<g id="node8" class="node">
<title>addresses__addID_addID__sites_where</title>
<ellipse fill="none" stroke="#000000" cx="270.0208" cy="-721.4271" rx="108.6735" ry="29.3315"/>
<text text-anchor="middle" x="270.0208" y="-725.6271" font-family="Times,serif" font-size="14.00" fill="#000000">WHERE</text>
<text text-anchor="middle" x="270.0208" y="-708.8271" font-family="Times,serif" font-size="14.00" fill="#000000">sites.healthReg = &quot;CSC&quot;</text>
</g>
<!-- addresses__addID_addID__sites_join_Has_Rows&#45;&gt;addresses__addID_addID__sites_where -->
<g id="edge7" class="edge">
<title>addresses__addID_addID__sites_join_Has_Rows&#45;&gt;addresses__addID_addID__sites_where</title>
<path fill="none" stroke="#000000" d="M289.5961,-786.7428C287.2971,-779.0716 284.5219,-769.8118 281.7931,-760.7068"/>
<polygon fill="#000000" stroke="#000000" points="285.0986,-759.5444 278.875,-750.9702 278.3932,-761.5541 285.0986,-759.5444"/>
</g>
<!-- addresses__addID_addID__sites_where_Has_Rows -->
<g id="node9" class="node">
<title>addresses__addID_addID__sites_where_Has_Rows</title>
<ellipse fill="none" stroke="#000000" cx="270.0208" cy="-638.0114" rx="47.4704" ry="18"/>
<text text-anchor="middle" x="270.0208" y="-633.8114" font-family="Times,serif" font-size="14.00" fill="#000000">Has rows</text>
</g>
<!-- addresses__addID_addID__sites_where&#45;&gt;addresses__addID_addID__sites_where_Has_Rows -->
<g id="edge8" class="edge">
<title>addresses__addID_addID__sites_where&#45;&gt;addresses__addID_addID__sites_where_Has_Rows</title>
<path fill="none" stroke="#000000" d="M270.0208,-691.783C270.0208,-683.5778 270.0208,-674.691 270.0208,-666.5502"/>
<polygon fill="#000000" stroke="#000000" points="273.5209,-666.398 270.0208,-656.398 266.5209,-666.398 273.5209,-666.398"/>
</g>
<!-- addresses__addID_addID__sites_where_No_Rows -->
<g id="node21" class="node">
<title>addresses__addID_addID__sites_where_No_Rows</title>
<ellipse fill="none" stroke="#000000" cx="109.0208" cy="-542.7164" rx="44.0415" ry="18"/>
<text text-anchor="middle" x="109.0208" y="-538.5164" font-family="Times,serif" font-size="14.00" fill="#000000">No rows</text>
</g>
<!-- addresses__addID_addID__sites_where&#45;&gt;addresses__addID_addID__sites_where_No_Rows -->
<g id="edge22" class="edge">
<title>addresses__addID_addID__sites_where&#45;&gt;addresses__addID_addID__sites_where_No_Rows</title>
<path fill="none" stroke="#000000" d="M244.1533,-692.7141C213.0145,-658.1499 161.226,-600.6644 131.6222,-567.8041"/>
<polygon fill="#000000" stroke="#000000" points="133.8936,-565.0962 124.5998,-560.0092 128.6928,-569.7815 133.8936,-565.0962"/>
</g>
<!-- sites__siteID_siteID__samples_join -->
<g id="node10" class="node">
<title>sites__siteID_siteID__samples_join</title>
<ellipse fill="none" stroke="#000000" cx="270.0208" cy="-542.7164" rx="93.4765" ry="41.0911"/>
<text text-anchor="middle" x="270.0208" y="-555.3164" font-family="Times,serif" font-size="14.00" fill="#000000">LEFT JOIN samples</text>
<text text-anchor="middle" x="270.0208" y="-538.5164" font-family="Times,serif" font-size="14.00" fill="#000000">At level: 2</text>
<text text-anchor="middle" x="270.0208" y="-521.7164" font-family="Times,serif" font-size="14.00" fill="#000000">Required: true</text>
</g>
<!-- addresses__addID_addID__sites_where_Has_Rows&#45;&gt;sites__siteID_siteID__samples_join -->
<g id="edge9" class="edge">
<title>addresses__addID_addID__sites_where_Has_Rows&#45;&gt;sites__siteID_siteID__samples_join</title>
<path fill="none" stroke="#000000" d="M270.0208,-619.6376C270.0208,-612.3285 270.0208,-603.5189 270.0208,-594.5101"/>
<polygon fill="#000000" stroke="#000000" points="273.5209,-594.3235 270.0208,-584.3236 266.5209,-594.3236 273.5209,-594.3235"/>
</g>
<!-- sites__siteID_siteID__samples_join_Has_Rows -->
<g id="node11" class="node">
<title>sites__siteID_siteID__samples_join_Has_Rows</title>
<ellipse fill="none" stroke="#000000" cx="273.0208" cy="-447.4214" rx="47.4704" ry="18"/>
<text text-anchor="middle" x="273.0208" y="-443.2214" font-family="Times,serif" font-size="14.00" fill="#000000">Has rows</text>
</g>
<!-- sites__siteID_siteID__samples_join&#45;&gt;sites__siteID_siteID__samples_join_Has_Rows -->
<g id="edge10" class="edge">
<title>sites__siteID_siteID__samples_join&#45;&gt;sites__siteID_siteID__samples_join_Has_Rows</title>
<path fill="none" stroke="#000000" d="M271.3279,-501.1958C271.5971,-492.6442 271.8747,-483.8248 272.1254,-475.8643"/>
<polygon fill="#000000" stroke="#000000" points="275.6305,-475.7525 272.447,-465.6473 268.634,-475.5321 275.6305,-475.7525"/>
</g>
<!-- sites__siteID_siteID__samples_join_No_Rows -->
<g id="node20" class="node">
<title>sites__siteID_siteID__samples_join_No_Rows</title>
<ellipse fill="none" stroke="#000000" cx="135.0208" cy="-352.1263" rx="44.0415" ry="18"/>
<text text-anchor="middle" x="135.0208" y="-347.9263" font-family="Times,serif" font-size="14.00" fill="#000000">No rows</text>
</g>
<!-- sites__siteID_siteID__samples_join&#45;&gt;sites__siteID_siteID__samples_join_No_Rows -->
<g id="edge20" class="edge">
<title>sites__siteID_siteID__samples_join&#45;&gt;sites__siteID_siteID__samples_join_No_Rows</title>
<path fill="none" stroke="#000000" d="M242.0487,-503.226C215.5053,-465.7527 176.3708,-410.5034 153.5095,-378.2283"/>
<polygon fill="#000000" stroke="#000000" points="156.1532,-375.9054 147.5169,-369.7682 150.441,-379.9515 156.1532,-375.9054"/>
</g>
<!-- samples__siteID_siteID__sites_join -->
<g id="node12" class="node">
<title>samples__siteID_siteID__sites_join</title>
<ellipse fill="none" stroke="#000000" cx="276.0208" cy="-352.1263" rx="78.8882" ry="41.0911"/>
<text text-anchor="middle" x="276.0208" y="-364.7263" font-family="Times,serif" font-size="14.00" fill="#000000">LEFT JOIN sites</text>
<text text-anchor="middle" x="276.0208" y="-347.9263" font-family="Times,serif" font-size="14.00" fill="#000000">At level: 1</text>
<text text-anchor="middle" x="276.0208" y="-331.1263" font-family="Times,serif" font-size="14.00" fill="#000000">Required: true</text>
</g>
<!-- sites__siteID_siteID__samples_join_Has_Rows&#45;&gt;samples__siteID_siteID__sites_join -->
<g id="edge11" class="edge">
<title>sites__siteID_siteID__samples_join_Has_Rows&#45;&gt;samples__siteID_siteID__sites_join</title>
<path fill="none" stroke="#000000" d="M273.5992,-429.0475C273.8293,-421.7384 274.1066,-412.9288 274.3902,-403.92"/>
<polygon fill="#000000" stroke="#000000" points="277.8944,-403.8387 274.7109,-393.7335 270.8979,-403.6184 277.8944,-403.8387"/>
</g>
<!-- samples__siteID_siteID__sites_join_Has_Rows -->
<g id="node13" class="node">
<title>samples__siteID_siteID__sites_join_Has_Rows</title>
<ellipse fill="none" stroke="#000000" cx="310.0208" cy="-256.8313" rx="47.4704" ry="18"/>
<text text-anchor="middle" x="310.0208" y="-252.6313" font-family="Times,serif" font-size="14.00" fill="#000000">Has rows</text>
</g>
<!-- samples__siteID_siteID__sites_join&#45;&gt;samples__siteID_siteID__sites_join_Has_Rows -->
<g id="edge12" class="edge">
<title>samples__siteID_siteID__sites_join&#45;&gt;samples__siteID_siteID__sites_join_Has_Rows</title>
<path fill="none" stroke="#000000" d="M290.5384,-311.4362C293.772,-302.3731 297.1281,-292.9668 300.125,-284.5672"/>
<polygon fill="#000000" stroke="#000000" points="303.506,-285.5061 303.57,-274.9114 296.9131,-283.1537 303.506,-285.5061"/>
</g>
<!-- samples__siteID_siteID__sites_join_No_Rows -->
<g id="node19" class="node">
<title>samples__siteID_siteID__sites_join_No_Rows</title>
<ellipse fill="none" stroke="#000000" cx="173.0208" cy="-173.4156" rx="44.0415" ry="18"/>
<text text-anchor="middle" x="173.0208" y="-169.2156" font-family="Times,serif" font-size="14.00" fill="#000000">No rows</text>
</g>
<!-- samples__siteID_siteID__sites_join&#45;&gt;samples__siteID_siteID__sites_join_No_Rows -->
<g id="edge18" class="edge">
<title>samples__siteID_siteID__sites_join&#45;&gt;samples__siteID_siteID__sites_join_No_Rows</title>
<path fill="none" stroke="#000000" d="M253.1617,-312.4646C233.4814,-278.3182 205.6192,-229.9757 188.466,-200.214"/>
<polygon fill="#000000" stroke="#000000" points="191.323,-198.1619 183.2971,-191.2456 185.2582,-201.6574 191.323,-198.1619"/>
</g>
<!-- samples__siteID_siteID__sites_where -->
<g id="node14" class="node">
<title>samples__siteID_siteID__sites_where</title>
<ellipse fill="none" stroke="#000000" cx="344.0208" cy="-173.4156" rx="108.6735" ry="29.3315"/>
<text text-anchor="middle" x="344.0208" y="-177.6156" font-family="Times,serif" font-size="14.00" fill="#000000">WHERE</text>
<text text-anchor="middle" x="344.0208" y="-160.8156" font-family="Times,serif" font-size="14.00" fill="#000000">sites.healthReg = &quot;CSC&quot;</text>
</g>
<!-- samples__siteID_siteID__sites_join_Has_Rows&#45;&gt;samples__siteID_siteID__sites_where -->
<g id="edge13" class="edge">
<title>samples__siteID_siteID__sites_join_Has_Rows&#45;&gt;samples__siteID_siteID__sites_where</title>
<path fill="none" stroke="#000000" d="M317.3983,-238.7313C320.5583,-230.9786 324.3796,-221.6032 328.1289,-212.4049"/>
<polygon fill="#000000" stroke="#000000" points="331.4456,-213.5402 331.9791,-202.9588 324.9634,-210.898 331.4456,-213.5402"/>
</g>
<!-- samples__siteID_siteID__sites_where_Has_Rows -->
<g id="node15" class="node">
<title>samples__siteID_siteID__sites_where_Has_Rows</title>
<ellipse fill="none" stroke="#000000" cx="380.0208" cy="-90" rx="47.4704" ry="18"/>
<text text-anchor="middle" x="380.0208" y="-85.8" font-family="Times,serif" font-size="14.00" fill="#000000">Has rows</text>
</g>
<!-- samples__siteID_siteID__sites_where&#45;&gt;samples__siteID_siteID__sites_where_Has_Rows -->
<g id="edge14" class="edge">
<title>samples__siteID_siteID__sites_where&#45;&gt;samples__siteID_siteID__sites_where_Has_Rows</title>
<path fill="none" stroke="#000000" d="M356.8144,-143.7715C360.533,-135.1551 364.576,-125.7872 368.2299,-117.3206"/>
<polygon fill="#000000" stroke="#000000" points="371.5488,-118.4631 372.2979,-107.8947 365.1218,-115.6893 371.5488,-118.4631"/>
</g>
<!-- samples__siteID_siteID__sites_where_No_Rows -->
<g id="node17" class="node">
<title>samples__siteID_siteID__sites_where_No_Rows</title>
<ellipse fill="none" stroke="#000000" cx="258.0208" cy="-90" rx="44.0415" ry="18"/>
<text text-anchor="middle" x="258.0208" y="-85.8" font-family="Times,serif" font-size="14.00" fill="#000000">No rows</text>
</g>
<!-- samples__siteID_siteID__sites_where&#45;&gt;samples__siteID_siteID__sites_where_No_Rows -->
<g id="edge16" class="edge">
<title>samples__siteID_siteID__sites_where&#45;&gt;samples__siteID_siteID__sites_where_No_Rows</title>
<path fill="none" stroke="#000000" d="M314.4244,-144.7087C304.048,-134.6441 292.5145,-123.4572 282.5946,-113.8354"/>
<polygon fill="#000000" stroke="#000000" points="284.9841,-111.2771 275.3692,-106.8271 280.1104,-116.3018 284.9841,-111.2771"/>
</g>
<!-- granted -->
<g id="node16" class="node">
<title>granted</title>
<ellipse fill="none" stroke="#000000" cx="481.0208" cy="-18" rx="71.7874" ry="18"/>
<text text-anchor="middle" x="481.0208" y="-13.8" font-family="Times,serif" font-size="14.00" fill="#000000">Access Granted</text>
</g>
<!-- samples__siteID_siteID__sites_where_Has_Rows&#45;&gt;granted -->
<g id="edge15" class="edge">
<title>samples__siteID_siteID__sites_where_Has_Rows&#45;&gt;granted</title>
<path fill="none" stroke="#000000" d="M402.4359,-74.0209C415.9416,-64.3931 433.3767,-51.9641 448.3919,-41.2602"/>
<polygon fill="#000000" stroke="#000000" points="450.7938,-43.8462 456.905,-35.1915 446.7305,-38.1463 450.7938,-43.8462"/>
</g>
<!-- denied -->
<g id="node18" class="node">
<title>denied</title>
<ellipse fill="none" stroke="#000000" cx="101.0208" cy="-18" rx="68.8581" ry="18"/>
<text text-anchor="middle" x="101.0208" y="-13.8" font-family="Times,serif" font-size="14.00" fill="#000000">Access Denied</text>
</g>
<!-- samples__siteID_siteID__sites_where_No_Rows&#45;&gt;denied -->
<g id="edge17" class="edge">
<title>samples__siteID_siteID__sites_where_No_Rows&#45;&gt;denied</title>
<path fill="none" stroke="#000000" d="M228.4903,-76.4574C204.8118,-65.5984 171.2362,-50.2007 144.4877,-37.9339"/>
<polygon fill="#000000" stroke="#000000" points="145.8874,-34.7253 135.3386,-33.7381 142.9694,-41.0881 145.8874,-34.7253"/>
</g>
<!-- samples__siteID_siteID__sites_join_No_Rows&#45;&gt;denied -->
<g id="edge19" class="edge">
<title>samples__siteID_siteID__sites_join_No_Rows&#45;&gt;denied</title>
<path fill="none" stroke="#000000" d="M164.7615,-155.5875C152.2419,-128.5634 128.365,-77.0239 113.654,-45.2695"/>
<polygon fill="#000000" stroke="#000000" points="116.7849,-43.7013 109.4055,-36.0989 110.4334,-46.6438 116.7849,-43.7013"/>
</g>
<!-- sites__siteID_siteID__samples_join_No_Rows&#45;&gt;denied -->
<g id="edge21" class="edge">
<title>sites__siteID_siteID__samples_join_No_Rows&#45;&gt;denied</title>
<path fill="none" stroke="#000000" d="M133.1444,-333.6863C127.5134,-278.3497 110.7308,-113.4233 103.9306,-46.596"/>
<polygon fill="#000000" stroke="#000000" points="107.3858,-45.9773 102.8914,-36.383 100.4218,-46.686 107.3858,-45.9773"/>
</g>
<!-- addresses__addID_addID__sites_where_No_Rows&#45;&gt;denied -->
<g id="edge23" class="edge">
<title>addresses__addID_addID__sites_where_No_Rows&#45;&gt;denied</title>
<path fill="none" stroke="#000000" d="M101.7319,-524.9306C88.7612,-491.6222 63.0208,-417.3104 63.0208,-352.1263 63.0208,-352.1263 63.0208,-352.1263 63.0208,-173.4156 63.0208,-127.7468 78.6948,-76.6338 89.9099,-45.9068"/>
<polygon fill="#000000" stroke="#000000" points="93.2764,-46.8974 93.5132,-36.3052 86.7227,-44.4379 93.2764,-46.8974"/>
</g>
<!-- addresses__addID_addID__sites_join_No_Rows&#45;&gt;granted -->
<g id="edge25" class="edge">
<title>addresses__addID_addID__sites_join_No_Rows&#45;&gt;granted</title>
<path fill="none" stroke="#000000" d="M450.2973,-703.4166C460.8536,-671.4693 481.0208,-602.5994 481.0208,-542.7164 481.0208,-542.7164 481.0208,-542.7164 481.0208,-173.4156 481.0208,-129.0052 481.0208,-77.4563 481.0208,-46.3065"/>
<polygon fill="#000000" stroke="#000000" points="484.5209,-46.1843 481.0208,-36.1843 477.5209,-46.1843 484.5209,-46.1843"/>
</g>
<!-- organizations__addID_addID__addresses_join_No_Rows&#45;&gt;granted -->
<g id="edge27" class="edge">
<title>organizations__addID_addID__addresses_join_No_Rows&#45;&gt;granted</title>
<path fill="none" stroke="#000000" d="M507.3957,-881.9087C511.3899,-849.6231 519.0208,-780.2462 519.0208,-721.4271 519.0208,-721.4271 519.0208,-721.4271 519.0208,-173.4156 519.0208,-127.7468 503.3467,-76.6338 492.1317,-45.9068"/>
<polygon fill="#000000" stroke="#000000" points="495.3188,-44.4379 488.5283,-36.3052 488.7651,-46.8974 495.3188,-44.4379"/>
</g>
<!-- methodSteps__orgID_orgID__organizations_join_No_Rows&#45;&gt;denied -->
<g id="edge29" class="edge">
<title>methodSteps__orgID_orgID__organizations_join_No_Rows&#45;&gt;denied</title>
<path fill="none" stroke="#000000" d="M41.0102,-1072.6553C35.6527,-1038.8751 25.0208,-963.8164 25.0208,-900.1377 25.0208,-900.1377 25.0208,-900.1377 25.0208,-173.4156 25.0208,-123.6627 56.8414,-73.2252 79.3026,-43.8201"/>
<polygon fill="#000000" stroke="#000000" points="82.218,-45.7746 85.641,-35.7479 76.7124,-41.4515 82.218,-45.7746"/>
</g>
</g>
</svg>
