<?xml version="1.0" encoding="UTF-8" standalone="no"?>
<!DOCTYPE svg PUBLIC "-//W3C//DTD SVG 1.1//EN"
 "http://www.w3.org/Graphics/SVG/1.1/DTD/svg11.dtd">
<!-- Generated by graphviz version 2.40.1 (20161225.0304)
 -->
<!-- Title: G Pages: 1 -->
<svg width="523pt" height="1212pt"
 viewBox="0.00 0.00 523.04 1212.02" xmlns="http://www.w3.org/2000/svg" xmlns:xlink="http://www.w3.org/1999/xlink">
<g id="graph0" class="graph" transform="scale(1 1) rotate(0) translate(4 1208.0229)">
<title>G</title>
<polygon fill="#ffffff" stroke="transparent" points="-4,4 -4,-1208.0229 519.0415,-1208.0229 519.0415,4 -4,4"/>
<!-- organizations -->
<g id="node1" class="node">
<title>organizations</title>
<ellipse fill="none" stroke="#000000" cx="400.0208" cy="-1186.0229" rx="63.1209" ry="18"/>
<text text-anchor="middle" x="400.0208" y="-1181.8229" font-family="Times,serif" font-size="14.00" fill="#000000">organizations</text>
</g>
<!-- organizations__addID_addID__addresses_join -->
<g id="node2" class="node">
<title>organizations__addID_addID__addresses_join</title>
<ellipse fill="none" stroke="#000000" cx="400.0208" cy="-1090.7278" rx="99.0518" ry="41.0911"/>
<text text-anchor="middle" x="400.0208" y="-1103.3278" font-family="Times,serif" font-size="14.00" fill="#000000">LEFT JOIN addresses</text>
<text text-anchor="middle" x="400.0208" y="-1086.5278" font-family="Times,serif" font-size="14.00" fill="#000000">At level: 4</text>
<text text-anchor="middle" x="400.0208" y="-1069.7278" font-family="Times,serif" font-size="14.00" fill="#000000">Required: false</text>
</g>
<!-- organizations&#45;&gt;organizations__addID_addID__addresses_join -->
<g id="edge1" class="edge">
<title>organizations&#45;&gt;organizations__addID_addID__addresses_join</title>
<path fill="none" stroke="#000000" d="M400.0208,-1167.649C400.0208,-1160.3399 400.0208,-1151.5303 400.0208,-1142.5215"/>
<polygon fill="#000000" stroke="#000000" points="403.5209,-1142.335 400.0208,-1132.335 396.5209,-1142.335 403.5209,-1142.335"/>
</g>
<!-- organizations__addID_addID__addresses_join_Has_Rows -->
<g id="node3" class="node">
<title>organizations__addID_addID__addresses_join_Has_Rows</title>
<ellipse fill="none" stroke="#000000" cx="363.0208" cy="-995.4328" rx="47.4704" ry="18"/>
<text text-anchor="middle" x="363.0208" y="-991.2328" font-family="Times,serif" font-size="14.00" fill="#000000">Has rows</text>
</g>
<!-- organizations__addID_addID__addresses_join&#45;&gt;organizations__addID_addID__addresses_join_Has_Rows -->
<g id="edge2" class="edge">
<title>organizations__addID_addID__addresses_join&#45;&gt;organizations__addID_addID__addresses_join_Has_Rows</title>
<path fill="none" stroke="#000000" d="M384.1147,-1049.7611C380.5671,-1040.6241 376.8897,-1031.1528 373.6183,-1022.7271"/>
<polygon fill="#000000" stroke="#000000" points="376.8787,-1021.4542 369.9965,-1013.399 370.3533,-1023.9879 376.8787,-1021.4542"/>
</g>
<!-- organizations__addID_addID__addresses_join_No_Rows -->
<g id="node21" class="node">
<title>organizations__addID_addID__addresses_join_No_Rows</title>
<ellipse fill="none" stroke="#000000" cx="471.0208" cy="-900.1377" rx="44.0415" ry="18"/>
<text text-anchor="middle" x="471.0208" y="-895.9377" font-family="Times,serif" font-size="14.00" fill="#000000">No rows</text>
</g>
<!-- organizations__addID_addID__addresses_join&#45;&gt;organizations__addID_addID__addresses_join_No_Rows -->
<g id="edge24" class="edge">
<title>organizations__addID_addID__addresses_join&#45;&gt;organizations__addID_addID__addresses_join_No_Rows</title>
<path fill="none" stroke="#000000" d="M415.252,-1049.8415C429.003,-1012.9289 448.8556,-959.6371 460.7921,-927.5952"/>
<polygon fill="#000000" stroke="#000000" points="464.1605,-928.5791 464.3717,-917.9864 457.6009,-926.1354 464.1605,-928.5791"/>
</g>
<!-- addresses__addID_addID__sites_join -->
<g id="node4" class="node">
<title>addresses__addID_addID__sites_join</title>
<ellipse fill="none" stroke="#000000" cx="330.0208" cy="-900.1377" rx="78.8882" ry="41.0911"/>
<text text-anchor="middle" x="330.0208" y="-912.7377" font-family="Times,serif" font-size="14.00" fill="#000000">LEFT JOIN sites</text>
<text text-anchor="middle" x="330.0208" y="-895.9377" font-family="Times,serif" font-size="14.00" fill="#000000">At level: 3</text>
<text text-anchor="middle" x="330.0208" y="-879.1377" font-family="Times,serif" font-size="14.00" fill="#000000">Required: false</text>
</g>
<!-- organizations__addID_addID__addresses_join_Has_Rows&#45;&gt;addresses__addID_addID__sites_join -->
<g id="edge3" class="edge">
<title>organizations__addID_addID__addresses_join_Has_Rows&#45;&gt;addresses__addID_addID__sites_join</title>
<path fill="none" stroke="#000000" d="M356.8137,-977.5085C354.1252,-969.7447 350.8296,-960.2279 347.481,-950.5583"/>
<polygon fill="#000000" stroke="#000000" points="350.7151,-949.2011 344.1354,-940.897 344.1004,-951.4918 350.7151,-949.2011"/>
</g>
<!-- addresses__addID_addID__sites_join_Has_Rows -->
<g id="node5" class="node">
<title>addresses__addID_addID__sites_join_Has_Rows</title>
<ellipse fill="none" stroke="#000000" cx="259.0208" cy="-804.8427" rx="47.4704" ry="18"/>
<text text-anchor="middle" x="259.0208" y="-800.6427" font-family="Times,serif" font-size="14.00" fill="#000000">Has rows</text>
</g>
<!-- addresses__addID_addID__sites_join&#45;&gt;addresses__addID_addID__sites_join_Has_Rows -->
<g id="edge4" class="edge">
<title>addresses__addID_addID__sites_join&#45;&gt;addresses__addID_addID__sites_join_Has_Rows</title>
<path fill="none" stroke="#000000" d="M301.347,-861.6523C293.5679,-851.2113 285.3344,-840.1604 278.2175,-830.6083"/>
<polygon fill="#000000" stroke="#000000" points="280.822,-828.2457 272.0407,-822.3178 275.2087,-832.428 280.822,-828.2457"/>
</g>
<!-- addresses__addID_addID__sites_join_No_Rows -->
<g id="node20" class="node">
<title>addresses__addID_addID__sites_join_No_Rows</title>
<ellipse fill="none" stroke="#000000" cx="399.0208" cy="-721.4271" rx="44.0415" ry="18"/>
<text text-anchor="middle" x="399.0208" y="-717.2271" font-family="Times,serif" font-size="14.00" fill="#000000">No rows</text>
</g>
<!-- addresses__addID_addID__sites_join&#45;&gt;addresses__addID_addID__sites_join_No_Rows -->
<g id="edge22" class="edge">
<title>addresses__addID_addID__sites_join&#45;&gt;addresses__addID_addID__sites_join_No_Rows</title>
<path fill="none" stroke="#000000" d="M345.6779,-859.5855C358.6958,-825.8692 376.8768,-778.7802 388.2949,-749.2073"/>
<polygon fill="#000000" stroke="#000000" points="391.6951,-750.1176 392.032,-739.5281 385.165,-747.5963 391.6951,-750.1176"/>
</g>
<!-- addresses__addID_addID__sites_where -->
<g id="node6" class="node">
<title>addresses__addID_addID__sites_where</title>
<ellipse fill="none" stroke="#000000" cx="207.0208" cy="-721.4271" rx="108.6735" ry="29.3315"/>
<text text-anchor="middle" x="207.0208" y="-725.6271" font-family="Times,serif" font-size="14.00" fill="#000000">WHERE</text>
<text text-anchor="middle" x="207.0208" y="-708.8271" font-family="Times,serif" font-size="14.00" fill="#000000">sites.healthReg = &quot;CSC&quot;</text>
</g>
<!-- addresses__addID_addID__sites_join_Has_Rows&#45;&gt;addresses__addID_addID__sites_where -->
<g id="edge5" class="edge">
<title>addresses__addID_addID__sites_join_Has_Rows&#45;&gt;addresses__addID_addID__sites_where</title>
<path fill="none" stroke="#000000" d="M247.9929,-787.1524C242.9257,-779.0238 236.7075,-769.0489 230.6609,-759.3493"/>
<polygon fill="#000000" stroke="#000000" points="233.4545,-757.2144 225.1942,-750.5799 227.5142,-760.9176 233.4545,-757.2144"/>
</g>
<!-- addresses__addID_addID__sites_where_Has_Rows -->
<g id="node7" class="node">
<title>addresses__addID_addID__sites_where_Has_Rows</title>
<ellipse fill="none" stroke="#000000" cx="207.0208" cy="-638.0114" rx="47.4704" ry="18"/>
<text text-anchor="middle" x="207.0208" y="-633.8114" font-family="Times,serif" font-size="14.00" fill="#000000">Has rows</text>
</g>
<!-- addresses__addID_addID__sites_where&#45;&gt;addresses__addID_addID__sites_where_Has_Rows -->
<g id="edge6" class="edge">
<title>addresses__addID_addID__sites_where&#45;&gt;addresses__addID_addID__sites_where_Has_Rows</title>
<path fill="none" stroke="#000000" d="M207.0208,-691.783C207.0208,-683.5778 207.0208,-674.691 207.0208,-666.5502"/>
<polygon fill="#000000" stroke="#000000" points="210.5209,-666.398 207.0208,-656.398 203.5209,-666.398 210.5209,-666.398"/>
</g>
<!-- addresses__addID_addID__sites_where_No_Rows -->
<g id="node19" class="node">
<title>addresses__addID_addID__sites_where_No_Rows</title>
<ellipse fill="none" stroke="#000000" cx="44.0208" cy="-542.7164" rx="44.0415" ry="18"/>
<text text-anchor="middle" x="44.0208" y="-538.5164" font-family="Times,serif" font-size="14.00" fill="#000000">No rows</text>
</g>
<!-- addresses__addID_addID__sites_where&#45;&gt;addresses__addID_addID__sites_where_No_Rows -->
<g id="edge20" class="edge">
<title>addresses__addID_addID__sites_where&#45;&gt;addresses__addID_addID__sites_where_No_Rows</title>
<path fill="none" stroke="#000000" d="M180.832,-692.7141C149.3064,-658.1499 96.8745,-600.6644 66.9029,-567.8041"/>
<polygon fill="#000000" stroke="#000000" points="69.1182,-565.039 59.7934,-560.0092 63.9463,-569.7562 69.1182,-565.039"/>
</g>
<!-- sites__siteID_siteID__samples_join -->
<g id="node8" class="node">
<title>sites__siteID_siteID__samples_join</title>
<ellipse fill="none" stroke="#000000" cx="207.0208" cy="-542.7164" rx="93.4765" ry="41.0911"/>
<text text-anchor="middle" x="207.0208" y="-555.3164" font-family="Times,serif" font-size="14.00" fill="#000000">LEFT JOIN samples</text>
<text text-anchor="middle" x="207.0208" y="-538.5164" font-family="Times,serif" font-size="14.00" fill="#000000">At level: 2</text>
<text text-anchor="middle" x="207.0208" y="-521.7164" font-family="Times,serif" font-size="14.00" fill="#000000">Required: true</text>
</g>
<!-- addresses__addID_addID__sites_where_Has_Rows&#45;&gt;sites__siteID_siteID__samples_join -->
<g id="edge7" class="edge">
<title>addresses__addID_addID__sites_where_Has_Rows&#45;&gt;sites__siteID_siteID__samples_join</title>
<path fill="none" stroke="#000000" d="M207.0208,-619.6376C207.0208,-612.3285 207.0208,-603.5189 207.0208,-594.5101"/>
<polygon fill="#000000" stroke="#000000" points="210.5209,-594.3235 207.0208,-584.3236 203.5209,-594.3236 210.5209,-594.3235"/>
</g>
<!-- sites__siteID_siteID__samples_join_Has_Rows -->
<g id="node9" class="node">
<title>sites__siteID_siteID__samples_join_Has_Rows</title>
<ellipse fill="none" stroke="#000000" cx="214.0208" cy="-447.4214" rx="47.4704" ry="18"/>
<text text-anchor="middle" x="214.0208" y="-443.2214" font-family="Times,serif" font-size="14.00" fill="#000000">Has rows</text>
</g>
<!-- sites__siteID_siteID__samples_join&#45;&gt;sites__siteID_siteID__samples_join_Has_Rows -->
<g id="edge8" class="edge">
<title>sites__siteID_siteID__samples_join&#45;&gt;sites__siteID_siteID__samples_join_Has_Rows</title>
<path fill="none" stroke="#000000" d="M210.0707,-501.1958C210.6989,-492.6442 211.3467,-483.8248 211.9315,-475.8643"/>
<polygon fill="#000000" stroke="#000000" points="215.4399,-475.8768 212.682,-465.6473 208.4587,-475.3639 215.4399,-475.8768"/>
</g>
<!-- sites__siteID_siteID__samples_join_No_Rows -->
<g id="node18" class="node">
<title>sites__siteID_siteID__samples_join_No_Rows</title>
<ellipse fill="none" stroke="#000000" cx="87.0208" cy="-352.1263" rx="44.0415" ry="18"/>
<text text-anchor="middle" x="87.0208" y="-347.9263" font-family="Times,serif" font-size="14.00" fill="#000000">No rows</text>
</g>
<!-- sites__siteID_siteID__samples_join&#45;&gt;sites__siteID_siteID__samples_join_No_Rows -->
<g id="edge18" class="edge">
<title>sites__siteID_siteID__samples_join&#45;&gt;sites__siteID_siteID__samples_join_No_Rows</title>
<path fill="none" stroke="#000000" d="M181.5493,-502.6238C173.9655,-490.6633 165.6457,-477.5185 158.0208,-465.4214 139.2265,-435.6035 117.7486,-401.2991 103.3828,-378.3208"/>
<polygon fill="#000000" stroke="#000000" points="106.3289,-376.4307 98.0607,-369.8059 100.3929,-380.1408 106.3289,-376.4307"/>
</g>
<!-- samples__siteID_siteID__sites_join -->
<g id="node10" class="node">
<title>samples__siteID_siteID__sites_join</title>
<ellipse fill="none" stroke="#000000" cx="228.0208" cy="-352.1263" rx="78.8882" ry="41.0911"/>
<text text-anchor="middle" x="228.0208" y="-364.7263" font-family="Times,serif" font-size="14.00" fill="#000000">LEFT JOIN sites</text>
<text text-anchor="middle" x="228.0208" y="-347.9263" font-family="Times,serif" font-size="14.00" fill="#000000">At level: 1</text>
<text text-anchor="middle" x="228.0208" y="-331.1263" font-family="Times,serif" font-size="14.00" fill="#000000">Required: true</text>
</g>
<!-- sites__siteID_siteID__samples_join_Has_Rows&#45;&gt;samples__siteID_siteID__sites_join -->
<g id="edge9" class="edge">
<title>sites__siteID_siteID__samples_join_Has_Rows&#45;&gt;samples__siteID_siteID__sites_join</title>
<path fill="none" stroke="#000000" d="M216.7201,-429.0475C217.8171,-421.5804 219.1442,-412.5471 220.4975,-403.3354"/>
<polygon fill="#000000" stroke="#000000" points="223.9759,-403.7378 221.9667,-393.3353 217.0502,-402.7203 223.9759,-403.7378"/>
</g>
<!-- samples__siteID_siteID__sites_join_Has_Rows -->
<g id="node11" class="node">
<title>samples__siteID_siteID__sites_join_Has_Rows</title>
<ellipse fill="none" stroke="#000000" cx="272.0208" cy="-256.8313" rx="47.4704" ry="18"/>
<text text-anchor="middle" x="272.0208" y="-252.6313" font-family="Times,serif" font-size="14.00" fill="#000000">Has rows</text>
</g>
<!-- samples__siteID_siteID__sites_join&#45;&gt;samples__siteID_siteID__sites_join_Has_Rows -->
<g id="edge10" class="edge">
<title>samples__siteID_siteID__sites_join&#45;&gt;samples__siteID_siteID__sites_join_Has_Rows</title>
<path fill="none" stroke="#000000" d="M246.6807,-311.7126C250.9692,-302.4247 255.431,-292.7613 259.3938,-284.1787"/>
<polygon fill="#000000" stroke="#000000" points="262.6057,-285.5717 263.62,-275.0255 256.2504,-282.6373 262.6057,-285.5717"/>
</g>
<!-- samples__siteID_siteID__sites_join_No_Rows -->
<g id="node17" class="node">
<title>samples__siteID_siteID__sites_join_No_Rows</title>
<ellipse fill="none" stroke="#000000" cx="125.0208" cy="-173.4156" rx="44.0415" ry="18"/>
<text text-anchor="middle" x="125.0208" y="-169.2156" font-family="Times,serif" font-size="14.00" fill="#000000">No rows</text>
</g>
<!-- samples__siteID_siteID__sites_join&#45;&gt;samples__siteID_siteID__sites_join_No_Rows -->
<g id="edge16" class="edge">
<title>samples__siteID_siteID__sites_join&#45;&gt;samples__siteID_siteID__sites_join_No_Rows</title>
<path fill="none" stroke="#000000" d="M205.1617,-312.4646C185.4814,-278.3182 157.6192,-229.9757 140.466,-200.214"/>
<polygon fill="#000000" stroke="#000000" points="143.323,-198.1619 135.2971,-191.2456 137.2582,-201.6574 143.323,-198.1619"/>
</g>
<!-- samples__siteID_siteID__sites_where -->
<g id="node12" class="node">
<title>samples__siteID_siteID__sites_where</title>
<ellipse fill="none" stroke="#000000" cx="296.0208" cy="-173.4156" rx="108.6735" ry="29.3315"/>
<text text-anchor="middle" x="296.0208" y="-177.6156" font-family="Times,serif" font-size="14.00" fill="#000000">WHERE</text>
<text text-anchor="middle" x="296.0208" y="-160.8156" font-family="Times,serif" font-size="14.00" fill="#000000">sites.healthReg = &quot;CSC&quot;</text>
</g>
<!-- samples__siteID_siteID__sites_join_Has_Rows&#45;&gt;samples__siteID_siteID__sites_where -->
<g id="edge11" class="edge">
<title>samples__siteID_siteID__sites_join_Has_Rows&#45;&gt;samples__siteID_siteID__sites_where</title>
<path fill="none" stroke="#000000" d="M277.2284,-238.7313C279.4355,-231.0602 282.0997,-221.8004 284.7194,-212.6954"/>
<polygon fill="#000000" stroke="#000000" points="288.1192,-213.5367 287.5207,-202.9588 281.3921,-211.6012 288.1192,-213.5367"/>
</g>
<!-- samples__siteID_siteID__sites_where_Has_Rows -->
<g id="node13" class="node">
<title>samples__siteID_siteID__sites_where_Has_Rows</title>
<ellipse fill="none" stroke="#000000" cx="328.0208" cy="-90" rx="47.4704" ry="18"/>
<text text-anchor="middle" x="328.0208" y="-85.8" font-family="Times,serif" font-size="14.00" fill="#000000">Has rows</text>
</g>
<!-- samples__siteID_siteID__sites_where&#45;&gt;samples__siteID_siteID__sites_where_Has_Rows -->
<g id="edge12" class="edge">
<title>samples__siteID_siteID__sites_where&#45;&gt;samples__siteID_siteID__sites_where_Has_Rows</title>
<path fill="none" stroke="#000000" d="M307.3929,-143.7715C310.6983,-135.1551 314.2921,-125.7872 317.54,-117.3206"/>
<polygon fill="#000000" stroke="#000000" points="320.842,-118.4849 321.156,-107.8947 314.3064,-115.9777 320.842,-118.4849"/>
</g>
<!-- samples__siteID_siteID__sites_where_No_Rows -->
<g id="node15" class="node">
<title>samples__siteID_siteID__sites_where_No_Rows</title>
<ellipse fill="none" stroke="#000000" cx="206.0208" cy="-90" rx="44.0415" ry="18"/>
<text text-anchor="middle" x="206.0208" y="-85.8" font-family="Times,serif" font-size="14.00" fill="#000000">No rows</text>
</g>
<!-- samples__siteID_siteID__sites_where&#45;&gt;samples__siteID_siteID__sites_where_No_Rows -->
<g id="edge14" class="edge">
<title>samples__siteID_siteID__sites_where&#45;&gt;samples__siteID_siteID__sites_where_No_Rows</title>
<path fill="none" stroke="#000000" d="M265.5509,-145.1749C254.3892,-134.8299 241.8916,-123.2465 231.2399,-113.3741"/>
<polygon fill="#000000" stroke="#000000" points="233.5691,-110.7608 223.8556,-106.5301 228.8107,-115.8948 233.5691,-110.7608"/>
</g>
<!-- granted -->
<g id="node14" class="node">
<title>granted</title>
<ellipse fill="none" stroke="#000000" cx="433.0208" cy="-18" rx="71.7874" ry="18"/>
<text text-anchor="middle" x="433.0208" y="-13.8" font-family="Times,serif" font-size="14.00" fill="#000000">Access Granted</text>
</g>
<!-- samples__siteID_siteID__sites_where_Has_Rows&#45;&gt;granted -->
<g id="edge13" class="edge">
<title>samples__siteID_siteID__sites_where_Has_Rows&#45;&gt;granted</title>
<path fill="none" stroke="#000000" d="M351.0635,-74.1993C365.3254,-64.4197 383.8756,-51.6996 399.7199,-40.8349"/>
<polygon fill="#000000" stroke="#000000" points="401.9316,-43.5621 408.1996,-35.0202 397.9729,-37.789 401.9316,-43.5621"/>
</g>
<!-- denied -->
<g id="node16" class="node">
<title>denied</title>
<ellipse fill="none" stroke="#000000" cx="72.0208" cy="-18" rx="68.8581" ry="18"/>
<text text-anchor="middle" x="72.0208" y="-13.8" font-family="Times,serif" font-size="14.00" fill="#000000">Access Denied</text>
</g>
<!-- samples__siteID_siteID__sites_where_No_Rows&#45;&gt;denied -->
<g id="edge15" class="edge">
<title>samples__siteID_siteID__sites_where_No_Rows&#45;&gt;denied</title>
<path fill="none" stroke="#000000" d="M179.2259,-75.6028C159.8455,-65.1894 133.3429,-50.9492 111.538,-39.2332"/>
<polygon fill="#000000" stroke="#000000" points="112.9807,-36.0351 102.5152,-34.3851 109.6675,-42.2014 112.9807,-36.0351"/>
</g>
<!-- samples__siteID_siteID__sites_join_No_Rows&#45;&gt;denied -->
<g id="edge17" class="edge">
<title>samples__siteID_siteID__sites_join_No_Rows&#45;&gt;denied</title>
<path fill="none" stroke="#000000" d="M118.941,-155.5875C109.7649,-128.6799 92.3005,-77.4678 81.4607,-45.6812"/>
<polygon fill="#000000" stroke="#000000" points="84.7333,-44.434 78.1929,-36.0989 78.108,-46.6934 84.7333,-44.434"/>
</g>
<!-- sites__siteID_siteID__samples_join_No_Rows&#45;&gt;denied -->
<g id="edge19" class="edge">
<title>sites__siteID_siteID__samples_join_No_Rows&#45;&gt;denied</title>
<path fill="none" stroke="#000000" d="M84.5801,-333.7838C80.974,-305.6647 74.3935,-250.1825 72.0208,-202.8313 69.2482,-147.5025 70.2152,-82.7402 71.1389,-46.4306"/>
<polygon fill="#000000" stroke="#000000" points="74.6461,-46.2092 71.4199,-36.1175 67.6487,-46.0184 74.6461,-46.2092"/>
</g>
<!-- addresses__addID_addID__sites_where_No_Rows&#45;&gt;denied -->
<g id="edge21" class="edge">
<title>addresses__addID_addID__sites_where_No_Rows&#45;&gt;denied</title>
<path fill="none" stroke="#000000" d="M39.4256,-524.7229C31.2484,-491.0729 15.0208,-416.2202 15.0208,-352.1263 15.0208,-352.1263 15.0208,-352.1263 15.0208,-173.4156 15.0208,-125.9587 38.7368,-75.0607 55.5734,-44.9063"/>
<polygon fill="#000000" stroke="#000000" points="58.8147,-46.2903 60.7594,-35.8755 52.7444,-42.8044 58.8147,-46.2903"/>
</g>
<!-- addresses__addID_addID__sites_join_No_Rows&#45;&gt;granted -->
<g id="edge23" class="edge">
<title>addresses__addID_addID__sites_join_No_Rows&#45;&gt;granted</title>
<path fill="none" stroke="#000000" d="M404.7884,-703.3772C414.4888,-671.3689 433.0208,-602.4076 433.0208,-542.7164 433.0208,-542.7164 433.0208,-542.7164 433.0208,-173.4156 433.0208,-129.0052 433.0208,-77.4563 433.0208,-46.3065"/>
<polygon fill="#000000" stroke="#000000" points="436.5209,-46.1843 433.0208,-36.1843 429.5209,-46.1843 436.5209,-46.1843"/>
</g>
<!-- organizations__addID_addID__addresses_join_No_Rows&#45;&gt;granted -->
<g id="edge25" class="edge">
<title>organizations__addID_addID__addresses_join_No_Rows&#45;&gt;granted</title>
<path fill="none" stroke="#000000" d="M471.0208,-882.1277C471.0208,-849.8967 471.0208,-780.2216 471.0208,-721.4271 471.0208,-721.4271 471.0208,-721.4271 471.0208,-173.4156 471.0208,-127.7468 455.3467,-76.6338 444.1317,-45.9068"/>
<polygon fill="#000000" stroke="#000000" points="447.3188,-44.4379 440.5283,-36.3052 440.7651,-46.8974 447.3188,-44.4379"/>
</g>
</g>
</svg>
