<?xml version="1.0" encoding="UTF-8" standalone="no"?>
<!DOCTYPE svg PUBLIC "-//W3C//DTD SVG 1.1//EN"
 "http://www.w3.org/Graphics/SVG/1.1/DTD/svg11.dtd">
<!-- Generated by graphviz version 2.40.1 (20161225.0304)
 -->
<!-- Title: G Pages: 1 -->
<svg width="497pt" height="1021pt"
 viewBox="0.00 0.00 496.86 1021.43" xmlns="http://www.w3.org/2000/svg" xmlns:xlink="http://www.w3.org/1999/xlink">
<g id="graph0" class="graph" transform="scale(1 1) rotate(0) translate(4 1017.4328)">
<title>G</title>
<polygon fill="#ffffff" stroke="transparent" points="-4,4 -4,-1017.4328 492.8574,-1017.4328 492.8574,4 -4,4"/>
<!-- polygons -->
<g id="node1" class="node">
<title>polygons</title>
<ellipse fill="none" stroke="#000000" cx="358.8366" cy="-995.4328" rx="46.3932" ry="18"/>
<text text-anchor="middle" x="358.8366" y="-991.2328" font-family="Times,serif" font-size="14.00" fill="#000000">polygons</text>
</g>
<!-- polygons__polygonID_polygonID__sites_join -->
<g id="node2" class="node">
<title>polygons__polygonID_polygonID__sites_join</title>
<ellipse fill="none" stroke="#000000" cx="358.8366" cy="-900.1377" rx="78.8882" ry="41.0911"/>
<text text-anchor="middle" x="358.8366" y="-912.7377" font-family="Times,serif" font-size="14.00" fill="#000000">LEFT JOIN sites</text>
<text text-anchor="middle" x="358.8366" y="-895.9377" font-family="Times,serif" font-size="14.00" fill="#000000">At level: 3</text>
<text text-anchor="middle" x="358.8366" y="-879.1377" font-family="Times,serif" font-size="14.00" fill="#000000">Required: true</text>
</g>
<!-- polygons&#45;&gt;polygons__polygonID_polygonID__sites_join -->
<g id="edge1" class="edge">
<title>polygons&#45;&gt;polygons__polygonID_polygonID__sites_join</title>
<path fill="none" stroke="#000000" d="M358.8366,-977.0589C358.8366,-969.7498 358.8366,-960.9402 358.8366,-951.9314"/>
<polygon fill="#000000" stroke="#000000" points="362.3367,-951.7449 358.8366,-941.7449 355.3367,-951.745 362.3367,-951.7449"/>
</g>
<!-- polygons__polygonID_polygonID__sites_join_Has_Rows -->
<g id="node3" class="node">
<title>polygons__polygonID_polygonID__sites_join_Has_Rows</title>
<ellipse fill="none" stroke="#000000" cx="321.8366" cy="-804.8427" rx="47.4704" ry="18"/>
<text text-anchor="middle" x="321.8366" y="-800.6427" font-family="Times,serif" font-size="14.00" fill="#000000">Has rows</text>
</g>
<!-- polygons__polygonID_polygonID__sites_join&#45;&gt;polygons__polygonID_polygonID__sites_join_Has_Rows -->
<g id="edge2" class="edge">
<title>polygons__polygonID_polygonID__sites_join&#45;&gt;polygons__polygonID_polygonID__sites_join_Has_Rows</title>
<path fill="none" stroke="#000000" d="M343.0379,-859.4477C339.4804,-850.285 335.7866,-840.7715 332.4982,-832.302"/>
<polygon fill="#000000" stroke="#000000" points="335.7387,-830.978 328.8565,-822.9228 329.2133,-833.5117 335.7387,-830.978"/>
</g>
<!-- polygons__polygonID_polygonID__sites_join_No_Rows -->
<g id="node18" class="node">
<title>polygons__polygonID_polygonID__sites_join_No_Rows</title>
<ellipse fill="none" stroke="#000000" cx="444.8366" cy="-721.4271" rx="44.0415" ry="18"/>
<text text-anchor="middle" x="444.8366" y="-717.2271" font-family="Times,serif" font-size="14.00" fill="#000000">No rows</text>
</g>
<!-- polygons__polygonID_polygonID__sites_join&#45;&gt;polygons__polygonID_polygonID__sites_join_No_Rows -->
<g id="edge20" class="edge">
<title>polygons__polygonID_polygonID__sites_join&#45;&gt;polygons__polygonID_polygonID__sites_join_No_Rows</title>
<path fill="none" stroke="#000000" d="M378.1367,-860.0316C394.5101,-826.007 417.5508,-778.1278 431.8203,-748.4754"/>
<polygon fill="#000000" stroke="#000000" points="435.1184,-749.6931 436.3009,-739.1645 428.8108,-746.6577 435.1184,-749.6931"/>
</g>
<!-- polygons__polygonID_polygonID__sites_where -->
<g id="node4" class="node">
<title>polygons__polygonID_polygonID__sites_where</title>
<ellipse fill="none" stroke="#000000" cx="273.8366" cy="-721.4271" rx="108.6735" ry="29.3315"/>
<text text-anchor="middle" x="273.8366" y="-725.6271" font-family="Times,serif" font-size="14.00" fill="#000000">WHERE</text>
<text text-anchor="middle" x="273.8366" y="-708.8271" font-family="Times,serif" font-size="14.00" fill="#000000">sites.healthReg = &quot;CSC&quot;</text>
</g>
<!-- polygons__polygonID_polygonID__sites_join_Has_Rows&#45;&gt;polygons__polygonID_polygonID__sites_where -->
<g id="edge3" class="edge">
<title>polygons__polygonID_polygonID__sites_join_Has_Rows&#45;&gt;polygons__polygonID_polygonID__sites_where</title>
<path fill="none" stroke="#000000" d="M311.657,-787.1524C306.9796,-779.0238 301.2397,-769.0489 295.6583,-759.3493"/>
<polygon fill="#000000" stroke="#000000" points="298.6332,-757.5017 290.612,-750.5799 292.566,-760.993 298.6332,-757.5017"/>
</g>
<!-- polygons__polygonID_polygonID__sites_where_Has_Rows -->
<g id="node5" class="node">
<title>polygons__polygonID_polygonID__sites_where_Has_Rows</title>
<ellipse fill="none" stroke="#000000" cx="245.8366" cy="-638.0114" rx="47.4704" ry="18"/>
<text text-anchor="middle" x="245.8366" y="-633.8114" font-family="Times,serif" font-size="14.00" fill="#000000">Has rows</text>
</g>
<!-- polygons__polygonID_polygonID__sites_where&#45;&gt;polygons__polygonID_polygonID__sites_where_Has_Rows -->
<g id="edge4" class="edge">
<title>polygons__polygonID_polygonID__sites_where&#45;&gt;polygons__polygonID_polygonID__sites_where_Has_Rows</title>
<path fill="none" stroke="#000000" d="M263.886,-691.783C261.0252,-683.2602 257.9176,-674.0022 255.1001,-665.6084"/>
<polygon fill="#000000" stroke="#000000" points="258.3436,-664.2726 251.8433,-655.9062 251.7075,-666.5001 258.3436,-664.2726"/>
</g>
<!-- polygons__polygonID_polygonID__sites_where_No_Rows -->
<g id="node17" class="node">
<title>polygons__polygonID_polygonID__sites_where_No_Rows</title>
<ellipse fill="none" stroke="#000000" cx="372.8366" cy="-542.7164" rx="44.0415" ry="18"/>
<text text-anchor="middle" x="372.8366" y="-538.5164" font-family="Times,serif" font-size="14.00" fill="#000000">No rows</text>
</g>
<!-- polygons__polygonID_polygonID__sites_where&#45;&gt;polygons__polygonID_polygonID__sites_where_No_Rows -->
<g id="edge18" class="edge">
<title>polygons__polygonID_polygonID__sites_where&#45;&gt;polygons__polygonID_polygonID__sites_where_No_Rows</title>
<path fill="none" stroke="#000000" d="M289.963,-692.3164C308.8131,-658.2889 339.7495,-602.4439 358.0182,-569.466"/>
<polygon fill="#000000" stroke="#000000" points="361.2499,-570.855 363.0341,-560.4115 355.1266,-567.4629 361.2499,-570.855"/>
</g>
<!-- sites__siteID_siteID__samples_join -->
<g id="node6" class="node">
<title>sites__siteID_siteID__samples_join</title>
<ellipse fill="none" stroke="#000000" cx="217.8366" cy="-542.7164" rx="93.4765" ry="41.0911"/>
<text text-anchor="middle" x="217.8366" y="-555.3164" font-family="Times,serif" font-size="14.00" fill="#000000">LEFT JOIN samples</text>
<text text-anchor="middle" x="217.8366" y="-538.5164" font-family="Times,serif" font-size="14.00" fill="#000000">At level: 2</text>
<text text-anchor="middle" x="217.8366" y="-521.7164" font-family="Times,serif" font-size="14.00" fill="#000000">Required: true</text>
</g>
<!-- polygons__polygonID_polygonID__sites_where_Has_Rows&#45;&gt;sites__siteID_siteID__samples_join -->
<g id="edge5" class="edge">
<title>polygons__polygonID_polygonID__sites_where_Has_Rows&#45;&gt;sites__siteID_siteID__samples_join</title>
<path fill="none" stroke="#000000" d="M240.57,-620.0872C238.3361,-612.4843 235.6082,-603.2003 232.828,-593.7379"/>
<polygon fill="#000000" stroke="#000000" points="236.1074,-592.4833 229.9302,-583.8756 229.3913,-594.4567 236.1074,-592.4833"/>
</g>
<!-- sites__siteID_siteID__samples_join_Has_Rows -->
<g id="node7" class="node">
<title>sites__siteID_siteID__samples_join_Has_Rows</title>
<ellipse fill="none" stroke="#000000" cx="205.8366" cy="-447.4214" rx="47.4704" ry="18"/>
<text text-anchor="middle" x="205.8366" y="-443.2214" font-family="Times,serif" font-size="14.00" fill="#000000">Has rows</text>
</g>
<!-- sites__siteID_siteID__samples_join&#45;&gt;sites__siteID_siteID__samples_join_Has_Rows -->
<g id="edge6" class="edge">
<title>sites__siteID_siteID__samples_join&#45;&gt;sites__siteID_siteID__samples_join_Has_Rows</title>
<path fill="none" stroke="#000000" d="M212.643,-501.4728C211.5508,-492.7989 210.4222,-483.8366 209.4056,-475.764"/>
<polygon fill="#000000" stroke="#000000" points="212.8684,-475.2478 208.1463,-465.7635 205.9232,-476.1224 212.8684,-475.2478"/>
</g>
<!-- sites__siteID_siteID__samples_join_No_Rows -->
<g id="node16" class="node">
<title>sites__siteID_siteID__samples_join_No_Rows</title>
<ellipse fill="none" stroke="#000000" cx="317.8366" cy="-352.1263" rx="44.0415" ry="18"/>
<text text-anchor="middle" x="317.8366" y="-347.9263" font-family="Times,serif" font-size="14.00" fill="#000000">No rows</text>
</g>
<!-- sites__siteID_siteID__samples_join&#45;&gt;sites__siteID_siteID__samples_join_No_Rows -->
<g id="edge16" class="edge">
<title>sites__siteID_siteID__samples_join&#45;&gt;sites__siteID_siteID__samples_join_No_Rows</title>
<path fill="none" stroke="#000000" d="M241.3498,-502.4467C248.1075,-490.5982 255.3898,-477.558 261.8366,-465.4214 277.3271,-436.2592 293.9586,-402.2288 305.0358,-379.1331"/>
<polygon fill="#000000" stroke="#000000" points="308.2701,-380.4824 309.4236,-369.9505 301.9541,-377.4643 308.2701,-380.4824"/>
</g>
<!-- samples__siteID_siteID__sites_join -->
<g id="node8" class="node">
<title>samples__siteID_siteID__sites_join</title>
<ellipse fill="none" stroke="#000000" cx="176.8366" cy="-352.1263" rx="78.8882" ry="41.0911"/>
<text text-anchor="middle" x="176.8366" y="-364.7263" font-family="Times,serif" font-size="14.00" fill="#000000">LEFT JOIN sites</text>
<text text-anchor="middle" x="176.8366" y="-347.9263" font-family="Times,serif" font-size="14.00" fill="#000000">At level: 1</text>
<text text-anchor="middle" x="176.8366" y="-331.1263" font-family="Times,serif" font-size="14.00" fill="#000000">Required: true</text>
</g>
<!-- sites__siteID_siteID__samples_join_Has_Rows&#45;&gt;samples__siteID_siteID__sites_join -->
<g id="edge7" class="edge">
<title>sites__siteID_siteID__samples_join_Has_Rows&#45;&gt;samples__siteID_siteID__sites_join</title>
<path fill="none" stroke="#000000" d="M200.3819,-429.4971C198.0682,-421.8942 195.2429,-412.6102 192.3634,-403.1478"/>
<polygon fill="#000000" stroke="#000000" points="195.6219,-401.8333 189.3621,-393.2855 188.9251,-403.8713 195.6219,-401.8333"/>
</g>
<!-- samples__siteID_siteID__sites_join_Has_Rows -->
<g id="node9" class="node">
<title>samples__siteID_siteID__sites_join_Has_Rows</title>
<ellipse fill="none" stroke="#000000" cx="142.8366" cy="-256.8313" rx="47.4704" ry="18"/>
<text text-anchor="middle" x="142.8366" y="-252.6313" font-family="Times,serif" font-size="14.00" fill="#000000">Has rows</text>
</g>
<!-- samples__siteID_siteID__sites_join&#45;&gt;samples__siteID_siteID__sites_join_Has_Rows -->
<g id="edge8" class="edge">
<title>samples__siteID_siteID__sites_join&#45;&gt;samples__siteID_siteID__sites_join_Has_Rows</title>
<path fill="none" stroke="#000000" d="M162.3189,-311.4362C159.0853,-302.3731 155.7293,-292.9668 152.7324,-284.5672"/>
<polygon fill="#000000" stroke="#000000" points="155.9443,-283.1537 149.2874,-274.9114 149.3513,-285.5061 155.9443,-283.1537"/>
</g>
<!-- samples__siteID_siteID__sites_join_No_Rows -->
<g id="node15" class="node">
<title>samples__siteID_siteID__sites_join_No_Rows</title>
<ellipse fill="none" stroke="#000000" cx="279.8366" cy="-173.4156" rx="44.0415" ry="18"/>
<text text-anchor="middle" x="279.8366" y="-169.2156" font-family="Times,serif" font-size="14.00" fill="#000000">No rows</text>
</g>
<!-- samples__siteID_siteID__sites_join&#45;&gt;samples__siteID_siteID__sites_join_No_Rows -->
<g id="edge14" class="edge">
<title>samples__siteID_siteID__sites_join&#45;&gt;samples__siteID_siteID__sites_join_No_Rows</title>
<path fill="none" stroke="#000000" d="M199.6956,-312.4646C219.3759,-278.3182 247.2382,-229.9757 264.3913,-200.214"/>
<polygon fill="#000000" stroke="#000000" points="267.5991,-201.6574 269.5603,-191.2456 261.5343,-198.1619 267.5991,-201.6574"/>
</g>
<!-- samples__siteID_siteID__sites_where -->
<g id="node10" class="node">
<title>samples__siteID_siteID__sites_where</title>
<ellipse fill="none" stroke="#000000" cx="108.8366" cy="-173.4156" rx="108.6735" ry="29.3315"/>
<text text-anchor="middle" x="108.8366" y="-177.6156" font-family="Times,serif" font-size="14.00" fill="#000000">WHERE</text>
<text text-anchor="middle" x="108.8366" y="-160.8156" font-family="Times,serif" font-size="14.00" fill="#000000">sites.healthReg = &quot;CSC&quot;</text>
</g>
<!-- samples__siteID_siteID__sites_join_Has_Rows&#45;&gt;samples__siteID_siteID__sites_where -->
<g id="edge9" class="edge">
<title>samples__siteID_siteID__sites_join_Has_Rows&#45;&gt;samples__siteID_siteID__sites_where</title>
<path fill="none" stroke="#000000" d="M135.4591,-238.7313C132.2991,-230.9786 128.4777,-221.6032 124.7285,-212.4049"/>
<polygon fill="#000000" stroke="#000000" points="127.894,-210.898 120.8783,-202.9588 121.4117,-213.5402 127.894,-210.898"/>
</g>
<!-- samples__siteID_siteID__sites_where_Has_Rows -->
<g id="node11" class="node">
<title>samples__siteID_siteID__sites_where_Has_Rows</title>
<ellipse fill="none" stroke="#000000" cx="108.8366" cy="-90" rx="47.4704" ry="18"/>
<text text-anchor="middle" x="108.8366" y="-85.8" font-family="Times,serif" font-size="14.00" fill="#000000">Has rows</text>
</g>
<!-- samples__siteID_siteID__sites_where&#45;&gt;samples__siteID_siteID__sites_where_Has_Rows -->
<g id="edge10" class="edge">
<title>samples__siteID_siteID__sites_where&#45;&gt;samples__siteID_siteID__sites_where_Has_Rows</title>
<path fill="none" stroke="#000000" d="M108.8366,-143.7715C108.8366,-135.5664 108.8366,-126.6796 108.8366,-118.5388"/>
<polygon fill="#000000" stroke="#000000" points="112.3367,-118.3865 108.8366,-108.3866 105.3367,-118.3866 112.3367,-118.3865"/>
</g>
<!-- samples__siteID_siteID__sites_where_No_Rows -->
<g id="node13" class="node">
<title>samples__siteID_siteID__sites_where_No_Rows</title>
<ellipse fill="none" stroke="#000000" cx="223.8366" cy="-90" rx="44.0415" ry="18"/>
<text text-anchor="middle" x="223.8366" y="-85.8" font-family="Times,serif" font-size="14.00" fill="#000000">No rows</text>
</g>
<!-- samples__siteID_siteID__sites_where&#45;&gt;samples__siteID_siteID__sites_where_No_Rows -->
<g id="edge12" class="edge">
<title>samples__siteID_siteID__sites_where&#45;&gt;samples__siteID_siteID__sites_where_No_Rows</title>
<path fill="none" stroke="#000000" d="M147.1299,-145.6394C162.2804,-134.65 179.4408,-122.2027 193.6832,-111.8719"/>
<polygon fill="#000000" stroke="#000000" points="196.0903,-114.4497 202.13,-105.745 191.9802,-108.7834 196.0903,-114.4497"/>
</g>
<!-- granted -->
<g id="node12" class="node">
<title>granted</title>
<ellipse fill="none" stroke="#000000" cx="108.8366" cy="-18" rx="71.7874" ry="18"/>
<text text-anchor="middle" x="108.8366" y="-13.8" font-family="Times,serif" font-size="14.00" fill="#000000">Access Granted</text>
</g>
<!-- samples__siteID_siteID__sites_where_Has_Rows&#45;&gt;granted -->
<g id="edge11" class="edge">
<title>samples__siteID_siteID__sites_where_Has_Rows&#45;&gt;granted</title>
<path fill="none" stroke="#000000" d="M108.8366,-71.8314C108.8366,-64.131 108.8366,-54.9743 108.8366,-46.4166"/>
<polygon fill="#000000" stroke="#000000" points="112.3367,-46.4132 108.8366,-36.4133 105.3367,-46.4133 112.3367,-46.4132"/>
</g>
<!-- denied -->
<g id="node14" class="node">
<title>denied</title>
<ellipse fill="none" stroke="#000000" cx="351.8366" cy="-18" rx="68.8581" ry="18"/>
<text text-anchor="middle" x="351.8366" y="-13.8" font-family="Times,serif" font-size="14.00" fill="#000000">Access Denied</text>
</g>
<!-- samples__siteID_siteID__sites_where_No_Rows&#45;&gt;denied -->
<g id="edge13" class="edge">
<title>samples__siteID_siteID__sites_where_No_Rows&#45;&gt;denied</title>
<path fill="none" stroke="#000000" d="M249.7393,-75.4297C268.0659,-65.121 292.9454,-51.1263 313.556,-39.5328"/>
<polygon fill="#000000" stroke="#000000" points="315.3907,-42.5166 322.3905,-34.5634 311.9588,-36.4156 315.3907,-42.5166"/>
</g>
<!-- samples__siteID_siteID__sites_join_No_Rows&#45;&gt;denied -->
<g id="edge15" class="edge">
<title>samples__siteID_siteID__sites_join_No_Rows&#45;&gt;denied</title>
<path fill="none" stroke="#000000" d="M288.0959,-155.5875C300.6155,-128.5634 324.4924,-77.0239 339.2033,-45.2695"/>
<polygon fill="#000000" stroke="#000000" points="342.424,-46.6438 343.4518,-36.0989 336.0725,-43.7013 342.424,-46.6438"/>
</g>
<!-- sites__siteID_siteID__samples_join_No_Rows&#45;&gt;denied -->
<g id="edge17" class="edge">
<title>sites__siteID_siteID__samples_join_No_Rows&#45;&gt;denied</title>
<path fill="none" stroke="#000000" d="M319.713,-333.6863C325.344,-278.3497 342.1265,-113.4233 348.9267,-46.596"/>
<polygon fill="#000000" stroke="#000000" points="352.4356,-46.686 349.966,-36.383 345.4715,-45.9773 352.4356,-46.686"/>
</g>
<!-- polygons__polygonID_polygonID__sites_where_No_Rows&#45;&gt;denied -->
<g id="edge19" class="edge">
<title>polygons__polygonID_polygonID__sites_where_No_Rows&#45;&gt;denied</title>
<path fill="none" stroke="#000000" d="M375.5303,-524.632C380.3238,-490.8322 389.8366,-415.7425 389.8366,-352.1263 389.8366,-352.1263 389.8366,-352.1263 389.8366,-173.4156 389.8366,-127.7468 374.1625,-76.6338 362.9475,-45.9068"/>
<polygon fill="#000000" stroke="#000000" points="366.1347,-44.4379 359.3442,-36.3052 359.581,-46.8974 366.1347,-44.4379"/>
</g>
<!-- polygons__polygonID_polygonID__sites_join_No_Rows&#45;&gt;denied -->
<g id="edge21" class="edge">
<title>polygons__polygonID_polygonID__sites_join_No_Rows&#45;&gt;denied</title>
<path fill="none" stroke="#000000" d="M444.8366,-703.417C444.8366,-671.186 444.8366,-601.511 444.8366,-542.7164 444.8366,-542.7164 444.8366,-542.7164 444.8366,-173.4156 444.8366,-121.1711 405.661,-71.2756 378.1622,-42.6876"/>
<polygon fill="#000000" stroke="#000000" points="380.6249,-40.2002 371.1063,-35.5475 375.6459,-45.1206 380.6249,-40.2002"/>
</g>
</g>
</svg>
