<?xml version="1.0" encoding="UTF-8" standalone="no"?>
<!DOCTYPE svg PUBLIC "-//W3C//DTD SVG 1.1//EN"
 "http://www.w3.org/Graphics/SVG/1.1/DTD/svg11.dtd">
<!-- Generated by graphviz version 2.40.1 (20161225.0304)
 -->
<!-- Title: G Pages: 1 -->
<svg width="459pt" height="831pt"
 viewBox="0.00 0.00 458.86 830.84" xmlns="http://www.w3.org/2000/svg" xmlns:xlink="http://www.w3.org/1999/xlink">
<g id="graph0" class="graph" transform="scale(1 1) rotate(0) translate(4 826.8427)">
<title>G</title>
<polygon fill="#ffffff" stroke="transparent" points="-4,4 -4,-826.8427 454.8574,-826.8427 454.8574,4 -4,4"/>
<!-- sites -->
<g id="node1" class="node">
<title>sites</title>
<ellipse fill="none" stroke="#000000" cx="328.8366" cy="-804.8427" rx="28.4049" ry="18"/>
<text text-anchor="middle" x="328.8366" y="-800.6427" font-family="Times,serif" font-size="14.00" fill="#000000">sites</text>
</g>
<!-- sites_where -->
<g id="node2" class="node">
<title>sites_where</title>
<ellipse fill="none" stroke="#000000" cx="328.8366" cy="-721.4271" rx="108.6735" ry="29.3315"/>
<text text-anchor="middle" x="328.8366" y="-725.6271" font-family="Times,serif" font-size="14.00" fill="#000000">WHERE</text>
<text text-anchor="middle" x="328.8366" y="-708.8271" font-family="Times,serif" font-size="14.00" fill="#000000">sites.healthReg = &quot;CSC&quot;</text>
</g>
<!-- sites&#45;&gt;sites_where -->
<g id="edge1" class="edge">
<title>sites&#45;&gt;sites_where</title>
<path fill="none" stroke="#000000" d="M328.8366,-786.7428C328.8366,-779.1532 328.8366,-770.0087 328.8366,-760.9975"/>
<polygon fill="#000000" stroke="#000000" points="332.3367,-760.9702 328.8366,-750.9702 325.3367,-760.9702 332.3367,-760.9702"/>
</g>
<!-- sites_where_Has_Rows -->
<g id="node3" class="node">
<title>sites_where_Has_Rows</title>
<ellipse fill="none" stroke="#000000" cx="291.8366" cy="-638.0114" rx="47.4704" ry="18"/>
<text text-anchor="middle" x="291.8366" y="-633.8114" font-family="Times,serif" font-size="14.00" fill="#000000">Has rows</text>
</g>
<!-- sites_where&#45;&gt;sites_where_Has_Rows -->
<g id="edge2" class="edge">
<title>sites_where&#45;&gt;sites_where_Has_Rows</title>
<path fill="none" stroke="#000000" d="M315.6876,-691.783C311.8242,-683.0729 307.6201,-673.5949 303.8327,-665.0563"/>
<polygon fill="#000000" stroke="#000000" points="307.0281,-663.6281 299.774,-655.9062 300.6293,-666.4664 307.0281,-663.6281"/>
</g>
<!-- sites_where_No_Rows -->
<g id="node15" class="node">
<title>sites_where_No_Rows</title>
<ellipse fill="none" stroke="#000000" cx="406.8366" cy="-542.7164" rx="44.0415" ry="18"/>
<text text-anchor="middle" x="406.8366" y="-538.5164" font-family="Times,serif" font-size="14.00" fill="#000000">No rows</text>
</g>
<!-- sites_where&#45;&gt;sites_where_No_Rows -->
<g id="edge16" class="edge">
<title>sites_where&#45;&gt;sites_where_No_Rows</title>
<path fill="none" stroke="#000000" d="M341.7167,-691.9166C356.4609,-658.1352 380.4231,-603.234 394.8031,-570.2872"/>
<polygon fill="#000000" stroke="#000000" points="398.1449,-571.38 398.9373,-560.8149 391.7293,-568.5799 398.1449,-571.38"/>
</g>
<!-- sites__siteID_siteID__samples_join -->
<g id="node4" class="node">
<title>sites__siteID_siteID__samples_join</title>
<ellipse fill="none" stroke="#000000" cx="251.8366" cy="-542.7164" rx="93.4765" ry="41.0911"/>
<text text-anchor="middle" x="251.8366" y="-555.3164" font-family="Times,serif" font-size="14.00" fill="#000000">LEFT JOIN samples</text>
<text text-anchor="middle" x="251.8366" y="-538.5164" font-family="Times,serif" font-size="14.00" fill="#000000">At level: 2</text>
<text text-anchor="middle" x="251.8366" y="-521.7164" font-family="Times,serif" font-size="14.00" fill="#000000">Required: true</text>
</g>
<!-- sites_where_Has_Rows&#45;&gt;sites__siteID_siteID__samples_join -->
<g id="edge3" class="edge">
<title>sites_where_Has_Rows&#45;&gt;sites__siteID_siteID__samples_join</title>
<path fill="none" stroke="#000000" d="M284.3129,-620.0872C281.0201,-612.2425 276.9761,-602.6081 272.8737,-592.8347"/>
<polygon fill="#000000" stroke="#000000" points="276.0429,-591.3416 268.9452,-583.4756 269.5884,-594.0509 276.0429,-591.3416"/>
</g>
<!-- sites__siteID_siteID__samples_join_Has_Rows -->
<g id="node5" class="node">
<title>sites__siteID_siteID__samples_join_Has_Rows</title>
<ellipse fill="none" stroke="#000000" cx="222.8366" cy="-447.4214" rx="47.4704" ry="18"/>
<text text-anchor="middle" x="222.8366" y="-443.2214" font-family="Times,serif" font-size="14.00" fill="#000000">Has rows</text>
</g>
<!-- sites__siteID_siteID__samples_join&#45;&gt;sites__siteID_siteID__samples_join_Has_Rows -->
<g id="edge4" class="edge">
<title>sites__siteID_siteID__samples_join&#45;&gt;sites__siteID_siteID__samples_join_Has_Rows</title>
<path fill="none" stroke="#000000" d="M239.3697,-501.7497C236.6194,-492.712 233.7695,-483.3472 231.2265,-474.9908"/>
<polygon fill="#000000" stroke="#000000" points="234.5639,-473.9354 228.3041,-465.3876 227.8671,-475.9734 234.5639,-473.9354"/>
</g>
<!-- sites__siteID_siteID__samples_join_No_Rows -->
<g id="node14" class="node">
<title>sites__siteID_siteID__samples_join_No_Rows</title>
<ellipse fill="none" stroke="#000000" cx="334.8366" cy="-352.1263" rx="44.0415" ry="18"/>
<text text-anchor="middle" x="334.8366" y="-347.9263" font-family="Times,serif" font-size="14.00" fill="#000000">No rows</text>
</g>
<!-- sites__siteID_siteID__samples_join&#45;&gt;sites__siteID_siteID__samples_join_No_Rows -->
<g id="edge14" class="edge">
<title>sites__siteID_siteID__samples_join&#45;&gt;sites__siteID_siteID__samples_join_No_Rows</title>
<path fill="none" stroke="#000000" d="M269.6422,-501.83C285.7868,-464.7577 309.1263,-411.1639 323.0599,-379.1688"/>
<polygon fill="#000000" stroke="#000000" points="326.2799,-380.5407 327.0637,-369.9749 319.862,-377.7458 326.2799,-380.5407"/>
</g>
<!-- samples__siteID_siteID__sites_join -->
<g id="node6" class="node">
<title>samples__siteID_siteID__sites_join</title>
<ellipse fill="none" stroke="#000000" cx="193.8366" cy="-352.1263" rx="78.8882" ry="41.0911"/>
<text text-anchor="middle" x="193.8366" y="-364.7263" font-family="Times,serif" font-size="14.00" fill="#000000">LEFT JOIN sites</text>
<text text-anchor="middle" x="193.8366" y="-347.9263" font-family="Times,serif" font-size="14.00" fill="#000000">At level: 1</text>
<text text-anchor="middle" x="193.8366" y="-331.1263" font-family="Times,serif" font-size="14.00" fill="#000000">Required: true</text>
</g>
<!-- sites__siteID_siteID__samples_join_Has_Rows&#45;&gt;samples__siteID_siteID__sites_join -->
<g id="edge5" class="edge">
<title>sites__siteID_siteID__samples_join_Has_Rows&#45;&gt;samples__siteID_siteID__sites_join</title>
<path fill="none" stroke="#000000" d="M217.3819,-429.4971C215.0682,-421.8942 212.2429,-412.6102 209.3634,-403.1478"/>
<polygon fill="#000000" stroke="#000000" points="212.6219,-401.8333 206.3621,-393.2855 205.9251,-403.8713 212.6219,-401.8333"/>
</g>
<!-- samples__siteID_siteID__sites_join_Has_Rows -->
<g id="node7" class="node">
<title>samples__siteID_siteID__sites_join_Has_Rows</title>
<ellipse fill="none" stroke="#000000" cx="159.8366" cy="-256.8313" rx="47.4704" ry="18"/>
<text text-anchor="middle" x="159.8366" y="-252.6313" font-family="Times,serif" font-size="14.00" fill="#000000">Has rows</text>
</g>
<!-- samples__siteID_siteID__sites_join&#45;&gt;samples__siteID_siteID__sites_join_Has_Rows -->
<g id="edge6" class="edge">
<title>samples__siteID_siteID__sites_join&#45;&gt;samples__siteID_siteID__sites_join_Has_Rows</title>
<path fill="none" stroke="#000000" d="M179.3189,-311.4362C176.0853,-302.3731 172.7293,-292.9668 169.7324,-284.5672"/>
<polygon fill="#000000" stroke="#000000" points="172.9443,-283.1537 166.2874,-274.9114 166.3513,-285.5061 172.9443,-283.1537"/>
</g>
<!-- samples__siteID_siteID__sites_join_No_Rows -->
<g id="node13" class="node">
<title>samples__siteID_siteID__sites_join_No_Rows</title>
<ellipse fill="none" stroke="#000000" cx="279.8366" cy="-173.4156" rx="44.0415" ry="18"/>
<text text-anchor="middle" x="279.8366" y="-169.2156" font-family="Times,serif" font-size="14.00" fill="#000000">No rows</text>
</g>
<!-- samples__siteID_siteID__sites_join&#45;&gt;samples__siteID_siteID__sites_join_No_Rows -->
<g id="edge12" class="edge">
<title>samples__siteID_siteID__sites_join&#45;&gt;samples__siteID_siteID__sites_join_No_Rows</title>
<path fill="none" stroke="#000000" d="M213.1367,-312.0202C229.5101,-277.9956 252.5508,-230.1164 266.8203,-200.464"/>
<polygon fill="#000000" stroke="#000000" points="270.1184,-201.6817 271.3009,-191.1531 263.8108,-198.6463 270.1184,-201.6817"/>
</g>
<!-- samples__siteID_siteID__sites_where -->
<g id="node8" class="node">
<title>samples__siteID_siteID__sites_where</title>
<ellipse fill="none" stroke="#000000" cx="108.8366" cy="-173.4156" rx="108.6735" ry="29.3315"/>
<text text-anchor="middle" x="108.8366" y="-177.6156" font-family="Times,serif" font-size="14.00" fill="#000000">WHERE</text>
<text text-anchor="middle" x="108.8366" y="-160.8156" font-family="Times,serif" font-size="14.00" fill="#000000">sites.healthReg = &quot;CSC&quot;</text>
</g>
<!-- samples__siteID_siteID__sites_join_Has_Rows&#45;&gt;samples__siteID_siteID__sites_where -->
<g id="edge7" class="edge">
<title>samples__siteID_siteID__sites_join_Has_Rows&#45;&gt;samples__siteID_siteID__sites_where</title>
<path fill="none" stroke="#000000" d="M149.0208,-239.141C144.051,-231.0124 137.9524,-221.0375 132.0221,-211.3379"/>
<polygon fill="#000000" stroke="#000000" points="134.8629,-209.2745 126.6605,-202.5684 128.8907,-212.9259 134.8629,-209.2745"/>
</g>
<!-- samples__siteID_siteID__sites_where_Has_Rows -->
<g id="node9" class="node">
<title>samples__siteID_siteID__sites_where_Has_Rows</title>
<ellipse fill="none" stroke="#000000" cx="108.8366" cy="-90" rx="47.4704" ry="18"/>
<text text-anchor="middle" x="108.8366" y="-85.8" font-family="Times,serif" font-size="14.00" fill="#000000">Has rows</text>
</g>
<!-- samples__siteID_siteID__sites_where&#45;&gt;samples__siteID_siteID__sites_where_Has_Rows -->
<g id="edge8" class="edge">
<title>samples__siteID_siteID__sites_where&#45;&gt;samples__siteID_siteID__sites_where_Has_Rows</title>
<path fill="none" stroke="#000000" d="M108.8366,-143.7715C108.8366,-135.5664 108.8366,-126.6796 108.8366,-118.5388"/>
<polygon fill="#000000" stroke="#000000" points="112.3367,-118.3865 108.8366,-108.3866 105.3367,-118.3866 112.3367,-118.3865"/>
</g>
<!-- samples__siteID_siteID__sites_where_No_Rows -->
<g id="node11" class="node">
<title>samples__siteID_siteID__sites_where_No_Rows</title>
<ellipse fill="none" stroke="#000000" cx="229.8366" cy="-90" rx="44.0415" ry="18"/>
<text text-anchor="middle" x="229.8366" y="-85.8" font-family="Times,serif" font-size="14.00" fill="#000000">No rows</text>
</g>
<!-- samples__siteID_siteID__sites_where&#45;&gt;samples__siteID_siteID__sites_where_No_Rows -->
<g id="edge10" class="edge">
<title>samples__siteID_siteID__sites_where&#45;&gt;samples__siteID_siteID__sites_where_No_Rows</title>
<path fill="none" stroke="#000000" d="M148.7919,-145.8711C165.0192,-134.6842 183.484,-121.9548 198.6861,-111.4747"/>
<polygon fill="#000000" stroke="#000000" points="200.9716,-114.1502 207.2183,-105.5928 196.9985,-108.387 200.9716,-114.1502"/>
</g>
<!-- granted -->
<g id="node10" class="node">
<title>granted</title>
<ellipse fill="none" stroke="#000000" cx="108.8366" cy="-18" rx="71.7874" ry="18"/>
<text text-anchor="middle" x="108.8366" y="-13.8" font-family="Times,serif" font-size="14.00" fill="#000000">Access Granted</text>
</g>
<!-- samples__siteID_siteID__sites_where_Has_Rows&#45;&gt;granted -->
<g id="edge9" class="edge">
<title>samples__siteID_siteID__sites_where_Has_Rows&#45;&gt;granted</title>
<path fill="none" stroke="#000000" d="M108.8366,-71.8314C108.8366,-64.131 108.8366,-54.9743 108.8366,-46.4166"/>
<polygon fill="#000000" stroke="#000000" points="112.3367,-46.4132 108.8366,-36.4133 105.3367,-46.4133 112.3367,-46.4132"/>
</g>
<!-- denied -->
<g id="node12" class="node">
<title>denied</title>
<ellipse fill="none" stroke="#000000" cx="329.8366" cy="-18" rx="68.8581" ry="18"/>
<text text-anchor="middle" x="329.8366" y="-13.8" font-family="Times,serif" font-size="14.00" fill="#000000">Access Denied</text>
</g>
<!-- samples__siteID_siteID__sites_where_No_Rows&#45;&gt;denied -->
<g id="edge11" class="edge">
<title>samples__siteID_siteID__sites_where_No_Rows&#45;&gt;denied</title>
<path fill="none" stroke="#000000" d="M252.0298,-74.0209C265.498,-64.3238 282.9128,-51.7851 297.8513,-41.0294"/>
<polygon fill="#000000" stroke="#000000" points="300.2418,-43.6211 306.3121,-34.9377 296.1516,-37.9404 300.2418,-43.6211"/>
</g>
<!-- samples__siteID_siteID__sites_join_No_Rows&#45;&gt;denied -->
<g id="edge13" class="edge">
<title>samples__siteID_siteID__sites_join_No_Rows&#45;&gt;denied</title>
<path fill="none" stroke="#000000" d="M285.6701,-155.2833C294.3637,-128.2609 310.7853,-77.2175 320.9703,-45.5593"/>
<polygon fill="#000000" stroke="#000000" points="324.3094,-46.6082 324.0403,-36.0168 317.6458,-44.4644 324.3094,-46.6082"/>
</g>
<!-- sites__siteID_siteID__samples_join_No_Rows&#45;&gt;denied -->
<g id="edge15" class="edge">
<title>sites__siteID_siteID__samples_join_No_Rows&#45;&gt;denied</title>
<path fill="none" stroke="#000000" d="M334.7491,-334.0297C334.5552,-297.9032 334.0108,-214.2722 332.8366,-144 332.2768,-110.4991 331.3134,-71.9951 330.6294,-46.4589"/>
<polygon fill="#000000" stroke="#000000" points="334.1255,-46.2626 330.3554,-36.3612 327.1281,-46.4525 334.1255,-46.2626"/>
</g>
<!-- sites_where_No_Rows&#45;&gt;denied -->
<g id="edge17" class="edge">
<title>sites_where_No_Rows&#45;&gt;denied</title>
<path fill="none" stroke="#000000" d="M406.8366,-524.5841C406.8366,-490.7054 406.8366,-415.4909 406.8366,-352.1263 406.8366,-352.1263 406.8366,-352.1263 406.8366,-173.4156 406.8366,-123.5357 374.5973,-73.1355 351.8405,-43.7727"/>
<polygon fill="#000000" stroke="#000000" points="354.3877,-41.3529 345.4187,-35.713 348.913,-45.715 354.3877,-41.3529"/>
</g>
</g>
</svg>
