<?xml version="1.0" encoding="UTF-8" standalone="no"?>
<!DOCTYPE svg PUBLIC "-//W3C//DTD SVG 1.1//EN"
 "http://www.w3.org/Graphics/SVG/1.1/DTD/svg11.dtd">
<!-- Generated by graphviz version 2.40.1 (20161225.0304)
 -->
<!-- Title: G Pages: 1 -->
<svg width="478pt" height="855pt"
 viewBox="0.00 0.00 478.04 854.60" xmlns="http://www.w3.org/2000/svg" xmlns:xlink="http://www.w3.org/1999/xlink">
<g id="graph0" class="graph" transform="scale(1 1) rotate(0) translate(4 850.6015)">
<title>G</title>
<polygon fill="#ffffff" stroke="transparent" points="-4,4 -4,-850.6015 474.0415,-850.6015 474.0415,4 -4,4"/>
<!-- addresses -->
<g id="node1" class="node">
<title>addresses</title>
<ellipse fill="none" stroke="#000000" cx="337.0208" cy="-828.6015" rx="48.0703" ry="18"/>
<text text-anchor="middle" x="337.0208" y="-824.4015" font-family="Times,serif" font-size="14.00" fill="#000000">addresses</text>
</g>
<!-- addresses__addID_addID__sites_join -->
<g id="node2" class="node">
<title>addresses__addID_addID__sites_join</title>
<ellipse fill="none" stroke="#000000" cx="337.0208" cy="-733.3065" rx="78.8882" ry="41.0911"/>
<text text-anchor="middle" x="337.0208" y="-745.9065" font-family="Times,serif" font-size="14.00" fill="#000000">LEFT JOIN sites</text>
<text text-anchor="middle" x="337.0208" y="-729.1065" font-family="Times,serif" font-size="14.00" fill="#000000">At level: 3</text>
<text text-anchor="middle" x="337.0208" y="-712.3065" font-family="Times,serif" font-size="14.00" fill="#000000">Required: false</text>
</g>
<!-- addresses&#45;&gt;addresses__addID_addID__sites_join -->
<g id="edge1" class="edge">
<title>addresses&#45;&gt;addresses__addID_addID__sites_join</title>
<path fill="none" stroke="#000000" d="M337.0208,-810.2277C337.0208,-802.9185 337.0208,-794.1089 337.0208,-785.1001"/>
<polygon fill="#000000" stroke="#000000" points="340.5209,-784.9136 337.0208,-774.9136 333.5209,-784.9137 340.5209,-784.9136"/>
</g>
<!-- addresses__addID_addID__sites_join_Has_Rows -->
<g id="node3" class="node">
<title>addresses__addID_addID__sites_join_Has_Rows</title>
<ellipse fill="none" stroke="#000000" cx="300.0208" cy="-638.0114" rx="47.4704" ry="18"/>
<text text-anchor="middle" x="300.0208" y="-633.8114" font-family="Times,serif" font-size="14.00" fill="#000000">Has rows</text>
</g>
<!-- addresses__addID_addID__sites_join&#45;&gt;addresses__addID_addID__sites_join_Has_Rows -->
<g id="edge2" class="edge">
<title>addresses__addID_addID__sites_join&#45;&gt;addresses__addID_addID__sites_join_Has_Rows</title>
<path fill="none" stroke="#000000" d="M321.2221,-692.6164C317.6645,-683.4537 313.9707,-673.9402 310.6823,-665.4707"/>
<polygon fill="#000000" stroke="#000000" points="313.9229,-664.1467 307.0407,-656.0916 307.3975,-666.6804 313.9229,-664.1467"/>
</g>
<!-- addresses__addID_addID__sites_join_No_Rows -->
<g id="node15" class="node">
<title>addresses__addID_addID__sites_join_No_Rows</title>
<ellipse fill="none" stroke="#000000" cx="426.0208" cy="-542.7164" rx="44.0415" ry="18"/>
<text text-anchor="middle" x="426.0208" y="-538.5164" font-family="Times,serif" font-size="14.00" fill="#000000">No rows</text>
</g>
<!-- addresses__addID_addID__sites_join&#45;&gt;addresses__addID_addID__sites_join_No_Rows -->
<g id="edge16" class="edge">
<title>addresses__addID_addID__sites_join&#45;&gt;addresses__addID_addID__sites_join_No_Rows</title>
<path fill="none" stroke="#000000" d="M355.8954,-692.8872C373.1899,-655.8517 398.3178,-602.0413 413.3289,-569.8955"/>
<polygon fill="#000000" stroke="#000000" points="416.583,-571.1991 417.6429,-560.6574 410.2404,-568.2372 416.583,-571.1991"/>
</g>
<!-- sites__siteID_siteID__samples_join -->
<g id="node4" class="node">
<title>sites__siteID_siteID__samples_join</title>
<ellipse fill="none" stroke="#000000" cx="210.0208" cy="-542.7164" rx="93.4765" ry="41.0911"/>
<text text-anchor="middle" x="210.0208" y="-555.3164" font-family="Times,serif" font-size="14.00" fill="#000000">LEFT JOIN samples</text>
<text text-anchor="middle" x="210.0208" y="-538.5164" font-family="Times,serif" font-size="14.00" fill="#000000">At level: 2</text>
<text text-anchor="middle" x="210.0208" y="-521.7164" font-family="Times,serif" font-size="14.00" fill="#000000">Required: true</text>
</g>
<!-- addresses__addID_addID__sites_join_Has_Rows&#45;&gt;sites__siteID_siteID__samples_join -->
<g id="edge3" class="edge">
<title>addresses__addID_addID__sites_join_Has_Rows&#45;&gt;sites__siteID_siteID__samples_join</title>
<path fill="none" stroke="#000000" d="M283.9306,-620.9746C275.3036,-611.8401 264.2184,-600.1026 253.2714,-588.5116"/>
<polygon fill="#000000" stroke="#000000" points="255.5356,-585.8116 246.1248,-580.9446 250.4465,-590.618 255.5356,-585.8116"/>
</g>
<!-- sites__siteID_siteID__samples_join_Has_Rows -->
<g id="node5" class="node">
<title>sites__siteID_siteID__samples_join_Has_Rows</title>
<ellipse fill="none" stroke="#000000" cx="210.0208" cy="-447.4214" rx="47.4704" ry="18"/>
<text text-anchor="middle" x="210.0208" y="-443.2214" font-family="Times,serif" font-size="14.00" fill="#000000">Has rows</text>
</g>
<!-- sites__siteID_siteID__samples_join&#45;&gt;sites__siteID_siteID__samples_join_Has_Rows -->
<g id="edge4" class="edge">
<title>sites__siteID_siteID__samples_join&#45;&gt;sites__siteID_siteID__samples_join_Has_Rows</title>
<path fill="none" stroke="#000000" d="M210.0208,-501.1958C210.0208,-492.6442 210.0208,-483.8248 210.0208,-475.8643"/>
<polygon fill="#000000" stroke="#000000" points="213.5209,-475.6472 210.0208,-465.6473 206.5209,-475.6473 213.5209,-475.6472"/>
</g>
<!-- sites__siteID_siteID__samples_join_No_Rows -->
<g id="node14" class="node">
<title>sites__siteID_siteID__samples_join_No_Rows</title>
<ellipse fill="none" stroke="#000000" cx="44.0208" cy="-352.1263" rx="44.0415" ry="18"/>
<text text-anchor="middle" x="44.0208" y="-347.9263" font-family="Times,serif" font-size="14.00" fill="#000000">No rows</text>
</g>
<!-- sites__siteID_siteID__samples_join&#45;&gt;sites__siteID_siteID__samples_join_No_Rows -->
<g id="edge14" class="edge">
<title>sites__siteID_siteID__samples_join&#45;&gt;sites__siteID_siteID__samples_join_No_Rows</title>
<path fill="none" stroke="#000000" d="M176.4282,-504.1476C143.4151,-466.2442 94.0058,-409.5158 65.8112,-377.1447"/>
<polygon fill="#000000" stroke="#000000" points="68.3303,-374.7079 59.1231,-369.4658 63.0517,-379.3054 68.3303,-374.7079"/>
</g>
<!-- samples__dataID_dataID__datasets_join -->
<g id="node6" class="node">
<title>samples__dataID_dataID__datasets_join</title>
<ellipse fill="none" stroke="#000000" cx="210.0208" cy="-352.1263" rx="92.8656" ry="41.0911"/>
<text text-anchor="middle" x="210.0208" y="-364.7263" font-family="Times,serif" font-size="14.00" fill="#000000">LEFT JOIN datasets</text>
<text text-anchor="middle" x="210.0208" y="-347.9263" font-family="Times,serif" font-size="14.00" fill="#000000">At level: 1</text>
<text text-anchor="middle" x="210.0208" y="-331.1263" font-family="Times,serif" font-size="14.00" fill="#000000">Required: true</text>
</g>
<!-- sites__siteID_siteID__samples_join_Has_Rows&#45;&gt;samples__dataID_dataID__datasets_join -->
<g id="edge5" class="edge">
<title>sites__siteID_siteID__samples_join_Has_Rows&#45;&gt;samples__dataID_dataID__datasets_join</title>
<path fill="none" stroke="#000000" d="M210.0208,-429.0475C210.0208,-421.7384 210.0208,-412.9288 210.0208,-403.92"/>
<polygon fill="#000000" stroke="#000000" points="213.5209,-403.7335 210.0208,-393.7335 206.5209,-403.7335 213.5209,-403.7335"/>
</g>
<!-- samples__dataID_dataID__datasets_join_Has_Rows -->
<g id="node7" class="node">
<title>samples__dataID_dataID__datasets_join_Has_Rows</title>
<ellipse fill="none" stroke="#000000" cx="245.0208" cy="-256.8313" rx="47.4704" ry="18"/>
<text text-anchor="middle" x="245.0208" y="-252.6313" font-family="Times,serif" font-size="14.00" fill="#000000">Has rows</text>
</g>
<!-- samples__dataID_dataID__datasets_join&#45;&gt;samples__dataID_dataID__datasets_join_Has_Rows -->
<g id="edge6" class="edge">
<title>samples__dataID_dataID__datasets_join&#45;&gt;samples__dataID_dataID__datasets_join_Has_Rows</title>
<path fill="none" stroke="#000000" d="M225.067,-311.1596C228.3864,-302.1219 231.8259,-292.7571 234.8951,-284.4007"/>
<polygon fill="#000000" stroke="#000000" points="238.2598,-285.3911 238.4221,-274.7975 231.689,-282.9777 238.2598,-285.3911"/>
</g>
<!-- samples__dataID_dataID__datasets_join_No_Rows -->
<g id="node13" class="node">
<title>samples__dataID_dataID__datasets_join_No_Rows</title>
<ellipse fill="none" stroke="#000000" cx="94.0208" cy="-173.4156" rx="44.0415" ry="18"/>
<text text-anchor="middle" x="94.0208" y="-169.2156" font-family="Times,serif" font-size="14.00" fill="#000000">No rows</text>
</g>
<!-- samples__dataID_dataID__datasets_join&#45;&gt;samples__dataID_dataID__datasets_join_No_Rows -->
<g id="edge12" class="edge">
<title>samples__dataID_dataID__datasets_join&#45;&gt;samples__dataID_dataID__datasets_join_No_Rows</title>
<path fill="none" stroke="#000000" d="M183.9881,-312.0202C161.7109,-277.6997 130.2837,-229.2827 111.0783,-199.6946"/>
<polygon fill="#000000" stroke="#000000" points="113.9144,-197.6354 105.534,-191.1531 108.0428,-201.4466 113.9144,-197.6354"/>
</g>
<!-- samples__dataID_dataID__datasets_where -->
<g id="node8" class="node">
<title>samples__dataID_dataID__datasets_where</title>
<ellipse fill="none" stroke="#000000" cx="280.0208" cy="-173.4156" rx="124.4353" ry="29.3315"/>
<text text-anchor="middle" x="280.0208" y="-177.6156" font-family="Times,serif" font-size="14.00" fill="#000000">WHERE</text>
<text text-anchor="middle" x="280.0208" y="-160.8156" font-family="Times,serif" font-size="14.00" fill="#000000">datasets.dataID = &quot;BCCDC&quot;</text>
</g>
<!-- samples__dataID_dataID__datasets_join_Has_Rows&#45;&gt;samples__dataID_dataID__datasets_where -->
<g id="edge7" class="edge">
<title>samples__dataID_dataID__datasets_join_Has_Rows&#45;&gt;samples__dataID_dataID__datasets_where</title>
<path fill="none" stroke="#000000" d="M252.6152,-238.7313C255.8682,-230.9786 259.802,-221.6032 263.6615,-212.4049"/>
<polygon fill="#000000" stroke="#000000" points="266.9832,-213.5342 267.6249,-202.9588 260.5283,-210.8258 266.9832,-213.5342"/>
</g>
<!-- samples__dataID_dataID__datasets_where_Has_Rows -->
<g id="node9" class="node">
<title>samples__dataID_dataID__datasets_where_Has_Rows</title>
<ellipse fill="none" stroke="#000000" cx="318.0208" cy="-90" rx="47.4704" ry="18"/>
<text text-anchor="middle" x="318.0208" y="-85.8" font-family="Times,serif" font-size="14.00" fill="#000000">Has rows</text>
</g>
<!-- samples__dataID_dataID__datasets_where&#45;&gt;samples__dataID_dataID__datasets_where_Has_Rows -->
<g id="edge8" class="edge">
<title>samples__dataID_dataID__datasets_where&#45;&gt;samples__dataID_dataID__datasets_where_Has_Rows</title>
<path fill="none" stroke="#000000" d="M293.5251,-143.7715C297.493,-135.0615 301.8107,-125.5834 305.7005,-117.0449"/>
<polygon fill="#000000" stroke="#000000" points="308.9082,-118.446 309.8688,-107.8947 302.5381,-115.544 308.9082,-118.446"/>
</g>
<!-- samples__dataID_dataID__datasets_where_No_Rows -->
<g id="node11" class="node">
<title>samples__dataID_dataID__datasets_where_No_Rows</title>
<ellipse fill="none" stroke="#000000" cx="207.0208" cy="-90" rx="44.0415" ry="18"/>
<text text-anchor="middle" x="207.0208" y="-85.8" font-family="Times,serif" font-size="14.00" fill="#000000">No rows</text>
</g>
<!-- samples__dataID_dataID__datasets_where&#45;&gt;samples__dataID_dataID__datasets_where_No_Rows -->
<g id="edge10" class="edge">
<title>samples__dataID_dataID__datasets_where&#45;&gt;samples__dataID_dataID__datasets_where_No_Rows</title>
<path fill="none" stroke="#000000" d="M254.4889,-144.2409C246.0937,-134.6478 236.845,-124.0795 228.7588,-114.8396"/>
<polygon fill="#000000" stroke="#000000" points="231.2222,-112.3398 222.0027,-107.1195 225.9545,-116.9498 231.2222,-112.3398"/>
</g>
<!-- granted -->
<g id="node10" class="node">
<title>granted</title>
<ellipse fill="none" stroke="#000000" cx="375.0208" cy="-18" rx="71.7874" ry="18"/>
<text text-anchor="middle" x="375.0208" y="-13.8" font-family="Times,serif" font-size="14.00" fill="#000000">Access Granted</text>
</g>
<!-- samples__dataID_dataID__datasets_where_Has_Rows&#45;&gt;granted -->
<g id="edge9" class="edge">
<title>samples__dataID_dataID__datasets_where_Has_Rows&#45;&gt;granted</title>
<path fill="none" stroke="#000000" d="M331.8189,-72.5708C338.6484,-63.9441 347.0289,-53.3582 354.5852,-43.8134"/>
<polygon fill="#000000" stroke="#000000" points="357.4908,-45.7818 360.9537,-35.7689 352.0025,-41.4369 357.4908,-45.7818"/>
</g>
<!-- denied -->
<g id="node12" class="node">
<title>denied</title>
<ellipse fill="none" stroke="#000000" cx="94.0208" cy="-18" rx="68.8581" ry="18"/>
<text text-anchor="middle" x="94.0208" y="-13.8" font-family="Times,serif" font-size="14.00" fill="#000000">Access Denied</text>
</g>
<!-- samples__dataID_dataID__datasets_where_No_Rows&#45;&gt;denied -->
<g id="edge11" class="edge">
<title>samples__dataID_dataID__datasets_where_No_Rows&#45;&gt;denied</title>
<path fill="none" stroke="#000000" d="M183.0564,-74.7307C167.3884,-64.7475 146.6568,-51.538 129.1409,-40.3774"/>
<polygon fill="#000000" stroke="#000000" points="130.6325,-37.1778 120.3182,-34.7559 126.871,-43.0813 130.6325,-37.1778"/>
</g>
<!-- samples__dataID_dataID__datasets_join_No_Rows&#45;&gt;denied -->
<g id="edge13" class="edge">
<title>samples__dataID_dataID__datasets_join_No_Rows&#45;&gt;denied</title>
<path fill="none" stroke="#000000" d="M94.0208,-155.2833C94.0208,-128.4948 94.0208,-78.0995 94.0208,-46.3859"/>
<polygon fill="#000000" stroke="#000000" points="97.5209,-46.0168 94.0208,-36.0168 90.5209,-46.0169 97.5209,-46.0168"/>
</g>
<!-- sites__siteID_siteID__samples_join_No_Rows&#45;&gt;denied -->
<g id="edge15" class="edge">
<title>sites__siteID_siteID__samples_join_No_Rows&#45;&gt;denied</title>
<path fill="none" stroke="#000000" d="M41.2171,-334.0727C36.1199,-297.6766 27.0845,-213.0749 41.0208,-144 48.2622,-108.1082 66.0265,-69.7119 78.9992,-44.8672"/>
<polygon fill="#000000" stroke="#000000" points="82.0881,-46.513 83.7046,-36.0422 75.9112,-43.2196 82.0881,-46.513"/>
</g>
<!-- addresses__addID_addID__sites_join_No_Rows&#45;&gt;granted -->
<g id="edge17" class="edge">
<title>addresses__addID_addID__sites_join_No_Rows&#45;&gt;granted</title>
<path fill="none" stroke="#000000" d="M426.9715,-524.59C428.6633,-490.7212 432.0208,-415.5223 432.0208,-352.1263 432.0208,-352.1263 432.0208,-352.1263 432.0208,-173.4156 432.0208,-125.9587 408.3048,-75.0607 391.4681,-44.9063"/>
<polygon fill="#000000" stroke="#000000" points="394.2972,-42.8044 386.2821,-35.8755 388.2268,-46.2903 394.2972,-42.8044"/>
</g>
</g>
</svg>
