<?xml version="1.0" encoding="UTF-8" standalone="no"?>
<!DOCTYPE svg PUBLIC "-//W3C//DTD SVG 1.1//EN"
 "http://www.w3.org/Graphics/SVG/1.1/DTD/svg11.dtd">
<!-- Generated by graphviz version 2.40.1 (20161225.0304)
 -->
<!-- Title: G Pages: 1 -->
<svg width="879pt" height="473pt"
 viewBox="0.00 0.00 879.26 473.42" xmlns="http://www.w3.org/2000/svg" xmlns:xlink="http://www.w3.org/1999/xlink">
<g id="graph0" class="graph" transform="scale(1 1) rotate(0) translate(4 469.4214)">
<title>G</title>
<polygon fill="#ffffff" stroke="transparent" points="-4,4 -4,-469.4214 875.2554,-469.4214 875.2554,4 -4,4"/>
<!-- allSites -->
<g id="node1" class="node">
<title>allSites</title>
<ellipse fill="none" stroke="#000000" cx="445.2346" cy="-447.4214" rx="39.437" ry="18"/>
<text text-anchor="middle" x="445.2346" y="-443.2214" font-family="Times,serif" font-size="14.00" fill="#000000">allSites</text>
</g>
<!-- allSites__dataID_dataID__datasets_join -->
<g id="node2" class="node">
<title>allSites__dataID_dataID__datasets_join</title>
<ellipse fill="none" stroke="#000000" cx="561.2346" cy="-352.1263" rx="92.8656" ry="41.0911"/>
<text text-anchor="middle" x="561.2346" y="-364.7263" font-family="Times,serif" font-size="14.00" fill="#000000">LEFT JOIN datasets</text>
<text text-anchor="middle" x="561.2346" y="-347.9263" font-family="Times,serif" font-size="14.00" fill="#000000">At level: 1</text>
<text text-anchor="middle" x="561.2346" y="-331.1263" font-family="Times,serif" font-size="14.00" fill="#000000">Required: true</text>
</g>
<!-- allSites&#45;&gt;allSites__dataID_dataID__datasets_join -->
<g id="edge1" class="edge">
<title>allSites&#45;&gt;allSites__dataID_dataID__datasets_join</title>
<path fill="none" stroke="#000000" d="M464.6504,-431.4711C476.7335,-421.5448 492.9054,-408.2594 508.5561,-395.4022"/>
<polygon fill="#000000" stroke="#000000" points="511.1633,-397.79 516.6685,-388.7378 506.7198,-392.3811 511.1633,-397.79"/>
</g>
<!-- allSites__healthReg_healthReg__sites_join -->
<g id="node10" class="node">
<title>allSites__healthReg_healthReg__sites_join</title>
<ellipse fill="none" stroke="#000000" cx="329.2346" cy="-352.1263" rx="78.8882" ry="41.0911"/>
<text text-anchor="middle" x="329.2346" y="-364.7263" font-family="Times,serif" font-size="14.00" fill="#000000">LEFT JOIN sites</text>
<text text-anchor="middle" x="329.2346" y="-347.9263" font-family="Times,serif" font-size="14.00" fill="#000000">At level: 1</text>
<text text-anchor="middle" x="329.2346" y="-331.1263" font-family="Times,serif" font-size="14.00" fill="#000000">Required: true</text>
</g>
<!-- allSites&#45;&gt;allSites__healthReg_healthReg__sites_join -->
<g id="edge10" class="edge">
<title>allSites&#45;&gt;allSites__healthReg_healthReg__sites_join</title>
<path fill="none" stroke="#000000" d="M425.8188,-431.4711C413.1815,-421.0894 396.0716,-407.0335 379.7631,-393.6359"/>
<polygon fill="#000000" stroke="#000000" points="381.7933,-390.7741 371.8446,-387.1308 377.3498,-396.183 381.7933,-390.7741"/>
</g>
<!-- allSites__dataID_dataID__datasets_join_Has_Rows -->
<g id="node3" class="node">
<title>allSites__dataID_dataID__datasets_join_Has_Rows</title>
<ellipse fill="none" stroke="#000000" cx="561.2346" cy="-256.8313" rx="47.4704" ry="18"/>
<text text-anchor="middle" x="561.2346" y="-252.6313" font-family="Times,serif" font-size="14.00" fill="#000000">Has rows</text>
</g>
<!-- allSites__dataID_dataID__datasets_join&#45;&gt;allSites__dataID_dataID__datasets_join_Has_Rows -->
<g id="edge2" class="edge">
<title>allSites__dataID_dataID__datasets_join&#45;&gt;allSites__dataID_dataID__datasets_join_Has_Rows</title>
<path fill="none" stroke="#000000" d="M561.2346,-310.6057C561.2346,-302.0541 561.2346,-293.2347 561.2346,-285.2742"/>
<polygon fill="#000000" stroke="#000000" points="564.7347,-285.0572 561.2346,-275.0572 557.7347,-285.0572 564.7347,-285.0572"/>
</g>
<!-- allSites__dataID_dataID__datasets_join_No_Rows -->
<g id="node9" class="node">
<title>allSites__dataID_dataID__datasets_join_No_Rows</title>
<ellipse fill="none" stroke="#000000" cx="827.2346" cy="-173.4156" rx="44.0415" ry="18"/>
<text text-anchor="middle" x="827.2346" y="-169.2156" font-family="Times,serif" font-size="14.00" fill="#000000">No rows</text>
</g>
<!-- allSites__dataID_dataID__datasets_join&#45;&gt;allSites__dataID_dataID__datasets_join_No_Rows -->
<g id="edge8" class="edge">
<title>allSites__dataID_dataID__datasets_join&#45;&gt;allSites__dataID_dataID__datasets_join_No_Rows</title>
<path fill="none" stroke="#000000" d="M612.5221,-317.6691C666.7296,-281.25 750.5048,-224.9662 795.7164,-194.591"/>
<polygon fill="#000000" stroke="#000000" points="797.8756,-197.3569 804.2243,-188.875 793.9718,-191.5465 797.8756,-197.3569"/>
</g>
<!-- allSites__dataID_dataID__datasets_where -->
<g id="node4" class="node">
<title>allSites__dataID_dataID__datasets_where</title>
<ellipse fill="none" stroke="#000000" cx="561.2346" cy="-173.4156" rx="204.088" ry="29.3315"/>
<text text-anchor="middle" x="561.2346" y="-177.6156" font-family="Times,serif" font-size="14.00" fill="#000000">WHERE IN</text>
<text text-anchor="middle" x="561.2346" y="-160.8156" font-family="Times,serif" font-size="14.00" fill="#000000">datasets.dataID = [&quot;BCCDC&quot;,&quot;NML&#45;WWPCR&quot;]</text>
</g>
<!-- allSites__dataID_dataID__datasets_join_Has_Rows&#45;&gt;allSites__dataID_dataID__datasets_where -->
<g id="edge3" class="edge">
<title>allSites__dataID_dataID__datasets_join_Has_Rows&#45;&gt;allSites__dataID_dataID__datasets_where</title>
<path fill="none" stroke="#000000" d="M561.2346,-238.7313C561.2346,-231.1418 561.2346,-221.9972 561.2346,-212.986"/>
<polygon fill="#000000" stroke="#000000" points="564.7347,-212.9587 561.2346,-202.9588 557.7347,-212.9588 564.7347,-212.9587"/>
</g>
<!-- allSites__dataID_dataID__datasets_where_Has_Rows -->
<g id="node5" class="node">
<title>allSites__dataID_dataID__datasets_where_Has_Rows</title>
<ellipse fill="none" stroke="#000000" cx="265.2346" cy="-90" rx="47.4704" ry="18"/>
<text text-anchor="middle" x="265.2346" y="-85.8" font-family="Times,serif" font-size="14.00" fill="#000000">Has rows</text>
</g>
<!-- allSites__dataID_dataID__datasets_where&#45;&gt;allSites__dataID_dataID__datasets_where_Has_Rows -->
<g id="edge4" class="edge">
<title>allSites__dataID_dataID__datasets_where&#45;&gt;allSites__dataID_dataID__datasets_where_Has_Rows</title>
<path fill="none" stroke="#000000" d="M467.9846,-147.1369C416.5271,-132.6357 354.7905,-115.2377 313.0673,-103.4797"/>
<polygon fill="#000000" stroke="#000000" points="314.0086,-100.1087 303.4341,-100.765 312.1098,-106.8463 314.0086,-100.1087"/>
</g>
<!-- allSites__dataID_dataID__datasets_where_No_Rows -->
<g id="node7" class="node">
<title>allSites__dataID_dataID__datasets_where_No_Rows</title>
<ellipse fill="none" stroke="#000000" cx="481.2346" cy="-90" rx="44.0415" ry="18"/>
<text text-anchor="middle" x="481.2346" y="-85.8" font-family="Times,serif" font-size="14.00" fill="#000000">No rows</text>
</g>
<!-- allSites__dataID_dataID__datasets_where&#45;&gt;allSites__dataID_dataID__datasets_where_No_Rows -->
<g id="edge6" class="edge">
<title>allSites__dataID_dataID__datasets_where&#45;&gt;allSites__dataID_dataID__datasets_where_No_Rows</title>
<path fill="none" stroke="#000000" d="M533.2545,-144.2409C523.9613,-134.5509 513.7138,-123.8659 504.7889,-114.56"/>
<polygon fill="#000000" stroke="#000000" points="507.101,-111.9142 497.6531,-107.1195 502.0489,-116.7595 507.101,-111.9142"/>
</g>
<!-- granted -->
<g id="node6" class="node">
<title>granted</title>
<ellipse fill="none" stroke="#000000" cx="184.2346" cy="-18" rx="71.7874" ry="18"/>
<text text-anchor="middle" x="184.2346" y="-13.8" font-family="Times,serif" font-size="14.00" fill="#000000">Access Granted</text>
</g>
<!-- allSites__dataID_dataID__datasets_where_Has_Rows&#45;&gt;granted -->
<g id="edge5" class="edge">
<title>allSites__dataID_dataID__datasets_where_Has_Rows&#45;&gt;granted</title>
<path fill="none" stroke="#000000" d="M246.448,-73.3008C236.0436,-64.0525 222.9249,-52.3914 211.4194,-42.1643"/>
<polygon fill="#000000" stroke="#000000" points="213.5644,-39.3881 203.765,-35.3603 208.9138,-44.62 213.5644,-39.3881"/>
</g>
<!-- denied -->
<g id="node8" class="node">
<title>denied</title>
<ellipse fill="none" stroke="#000000" cx="410.2346" cy="-18" rx="68.8581" ry="18"/>
<text text-anchor="middle" x="410.2346" y="-13.8" font-family="Times,serif" font-size="14.00" fill="#000000">Access Denied</text>
</g>
<!-- allSites__dataID_dataID__datasets_where_No_Rows&#45;&gt;denied -->
<g id="edge7" class="edge">
<title>allSites__dataID_dataID__datasets_where_No_Rows&#45;&gt;denied</title>
<path fill="none" stroke="#000000" d="M464.7673,-73.3008C455.8881,-64.2965 444.7536,-53.0052 434.8646,-42.9769"/>
<polygon fill="#000000" stroke="#000000" points="437.1168,-40.276 427.6032,-35.6132 432.1325,-45.1911 437.1168,-40.276"/>
</g>
<!-- allSites__dataID_dataID__datasets_join_No_Rows&#45;&gt;denied -->
<g id="edge9" class="edge">
<title>allSites__dataID_dataID__datasets_join_No_Rows&#45;&gt;denied</title>
<path fill="none" stroke="#000000" d="M802.3501,-158.437C793.6255,-153.5012 783.6515,-148.2049 774.2346,-144 668.5308,-96.8002 539.3423,-55.8201 466.7631,-34.2303"/>
<polygon fill="#000000" stroke="#000000" points="467.488,-30.7949 456.9059,-31.314 465.502,-37.5073 467.488,-30.7949"/>
</g>
<!-- allSites__healthReg_healthReg__sites_join_Has_Rows -->
<g id="node11" class="node">
<title>allSites__healthReg_healthReg__sites_join_Has_Rows</title>
<ellipse fill="none" stroke="#000000" cx="194.2346" cy="-256.8313" rx="47.4704" ry="18"/>
<text text-anchor="middle" x="194.2346" y="-252.6313" font-family="Times,serif" font-size="14.00" fill="#000000">Has rows</text>
</g>
<!-- allSites__healthReg_healthReg__sites_join&#45;&gt;allSites__healthReg_healthReg__sites_join_Has_Rows -->
<g id="edge11" class="edge">
<title>allSites__healthReg_healthReg__sites_join&#45;&gt;allSites__healthReg_healthReg__sites_join_Has_Rows</title>
<path fill="none" stroke="#000000" d="M282.0182,-318.7967C263.241,-305.5421 242.1552,-290.6579 225.3562,-278.7997"/>
<polygon fill="#000000" stroke="#000000" points="227.1852,-275.8066 216.9971,-272.8991 223.1484,-281.5254 227.1852,-275.8066"/>
</g>
<!-- allSites__healthReg_healthReg__sites_join_No_Rows -->
<g id="node15" class="node">
<title>allSites__healthReg_healthReg__sites_join_No_Rows</title>
<ellipse fill="none" stroke="#000000" cx="329.2346" cy="-256.8313" rx="44.0415" ry="18"/>
<text text-anchor="middle" x="329.2346" y="-252.6313" font-family="Times,serif" font-size="14.00" fill="#000000">No rows</text>
</g>
<!-- allSites__healthReg_healthReg__sites_join&#45;&gt;allSites__healthReg_healthReg__sites_join_No_Rows -->
<g id="edge17" class="edge">
<title>allSites__healthReg_healthReg__sites_join&#45;&gt;allSites__healthReg_healthReg__sites_join_No_Rows</title>
<path fill="none" stroke="#000000" d="M329.2346,-310.6057C329.2346,-302.0541 329.2346,-293.2347 329.2346,-285.2742"/>
<polygon fill="#000000" stroke="#000000" points="332.7347,-285.0572 329.2346,-275.0572 325.7347,-285.0572 332.7347,-285.0572"/>
</g>
<!-- allSites__healthReg_healthReg__sites_where -->
<g id="node12" class="node">
<title>allSites__healthReg_healthReg__sites_where</title>
<ellipse fill="none" stroke="#000000" cx="156.2346" cy="-173.4156" rx="133.6073" ry="29.3315"/>
<text text-anchor="middle" x="156.2346" y="-177.6156" font-family="Times,serif" font-size="14.00" fill="#000000">WHERE</text>
<text text-anchor="middle" x="156.2346" y="-160.8156" font-family="Times,serif" font-size="14.00" fill="#000000">sites.healthReg = &quot;Vancouver&quot;</text>
</g>
<!-- allSites__healthReg_healthReg__sites_join_Has_Rows&#45;&gt;allSites__healthReg_healthReg__sites_where -->
<g id="edge12" class="edge">
<title>allSites__healthReg_healthReg__sites_join_Has_Rows&#45;&gt;allSites__healthReg_healthReg__sites_where</title>
<path fill="none" stroke="#000000" d="M185.9892,-238.7313C182.4202,-230.897 178.0964,-221.4056 173.8638,-212.1145"/>
<polygon fill="#000000" stroke="#000000" points="177.0237,-210.608 169.693,-202.9588 170.6536,-213.51 177.0237,-210.608"/>
</g>
<!-- allSites__healthReg_healthReg__sites_where_Has_Rows -->
<g id="node13" class="node">
<title>allSites__healthReg_healthReg__sites_where_Has_Rows</title>
<ellipse fill="none" stroke="#000000" cx="47.2346" cy="-90" rx="47.4704" ry="18"/>
<text text-anchor="middle" x="47.2346" y="-85.8" font-family="Times,serif" font-size="14.00" fill="#000000">Has rows</text>
</g>
<!-- allSites__healthReg_healthReg__sites_where&#45;&gt;allSites__healthReg_healthReg__sites_where_Has_Rows -->
<g id="edge13" class="edge">
<title>allSites__healthReg_healthReg__sites_where&#45;&gt;allSites__healthReg_healthReg__sites_where_Has_Rows</title>
<path fill="none" stroke="#000000" d="M119.0278,-144.942C105.1659,-134.3338 89.6389,-122.4512 76.5801,-112.4575"/>
<polygon fill="#000000" stroke="#000000" points="78.4658,-109.4934 68.3973,-106.1954 74.2116,-115.0523 78.4658,-109.4934"/>
</g>
<!-- allSites__healthReg_healthReg__sites_where_No_Rows -->
<g id="node14" class="node">
<title>allSites__healthReg_healthReg__sites_where_No_Rows</title>
<ellipse fill="none" stroke="#000000" cx="156.2346" cy="-90" rx="44.0415" ry="18"/>
<text text-anchor="middle" x="156.2346" y="-85.8" font-family="Times,serif" font-size="14.00" fill="#000000">No rows</text>
</g>
<!-- allSites__healthReg_healthReg__sites_where&#45;&gt;allSites__healthReg_healthReg__sites_where_No_Rows -->
<g id="edge15" class="edge">
<title>allSites__healthReg_healthReg__sites_where&#45;&gt;allSites__healthReg_healthReg__sites_where_No_Rows</title>
<path fill="none" stroke="#000000" d="M156.2346,-143.7715C156.2346,-135.5664 156.2346,-126.6796 156.2346,-118.5388"/>
<polygon fill="#000000" stroke="#000000" points="159.7347,-118.3865 156.2346,-108.3866 152.7347,-118.3866 159.7347,-118.3865"/>
</g>
<!-- allSites__healthReg_healthReg__sites_where_Has_Rows&#45;&gt;granted -->
<g id="edge14" class="edge">
<title>allSites__healthReg_healthReg__sites_where_Has_Rows&#45;&gt;granted</title>
<path fill="none" stroke="#000000" d="M75.2892,-75.256C95.0166,-64.8883 121.7167,-50.8561 143.7468,-39.2782"/>
<polygon fill="#000000" stroke="#000000" points="145.6447,-42.2348 152.8685,-34.4844 142.3882,-36.0384 145.6447,-42.2348"/>
</g>
<!-- allSites__healthReg_healthReg__sites_where_No_Rows&#45;&gt;denied -->
<g id="edge16" class="edge">
<title>allSites__healthReg_healthReg__sites_where_No_Rows&#45;&gt;denied</title>
<path fill="none" stroke="#000000" d="M189.7732,-78.243C196.2087,-76.0911 202.912,-73.9208 209.2346,-72 256.4052,-57.67 310.389,-43.2762 350.525,-32.9569"/>
<polygon fill="#000000" stroke="#000000" points="351.5989,-36.2949 360.4181,-30.4237 349.8624,-29.5137 351.5989,-36.2949"/>
</g>
<!-- allSites__healthReg_healthReg__sites_join_No_Rows&#45;&gt;denied -->
<g id="edge18" class="edge">
<title>allSites__healthReg_healthReg__sites_join_No_Rows&#45;&gt;denied</title>
<path fill="none" stroke="#000000" d="M330.6784,-238.4664C332.8318,-215.8111 337.8059,-176.3279 348.2346,-144 359.783,-108.2012 379.9319,-69.7858 394.1195,-44.9112"/>
<polygon fill="#000000" stroke="#000000" points="397.254,-46.4825 399.2349,-36.0745 391.1958,-42.9756 397.254,-46.4825"/>
</g>
</g>
</svg>
