<?xml version="1.0" encoding="UTF-8" standalone="no"?>
<!DOCTYPE svg PUBLIC "-//W3C//DTD SVG 1.1//EN"
 "http://www.w3.org/Graphics/SVG/1.1/DTD/svg11.dtd">
<!-- Generated by graphviz version 2.40.1 (20161225.0304)
 -->
<!-- Title: G Pages: 1 -->
<svg width="434pt" height="664pt"
 viewBox="0.00 0.00 434.04 664.01" xmlns="http://www.w3.org/2000/svg" xmlns:xlink="http://www.w3.org/1999/xlink">
<g id="graph0" class="graph" transform="scale(1 1) rotate(0) translate(4 660.0114)">
<title>G</title>
<polygon fill="#ffffff" stroke="transparent" points="-4,4 -4,-660.0114 430.0415,-660.0114 430.0415,4 -4,4"/>
<!-- contacts -->
<g id="node1" class="node">
<title>contacts</title>
<ellipse fill="none" stroke="#000000" cx="304.0208" cy="-638.0114" rx="42.8538" ry="18"/>
<text text-anchor="middle" x="304.0208" y="-633.8114" font-family="Times,serif" font-size="14.00" fill="#000000">contacts</text>
</g>
<!-- contacts__contID_contID__samples_join -->
<g id="node2" class="node">
<title>contacts__contID_contID__samples_join</title>
<ellipse fill="none" stroke="#000000" cx="304.0208" cy="-542.7164" rx="93.4765" ry="41.0911"/>
<text text-anchor="middle" x="304.0208" y="-555.3164" font-family="Times,serif" font-size="14.00" fill="#000000">LEFT JOIN samples</text>
<text text-anchor="middle" x="304.0208" y="-538.5164" font-family="Times,serif" font-size="14.00" fill="#000000">At level: 2</text>
<text text-anchor="middle" x="304.0208" y="-521.7164" font-family="Times,serif" font-size="14.00" fill="#000000">Required: false</text>
</g>
<!-- contacts&#45;&gt;contacts__contID_contID__samples_join -->
<g id="edge1" class="edge">
<title>contacts&#45;&gt;contacts__contID_contID__samples_join</title>
<path fill="none" stroke="#000000" d="M304.0208,-619.6376C304.0208,-612.3285 304.0208,-603.5189 304.0208,-594.5101"/>
<polygon fill="#000000" stroke="#000000" points="307.5209,-594.3235 304.0208,-584.3236 300.5209,-594.3236 307.5209,-594.3235"/>
</g>
<!-- contacts__contID_contID__samples_join_Has_Rows -->
<g id="node3" class="node">
<title>contacts__contID_contID__samples_join_Has_Rows</title>
<ellipse fill="none" stroke="#000000" cx="267.0208" cy="-447.4214" rx="47.4704" ry="18"/>
<text text-anchor="middle" x="267.0208" y="-443.2214" font-family="Times,serif" font-size="14.00" fill="#000000">Has rows</text>
</g>
<!-- contacts__contID_contID__samples_join&#45;&gt;contacts__contID_contID__samples_join_Has_Rows -->
<g id="edge2" class="edge">
<title>contacts__contID_contID__samples_join&#45;&gt;contacts__contID_contID__samples_join_Has_Rows</title>
<path fill="none" stroke="#000000" d="M288.1147,-501.7497C284.5671,-492.6127 280.8897,-483.1413 277.6183,-474.7156"/>
<polygon fill="#000000" stroke="#000000" points="280.8787,-473.4428 273.9965,-465.3876 274.3533,-475.9764 280.8787,-473.4428"/>
</g>
<!-- contacts__contID_contID__samples_join_No_Rows -->
<g id="node12" class="node">
<title>contacts__contID_contID__samples_join_No_Rows</title>
<ellipse fill="none" stroke="#000000" cx="382.0208" cy="-352.1263" rx="44.0415" ry="18"/>
<text text-anchor="middle" x="382.0208" y="-347.9263" font-family="Times,serif" font-size="14.00" fill="#000000">No rows</text>
</g>
<!-- contacts__contID_contID__samples_join&#45;&gt;contacts__contID_contID__samples_join_No_Rows -->
<g id="edge12" class="edge">
<title>contacts__contID_contID__samples_join&#45;&gt;contacts__contID_contID__samples_join_No_Rows</title>
<path fill="none" stroke="#000000" d="M320.7537,-501.83C335.8604,-464.9175 357.6704,-411.6256 370.7837,-379.5838"/>
<polygon fill="#000000" stroke="#000000" points="374.1677,-380.5556 374.7161,-369.9749 367.6892,-377.9042 374.1677,-380.5556"/>
</g>
<!-- samples__dataID_dataID__datasets_join -->
<g id="node4" class="node">
<title>samples__dataID_dataID__datasets_join</title>
<ellipse fill="none" stroke="#000000" cx="227.0208" cy="-352.1263" rx="92.8656" ry="41.0911"/>
<text text-anchor="middle" x="227.0208" y="-364.7263" font-family="Times,serif" font-size="14.00" fill="#000000">LEFT JOIN datasets</text>
<text text-anchor="middle" x="227.0208" y="-347.9263" font-family="Times,serif" font-size="14.00" fill="#000000">At level: 1</text>
<text text-anchor="middle" x="227.0208" y="-331.1263" font-family="Times,serif" font-size="14.00" fill="#000000">Required: true</text>
</g>
<!-- contacts__contID_contID__samples_join_Has_Rows&#45;&gt;samples__dataID_dataID__datasets_join -->
<g id="edge3" class="edge">
<title>contacts__contID_contID__samples_join_Has_Rows&#45;&gt;samples__dataID_dataID__datasets_join</title>
<path fill="none" stroke="#000000" d="M259.4971,-429.4971C256.2043,-421.6524 252.1602,-412.018 248.0579,-402.2446"/>
<polygon fill="#000000" stroke="#000000" points="251.2271,-400.7516 244.1294,-392.8855 244.7726,-403.4608 251.2271,-400.7516"/>
</g>
<!-- samples__dataID_dataID__datasets_join_Has_Rows -->
<g id="node5" class="node">
<title>samples__dataID_dataID__datasets_join_Has_Rows</title>
<ellipse fill="none" stroke="#000000" cx="229.0208" cy="-256.8313" rx="47.4704" ry="18"/>
<text text-anchor="middle" x="229.0208" y="-252.6313" font-family="Times,serif" font-size="14.00" fill="#000000">Has rows</text>
</g>
<!-- samples__dataID_dataID__datasets_join&#45;&gt;samples__dataID_dataID__datasets_join_Has_Rows -->
<g id="edge4" class="edge">
<title>samples__dataID_dataID__datasets_join&#45;&gt;samples__dataID_dataID__datasets_join_Has_Rows</title>
<path fill="none" stroke="#000000" d="M227.8922,-310.6057C228.0717,-302.0541 228.2568,-293.2347 228.4238,-285.2742"/>
<polygon fill="#000000" stroke="#000000" points="231.9276,-285.1285 228.6383,-275.0572 224.9291,-284.9815 231.9276,-285.1285"/>
</g>
<!-- samples__dataID_dataID__datasets_join_No_Rows -->
<g id="node11" class="node">
<title>samples__dataID_dataID__datasets_join_No_Rows</title>
<ellipse fill="none" stroke="#000000" cx="44.0208" cy="-173.4156" rx="44.0415" ry="18"/>
<text text-anchor="middle" x="44.0208" y="-169.2156" font-family="Times,serif" font-size="14.00" fill="#000000">No rows</text>
</g>
<!-- samples__dataID_dataID__datasets_join&#45;&gt;samples__dataID_dataID__datasets_join_No_Rows -->
<g id="edge10" class="edge">
<title>samples__dataID_dataID__datasets_join&#45;&gt;samples__dataID_dataID__datasets_join_No_Rows</title>
<path fill="none" stroke="#000000" d="M188.2112,-314.2264C152.0374,-278.9005 99.1967,-227.2983 68.5398,-197.36"/>
<polygon fill="#000000" stroke="#000000" points="70.8471,-194.7211 61.2473,-190.2384 65.9563,-199.7292 70.8471,-194.7211"/>
</g>
<!-- samples__dataID_dataID__datasets_where -->
<g id="node6" class="node">
<title>samples__dataID_dataID__datasets_where</title>
<ellipse fill="none" stroke="#000000" cx="230.0208" cy="-173.4156" rx="124.4353" ry="29.3315"/>
<text text-anchor="middle" x="230.0208" y="-177.6156" font-family="Times,serif" font-size="14.00" fill="#000000">WHERE</text>
<text text-anchor="middle" x="230.0208" y="-160.8156" font-family="Times,serif" font-size="14.00" fill="#000000">datasets.dataID = &quot;BCCDC&quot;</text>
</g>
<!-- samples__dataID_dataID__datasets_join_Has_Rows&#45;&gt;samples__dataID_dataID__datasets_where -->
<g id="edge5" class="edge">
<title>samples__dataID_dataID__datasets_join_Has_Rows&#45;&gt;samples__dataID_dataID__datasets_where</title>
<path fill="none" stroke="#000000" d="M229.2378,-238.7313C229.3287,-231.1418 229.4384,-221.9972 229.5464,-212.986"/>
<polygon fill="#000000" stroke="#000000" points="233.0464,-213.0001 229.6666,-202.9588 226.0469,-212.9161 233.0464,-213.0001"/>
</g>
<!-- samples__dataID_dataID__datasets_where_Has_Rows -->
<g id="node7" class="node">
<title>samples__dataID_dataID__datasets_where_Has_Rows</title>
<ellipse fill="none" stroke="#000000" cx="268.0208" cy="-90" rx="47.4704" ry="18"/>
<text text-anchor="middle" x="268.0208" y="-85.8" font-family="Times,serif" font-size="14.00" fill="#000000">Has rows</text>
</g>
<!-- samples__dataID_dataID__datasets_where&#45;&gt;samples__dataID_dataID__datasets_where_Has_Rows -->
<g id="edge6" class="edge">
<title>samples__dataID_dataID__datasets_where&#45;&gt;samples__dataID_dataID__datasets_where_Has_Rows</title>
<path fill="none" stroke="#000000" d="M243.5251,-143.7715C247.493,-135.0615 251.8107,-125.5834 255.7005,-117.0449"/>
<polygon fill="#000000" stroke="#000000" points="258.9082,-118.446 259.8688,-107.8947 252.5381,-115.544 258.9082,-118.446"/>
</g>
<!-- samples__dataID_dataID__datasets_where_No_Rows -->
<g id="node9" class="node">
<title>samples__dataID_dataID__datasets_where_No_Rows</title>
<ellipse fill="none" stroke="#000000" cx="158.0208" cy="-90" rx="44.0415" ry="18"/>
<text text-anchor="middle" x="158.0208" y="-85.8" font-family="Times,serif" font-size="14.00" fill="#000000">No rows</text>
</g>
<!-- samples__dataID_dataID__datasets_where&#45;&gt;samples__dataID_dataID__datasets_where_No_Rows -->
<g id="edge8" class="edge">
<title>samples__dataID_dataID__datasets_where&#45;&gt;samples__dataID_dataID__datasets_where_No_Rows</title>
<path fill="none" stroke="#000000" d="M204.8387,-144.2409C196.5584,-134.6478 187.4364,-124.0795 179.461,-114.8396"/>
<polygon fill="#000000" stroke="#000000" points="181.9811,-112.4027 172.7974,-107.1195 176.682,-116.9765 181.9811,-112.4027"/>
</g>
<!-- granted -->
<g id="node8" class="node">
<title>granted</title>
<ellipse fill="none" stroke="#000000" cx="298.0208" cy="-18" rx="71.7874" ry="18"/>
<text text-anchor="middle" x="298.0208" y="-13.8" font-family="Times,serif" font-size="14.00" fill="#000000">Access Granted</text>
</g>
<!-- samples__dataID_dataID__datasets_where_Has_Rows&#45;&gt;granted -->
<g id="edge7" class="edge">
<title>samples__dataID_dataID__datasets_where_Has_Rows&#45;&gt;granted</title>
<path fill="none" stroke="#000000" d="M275.4365,-72.2022C278.8005,-64.1287 282.8551,-54.3976 286.5949,-45.422"/>
<polygon fill="#000000" stroke="#000000" points="289.8665,-46.6701 290.482,-36.0931 283.405,-43.9777 289.8665,-46.6701"/>
</g>
<!-- denied -->
<g id="node10" class="node">
<title>denied</title>
<ellipse fill="none" stroke="#000000" cx="128.0208" cy="-18" rx="68.8581" ry="18"/>
<text text-anchor="middle" x="128.0208" y="-13.8" font-family="Times,serif" font-size="14.00" fill="#000000">Access Denied</text>
</g>
<!-- samples__dataID_dataID__datasets_where_No_Rows&#45;&gt;denied -->
<g id="edge9" class="edge">
<title>samples__dataID_dataID__datasets_where_No_Rows&#45;&gt;denied</title>
<path fill="none" stroke="#000000" d="M150.605,-72.2022C147.2411,-64.1287 143.1865,-54.3976 139.4466,-45.422"/>
<polygon fill="#000000" stroke="#000000" points="142.6366,-43.9777 135.5596,-36.0931 136.175,-46.6701 142.6366,-43.9777"/>
</g>
<!-- samples__dataID_dataID__datasets_join_No_Rows&#45;&gt;denied -->
<g id="edge11" class="edge">
<title>samples__dataID_dataID__datasets_join_No_Rows&#45;&gt;denied</title>
<path fill="none" stroke="#000000" d="M53.6566,-155.5875C68.2628,-128.5634 96.1191,-77.0239 113.282,-45.2695"/>
<polygon fill="#000000" stroke="#000000" points="116.5627,-46.5604 118.2385,-36.0989 110.4046,-43.232 116.5627,-46.5604"/>
</g>
<!-- contacts__contID_contID__samples_join_No_Rows&#45;&gt;granted -->
<g id="edge13" class="edge">
<title>contacts__contID_contID__samples_join_No_Rows&#45;&gt;granted</title>
<path fill="none" stroke="#000000" d="M382.6713,-333.8768C383.4813,-297.1287 382.8218,-211.9251 363.0208,-144 352.3924,-107.5405 330.9649,-69.2608 315.6159,-44.5984"/>
<polygon fill="#000000" stroke="#000000" points="318.3768,-42.4165 310.0661,-35.8452 312.4649,-46.1649 318.3768,-42.4165"/>
</g>
</g>
</svg>
