<?xml version="1.0" encoding="UTF-8" standalone="no"?>
<!DOCTYPE svg PUBLIC "-//W3C//DTD SVG 1.1//EN"
 "http://www.w3.org/Graphics/SVG/1.1/DTD/svg11.dtd">
<!-- Generated by graphviz version 2.40.1 (20161225.0304)
 -->
<!-- Title: G Pages: 1 -->
<svg width="874pt" height="664pt"
 viewBox="0.00 0.00 874.02 664.01" xmlns="http://www.w3.org/2000/svg" xmlns:xlink="http://www.w3.org/1999/xlink">
<g id="graph0" class="graph" transform="scale(1 1) rotate(0) translate(4 660.0114)">
<title>G</title>
<polygon fill="#ffffff" stroke="transparent" points="-4,4 -4,-660.0114 870.0208,-660.0114 870.0208,4 -4,4"/>
<!-- contacts -->
<g id="node1" class="node">
<title>contacts</title>
<ellipse fill="none" stroke="#000000" cx="232" cy="-638.0114" rx="42.8538" ry="18"/>
<text text-anchor="middle" x="232" y="-633.8114" font-family="Times,serif" font-size="14.00" fill="#000000">contacts</text>
</g>
<!-- contacts__contID_contID__samples_join -->
<g id="node2" class="node">
<title>contacts__contID_contID__samples_join</title>
<ellipse fill="none" stroke="#000000" cx="232" cy="-542.7164" rx="93.4765" ry="41.0911"/>
<text text-anchor="middle" x="232" y="-555.3164" font-family="Times,serif" font-size="14.00" fill="#000000">LEFT JOIN samples</text>
<text text-anchor="middle" x="232" y="-538.5164" font-family="Times,serif" font-size="14.00" fill="#000000">At level: 2</text>
<text text-anchor="middle" x="232" y="-521.7164" font-family="Times,serif" font-size="14.00" fill="#000000">Required: false</text>
</g>
<!-- contacts&#45;&gt;contacts__contID_contID__samples_join -->
<g id="edge1" class="edge">
<title>contacts&#45;&gt;contacts__contID_contID__samples_join</title>
<path fill="none" stroke="#000000" d="M232,-619.6376C232,-612.3285 232,-603.5189 232,-594.5101"/>
<polygon fill="#000000" stroke="#000000" points="235.5001,-594.3235 232,-584.3236 228.5001,-594.3236 235.5001,-594.3235"/>
</g>
<!-- contacts__contID_contID__samples_join_Has_Rows -->
<g id="node3" class="node">
<title>contacts__contID_contID__samples_join_Has_Rows</title>
<ellipse fill="none" stroke="#000000" cx="348" cy="-447.4214" rx="47.4704" ry="18"/>
<text text-anchor="middle" x="348" y="-443.2214" font-family="Times,serif" font-size="14.00" fill="#000000">Has rows</text>
</g>
<!-- contacts__contID_contID__samples_join&#45;&gt;contacts__contID_contID__samples_join_Has_Rows -->
<g id="edge2" class="edge">
<title>contacts__contID_contID__samples_join&#45;&gt;contacts__contID_contID__samples_join_Has_Rows</title>
<path fill="none" stroke="#000000" d="M276.5169,-506.1454C291.226,-494.0617 307.1599,-480.9719 320.2432,-470.2238"/>
<polygon fill="#000000" stroke="#000000" points="322.4794,-472.9164 327.9846,-463.8642 318.0359,-467.5075 322.4794,-472.9164"/>
</g>
<!-- contacts__contID_contID__samples_join_No_Rows -->
<g id="node18" class="node">
<title>contacts__contID_contID__samples_join_No_Rows</title>
<ellipse fill="none" stroke="#000000" cx="178" cy="-447.4214" rx="44.0415" ry="18"/>
<text text-anchor="middle" x="178" y="-443.2214" font-family="Times,serif" font-size="14.00" fill="#000000">No rows</text>
</g>
<!-- contacts__contID_contID__samples_join&#45;&gt;contacts__contID_contID__samples_join_No_Rows -->
<g id="edge21" class="edge">
<title>contacts__contID_contID__samples_join&#45;&gt;contacts__contID_contID__samples_join_No_Rows</title>
<path fill="none" stroke="#000000" d="M209.2556,-502.5789C203.7791,-492.9143 198.063,-482.8269 193.0392,-473.9614"/>
<polygon fill="#000000" stroke="#000000" points="196.0689,-472.2085 188.0936,-465.2338 189.9787,-475.6596 196.0689,-472.2085"/>
</g>
<!-- samples__siteID_siteID__sites_join -->
<g id="node4" class="node">
<title>samples__siteID_siteID__sites_join</title>
<ellipse fill="none" stroke="#000000" cx="626" cy="-352.1263" rx="78.8882" ry="41.0911"/>
<text text-anchor="middle" x="626" y="-364.7263" font-family="Times,serif" font-size="14.00" fill="#000000">LEFT JOIN sites</text>
<text text-anchor="middle" x="626" y="-347.9263" font-family="Times,serif" font-size="14.00" fill="#000000">At level: 1</text>
<text text-anchor="middle" x="626" y="-331.1263" font-family="Times,serif" font-size="14.00" fill="#000000">Required: true</text>
</g>
<!-- contacts__contID_contID__samples_join_Has_Rows&#45;&gt;samples__siteID_siteID__sites_join -->
<g id="edge3" class="edge">
<title>contacts__contID_contID__samples_join_Has_Rows&#45;&gt;samples__siteID_siteID__sites_join</title>
<path fill="none" stroke="#000000" d="M383.2089,-435.3522C424.9713,-421.0365 495.7753,-396.7658 550.178,-378.1172"/>
<polygon fill="#000000" stroke="#000000" points="551.4654,-381.3759 559.7901,-374.8223 549.1955,-374.7541 551.4654,-381.3759"/>
</g>
<!-- samples__dataID_dataID__datasets_join -->
<g id="node12" class="node">
<title>samples__dataID_dataID__datasets_join</title>
<ellipse fill="none" stroke="#000000" cx="348" cy="-352.1263" rx="92.8656" ry="41.0911"/>
<text text-anchor="middle" x="348" y="-364.7263" font-family="Times,serif" font-size="14.00" fill="#000000">LEFT JOIN datasets</text>
<text text-anchor="middle" x="348" y="-347.9263" font-family="Times,serif" font-size="14.00" fill="#000000">At level: 1</text>
<text text-anchor="middle" x="348" y="-331.1263" font-family="Times,serif" font-size="14.00" fill="#000000">Required: true</text>
</g>
<!-- contacts__contID_contID__samples_join_Has_Rows&#45;&gt;samples__dataID_dataID__datasets_join -->
<g id="edge12" class="edge">
<title>contacts__contID_contID__samples_join_Has_Rows&#45;&gt;samples__dataID_dataID__datasets_join</title>
<path fill="none" stroke="#000000" d="M348,-429.0475C348,-421.7384 348,-412.9288 348,-403.92"/>
<polygon fill="#000000" stroke="#000000" points="351.5001,-403.7335 348,-393.7335 344.5001,-403.7335 351.5001,-403.7335"/>
</g>
<!-- samples__siteID_siteID__sites_join_Has_Rows -->
<g id="node5" class="node">
<title>samples__siteID_siteID__sites_join_Has_Rows</title>
<ellipse fill="none" stroke="#000000" cx="626" cy="-256.8313" rx="47.4704" ry="18"/>
<text text-anchor="middle" x="626" y="-252.6313" font-family="Times,serif" font-size="14.00" fill="#000000">Has rows</text>
</g>
<!-- samples__siteID_siteID__sites_join&#45;&gt;samples__siteID_siteID__sites_join_Has_Rows -->
<g id="edge4" class="edge">
<title>samples__siteID_siteID__sites_join&#45;&gt;samples__siteID_siteID__sites_join_Has_Rows</title>
<path fill="none" stroke="#000000" d="M626,-310.6057C626,-302.0541 626,-293.2347 626,-285.2742"/>
<polygon fill="#000000" stroke="#000000" points="629.5001,-285.0572 626,-275.0572 622.5001,-285.0572 629.5001,-285.0572"/>
</g>
<!-- samples__siteID_siteID__sites_join_No_Rows -->
<g id="node11" class="node">
<title>samples__siteID_siteID__sites_join_No_Rows</title>
<ellipse fill="none" stroke="#000000" cx="822" cy="-173.4156" rx="44.0415" ry="18"/>
<text text-anchor="middle" x="822" y="-169.2156" font-family="Times,serif" font-size="14.00" fill="#000000">No rows</text>
</g>
<!-- samples__siteID_siteID__sites_join&#45;&gt;samples__siteID_siteID__sites_join_No_Rows -->
<g id="edge10" class="edge">
<title>samples__siteID_siteID__sites_join&#45;&gt;samples__siteID_siteID__sites_join_No_Rows</title>
<path fill="none" stroke="#000000" d="M665.6635,-315.9615C704.6009,-280.4588 762.856,-227.3425 796.1639,-196.9727"/>
<polygon fill="#000000" stroke="#000000" points="798.6396,-199.4519 803.6709,-190.1279 793.9232,-194.2793 798.6396,-199.4519"/>
</g>
<!-- samples__siteID_siteID__sites_where -->
<g id="node6" class="node">
<title>samples__siteID_siteID__sites_where</title>
<ellipse fill="none" stroke="#000000" cx="626" cy="-173.4156" rx="133.6073" ry="29.3315"/>
<text text-anchor="middle" x="626" y="-177.6156" font-family="Times,serif" font-size="14.00" fill="#000000">WHERE</text>
<text text-anchor="middle" x="626" y="-160.8156" font-family="Times,serif" font-size="14.00" fill="#000000">sites.healthReg = &quot;Vancouver&quot;</text>
</g>
<!-- samples__siteID_siteID__sites_join_Has_Rows&#45;&gt;samples__siteID_siteID__sites_where -->
<g id="edge5" class="edge">
<title>samples__siteID_siteID__sites_join_Has_Rows&#45;&gt;samples__siteID_siteID__sites_where</title>
<path fill="none" stroke="#000000" d="M626,-238.7313C626,-231.1418 626,-221.9972 626,-212.986"/>
<polygon fill="#000000" stroke="#000000" points="629.5001,-212.9587 626,-202.9588 622.5001,-212.9588 629.5001,-212.9587"/>
</g>
<!-- samples__siteID_siteID__sites_where_Has_Rows -->
<g id="node7" class="node">
<title>samples__siteID_siteID__sites_where_Has_Rows</title>
<ellipse fill="none" stroke="#000000" cx="389" cy="-90" rx="47.4704" ry="18"/>
<text text-anchor="middle" x="389" y="-85.8" font-family="Times,serif" font-size="14.00" fill="#000000">Has rows</text>
</g>
<!-- samples__siteID_siteID__sites_where&#45;&gt;samples__siteID_siteID__sites_where_Has_Rows -->
<g id="edge6" class="edge">
<title>samples__siteID_siteID__sites_where&#45;&gt;samples__siteID_siteID__sites_where_Has_Rows</title>
<path fill="none" stroke="#000000" d="M554.8922,-148.3882C515.4292,-134.4986 467.5707,-117.6541 433.4192,-105.634"/>
<polygon fill="#000000" stroke="#000000" points="434.3224,-102.2415 423.7276,-102.2229 431.9983,-108.8444 434.3224,-102.2415"/>
</g>
<!-- samples__siteID_siteID__sites_where_No_Rows -->
<g id="node9" class="node">
<title>samples__siteID_siteID__sites_where_No_Rows</title>
<ellipse fill="none" stroke="#000000" cx="581" cy="-90" rx="44.0415" ry="18"/>
<text text-anchor="middle" x="581" y="-85.8" font-family="Times,serif" font-size="14.00" fill="#000000">No rows</text>
</g>
<!-- samples__siteID_siteID__sites_where&#45;&gt;samples__siteID_siteID__sites_where_No_Rows -->
<g id="edge8" class="edge">
<title>samples__siteID_siteID__sites_where&#45;&gt;samples__siteID_siteID__sites_where_No_Rows</title>
<path fill="none" stroke="#000000" d="M610.008,-143.7715C605.2587,-134.9678 600.0861,-125.3795 595.4414,-116.7697"/>
<polygon fill="#000000" stroke="#000000" points="598.4819,-115.034 590.6536,-107.8947 592.3212,-118.3575 598.4819,-115.034"/>
</g>
<!-- granted -->
<g id="node8" class="node">
<title>granted</title>
<ellipse fill="none" stroke="#000000" cx="171" cy="-18" rx="71.7874" ry="18"/>
<text text-anchor="middle" x="171" y="-13.8" font-family="Times,serif" font-size="14.00" fill="#000000">Access Granted</text>
</g>
<!-- samples__siteID_siteID__sites_where_Has_Rows&#45;&gt;granted -->
<g id="edge7" class="edge">
<title>samples__siteID_siteID__sites_where_Has_Rows&#45;&gt;granted</title>
<path fill="none" stroke="#000000" d="M353.0017,-78.1107C317.921,-66.5244 264.1693,-48.7715 224.1641,-35.5588"/>
<polygon fill="#000000" stroke="#000000" points="225.1603,-32.2019 214.5671,-32.3891 222.9649,-38.8488 225.1603,-32.2019"/>
</g>
<!-- denied -->
<g id="node10" class="node">
<title>denied</title>
<ellipse fill="none" stroke="#000000" cx="522" cy="-18" rx="68.8581" ry="18"/>
<text text-anchor="middle" x="522" y="-13.8" font-family="Times,serif" font-size="14.00" fill="#000000">Access Denied</text>
</g>
<!-- samples__siteID_siteID__sites_where_No_Rows&#45;&gt;denied -->
<g id="edge9" class="edge">
<title>samples__siteID_siteID__sites_where_No_Rows&#45;&gt;denied</title>
<path fill="none" stroke="#000000" d="M566.7177,-72.5708C559.5772,-63.857 550.7987,-53.1441 542.9159,-43.5244"/>
<polygon fill="#000000" stroke="#000000" points="545.6061,-41.2853 536.5606,-35.7689 540.1917,-45.7221 545.6061,-41.2853"/>
</g>
<!-- samples__siteID_siteID__sites_join_No_Rows&#45;&gt;denied -->
<g id="edge11" class="edge">
<title>samples__siteID_siteID__sites_join_No_Rows&#45;&gt;denied</title>
<path fill="none" stroke="#000000" d="M795.899,-158.8158C787.3442,-154.061 777.7816,-148.7783 769,-144 709.2697,-111.4994 694.6387,-102.7725 634,-72 611.2974,-60.479 585.742,-48.1125 564.7807,-38.1246"/>
<polygon fill="#000000" stroke="#000000" points="566.0342,-34.8452 555.4998,-33.7146 563.0298,-41.1677 566.0342,-34.8452"/>
</g>
<!-- samples__dataID_dataID__datasets_join_Has_Rows -->
<g id="node13" class="node">
<title>samples__dataID_dataID__datasets_join_Has_Rows</title>
<ellipse fill="none" stroke="#000000" cx="263" cy="-256.8313" rx="47.4704" ry="18"/>
<text text-anchor="middle" x="263" y="-252.6313" font-family="Times,serif" font-size="14.00" fill="#000000">Has rows</text>
</g>
<!-- samples__dataID_dataID__datasets_join&#45;&gt;samples__dataID_dataID__datasets_join_Has_Rows -->
<g id="edge13" class="edge">
<title>samples__dataID_dataID__datasets_join&#45;&gt;samples__dataID_dataID__datasets_join_Has_Rows</title>
<path fill="none" stroke="#000000" d="M313.6723,-313.6409C304.1692,-302.9868 294.0996,-291.6976 285.4621,-282.0139"/>
<polygon fill="#000000" stroke="#000000" points="287.8557,-279.4393 278.5872,-274.3064 282.6318,-284.0989 287.8557,-279.4393"/>
</g>
<!-- samples__dataID_dataID__datasets_join_No_Rows -->
<g id="node17" class="node">
<title>samples__dataID_dataID__datasets_join_No_Rows</title>
<ellipse fill="none" stroke="#000000" cx="403" cy="-256.8313" rx="44.0415" ry="18"/>
<text text-anchor="middle" x="403" y="-252.6313" font-family="Times,serif" font-size="14.00" fill="#000000">No rows</text>
</g>
<!-- samples__dataID_dataID__datasets_join&#45;&gt;samples__dataID_dataID__datasets_join_No_Rows -->
<g id="edge19" class="edge">
<title>samples__dataID_dataID__datasets_join&#45;&gt;samples__dataID_dataID__datasets_join_No_Rows</title>
<path fill="none" stroke="#000000" d="M371.1655,-311.9888C376.7435,-302.3243 382.5655,-292.2368 387.6823,-283.3713"/>
<polygon fill="#000000" stroke="#000000" points="390.752,-285.0543 392.7194,-274.6438 384.6893,-281.5552 390.752,-285.0543"/>
</g>
<!-- samples__dataID_dataID__datasets_where -->
<g id="node14" class="node">
<title>samples__dataID_dataID__datasets_where</title>
<ellipse fill="none" stroke="#000000" cx="232" cy="-173.4156" rx="204.088" ry="29.3315"/>
<text text-anchor="middle" x="232" y="-177.6156" font-family="Times,serif" font-size="14.00" fill="#000000">WHERE IN</text>
<text text-anchor="middle" x="232" y="-160.8156" font-family="Times,serif" font-size="14.00" fill="#000000">datasets.dataID = [&quot;BCCDC&quot;,&quot;NML&#45;WWPCR&quot;]</text>
</g>
<!-- samples__dataID_dataID__datasets_join_Has_Rows&#45;&gt;samples__dataID_dataID__datasets_where -->
<g id="edge14" class="edge">
<title>samples__dataID_dataID__datasets_join_Has_Rows&#45;&gt;samples__dataID_dataID__datasets_where</title>
<path fill="none" stroke="#000000" d="M256.2735,-238.7313C253.3923,-230.9786 249.9081,-221.6032 246.4897,-212.4049"/>
<polygon fill="#000000" stroke="#000000" points="249.7436,-211.1132 242.9792,-202.9588 243.182,-213.5517 249.7436,-211.1132"/>
</g>
<!-- samples__dataID_dataID__datasets_where_Has_Rows -->
<g id="node15" class="node">
<title>samples__dataID_dataID__datasets_where_Has_Rows</title>
<ellipse fill="none" stroke="#000000" cx="171" cy="-90" rx="47.4704" ry="18"/>
<text text-anchor="middle" x="171" y="-85.8" font-family="Times,serif" font-size="14.00" fill="#000000">Has rows</text>
</g>
<!-- samples__dataID_dataID__datasets_where&#45;&gt;samples__dataID_dataID__datasets_where_Has_Rows -->
<g id="edge15" class="edge">
<title>samples__dataID_dataID__datasets_where&#45;&gt;samples__dataID_dataID__datasets_where_Has_Rows</title>
<path fill="none" stroke="#000000" d="M210.3219,-143.7715C203.5747,-134.5449 196.1973,-124.4565 189.6738,-115.5359"/>
<polygon fill="#000000" stroke="#000000" points="192.4577,-113.4133 183.7296,-107.4073 186.8073,-117.5453 192.4577,-113.4133"/>
</g>
<!-- samples__dataID_dataID__datasets_where_No_Rows -->
<g id="node16" class="node">
<title>samples__dataID_dataID__datasets_where_No_Rows</title>
<ellipse fill="none" stroke="#000000" cx="280" cy="-90" rx="44.0415" ry="18"/>
<text text-anchor="middle" x="280" y="-85.8" font-family="Times,serif" font-size="14.00" fill="#000000">No rows</text>
</g>
<!-- samples__dataID_dataID__datasets_where&#45;&gt;samples__dataID_dataID__datasets_where_No_Rows -->
<g id="edge17" class="edge">
<title>samples__dataID_dataID__datasets_where&#45;&gt;samples__dataID_dataID__datasets_where_No_Rows</title>
<path fill="none" stroke="#000000" d="M249.0582,-143.7715C254.1241,-134.9678 259.6415,-125.3795 264.5958,-116.7697"/>
<polygon fill="#000000" stroke="#000000" points="267.7488,-118.3079 269.7028,-107.8947 261.6816,-114.8166 267.7488,-118.3079"/>
</g>
<!-- samples__dataID_dataID__datasets_where_Has_Rows&#45;&gt;granted -->
<g id="edge16" class="edge">
<title>samples__dataID_dataID__datasets_where_Has_Rows&#45;&gt;granted</title>
<path fill="none" stroke="#000000" d="M171,-71.8314C171,-64.131 171,-54.9743 171,-46.4166"/>
<polygon fill="#000000" stroke="#000000" points="174.5001,-46.4132 171,-36.4133 167.5001,-46.4133 174.5001,-46.4132"/>
</g>
<!-- samples__dataID_dataID__datasets_where_No_Rows&#45;&gt;denied -->
<g id="edge18" class="edge">
<title>samples__dataID_dataID__datasets_where_No_Rows&#45;&gt;denied</title>
<path fill="none" stroke="#000000" d="M313.5635,-78.3239C319.9968,-76.1646 326.6928,-73.9708 333,-72 376.8043,-58.3128 426.7429,-44.104 464.2825,-33.6987"/>
<polygon fill="#000000" stroke="#000000" points="465.3295,-37.0407 474.036,-31.0034 463.465,-30.2935 465.3295,-37.0407"/>
</g>
<!-- samples__dataID_dataID__datasets_join_No_Rows&#45;&gt;denied -->
<g id="edge20" class="edge">
<title>samples__dataID_dataID__datasets_join_No_Rows&#45;&gt;denied</title>
<path fill="none" stroke="#000000" d="M418.2568,-239.681C426.8424,-229.4642 437.3424,-215.9642 445,-202.8313 475.7299,-150.1288 500.5143,-82.8203 513.0627,-45.7009"/>
<polygon fill="#000000" stroke="#000000" points="516.4314,-46.6628 516.2723,-36.0691 509.7904,-44.4497 516.4314,-46.6628"/>
</g>
<!-- contacts__contID_contID__samples_join_No_Rows&#45;&gt;granted -->
<g id="edge22" class="edge">
<title>contacts__contID_contID__samples_join_No_Rows&#45;&gt;granted</title>
<path fill="none" stroke="#000000" d="M149.4012,-433.5246C99.0847,-406.8377 0,-343.3067 0,-256.8313 0,-256.8313 0,-256.8313 0,-173.4156 0,-106.758 72.0377,-61.157 122.6001,-37.3598"/>
<polygon fill="#000000" stroke="#000000" points="124.1285,-40.5096 131.7691,-33.1699 121.2191,-34.1428 124.1285,-40.5096"/>
</g>
</g>
</svg>
