<?xml version="1.0" encoding="UTF-8" standalone="no"?>
<!DOCTYPE svg PUBLIC "-//W3C//DTD SVG 1.1//EN"
 "http://www.w3.org/Graphics/SVG/1.1/DTD/svg11.dtd">
<!-- Generated by graphviz version 2.40.1 (20161225.0304)
 -->
<!-- Title: G Pages: 1 -->
<svg width="1038pt" height="831pt"
 viewBox="0.00 0.00 1038.09 830.84" xmlns="http://www.w3.org/2000/svg" xmlns:xlink="http://www.w3.org/1999/xlink">
<g id="graph0" class="graph" transform="scale(1 1) rotate(0) translate(4 826.8427)">
<title>G</title>
<polygon fill="#ffffff" stroke="transparent" points="-4,4 -4,-826.8427 1034.088,-826.8427 1034.088,4 -4,4"/>
<!-- datasets -->
<g id="node1" class="node">
<title>datasets</title>
<ellipse fill="none" stroke="#000000" cx="826.044" cy="-804.8427" rx="41.7075" ry="18"/>
<text text-anchor="middle" x="826.044" y="-800.6427" font-family="Times,serif" font-size="14.00" fill="#000000">datasets</text>
</g>
<!-- datasets_where -->
<g id="node2" class="node">
<title>datasets_where</title>
<ellipse fill="none" stroke="#000000" cx="826.044" cy="-721.4271" rx="204.088" ry="29.3315"/>
<text text-anchor="middle" x="826.044" y="-725.6271" font-family="Times,serif" font-size="14.00" fill="#000000">WHERE IN</text>
<text text-anchor="middle" x="826.044" y="-708.8271" font-family="Times,serif" font-size="14.00" fill="#000000">datasets.dataID = [&quot;BCCDC&quot;,&quot;NML&#45;WWPCR&quot;]</text>
</g>
<!-- datasets&#45;&gt;datasets_where -->
<g id="edge1" class="edge">
<title>datasets&#45;&gt;datasets_where</title>
<path fill="none" stroke="#000000" d="M826.044,-786.7428C826.044,-779.1532 826.044,-770.0087 826.044,-760.9975"/>
<polygon fill="#000000" stroke="#000000" points="829.5441,-760.9702 826.044,-750.9702 822.5441,-760.9702 829.5441,-760.9702"/>
</g>
<!-- datasets_where_Has_Rows -->
<g id="node3" class="node">
<title>datasets_where_Has_Rows</title>
<ellipse fill="none" stroke="#000000" cx="789.044" cy="-638.0114" rx="47.4704" ry="18"/>
<text text-anchor="middle" x="789.044" y="-633.8114" font-family="Times,serif" font-size="14.00" fill="#000000">Has rows</text>
</g>
<!-- datasets_where&#45;&gt;datasets_where_Has_Rows -->
<g id="edge2" class="edge">
<title>datasets_where&#45;&gt;datasets_where_Has_Rows</title>
<path fill="none" stroke="#000000" d="M812.895,-691.783C809.0316,-683.0729 804.8275,-673.5949 801.0401,-665.0563"/>
<polygon fill="#000000" stroke="#000000" points="804.2355,-663.6281 796.9814,-655.9062 797.8367,-666.4664 804.2355,-663.6281"/>
</g>
<!-- datasets_where_No_Rows -->
<g id="node21" class="node">
<title>datasets_where_No_Rows</title>
<ellipse fill="none" stroke="#000000" cx="904.044" cy="-542.7164" rx="44.0415" ry="18"/>
<text text-anchor="middle" x="904.044" y="-538.5164" font-family="Times,serif" font-size="14.00" fill="#000000">No rows</text>
</g>
<!-- datasets_where&#45;&gt;datasets_where_No_Rows -->
<g id="edge25" class="edge">
<title>datasets_where&#45;&gt;datasets_where_No_Rows</title>
<path fill="none" stroke="#000000" d="M838.9241,-691.9166C853.6683,-658.1352 877.6305,-603.234 892.0105,-570.2872"/>
<polygon fill="#000000" stroke="#000000" points="895.3523,-571.38 896.1447,-560.8149 888.9367,-568.5799 895.3523,-571.38"/>
</g>
<!-- datasets__dataID_dataID__samples_join -->
<g id="node4" class="node">
<title>datasets__dataID_dataID__samples_join</title>
<ellipse fill="none" stroke="#000000" cx="749.044" cy="-542.7164" rx="93.4765" ry="41.0911"/>
<text text-anchor="middle" x="749.044" y="-555.3164" font-family="Times,serif" font-size="14.00" fill="#000000">LEFT JOIN samples</text>
<text text-anchor="middle" x="749.044" y="-538.5164" font-family="Times,serif" font-size="14.00" fill="#000000">At level: 2</text>
<text text-anchor="middle" x="749.044" y="-521.7164" font-family="Times,serif" font-size="14.00" fill="#000000">Required: true</text>
</g>
<!-- datasets_where_Has_Rows&#45;&gt;datasets__dataID_dataID__samples_join -->
<g id="edge3" class="edge">
<title>datasets_where_Has_Rows&#45;&gt;datasets__dataID_dataID__samples_join</title>
<path fill="none" stroke="#000000" d="M781.5203,-620.0872C778.2275,-612.2425 774.1835,-602.6081 770.0811,-592.8347"/>
<polygon fill="#000000" stroke="#000000" points="773.2503,-591.3416 766.1527,-583.4756 766.7958,-594.0509 773.2503,-591.3416"/>
</g>
<!-- datasets__dataID_dataID__samples_join_Has_Rows -->
<g id="node5" class="node">
<title>datasets__dataID_dataID__samples_join_Has_Rows</title>
<ellipse fill="none" stroke="#000000" cx="654.044" cy="-447.4214" rx="47.4704" ry="18"/>
<text text-anchor="middle" x="654.044" y="-443.2214" font-family="Times,serif" font-size="14.00" fill="#000000">Has rows</text>
</g>
<!-- datasets__dataID_dataID__samples_join&#45;&gt;datasets__dataID_dataID__samples_join_Has_Rows -->
<g id="edge4" class="edge">
<title>datasets__dataID_dataID__samples_join&#45;&gt;datasets__dataID_dataID__samples_join_Has_Rows</title>
<path fill="none" stroke="#000000" d="M711.2245,-504.7795C700.0917,-493.612 688.2179,-481.7014 678.1919,-471.6443"/>
<polygon fill="#000000" stroke="#000000" points="680.4669,-468.9688 670.928,-464.3578 675.5094,-473.9109 680.4669,-468.9688"/>
</g>
<!-- datasets__dataID_dataID__samples_join_No_Rows -->
<g id="node20" class="node">
<title>datasets__dataID_dataID__samples_join_No_Rows</title>
<ellipse fill="none" stroke="#000000" cx="791.044" cy="-447.4214" rx="44.0415" ry="18"/>
<text text-anchor="middle" x="791.044" y="-443.2214" font-family="Times,serif" font-size="14.00" fill="#000000">No rows</text>
</g>
<!-- datasets__dataID_dataID__samples_join&#45;&gt;datasets__dataID_dataID__samples_join_No_Rows -->
<g id="edge23" class="edge">
<title>datasets__dataID_dataID__samples_join&#45;&gt;datasets__dataID_dataID__samples_join_No_Rows</title>
<path fill="none" stroke="#000000" d="M766.9776,-502.0263C771.0159,-492.8636 775.2089,-483.3501 778.9417,-474.8807"/>
<polygon fill="#000000" stroke="#000000" points="782.2451,-476.0637 783.0754,-465.5015 775.8396,-473.2406 782.2451,-476.0637"/>
</g>
<!-- samples__siteID_siteID__sites_join -->
<g id="node6" class="node">
<title>samples__siteID_siteID__sites_join</title>
<ellipse fill="none" stroke="#000000" cx="654.044" cy="-352.1263" rx="78.8882" ry="41.0911"/>
<text text-anchor="middle" x="654.044" y="-364.7263" font-family="Times,serif" font-size="14.00" fill="#000000">LEFT JOIN sites</text>
<text text-anchor="middle" x="654.044" y="-347.9263" font-family="Times,serif" font-size="14.00" fill="#000000">At level: 1</text>
<text text-anchor="middle" x="654.044" y="-331.1263" font-family="Times,serif" font-size="14.00" fill="#000000">Required: true</text>
</g>
<!-- datasets__dataID_dataID__samples_join_Has_Rows&#45;&gt;samples__siteID_siteID__sites_join -->
<g id="edge5" class="edge">
<title>datasets__dataID_dataID__samples_join_Has_Rows&#45;&gt;samples__siteID_siteID__sites_join</title>
<path fill="none" stroke="#000000" d="M654.044,-429.0475C654.044,-421.7384 654.044,-412.9288 654.044,-403.92"/>
<polygon fill="#000000" stroke="#000000" points="657.5441,-403.7335 654.044,-393.7335 650.5441,-403.7335 657.5441,-403.7335"/>
</g>
<!-- samples__dataID_dataID__datasets_join -->
<g id="node14" class="node">
<title>samples__dataID_dataID__datasets_join</title>
<ellipse fill="none" stroke="#000000" cx="436.044" cy="-352.1263" rx="92.8656" ry="41.0911"/>
<text text-anchor="middle" x="436.044" y="-364.7263" font-family="Times,serif" font-size="14.00" fill="#000000">LEFT JOIN datasets</text>
<text text-anchor="middle" x="436.044" y="-347.9263" font-family="Times,serif" font-size="14.00" fill="#000000">At level: 1</text>
<text text-anchor="middle" x="436.044" y="-331.1263" font-family="Times,serif" font-size="14.00" fill="#000000">Required: true</text>
</g>
<!-- datasets__dataID_dataID__samples_join_Has_Rows&#45;&gt;samples__dataID_dataID__datasets_join -->
<g id="edge14" class="edge">
<title>datasets__dataID_dataID__samples_join_Has_Rows&#45;&gt;samples__dataID_dataID__datasets_join</title>
<path fill="none" stroke="#000000" d="M622.8099,-433.7679C593.9397,-421.1478 549.8824,-401.8888 511.8078,-385.2452"/>
<polygon fill="#000000" stroke="#000000" points="512.8343,-381.8742 502.2696,-381.0757 510.0305,-388.2881 512.8343,-381.8742"/>
</g>
<!-- samples__siteID_siteID__sites_join_Has_Rows -->
<g id="node7" class="node">
<title>samples__siteID_siteID__sites_join_Has_Rows</title>
<ellipse fill="none" stroke="#000000" cx="626.044" cy="-256.8313" rx="47.4704" ry="18"/>
<text text-anchor="middle" x="626.044" y="-252.6313" font-family="Times,serif" font-size="14.00" fill="#000000">Has rows</text>
</g>
<!-- samples__siteID_siteID__sites_join&#45;&gt;samples__siteID_siteID__sites_join_Has_Rows -->
<g id="edge6" class="edge">
<title>samples__siteID_siteID__sites_join&#45;&gt;samples__siteID_siteID__sites_join_Has_Rows</title>
<path fill="none" stroke="#000000" d="M642.007,-311.1596C639.3515,-302.1219 636.5999,-292.7571 634.1446,-284.4007"/>
<polygon fill="#000000" stroke="#000000" points="637.5001,-283.4053 631.3229,-274.7975 630.784,-285.3787 637.5001,-283.4053"/>
</g>
<!-- samples__siteID_siteID__sites_join_No_Rows -->
<g id="node13" class="node">
<title>samples__siteID_siteID__sites_join_No_Rows</title>
<ellipse fill="none" stroke="#000000" cx="794.044" cy="-173.4156" rx="44.0415" ry="18"/>
<text text-anchor="middle" x="794.044" y="-169.2156" font-family="Times,serif" font-size="14.00" fill="#000000">No rows</text>
</g>
<!-- samples__siteID_siteID__sites_join&#45;&gt;samples__siteID_siteID__sites_join_No_Rows -->
<g id="edge12" class="edge">
<title>samples__siteID_siteID__sites_join&#45;&gt;samples__siteID_siteID__sites_join_No_Rows</title>
<path fill="none" stroke="#000000" d="M684.0775,-313.7884C711.3973,-278.9146 750.9315,-228.449 774.4067,-198.4828"/>
<polygon fill="#000000" stroke="#000000" points="777.1668,-200.6349 780.5785,-190.6044 771.6564,-196.318 777.1668,-200.6349"/>
</g>
<!-- samples__siteID_siteID__sites_where -->
<g id="node8" class="node">
<title>samples__siteID_siteID__sites_where</title>
<ellipse fill="none" stroke="#000000" cx="598.044" cy="-173.4156" rx="133.6073" ry="29.3315"/>
<text text-anchor="middle" x="598.044" y="-177.6156" font-family="Times,serif" font-size="14.00" fill="#000000">WHERE</text>
<text text-anchor="middle" x="598.044" y="-160.8156" font-family="Times,serif" font-size="14.00" fill="#000000">sites.healthReg = &quot;Vancouver&quot;</text>
</g>
<!-- samples__siteID_siteID__sites_join_Has_Rows&#45;&gt;samples__siteID_siteID__sites_where -->
<g id="edge7" class="edge">
<title>samples__siteID_siteID__sites_join_Has_Rows&#45;&gt;samples__siteID_siteID__sites_where</title>
<path fill="none" stroke="#000000" d="M619.9684,-238.7313C617.3935,-231.0602 614.2852,-221.8004 611.229,-212.6954"/>
<polygon fill="#000000" stroke="#000000" points="614.461,-211.3252 607.9607,-202.9588 607.8249,-213.5527 614.461,-211.3252"/>
</g>
<!-- samples__siteID_siteID__sites_where_Has_Rows -->
<g id="node9" class="node">
<title>samples__siteID_siteID__sites_where_Has_Rows</title>
<ellipse fill="none" stroke="#000000" cx="361.044" cy="-90" rx="47.4704" ry="18"/>
<text text-anchor="middle" x="361.044" y="-85.8" font-family="Times,serif" font-size="14.00" fill="#000000">Has rows</text>
</g>
<!-- samples__siteID_siteID__sites_where&#45;&gt;samples__siteID_siteID__sites_where_Has_Rows -->
<g id="edge8" class="edge">
<title>samples__siteID_siteID__sites_where&#45;&gt;samples__siteID_siteID__sites_where_Has_Rows</title>
<path fill="none" stroke="#000000" d="M526.9362,-148.3882C487.4732,-134.4986 439.6147,-117.6541 405.4632,-105.634"/>
<polygon fill="#000000" stroke="#000000" points="406.3664,-102.2415 395.7716,-102.2229 404.0423,-108.8444 406.3664,-102.2415"/>
</g>
<!-- samples__siteID_siteID__sites_where_No_Rows -->
<g id="node11" class="node">
<title>samples__siteID_siteID__sites_where_No_Rows</title>
<ellipse fill="none" stroke="#000000" cx="629.044" cy="-90" rx="44.0415" ry="18"/>
<text text-anchor="middle" x="629.044" y="-85.8" font-family="Times,serif" font-size="14.00" fill="#000000">No rows</text>
</g>
<!-- samples__siteID_siteID__sites_where&#45;&gt;samples__siteID_siteID__sites_where_No_Rows -->
<g id="edge10" class="edge">
<title>samples__siteID_siteID__sites_where&#45;&gt;samples__siteID_siteID__sites_where_No_Rows</title>
<path fill="none" stroke="#000000" d="M609.0607,-143.7715C612.2629,-135.1551 615.7443,-125.7872 618.8908,-117.3206"/>
<polygon fill="#000000" stroke="#000000" points="622.1909,-118.4876 622.3937,-107.8947 615.6293,-116.0491 622.1909,-118.4876"/>
</g>
<!-- granted -->
<g id="node10" class="node">
<title>granted</title>
<ellipse fill="none" stroke="#000000" cx="252.044" cy="-18" rx="71.7874" ry="18"/>
<text text-anchor="middle" x="252.044" y="-13.8" font-family="Times,serif" font-size="14.00" fill="#000000">Access Granted</text>
</g>
<!-- samples__siteID_siteID__sites_where_Has_Rows&#45;&gt;granted -->
<g id="edge9" class="edge">
<title>samples__siteID_siteID__sites_where_Has_Rows&#45;&gt;granted</title>
<path fill="none" stroke="#000000" d="M337.3926,-74.3771C322.3567,-64.4451 302.6499,-51.4278 285.9614,-40.4041"/>
<polygon fill="#000000" stroke="#000000" points="287.8233,-37.4394 277.5502,-34.8481 283.9651,-43.2802 287.8233,-37.4394"/>
</g>
<!-- denied -->
<g id="node12" class="node">
<title>denied</title>
<ellipse fill="none" stroke="#000000" cx="680.044" cy="-18" rx="68.8581" ry="18"/>
<text text-anchor="middle" x="680.044" y="-13.8" font-family="Times,serif" font-size="14.00" fill="#000000">Access Denied</text>
</g>
<!-- samples__siteID_siteID__sites_where_No_Rows&#45;&gt;denied -->
<g id="edge11" class="edge">
<title>samples__siteID_siteID__sites_where_No_Rows&#45;&gt;denied</title>
<path fill="none" stroke="#000000" d="M641.3897,-72.5708C647.4385,-64.0312 654.8473,-53.5719 661.5544,-44.1029"/>
<polygon fill="#000000" stroke="#000000" points="664.5336,-45.9522 667.4577,-35.7689 658.8214,-41.9061 664.5336,-45.9522"/>
</g>
<!-- samples__siteID_siteID__sites_join_No_Rows&#45;&gt;denied -->
<g id="edge13" class="edge">
<title>samples__siteID_siteID__sites_join_No_Rows&#45;&gt;denied</title>
<path fill="none" stroke="#000000" d="M781.1884,-155.8896C761.1753,-128.606 722.4551,-75.8189 699.1605,-44.0614"/>
<polygon fill="#000000" stroke="#000000" points="701.7644,-41.6937 693.0276,-35.7004 696.12,-45.8339 701.7644,-41.6937"/>
</g>
<!-- samples__dataID_dataID__datasets_join_Has_Rows -->
<g id="node15" class="node">
<title>samples__dataID_dataID__datasets_join_Has_Rows</title>
<ellipse fill="none" stroke="#000000" cx="266.044" cy="-256.8313" rx="47.4704" ry="18"/>
<text text-anchor="middle" x="266.044" y="-252.6313" font-family="Times,serif" font-size="14.00" fill="#000000">Has rows</text>
</g>
<!-- samples__dataID_dataID__datasets_join&#45;&gt;samples__dataID_dataID__datasets_join_Has_Rows -->
<g id="edge15" class="edge">
<title>samples__dataID_dataID__datasets_join&#45;&gt;samples__dataID_dataID__datasets_join_Has_Rows</title>
<path fill="none" stroke="#000000" d="M378.0151,-319.5977C352.7661,-305.4441 323.9748,-289.3049 301.9104,-276.9365"/>
<polygon fill="#000000" stroke="#000000" points="303.3304,-273.7202 292.896,-271.8834 299.9076,-279.8263 303.3304,-273.7202"/>
</g>
<!-- samples__dataID_dataID__datasets_join_No_Rows -->
<g id="node19" class="node">
<title>samples__dataID_dataID__datasets_join_No_Rows</title>
<ellipse fill="none" stroke="#000000" cx="436.044" cy="-256.8313" rx="44.0415" ry="18"/>
<text text-anchor="middle" x="436.044" y="-252.6313" font-family="Times,serif" font-size="14.00" fill="#000000">No rows</text>
</g>
<!-- samples__dataID_dataID__datasets_join&#45;&gt;samples__dataID_dataID__datasets_join_No_Rows -->
<g id="edge21" class="edge">
<title>samples__dataID_dataID__datasets_join&#45;&gt;samples__dataID_dataID__datasets_join_No_Rows</title>
<path fill="none" stroke="#000000" d="M436.044,-310.6057C436.044,-302.0541 436.044,-293.2347 436.044,-285.2742"/>
<polygon fill="#000000" stroke="#000000" points="439.5441,-285.0572 436.044,-275.0572 432.5441,-285.0572 439.5441,-285.0572"/>
</g>
<!-- samples__dataID_dataID__datasets_where -->
<g id="node16" class="node">
<title>samples__dataID_dataID__datasets_where</title>
<ellipse fill="none" stroke="#000000" cx="204.044" cy="-173.4156" rx="204.088" ry="29.3315"/>
<text text-anchor="middle" x="204.044" y="-177.6156" font-family="Times,serif" font-size="14.00" fill="#000000">WHERE IN</text>
<text text-anchor="middle" x="204.044" y="-160.8156" font-family="Times,serif" font-size="14.00" fill="#000000">datasets.dataID = [&quot;BCCDC&quot;,&quot;NML&#45;WWPCR&quot;]</text>
</g>
<!-- samples__dataID_dataID__datasets_join_Has_Rows&#45;&gt;samples__dataID_dataID__datasets_where -->
<g id="edge16" class="edge">
<title>samples__dataID_dataID__datasets_join_Has_Rows&#45;&gt;samples__dataID_dataID__datasets_where</title>
<path fill="none" stroke="#000000" d="M252.8954,-239.141C246.7859,-230.9212 239.2732,-220.8135 231.9879,-211.0117"/>
<polygon fill="#000000" stroke="#000000" points="234.7319,-208.8362 225.9574,-202.8982 229.1137,-213.012 234.7319,-208.8362"/>
</g>
<!-- samples__dataID_dataID__datasets_where_Has_Rows -->
<g id="node17" class="node">
<title>samples__dataID_dataID__datasets_where_Has_Rows</title>
<ellipse fill="none" stroke="#000000" cx="143.044" cy="-90" rx="47.4704" ry="18"/>
<text text-anchor="middle" x="143.044" y="-85.8" font-family="Times,serif" font-size="14.00" fill="#000000">Has rows</text>
</g>
<!-- samples__dataID_dataID__datasets_where&#45;&gt;samples__dataID_dataID__datasets_where_Has_Rows -->
<g id="edge17" class="edge">
<title>samples__dataID_dataID__datasets_where&#45;&gt;samples__dataID_dataID__datasets_where_Has_Rows</title>
<path fill="none" stroke="#000000" d="M182.3659,-143.7715C175.6187,-134.5449 168.2413,-124.4565 161.7179,-115.5359"/>
<polygon fill="#000000" stroke="#000000" points="164.5017,-113.4133 155.7736,-107.4073 158.8513,-117.5453 164.5017,-113.4133"/>
</g>
<!-- samples__dataID_dataID__datasets_where_No_Rows -->
<g id="node18" class="node">
<title>samples__dataID_dataID__datasets_where_No_Rows</title>
<ellipse fill="none" stroke="#000000" cx="252.044" cy="-90" rx="44.0415" ry="18"/>
<text text-anchor="middle" x="252.044" y="-85.8" font-family="Times,serif" font-size="14.00" fill="#000000">No rows</text>
</g>
<!-- samples__dataID_dataID__datasets_where&#45;&gt;samples__dataID_dataID__datasets_where_No_Rows -->
<g id="edge19" class="edge">
<title>samples__dataID_dataID__datasets_where&#45;&gt;samples__dataID_dataID__datasets_where_No_Rows</title>
<path fill="none" stroke="#000000" d="M221.1022,-143.7715C226.1681,-134.9678 231.6855,-125.3795 236.6398,-116.7697"/>
<polygon fill="#000000" stroke="#000000" points="239.7928,-118.3079 241.7468,-107.8947 233.7256,-114.8166 239.7928,-118.3079"/>
</g>
<!-- samples__dataID_dataID__datasets_where_Has_Rows&#45;&gt;granted -->
<g id="edge18" class="edge">
<title>samples__dataID_dataID__datasets_where_Has_Rows&#45;&gt;granted</title>
<path fill="none" stroke="#000000" d="M166.6954,-74.3771C181.7313,-64.4451 201.4381,-51.4278 218.1266,-40.4041"/>
<polygon fill="#000000" stroke="#000000" points="220.1229,-43.2802 226.5378,-34.8481 216.2647,-37.4394 220.1229,-43.2802"/>
</g>
<!-- samples__dataID_dataID__datasets_where_No_Rows&#45;&gt;denied -->
<g id="edge20" class="edge">
<title>samples__dataID_dataID__datasets_where_No_Rows&#45;&gt;denied</title>
<path fill="none" stroke="#000000" d="M284.8469,-77.812C291.4689,-75.6494 298.429,-73.5852 305.044,-72 407.428,-47.4643 528.3819,-32.4999 604.6585,-24.7298"/>
<polygon fill="#000000" stroke="#000000" points="605.0561,-28.2076 614.6566,-23.7265 604.3571,-21.2425 605.0561,-28.2076"/>
</g>
<!-- samples__dataID_dataID__datasets_join_No_Rows&#45;&gt;denied -->
<g id="edge22" class="edge">
<title>samples__dataID_dataID__datasets_join_No_Rows&#45;&gt;denied</title>
<path fill="none" stroke="#000000" d="M434.6478,-238.7064C433.7362,-214.8769 435.403,-172.6827 455.044,-144 494.5736,-86.2729 569.6863,-52.0713 622.2087,-34.1847"/>
<polygon fill="#000000" stroke="#000000" points="623.344,-37.4957 631.7393,-31.0327 621.146,-30.8498 623.344,-37.4957"/>
</g>
<!-- datasets__dataID_dataID__samples_join_No_Rows&#45;&gt;denied -->
<g id="edge24" class="edge">
<title>datasets__dataID_dataID__samples_join_No_Rows&#45;&gt;denied</title>
<path fill="none" stroke="#000000" d="M803.0941,-429.9351C824.2948,-397.4132 866.044,-324.7477 866.044,-256.8313 866.044,-256.8313 866.044,-256.8313 866.044,-173.4156 866.044,-103.2052 787.0356,-58.497 732.0061,-35.8727"/>
<polygon fill="#000000" stroke="#000000" points="733.3013,-32.6212 722.7162,-32.1672 730.7078,-39.1231 733.3013,-32.6212"/>
</g>
<!-- datasets_where_No_Rows&#45;&gt;denied -->
<g id="edge26" class="edge">
<title>datasets_where_No_Rows&#45;&gt;denied</title>
<path fill="none" stroke="#000000" d="M904.044,-524.5841C904.044,-490.7054 904.044,-415.4909 904.044,-352.1263 904.044,-352.1263 904.044,-352.1263 904.044,-173.4156 904.044,-94.2906 808.5279,-52.2322 742.24,-32.571"/>
<polygon fill="#000000" stroke="#000000" points="742.8565,-29.1069 732.2794,-29.7182 740.9291,-35.8364 742.8565,-29.1069"/>
</g>
</g>
</svg>
