<?xml version="1.0" encoding="UTF-8" standalone="no"?>
<!DOCTYPE svg PUBLIC "-//W3C//DTD SVG 1.1//EN"
 "http://www.w3.org/Graphics/SVG/1.1/DTD/svg11.dtd">
<!-- Generated by graphviz version 2.40.1 (20161225.0304)
 -->
<!-- Title: G Pages: 1 -->
<svg width="640pt" height="1021pt"
 viewBox="0.00 0.00 640.04 1021.43" xmlns="http://www.w3.org/2000/svg" xmlns:xlink="http://www.w3.org/1999/xlink">
<g id="graph0" class="graph" transform="scale(1 1) rotate(0) translate(4 1017.4328)">
<title>G</title>
<polygon fill="#ffffff" stroke="transparent" points="-4,4 -4,-1017.4328 636.0415,-1017.4328 636.0415,4 -4,4"/>
<!-- instruments -->
<g id="node1" class="node">
<title>instruments</title>
<ellipse fill="none" stroke="#000000" cx="494.0208" cy="-995.4328" rx="56.1957" ry="18"/>
<text text-anchor="middle" x="494.0208" y="-991.2328" font-family="Times,serif" font-size="14.00" fill="#000000">instruments</text>
</g>
<!-- instruments__dataID_dataID__datasets_join -->
<g id="node2" class="node">
<title>instruments__dataID_dataID__datasets_join</title>
<ellipse fill="none" stroke="#000000" cx="494.0208" cy="-900.1377" rx="92.8656" ry="41.0911"/>
<text text-anchor="middle" x="494.0208" y="-912.7377" font-family="Times,serif" font-size="14.00" fill="#000000">LEFT JOIN datasets</text>
<text text-anchor="middle" x="494.0208" y="-895.9377" font-family="Times,serif" font-size="14.00" fill="#000000">At level: 3</text>
<text text-anchor="middle" x="494.0208" y="-879.1377" font-family="Times,serif" font-size="14.00" fill="#000000">Required: false</text>
</g>
<!-- instruments&#45;&gt;instruments__dataID_dataID__datasets_join -->
<g id="edge1" class="edge">
<title>instruments&#45;&gt;instruments__dataID_dataID__datasets_join</title>
<path fill="none" stroke="#000000" d="M494.0208,-977.0589C494.0208,-969.7498 494.0208,-960.9402 494.0208,-951.9314"/>
<polygon fill="#000000" stroke="#000000" points="497.5209,-951.7449 494.0208,-941.7449 490.5209,-951.745 497.5209,-951.7449"/>
</g>
<!-- instruments__dataID_dataID__datasets_join_Has_Rows -->
<g id="node3" class="node">
<title>instruments__dataID_dataID__datasets_join_Has_Rows</title>
<ellipse fill="none" stroke="#000000" cx="457.0208" cy="-804.8427" rx="47.4704" ry="18"/>
<text text-anchor="middle" x="457.0208" y="-800.6427" font-family="Times,serif" font-size="14.00" fill="#000000">Has rows</text>
</g>
<!-- instruments__dataID_dataID__datasets_join&#45;&gt;instruments__dataID_dataID__datasets_join_Has_Rows -->
<g id="edge2" class="edge">
<title>instruments__dataID_dataID__datasets_join&#45;&gt;instruments__dataID_dataID__datasets_join_Has_Rows</title>
<path fill="none" stroke="#000000" d="M478.1147,-859.171C474.5671,-850.034 470.8897,-840.5627 467.6183,-832.137"/>
<polygon fill="#000000" stroke="#000000" points="470.8787,-830.8641 463.9965,-822.809 464.3533,-833.3978 470.8787,-830.8641"/>
</g>
<!-- instruments__dataID_dataID__datasets_join_No_Rows -->
<g id="node18" class="node">
<title>instruments__dataID_dataID__datasets_join_No_Rows</title>
<ellipse fill="none" stroke="#000000" cx="588.0208" cy="-721.4271" rx="44.0415" ry="18"/>
<text text-anchor="middle" x="588.0208" y="-717.2271" font-family="Times,serif" font-size="14.00" fill="#000000">No rows</text>
</g>
<!-- instruments__dataID_dataID__datasets_join&#45;&gt;instruments__dataID_dataID__datasets_join_No_Rows -->
<g id="edge20" class="edge">
<title>instruments__dataID_dataID__datasets_join&#45;&gt;instruments__dataID_dataID__datasets_join_No_Rows</title>
<path fill="none" stroke="#000000" d="M515.3508,-859.5855C533.3379,-825.3888 558.5607,-777.4358 574.0678,-747.9542"/>
<polygon fill="#000000" stroke="#000000" points="577.182,-749.5518 578.7396,-739.0721 570.9868,-746.2932 577.182,-749.5518"/>
</g>
<!-- instruments__dataID_dataID__datasets_where -->
<g id="node4" class="node">
<title>instruments__dataID_dataID__datasets_where</title>
<ellipse fill="none" stroke="#000000" cx="402.0208" cy="-721.4271" rx="124.4353" ry="29.3315"/>
<text text-anchor="middle" x="402.0208" y="-725.6271" font-family="Times,serif" font-size="14.00" fill="#000000">WHERE</text>
<text text-anchor="middle" x="402.0208" y="-708.8271" font-family="Times,serif" font-size="14.00" fill="#000000">datasets.dataID = &quot;BCCDC&quot;</text>
</g>
<!-- instruments__dataID_dataID__datasets_join_Has_Rows&#45;&gt;instruments__dataID_dataID__datasets_where -->
<g id="edge3" class="edge">
<title>instruments__dataID_dataID__datasets_join_Has_Rows&#45;&gt;instruments__dataID_dataID__datasets_where</title>
<path fill="none" stroke="#000000" d="M445.3567,-787.1524C439.9424,-778.9409 433.2858,-768.8451 426.8291,-759.0525"/>
<polygon fill="#000000" stroke="#000000" points="429.6693,-757.0018 421.2426,-750.5799 423.8253,-760.8551 429.6693,-757.0018"/>
</g>
<!-- instruments__dataID_dataID__datasets_where_Has_Rows -->
<g id="node5" class="node">
<title>instruments__dataID_dataID__datasets_where_Has_Rows</title>
<ellipse fill="none" stroke="#000000" cx="280.0208" cy="-638.0114" rx="47.4704" ry="18"/>
<text text-anchor="middle" x="280.0208" y="-633.8114" font-family="Times,serif" font-size="14.00" fill="#000000">Has rows</text>
</g>
<!-- instruments__dataID_dataID__datasets_where&#45;&gt;instruments__dataID_dataID__datasets_where_Has_Rows -->
<g id="edge4" class="edge">
<title>instruments__dataID_dataID__datasets_where&#45;&gt;instruments__dataID_dataID__datasets_where_Has_Rows</title>
<path fill="none" stroke="#000000" d="M361.0571,-693.4188C344.9703,-682.4197 326.7921,-669.9906 311.7351,-659.6956"/>
<polygon fill="#000000" stroke="#000000" points="313.5002,-656.6626 303.2698,-653.9076 309.5493,-662.441 313.5002,-656.6626"/>
</g>
<!-- instruments__dataID_dataID__datasets_where_No_Rows -->
<g id="node17" class="node">
<title>instruments__dataID_dataID__datasets_where_No_Rows</title>
<ellipse fill="none" stroke="#000000" cx="429.0208" cy="-542.7164" rx="44.0415" ry="18"/>
<text text-anchor="middle" x="429.0208" y="-538.5164" font-family="Times,serif" font-size="14.00" fill="#000000">No rows</text>
</g>
<!-- instruments__dataID_dataID__datasets_where&#45;&gt;instruments__dataID_dataID__datasets_where_No_Rows -->
<g id="edge18" class="edge">
<title>instruments__dataID_dataID__datasets_where&#45;&gt;instruments__dataID_dataID__datasets_where_No_Rows</title>
<path fill="none" stroke="#000000" d="M406.4793,-691.9166C411.561,-658.2808 419.8062,-603.7069 424.7908,-570.7145"/>
<polygon fill="#000000" stroke="#000000" points="428.2532,-571.2256 426.2864,-560.8149 421.3317,-570.1798 428.2532,-571.2256"/>
</g>
<!-- datasets__dataID_dataID__samples_join -->
<g id="node6" class="node">
<title>datasets__dataID_dataID__samples_join</title>
<ellipse fill="none" stroke="#000000" cx="224.0208" cy="-542.7164" rx="93.4765" ry="41.0911"/>
<text text-anchor="middle" x="224.0208" y="-555.3164" font-family="Times,serif" font-size="14.00" fill="#000000">LEFT JOIN samples</text>
<text text-anchor="middle" x="224.0208" y="-538.5164" font-family="Times,serif" font-size="14.00" fill="#000000">At level: 2</text>
<text text-anchor="middle" x="224.0208" y="-521.7164" font-family="Times,serif" font-size="14.00" fill="#000000">Required: true</text>
</g>
<!-- instruments__dataID_dataID__datasets_where_Has_Rows&#45;&gt;datasets__dataID_dataID__samples_join -->
<g id="edge5" class="edge">
<title>instruments__dataID_dataID__datasets_where_Has_Rows&#45;&gt;datasets__dataID_dataID__samples_join</title>
<path fill="none" stroke="#000000" d="M269.4876,-620.0872C264.7336,-611.9973 258.8612,-602.0042 252.9341,-591.9181"/>
<polygon fill="#000000" stroke="#000000" points="255.8221,-589.9244 247.7381,-583.0761 249.787,-593.4709 255.8221,-589.9244"/>
</g>
<!-- datasets__dataID_dataID__samples_join_Has_Rows -->
<g id="node7" class="node">
<title>datasets__dataID_dataID__samples_join_Has_Rows</title>
<ellipse fill="none" stroke="#000000" cx="224.0208" cy="-447.4214" rx="47.4704" ry="18"/>
<text text-anchor="middle" x="224.0208" y="-443.2214" font-family="Times,serif" font-size="14.00" fill="#000000">Has rows</text>
</g>
<!-- datasets__dataID_dataID__samples_join&#45;&gt;datasets__dataID_dataID__samples_join_Has_Rows -->
<g id="edge6" class="edge">
<title>datasets__dataID_dataID__samples_join&#45;&gt;datasets__dataID_dataID__samples_join_Has_Rows</title>
<path fill="none" stroke="#000000" d="M224.0208,-501.1958C224.0208,-492.6442 224.0208,-483.8248 224.0208,-475.8643"/>
<polygon fill="#000000" stroke="#000000" points="227.5209,-475.6472 224.0208,-465.6473 220.5209,-475.6473 227.5209,-475.6472"/>
</g>
<!-- datasets__dataID_dataID__samples_join_No_Rows -->
<g id="node16" class="node">
<title>datasets__dataID_dataID__samples_join_No_Rows</title>
<ellipse fill="none" stroke="#000000" cx="44.0208" cy="-352.1263" rx="44.0415" ry="18"/>
<text text-anchor="middle" x="44.0208" y="-347.9263" font-family="Times,serif" font-size="14.00" fill="#000000">No rows</text>
</g>
<!-- datasets__dataID_dataID__samples_join&#45;&gt;datasets__dataID_dataID__samples_join_No_Rows -->
<g id="edge16" class="edge">
<title>datasets__dataID_dataID__samples_join&#45;&gt;datasets__dataID_dataID__samples_join_No_Rows</title>
<path fill="none" stroke="#000000" d="M188.0277,-504.6057C151.9351,-466.3897 97.454,-408.7032 66.8936,-376.3449"/>
<polygon fill="#000000" stroke="#000000" points="69.4375,-373.9409 60.0267,-369.0739 64.3484,-378.7473 69.4375,-373.9409"/>
</g>
<!-- samples__dataID_dataID__datasets_join -->
<g id="node8" class="node">
<title>samples__dataID_dataID__datasets_join</title>
<ellipse fill="none" stroke="#000000" cx="224.0208" cy="-352.1263" rx="92.8656" ry="41.0911"/>
<text text-anchor="middle" x="224.0208" y="-364.7263" font-family="Times,serif" font-size="14.00" fill="#000000">LEFT JOIN datasets</text>
<text text-anchor="middle" x="224.0208" y="-347.9263" font-family="Times,serif" font-size="14.00" fill="#000000">At level: 1</text>
<text text-anchor="middle" x="224.0208" y="-331.1263" font-family="Times,serif" font-size="14.00" fill="#000000">Required: true</text>
</g>
<!-- datasets__dataID_dataID__samples_join_Has_Rows&#45;&gt;samples__dataID_dataID__datasets_join -->
<g id="edge7" class="edge">
<title>datasets__dataID_dataID__samples_join_Has_Rows&#45;&gt;samples__dataID_dataID__datasets_join</title>
<path fill="none" stroke="#000000" d="M224.0208,-429.0475C224.0208,-421.7384 224.0208,-412.9288 224.0208,-403.92"/>
<polygon fill="#000000" stroke="#000000" points="227.5209,-403.7335 224.0208,-393.7335 220.5209,-403.7335 227.5209,-403.7335"/>
</g>
<!-- samples__dataID_dataID__datasets_join_Has_Rows -->
<g id="node9" class="node">
<title>samples__dataID_dataID__datasets_join_Has_Rows</title>
<ellipse fill="none" stroke="#000000" cx="255.0208" cy="-256.8313" rx="47.4704" ry="18"/>
<text text-anchor="middle" x="255.0208" y="-252.6313" font-family="Times,serif" font-size="14.00" fill="#000000">Has rows</text>
</g>
<!-- samples__dataID_dataID__datasets_join&#45;&gt;samples__dataID_dataID__datasets_join_Has_Rows -->
<g id="edge8" class="edge">
<title>samples__dataID_dataID__datasets_join&#45;&gt;samples__dataID_dataID__datasets_join_Has_Rows</title>
<path fill="none" stroke="#000000" d="M237.3475,-311.1596C240.2875,-302.1219 243.3339,-292.7571 246.0523,-284.4007"/>
<polygon fill="#000000" stroke="#000000" points="249.411,-285.3898 249.1762,-274.7975 242.7544,-283.2243 249.411,-285.3898"/>
</g>
<!-- samples__dataID_dataID__datasets_join_No_Rows -->
<g id="node15" class="node">
<title>samples__dataID_dataID__datasets_join_No_Rows</title>
<ellipse fill="none" stroke="#000000" cx="100.0208" cy="-173.4156" rx="44.0415" ry="18"/>
<text text-anchor="middle" x="100.0208" y="-169.2156" font-family="Times,serif" font-size="14.00" fill="#000000">No rows</text>
</g>
<!-- samples__dataID_dataID__datasets_join&#45;&gt;samples__dataID_dataID__datasets_join_No_Rows -->
<g id="edge14" class="edge">
<title>samples__dataID_dataID__datasets_join&#45;&gt;samples__dataID_dataID__datasets_join_No_Rows</title>
<path fill="none" stroke="#000000" d="M196.5011,-312.4646C172.5765,-277.984 138.6079,-229.028 118.0125,-199.3456"/>
<polygon fill="#000000" stroke="#000000" points="120.6524,-197.0106 112.076,-190.7899 114.9012,-201.0011 120.6524,-197.0106"/>
</g>
<!-- samples__dataID_dataID__datasets_where -->
<g id="node10" class="node">
<title>samples__dataID_dataID__datasets_where</title>
<ellipse fill="none" stroke="#000000" cx="286.0208" cy="-173.4156" rx="124.4353" ry="29.3315"/>
<text text-anchor="middle" x="286.0208" y="-177.6156" font-family="Times,serif" font-size="14.00" fill="#000000">WHERE</text>
<text text-anchor="middle" x="286.0208" y="-160.8156" font-family="Times,serif" font-size="14.00" fill="#000000">datasets.dataID = &quot;BCCDC&quot;</text>
</g>
<!-- samples__dataID_dataID__datasets_join_Has_Rows&#45;&gt;samples__dataID_dataID__datasets_where -->
<g id="edge9" class="edge">
<title>samples__dataID_dataID__datasets_join_Has_Rows&#45;&gt;samples__dataID_dataID__datasets_where</title>
<path fill="none" stroke="#000000" d="M261.7473,-238.7313C264.6285,-230.9786 268.1127,-221.6032 271.5311,-212.4049"/>
<polygon fill="#000000" stroke="#000000" points="274.8387,-213.5517 275.0416,-202.9588 268.2772,-211.1132 274.8387,-213.5517"/>
</g>
<!-- samples__dataID_dataID__datasets_where_Has_Rows -->
<g id="node11" class="node">
<title>samples__dataID_dataID__datasets_where_Has_Rows</title>
<ellipse fill="none" stroke="#000000" cx="513.0208" cy="-90" rx="47.4704" ry="18"/>
<text text-anchor="middle" x="513.0208" y="-85.8" font-family="Times,serif" font-size="14.00" fill="#000000">Has rows</text>
</g>
<!-- samples__dataID_dataID__datasets_where&#45;&gt;samples__dataID_dataID__datasets_where_Has_Rows -->
<g id="edge10" class="edge">
<title>samples__dataID_dataID__datasets_where&#45;&gt;samples__dataID_dataID__datasets_where_Has_Rows</title>
<path fill="none" stroke="#000000" d="M353.5137,-148.614C390.9401,-134.861 436.4005,-118.1556 469.1989,-106.1032"/>
<polygon fill="#000000" stroke="#000000" points="470.7692,-109.2551 478.9483,-102.5206 468.3548,-102.6846 470.7692,-109.2551"/>
</g>
<!-- samples__dataID_dataID__datasets_where_No_Rows -->
<g id="node13" class="node">
<title>samples__dataID_dataID__datasets_where_No_Rows</title>
<ellipse fill="none" stroke="#000000" cx="240.0208" cy="-90" rx="44.0415" ry="18"/>
<text text-anchor="middle" x="240.0208" y="-85.8" font-family="Times,serif" font-size="14.00" fill="#000000">No rows</text>
</g>
<!-- samples__dataID_dataID__datasets_where&#45;&gt;samples__dataID_dataID__datasets_where_No_Rows -->
<g id="edge12" class="edge">
<title>samples__dataID_dataID__datasets_where&#45;&gt;samples__dataID_dataID__datasets_where_No_Rows</title>
<path fill="none" stroke="#000000" d="M269.9322,-144.2409C264.9327,-135.1749 259.4529,-125.2379 254.565,-116.3743"/>
<polygon fill="#000000" stroke="#000000" points="257.6244,-114.6741 249.7305,-107.6075 251.4947,-118.0544 257.6244,-114.6741"/>
</g>
<!-- granted -->
<g id="node12" class="node">
<title>granted</title>
<ellipse fill="none" stroke="#000000" cx="550.0208" cy="-18" rx="71.7874" ry="18"/>
<text text-anchor="middle" x="550.0208" y="-13.8" font-family="Times,serif" font-size="14.00" fill="#000000">Access Granted</text>
</g>
<!-- samples__dataID_dataID__datasets_where_Has_Rows&#45;&gt;granted -->
<g id="edge11" class="edge">
<title>samples__dataID_dataID__datasets_where_Has_Rows&#45;&gt;granted</title>
<path fill="none" stroke="#000000" d="M522.1668,-72.2022C526.3599,-64.0428 531.4229,-54.1904 536.076,-45.1358"/>
<polygon fill="#000000" stroke="#000000" points="539.2652,-46.5872 540.7229,-36.0931 533.0392,-43.3877 539.2652,-46.5872"/>
</g>
<!-- denied -->
<g id="node14" class="node">
<title>denied</title>
<ellipse fill="none" stroke="#000000" cx="147.0208" cy="-18" rx="68.8581" ry="18"/>
<text text-anchor="middle" x="147.0208" y="-13.8" font-family="Times,serif" font-size="14.00" fill="#000000">Access Denied</text>
</g>
<!-- samples__dataID_dataID__datasets_where_No_Rows&#45;&gt;denied -->
<g id="edge13" class="edge">
<title>samples__dataID_dataID__datasets_where_No_Rows&#45;&gt;denied</title>
<path fill="none" stroke="#000000" d="M219.3811,-74.0209C207.0614,-64.4831 191.1908,-52.1962 177.4534,-41.5607"/>
<polygon fill="#000000" stroke="#000000" points="179.2763,-38.5457 169.2264,-35.1915 174.991,-44.0808 179.2763,-38.5457"/>
</g>
<!-- samples__dataID_dataID__datasets_join_No_Rows&#45;&gt;denied -->
<g id="edge15" class="edge">
<title>samples__dataID_dataID__datasets_join_No_Rows&#45;&gt;denied</title>
<path fill="none" stroke="#000000" d="M105.5042,-155.2833C113.6409,-128.3778 128.979,-77.6589 138.5618,-45.9715"/>
<polygon fill="#000000" stroke="#000000" points="142.0276,-46.6019 141.5722,-36.0168 135.3273,-44.5755 142.0276,-46.6019"/>
</g>
<!-- datasets__dataID_dataID__samples_join_No_Rows&#45;&gt;denied -->
<g id="edge17" class="edge">
<title>datasets__dataID_dataID__samples_join_No_Rows&#45;&gt;denied</title>
<path fill="none" stroke="#000000" d="M40.5164,-334.1809C34.1078,-297.2706 23.2246,-210.7111 47.0208,-144 61.4983,-103.4131 94.8528,-65.9778 119.0689,-42.6399"/>
<polygon fill="#000000" stroke="#000000" points="121.694,-44.9756 126.5747,-35.5719 116.895,-39.8794 121.694,-44.9756"/>
</g>
<!-- instruments__dataID_dataID__datasets_where_No_Rows&#45;&gt;denied -->
<g id="edge19" class="edge">
<title>instruments__dataID_dataID__datasets_where_No_Rows&#45;&gt;denied</title>
<path fill="none" stroke="#000000" d="M430.4468,-524.5975C432.9846,-490.741 438.0208,-415.5615 438.0208,-352.1263 438.0208,-352.1263 438.0208,-352.1263 438.0208,-173.4156 438.0208,-75.4875 308.2118,-39.0424 221.9904,-25.6361"/>
<polygon fill="#000000" stroke="#000000" points="222.3699,-22.1542 211.9647,-24.1496 221.3432,-29.0785 222.3699,-22.1542"/>
</g>
<!-- instruments__dataID_dataID__datasets_join_No_Rows&#45;&gt;granted -->
<g id="edge21" class="edge">
<title>instruments__dataID_dataID__datasets_join_No_Rows&#45;&gt;granted</title>
<path fill="none" stroke="#000000" d="M588.0208,-703.417C588.0208,-671.186 588.0208,-601.511 588.0208,-542.7164 588.0208,-542.7164 588.0208,-542.7164 588.0208,-173.4156 588.0208,-127.7468 572.3467,-76.6338 561.1317,-45.9068"/>
<polygon fill="#000000" stroke="#000000" points="564.3188,-44.4379 557.5283,-36.3052 557.7651,-46.8974 564.3188,-44.4379"/>
</g>
</g>
</svg>
