<?xml version="1.0" encoding="UTF-8" standalone="no"?>
<!DOCTYPE svg PUBLIC "-//W3C//DTD SVG 1.1//EN"
 "http://www.w3.org/Graphics/SVG/1.1/DTD/svg11.dtd">
<!-- Generated by graphviz version 2.40.1 (20161225.0304)
 -->
<!-- Title: G Pages: 1 -->
<svg width="971pt" height="1021pt"
 viewBox="0.00 0.00 971.02 1021.43" xmlns="http://www.w3.org/2000/svg" xmlns:xlink="http://www.w3.org/1999/xlink">
<g id="graph0" class="graph" transform="scale(1 1) rotate(0) translate(4 1017.4328)">
<title>G</title>
<polygon fill="#ffffff" stroke="transparent" points="-4,4 -4,-1017.4328 967.0208,-1017.4328 967.0208,4 -4,4"/>
<!-- instruments -->
<g id="node1" class="node">
<title>instruments</title>
<ellipse fill="none" stroke="#000000" cx="617.0208" cy="-995.4328" rx="56.1957" ry="18"/>
<text text-anchor="middle" x="617.0208" y="-991.2328" font-family="Times,serif" font-size="14.00" fill="#000000">instruments</text>
</g>
<!-- instruments__dataID_dataID__datasets_join -->
<g id="node2" class="node">
<title>instruments__dataID_dataID__datasets_join</title>
<ellipse fill="none" stroke="#000000" cx="617.0208" cy="-900.1377" rx="92.8656" ry="41.0911"/>
<text text-anchor="middle" x="617.0208" y="-912.7377" font-family="Times,serif" font-size="14.00" fill="#000000">LEFT JOIN datasets</text>
<text text-anchor="middle" x="617.0208" y="-895.9377" font-family="Times,serif" font-size="14.00" fill="#000000">At level: 3</text>
<text text-anchor="middle" x="617.0208" y="-879.1377" font-family="Times,serif" font-size="14.00" fill="#000000">Required: false</text>
</g>
<!-- instruments&#45;&gt;instruments__dataID_dataID__datasets_join -->
<g id="edge1" class="edge">
<title>instruments&#45;&gt;instruments__dataID_dataID__datasets_join</title>
<path fill="none" stroke="#000000" d="M617.0208,-977.0589C617.0208,-969.7498 617.0208,-960.9402 617.0208,-951.9314"/>
<polygon fill="#000000" stroke="#000000" points="620.5209,-951.7449 617.0208,-941.7449 613.5209,-951.745 620.5209,-951.7449"/>
</g>
<!-- instruments__dataID_dataID__datasets_join_Has_Rows -->
<g id="node3" class="node">
<title>instruments__dataID_dataID__datasets_join_Has_Rows</title>
<ellipse fill="none" stroke="#000000" cx="580.0208" cy="-804.8427" rx="47.4704" ry="18"/>
<text text-anchor="middle" x="580.0208" y="-800.6427" font-family="Times,serif" font-size="14.00" fill="#000000">Has rows</text>
</g>
<!-- instruments__dataID_dataID__datasets_join&#45;&gt;instruments__dataID_dataID__datasets_join_Has_Rows -->
<g id="edge2" class="edge">
<title>instruments__dataID_dataID__datasets_join&#45;&gt;instruments__dataID_dataID__datasets_join_Has_Rows</title>
<path fill="none" stroke="#000000" d="M601.1147,-859.171C597.5671,-850.034 593.8897,-840.5627 590.6183,-832.137"/>
<polygon fill="#000000" stroke="#000000" points="593.8787,-830.8641 586.9965,-822.809 587.3533,-833.3978 593.8787,-830.8641"/>
</g>
<!-- instruments__dataID_dataID__datasets_join_No_Rows -->
<g id="node24" class="node">
<title>instruments__dataID_dataID__datasets_join_No_Rows</title>
<ellipse fill="none" stroke="#000000" cx="897.0208" cy="-721.4271" rx="44.0415" ry="18"/>
<text text-anchor="middle" x="897.0208" y="-717.2271" font-family="Times,serif" font-size="14.00" fill="#000000">No rows</text>
</g>
<!-- instruments__dataID_dataID__datasets_join&#45;&gt;instruments__dataID_dataID__datasets_join_No_Rows -->
<g id="edge29" class="edge">
<title>instruments__dataID_dataID__datasets_join&#45;&gt;instruments__dataID_dataID__datasets_join_No_Rows</title>
<path fill="none" stroke="#000000" d="M670.3457,-866.103C727.5862,-829.5691 816.6967,-772.6941 864.3497,-742.2794"/>
<polygon fill="#000000" stroke="#000000" points="866.4807,-745.0715 873.0271,-736.7411 862.7146,-739.1709 866.4807,-745.0715"/>
</g>
<!-- instruments__dataID_dataID__datasets_where -->
<g id="node4" class="node">
<title>instruments__dataID_dataID__datasets_where</title>
<ellipse fill="none" stroke="#000000" cx="229.0208" cy="-721.4271" rx="204.088" ry="29.3315"/>
<text text-anchor="middle" x="229.0208" y="-725.6271" font-family="Times,serif" font-size="14.00" fill="#000000">WHERE IN</text>
<text text-anchor="middle" x="229.0208" y="-708.8271" font-family="Times,serif" font-size="14.00" fill="#000000">datasets.dataID = [&quot;BCCDC&quot;,&quot;NML&#45;WWPCR&quot;]</text>
</g>
<!-- instruments__dataID_dataID__datasets_join_Has_Rows&#45;&gt;instruments__dataID_dataID__datasets_where -->
<g id="edge3" class="edge">
<title>instruments__dataID_dataID__datasets_join_Has_Rows&#45;&gt;instruments__dataID_dataID__datasets_where</title>
<path fill="none" stroke="#000000" d="M539.7566,-795.2739C492.4725,-784.0367 411.9565,-764.902 344.7326,-748.9261"/>
<polygon fill="#000000" stroke="#000000" points="345.4546,-745.5003 334.9163,-746.5933 343.836,-752.3106 345.4546,-745.5003"/>
</g>
<!-- instruments__dataID_dataID__datasets_where_Has_Rows -->
<g id="node5" class="node">
<title>instruments__dataID_dataID__datasets_where_Has_Rows</title>
<ellipse fill="none" stroke="#000000" cx="229.0208" cy="-638.0114" rx="47.4704" ry="18"/>
<text text-anchor="middle" x="229.0208" y="-633.8114" font-family="Times,serif" font-size="14.00" fill="#000000">Has rows</text>
</g>
<!-- instruments__dataID_dataID__datasets_where&#45;&gt;instruments__dataID_dataID__datasets_where_Has_Rows -->
<g id="edge4" class="edge">
<title>instruments__dataID_dataID__datasets_where&#45;&gt;instruments__dataID_dataID__datasets_where_Has_Rows</title>
<path fill="none" stroke="#000000" d="M229.0208,-691.783C229.0208,-683.5778 229.0208,-674.691 229.0208,-666.5502"/>
<polygon fill="#000000" stroke="#000000" points="232.5209,-666.398 229.0208,-656.398 225.5209,-666.398 232.5209,-666.398"/>
</g>
<!-- instruments__dataID_dataID__datasets_where_No_Rows -->
<g id="node23" class="node">
<title>instruments__dataID_dataID__datasets_where_No_Rows</title>
<ellipse fill="none" stroke="#000000" cx="44.0208" cy="-542.7164" rx="44.0415" ry="18"/>
<text text-anchor="middle" x="44.0208" y="-538.5164" font-family="Times,serif" font-size="14.00" fill="#000000">No rows</text>
</g>
<!-- instruments__dataID_dataID__datasets_where&#45;&gt;instruments__dataID_dataID__datasets_where_No_Rows -->
<g id="edge27" class="edge">
<title>instruments__dataID_dataID__datasets_where&#45;&gt;instruments__dataID_dataID__datasets_where_No_Rows</title>
<path fill="none" stroke="#000000" d="M198.8856,-692.3164C162.6767,-657.3385 102.6032,-599.3072 68.9076,-566.7572"/>
<polygon fill="#000000" stroke="#000000" points="70.9621,-563.8755 61.3381,-559.445 66.0986,-568.9101 70.9621,-563.8755"/>
</g>
<!-- datasets__dataID_dataID__samples_join -->
<g id="node6" class="node">
<title>datasets__dataID_dataID__samples_join</title>
<ellipse fill="none" stroke="#000000" cx="229.0208" cy="-542.7164" rx="93.4765" ry="41.0911"/>
<text text-anchor="middle" x="229.0208" y="-555.3164" font-family="Times,serif" font-size="14.00" fill="#000000">LEFT JOIN samples</text>
<text text-anchor="middle" x="229.0208" y="-538.5164" font-family="Times,serif" font-size="14.00" fill="#000000">At level: 2</text>
<text text-anchor="middle" x="229.0208" y="-521.7164" font-family="Times,serif" font-size="14.00" fill="#000000">Required: true</text>
</g>
<!-- instruments__dataID_dataID__datasets_where_Has_Rows&#45;&gt;datasets__dataID_dataID__samples_join -->
<g id="edge5" class="edge">
<title>instruments__dataID_dataID__datasets_where_Has_Rows&#45;&gt;datasets__dataID_dataID__samples_join</title>
<path fill="none" stroke="#000000" d="M229.0208,-619.6376C229.0208,-612.3285 229.0208,-603.5189 229.0208,-594.5101"/>
<polygon fill="#000000" stroke="#000000" points="232.5209,-594.3235 229.0208,-584.3236 225.5209,-594.3236 232.5209,-594.3235"/>
</g>
<!-- datasets__dataID_dataID__samples_join_Has_Rows -->
<g id="node7" class="node">
<title>datasets__dataID_dataID__samples_join_Has_Rows</title>
<ellipse fill="none" stroke="#000000" cx="260.0208" cy="-447.4214" rx="47.4704" ry="18"/>
<text text-anchor="middle" x="260.0208" y="-443.2214" font-family="Times,serif" font-size="14.00" fill="#000000">Has rows</text>
</g>
<!-- datasets__dataID_dataID__samples_join&#45;&gt;datasets__dataID_dataID__samples_join_Has_Rows -->
<g id="edge6" class="edge">
<title>datasets__dataID_dataID__samples_join&#45;&gt;datasets__dataID_dataID__samples_join_Has_Rows</title>
<path fill="none" stroke="#000000" d="M242.3475,-501.7497C245.2875,-492.712 248.3339,-483.3472 251.0523,-474.9908"/>
<polygon fill="#000000" stroke="#000000" points="254.411,-475.9798 254.1762,-465.3876 247.7544,-473.8144 254.411,-475.9798"/>
</g>
<!-- datasets__dataID_dataID__samples_join_No_Rows -->
<g id="node22" class="node">
<title>datasets__dataID_dataID__samples_join_No_Rows</title>
<ellipse fill="none" stroke="#000000" cx="135.0208" cy="-447.4214" rx="44.0415" ry="18"/>
<text text-anchor="middle" x="135.0208" y="-443.2214" font-family="Times,serif" font-size="14.00" fill="#000000">No rows</text>
</g>
<!-- datasets__dataID_dataID__samples_join&#45;&gt;datasets__dataID_dataID__samples_join_No_Rows -->
<g id="edge25" class="edge">
<title>datasets__dataID_dataID__samples_join&#45;&gt;datasets__dataID_dataID__samples_join_No_Rows</title>
<path fill="none" stroke="#000000" d="M191.5994,-504.7795C180.5837,-493.612 168.835,-481.7014 158.9145,-471.6443"/>
<polygon fill="#000000" stroke="#000000" points="161.2414,-469.0192 151.7271,-464.3578 156.2579,-473.935 161.2414,-469.0192"/>
</g>
<!-- samples__siteID_siteID__sites_join -->
<g id="node8" class="node">
<title>samples__siteID_siteID__sites_join</title>
<ellipse fill="none" stroke="#000000" cx="260.0208" cy="-352.1263" rx="78.8882" ry="41.0911"/>
<text text-anchor="middle" x="260.0208" y="-364.7263" font-family="Times,serif" font-size="14.00" fill="#000000">LEFT JOIN sites</text>
<text text-anchor="middle" x="260.0208" y="-347.9263" font-family="Times,serif" font-size="14.00" fill="#000000">At level: 1</text>
<text text-anchor="middle" x="260.0208" y="-331.1263" font-family="Times,serif" font-size="14.00" fill="#000000">Required: true</text>
</g>
<!-- datasets__dataID_dataID__samples_join_Has_Rows&#45;&gt;samples__siteID_siteID__sites_join -->
<g id="edge7" class="edge">
<title>datasets__dataID_dataID__samples_join_Has_Rows&#45;&gt;samples__siteID_siteID__sites_join</title>
<path fill="none" stroke="#000000" d="M260.0208,-429.0475C260.0208,-421.7384 260.0208,-412.9288 260.0208,-403.92"/>
<polygon fill="#000000" stroke="#000000" points="263.5209,-403.7335 260.0208,-393.7335 256.5209,-403.7335 263.5209,-403.7335"/>
</g>
<!-- samples__dataID_dataID__datasets_join -->
<g id="node16" class="node">
<title>samples__dataID_dataID__datasets_join</title>
<ellipse fill="none" stroke="#000000" cx="499.0208" cy="-352.1263" rx="92.8656" ry="41.0911"/>
<text text-anchor="middle" x="499.0208" y="-364.7263" font-family="Times,serif" font-size="14.00" fill="#000000">LEFT JOIN datasets</text>
<text text-anchor="middle" x="499.0208" y="-347.9263" font-family="Times,serif" font-size="14.00" fill="#000000">At level: 1</text>
<text text-anchor="middle" x="499.0208" y="-331.1263" font-family="Times,serif" font-size="14.00" fill="#000000">Required: true</text>
</g>
<!-- datasets__dataID_dataID__samples_join_Has_Rows&#45;&gt;samples__dataID_dataID__datasets_join -->
<g id="edge16" class="edge">
<title>datasets__dataID_dataID__samples_join_Has_Rows&#45;&gt;samples__dataID_dataID__datasets_join</title>
<path fill="none" stroke="#000000" d="M292.7516,-434.3708C325.5053,-421.3111 377.128,-400.7279 420.5345,-383.4207"/>
<polygon fill="#000000" stroke="#000000" points="421.9534,-386.623 429.946,-379.6681 419.3608,-380.1208 421.9534,-386.623"/>
</g>
<!-- samples__siteID_siteID__sites_join_Has_Rows -->
<g id="node9" class="node">
<title>samples__siteID_siteID__sites_join_Has_Rows</title>
<ellipse fill="none" stroke="#000000" cx="277.0208" cy="-256.8313" rx="47.4704" ry="18"/>
<text text-anchor="middle" x="277.0208" y="-252.6313" font-family="Times,serif" font-size="14.00" fill="#000000">Has rows</text>
</g>
<!-- samples__siteID_siteID__sites_join&#45;&gt;samples__siteID_siteID__sites_join_Has_Rows -->
<g id="edge8" class="edge">
<title>samples__siteID_siteID__sites_join&#45;&gt;samples__siteID_siteID__sites_join_Has_Rows</title>
<path fill="none" stroke="#000000" d="M267.3783,-310.8828C268.9257,-302.2088 270.5245,-293.2465 271.9646,-285.174"/>
<polygon fill="#000000" stroke="#000000" points="275.438,-285.6327 273.7487,-275.1734 268.5468,-284.4033 275.438,-285.6327"/>
</g>
<!-- samples__siteID_siteID__sites_join_No_Rows -->
<g id="node15" class="node">
<title>samples__siteID_siteID__sites_join_No_Rows</title>
<ellipse fill="none" stroke="#000000" cx="141.0208" cy="-173.4156" rx="44.0415" ry="18"/>
<text text-anchor="middle" x="141.0208" y="-169.2156" font-family="Times,serif" font-size="14.00" fill="#000000">No rows</text>
</g>
<!-- samples__siteID_siteID__sites_join&#45;&gt;samples__siteID_siteID__sites_join_No_Rows -->
<g id="edge14" class="edge">
<title>samples__siteID_siteID__sites_join&#45;&gt;samples__siteID_siteID__sites_join_No_Rows</title>
<path fill="none" stroke="#000000" d="M233.9057,-312.9075C210.9646,-278.4552 178.2334,-229.3005 158.3748,-199.4775"/>
<polygon fill="#000000" stroke="#000000" points="161.106,-197.264 152.6502,-190.8804 155.2795,-201.1438 161.106,-197.264"/>
</g>
<!-- samples__siteID_siteID__sites_where -->
<g id="node10" class="node">
<title>samples__siteID_siteID__sites_where</title>
<ellipse fill="none" stroke="#000000" cx="337.0208" cy="-173.4156" rx="133.6073" ry="29.3315"/>
<text text-anchor="middle" x="337.0208" y="-177.6156" font-family="Times,serif" font-size="14.00" fill="#000000">WHERE</text>
<text text-anchor="middle" x="337.0208" y="-160.8156" font-family="Times,serif" font-size="14.00" fill="#000000">sites.healthReg = &quot;Vancouver&quot;</text>
</g>
<!-- samples__siteID_siteID__sites_join_Has_Rows&#45;&gt;samples__siteID_siteID__sites_where -->
<g id="edge9" class="edge">
<title>samples__siteID_siteID__sites_join_Has_Rows&#45;&gt;samples__siteID_siteID__sites_where</title>
<path fill="none" stroke="#000000" d="M289.7452,-239.141C295.7114,-230.8465 303.0603,-220.6296 310.1706,-210.7444"/>
<polygon fill="#000000" stroke="#000000" points="313.0535,-212.7303 316.0515,-202.5684 307.3709,-208.6428 313.0535,-212.7303"/>
</g>
<!-- samples__siteID_siteID__sites_where_Has_Rows -->
<g id="node11" class="node">
<title>samples__siteID_siteID__sites_where_Has_Rows</title>
<ellipse fill="none" stroke="#000000" cx="680.0208" cy="-90" rx="47.4704" ry="18"/>
<text text-anchor="middle" x="680.0208" y="-85.8" font-family="Times,serif" font-size="14.00" fill="#000000">Has rows</text>
</g>
<!-- samples__siteID_siteID__sites_where&#45;&gt;samples__siteID_siteID__sites_where_Has_Rows -->
<g id="edge10" class="edge">
<title>samples__siteID_siteID__sites_where&#45;&gt;samples__siteID_siteID__sites_where_Has_Rows</title>
<path fill="none" stroke="#000000" d="M434.8506,-153.3241C490.5851,-141.3277 561.5507,-125.1244 624.0208,-108 627.4232,-107.0673 630.9272,-106.0586 634.4433,-105.0112"/>
<polygon fill="#000000" stroke="#000000" points="635.7741,-108.2642 644.3104,-101.9888 633.7238,-101.5712 635.7741,-108.2642"/>
</g>
<!-- samples__siteID_siteID__sites_where_No_Rows -->
<g id="node13" class="node">
<title>samples__siteID_siteID__sites_where_No_Rows</title>
<ellipse fill="none" stroke="#000000" cx="288.0208" cy="-90" rx="44.0415" ry="18"/>
<text text-anchor="middle" x="288.0208" y="-85.8" font-family="Times,serif" font-size="14.00" fill="#000000">No rows</text>
</g>
<!-- samples__siteID_siteID__sites_where&#45;&gt;samples__siteID_siteID__sites_where_No_Rows -->
<g id="edge12" class="edge">
<title>samples__siteID_siteID__sites_where&#45;&gt;samples__siteID_siteID__sites_where_No_Rows</title>
<path fill="none" stroke="#000000" d="M319.8829,-144.2409C314.5574,-135.1749 308.7202,-125.2379 303.5135,-116.3743"/>
<polygon fill="#000000" stroke="#000000" points="306.4466,-114.4571 298.3638,-107.6075 300.4109,-118.0027 306.4466,-114.4571"/>
</g>
<!-- granted -->
<g id="node12" class="node">
<title>granted</title>
<ellipse fill="none" stroke="#000000" cx="792.0208" cy="-18" rx="71.7874" ry="18"/>
<text text-anchor="middle" x="792.0208" y="-13.8" font-family="Times,serif" font-size="14.00" fill="#000000">Access Granted</text>
</g>
<!-- samples__siteID_siteID__sites_where_Has_Rows&#45;&gt;granted -->
<g id="edge11" class="edge">
<title>samples__siteID_siteID__sites_where_Has_Rows&#45;&gt;granted</title>
<path fill="none" stroke="#000000" d="M704.3231,-74.3771C719.7728,-64.4451 740.022,-51.4278 757.1699,-40.4041"/>
<polygon fill="#000000" stroke="#000000" points="759.2934,-43.1999 765.8126,-34.8481 755.5081,-37.3116 759.2934,-43.1999"/>
</g>
<!-- denied -->
<g id="node14" class="node">
<title>denied</title>
<ellipse fill="none" stroke="#000000" cx="190.0208" cy="-18" rx="68.8581" ry="18"/>
<text text-anchor="middle" x="190.0208" y="-13.8" font-family="Times,serif" font-size="14.00" fill="#000000">Access Denied</text>
</g>
<!-- samples__siteID_siteID__sites_where_No_Rows&#45;&gt;denied -->
<g id="edge13" class="edge">
<title>samples__siteID_siteID__sites_where_No_Rows&#45;&gt;denied</title>
<path fill="none" stroke="#000000" d="M266.2714,-74.0209C253.1669,-64.3931 236.2497,-51.9641 221.6805,-41.2602"/>
<polygon fill="#000000" stroke="#000000" points="223.5514,-38.2917 213.4203,-35.1915 219.4068,-43.9329 223.5514,-38.2917"/>
</g>
<!-- samples__siteID_siteID__sites_join_No_Rows&#45;&gt;denied -->
<g id="edge15" class="edge">
<title>samples__siteID_siteID__sites_join_No_Rows&#45;&gt;denied</title>
<path fill="none" stroke="#000000" d="M146.7376,-155.2833C155.2573,-128.2609 171.3505,-77.2175 181.3318,-45.5593"/>
<polygon fill="#000000" stroke="#000000" points="184.6714,-46.6065 184.3404,-36.0168 177.9953,-44.5016 184.6714,-46.6065"/>
</g>
<!-- samples__dataID_dataID__datasets_join_Has_Rows -->
<g id="node17" class="node">
<title>samples__dataID_dataID__datasets_join_Has_Rows</title>
<ellipse fill="none" stroke="#000000" cx="670.0208" cy="-256.8313" rx="47.4704" ry="18"/>
<text text-anchor="middle" x="670.0208" y="-252.6313" font-family="Times,serif" font-size="14.00" fill="#000000">Has rows</text>
</g>
<!-- samples__dataID_dataID__datasets_join&#45;&gt;samples__dataID_dataID__datasets_join_Has_Rows -->
<g id="edge17" class="edge">
<title>samples__dataID_dataID__datasets_join&#45;&gt;samples__dataID_dataID__datasets_join_Has_Rows</title>
<path fill="none" stroke="#000000" d="M556.9136,-319.8638C582.6314,-305.5317 612.0824,-289.1192 634.4841,-276.6352"/>
<polygon fill="#000000" stroke="#000000" points="636.2824,-279.6399 643.3138,-271.7146 632.8748,-273.5253 636.2824,-279.6399"/>
</g>
<!-- samples__dataID_dataID__datasets_join_No_Rows -->
<g id="node21" class="node">
<title>samples__dataID_dataID__datasets_join_No_Rows</title>
<ellipse fill="none" stroke="#000000" cx="499.0208" cy="-256.8313" rx="44.0415" ry="18"/>
<text text-anchor="middle" x="499.0208" y="-252.6313" font-family="Times,serif" font-size="14.00" fill="#000000">No rows</text>
</g>
<!-- samples__dataID_dataID__datasets_join&#45;&gt;samples__dataID_dataID__datasets_join_No_Rows -->
<g id="edge23" class="edge">
<title>samples__dataID_dataID__datasets_join&#45;&gt;samples__dataID_dataID__datasets_join_No_Rows</title>
<path fill="none" stroke="#000000" d="M499.0208,-310.6057C499.0208,-302.0541 499.0208,-293.2347 499.0208,-285.2742"/>
<polygon fill="#000000" stroke="#000000" points="502.5209,-285.0572 499.0208,-275.0572 495.5209,-285.0572 502.5209,-285.0572"/>
</g>
<!-- samples__dataID_dataID__datasets_where -->
<g id="node18" class="node">
<title>samples__dataID_dataID__datasets_where</title>
<ellipse fill="none" stroke="#000000" cx="731.0208" cy="-173.4156" rx="204.088" ry="29.3315"/>
<text text-anchor="middle" x="731.0208" y="-177.6156" font-family="Times,serif" font-size="14.00" fill="#000000">WHERE IN</text>
<text text-anchor="middle" x="731.0208" y="-160.8156" font-family="Times,serif" font-size="14.00" fill="#000000">datasets.dataID = [&quot;BCCDC&quot;,&quot;NML&#45;WWPCR&quot;]</text>
</g>
<!-- samples__dataID_dataID__datasets_join_Has_Rows&#45;&gt;samples__dataID_dataID__datasets_where -->
<g id="edge18" class="edge">
<title>samples__dataID_dataID__datasets_join_Has_Rows&#45;&gt;samples__dataID_dataID__datasets_where</title>
<path fill="none" stroke="#000000" d="M682.9573,-239.141C688.9682,-230.9212 696.3598,-220.8135 703.5276,-211.0117"/>
<polygon fill="#000000" stroke="#000000" points="706.3831,-213.0362 709.4608,-202.8982 700.7327,-208.9042 706.3831,-213.0362"/>
</g>
<!-- samples__dataID_dataID__datasets_where_Has_Rows -->
<g id="node19" class="node">
<title>samples__dataID_dataID__datasets_where_Has_Rows</title>
<ellipse fill="none" stroke="#000000" cx="792.0208" cy="-90" rx="47.4704" ry="18"/>
<text text-anchor="middle" x="792.0208" y="-85.8" font-family="Times,serif" font-size="14.00" fill="#000000">Has rows</text>
</g>
<!-- samples__dataID_dataID__datasets_where&#45;&gt;samples__dataID_dataID__datasets_where_Has_Rows -->
<g id="edge19" class="edge">
<title>samples__dataID_dataID__datasets_where&#45;&gt;samples__dataID_dataID__datasets_where_Has_Rows</title>
<path fill="none" stroke="#000000" d="M752.6988,-143.7715C759.4461,-134.5449 766.8235,-124.4565 773.3469,-115.5359"/>
<polygon fill="#000000" stroke="#000000" points="776.2135,-117.5453 779.2912,-107.4073 770.5631,-113.4133 776.2135,-117.5453"/>
</g>
<!-- samples__dataID_dataID__datasets_where_No_Rows -->
<g id="node20" class="node">
<title>samples__dataID_dataID__datasets_where_No_Rows</title>
<ellipse fill="none" stroke="#000000" cx="571.0208" cy="-90" rx="44.0415" ry="18"/>
<text text-anchor="middle" x="571.0208" y="-85.8" font-family="Times,serif" font-size="14.00" fill="#000000">No rows</text>
</g>
<!-- samples__dataID_dataID__datasets_where&#45;&gt;samples__dataID_dataID__datasets_where_No_Rows -->
<g id="edge21" class="edge">
<title>samples__dataID_dataID__datasets_where&#45;&gt;samples__dataID_dataID__datasets_where_No_Rows</title>
<path fill="none" stroke="#000000" d="M676.4053,-144.942C653.6388,-133.0727 627.8123,-119.6081 607.4245,-108.979"/>
<polygon fill="#000000" stroke="#000000" points="608.9556,-105.8302 598.4703,-104.3108 605.7195,-112.0373 608.9556,-105.8302"/>
</g>
<!-- samples__dataID_dataID__datasets_where_Has_Rows&#45;&gt;granted -->
<g id="edge20" class="edge">
<title>samples__dataID_dataID__datasets_where_Has_Rows&#45;&gt;granted</title>
<path fill="none" stroke="#000000" d="M792.0208,-71.8314C792.0208,-64.131 792.0208,-54.9743 792.0208,-46.4166"/>
<polygon fill="#000000" stroke="#000000" points="795.5209,-46.4132 792.0208,-36.4133 788.5209,-46.4133 795.5209,-46.4132"/>
</g>
<!-- samples__dataID_dataID__datasets_where_No_Rows&#45;&gt;denied -->
<g id="edge22" class="edge">
<title>samples__dataID_dataID__datasets_where_No_Rows&#45;&gt;denied</title>
<path fill="none" stroke="#000000" d="M536.8834,-78.5647C529.0954,-76.1913 520.8166,-73.8524 513.0208,-72 427.8304,-51.7578 328.2391,-36.3271 262.407,-27.2448"/>
<polygon fill="#000000" stroke="#000000" points="262.5203,-23.7279 252.1386,-25.8419 261.5727,-30.6635 262.5203,-23.7279"/>
</g>
<!-- samples__dataID_dataID__datasets_join_No_Rows&#45;&gt;denied -->
<g id="edge24" class="edge">
<title>samples__dataID_dataID__datasets_join_No_Rows&#45;&gt;denied</title>
<path fill="none" stroke="#000000" d="M500.6678,-238.5291C501.857,-214.5034 500.4969,-172.0926 480.0208,-144 428.66,-73.5346 329.3844,-42.0044 261.4298,-28.2213"/>
<polygon fill="#000000" stroke="#000000" points="261.7071,-24.7097 251.2228,-26.236 260.3706,-31.5809 261.7071,-24.7097"/>
</g>
<!-- datasets__dataID_dataID__samples_join_No_Rows&#45;&gt;denied -->
<g id="edge26" class="edge">
<title>datasets__dataID_dataID__samples_join_No_Rows&#45;&gt;denied</title>
<path fill="none" stroke="#000000" d="M124.4167,-429.7349C105.7601,-396.8875 69.0208,-323.7125 69.0208,-256.8313 69.0208,-256.8313 69.0208,-256.8313 69.0208,-173.4156 69.0208,-116.5908 120.0068,-68.0518 155.7855,-40.9858"/>
<polygon fill="#000000" stroke="#000000" points="158.0816,-43.6418 164.0632,-34.8971 153.9339,-38.0029 158.0816,-43.6418"/>
</g>
<!-- instruments__dataID_dataID__datasets_where_No_Rows&#45;&gt;denied -->
<g id="edge28" class="edge">
<title>instruments__dataID_dataID__datasets_where_No_Rows&#45;&gt;denied</title>
<path fill="none" stroke="#000000" d="M41.9609,-524.6121C38.2952,-490.7796 31.0208,-415.6381 31.0208,-352.1263 31.0208,-352.1263 31.0208,-352.1263 31.0208,-173.4156 31.0208,-121.4914 51.785,-108.1887 89.0208,-72 103.9558,-57.4849 123.5773,-45.8077 141.55,-37.0761"/>
<polygon fill="#000000" stroke="#000000" points="143.181,-40.1775 150.7648,-32.7791 140.2226,-33.8333 143.181,-40.1775"/>
</g>
<!-- instruments__dataID_dataID__datasets_join_No_Rows&#45;&gt;granted -->
<g id="edge30" class="edge">
<title>instruments__dataID_dataID__datasets_join_No_Rows&#45;&gt;granted</title>
<path fill="none" stroke="#000000" d="M908.2168,-703.9566C927.0469,-672.8447 963.0208,-605.227 963.0208,-542.7164 963.0208,-542.7164 963.0208,-542.7164 963.0208,-173.4156 963.0208,-106.758 890.9831,-61.157 840.4206,-37.3598"/>
<polygon fill="#000000" stroke="#000000" points="841.8017,-34.1428 831.2516,-33.1699 838.8923,-40.5096 841.8017,-34.1428"/>
</g>
</g>
</svg>
