<?xml version="1.0" encoding="UTF-8" standalone="no"?>
<!DOCTYPE svg PUBLIC "-//W3C//DTD SVG 1.1//EN"
 "http://www.w3.org/Graphics/SVG/1.1/DTD/svg11.dtd">
<!-- Generated by graphviz version 2.40.1 (20161225.0304)
 -->
<!-- Title: G Pages: 1 -->
<svg width="897pt" height="664pt"
 viewBox="0.00 0.00 896.57 664.01" xmlns="http://www.w3.org/2000/svg" xmlns:xlink="http://www.w3.org/1999/xlink">
<g id="graph0" class="graph" transform="scale(1 1) rotate(0) translate(4 660.0114)">
<title>G</title>
<polygon fill="#ffffff" stroke="transparent" points="-4,4 -4,-660.0114 892.5744,-660.0114 892.5744,4 -4,4"/>
<!-- measureSets -->
<g id="node1" class="node">
<title>measureSets</title>
<ellipse fill="none" stroke="#000000" cx="709.5537" cy="-638.0114" rx="59.1045" ry="18"/>
<text text-anchor="middle" x="709.5537" y="-633.8114" font-family="Times,serif" font-size="14.00" fill="#000000">measureSets</text>
</g>
<!-- measureSets__measSetRepID_measSetRepID__measures_join -->
<g id="node2" class="node">
<title>measureSets__measSetRepID_measSetRepID__measures_join</title>
<ellipse fill="none" stroke="#000000" cx="709.5537" cy="-542.7164" rx="98.354" ry="41.0911"/>
<text text-anchor="middle" x="709.5537" y="-555.3164" font-family="Times,serif" font-size="14.00" fill="#000000">LEFT JOIN measures</text>
<text text-anchor="middle" x="709.5537" y="-538.5164" font-family="Times,serif" font-size="14.00" fill="#000000">At level: 2</text>
<text text-anchor="middle" x="709.5537" y="-521.7164" font-family="Times,serif" font-size="14.00" fill="#000000">Required: true</text>
</g>
<!-- measureSets&#45;&gt;measureSets__measSetRepID_measSetRepID__measures_join -->
<g id="edge1" class="edge">
<title>measureSets&#45;&gt;measureSets__measSetRepID_measSetRepID__measures_join</title>
<path fill="none" stroke="#000000" d="M709.5537,-619.6376C709.5537,-612.3285 709.5537,-603.5189 709.5537,-594.5101"/>
<polygon fill="#000000" stroke="#000000" points="713.0538,-594.3235 709.5537,-584.3236 706.0538,-594.3236 713.0538,-594.3235"/>
</g>
<!-- measureSets__measSetRepID_measSetRepID__measures_join_Has_Rows -->
<g id="node3" class="node">
<title>measureSets__measSetRepID_measSetRepID__measures_join_Has_Rows</title>
<ellipse fill="none" stroke="#000000" cx="655.5537" cy="-447.4214" rx="47.4704" ry="18"/>
<text text-anchor="middle" x="655.5537" y="-443.2214" font-family="Times,serif" font-size="14.00" fill="#000000">Has rows</text>
</g>
<!-- measureSets__measSetRepID_measSetRepID__measures_join&#45;&gt;measureSets__measSetRepID_measSetRepID__measures_join_Has_Rows -->
<g id="edge2" class="edge">
<title>measureSets__measSetRepID_measSetRepID__measures_join&#45;&gt;measureSets__measSetRepID_measSetRepID__measures_join_Has_Rows</title>
<path fill="none" stroke="#000000" d="M686.6528,-502.3027C681.2486,-492.7659 675.6202,-482.8332 670.6607,-474.0812"/>
<polygon fill="#000000" stroke="#000000" points="673.5593,-472.097 665.5841,-465.1223 667.4691,-475.5481 673.5593,-472.097"/>
</g>
<!-- measureSets__measSetRepID_measSetRepID__measures_join_No_Rows -->
<g id="node18" class="node">
<title>measureSets__measSetRepID_measSetRepID__measures_join_No_Rows</title>
<ellipse fill="none" stroke="#000000" cx="844.5537" cy="-447.4214" rx="44.0415" ry="18"/>
<text text-anchor="middle" x="844.5537" y="-443.2214" font-family="Times,serif" font-size="14.00" fill="#000000">No rows</text>
</g>
<!-- measureSets__measSetRepID_measSetRepID__measures_join&#45;&gt;measureSets__measSetRepID_measSetRepID__measures_join_No_Rows -->
<g id="edge21" class="edge">
<title>measureSets__measSetRepID_measSetRepID__measures_join&#45;&gt;measureSets__measSetRepID_measSetRepID__measures_join_No_Rows</title>
<path fill="none" stroke="#000000" d="M759.8227,-507.232C778.0393,-494.3731 798.0504,-480.2475 814.0492,-468.9541"/>
<polygon fill="#000000" stroke="#000000" points="816.3365,-471.6237 822.4878,-462.9974 812.2997,-465.905 816.3365,-471.6237"/>
</g>
<!-- measures__siteID_siteID__sites_join -->
<g id="node4" class="node">
<title>measures__siteID_siteID__sites_join</title>
<ellipse fill="none" stroke="#000000" cx="329.5537" cy="-352.1263" rx="78.8882" ry="41.0911"/>
<text text-anchor="middle" x="329.5537" y="-364.7263" font-family="Times,serif" font-size="14.00" fill="#000000">LEFT JOIN sites</text>
<text text-anchor="middle" x="329.5537" y="-347.9263" font-family="Times,serif" font-size="14.00" fill="#000000">At level: 1</text>
<text text-anchor="middle" x="329.5537" y="-331.1263" font-family="Times,serif" font-size="14.00" fill="#000000">Required: true</text>
</g>
<!-- measureSets__measSetRepID_measSetRepID__measures_join_Has_Rows&#45;&gt;measures__siteID_siteID__sites_join -->
<g id="edge3" class="edge">
<title>measureSets__measSetRepID_measSetRepID__measures_join_Has_Rows&#45;&gt;measures__siteID_siteID__sites_join</title>
<path fill="none" stroke="#000000" d="M617.8388,-436.3967C566.8794,-421.5004 474.7805,-394.5784 408.3735,-375.1666"/>
<polygon fill="#000000" stroke="#000000" points="409.3505,-371.8058 398.7701,-372.3594 407.3864,-378.5246 409.3505,-371.8058"/>
</g>
<!-- measures__dataID_dataID__datasets_join -->
<g id="node12" class="node">
<title>measures__dataID_dataID__datasets_join</title>
<ellipse fill="none" stroke="#000000" cx="655.5537" cy="-352.1263" rx="92.8656" ry="41.0911"/>
<text text-anchor="middle" x="655.5537" y="-364.7263" font-family="Times,serif" font-size="14.00" fill="#000000">LEFT JOIN datasets</text>
<text text-anchor="middle" x="655.5537" y="-347.9263" font-family="Times,serif" font-size="14.00" fill="#000000">At level: 1</text>
<text text-anchor="middle" x="655.5537" y="-331.1263" font-family="Times,serif" font-size="14.00" fill="#000000">Required: true</text>
</g>
<!-- measureSets__measSetRepID_measSetRepID__measures_join_Has_Rows&#45;&gt;measures__dataID_dataID__datasets_join -->
<g id="edge12" class="edge">
<title>measureSets__measSetRepID_measSetRepID__measures_join_Has_Rows&#45;&gt;measures__dataID_dataID__datasets_join</title>
<path fill="none" stroke="#000000" d="M655.5537,-429.0475C655.5537,-421.7384 655.5537,-412.9288 655.5537,-403.92"/>
<polygon fill="#000000" stroke="#000000" points="659.0538,-403.7335 655.5537,-393.7335 652.0538,-403.7335 659.0538,-403.7335"/>
</g>
<!-- measures__siteID_siteID__sites_join_Has_Rows -->
<g id="node5" class="node">
<title>measures__siteID_siteID__sites_join_Has_Rows</title>
<ellipse fill="none" stroke="#000000" cx="194.5537" cy="-256.8313" rx="47.4704" ry="18"/>
<text text-anchor="middle" x="194.5537" y="-252.6313" font-family="Times,serif" font-size="14.00" fill="#000000">Has rows</text>
</g>
<!-- measures__siteID_siteID__sites_join&#45;&gt;measures__siteID_siteID__sites_join_Has_Rows -->
<g id="edge4" class="edge">
<title>measures__siteID_siteID__sites_join&#45;&gt;measures__siteID_siteID__sites_join_Has_Rows</title>
<path fill="none" stroke="#000000" d="M282.3372,-318.7967C263.56,-305.5421 242.4743,-290.6579 225.6753,-278.7997"/>
<polygon fill="#000000" stroke="#000000" points="227.5043,-275.8066 217.3162,-272.8991 223.4675,-281.5254 227.5043,-275.8066"/>
</g>
<!-- measures__siteID_siteID__sites_join_No_Rows -->
<g id="node11" class="node">
<title>measures__siteID_siteID__sites_join_No_Rows</title>
<ellipse fill="none" stroke="#000000" cx="329.5537" cy="-173.4156" rx="44.0415" ry="18"/>
<text text-anchor="middle" x="329.5537" y="-169.2156" font-family="Times,serif" font-size="14.00" fill="#000000">No rows</text>
</g>
<!-- measures__siteID_siteID__sites_join&#45;&gt;measures__siteID_siteID__sites_join_No_Rows -->
<g id="edge10" class="edge">
<title>measures__siteID_siteID__sites_join&#45;&gt;measures__siteID_siteID__sites_join_No_Rows</title>
<path fill="none" stroke="#000000" d="M329.5537,-310.6773C329.5537,-277.3966 329.5537,-231.5276 329.5537,-202.1677"/>
<polygon fill="#000000" stroke="#000000" points="333.0538,-201.7842 329.5537,-191.7843 326.0538,-201.7843 333.0538,-201.7842"/>
</g>
<!-- measures__siteID_siteID__sites_where -->
<g id="node6" class="node">
<title>measures__siteID_siteID__sites_where</title>
<ellipse fill="none" stroke="#000000" cx="133.5537" cy="-173.4156" rx="133.6073" ry="29.3315"/>
<text text-anchor="middle" x="133.5537" y="-177.6156" font-family="Times,serif" font-size="14.00" fill="#000000">WHERE</text>
<text text-anchor="middle" x="133.5537" y="-160.8156" font-family="Times,serif" font-size="14.00" fill="#000000">sites.healthReg = &quot;Vancouver&quot;</text>
</g>
<!-- measures__siteID_siteID__sites_join_Has_Rows&#45;&gt;measures__siteID_siteID__sites_where -->
<g id="edge5" class="edge">
<title>measures__siteID_siteID__sites_join_Has_Rows&#45;&gt;measures__siteID_siteID__sites_where</title>
<path fill="none" stroke="#000000" d="M181.6171,-239.141C175.5516,-230.8465 168.0802,-220.6296 160.8514,-210.7444"/>
<polygon fill="#000000" stroke="#000000" points="163.6005,-208.5744 154.8724,-202.5684 157.9501,-212.7064 163.6005,-208.5744"/>
</g>
<!-- measures__siteID_siteID__sites_where_Has_Rows -->
<g id="node7" class="node">
<title>measures__siteID_siteID__sites_where_Has_Rows</title>
<ellipse fill="none" stroke="#000000" cx="149.5537" cy="-90" rx="47.4704" ry="18"/>
<text text-anchor="middle" x="149.5537" y="-85.8" font-family="Times,serif" font-size="14.00" fill="#000000">Has rows</text>
</g>
<!-- measures__siteID_siteID__sites_where&#45;&gt;measures__siteID_siteID__sites_where_Has_Rows -->
<g id="edge6" class="edge">
<title>measures__siteID_siteID__sites_where&#45;&gt;measures__siteID_siteID__sites_where_Has_Rows</title>
<path fill="none" stroke="#000000" d="M139.2397,-143.7715C140.8312,-135.4742 142.5564,-126.4798 144.1322,-118.2646"/>
<polygon fill="#000000" stroke="#000000" points="147.5804,-118.8669 146.0269,-108.3866 140.7057,-117.5482 147.5804,-118.8669"/>
</g>
<!-- measures__siteID_siteID__sites_where_No_Rows -->
<g id="node9" class="node">
<title>measures__siteID_siteID__sites_where_No_Rows</title>
<ellipse fill="none" stroke="#000000" cx="306.5537" cy="-90" rx="44.0415" ry="18"/>
<text text-anchor="middle" x="306.5537" y="-85.8" font-family="Times,serif" font-size="14.00" fill="#000000">No rows</text>
</g>
<!-- measures__siteID_siteID__sites_where&#45;&gt;measures__siteID_siteID__sites_where_No_Rows -->
<g id="edge8" class="edge">
<title>measures__siteID_siteID__sites_where&#45;&gt;measures__siteID_siteID__sites_where_No_Rows</title>
<path fill="none" stroke="#000000" d="M189.2442,-146.5633C215.1151,-134.0891 245.2155,-119.5755 268.4481,-108.3734"/>
<polygon fill="#000000" stroke="#000000" points="270.1434,-111.4417 277.6308,-103.9458 267.1031,-105.1363 270.1434,-111.4417"/>
</g>
<!-- granted -->
<g id="node8" class="node">
<title>granted</title>
<ellipse fill="none" stroke="#000000" cx="293.5537" cy="-18" rx="71.7874" ry="18"/>
<text text-anchor="middle" x="293.5537" y="-13.8" font-family="Times,serif" font-size="14.00" fill="#000000">Access Granted</text>
</g>
<!-- measures__siteID_siteID__sites_where_Has_Rows&#45;&gt;granted -->
<g id="edge7" class="edge">
<title>measures__siteID_siteID__sites_where_Has_Rows&#45;&gt;granted</title>
<path fill="none" stroke="#000000" d="M178.3481,-75.6028C199.5057,-65.024 228.5621,-50.4958 252.2002,-38.6767"/>
<polygon fill="#000000" stroke="#000000" points="253.9171,-41.7315 261.2961,-34.1288 250.7865,-35.4705 253.9171,-41.7315"/>
</g>
<!-- denied -->
<g id="node10" class="node">
<title>denied</title>
<ellipse fill="none" stroke="#000000" cx="595.5537" cy="-18" rx="68.8581" ry="18"/>
<text text-anchor="middle" x="595.5537" y="-13.8" font-family="Times,serif" font-size="14.00" fill="#000000">Access Denied</text>
</g>
<!-- measures__siteID_siteID__sites_where_No_Rows&#45;&gt;denied -->
<g id="edge9" class="edge">
<title>measures__siteID_siteID__sites_where_No_Rows&#45;&gt;denied</title>
<path fill="none" stroke="#000000" d="M344.3354,-80.5873C392.9765,-68.4691 478.0687,-47.2696 535.5921,-32.9385"/>
<polygon fill="#000000" stroke="#000000" points="536.7842,-36.2486 545.6414,-30.4349 535.0919,-29.4562 536.7842,-36.2486"/>
</g>
<!-- measures__siteID_siteID__sites_join_No_Rows&#45;&gt;denied -->
<g id="edge11" class="edge">
<title>measures__siteID_siteID__sites_join_No_Rows&#45;&gt;denied</title>
<path fill="none" stroke="#000000" d="M354.1128,-158.4544C362.8953,-153.4642 372.9886,-148.1294 382.5537,-144 430.9458,-123.108 449.8277,-134.2184 495.5537,-108 511.7348,-98.7221 546.6489,-65.9898 570.6233,-42.6802"/>
<polygon fill="#000000" stroke="#000000" points="573.2801,-44.9777 577.9852,-35.4849 568.3872,-39.9716 573.2801,-44.9777"/>
</g>
<!-- measures__dataID_dataID__datasets_join_Has_Rows -->
<g id="node13" class="node">
<title>measures__dataID_dataID__datasets_join_Has_Rows</title>
<ellipse fill="none" stroke="#000000" cx="615.5537" cy="-256.8313" rx="47.4704" ry="18"/>
<text text-anchor="middle" x="615.5537" y="-252.6313" font-family="Times,serif" font-size="14.00" fill="#000000">Has rows</text>
</g>
<!-- measures__dataID_dataID__datasets_join&#45;&gt;measures__dataID_dataID__datasets_join_Has_Rows -->
<g id="edge13" class="edge">
<title>measures__dataID_dataID__datasets_join&#45;&gt;measures__dataID_dataID__datasets_join_Has_Rows</title>
<path fill="none" stroke="#000000" d="M638.474,-311.4362C634.628,-302.2735 630.6347,-292.76 627.0797,-284.2906"/>
<polygon fill="#000000" stroke="#000000" points="630.2404,-282.7774 623.1428,-274.9114 623.786,-285.4867 630.2404,-282.7774"/>
</g>
<!-- measures__dataID_dataID__datasets_join_No_Rows -->
<g id="node17" class="node">
<title>measures__dataID_dataID__datasets_join_No_Rows</title>
<ellipse fill="none" stroke="#000000" cx="749.5537" cy="-256.8313" rx="44.0415" ry="18"/>
<text text-anchor="middle" x="749.5537" y="-252.6313" font-family="Times,serif" font-size="14.00" fill="#000000">No rows</text>
</g>
<!-- measures__dataID_dataID__datasets_join&#45;&gt;measures__dataID_dataID__datasets_join_No_Rows -->
<g id="edge19" class="edge">
<title>measures__dataID_dataID__datasets_join&#45;&gt;measures__dataID_dataID__datasets_join_No_Rows</title>
<path fill="none" stroke="#000000" d="M692.975,-314.1894C703.9907,-303.022 715.7395,-291.1113 725.6599,-281.0542"/>
<polygon fill="#000000" stroke="#000000" points="728.3166,-283.3449 732.8474,-273.7677 723.333,-278.4292 728.3166,-283.3449"/>
</g>
<!-- measures__dataID_dataID__datasets_where -->
<g id="node14" class="node">
<title>measures__dataID_dataID__datasets_where</title>
<ellipse fill="none" stroke="#000000" cx="595.5537" cy="-173.4156" rx="204.088" ry="29.3315"/>
<text text-anchor="middle" x="595.5537" y="-177.6156" font-family="Times,serif" font-size="14.00" fill="#000000">WHERE IN</text>
<text text-anchor="middle" x="595.5537" y="-160.8156" font-family="Times,serif" font-size="14.00" fill="#000000">datasets.dataID = [&quot;BCCDC&quot;,&quot;NML&#45;WWPCR&quot;]</text>
</g>
<!-- measures__dataID_dataID__datasets_join_Has_Rows&#45;&gt;measures__dataID_dataID__datasets_where -->
<g id="edge14" class="edge">
<title>measures__dataID_dataID__datasets_join_Has_Rows&#45;&gt;measures__dataID_dataID__datasets_where</title>
<path fill="none" stroke="#000000" d="M611.214,-238.7313C609.3747,-231.0602 607.1545,-221.8004 604.9715,-212.6954"/>
<polygon fill="#000000" stroke="#000000" points="608.3722,-211.8671 602.637,-202.9588 601.5651,-213.4992 608.3722,-211.8671"/>
</g>
<!-- measures__dataID_dataID__datasets_where_Has_Rows -->
<g id="node15" class="node">
<title>measures__dataID_dataID__datasets_where_Has_Rows</title>
<ellipse fill="none" stroke="#000000" cx="439.5537" cy="-90" rx="47.4704" ry="18"/>
<text text-anchor="middle" x="439.5537" y="-85.8" font-family="Times,serif" font-size="14.00" fill="#000000">Has rows</text>
</g>
<!-- measures__dataID_dataID__datasets_where&#45;&gt;measures__dataID_dataID__datasets_where_Has_Rows -->
<g id="edge15" class="edge">
<title>measures__dataID_dataID__datasets_where&#45;&gt;measures__dataID_dataID__datasets_where_Has_Rows</title>
<path fill="none" stroke="#000000" d="M542.3036,-144.942C520.511,-133.2891 495.8428,-120.0987 476.14,-109.5633"/>
<polygon fill="#000000" stroke="#000000" points="477.6525,-106.4031 467.1837,-104.7742 474.3517,-112.5761 477.6525,-106.4031"/>
</g>
<!-- measures__dataID_dataID__datasets_where_No_Rows -->
<g id="node16" class="node">
<title>measures__dataID_dataID__datasets_where_No_Rows</title>
<ellipse fill="none" stroke="#000000" cx="595.5537" cy="-90" rx="44.0415" ry="18"/>
<text text-anchor="middle" x="595.5537" y="-85.8" font-family="Times,serif" font-size="14.00" fill="#000000">No rows</text>
</g>
<!-- measures__dataID_dataID__datasets_where&#45;&gt;measures__dataID_dataID__datasets_where_No_Rows -->
<g id="edge17" class="edge">
<title>measures__dataID_dataID__datasets_where&#45;&gt;measures__dataID_dataID__datasets_where_No_Rows</title>
<path fill="none" stroke="#000000" d="M595.5537,-143.7715C595.5537,-135.5664 595.5537,-126.6796 595.5537,-118.5388"/>
<polygon fill="#000000" stroke="#000000" points="599.0538,-118.3865 595.5537,-108.3866 592.0538,-118.3866 599.0538,-118.3865"/>
</g>
<!-- measures__dataID_dataID__datasets_where_Has_Rows&#45;&gt;granted -->
<g id="edge16" class="edge">
<title>measures__dataID_dataID__datasets_where_Has_Rows&#45;&gt;granted</title>
<path fill="none" stroke="#000000" d="M410.3593,-75.6028C388.9078,-65.024 359.4479,-50.4958 335.4814,-38.6767"/>
<polygon fill="#000000" stroke="#000000" points="336.776,-35.4127 326.2592,-34.1288 333.6799,-41.6908 336.776,-35.4127"/>
</g>
<!-- measures__dataID_dataID__datasets_where_No_Rows&#45;&gt;denied -->
<g id="edge18" class="edge">
<title>measures__dataID_dataID__datasets_where_No_Rows&#45;&gt;denied</title>
<path fill="none" stroke="#000000" d="M595.5537,-71.8314C595.5537,-64.131 595.5537,-54.9743 595.5537,-46.4166"/>
<polygon fill="#000000" stroke="#000000" points="599.0538,-46.4132 595.5537,-36.4133 592.0538,-46.4133 599.0538,-46.4132"/>
</g>
<!-- measures__dataID_dataID__datasets_join_No_Rows&#45;&gt;denied -->
<g id="edge20" class="edge">
<title>measures__dataID_dataID__datasets_join_No_Rows&#45;&gt;denied</title>
<path fill="none" stroke="#000000" d="M773.9854,-241.8092C786.8706,-232.3865 801.4466,-218.9705 808.5537,-202.8313 819.0914,-178.9015 821.5073,-166.713 808.5537,-144 775.4595,-85.9723 703.9963,-51.953 652.9775,-34.1839"/>
<polygon fill="#000000" stroke="#000000" points="653.9778,-30.8276 643.3836,-30.9487 651.7409,-37.4606 653.9778,-30.8276"/>
</g>
<!-- measureSets__measSetRepID_measSetRepID__measures_join_No_Rows&#45;&gt;denied -->
<g id="edge22" class="edge">
<title>measureSets__measSetRepID_measSetRepID__measures_join_No_Rows&#45;&gt;denied</title>
<path fill="none" stroke="#000000" d="M847.8812,-429.362C853.8026,-395.6036 865.5537,-320.5793 865.5537,-256.8313 865.5537,-256.8313 865.5537,-256.8313 865.5537,-173.4156 865.5537,-81.7397 747.188,-43.3303 667.1992,-27.8405"/>
<polygon fill="#000000" stroke="#000000" points="667.6296,-24.3607 657.1587,-25.9765 666.3518,-31.2431 667.6296,-24.3607"/>
</g>
</g>
</svg>
