<?xml version="1.0" encoding="UTF-8" standalone="no"?>
<!DOCTYPE svg PUBLIC "-//W3C//DTD SVG 1.1//EN"
 "http://www.w3.org/Graphics/SVG/1.1/DTD/svg11.dtd">
<!-- Generated by graphviz version 2.40.1 (20161225.0304)
 -->
<!-- Title: G Pages: 1 -->
<svg width="1040pt" height="1403pt"
 viewBox="0.00 0.00 1040.02 1402.61" xmlns="http://www.w3.org/2000/svg" xmlns:xlink="http://www.w3.org/1999/xlink">
<g id="graph0" class="graph" transform="scale(1 1) rotate(0) translate(4 1398.6129)">
<title>G</title>
<polygon fill="#ffffff" stroke="transparent" points="-4,4 -4,-1398.6129 1036.0208,-1398.6129 1036.0208,4 -4,4"/>
<!-- methodSteps -->
<g id="node1" class="node">
<title>methodSteps</title>
<ellipse fill="none" stroke="#000000" cx="318.0208" cy="-1376.6129" rx="60.8544" ry="18"/>
<text text-anchor="middle" x="318.0208" y="-1372.4129" font-family="Times,serif" font-size="14.00" fill="#000000">methodSteps</text>
</g>
<!-- methodSteps__orgID_orgID__organizations_join -->
<g id="node2" class="node">
<title>methodSteps__orgID_orgID__organizations_join</title>
<ellipse fill="none" stroke="#000000" cx="318.0208" cy="-1281.3179" rx="114.8569" ry="41.0911"/>
<text text-anchor="middle" x="318.0208" y="-1293.9179" font-family="Times,serif" font-size="14.00" fill="#000000">LEFT JOIN organizations</text>
<text text-anchor="middle" x="318.0208" y="-1277.1179" font-family="Times,serif" font-size="14.00" fill="#000000">At level: 5</text>
<text text-anchor="middle" x="318.0208" y="-1260.3179" font-family="Times,serif" font-size="14.00" fill="#000000">Required: true</text>
</g>
<!-- methodSteps&#45;&gt;methodSteps__orgID_orgID__organizations_join -->
<g id="edge1" class="edge">
<title>methodSteps&#45;&gt;methodSteps__orgID_orgID__organizations_join</title>
<path fill="none" stroke="#000000" d="M318.0208,-1358.2391C318.0208,-1350.93 318.0208,-1342.1204 318.0208,-1333.1116"/>
<polygon fill="#000000" stroke="#000000" points="321.5209,-1332.925 318.0208,-1322.9251 314.5209,-1332.9251 321.5209,-1332.925"/>
</g>
<!-- methodSteps__orgID_orgID__organizations_join_Has_Rows -->
<g id="node3" class="node">
<title>methodSteps__orgID_orgID__organizations_join_Has_Rows</title>
<ellipse fill="none" stroke="#000000" cx="281.0208" cy="-1186.0229" rx="47.4704" ry="18"/>
<text text-anchor="middle" x="281.0208" y="-1181.8229" font-family="Times,serif" font-size="14.00" fill="#000000">Has rows</text>
</g>
<!-- methodSteps__orgID_orgID__organizations_join&#45;&gt;methodSteps__orgID_orgID__organizations_join_Has_Rows -->
<g id="edge2" class="edge">
<title>methodSteps__orgID_orgID__organizations_join&#45;&gt;methodSteps__orgID_orgID__organizations_join_Has_Rows</title>
<path fill="none" stroke="#000000" d="M302.1147,-1240.3512C298.5671,-1231.2142 294.8897,-1221.7428 291.6183,-1213.3171"/>
<polygon fill="#000000" stroke="#000000" points="294.8787,-1212.0443 287.9965,-1203.9891 288.3533,-1214.5779 294.8787,-1212.0443"/>
</g>
<!-- methodSteps__orgID_orgID__organizations_join_No_Rows -->
<g id="node30" class="node">
<title>methodSteps__orgID_orgID__organizations_join_No_Rows</title>
<ellipse fill="none" stroke="#000000" cx="605.0208" cy="-1090.7278" rx="44.0415" ry="18"/>
<text text-anchor="middle" x="605.0208" y="-1086.5278" font-family="Times,serif" font-size="14.00" fill="#000000">No rows</text>
</g>
<!-- methodSteps__orgID_orgID__organizations_join&#45;&gt;methodSteps__orgID_orgID__organizations_join_No_Rows -->
<g id="edge37" class="edge">
<title>methodSteps__orgID_orgID__organizations_join&#45;&gt;methodSteps__orgID_orgID__organizations_join_No_Rows</title>
<path fill="none" stroke="#000000" d="M373.0177,-1244.7957C432.4698,-1205.3149 525.1732,-1143.7527 573.426,-1111.7092"/>
<polygon fill="#000000" stroke="#000000" points="575.5063,-1114.5292 581.9005,-1106.0815 571.6338,-1108.6979 575.5063,-1114.5292"/>
</g>
<!-- organizations__addID_addID__addresses_join -->
<g id="node4" class="node">
<title>organizations__addID_addID__addresses_join</title>
<ellipse fill="none" stroke="#000000" cx="238.0208" cy="-1090.7278" rx="99.0518" ry="41.0911"/>
<text text-anchor="middle" x="238.0208" y="-1103.3278" font-family="Times,serif" font-size="14.00" fill="#000000">LEFT JOIN addresses</text>
<text text-anchor="middle" x="238.0208" y="-1086.5278" font-family="Times,serif" font-size="14.00" fill="#000000">At level: 4</text>
<text text-anchor="middle" x="238.0208" y="-1069.7278" font-family="Times,serif" font-size="14.00" fill="#000000">Required: false</text>
</g>
<!-- methodSteps__orgID_orgID__organizations_join_Has_Rows&#45;&gt;organizations__addID_addID__addresses_join -->
<g id="edge3" class="edge">
<title>methodSteps__orgID_orgID__organizations_join_Has_Rows&#45;&gt;organizations__addID_addID__addresses_join</title>
<path fill="none" stroke="#000000" d="M272.9328,-1168.0986C269.393,-1160.2539 265.0457,-1150.6195 260.6357,-1140.8461"/>
<polygon fill="#000000" stroke="#000000" points="263.7158,-1139.1625 256.4126,-1131.487 257.3353,-1142.0416 263.7158,-1139.1625"/>
</g>
<!-- organizations__addID_addID__addresses_join_Has_Rows -->
<g id="node5" class="node">
<title>organizations__addID_addID__addresses_join_Has_Rows</title>
<ellipse fill="none" stroke="#000000" cx="238.0208" cy="-995.4328" rx="47.4704" ry="18"/>
<text text-anchor="middle" x="238.0208" y="-991.2328" font-family="Times,serif" font-size="14.00" fill="#000000">Has rows</text>
</g>
<!-- organizations__addID_addID__addresses_join&#45;&gt;organizations__addID_addID__addresses_join_Has_Rows -->
<g id="edge4" class="edge">
<title>organizations__addID_addID__addresses_join&#45;&gt;organizations__addID_addID__addresses_join_Has_Rows</title>
<path fill="none" stroke="#000000" d="M238.0208,-1049.2072C238.0208,-1040.6556 238.0208,-1031.8362 238.0208,-1023.8757"/>
<polygon fill="#000000" stroke="#000000" points="241.5209,-1023.6587 238.0208,-1013.6587 234.5209,-1023.6587 241.5209,-1023.6587"/>
</g>
<!-- organizations__addID_addID__addresses_join_No_Rows -->
<g id="node29" class="node">
<title>organizations__addID_addID__addresses_join_No_Rows</title>
<ellipse fill="none" stroke="#000000" cx="44.0208" cy="-900.1377" rx="44.0415" ry="18"/>
<text text-anchor="middle" x="44.0208" y="-895.9377" font-family="Times,serif" font-size="14.00" fill="#000000">No rows</text>
</g>
<!-- organizations__addID_addID__addresses_join&#45;&gt;organizations__addID_addID__addresses_join_No_Rows -->
<g id="edge35" class="edge">
<title>organizations__addID_addID__addresses_join&#45;&gt;organizations__addID_addID__addresses_join_No_Rows</title>
<path fill="none" stroke="#000000" d="M199.2282,-1052.6171C160.3285,-1014.4011 101.6099,-956.7146 68.6726,-924.3563"/>
<polygon fill="#000000" stroke="#000000" points="70.858,-921.5968 61.2716,-917.0854 65.9523,-926.5902 70.858,-921.5968"/>
</g>
<!-- addresses__addID_addID__sites_join -->
<g id="node6" class="node">
<title>addresses__addID_addID__sites_join</title>
<ellipse fill="none" stroke="#000000" cx="238.0208" cy="-900.1377" rx="78.8882" ry="41.0911"/>
<text text-anchor="middle" x="238.0208" y="-912.7377" font-family="Times,serif" font-size="14.00" fill="#000000">LEFT JOIN sites</text>
<text text-anchor="middle" x="238.0208" y="-895.9377" font-family="Times,serif" font-size="14.00" fill="#000000">At level: 3</text>
<text text-anchor="middle" x="238.0208" y="-879.1377" font-family="Times,serif" font-size="14.00" fill="#000000">Required: false</text>
</g>
<!-- organizations__addID_addID__addresses_join_Has_Rows&#45;&gt;addresses__addID_addID__sites_join -->
<g id="edge5" class="edge">
<title>organizations__addID_addID__addresses_join_Has_Rows&#45;&gt;addresses__addID_addID__sites_join</title>
<path fill="none" stroke="#000000" d="M238.0208,-977.0589C238.0208,-969.7498 238.0208,-960.9402 238.0208,-951.9314"/>
<polygon fill="#000000" stroke="#000000" points="241.5209,-951.7449 238.0208,-941.7449 234.5209,-951.745 241.5209,-951.7449"/>
</g>
<!-- addresses__addID_addID__sites_join_Has_Rows -->
<g id="node7" class="node">
<title>addresses__addID_addID__sites_join_Has_Rows</title>
<ellipse fill="none" stroke="#000000" cx="312.0208" cy="-804.8427" rx="47.4704" ry="18"/>
<text text-anchor="middle" x="312.0208" y="-800.6427" font-family="Times,serif" font-size="14.00" fill="#000000">Has rows</text>
</g>
<!-- addresses__addID_addID__sites_join&#45;&gt;addresses__addID_addID__sites_join_Has_Rows -->
<g id="edge6" class="edge">
<title>addresses__addID_addID__sites_join&#45;&gt;addresses__addID_addID__sites_join_Has_Rows</title>
<path fill="none" stroke="#000000" d="M267.9061,-861.6523C276.0966,-851.1048 284.7705,-839.9348 292.2396,-830.3164"/>
<polygon fill="#000000" stroke="#000000" points="295.0818,-832.3628 298.4507,-822.3178 289.553,-828.0695 295.0818,-832.3628"/>
</g>
<!-- addresses__addID_addID__sites_join_No_Rows -->
<g id="node28" class="node">
<title>addresses__addID_addID__sites_join_No_Rows</title>
<ellipse fill="none" stroke="#000000" cx="110.0208" cy="-721.4271" rx="44.0415" ry="18"/>
<text text-anchor="middle" x="110.0208" y="-717.2271" font-family="Times,serif" font-size="14.00" fill="#000000">No rows</text>
</g>
<!-- addresses__addID_addID__sites_join&#45;&gt;addresses__addID_addID__sites_join_No_Rows -->
<g id="edge33" class="edge">
<title>addresses__addID_addID__sites_join&#45;&gt;addresses__addID_addID__sites_join_No_Rows</title>
<path fill="none" stroke="#000000" d="M210.2467,-861.3602C185.4859,-826.7897 149.9383,-777.159 128.5053,-747.2347"/>
<polygon fill="#000000" stroke="#000000" points="131.2631,-745.0743 122.5947,-738.9825 125.5722,-749.1504 131.2631,-745.0743"/>
</g>
<!-- addresses__addID_addID__sites_where -->
<g id="node8" class="node">
<title>addresses__addID_addID__sites_where</title>
<ellipse fill="none" stroke="#000000" cx="332.0208" cy="-721.4271" rx="133.6073" ry="29.3315"/>
<text text-anchor="middle" x="332.0208" y="-725.6271" font-family="Times,serif" font-size="14.00" fill="#000000">WHERE</text>
<text text-anchor="middle" x="332.0208" y="-708.8271" font-family="Times,serif" font-size="14.00" fill="#000000">sites.healthReg = &quot;Vancouver&quot;</text>
</g>
<!-- addresses__addID_addID__sites_join_Has_Rows&#45;&gt;addresses__addID_addID__sites_where -->
<g id="edge7" class="edge">
<title>addresses__addID_addID__sites_join_Has_Rows&#45;&gt;addresses__addID_addID__sites_where</title>
<path fill="none" stroke="#000000" d="M316.3605,-786.7428C318.1997,-779.0716 320.4199,-769.8118 322.6029,-760.7068"/>
<polygon fill="#000000" stroke="#000000" points="326.0093,-761.5107 324.9374,-750.9702 319.2022,-759.8785 326.0093,-761.5107"/>
</g>
<!-- addresses__addID_addID__sites_where_Has_Rows -->
<g id="node9" class="node">
<title>addresses__addID_addID__sites_where_Has_Rows</title>
<ellipse fill="none" stroke="#000000" cx="332.0208" cy="-638.0114" rx="47.4704" ry="18"/>
<text text-anchor="middle" x="332.0208" y="-633.8114" font-family="Times,serif" font-size="14.00" fill="#000000">Has rows</text>
</g>
<!-- addresses__addID_addID__sites_where&#45;&gt;addresses__addID_addID__sites_where_Has_Rows -->
<g id="edge8" class="edge">
<title>addresses__addID_addID__sites_where&#45;&gt;addresses__addID_addID__sites_where_Has_Rows</title>
<path fill="none" stroke="#000000" d="M332.0208,-691.783C332.0208,-683.5778 332.0208,-674.691 332.0208,-666.5502"/>
<polygon fill="#000000" stroke="#000000" points="335.5209,-666.398 332.0208,-656.398 328.5209,-666.398 335.5209,-666.398"/>
</g>
<!-- addresses__addID_addID__sites_where_No_Rows -->
<g id="node27" class="node">
<title>addresses__addID_addID__sites_where_No_Rows</title>
<ellipse fill="none" stroke="#000000" cx="730.0208" cy="-542.7164" rx="44.0415" ry="18"/>
<text text-anchor="middle" x="730.0208" y="-538.5164" font-family="Times,serif" font-size="14.00" fill="#000000">No rows</text>
</g>
<!-- addresses__addID_addID__sites_where&#45;&gt;addresses__addID_addID__sites_where_No_Rows -->
<g id="edge31" class="edge">
<title>addresses__addID_addID__sites_where&#45;&gt;addresses__addID_addID__sites_where_No_Rows</title>
<path fill="none" stroke="#000000" d="M391.1756,-694.8652C473.4885,-657.905 620.3485,-591.9616 690.5426,-560.4429"/>
<polygon fill="#000000" stroke="#000000" points="692.2349,-563.5198 699.9238,-556.2306 689.3675,-557.134 692.2349,-563.5198"/>
</g>
<!-- sites__siteID_siteID__samples_join -->
<g id="node10" class="node">
<title>sites__siteID_siteID__samples_join</title>
<ellipse fill="none" stroke="#000000" cx="332.0208" cy="-542.7164" rx="93.4765" ry="41.0911"/>
<text text-anchor="middle" x="332.0208" y="-555.3164" font-family="Times,serif" font-size="14.00" fill="#000000">LEFT JOIN samples</text>
<text text-anchor="middle" x="332.0208" y="-538.5164" font-family="Times,serif" font-size="14.00" fill="#000000">At level: 2</text>
<text text-anchor="middle" x="332.0208" y="-521.7164" font-family="Times,serif" font-size="14.00" fill="#000000">Required: true</text>
</g>
<!-- addresses__addID_addID__sites_where_Has_Rows&#45;&gt;sites__siteID_siteID__samples_join -->
<g id="edge9" class="edge">
<title>addresses__addID_addID__sites_where_Has_Rows&#45;&gt;sites__siteID_siteID__samples_join</title>
<path fill="none" stroke="#000000" d="M332.0208,-619.6376C332.0208,-612.3285 332.0208,-603.5189 332.0208,-594.5101"/>
<polygon fill="#000000" stroke="#000000" points="335.5209,-594.3235 332.0208,-584.3236 328.5209,-594.3236 335.5209,-594.3235"/>
</g>
<!-- sites__siteID_siteID__samples_join_Has_Rows -->
<g id="node11" class="node">
<title>sites__siteID_siteID__samples_join_Has_Rows</title>
<ellipse fill="none" stroke="#000000" cx="345.0208" cy="-447.4214" rx="47.4704" ry="18"/>
<text text-anchor="middle" x="345.0208" y="-443.2214" font-family="Times,serif" font-size="14.00" fill="#000000">Has rows</text>
</g>
<!-- sites__siteID_siteID__samples_join&#45;&gt;sites__siteID_siteID__samples_join_Has_Rows -->
<g id="edge10" class="edge">
<title>sites__siteID_siteID__samples_join&#45;&gt;sites__siteID_siteID__samples_join_Has_Rows</title>
<path fill="none" stroke="#000000" d="M337.6471,-501.4728C338.8304,-492.7989 340.0531,-483.8366 341.1543,-475.764"/>
<polygon fill="#000000" stroke="#000000" points="344.6347,-476.1448 342.5186,-465.7635 337.6989,-475.1986 344.6347,-476.1448"/>
</g>
<!-- sites__siteID_siteID__samples_join_No_Rows -->
<g id="node26" class="node">
<title>sites__siteID_siteID__samples_join_No_Rows</title>
<ellipse fill="none" stroke="#000000" cx="185.0208" cy="-447.4214" rx="44.0415" ry="18"/>
<text text-anchor="middle" x="185.0208" y="-443.2214" font-family="Times,serif" font-size="14.00" fill="#000000">No rows</text>
</g>
<!-- sites__siteID_siteID__samples_join&#45;&gt;sites__siteID_siteID__samples_join_No_Rows -->
<g id="edge29" class="edge">
<title>sites__siteID_siteID__samples_join&#45;&gt;sites__siteID_siteID__samples_join_No_Rows</title>
<path fill="none" stroke="#000000" d="M279.3656,-508.5819C258.551,-495.0885 235.3051,-480.0189 217.0959,-468.2146"/>
<polygon fill="#000000" stroke="#000000" points="218.8892,-465.206 208.5943,-462.7032 215.0815,-471.0798 218.8892,-465.206"/>
</g>
<!-- samples__siteID_siteID__sites_join -->
<g id="node12" class="node">
<title>samples__siteID_siteID__sites_join</title>
<ellipse fill="none" stroke="#000000" cx="345.0208" cy="-352.1263" rx="78.8882" ry="41.0911"/>
<text text-anchor="middle" x="345.0208" y="-364.7263" font-family="Times,serif" font-size="14.00" fill="#000000">LEFT JOIN sites</text>
<text text-anchor="middle" x="345.0208" y="-347.9263" font-family="Times,serif" font-size="14.00" fill="#000000">At level: 1</text>
<text text-anchor="middle" x="345.0208" y="-331.1263" font-family="Times,serif" font-size="14.00" fill="#000000">Required: true</text>
</g>
<!-- sites__siteID_siteID__samples_join_Has_Rows&#45;&gt;samples__siteID_siteID__sites_join -->
<g id="edge11" class="edge">
<title>sites__siteID_siteID__samples_join_Has_Rows&#45;&gt;samples__siteID_siteID__sites_join</title>
<path fill="none" stroke="#000000" d="M345.0208,-429.0475C345.0208,-421.7384 345.0208,-412.9288 345.0208,-403.92"/>
<polygon fill="#000000" stroke="#000000" points="348.5209,-403.7335 345.0208,-393.7335 341.5209,-403.7335 348.5209,-403.7335"/>
</g>
<!-- samples__dataID_dataID__datasets_join -->
<g id="node20" class="node">
<title>samples__dataID_dataID__datasets_join</title>
<ellipse fill="none" stroke="#000000" cx="724.0208" cy="-352.1263" rx="92.8656" ry="41.0911"/>
<text text-anchor="middle" x="724.0208" y="-364.7263" font-family="Times,serif" font-size="14.00" fill="#000000">LEFT JOIN datasets</text>
<text text-anchor="middle" x="724.0208" y="-347.9263" font-family="Times,serif" font-size="14.00" fill="#000000">At level: 1</text>
<text text-anchor="middle" x="724.0208" y="-331.1263" font-family="Times,serif" font-size="14.00" fill="#000000">Required: true</text>
</g>
<!-- sites__siteID_siteID__samples_join_Has_Rows&#45;&gt;samples__dataID_dataID__datasets_join -->
<g id="edge20" class="edge">
<title>sites__siteID_siteID__samples_join_Has_Rows&#45;&gt;samples__dataID_dataID__datasets_join</title>
<path fill="none" stroke="#000000" d="M384.5079,-437.4928C442.8709,-422.8181 553.7834,-394.9305 632.9584,-375.0229"/>
<polygon fill="#000000" stroke="#000000" points="634.0919,-378.3469 642.9365,-372.514 632.3849,-371.5582 634.0919,-378.3469"/>
</g>
<!-- samples__siteID_siteID__sites_join_Has_Rows -->
<g id="node13" class="node">
<title>samples__siteID_siteID__sites_join_Has_Rows</title>
<ellipse fill="none" stroke="#000000" cx="292.0208" cy="-256.8313" rx="47.4704" ry="18"/>
<text text-anchor="middle" x="292.0208" y="-252.6313" font-family="Times,serif" font-size="14.00" fill="#000000">Has rows</text>
</g>
<!-- samples__siteID_siteID__sites_join&#45;&gt;samples__siteID_siteID__sites_join_Has_Rows -->
<g id="edge12" class="edge">
<title>samples__siteID_siteID__sites_join&#45;&gt;samples__siteID_siteID__sites_join_Has_Rows</title>
<path fill="none" stroke="#000000" d="M322.8511,-312.2648C317.4616,-302.5743 311.8264,-292.4422 306.8701,-283.5307"/>
<polygon fill="#000000" stroke="#000000" points="309.909,-281.7937 301.9897,-274.7556 303.7915,-285.1961 309.909,-281.7937"/>
</g>
<!-- samples__siteID_siteID__sites_join_No_Rows -->
<g id="node19" class="node">
<title>samples__siteID_siteID__sites_join_No_Rows</title>
<ellipse fill="none" stroke="#000000" cx="458.0208" cy="-173.4156" rx="44.0415" ry="18"/>
<text text-anchor="middle" x="458.0208" y="-169.2156" font-family="Times,serif" font-size="14.00" fill="#000000">No rows</text>
</g>
<!-- samples__siteID_siteID__sites_join&#45;&gt;samples__siteID_siteID__sites_join_No_Rows -->
<g id="edge18" class="edge">
<title>samples__siteID_siteID__sites_join&#45;&gt;samples__siteID_siteID__sites_join_No_Rows</title>
<path fill="none" stroke="#000000" d="M369.8191,-312.9075C391.6035,-278.4552 422.6844,-229.3005 441.5417,-199.4775"/>
<polygon fill="#000000" stroke="#000000" points="444.5916,-201.203 446.9777,-190.8804 438.6751,-197.462 444.5916,-201.203"/>
</g>
<!-- samples__siteID_siteID__sites_where -->
<g id="node14" class="node">
<title>samples__siteID_siteID__sites_where</title>
<ellipse fill="none" stroke="#000000" cx="262.0208" cy="-173.4156" rx="133.6073" ry="29.3315"/>
<text text-anchor="middle" x="262.0208" y="-177.6156" font-family="Times,serif" font-size="14.00" fill="#000000">WHERE</text>
<text text-anchor="middle" x="262.0208" y="-160.8156" font-family="Times,serif" font-size="14.00" fill="#000000">sites.healthReg = &quot;Vancouver&quot;</text>
</g>
<!-- samples__siteID_siteID__sites_join_Has_Rows&#45;&gt;samples__siteID_siteID__sites_where -->
<g id="edge13" class="edge">
<title>samples__siteID_siteID__sites_join_Has_Rows&#45;&gt;samples__siteID_siteID__sites_where</title>
<path fill="none" stroke="#000000" d="M285.5112,-238.7313C282.723,-230.9786 279.3512,-221.6032 276.043,-212.4049"/>
<polygon fill="#000000" stroke="#000000" points="279.3236,-211.1842 272.6458,-202.9588 272.7366,-213.5532 279.3236,-211.1842"/>
</g>
<!-- samples__siteID_siteID__sites_where_Has_Rows -->
<g id="node15" class="node">
<title>samples__siteID_siteID__sites_where_Has_Rows</title>
<ellipse fill="none" stroke="#000000" cx="219.0208" cy="-90" rx="47.4704" ry="18"/>
<text text-anchor="middle" x="219.0208" y="-85.8" font-family="Times,serif" font-size="14.00" fill="#000000">Has rows</text>
</g>
<!-- samples__siteID_siteID__sites_where&#45;&gt;samples__siteID_siteID__sites_where_Has_Rows -->
<g id="edge14" class="edge">
<title>samples__siteID_siteID__sites_where&#45;&gt;samples__siteID_siteID__sites_where_Has_Rows</title>
<path fill="none" stroke="#000000" d="M246.7395,-143.7715C242.2496,-135.0615 237.3637,-125.5834 232.9621,-117.0449"/>
<polygon fill="#000000" stroke="#000000" points="235.9383,-115.1796 228.2453,-107.8947 229.7164,-118.387 235.9383,-115.1796"/>
</g>
<!-- samples__siteID_siteID__sites_where_No_Rows -->
<g id="node17" class="node">
<title>samples__siteID_siteID__sites_where_No_Rows</title>
<ellipse fill="none" stroke="#000000" cx="377.0208" cy="-90" rx="44.0415" ry="18"/>
<text text-anchor="middle" x="377.0208" y="-85.8" font-family="Times,serif" font-size="14.00" fill="#000000">No rows</text>
</g>
<!-- samples__siteID_siteID__sites_where&#45;&gt;samples__siteID_siteID__sites_where_No_Rows -->
<g id="edge16" class="edge">
<title>samples__siteID_siteID__sites_where&#45;&gt;samples__siteID_siteID__sites_where_No_Rows</title>
<path fill="none" stroke="#000000" d="M300.9545,-145.1749C315.9558,-134.2937 332.8457,-122.0425 346.8929,-111.8534"/>
<polygon fill="#000000" stroke="#000000" points="349.1899,-114.5111 355.2296,-105.8063 345.0797,-108.8447 349.1899,-114.5111"/>
</g>
<!-- granted -->
<g id="node16" class="node">
<title>granted</title>
<ellipse fill="none" stroke="#000000" cx="141.0208" cy="-18" rx="71.7874" ry="18"/>
<text text-anchor="middle" x="141.0208" y="-13.8" font-family="Times,serif" font-size="14.00" fill="#000000">Access Granted</text>
</g>
<!-- samples__siteID_siteID__sites_where_Has_Rows&#45;&gt;granted -->
<g id="edge15" class="edge">
<title>samples__siteID_siteID__sites_where_Has_Rows&#45;&gt;granted</title>
<path fill="none" stroke="#000000" d="M200.9299,-73.3008C191.0797,-64.2083 178.703,-52.7836 167.7599,-42.6823"/>
<polygon fill="#000000" stroke="#000000" points="169.8238,-39.8242 160.1017,-35.6132 165.0758,-44.9678 169.8238,-39.8242"/>
</g>
<!-- denied -->
<g id="node18" class="node">
<title>denied</title>
<ellipse fill="none" stroke="#000000" cx="724.0208" cy="-18" rx="68.8581" ry="18"/>
<text text-anchor="middle" x="724.0208" y="-13.8" font-family="Times,serif" font-size="14.00" fill="#000000">Access Denied</text>
</g>
<!-- samples__siteID_siteID__sites_where_No_Rows&#45;&gt;denied -->
<g id="edge17" class="edge">
<title>samples__siteID_siteID__sites_where_No_Rows&#45;&gt;denied</title>
<path fill="none" stroke="#000000" d="M416.4882,-81.8108C475.8304,-69.4977 588.6596,-46.0865 659.9134,-31.3018"/>
<polygon fill="#000000" stroke="#000000" points="661.033,-34.6441 670.1133,-29.1854 659.6107,-27.7901 661.033,-34.6441"/>
</g>
<!-- samples__siteID_siteID__sites_join_No_Rows&#45;&gt;denied -->
<g id="edge19" class="edge">
<title>samples__siteID_siteID__sites_join_No_Rows&#45;&gt;denied</title>
<path fill="none" stroke="#000000" d="M463.7994,-155.4656C472.0999,-132.5877 489.6073,-93.4419 518.0208,-72 539.8435,-55.5318 605.2017,-40.0692 656.5117,-29.9463"/>
<polygon fill="#000000" stroke="#000000" points="657.4194,-33.3356 666.5693,-27.9943 656.0856,-26.4638 657.4194,-33.3356"/>
</g>
<!-- samples__dataID_dataID__datasets_join_Has_Rows -->
<g id="node21" class="node">
<title>samples__dataID_dataID__datasets_join_Has_Rows</title>
<ellipse fill="none" stroke="#000000" cx="724.0208" cy="-256.8313" rx="47.4704" ry="18"/>
<text text-anchor="middle" x="724.0208" y="-252.6313" font-family="Times,serif" font-size="14.00" fill="#000000">Has rows</text>
</g>
<!-- samples__dataID_dataID__datasets_join&#45;&gt;samples__dataID_dataID__datasets_join_Has_Rows -->
<g id="edge21" class="edge">
<title>samples__dataID_dataID__datasets_join&#45;&gt;samples__dataID_dataID__datasets_join_Has_Rows</title>
<path fill="none" stroke="#000000" d="M724.0208,-310.6057C724.0208,-302.0541 724.0208,-293.2347 724.0208,-285.2742"/>
<polygon fill="#000000" stroke="#000000" points="727.5209,-285.0572 724.0208,-275.0572 720.5209,-285.0572 727.5209,-285.0572"/>
</g>
<!-- samples__dataID_dataID__datasets_join_No_Rows -->
<g id="node25" class="node">
<title>samples__dataID_dataID__datasets_join_No_Rows</title>
<ellipse fill="none" stroke="#000000" cx="878.0208" cy="-256.8313" rx="44.0415" ry="18"/>
<text text-anchor="middle" x="878.0208" y="-252.6313" font-family="Times,serif" font-size="14.00" fill="#000000">No rows</text>
</g>
<!-- samples__dataID_dataID__datasets_join&#45;&gt;samples__dataID_dataID__datasets_join_No_Rows -->
<g id="edge27" class="edge">
<title>samples__dataID_dataID__datasets_join&#45;&gt;samples__dataID_dataID__datasets_join_No_Rows</title>
<path fill="none" stroke="#000000" d="M778.3154,-318.5289C800.4436,-304.836 825.3192,-289.4429 844.6881,-277.4575"/>
<polygon fill="#000000" stroke="#000000" points="846.7815,-280.2781 853.4434,-272.0397 843.0981,-274.3255 846.7815,-280.2781"/>
</g>
<!-- samples__dataID_dataID__datasets_where -->
<g id="node22" class="node">
<title>samples__dataID_dataID__datasets_where</title>
<ellipse fill="none" stroke="#000000" cx="724.0208" cy="-173.4156" rx="204.088" ry="29.3315"/>
<text text-anchor="middle" x="724.0208" y="-177.6156" font-family="Times,serif" font-size="14.00" fill="#000000">WHERE IN</text>
<text text-anchor="middle" x="724.0208" y="-160.8156" font-family="Times,serif" font-size="14.00" fill="#000000">datasets.dataID = [&quot;BCCDC&quot;,&quot;NML&#45;WWPCR&quot;]</text>
</g>
<!-- samples__dataID_dataID__datasets_join_Has_Rows&#45;&gt;samples__dataID_dataID__datasets_where -->
<g id="edge22" class="edge">
<title>samples__dataID_dataID__datasets_join_Has_Rows&#45;&gt;samples__dataID_dataID__datasets_where</title>
<path fill="none" stroke="#000000" d="M724.0208,-238.7313C724.0208,-231.1418 724.0208,-221.9972 724.0208,-212.986"/>
<polygon fill="#000000" stroke="#000000" points="727.5209,-212.9587 724.0208,-202.9588 720.5209,-212.9588 727.5209,-212.9587"/>
</g>
<!-- samples__dataID_dataID__datasets_where_Has_Rows -->
<g id="node23" class="node">
<title>samples__dataID_dataID__datasets_where_Has_Rows</title>
<ellipse fill="none" stroke="#000000" cx="574.0208" cy="-90" rx="47.4704" ry="18"/>
<text text-anchor="middle" x="574.0208" y="-85.8" font-family="Times,serif" font-size="14.00" fill="#000000">Has rows</text>
</g>
<!-- samples__dataID_dataID__datasets_where&#45;&gt;samples__dataID_dataID__datasets_where_Has_Rows -->
<g id="edge23" class="edge">
<title>samples__dataID_dataID__datasets_where&#45;&gt;samples__dataID_dataID__datasets_where_Has_Rows</title>
<path fill="none" stroke="#000000" d="M672.3993,-144.7087C651.7161,-133.2067 628.3973,-120.239 609.6553,-109.8165"/>
<polygon fill="#000000" stroke="#000000" points="611.2946,-106.7234 600.854,-104.9221 607.8925,-112.8411 611.2946,-106.7234"/>
</g>
<!-- samples__dataID_dataID__datasets_where_No_Rows -->
<g id="node24" class="node">
<title>samples__dataID_dataID__datasets_where_No_Rows</title>
<ellipse fill="none" stroke="#000000" cx="724.0208" cy="-90" rx="44.0415" ry="18"/>
<text text-anchor="middle" x="724.0208" y="-85.8" font-family="Times,serif" font-size="14.00" fill="#000000">No rows</text>
</g>
<!-- samples__dataID_dataID__datasets_where&#45;&gt;samples__dataID_dataID__datasets_where_No_Rows -->
<g id="edge25" class="edge">
<title>samples__dataID_dataID__datasets_where&#45;&gt;samples__dataID_dataID__datasets_where_No_Rows</title>
<path fill="none" stroke="#000000" d="M724.0208,-143.7715C724.0208,-135.5664 724.0208,-126.6796 724.0208,-118.5388"/>
<polygon fill="#000000" stroke="#000000" points="727.5209,-118.3865 724.0208,-108.3866 720.5209,-118.3866 727.5209,-118.3865"/>
</g>
<!-- samples__dataID_dataID__datasets_where_Has_Rows&#45;&gt;granted -->
<g id="edge24" class="edge">
<title>samples__dataID_dataID__datasets_where_Has_Rows&#45;&gt;granted</title>
<path fill="none" stroke="#000000" d="M530.5206,-82.7667C455.4849,-70.2896 301.1104,-44.62 210.8731,-29.6152"/>
<polygon fill="#000000" stroke="#000000" points="211.4414,-26.1617 201.0028,-27.9739 210.2932,-33.0669 211.4414,-26.1617"/>
</g>
<!-- samples__dataID_dataID__datasets_where_No_Rows&#45;&gt;denied -->
<g id="edge26" class="edge">
<title>samples__dataID_dataID__datasets_where_No_Rows&#45;&gt;denied</title>
<path fill="none" stroke="#000000" d="M724.0208,-71.8314C724.0208,-64.131 724.0208,-54.9743 724.0208,-46.4166"/>
<polygon fill="#000000" stroke="#000000" points="727.5209,-46.4132 724.0208,-36.4133 720.5209,-46.4133 727.5209,-46.4132"/>
</g>
<!-- samples__dataID_dataID__datasets_join_No_Rows&#45;&gt;denied -->
<g id="edge28" class="edge">
<title>samples__dataID_dataID__datasets_join_No_Rows&#45;&gt;denied</title>
<path fill="none" stroke="#000000" d="M902.4526,-241.8092C915.3377,-232.3865 929.9137,-218.9705 937.0208,-202.8313 947.5585,-178.9015 949.9744,-166.713 937.0208,-144 903.9267,-85.9723 832.4634,-51.953 781.4446,-34.1839"/>
<polygon fill="#000000" stroke="#000000" points="782.4449,-30.8276 771.8507,-30.9487 780.2081,-37.4606 782.4449,-30.8276"/>
</g>
<!-- sites__siteID_siteID__samples_join_No_Rows&#45;&gt;denied -->
<g id="edge30" class="edge">
<title>sites__siteID_siteID__samples_join_No_Rows&#45;&gt;denied</title>
<path fill="none" stroke="#000000" d="M171.364,-430.1833C147.3365,-398.0647 100.0208,-326.0308 100.0208,-256.8313 100.0208,-256.8313 100.0208,-256.8313 100.0208,-173.4156 100.0208,-120.3531 117.9354,-99.981 163.0208,-72 203.1326,-47.1057 501.6011,-29.0559 646.0896,-21.6791"/>
<polygon fill="#000000" stroke="#000000" points="646.4107,-25.1674 656.221,-21.1665 646.0569,-18.1764 646.4107,-25.1674"/>
</g>
<!-- addresses__addID_addID__sites_where_No_Rows&#45;&gt;denied -->
<g id="edge32" class="edge">
<title>addresses__addID_addID__sites_where_No_Rows&#45;&gt;denied</title>
<path fill="none" stroke="#000000" d="M768.6914,-533.9656C842.0199,-514.8344 994.0208,-461.9342 994.0208,-352.1263 994.0208,-352.1263 994.0208,-352.1263 994.0208,-173.4156 994.0208,-81.7397 875.6551,-43.3303 795.6663,-27.8405"/>
<polygon fill="#000000" stroke="#000000" points="796.0967,-24.3607 785.6258,-25.9765 794.8189,-31.2431 796.0967,-24.3607"/>
</g>
<!-- addresses__addID_addID__sites_join_No_Rows&#45;&gt;granted -->
<g id="edge34" class="edge">
<title>addresses__addID_addID__sites_join_No_Rows&#45;&gt;granted</title>
<path fill="none" stroke="#000000" d="M101.8782,-703.5881C88.1836,-671.9062 62.0208,-603.4342 62.0208,-542.7164 62.0208,-542.7164 62.0208,-542.7164 62.0208,-173.4156 62.0208,-123.2777 95.0974,-72.9534 118.4453,-43.6763"/>
<polygon fill="#000000" stroke="#000000" points="121.3992,-45.5938 125.0339,-35.6419 115.9865,-41.155 121.3992,-45.5938"/>
</g>
<!-- organizations__addID_addID__addresses_join_No_Rows&#45;&gt;granted -->
<g id="edge36" class="edge">
<title>organizations__addID_addID__addresses_join_No_Rows&#45;&gt;granted</title>
<path fill="none" stroke="#000000" d="M40.628,-881.947C34.922,-849.7207 24.0208,-780.4326 24.0208,-721.4271 24.0208,-721.4271 24.0208,-721.4271 24.0208,-173.4156 24.0208,-117.2923 73.3213,-68.5441 107.9173,-41.2449"/>
<polygon fill="#000000" stroke="#000000" points="110.1206,-43.9659 115.9213,-35.1001 105.8579,-38.4134 110.1206,-43.9659"/>
</g>
<!-- methodSteps__orgID_orgID__organizations_join_No_Rows&#45;&gt;denied -->
<g id="edge38" class="edge">
<title>methodSteps__orgID_orgID__organizations_join_No_Rows&#45;&gt;denied</title>
<path fill="none" stroke="#000000" d="M644.0461,-1082.1316C749.456,-1057.7933 1032.0208,-984.6677 1032.0208,-900.1377 1032.0208,-900.1377 1032.0208,-900.1377 1032.0208,-173.4156 1032.0208,-69.9347 891.7318,-35.3421 800.5146,-23.7869"/>
<polygon fill="#000000" stroke="#000000" points="800.8188,-20.2983 790.473,-22.582 799.9848,-27.2485 800.8188,-20.2983"/>
</g>
</g>
</svg>
