<?xml version="1.0" encoding="UTF-8" standalone="no"?>
<!DOCTYPE svg PUBLIC "-//W3C//DTD SVG 1.1//EN"
 "http://www.w3.org/Graphics/SVG/1.1/DTD/svg11.dtd">
<!-- Generated by graphviz version 2.40.1 (20161225.0304)
 -->
<!-- Title: G Pages: 1 -->
<svg width="540pt" height="1236pt"
 viewBox="0.00 0.00 539.57 1235.78" xmlns="http://www.w3.org/2000/svg" xmlns:xlink="http://www.w3.org/1999/xlink">
<g id="graph0" class="graph" transform="scale(1 1) rotate(0) translate(4 1231.7816)">
<title>G</title>
<polygon fill="#ffffff" stroke="transparent" points="-4,4 -4,-1231.7816 535.5724,-1231.7816 535.5724,4 -4,4"/>
<!-- methodSteps -->
<g id="node1" class="node">
<title>methodSteps</title>
<ellipse fill="none" stroke="#000000" cx="332.8936" cy="-1209.7816" rx="60.8544" ry="18"/>
<text text-anchor="middle" x="332.8936" y="-1205.5816" font-family="Times,serif" font-size="14.00" fill="#000000">methodSteps</text>
</g>
<!-- methodSteps__orgID_orgID__organizations_join -->
<g id="node2" class="node">
<title>methodSteps__orgID_orgID__organizations_join</title>
<ellipse fill="none" stroke="#000000" cx="332.8936" cy="-1114.4866" rx="114.8569" ry="41.0911"/>
<text text-anchor="middle" x="332.8936" y="-1127.0866" font-family="Times,serif" font-size="14.00" fill="#000000">LEFT JOIN organizations</text>
<text text-anchor="middle" x="332.8936" y="-1110.2866" font-family="Times,serif" font-size="14.00" fill="#000000">At level: 5</text>
<text text-anchor="middle" x="332.8936" y="-1093.4866" font-family="Times,serif" font-size="14.00" fill="#000000">Required: true</text>
</g>
<!-- methodSteps&#45;&gt;methodSteps__orgID_orgID__organizations_join -->
<g id="edge1" class="edge">
<title>methodSteps&#45;&gt;methodSteps__orgID_orgID__organizations_join</title>
<path fill="none" stroke="#000000" d="M332.8936,-1191.4078C332.8936,-1184.0987 332.8936,-1175.2891 332.8936,-1166.2803"/>
<polygon fill="#000000" stroke="#000000" points="336.3937,-1166.0938 332.8936,-1156.0938 329.3937,-1166.0938 336.3937,-1166.0938"/>
</g>
<!-- methodSteps__orgID_orgID__organizations_join_Has_Rows -->
<g id="node3" class="node">
<title>methodSteps__orgID_orgID__organizations_join_Has_Rows</title>
<ellipse fill="none" stroke="#000000" cx="295.8936" cy="-1019.1916" rx="47.4704" ry="18"/>
<text text-anchor="middle" x="295.8936" y="-1014.9916" font-family="Times,serif" font-size="14.00" fill="#000000">Has rows</text>
</g>
<!-- methodSteps__orgID_orgID__organizations_join&#45;&gt;methodSteps__orgID_orgID__organizations_join_Has_Rows -->
<g id="edge2" class="edge">
<title>methodSteps__orgID_orgID__organizations_join&#45;&gt;methodSteps__orgID_orgID__organizations_join_Has_Rows</title>
<path fill="none" stroke="#000000" d="M316.9875,-1073.5199C313.44,-1064.3829 309.7625,-1054.9115 306.4911,-1046.4858"/>
<polygon fill="#000000" stroke="#000000" points="309.7515,-1045.213 302.8693,-1037.1578 303.2261,-1047.7467 309.7515,-1045.213"/>
</g>
<!-- methodSteps__orgID_orgID__organizations_join_No_Rows -->
<g id="node21" class="node">
<title>methodSteps__orgID_orgID__organizations_join_No_Rows</title>
<ellipse fill="none" stroke="#000000" cx="446.8936" cy="-923.8965" rx="44.0415" ry="18"/>
<text text-anchor="middle" x="446.8936" y="-919.6965" font-family="Times,serif" font-size="14.00" fill="#000000">No rows</text>
</g>
<!-- methodSteps__orgID_orgID__organizations_join&#45;&gt;methodSteps__orgID_orgID__organizations_join_No_Rows -->
<g id="edge24" class="edge">
<title>methodSteps__orgID_orgID__organizations_join&#45;&gt;methodSteps__orgID_orgID__organizations_join_No_Rows</title>
<path fill="none" stroke="#000000" d="M357.0701,-1074.0674C379.3181,-1036.8722 411.6865,-982.7573 430.8845,-950.6612"/>
<polygon fill="#000000" stroke="#000000" points="434.0328,-952.2161 436.1624,-941.8375 428.0254,-948.6228 434.0328,-952.2161"/>
</g>
<!-- organizations__addID_addID__addresses_join -->
<g id="node4" class="node">
<title>organizations__addID_addID__addresses_join</title>
<ellipse fill="none" stroke="#000000" cx="252.8936" cy="-923.8965" rx="99.0518" ry="41.0911"/>
<text text-anchor="middle" x="252.8936" y="-936.4965" font-family="Times,serif" font-size="14.00" fill="#000000">LEFT JOIN addresses</text>
<text text-anchor="middle" x="252.8936" y="-919.6965" font-family="Times,serif" font-size="14.00" fill="#000000">At level: 4</text>
<text text-anchor="middle" x="252.8936" y="-902.8965" font-family="Times,serif" font-size="14.00" fill="#000000">Required: false</text>
</g>
<!-- methodSteps__orgID_orgID__organizations_join_Has_Rows&#45;&gt;organizations__addID_addID__addresses_join -->
<g id="edge3" class="edge">
<title>methodSteps__orgID_orgID__organizations_join_Has_Rows&#45;&gt;organizations__addID_addID__addresses_join</title>
<path fill="none" stroke="#000000" d="M287.8056,-1001.2673C284.2659,-993.4226 279.9185,-983.7882 275.5085,-974.0148"/>
<polygon fill="#000000" stroke="#000000" points="278.5887,-972.3312 271.2854,-964.6558 272.2082,-975.2103 278.5887,-972.3312"/>
</g>
<!-- organizations__addID_addID__addresses_join_Has_Rows -->
<g id="node5" class="node">
<title>organizations__addID_addID__addresses_join_Has_Rows</title>
<ellipse fill="none" stroke="#000000" cx="252.8936" cy="-828.6015" rx="47.4704" ry="18"/>
<text text-anchor="middle" x="252.8936" y="-824.4015" font-family="Times,serif" font-size="14.00" fill="#000000">Has rows</text>
</g>
<!-- organizations__addID_addID__addresses_join&#45;&gt;organizations__addID_addID__addresses_join_Has_Rows -->
<g id="edge4" class="edge">
<title>organizations__addID_addID__addresses_join&#45;&gt;organizations__addID_addID__addresses_join_Has_Rows</title>
<path fill="none" stroke="#000000" d="M252.8936,-882.376C252.8936,-873.8243 252.8936,-865.0049 252.8936,-857.0444"/>
<polygon fill="#000000" stroke="#000000" points="256.3937,-856.8274 252.8936,-846.8274 249.3937,-856.8274 256.3937,-856.8274"/>
</g>
<!-- organizations__addID_addID__addresses_join_No_Rows -->
<g id="node20" class="node">
<title>organizations__addID_addID__addresses_join_No_Rows</title>
<ellipse fill="none" stroke="#000000" cx="79.8936" cy="-733.3065" rx="44.0415" ry="18"/>
<text text-anchor="middle" x="79.8936" y="-729.1065" font-family="Times,serif" font-size="14.00" fill="#000000">No rows</text>
</g>
<!-- organizations__addID_addID__addresses_join&#45;&gt;organizations__addID_addID__addresses_join_No_Rows -->
<g id="edge22" class="edge">
<title>organizations__addID_addID__addresses_join&#45;&gt;organizations__addID_addID__addresses_join_No_Rows</title>
<path fill="none" stroke="#000000" d="M217.467,-884.8679C183.0194,-846.9177 131.7352,-790.4192 102.4894,-758.1997"/>
<polygon fill="#000000" stroke="#000000" points="104.8653,-755.6096 95.5525,-750.5575 99.6821,-760.3145 104.8653,-755.6096"/>
</g>
<!-- addresses__addID_addID__sites_join -->
<g id="node6" class="node">
<title>addresses__addID_addID__sites_join</title>
<ellipse fill="none" stroke="#000000" cx="252.8936" cy="-733.3065" rx="78.8882" ry="41.0911"/>
<text text-anchor="middle" x="252.8936" y="-745.9065" font-family="Times,serif" font-size="14.00" fill="#000000">LEFT JOIN sites</text>
<text text-anchor="middle" x="252.8936" y="-729.1065" font-family="Times,serif" font-size="14.00" fill="#000000">At level: 3</text>
<text text-anchor="middle" x="252.8936" y="-712.3065" font-family="Times,serif" font-size="14.00" fill="#000000">Required: false</text>
</g>
<!-- organizations__addID_addID__addresses_join_Has_Rows&#45;&gt;addresses__addID_addID__sites_join -->
<g id="edge5" class="edge">
<title>organizations__addID_addID__addresses_join_Has_Rows&#45;&gt;addresses__addID_addID__sites_join</title>
<path fill="none" stroke="#000000" d="M252.8936,-810.2277C252.8936,-802.9185 252.8936,-794.1089 252.8936,-785.1001"/>
<polygon fill="#000000" stroke="#000000" points="256.3937,-784.9136 252.8936,-774.9136 249.3937,-784.9137 256.3937,-784.9136"/>
</g>
<!-- addresses__addID_addID__sites_join_Has_Rows -->
<g id="node7" class="node">
<title>addresses__addID_addID__sites_join_Has_Rows</title>
<ellipse fill="none" stroke="#000000" cx="263.8936" cy="-638.0114" rx="47.4704" ry="18"/>
<text text-anchor="middle" x="263.8936" y="-633.8114" font-family="Times,serif" font-size="14.00" fill="#000000">Has rows</text>
</g>
<!-- addresses__addID_addID__sites_join&#45;&gt;addresses__addID_addID__sites_join_Has_Rows -->
<g id="edge6" class="edge">
<title>addresses__addID_addID__sites_join&#45;&gt;addresses__addID_addID__sites_join_Has_Rows</title>
<path fill="none" stroke="#000000" d="M257.6544,-692.0629C258.6556,-683.389 259.6902,-674.4267 260.622,-666.3541"/>
<polygon fill="#000000" stroke="#000000" points="264.1065,-666.6889 261.7764,-656.3535 257.1527,-665.8862 264.1065,-666.6889"/>
</g>
<!-- addresses__addID_addID__sites_join_No_Rows -->
<g id="node19" class="node">
<title>addresses__addID_addID__sites_join_No_Rows</title>
<ellipse fill="none" stroke="#000000" cx="109.8936" cy="-542.7164" rx="44.0415" ry="18"/>
<text text-anchor="middle" x="109.8936" y="-538.5164" font-family="Times,serif" font-size="14.00" fill="#000000">No rows</text>
</g>
<!-- addresses__addID_addID__sites_join&#45;&gt;addresses__addID_addID__sites_join_No_Rows -->
<g id="edge20" class="edge">
<title>addresses__addID_addID__sites_join&#45;&gt;addresses__addID_addID__sites_join_No_Rows</title>
<path fill="none" stroke="#000000" d="M223.9554,-694.7377C195.6369,-656.9949 153.3134,-600.5862 128.9746,-568.1476"/>
<polygon fill="#000000" stroke="#000000" points="131.7046,-565.9542 122.9035,-560.0559 126.1054,-570.1553 131.7046,-565.9542"/>
</g>
<!-- sites__siteID_siteID__samples_join -->
<g id="node8" class="node">
<title>sites__siteID_siteID__samples_join</title>
<ellipse fill="none" stroke="#000000" cx="268.8936" cy="-542.7164" rx="93.4765" ry="41.0911"/>
<text text-anchor="middle" x="268.8936" y="-555.3164" font-family="Times,serif" font-size="14.00" fill="#000000">LEFT JOIN samples</text>
<text text-anchor="middle" x="268.8936" y="-538.5164" font-family="Times,serif" font-size="14.00" fill="#000000">At level: 2</text>
<text text-anchor="middle" x="268.8936" y="-521.7164" font-family="Times,serif" font-size="14.00" fill="#000000">Required: true</text>
</g>
<!-- addresses__addID_addID__sites_join_Has_Rows&#45;&gt;sites__siteID_siteID__samples_join -->
<g id="edge7" class="edge">
<title>addresses__addID_addID__sites_join_Has_Rows&#45;&gt;sites__siteID_siteID__samples_join</title>
<path fill="none" stroke="#000000" d="M264.8577,-619.6376C265.2412,-612.3285 265.7034,-603.5189 266.1761,-594.5101"/>
<polygon fill="#000000" stroke="#000000" points="269.6817,-594.4933 266.7105,-584.3236 262.6913,-594.1264 269.6817,-594.4933"/>
</g>
<!-- sites__siteID_siteID__samples_join_Has_Rows -->
<g id="node9" class="node">
<title>sites__siteID_siteID__samples_join_Has_Rows</title>
<ellipse fill="none" stroke="#000000" cx="268.8936" cy="-447.4214" rx="47.4704" ry="18"/>
<text text-anchor="middle" x="268.8936" y="-443.2214" font-family="Times,serif" font-size="14.00" fill="#000000">Has rows</text>
</g>
<!-- sites__siteID_siteID__samples_join&#45;&gt;sites__siteID_siteID__samples_join_Has_Rows -->
<g id="edge8" class="edge">
<title>sites__siteID_siteID__samples_join&#45;&gt;sites__siteID_siteID__samples_join_Has_Rows</title>
<path fill="none" stroke="#000000" d="M268.8936,-501.1958C268.8936,-492.6442 268.8936,-483.8248 268.8936,-475.8643"/>
<polygon fill="#000000" stroke="#000000" points="272.3937,-475.6472 268.8936,-465.6473 265.3937,-475.6473 272.3937,-475.6472"/>
</g>
<!-- sites__siteID_siteID__samples_join_No_Rows -->
<g id="node18" class="node">
<title>sites__siteID_siteID__samples_join_No_Rows</title>
<ellipse fill="none" stroke="#000000" cx="439.8936" cy="-352.1263" rx="44.0415" ry="18"/>
<text text-anchor="middle" x="439.8936" y="-347.9263" font-family="Times,serif" font-size="14.00" fill="#000000">No rows</text>
</g>
<!-- sites__siteID_siteID__samples_join&#45;&gt;sites__siteID_siteID__samples_join_No_Rows -->
<g id="edge18" class="edge">
<title>sites__siteID_siteID__samples_join&#45;&gt;sites__siteID_siteID__samples_join_No_Rows</title>
<path fill="none" stroke="#000000" d="M303.498,-504.1476C337.5055,-466.2442 388.403,-409.5158 417.4468,-377.1447"/>
<polygon fill="#000000" stroke="#000000" points="420.2633,-379.2465 424.3364,-369.4658 415.053,-374.5717 420.2633,-379.2465"/>
</g>
<!-- samples__dataID_dataID__datasets_join -->
<g id="node10" class="node">
<title>samples__dataID_dataID__datasets_join</title>
<ellipse fill="none" stroke="#000000" cx="268.8936" cy="-352.1263" rx="92.8656" ry="41.0911"/>
<text text-anchor="middle" x="268.8936" y="-364.7263" font-family="Times,serif" font-size="14.00" fill="#000000">LEFT JOIN datasets</text>
<text text-anchor="middle" x="268.8936" y="-347.9263" font-family="Times,serif" font-size="14.00" fill="#000000">At level: 1</text>
<text text-anchor="middle" x="268.8936" y="-331.1263" font-family="Times,serif" font-size="14.00" fill="#000000">Required: true</text>
</g>
<!-- sites__siteID_siteID__samples_join_Has_Rows&#45;&gt;samples__dataID_dataID__datasets_join -->
<g id="edge9" class="edge">
<title>sites__siteID_siteID__samples_join_Has_Rows&#45;&gt;samples__dataID_dataID__datasets_join</title>
<path fill="none" stroke="#000000" d="M268.8936,-429.0475C268.8936,-421.7384 268.8936,-412.9288 268.8936,-403.92"/>
<polygon fill="#000000" stroke="#000000" points="272.3937,-403.7335 268.8936,-393.7335 265.3937,-403.7335 272.3937,-403.7335"/>
</g>
<!-- samples__dataID_dataID__datasets_join_Has_Rows -->
<g id="node11" class="node">
<title>samples__dataID_dataID__datasets_join_Has_Rows</title>
<ellipse fill="none" stroke="#000000" cx="234.8936" cy="-256.8313" rx="47.4704" ry="18"/>
<text text-anchor="middle" x="234.8936" y="-252.6313" font-family="Times,serif" font-size="14.00" fill="#000000">Has rows</text>
</g>
<!-- samples__dataID_dataID__datasets_join&#45;&gt;samples__dataID_dataID__datasets_join_Has_Rows -->
<g id="edge10" class="edge">
<title>samples__dataID_dataID__datasets_join&#45;&gt;samples__dataID_dataID__datasets_join_Has_Rows</title>
<path fill="none" stroke="#000000" d="M254.2772,-311.1596C251.0527,-302.1219 247.7115,-292.7571 244.73,-284.4007"/>
<polygon fill="#000000" stroke="#000000" points="247.9607,-283.0399 241.3037,-274.7975 241.3677,-285.3922 247.9607,-283.0399"/>
</g>
<!-- samples__dataID_dataID__datasets_join_No_Rows -->
<g id="node17" class="node">
<title>samples__dataID_dataID__datasets_join_No_Rows</title>
<ellipse fill="none" stroke="#000000" cx="409.8936" cy="-173.4156" rx="44.0415" ry="18"/>
<text text-anchor="middle" x="409.8936" y="-169.2156" font-family="Times,serif" font-size="14.00" fill="#000000">No rows</text>
</g>
<!-- samples__dataID_dataID__datasets_join&#45;&gt;samples__dataID_dataID__datasets_join_No_Rows -->
<g id="edge16" class="edge">
<title>samples__dataID_dataID__datasets_join&#45;&gt;samples__dataID_dataID__datasets_join_No_Rows</title>
<path fill="none" stroke="#000000" d="M299.8367,-312.9075C327.1362,-278.3067 366.1359,-228.8764 389.6346,-199.0929"/>
<polygon fill="#000000" stroke="#000000" points="392.6678,-200.899 396.1142,-190.8804 387.1723,-196.5632 392.6678,-200.899"/>
</g>
<!-- samples__dataID_dataID__datasets_where -->
<g id="node12" class="node">
<title>samples__dataID_dataID__datasets_where</title>
<ellipse fill="none" stroke="#000000" cx="223.8936" cy="-173.4156" rx="124.4353" ry="29.3315"/>
<text text-anchor="middle" x="223.8936" y="-177.6156" font-family="Times,serif" font-size="14.00" fill="#000000">WHERE</text>
<text text-anchor="middle" x="223.8936" y="-160.8156" font-family="Times,serif" font-size="14.00" fill="#000000">datasets.dataID = &quot;BCCDC&quot;</text>
</g>
<!-- samples__dataID_dataID__datasets_join_Has_Rows&#45;&gt;samples__dataID_dataID__datasets_where -->
<g id="edge11" class="edge">
<title>samples__dataID_dataID__datasets_join_Has_Rows&#45;&gt;samples__dataID_dataID__datasets_where</title>
<path fill="none" stroke="#000000" d="M232.5068,-238.7313C231.5059,-231.1418 230.3,-221.9972 229.1117,-212.986"/>
<polygon fill="#000000" stroke="#000000" points="232.5669,-212.4153 227.7895,-202.9588 225.627,-213.3306 232.5669,-212.4153"/>
</g>
<!-- samples__dataID_dataID__datasets_where_Has_Rows -->
<g id="node13" class="node">
<title>samples__dataID_dataID__datasets_where_Has_Rows</title>
<ellipse fill="none" stroke="#000000" cx="184.8936" cy="-90" rx="47.4704" ry="18"/>
<text text-anchor="middle" x="184.8936" y="-85.8" font-family="Times,serif" font-size="14.00" fill="#000000">Has rows</text>
</g>
<!-- samples__dataID_dataID__datasets_where&#45;&gt;samples__dataID_dataID__datasets_where_Has_Rows -->
<g id="edge12" class="edge">
<title>samples__dataID_dataID__datasets_where&#45;&gt;samples__dataID_dataID__datasets_where_Has_Rows</title>
<path fill="none" stroke="#000000" d="M210.0339,-143.7715C205.9616,-135.0615 201.5302,-125.5834 197.5381,-117.0449"/>
<polygon fill="#000000" stroke="#000000" points="200.6661,-115.4712 193.2601,-107.8947 194.3249,-118.4359 200.6661,-115.4712"/>
</g>
<!-- samples__dataID_dataID__datasets_where_No_Rows -->
<g id="node15" class="node">
<title>samples__dataID_dataID__datasets_where_No_Rows</title>
<ellipse fill="none" stroke="#000000" cx="315.8936" cy="-90" rx="44.0415" ry="18"/>
<text text-anchor="middle" x="315.8936" y="-85.8" font-family="Times,serif" font-size="14.00" fill="#000000">No rows</text>
</g>
<!-- samples__dataID_dataID__datasets_where&#45;&gt;samples__dataID_dataID__datasets_where_No_Rows -->
<g id="edge14" class="edge">
<title>samples__dataID_dataID__datasets_where&#45;&gt;samples__dataID_dataID__datasets_where_No_Rows</title>
<path fill="none" stroke="#000000" d="M255.2975,-144.942C266.6908,-134.6118 279.4169,-123.0731 290.2541,-113.2471"/>
<polygon fill="#000000" stroke="#000000" points="292.7081,-115.7466 297.7654,-106.4367 288.0062,-110.5608 292.7081,-115.7466"/>
</g>
<!-- granted -->
<g id="node14" class="node">
<title>granted</title>
<ellipse fill="none" stroke="#000000" cx="71.8936" cy="-18" rx="71.7874" ry="18"/>
<text text-anchor="middle" x="71.8936" y="-13.8" font-family="Times,serif" font-size="14.00" fill="#000000">Access Granted</text>
</g>
<!-- samples__dataID_dataID__datasets_where_Has_Rows&#45;&gt;granted -->
<g id="edge13" class="edge">
<title>samples__dataID_dataID__datasets_where_Has_Rows&#45;&gt;granted</title>
<path fill="none" stroke="#000000" d="M160.3743,-74.3771C144.7866,-64.4451 124.3566,-51.4278 107.0557,-40.4041"/>
<polygon fill="#000000" stroke="#000000" points="108.6501,-37.27 98.3358,-34.8481 104.8886,-43.1735 108.6501,-37.27"/>
</g>
<!-- denied -->
<g id="node16" class="node">
<title>denied</title>
<ellipse fill="none" stroke="#000000" cx="462.8936" cy="-18" rx="68.8581" ry="18"/>
<text text-anchor="middle" x="462.8936" y="-13.8" font-family="Times,serif" font-size="14.00" fill="#000000">Access Denied</text>
</g>
<!-- samples__dataID_dataID__datasets_where_No_Rows&#45;&gt;denied -->
<g id="edge15" class="edge">
<title>samples__dataID_dataID__datasets_where_No_Rows&#45;&gt;denied</title>
<path fill="none" stroke="#000000" d="M344.2367,-76.1177C366.0606,-65.4284 396.5568,-50.4915 421.1673,-38.4374"/>
<polygon fill="#000000" stroke="#000000" points="422.8399,-41.5155 430.2809,-33.9735 419.7608,-35.2291 422.8399,-41.5155"/>
</g>
<!-- samples__dataID_dataID__datasets_join_No_Rows&#45;&gt;denied -->
<g id="edge17" class="edge">
<title>samples__dataID_dataID__datasets_join_No_Rows&#45;&gt;denied</title>
<path fill="none" stroke="#000000" d="M415.9734,-155.5875C425.1494,-128.6799 442.6138,-77.4678 453.4537,-45.6812"/>
<polygon fill="#000000" stroke="#000000" points="456.8064,-46.6934 456.7215,-36.0989 450.1811,-44.434 456.8064,-46.6934"/>
</g>
<!-- sites__siteID_siteID__samples_join_No_Rows&#45;&gt;denied -->
<g id="edge19" class="edge">
<title>sites__siteID_siteID__samples_join_No_Rows&#45;&gt;denied</title>
<path fill="none" stroke="#000000" d="M443.6345,-333.8438C449.1618,-305.8029 459.2493,-250.4215 462.8936,-202.8313 467.1235,-147.5948 465.6483,-82.8003 464.2391,-46.4599"/>
<polygon fill="#000000" stroke="#000000" points="467.7224,-45.9836 463.8103,-36.1375 460.7284,-46.2742 467.7224,-45.9836"/>
</g>
<!-- addresses__addID_addID__sites_join_No_Rows&#45;&gt;granted -->
<g id="edge21" class="edge">
<title>addresses__addID_addID__sites_join_No_Rows&#45;&gt;granted</title>
<path fill="none" stroke="#000000" d="M103.8724,-524.8216C93.1574,-491.3339 71.8936,-416.7381 71.8936,-352.1263 71.8936,-352.1263 71.8936,-352.1263 71.8936,-173.4156 71.8936,-129.0052 71.8936,-77.4563 71.8936,-46.3065"/>
<polygon fill="#000000" stroke="#000000" points="75.3937,-46.1843 71.8936,-36.1843 68.3937,-46.1843 75.3937,-46.1843"/>
</g>
<!-- organizations__addID_addID__addresses_join_No_Rows&#45;&gt;granted -->
<g id="edge23" class="edge">
<title>organizations__addID_addID__addresses_join_No_Rows&#45;&gt;granted</title>
<path fill="none" stroke="#000000" d="M72.6048,-715.5206C59.634,-682.2123 33.8936,-607.9004 33.8936,-542.7164 33.8936,-542.7164 33.8936,-542.7164 33.8936,-173.4156 33.8936,-127.7468 49.5677,-76.6338 60.7827,-45.9068"/>
<polygon fill="#000000" stroke="#000000" points="64.1492,-46.8974 64.386,-36.3052 57.5956,-44.4379 64.1492,-46.8974"/>
</g>
<!-- methodSteps__orgID_orgID__organizations_join_No_Rows&#45;&gt;denied -->
<g id="edge25" class="edge">
<title>methodSteps__orgID_orgID__organizations_join_No_Rows&#45;&gt;denied</title>
<path fill="none" stroke="#000000" d="M458.6223,-906.3639C479.2577,-873.7665 519.8936,-800.9828 519.8936,-733.3065 519.8936,-733.3065 519.8936,-733.3065 519.8936,-173.4156 519.8936,-125.9587 496.1776,-75.0607 479.3409,-44.9063"/>
<polygon fill="#000000" stroke="#000000" points="482.17,-42.8044 474.155,-35.8755 476.0997,-46.2903 482.17,-42.8044"/>
</g>
</g>
</svg>
