<?xml version="1.0" encoding="UTF-8" standalone="no"?>
<!DOCTYPE svg PUBLIC "-//W3C//DTD SVG 1.1//EN"
 "http://www.w3.org/Graphics/SVG/1.1/DTD/svg11.dtd">
<!-- Generated by graphviz version 2.40.1 (20161225.0304)
 -->
<!-- Title: G Pages: 1 -->
<svg width="535pt" height="1045pt"
 viewBox="0.00 0.00 535.04 1045.19" xmlns="http://www.w3.org/2000/svg" xmlns:xlink="http://www.w3.org/1999/xlink">
<g id="graph0" class="graph" transform="scale(1 1) rotate(0) translate(4 1041.1916)">
<title>G</title>
<polygon fill="#ffffff" stroke="transparent" points="-4,4 -4,-1041.1916 531.0415,-1041.1916 531.0415,4 -4,4"/>
<!-- organizations -->
<g id="node1" class="node">
<title>organizations</title>
<ellipse fill="none" stroke="#000000" cx="412.0208" cy="-1019.1916" rx="63.1209" ry="18"/>
<text text-anchor="middle" x="412.0208" y="-1014.9916" font-family="Times,serif" font-size="14.00" fill="#000000">organizations</text>
</g>
<!-- organizations__addID_addID__addresses_join -->
<g id="node2" class="node">
<title>organizations__addID_addID__addresses_join</title>
<ellipse fill="none" stroke="#000000" cx="412.0208" cy="-923.8965" rx="99.0518" ry="41.0911"/>
<text text-anchor="middle" x="412.0208" y="-936.4965" font-family="Times,serif" font-size="14.00" fill="#000000">LEFT JOIN addresses</text>
<text text-anchor="middle" x="412.0208" y="-919.6965" font-family="Times,serif" font-size="14.00" fill="#000000">At level: 4</text>
<text text-anchor="middle" x="412.0208" y="-902.8965" font-family="Times,serif" font-size="14.00" fill="#000000">Required: false</text>
</g>
<!-- organizations&#45;&gt;organizations__addID_addID__addresses_join -->
<g id="edge1" class="edge">
<title>organizations&#45;&gt;organizations__addID_addID__addresses_join</title>
<path fill="none" stroke="#000000" d="M412.0208,-1000.8177C412.0208,-993.5086 412.0208,-984.699 412.0208,-975.6902"/>
<polygon fill="#000000" stroke="#000000" points="415.5209,-975.5037 412.0208,-965.5037 408.5209,-975.5038 415.5209,-975.5037"/>
</g>
<!-- organizations__addID_addID__addresses_join_Has_Rows -->
<g id="node3" class="node">
<title>organizations__addID_addID__addresses_join_Has_Rows</title>
<ellipse fill="none" stroke="#000000" cx="375.0208" cy="-828.6015" rx="47.4704" ry="18"/>
<text text-anchor="middle" x="375.0208" y="-824.4015" font-family="Times,serif" font-size="14.00" fill="#000000">Has rows</text>
</g>
<!-- organizations__addID_addID__addresses_join&#45;&gt;organizations__addID_addID__addresses_join_Has_Rows -->
<g id="edge2" class="edge">
<title>organizations__addID_addID__addresses_join&#45;&gt;organizations__addID_addID__addresses_join_Has_Rows</title>
<path fill="none" stroke="#000000" d="M396.1147,-882.9298C392.5671,-873.7928 388.8897,-864.3215 385.6183,-855.8958"/>
<polygon fill="#000000" stroke="#000000" points="388.8787,-854.6229 381.9965,-846.5678 382.3533,-857.1566 388.8787,-854.6229"/>
</g>
<!-- organizations__addID_addID__addresses_join_No_Rows -->
<g id="node18" class="node">
<title>organizations__addID_addID__addresses_join_No_Rows</title>
<ellipse fill="none" stroke="#000000" cx="483.0208" cy="-733.3065" rx="44.0415" ry="18"/>
<text text-anchor="middle" x="483.0208" y="-729.1065" font-family="Times,serif" font-size="14.00" fill="#000000">No rows</text>
</g>
<!-- organizations__addID_addID__addresses_join&#45;&gt;organizations__addID_addID__addresses_join_No_Rows -->
<g id="edge20" class="edge">
<title>organizations__addID_addID__addresses_join&#45;&gt;organizations__addID_addID__addresses_join_No_Rows</title>
<path fill="none" stroke="#000000" d="M427.252,-883.0102C441.003,-846.0976 460.8556,-792.8058 472.7921,-760.7639"/>
<polygon fill="#000000" stroke="#000000" points="476.1605,-761.7478 476.3717,-751.1551 469.6009,-759.3041 476.1605,-761.7478"/>
</g>
<!-- addresses__addID_addID__sites_join -->
<g id="node4" class="node">
<title>addresses__addID_addID__sites_join</title>
<ellipse fill="none" stroke="#000000" cx="342.0208" cy="-733.3065" rx="78.8882" ry="41.0911"/>
<text text-anchor="middle" x="342.0208" y="-745.9065" font-family="Times,serif" font-size="14.00" fill="#000000">LEFT JOIN sites</text>
<text text-anchor="middle" x="342.0208" y="-729.1065" font-family="Times,serif" font-size="14.00" fill="#000000">At level: 3</text>
<text text-anchor="middle" x="342.0208" y="-712.3065" font-family="Times,serif" font-size="14.00" fill="#000000">Required: false</text>
</g>
<!-- organizations__addID_addID__addresses_join_Has_Rows&#45;&gt;addresses__addID_addID__sites_join -->
<g id="edge3" class="edge">
<title>organizations__addID_addID__addresses_join_Has_Rows&#45;&gt;addresses__addID_addID__sites_join</title>
<path fill="none" stroke="#000000" d="M368.8137,-810.6772C366.1252,-802.9134 362.8296,-793.3966 359.481,-783.727"/>
<polygon fill="#000000" stroke="#000000" points="362.7151,-782.3698 356.1354,-774.0657 356.1004,-784.6605 362.7151,-782.3698"/>
</g>
<!-- addresses__addID_addID__sites_join_Has_Rows -->
<g id="node5" class="node">
<title>addresses__addID_addID__sites_join_Has_Rows</title>
<ellipse fill="none" stroke="#000000" cx="263.0208" cy="-638.0114" rx="47.4704" ry="18"/>
<text text-anchor="middle" x="263.0208" y="-633.8114" font-family="Times,serif" font-size="14.00" fill="#000000">Has rows</text>
</g>
<!-- addresses__addID_addID__sites_join&#45;&gt;addresses__addID_addID__sites_join_Has_Rows -->
<g id="edge4" class="edge">
<title>addresses__addID_addID__sites_join&#45;&gt;addresses__addID_addID__sites_join_Has_Rows</title>
<path fill="none" stroke="#000000" d="M310.5709,-695.3695C301.5618,-684.5022 291.9693,-672.931 283.777,-663.049"/>
<polygon fill="#000000" stroke="#000000" points="286.3452,-660.6628 277.2685,-655.1979 280.9561,-665.1303 286.3452,-660.6628"/>
</g>
<!-- addresses__addID_addID__sites_join_No_Rows -->
<g id="node17" class="node">
<title>addresses__addID_addID__sites_join_No_Rows</title>
<ellipse fill="none" stroke="#000000" cx="395.0208" cy="-542.7164" rx="44.0415" ry="18"/>
<text text-anchor="middle" x="395.0208" y="-538.5164" font-family="Times,serif" font-size="14.00" fill="#000000">No rows</text>
</g>
<!-- addresses__addID_addID__sites_join&#45;&gt;addresses__addID_addID__sites_join_No_Rows -->
<g id="edge18" class="edge">
<title>addresses__addID_addID__sites_join&#45;&gt;addresses__addID_addID__sites_join_No_Rows</title>
<path fill="none" stroke="#000000" d="M353.3906,-692.4201C363.6005,-655.7049 378.3166,-602.7852 387.2419,-570.6897"/>
<polygon fill="#000000" stroke="#000000" points="390.6159,-571.6199 389.9231,-561.0477 383.8718,-569.7444 390.6159,-571.6199"/>
</g>
<!-- sites__siteID_siteID__samples_join -->
<g id="node6" class="node">
<title>sites__siteID_siteID__samples_join</title>
<ellipse fill="none" stroke="#000000" cx="207.0208" cy="-542.7164" rx="93.4765" ry="41.0911"/>
<text text-anchor="middle" x="207.0208" y="-555.3164" font-family="Times,serif" font-size="14.00" fill="#000000">LEFT JOIN samples</text>
<text text-anchor="middle" x="207.0208" y="-538.5164" font-family="Times,serif" font-size="14.00" fill="#000000">At level: 2</text>
<text text-anchor="middle" x="207.0208" y="-521.7164" font-family="Times,serif" font-size="14.00" fill="#000000">Required: true</text>
</g>
<!-- addresses__addID_addID__sites_join_Has_Rows&#45;&gt;sites__siteID_siteID__samples_join -->
<g id="edge5" class="edge">
<title>addresses__addID_addID__sites_join_Has_Rows&#45;&gt;sites__siteID_siteID__samples_join</title>
<path fill="none" stroke="#000000" d="M252.4876,-620.0872C247.7336,-611.9973 241.8612,-602.0042 235.9341,-591.9181"/>
<polygon fill="#000000" stroke="#000000" points="238.8221,-589.9244 230.7381,-583.0761 232.787,-593.4709 238.8221,-589.9244"/>
</g>
<!-- sites__siteID_siteID__samples_join_Has_Rows -->
<g id="node7" class="node">
<title>sites__siteID_siteID__samples_join_Has_Rows</title>
<ellipse fill="none" stroke="#000000" cx="207.0208" cy="-447.4214" rx="47.4704" ry="18"/>
<text text-anchor="middle" x="207.0208" y="-443.2214" font-family="Times,serif" font-size="14.00" fill="#000000">Has rows</text>
</g>
<!-- sites__siteID_siteID__samples_join&#45;&gt;sites__siteID_siteID__samples_join_Has_Rows -->
<g id="edge6" class="edge">
<title>sites__siteID_siteID__samples_join&#45;&gt;sites__siteID_siteID__samples_join_Has_Rows</title>
<path fill="none" stroke="#000000" d="M207.0208,-501.1958C207.0208,-492.6442 207.0208,-483.8248 207.0208,-475.8643"/>
<polygon fill="#000000" stroke="#000000" points="210.5209,-475.6472 207.0208,-465.6473 203.5209,-475.6473 210.5209,-475.6472"/>
</g>
<!-- sites__siteID_siteID__samples_join_No_Rows -->
<g id="node16" class="node">
<title>sites__siteID_siteID__samples_join_No_Rows</title>
<ellipse fill="none" stroke="#000000" cx="44.0208" cy="-352.1263" rx="44.0415" ry="18"/>
<text text-anchor="middle" x="44.0208" y="-347.9263" font-family="Times,serif" font-size="14.00" fill="#000000">No rows</text>
</g>
<!-- sites__siteID_siteID__samples_join&#45;&gt;sites__siteID_siteID__samples_join_No_Rows -->
<g id="edge16" class="edge">
<title>sites__siteID_siteID__samples_join&#45;&gt;sites__siteID_siteID__samples_join_No_Rows</title>
<path fill="none" stroke="#000000" d="M173.642,-503.6877C141.1855,-465.7376 92.8658,-409.239 65.3105,-377.0196"/>
<polygon fill="#000000" stroke="#000000" points="67.9341,-374.7023 58.7745,-369.3774 62.6142,-379.252 67.9341,-374.7023"/>
</g>
<!-- samples__dataID_dataID__datasets_join -->
<g id="node8" class="node">
<title>samples__dataID_dataID__datasets_join</title>
<ellipse fill="none" stroke="#000000" cx="207.0208" cy="-352.1263" rx="92.8656" ry="41.0911"/>
<text text-anchor="middle" x="207.0208" y="-364.7263" font-family="Times,serif" font-size="14.00" fill="#000000">LEFT JOIN datasets</text>
<text text-anchor="middle" x="207.0208" y="-347.9263" font-family="Times,serif" font-size="14.00" fill="#000000">At level: 1</text>
<text text-anchor="middle" x="207.0208" y="-331.1263" font-family="Times,serif" font-size="14.00" fill="#000000">Required: true</text>
</g>
<!-- sites__siteID_siteID__samples_join_Has_Rows&#45;&gt;samples__dataID_dataID__datasets_join -->
<g id="edge7" class="edge">
<title>sites__siteID_siteID__samples_join_Has_Rows&#45;&gt;samples__dataID_dataID__datasets_join</title>
<path fill="none" stroke="#000000" d="M207.0208,-429.0475C207.0208,-421.7384 207.0208,-412.9288 207.0208,-403.92"/>
<polygon fill="#000000" stroke="#000000" points="210.5209,-403.7335 207.0208,-393.7335 203.5209,-403.7335 210.5209,-403.7335"/>
</g>
<!-- samples__dataID_dataID__datasets_join_Has_Rows -->
<g id="node9" class="node">
<title>samples__dataID_dataID__datasets_join_Has_Rows</title>
<ellipse fill="none" stroke="#000000" cx="250.0208" cy="-256.8313" rx="47.4704" ry="18"/>
<text text-anchor="middle" x="250.0208" y="-252.6313" font-family="Times,serif" font-size="14.00" fill="#000000">Has rows</text>
</g>
<!-- samples__dataID_dataID__datasets_join&#45;&gt;samples__dataID_dataID__datasets_join_Has_Rows -->
<g id="edge8" class="edge">
<title>samples__dataID_dataID__datasets_join&#45;&gt;samples__dataID_dataID__datasets_join_Has_Rows</title>
<path fill="none" stroke="#000000" d="M225.3814,-311.4362C229.5159,-302.2735 233.8086,-292.76 237.6303,-284.2906"/>
<polygon fill="#000000" stroke="#000000" points="240.9397,-285.466 241.8625,-274.9114 234.5592,-282.5869 240.9397,-285.466"/>
</g>
<!-- samples__dataID_dataID__datasets_join_No_Rows -->
<g id="node15" class="node">
<title>samples__dataID_dataID__datasets_join_No_Rows</title>
<ellipse fill="none" stroke="#000000" cx="107.0208" cy="-173.4156" rx="44.0415" ry="18"/>
<text text-anchor="middle" x="107.0208" y="-169.2156" font-family="Times,serif" font-size="14.00" fill="#000000">No rows</text>
</g>
<!-- samples__dataID_dataID__datasets_join&#45;&gt;samples__dataID_dataID__datasets_join_No_Rows -->
<g id="edge14" class="edge">
<title>samples__dataID_dataID__datasets_join&#45;&gt;samples__dataID_dataID__datasets_join_No_Rows</title>
<path fill="none" stroke="#000000" d="M184.5788,-312.0202C165.4571,-277.8476 138.5153,-229.6998 121.9402,-200.0783"/>
<polygon fill="#000000" stroke="#000000" points="124.8835,-198.1706 116.946,-191.1531 118.7748,-201.5889 124.8835,-198.1706"/>
</g>
<!-- samples__dataID_dataID__datasets_where -->
<g id="node10" class="node">
<title>samples__dataID_dataID__datasets_where</title>
<ellipse fill="none" stroke="#000000" cx="293.0208" cy="-173.4156" rx="124.4353" ry="29.3315"/>
<text text-anchor="middle" x="293.0208" y="-177.6156" font-family="Times,serif" font-size="14.00" fill="#000000">WHERE</text>
<text text-anchor="middle" x="293.0208" y="-160.8156" font-family="Times,serif" font-size="14.00" fill="#000000">datasets.dataID = &quot;BCCDC&quot;</text>
</g>
<!-- samples__dataID_dataID__datasets_join_Has_Rows&#45;&gt;samples__dataID_dataID__datasets_where -->
<g id="edge9" class="edge">
<title>samples__dataID_dataID__datasets_join_Has_Rows&#45;&gt;samples__dataID_dataID__datasets_where</title>
<path fill="none" stroke="#000000" d="M259.14,-239.141C263.2501,-231.1678 268.2759,-221.4183 273.1852,-211.8946"/>
<polygon fill="#000000" stroke="#000000" points="276.3517,-213.3905 277.8228,-202.8982 270.1298,-210.1831 276.3517,-213.3905"/>
</g>
<!-- samples__dataID_dataID__datasets_where_Has_Rows -->
<g id="node11" class="node">
<title>samples__dataID_dataID__datasets_where_Has_Rows</title>
<ellipse fill="none" stroke="#000000" cx="350.0208" cy="-90" rx="47.4704" ry="18"/>
<text text-anchor="middle" x="350.0208" y="-85.8" font-family="Times,serif" font-size="14.00" fill="#000000">Has rows</text>
</g>
<!-- samples__dataID_dataID__datasets_where&#45;&gt;samples__dataID_dataID__datasets_where_Has_Rows -->
<g id="edge10" class="edge">
<title>samples__dataID_dataID__datasets_where&#45;&gt;samples__dataID_dataID__datasets_where_Has_Rows</title>
<path fill="none" stroke="#000000" d="M312.9566,-144.2409C319.2168,-135.0795 326.0848,-125.0286 332.1896,-116.0947"/>
<polygon fill="#000000" stroke="#000000" points="335.237,-117.8386 337.9891,-107.6075 329.4575,-113.8893 335.237,-117.8386"/>
</g>
<!-- samples__dataID_dataID__datasets_where_No_Rows -->
<g id="node13" class="node">
<title>samples__dataID_dataID__datasets_where_No_Rows</title>
<ellipse fill="none" stroke="#000000" cx="200.0208" cy="-90" rx="44.0415" ry="18"/>
<text text-anchor="middle" x="200.0208" y="-85.8" font-family="Times,serif" font-size="14.00" fill="#000000">No rows</text>
</g>
<!-- samples__dataID_dataID__datasets_where&#45;&gt;samples__dataID_dataID__datasets_where_No_Rows -->
<g id="edge12" class="edge">
<title>samples__dataID_dataID__datasets_where&#45;&gt;samples__dataID_dataID__datasets_where_No_Rows</title>
<path fill="none" stroke="#000000" d="M261.2756,-144.942C249.7584,-134.6118 236.894,-123.0731 225.9389,-113.2471"/>
<polygon fill="#000000" stroke="#000000" points="228.1273,-110.5083 218.346,-106.4367 223.4533,-115.7193 228.1273,-110.5083"/>
</g>
<!-- granted -->
<g id="node12" class="node">
<title>granted</title>
<ellipse fill="none" stroke="#000000" cx="445.0208" cy="-18" rx="71.7874" ry="18"/>
<text text-anchor="middle" x="445.0208" y="-13.8" font-family="Times,serif" font-size="14.00" fill="#000000">Access Granted</text>
</g>
<!-- samples__dataID_dataID__datasets_where_Has_Rows&#45;&gt;granted -->
<g id="edge11" class="edge">
<title>samples__dataID_dataID__datasets_where_Has_Rows&#45;&gt;granted</title>
<path fill="none" stroke="#000000" d="M371.5777,-73.6621C384.0902,-64.179 400.0672,-52.0701 413.922,-41.5696"/>
<polygon fill="#000000" stroke="#000000" points="416.3687,-44.1069 422.2244,-35.2773 412.1406,-38.5281 416.3687,-44.1069"/>
</g>
<!-- denied -->
<g id="node14" class="node">
<title>denied</title>
<ellipse fill="none" stroke="#000000" cx="107.0208" cy="-18" rx="68.8581" ry="18"/>
<text text-anchor="middle" x="107.0208" y="-13.8" font-family="Times,serif" font-size="14.00" fill="#000000">Access Denied</text>
</g>
<!-- samples__dataID_dataID__datasets_where_No_Rows&#45;&gt;denied -->
<g id="edge13" class="edge">
<title>samples__dataID_dataID__datasets_where_No_Rows&#45;&gt;denied</title>
<path fill="none" stroke="#000000" d="M179.3811,-74.0209C167.0614,-64.4831 151.1908,-52.1962 137.4534,-41.5607"/>
<polygon fill="#000000" stroke="#000000" points="139.2763,-38.5457 129.2264,-35.1915 134.991,-44.0808 139.2763,-38.5457"/>
</g>
<!-- samples__dataID_dataID__datasets_join_No_Rows&#45;&gt;denied -->
<g id="edge15" class="edge">
<title>samples__dataID_dataID__datasets_join_No_Rows&#45;&gt;denied</title>
<path fill="none" stroke="#000000" d="M107.0208,-155.2833C107.0208,-128.4948 107.0208,-78.0995 107.0208,-46.3859"/>
<polygon fill="#000000" stroke="#000000" points="110.5209,-46.0168 107.0208,-36.0168 103.5209,-46.0169 110.5209,-46.0168"/>
</g>
<!-- sites__siteID_siteID__samples_join_No_Rows&#45;&gt;denied -->
<g id="edge17" class="edge">
<title>sites__siteID_siteID__samples_join_No_Rows&#45;&gt;denied</title>
<path fill="none" stroke="#000000" d="M42.7952,-334.0246C40.7811,-297.5421 38.4141,-212.7926 54.0208,-144 62.0859,-108.4497 79.5546,-70.1968 92.2381,-45.2843"/>
<polygon fill="#000000" stroke="#000000" points="95.5017,-46.5941 97.0029,-36.1061 89.289,-43.3688 95.5017,-46.5941"/>
</g>
<!-- addresses__addID_addID__sites_join_No_Rows&#45;&gt;granted -->
<g id="edge19" class="edge">
<title>addresses__addID_addID__sites_join_No_Rows&#45;&gt;granted</title>
<path fill="none" stroke="#000000" d="M402.9434,-524.9924C417.0421,-491.7859 445.0208,-417.6351 445.0208,-352.1263 445.0208,-352.1263 445.0208,-352.1263 445.0208,-173.4156 445.0208,-129.0052 445.0208,-77.4563 445.0208,-46.3065"/>
<polygon fill="#000000" stroke="#000000" points="448.5209,-46.1843 445.0208,-36.1843 441.5209,-46.1843 448.5209,-46.1843"/>
</g>
<!-- organizations__addID_addID__addresses_join_No_Rows&#45;&gt;granted -->
<g id="edge21" class="edge">
<title>organizations__addID_addID__addresses_join_No_Rows&#45;&gt;granted</title>
<path fill="none" stroke="#000000" d="M483.0208,-715.1741C483.0208,-681.2955 483.0208,-606.081 483.0208,-542.7164 483.0208,-542.7164 483.0208,-542.7164 483.0208,-173.4156 483.0208,-127.7468 467.3467,-76.6338 456.1317,-45.9068"/>
<polygon fill="#000000" stroke="#000000" points="459.3188,-44.4379 452.5283,-36.3052 452.7651,-46.8974 459.3188,-44.4379"/>
</g>
</g>
</svg>
