<?xml version="1.0" encoding="UTF-8" standalone="no"?>
<!DOCTYPE svg PUBLIC "-//W3C//DTD SVG 1.1//EN"
 "http://www.w3.org/Graphics/SVG/1.1/DTD/svg11.dtd">
<!-- Generated by graphviz version 2.40.1 (20161225.0304)
 -->
<!-- Title: G Pages: 1 -->
<svg width="1022pt" height="1212pt"
 viewBox="0.00 0.00 1022.02 1212.02" xmlns="http://www.w3.org/2000/svg" xmlns:xlink="http://www.w3.org/1999/xlink">
<g id="graph0" class="graph" transform="scale(1 1) rotate(0) translate(4 1208.0229)">
<title>G</title>
<polygon fill="#ffffff" stroke="transparent" points="-4,4 -4,-1208.0229 1018.0208,-1208.0229 1018.0208,4 -4,4"/>
<!-- organizations -->
<g id="node1" class="node">
<title>organizations</title>
<ellipse fill="none" stroke="#000000" cx="899" cy="-1186.0229" rx="63.1209" ry="18"/>
<text text-anchor="middle" x="899" y="-1181.8229" font-family="Times,serif" font-size="14.00" fill="#000000">organizations</text>
</g>
<!-- organizations__addID_addID__addresses_join -->
<g id="node2" class="node">
<title>organizations__addID_addID__addresses_join</title>
<ellipse fill="none" stroke="#000000" cx="899" cy="-1090.7278" rx="99.0518" ry="41.0911"/>
<text text-anchor="middle" x="899" y="-1103.3278" font-family="Times,serif" font-size="14.00" fill="#000000">LEFT JOIN addresses</text>
<text text-anchor="middle" x="899" y="-1086.5278" font-family="Times,serif" font-size="14.00" fill="#000000">At level: 4</text>
<text text-anchor="middle" x="899" y="-1069.7278" font-family="Times,serif" font-size="14.00" fill="#000000">Required: false</text>
</g>
<!-- organizations&#45;&gt;organizations__addID_addID__addresses_join -->
<g id="edge1" class="edge">
<title>organizations&#45;&gt;organizations__addID_addID__addresses_join</title>
<path fill="none" stroke="#000000" d="M899,-1167.649C899,-1160.3399 899,-1151.5303 899,-1142.5215"/>
<polygon fill="#000000" stroke="#000000" points="902.5001,-1142.335 899,-1132.335 895.5001,-1142.335 902.5001,-1142.335"/>
</g>
<!-- organizations__addID_addID__addresses_join_Has_Rows -->
<g id="node3" class="node">
<title>organizations__addID_addID__addresses_join_Has_Rows</title>
<ellipse fill="none" stroke="#000000" cx="862" cy="-995.4328" rx="47.4704" ry="18"/>
<text text-anchor="middle" x="862" y="-991.2328" font-family="Times,serif" font-size="14.00" fill="#000000">Has rows</text>
</g>
<!-- organizations__addID_addID__addresses_join&#45;&gt;organizations__addID_addID__addresses_join_Has_Rows -->
<g id="edge2" class="edge">
<title>organizations__addID_addID__addresses_join&#45;&gt;organizations__addID_addID__addresses_join_Has_Rows</title>
<path fill="none" stroke="#000000" d="M883.0939,-1049.7611C879.5463,-1040.6241 875.8689,-1031.1528 872.5975,-1022.7271"/>
<polygon fill="#000000" stroke="#000000" points="875.8579,-1021.4542 868.9757,-1013.399 869.3325,-1023.9879 875.8579,-1021.4542"/>
</g>
<!-- organizations__addID_addID__addresses_join_No_Rows -->
<g id="node27" class="node">
<title>organizations__addID_addID__addresses_join_No_Rows</title>
<ellipse fill="none" stroke="#000000" cx="970" cy="-900.1377" rx="44.0415" ry="18"/>
<text text-anchor="middle" x="970" y="-895.9377" font-family="Times,serif" font-size="14.00" fill="#000000">No rows</text>
</g>
<!-- organizations__addID_addID__addresses_join&#45;&gt;organizations__addID_addID__addresses_join_No_Rows -->
<g id="edge33" class="edge">
<title>organizations__addID_addID__addresses_join&#45;&gt;organizations__addID_addID__addresses_join_No_Rows</title>
<path fill="none" stroke="#000000" d="M914.2313,-1049.8415C927.9822,-1012.9289 947.8349,-959.6371 959.7714,-927.5952"/>
<polygon fill="#000000" stroke="#000000" points="963.1397,-928.5791 963.3509,-917.9864 956.5801,-926.1354 963.1397,-928.5791"/>
</g>
<!-- addresses__addID_addID__sites_join -->
<g id="node4" class="node">
<title>addresses__addID_addID__sites_join</title>
<ellipse fill="none" stroke="#000000" cx="829" cy="-900.1377" rx="78.8882" ry="41.0911"/>
<text text-anchor="middle" x="829" y="-912.7377" font-family="Times,serif" font-size="14.00" fill="#000000">LEFT JOIN sites</text>
<text text-anchor="middle" x="829" y="-895.9377" font-family="Times,serif" font-size="14.00" fill="#000000">At level: 3</text>
<text text-anchor="middle" x="829" y="-879.1377" font-family="Times,serif" font-size="14.00" fill="#000000">Required: false</text>
</g>
<!-- organizations__addID_addID__addresses_join_Has_Rows&#45;&gt;addresses__addID_addID__sites_join -->
<g id="edge3" class="edge">
<title>organizations__addID_addID__addresses_join_Has_Rows&#45;&gt;addresses__addID_addID__sites_join</title>
<path fill="none" stroke="#000000" d="M855.793,-977.5085C853.1044,-969.7447 849.8088,-960.2279 846.4603,-950.5583"/>
<polygon fill="#000000" stroke="#000000" points="849.6943,-949.2011 843.1146,-940.897 843.0797,-951.4918 849.6943,-949.2011"/>
</g>
<!-- addresses__addID_addID__sites_join_Has_Rows -->
<g id="node5" class="node">
<title>addresses__addID_addID__sites_join_Has_Rows</title>
<ellipse fill="none" stroke="#000000" cx="532" cy="-804.8427" rx="47.4704" ry="18"/>
<text text-anchor="middle" x="532" y="-800.6427" font-family="Times,serif" font-size="14.00" fill="#000000">Has rows</text>
</g>
<!-- addresses__addID_addID__sites_join&#45;&gt;addresses__addID_addID__sites_join_Has_Rows -->
<g id="edge4" class="edge">
<title>addresses__addID_addID__sites_join&#45;&gt;addresses__addID_addID__sites_join_Has_Rows</title>
<path fill="none" stroke="#000000" d="M761.6061,-878.5138C705.5654,-860.5327 627.2948,-835.4189 578.1487,-819.6499"/>
<polygon fill="#000000" stroke="#000000" points="579.0139,-816.2518 568.4227,-816.5292 576.8752,-822.9171 579.0139,-816.2518"/>
</g>
<!-- addresses__addID_addID__sites_join_No_Rows -->
<g id="node26" class="node">
<title>addresses__addID_addID__sites_join_No_Rows</title>
<ellipse fill="none" stroke="#000000" cx="881" cy="-721.4271" rx="44.0415" ry="18"/>
<text text-anchor="middle" x="881" y="-717.2271" font-family="Times,serif" font-size="14.00" fill="#000000">No rows</text>
</g>
<!-- addresses__addID_addID__sites_join&#45;&gt;addresses__addID_addID__sites_join_No_Rows -->
<g id="edge31" class="edge">
<title>addresses__addID_addID__sites_join&#45;&gt;addresses__addID_addID__sites_join_No_Rows</title>
<path fill="none" stroke="#000000" d="M840.9299,-859.1379C850.7468,-825.3996 864.3934,-778.4997 872.9578,-749.0661"/>
<polygon fill="#000000" stroke="#000000" points="876.3272,-750.0134 875.7605,-739.4337 869.606,-748.0576 876.3272,-750.0134"/>
</g>
<!-- addresses__addID_addID__sites_where -->
<g id="node6" class="node">
<title>addresses__addID_addID__sites_where</title>
<ellipse fill="none" stroke="#000000" cx="241" cy="-721.4271" rx="133.6073" ry="29.3315"/>
<text text-anchor="middle" x="241" y="-725.6271" font-family="Times,serif" font-size="14.00" fill="#000000">WHERE</text>
<text text-anchor="middle" x="241" y="-708.8271" font-family="Times,serif" font-size="14.00" fill="#000000">sites.healthReg = &quot;Vancouver&quot;</text>
</g>
<!-- addresses__addID_addID__sites_join_Has_Rows&#45;&gt;addresses__addID_addID__sites_where -->
<g id="edge5" class="edge">
<title>addresses__addID_addID__sites_join_Has_Rows&#45;&gt;addresses__addID_addID__sites_where</title>
<path fill="none" stroke="#000000" d="M493.9568,-793.9376C453.1178,-782.231 386.7602,-763.2095 332.2551,-747.5855"/>
<polygon fill="#000000" stroke="#000000" points="333.1511,-744.2014 322.5738,-744.8103 331.2221,-750.9304 333.1511,-744.2014"/>
</g>
<!-- addresses__addID_addID__sites_where_Has_Rows -->
<g id="node7" class="node">
<title>addresses__addID_addID__sites_where_Has_Rows</title>
<ellipse fill="none" stroke="#000000" cx="241" cy="-638.0114" rx="47.4704" ry="18"/>
<text text-anchor="middle" x="241" y="-633.8114" font-family="Times,serif" font-size="14.00" fill="#000000">Has rows</text>
</g>
<!-- addresses__addID_addID__sites_where&#45;&gt;addresses__addID_addID__sites_where_Has_Rows -->
<g id="edge6" class="edge">
<title>addresses__addID_addID__sites_where&#45;&gt;addresses__addID_addID__sites_where_Has_Rows</title>
<path fill="none" stroke="#000000" d="M241,-691.783C241,-683.5778 241,-674.691 241,-666.5502"/>
<polygon fill="#000000" stroke="#000000" points="244.5001,-666.398 241,-656.398 237.5001,-666.398 244.5001,-666.398"/>
</g>
<!-- addresses__addID_addID__sites_where_No_Rows -->
<g id="node25" class="node">
<title>addresses__addID_addID__sites_where_No_Rows</title>
<ellipse fill="none" stroke="#000000" cx="76" cy="-542.7164" rx="44.0415" ry="18"/>
<text text-anchor="middle" x="76" y="-538.5164" font-family="Times,serif" font-size="14.00" fill="#000000">No rows</text>
</g>
<!-- addresses__addID_addID__sites_where&#45;&gt;addresses__addID_addID__sites_where_No_Rows -->
<g id="edge29" class="edge">
<title>addresses__addID_addID__sites_where&#45;&gt;addresses__addID_addID__sites_where_No_Rows</title>
<path fill="none" stroke="#000000" d="M214.1227,-692.3164C182.1329,-657.6684 129.2581,-600.4 99.0531,-567.6851"/>
<polygon fill="#000000" stroke="#000000" points="101.244,-564.8985 91.8888,-559.9254 96.1008,-569.647 101.244,-564.8985"/>
</g>
<!-- sites__siteID_siteID__samples_join -->
<g id="node8" class="node">
<title>sites__siteID_siteID__samples_join</title>
<ellipse fill="none" stroke="#000000" cx="241" cy="-542.7164" rx="93.4765" ry="41.0911"/>
<text text-anchor="middle" x="241" y="-555.3164" font-family="Times,serif" font-size="14.00" fill="#000000">LEFT JOIN samples</text>
<text text-anchor="middle" x="241" y="-538.5164" font-family="Times,serif" font-size="14.00" fill="#000000">At level: 2</text>
<text text-anchor="middle" x="241" y="-521.7164" font-family="Times,serif" font-size="14.00" fill="#000000">Required: true</text>
</g>
<!-- addresses__addID_addID__sites_where_Has_Rows&#45;&gt;sites__siteID_siteID__samples_join -->
<g id="edge7" class="edge">
<title>addresses__addID_addID__sites_where_Has_Rows&#45;&gt;sites__siteID_siteID__samples_join</title>
<path fill="none" stroke="#000000" d="M241,-619.6376C241,-612.3285 241,-603.5189 241,-594.5101"/>
<polygon fill="#000000" stroke="#000000" points="244.5001,-594.3235 241,-584.3236 237.5001,-594.3236 244.5001,-594.3235"/>
</g>
<!-- sites__siteID_siteID__samples_join_Has_Rows -->
<g id="node9" class="node">
<title>sites__siteID_siteID__samples_join_Has_Rows</title>
<ellipse fill="none" stroke="#000000" cx="251" cy="-447.4214" rx="47.4704" ry="18"/>
<text text-anchor="middle" x="251" y="-443.2214" font-family="Times,serif" font-size="14.00" fill="#000000">Has rows</text>
</g>
<!-- sites__siteID_siteID__samples_join&#45;&gt;sites__siteID_siteID__samples_join_Has_Rows -->
<g id="edge8" class="edge">
<title>sites__siteID_siteID__samples_join&#45;&gt;sites__siteID_siteID__samples_join_Has_Rows</title>
<path fill="none" stroke="#000000" d="M245.3571,-501.1958C246.2646,-492.547 247.201,-483.6243 248.0437,-475.5932"/>
<polygon fill="#000000" stroke="#000000" points="251.5246,-475.958 249.0874,-465.6473 244.5628,-475.2273 251.5246,-475.958"/>
</g>
<!-- sites__siteID_siteID__samples_join_No_Rows -->
<g id="node24" class="node">
<title>sites__siteID_siteID__samples_join_No_Rows</title>
<ellipse fill="none" stroke="#000000" cx="107" cy="-447.4214" rx="44.0415" ry="18"/>
<text text-anchor="middle" x="107" y="-443.2214" font-family="Times,serif" font-size="14.00" fill="#000000">No rows</text>
</g>
<!-- sites__siteID_siteID__samples_join&#45;&gt;sites__siteID_siteID__samples_join_No_Rows -->
<g id="edge27" class="edge">
<title>sites__siteID_siteID__samples_join&#45;&gt;sites__siteID_siteID__samples_join_No_Rows</title>
<path fill="none" stroke="#000000" d="M191.4841,-507.5028C173.3675,-494.619 153.4171,-480.4312 137.4545,-469.0793"/>
<polygon fill="#000000" stroke="#000000" points="139.2114,-466.0339 129.0335,-463.0907 135.1545,-471.7385 139.2114,-466.0339"/>
</g>
<!-- samples__siteID_siteID__sites_join -->
<g id="node10" class="node">
<title>samples__siteID_siteID__sites_join</title>
<ellipse fill="none" stroke="#000000" cx="574" cy="-352.1263" rx="78.8882" ry="41.0911"/>
<text text-anchor="middle" x="574" y="-364.7263" font-family="Times,serif" font-size="14.00" fill="#000000">LEFT JOIN sites</text>
<text text-anchor="middle" x="574" y="-347.9263" font-family="Times,serif" font-size="14.00" fill="#000000">At level: 1</text>
<text text-anchor="middle" x="574" y="-331.1263" font-family="Times,serif" font-size="14.00" fill="#000000">Required: true</text>
</g>
<!-- sites__siteID_siteID__samples_join_Has_Rows&#45;&gt;samples__siteID_siteID__sites_join -->
<g id="edge9" class="edge">
<title>sites__siteID_siteID__samples_join_Has_Rows&#45;&gt;samples__siteID_siteID__sites_join</title>
<path fill="none" stroke="#000000" d="M288.3677,-436.3967C338.6758,-421.5543 429.4507,-394.7728 495.1913,-375.3773"/>
<polygon fill="#000000" stroke="#000000" points="496.508,-378.6381 505.1088,-372.4514 494.5271,-371.9242 496.508,-378.6381"/>
</g>
<!-- samples__dataID_dataID__datasets_join -->
<g id="node18" class="node">
<title>samples__dataID_dataID__datasets_join</title>
<ellipse fill="none" stroke="#000000" cx="251" cy="-352.1263" rx="92.8656" ry="41.0911"/>
<text text-anchor="middle" x="251" y="-364.7263" font-family="Times,serif" font-size="14.00" fill="#000000">LEFT JOIN datasets</text>
<text text-anchor="middle" x="251" y="-347.9263" font-family="Times,serif" font-size="14.00" fill="#000000">At level: 1</text>
<text text-anchor="middle" x="251" y="-331.1263" font-family="Times,serif" font-size="14.00" fill="#000000">Required: true</text>
</g>
<!-- sites__siteID_siteID__samples_join_Has_Rows&#45;&gt;samples__dataID_dataID__datasets_join -->
<g id="edge18" class="edge">
<title>sites__siteID_siteID__samples_join_Has_Rows&#45;&gt;samples__dataID_dataID__datasets_join</title>
<path fill="none" stroke="#000000" d="M251,-429.0475C251,-421.7384 251,-412.9288 251,-403.92"/>
<polygon fill="#000000" stroke="#000000" points="254.5001,-403.7335 251,-393.7335 247.5001,-403.7335 254.5001,-403.7335"/>
</g>
<!-- samples__siteID_siteID__sites_join_Has_Rows -->
<g id="node11" class="node">
<title>samples__siteID_siteID__sites_join_Has_Rows</title>
<ellipse fill="none" stroke="#000000" cx="710" cy="-256.8313" rx="47.4704" ry="18"/>
<text text-anchor="middle" x="710" y="-252.6313" font-family="Times,serif" font-size="14.00" fill="#000000">Has rows</text>
</g>
<!-- samples__siteID_siteID__sites_join&#45;&gt;samples__siteID_siteID__sites_join_Has_Rows -->
<g id="edge10" class="edge">
<title>samples__siteID_siteID__sites_join&#45;&gt;samples__siteID_siteID__sites_join_Has_Rows</title>
<path fill="none" stroke="#000000" d="M621.5662,-318.7967C640.4825,-305.5421 661.7244,-290.6579 678.6478,-278.7997"/>
<polygon fill="#000000" stroke="#000000" points="680.8877,-281.504 687.0688,-272.8991 676.8707,-275.7712 680.8877,-281.504"/>
</g>
<!-- samples__siteID_siteID__sites_join_No_Rows -->
<g id="node17" class="node">
<title>samples__siteID_siteID__sites_join_No_Rows</title>
<ellipse fill="none" stroke="#000000" cx="574" cy="-173.4156" rx="44.0415" ry="18"/>
<text text-anchor="middle" x="574" y="-169.2156" font-family="Times,serif" font-size="14.00" fill="#000000">No rows</text>
</g>
<!-- samples__siteID_siteID__sites_join&#45;&gt;samples__siteID_siteID__sites_join_No_Rows -->
<g id="edge16" class="edge">
<title>samples__siteID_siteID__sites_join&#45;&gt;samples__siteID_siteID__sites_join_No_Rows</title>
<path fill="none" stroke="#000000" d="M574,-310.6773C574,-277.3966 574,-231.5276 574,-202.1677"/>
<polygon fill="#000000" stroke="#000000" points="577.5001,-201.7842 574,-191.7843 570.5001,-201.7843 577.5001,-201.7842"/>
</g>
<!-- samples__siteID_siteID__sites_where -->
<g id="node12" class="node">
<title>samples__siteID_siteID__sites_where</title>
<ellipse fill="none" stroke="#000000" cx="770" cy="-173.4156" rx="133.6073" ry="29.3315"/>
<text text-anchor="middle" x="770" y="-177.6156" font-family="Times,serif" font-size="14.00" fill="#000000">WHERE</text>
<text text-anchor="middle" x="770" y="-160.8156" font-family="Times,serif" font-size="14.00" fill="#000000">sites.healthReg = &quot;Vancouver&quot;</text>
</g>
<!-- samples__siteID_siteID__sites_join_Has_Rows&#45;&gt;samples__siteID_siteID__sites_where -->
<g id="edge11" class="edge">
<title>samples__siteID_siteID__sites_join_Has_Rows&#45;&gt;samples__siteID_siteID__sites_where</title>
<path fill="none" stroke="#000000" d="M722.7245,-239.141C728.6906,-230.8465 736.0395,-220.6296 743.1498,-210.7444"/>
<polygon fill="#000000" stroke="#000000" points="746.0328,-212.7303 749.0307,-202.5684 740.3501,-208.6428 746.0328,-212.7303"/>
</g>
<!-- samples__siteID_siteID__sites_where_Has_Rows -->
<g id="node13" class="node">
<title>samples__siteID_siteID__sites_where_Has_Rows</title>
<ellipse fill="none" stroke="#000000" cx="813" cy="-90" rx="47.4704" ry="18"/>
<text text-anchor="middle" x="813" y="-85.8" font-family="Times,serif" font-size="14.00" fill="#000000">Has rows</text>
</g>
<!-- samples__siteID_siteID__sites_where&#45;&gt;samples__siteID_siteID__sites_where_Has_Rows -->
<g id="edge12" class="edge">
<title>samples__siteID_siteID__sites_where&#45;&gt;samples__siteID_siteID__sites_where_Has_Rows</title>
<path fill="none" stroke="#000000" d="M785.2813,-143.7715C789.7712,-135.0615 794.6571,-125.5834 799.0586,-117.0449"/>
<polygon fill="#000000" stroke="#000000" points="802.3044,-118.387 803.7754,-107.8947 796.0824,-115.1796 802.3044,-118.387"/>
</g>
<!-- samples__siteID_siteID__sites_where_No_Rows -->
<g id="node15" class="node">
<title>samples__siteID_siteID__sites_where_No_Rows</title>
<ellipse fill="none" stroke="#000000" cx="649" cy="-90" rx="44.0415" ry="18"/>
<text text-anchor="middle" x="649" y="-85.8" font-family="Times,serif" font-size="14.00" fill="#000000">No rows</text>
</g>
<!-- samples__siteID_siteID__sites_where&#45;&gt;samples__siteID_siteID__sites_where_No_Rows -->
<g id="edge14" class="edge">
<title>samples__siteID_siteID__sites_where&#45;&gt;samples__siteID_siteID__sites_where_No_Rows</title>
<path fill="none" stroke="#000000" d="M729.0349,-145.1749C712.9875,-134.112 694.8859,-121.633 679.962,-111.3447"/>
<polygon fill="#000000" stroke="#000000" points="681.8015,-108.3618 671.5818,-105.5676 677.8284,-114.125 681.8015,-108.3618"/>
</g>
<!-- granted -->
<g id="node14" class="node">
<title>granted</title>
<ellipse fill="none" stroke="#000000" cx="872" cy="-18" rx="71.7874" ry="18"/>
<text text-anchor="middle" x="872" y="-13.8" font-family="Times,serif" font-size="14.00" fill="#000000">Access Granted</text>
</g>
<!-- samples__siteID_siteID__sites_where_Has_Rows&#45;&gt;granted -->
<g id="edge13" class="edge">
<title>samples__siteID_siteID__sites_where_Has_Rows&#45;&gt;granted</title>
<path fill="none" stroke="#000000" d="M827.2823,-72.5708C834.4228,-63.857 843.2013,-53.1441 851.0841,-43.5244"/>
<polygon fill="#000000" stroke="#000000" points="853.8083,-45.7221 857.4394,-35.7689 848.3939,-41.2853 853.8083,-45.7221"/>
</g>
<!-- denied -->
<g id="node16" class="node">
<title>denied</title>
<ellipse fill="none" stroke="#000000" cx="173" cy="-18" rx="68.8581" ry="18"/>
<text text-anchor="middle" x="173" y="-13.8" font-family="Times,serif" font-size="14.00" fill="#000000">Access Denied</text>
</g>
<!-- samples__siteID_siteID__sites_where_No_Rows&#45;&gt;denied -->
<g id="edge15" class="edge">
<title>samples__siteID_siteID__sites_where_No_Rows&#45;&gt;denied</title>
<path fill="none" stroke="#000000" d="M607.5908,-83.7364C525.9149,-71.3821 343.2778,-43.7563 242.7156,-28.5452"/>
<polygon fill="#000000" stroke="#000000" points="243.0635,-25.0581 232.6525,-27.0231 242.0165,-31.9794 243.0635,-25.0581"/>
</g>
<!-- samples__siteID_siteID__sites_join_No_Rows&#45;&gt;denied -->
<g id="edge17" class="edge">
<title>samples__siteID_siteID__sites_join_No_Rows&#45;&gt;denied</title>
<path fill="none" stroke="#000000" d="M553.2562,-157.1738C523.5989,-134.7397 466.6108,-94.4973 412,-72 358.0212,-49.763 293.231,-35.8489 244.7341,-27.7248"/>
<polygon fill="#000000" stroke="#000000" points="245.0756,-24.2343 234.6424,-26.0782 243.9482,-31.143 245.0756,-24.2343"/>
</g>
<!-- samples__dataID_dataID__datasets_join_Has_Rows -->
<g id="node19" class="node">
<title>samples__dataID_dataID__datasets_join_Has_Rows</title>
<ellipse fill="none" stroke="#000000" cx="289" cy="-256.8313" rx="47.4704" ry="18"/>
<text text-anchor="middle" x="289" y="-252.6313" font-family="Times,serif" font-size="14.00" fill="#000000">Has rows</text>
</g>
<!-- samples__dataID_dataID__datasets_join&#45;&gt;samples__dataID_dataID__datasets_join_Has_Rows -->
<g id="edge19" class="edge">
<title>samples__dataID_dataID__datasets_join&#45;&gt;samples__dataID_dataID__datasets_join_Has_Rows</title>
<path fill="none" stroke="#000000" d="M267.2256,-311.4362C270.8794,-302.2735 274.673,-292.76 278.0503,-284.2906"/>
<polygon fill="#000000" stroke="#000000" points="281.3373,-285.4966 281.7903,-274.9114 274.8352,-282.9037 281.3373,-285.4966"/>
</g>
<!-- samples__dataID_dataID__datasets_join_No_Rows -->
<g id="node23" class="node">
<title>samples__dataID_dataID__datasets_join_No_Rows</title>
<ellipse fill="none" stroke="#000000" cx="136" cy="-256.8313" rx="44.0415" ry="18"/>
<text text-anchor="middle" x="136" y="-252.6313" font-family="Times,serif" font-size="14.00" fill="#000000">No rows</text>
</g>
<!-- samples__dataID_dataID__datasets_join&#45;&gt;samples__dataID_dataID__datasets_join_No_Rows -->
<g id="edge25" class="edge">
<title>samples__dataID_dataID__datasets_join&#45;&gt;samples__dataID_dataID__datasets_join_No_Rows</title>
<path fill="none" stroke="#000000" d="M206.8669,-315.5553C192.3182,-303.4995 176.561,-290.4422 163.6074,-279.7082"/>
<polygon fill="#000000" stroke="#000000" points="165.4739,-276.7094 155.5407,-273.0238 161.0075,-282.0993 165.4739,-276.7094"/>
</g>
<!-- samples__dataID_dataID__datasets_where -->
<g id="node20" class="node">
<title>samples__dataID_dataID__datasets_where</title>
<ellipse fill="none" stroke="#000000" cx="308" cy="-173.4156" rx="204.088" ry="29.3315"/>
<text text-anchor="middle" x="308" y="-177.6156" font-family="Times,serif" font-size="14.00" fill="#000000">WHERE IN</text>
<text text-anchor="middle" x="308" y="-160.8156" font-family="Times,serif" font-size="14.00" fill="#000000">datasets.dataID = [&quot;BCCDC&quot;,&quot;NML&#45;WWPCR&quot;]</text>
</g>
<!-- samples__dataID_dataID__datasets_join_Has_Rows&#45;&gt;samples__dataID_dataID__datasets_where -->
<g id="edge20" class="edge">
<title>samples__dataID_dataID__datasets_join_Has_Rows&#45;&gt;samples__dataID_dataID__datasets_where</title>
<path fill="none" stroke="#000000" d="M293.1227,-238.7313C294.8514,-231.1418 296.9343,-221.9972 298.9869,-212.986"/>
<polygon fill="#000000" stroke="#000000" points="302.4625,-213.4864 301.2708,-202.9588 295.6373,-211.9317 302.4625,-213.4864"/>
</g>
<!-- samples__dataID_dataID__datasets_where_Has_Rows -->
<g id="node21" class="node">
<title>samples__dataID_dataID__datasets_where_Has_Rows</title>
<ellipse fill="none" stroke="#000000" cx="356" cy="-90" rx="47.4704" ry="18"/>
<text text-anchor="middle" x="356" y="-85.8" font-family="Times,serif" font-size="14.00" fill="#000000">Has rows</text>
</g>
<!-- samples__dataID_dataID__datasets_where&#45;&gt;samples__dataID_dataID__datasets_where_Has_Rows -->
<g id="edge21" class="edge">
<title>samples__dataID_dataID__datasets_where&#45;&gt;samples__dataID_dataID__datasets_where_Has_Rows</title>
<path fill="none" stroke="#000000" d="M325.0582,-143.7715C330.1241,-134.9678 335.6415,-125.3795 340.5958,-116.7697"/>
<polygon fill="#000000" stroke="#000000" points="343.7488,-118.3079 345.7028,-107.8947 337.6816,-114.8166 343.7488,-118.3079"/>
</g>
<!-- samples__dataID_dataID__datasets_where_No_Rows -->
<g id="node22" class="node">
<title>samples__dataID_dataID__datasets_where_No_Rows</title>
<ellipse fill="none" stroke="#000000" cx="222" cy="-90" rx="44.0415" ry="18"/>
<text text-anchor="middle" x="222" y="-85.8" font-family="Times,serif" font-size="14.00" fill="#000000">No rows</text>
</g>
<!-- samples__dataID_dataID__datasets_where&#45;&gt;samples__dataID_dataID__datasets_where_No_Rows -->
<g id="edge23" class="edge">
<title>samples__dataID_dataID__datasets_where&#45;&gt;samples__dataID_dataID__datasets_where_No_Rows</title>
<path fill="none" stroke="#000000" d="M277.9214,-144.2409C267.6784,-134.3057 256.357,-123.3246 246.5954,-113.8563"/>
<polygon fill="#000000" stroke="#000000" points="248.7666,-111.0862 239.1516,-106.6362 243.8929,-116.1109 248.7666,-111.0862"/>
</g>
<!-- samples__dataID_dataID__datasets_where_Has_Rows&#45;&gt;granted -->
<g id="edge22" class="edge">
<title>samples__dataID_dataID__datasets_where_Has_Rows&#45;&gt;granted</title>
<path fill="none" stroke="#000000" d="M400.4405,-83.799C489.3661,-71.3908 689.9665,-43.4 798.6684,-28.2323"/>
<polygon fill="#000000" stroke="#000000" points="799.4739,-31.6539 808.8942,-26.8055 798.5064,-24.7211 799.4739,-31.6539"/>
</g>
<!-- samples__dataID_dataID__datasets_where_No_Rows&#45;&gt;denied -->
<g id="edge24" class="edge">
<title>samples__dataID_dataID__datasets_where_No_Rows&#45;&gt;denied</title>
<path fill="none" stroke="#000000" d="M210.1385,-72.5708C204.3268,-64.0312 197.2086,-53.5719 190.7645,-44.1029"/>
<polygon fill="#000000" stroke="#000000" points="193.6125,-42.0668 185.0927,-35.7689 187.8255,-46.0052 193.6125,-42.0668"/>
</g>
<!-- samples__dataID_dataID__datasets_join_No_Rows&#45;&gt;denied -->
<g id="edge26" class="edge">
<title>samples__dataID_dataID__datasets_join_No_Rows&#45;&gt;denied</title>
<path fill="none" stroke="#000000" d="M118.68,-240.0729C109.7377,-230.1888 99.7316,-216.8878 95,-202.8313 86.6584,-178.0503 87.8456,-169.1494 95,-144 105.8939,-105.7054 132.1204,-67.6655 151.1612,-43.5663"/>
<polygon fill="#000000" stroke="#000000" points="153.9981,-45.6242 157.5596,-35.6459 148.5529,-41.2253 153.9981,-45.6242"/>
</g>
<!-- sites__siteID_siteID__samples_join_No_Rows&#45;&gt;denied -->
<g id="edge28" class="edge">
<title>sites__siteID_siteID__samples_join_No_Rows&#45;&gt;denied</title>
<path fill="none" stroke="#000000" d="M95.914,-429.7992C76.4093,-397.0562 38,-324.0446 38,-256.8313 38,-256.8313 38,-256.8313 38,-173.4156 38,-113.8145 95.2871,-65.9138 135.2253,-39.7613"/>
<polygon fill="#000000" stroke="#000000" points="137.1523,-42.6836 143.707,-34.3597 133.3921,-36.7793 137.1523,-42.6836"/>
</g>
<!-- addresses__addID_addID__sites_where_No_Rows&#45;&gt;denied -->
<g id="edge30" class="edge">
<title>addresses__addID_addID__sites_where_No_Rows&#45;&gt;denied</title>
<path fill="none" stroke="#000000" d="M63.7893,-525.2538C42.3058,-492.7702 0,-420.1648 0,-352.1263 0,-352.1263 0,-352.1263 0,-173.4156 0,-121.0444 21.367,-107.3587 60,-72 77.0311,-56.4123 99.3747,-44.4653 119.6936,-35.8205"/>
<polygon fill="#000000" stroke="#000000" points="121.2262,-38.9755 129.1659,-31.9604 118.5845,-32.4931 121.2262,-38.9755"/>
</g>
<!-- addresses__addID_addID__sites_join_No_Rows&#45;&gt;granted -->
<g id="edge32" class="edge">
<title>addresses__addID_addID__sites_join_No_Rows&#45;&gt;granted</title>
<path fill="none" stroke="#000000" d="M889.6515,-703.6421C904.202,-672.0438 932,-603.6969 932,-542.7164 932,-542.7164 932,-542.7164 932,-173.4156 932,-125.449 906.8192,-74.4057 889.0832,-44.4027"/>
<polygon fill="#000000" stroke="#000000" points="892.0369,-42.5235 883.8541,-35.7936 886.0541,-46.1575 892.0369,-42.5235"/>
</g>
<!-- organizations__addID_addID__addresses_join_No_Rows&#45;&gt;granted -->
<g id="edge34" class="edge">
<title>organizations__addID_addID__addresses_join_No_Rows&#45;&gt;granted</title>
<path fill="none" stroke="#000000" d="M970,-882.1277C970,-849.8967 970,-780.2216 970,-721.4271 970,-721.4271 970,-721.4271 970,-173.4156 970,-124.4578 954.5546,-112.4674 927,-72 919.7039,-61.2847 910.0537,-50.9464 900.876,-42.2341"/>
<polygon fill="#000000" stroke="#000000" points="903.0763,-39.503 893.3398,-35.3256 898.3461,-44.663 903.0763,-39.503"/>
</g>
</g>
</svg>
