<?xml version="1.0" encoding="UTF-8" standalone="no"?>
<!DOCTYPE svg PUBLIC "-//W3C//DTD SVG 1.1//EN"
 "http://www.w3.org/Graphics/SVG/1.1/DTD/svg11.dtd">
<!-- Generated by graphviz version 2.40.1 (20161225.0304)
 -->
<!-- Title: G Pages: 1 -->
<svg width="489pt" height="855pt"
 viewBox="0.00 0.00 489.24 854.60" xmlns="http://www.w3.org/2000/svg" xmlns:xlink="http://www.w3.org/1999/xlink">
<g id="graph0" class="graph" transform="scale(1 1) rotate(0) translate(4 850.6015)">
<title>G</title>
<polygon fill="#ffffff" stroke="transparent" points="-4,4 -4,-850.6015 485.2382,-850.6015 485.2382,4 -4,4"/>
<!-- polygons -->
<g id="node1" class="node">
<title>polygons</title>
<ellipse fill="none" stroke="#000000" cx="359.2174" cy="-828.6015" rx="46.3932" ry="18"/>
<text text-anchor="middle" x="359.2174" y="-824.4015" font-family="Times,serif" font-size="14.00" fill="#000000">polygons</text>
</g>
<!-- polygons__polygonID_polygonID__sites_join -->
<g id="node2" class="node">
<title>polygons__polygonID_polygonID__sites_join</title>
<ellipse fill="none" stroke="#000000" cx="359.2174" cy="-733.3065" rx="78.8882" ry="41.0911"/>
<text text-anchor="middle" x="359.2174" y="-745.9065" font-family="Times,serif" font-size="14.00" fill="#000000">LEFT JOIN sites</text>
<text text-anchor="middle" x="359.2174" y="-729.1065" font-family="Times,serif" font-size="14.00" fill="#000000">At level: 3</text>
<text text-anchor="middle" x="359.2174" y="-712.3065" font-family="Times,serif" font-size="14.00" fill="#000000">Required: true</text>
</g>
<!-- polygons&#45;&gt;polygons__polygonID_polygonID__sites_join -->
<g id="edge1" class="edge">
<title>polygons&#45;&gt;polygons__polygonID_polygonID__sites_join</title>
<path fill="none" stroke="#000000" d="M359.2174,-810.2277C359.2174,-802.9185 359.2174,-794.1089 359.2174,-785.1001"/>
<polygon fill="#000000" stroke="#000000" points="362.7175,-784.9136 359.2174,-774.9136 355.7175,-784.9137 362.7175,-784.9136"/>
</g>
<!-- polygons__polygonID_polygonID__sites_join_Has_Rows -->
<g id="node3" class="node">
<title>polygons__polygonID_polygonID__sites_join_Has_Rows</title>
<ellipse fill="none" stroke="#000000" cx="322.2174" cy="-638.0114" rx="47.4704" ry="18"/>
<text text-anchor="middle" x="322.2174" y="-633.8114" font-family="Times,serif" font-size="14.00" fill="#000000">Has rows</text>
</g>
<!-- polygons__polygonID_polygonID__sites_join&#45;&gt;polygons__polygonID_polygonID__sites_join_Has_Rows -->
<g id="edge2" class="edge">
<title>polygons__polygonID_polygonID__sites_join&#45;&gt;polygons__polygonID_polygonID__sites_join_Has_Rows</title>
<path fill="none" stroke="#000000" d="M343.4188,-692.6164C339.8612,-683.4537 336.1674,-673.9402 332.879,-665.4707"/>
<polygon fill="#000000" stroke="#000000" points="336.1196,-664.1467 329.2374,-656.0916 329.5942,-666.6804 336.1196,-664.1467"/>
</g>
<!-- polygons__polygonID_polygonID__sites_join_No_Rows -->
<g id="node15" class="node">
<title>polygons__polygonID_polygonID__sites_join_No_Rows</title>
<ellipse fill="none" stroke="#000000" cx="437.2174" cy="-542.7164" rx="44.0415" ry="18"/>
<text text-anchor="middle" x="437.2174" y="-538.5164" font-family="Times,serif" font-size="14.00" fill="#000000">No rows</text>
</g>
<!-- polygons__polygonID_polygonID__sites_join&#45;&gt;polygons__polygonID_polygonID__sites_join_No_Rows -->
<g id="edge16" class="edge">
<title>polygons__polygonID_polygonID__sites_join&#45;&gt;polygons__polygonID_polygonID__sites_join_No_Rows</title>
<path fill="none" stroke="#000000" d="M375.7592,-692.8872C390.8509,-656.0113 412.7487,-602.5049 425.9236,-570.3124"/>
<polygon fill="#000000" stroke="#000000" points="429.3265,-571.238 429.875,-560.6574 422.8481,-568.5866 429.3265,-571.238"/>
</g>
<!-- sites__siteID_siteID__samples_join -->
<g id="node4" class="node">
<title>sites__siteID_siteID__samples_join</title>
<ellipse fill="none" stroke="#000000" cx="282.2174" cy="-542.7164" rx="93.4765" ry="41.0911"/>
<text text-anchor="middle" x="282.2174" y="-555.3164" font-family="Times,serif" font-size="14.00" fill="#000000">LEFT JOIN samples</text>
<text text-anchor="middle" x="282.2174" y="-538.5164" font-family="Times,serif" font-size="14.00" fill="#000000">At level: 2</text>
<text text-anchor="middle" x="282.2174" y="-521.7164" font-family="Times,serif" font-size="14.00" fill="#000000">Required: true</text>
</g>
<!-- polygons__polygonID_polygonID__sites_join_Has_Rows&#45;&gt;sites__siteID_siteID__samples_join -->
<g id="edge3" class="edge">
<title>polygons__polygonID_polygonID__sites_join_Has_Rows&#45;&gt;sites__siteID_siteID__samples_join</title>
<path fill="none" stroke="#000000" d="M314.6938,-620.0872C311.401,-612.2425 307.3569,-602.6081 303.2546,-592.8347"/>
<polygon fill="#000000" stroke="#000000" points="306.4237,-591.3416 299.3261,-583.4756 299.9693,-594.0509 306.4237,-591.3416"/>
</g>
<!-- sites__siteID_siteID__samples_join_Has_Rows -->
<g id="node5" class="node">
<title>sites__siteID_siteID__samples_join_Has_Rows</title>
<ellipse fill="none" stroke="#000000" cx="246.2174" cy="-447.4214" rx="47.4704" ry="18"/>
<text text-anchor="middle" x="246.2174" y="-443.2214" font-family="Times,serif" font-size="14.00" fill="#000000">Has rows</text>
</g>
<!-- sites__siteID_siteID__samples_join&#45;&gt;sites__siteID_siteID__samples_join_Has_Rows -->
<g id="edge4" class="edge">
<title>sites__siteID_siteID__samples_join&#45;&gt;sites__siteID_siteID__samples_join_Has_Rows</title>
<path fill="none" stroke="#000000" d="M266.7413,-501.7497C263.3271,-492.712 259.7893,-483.3472 256.6325,-474.9908"/>
<polygon fill="#000000" stroke="#000000" points="259.8128,-473.5054 253.0046,-465.3876 253.2645,-475.9793 259.8128,-473.5054"/>
</g>
<!-- sites__siteID_siteID__samples_join_No_Rows -->
<g id="node14" class="node">
<title>sites__siteID_siteID__samples_join_No_Rows</title>
<ellipse fill="none" stroke="#000000" cx="365.2174" cy="-352.1263" rx="44.0415" ry="18"/>
<text text-anchor="middle" x="365.2174" y="-347.9263" font-family="Times,serif" font-size="14.00" fill="#000000">No rows</text>
</g>
<!-- sites__siteID_siteID__samples_join&#45;&gt;sites__siteID_siteID__samples_join_No_Rows -->
<g id="edge14" class="edge">
<title>sites__siteID_siteID__samples_join&#45;&gt;sites__siteID_siteID__samples_join_No_Rows</title>
<path fill="none" stroke="#000000" d="M300.023,-501.83C316.1677,-464.7577 339.5072,-411.1639 353.4407,-379.1688"/>
<polygon fill="#000000" stroke="#000000" points="356.6607,-380.5407 357.4446,-369.9749 350.2429,-377.7458 356.6607,-380.5407"/>
</g>
<!-- samples__dataID_dataID__datasets_join -->
<g id="node6" class="node">
<title>samples__dataID_dataID__datasets_join</title>
<ellipse fill="none" stroke="#000000" cx="210.2174" cy="-352.1263" rx="92.8656" ry="41.0911"/>
<text text-anchor="middle" x="210.2174" y="-364.7263" font-family="Times,serif" font-size="14.00" fill="#000000">LEFT JOIN datasets</text>
<text text-anchor="middle" x="210.2174" y="-347.9263" font-family="Times,serif" font-size="14.00" fill="#000000">At level: 1</text>
<text text-anchor="middle" x="210.2174" y="-331.1263" font-family="Times,serif" font-size="14.00" fill="#000000">Required: true</text>
</g>
<!-- sites__siteID_siteID__samples_join_Has_Rows&#45;&gt;samples__dataID_dataID__datasets_join -->
<g id="edge5" class="edge">
<title>sites__siteID_siteID__samples_join_Has_Rows&#45;&gt;samples__dataID_dataID__datasets_join</title>
<path fill="none" stroke="#000000" d="M239.4461,-429.4971C236.4826,-421.6524 232.843,-412.018 229.1508,-402.2446"/>
<polygon fill="#000000" stroke="#000000" points="232.4234,-401.0034 225.6152,-392.8855 225.8751,-403.4772 232.4234,-401.0034"/>
</g>
<!-- samples__dataID_dataID__datasets_join_Has_Rows -->
<g id="node7" class="node">
<title>samples__dataID_dataID__datasets_join_Has_Rows</title>
<ellipse fill="none" stroke="#000000" cx="176.2174" cy="-256.8313" rx="47.4704" ry="18"/>
<text text-anchor="middle" x="176.2174" y="-252.6313" font-family="Times,serif" font-size="14.00" fill="#000000">Has rows</text>
</g>
<!-- samples__dataID_dataID__datasets_join&#45;&gt;samples__dataID_dataID__datasets_join_Has_Rows -->
<g id="edge6" class="edge">
<title>samples__dataID_dataID__datasets_join&#45;&gt;samples__dataID_dataID__datasets_join_Has_Rows</title>
<path fill="none" stroke="#000000" d="M195.6011,-311.1596C192.3765,-302.1219 189.0353,-292.7571 186.0538,-284.4007"/>
<polygon fill="#000000" stroke="#000000" points="189.2845,-283.0399 182.6276,-274.7975 182.6916,-285.3922 189.2845,-283.0399"/>
</g>
<!-- samples__dataID_dataID__datasets_join_No_Rows -->
<g id="node13" class="node">
<title>samples__dataID_dataID__datasets_join_No_Rows</title>
<ellipse fill="none" stroke="#000000" cx="310.2174" cy="-173.4156" rx="44.0415" ry="18"/>
<text text-anchor="middle" x="310.2174" y="-169.2156" font-family="Times,serif" font-size="14.00" fill="#000000">No rows</text>
</g>
<!-- samples__dataID_dataID__datasets_join&#45;&gt;samples__dataID_dataID__datasets_join_No_Rows -->
<g id="edge12" class="edge">
<title>samples__dataID_dataID__datasets_join&#45;&gt;samples__dataID_dataID__datasets_join_No_Rows</title>
<path fill="none" stroke="#000000" d="M232.6594,-312.0202C251.7811,-277.8476 278.7229,-229.6998 295.298,-200.0783"/>
<polygon fill="#000000" stroke="#000000" points="298.4634,-201.5889 300.2922,-191.1531 292.3547,-198.1706 298.4634,-201.5889"/>
</g>
<!-- samples__dataID_dataID__datasets_where -->
<g id="node8" class="node">
<title>samples__dataID_dataID__datasets_where</title>
<ellipse fill="none" stroke="#000000" cx="124.2174" cy="-173.4156" rx="124.4353" ry="29.3315"/>
<text text-anchor="middle" x="124.2174" y="-177.6156" font-family="Times,serif" font-size="14.00" fill="#000000">WHERE</text>
<text text-anchor="middle" x="124.2174" y="-160.8156" font-family="Times,serif" font-size="14.00" fill="#000000">datasets.dataID = &quot;BCCDC&quot;</text>
</g>
<!-- samples__dataID_dataID__datasets_join_Has_Rows&#45;&gt;samples__dataID_dataID__datasets_where -->
<g id="edge7" class="edge">
<title>samples__dataID_dataID__datasets_join_Has_Rows&#45;&gt;samples__dataID_dataID__datasets_where</title>
<path fill="none" stroke="#000000" d="M165.1896,-239.141C160.1223,-231.0124 153.9042,-221.0375 147.8576,-211.3379"/>
<polygon fill="#000000" stroke="#000000" points="150.6512,-209.203 142.3908,-202.5684 144.7109,-212.9061 150.6512,-209.203"/>
</g>
<!-- samples__dataID_dataID__datasets_where_Has_Rows -->
<g id="node9" class="node">
<title>samples__dataID_dataID__datasets_where_Has_Rows</title>
<ellipse fill="none" stroke="#000000" cx="124.2174" cy="-90" rx="47.4704" ry="18"/>
<text text-anchor="middle" x="124.2174" y="-85.8" font-family="Times,serif" font-size="14.00" fill="#000000">Has rows</text>
</g>
<!-- samples__dataID_dataID__datasets_where&#45;&gt;samples__dataID_dataID__datasets_where_Has_Rows -->
<g id="edge8" class="edge">
<title>samples__dataID_dataID__datasets_where&#45;&gt;samples__dataID_dataID__datasets_where_Has_Rows</title>
<path fill="none" stroke="#000000" d="M124.2174,-143.7715C124.2174,-135.5664 124.2174,-126.6796 124.2174,-118.5388"/>
<polygon fill="#000000" stroke="#000000" points="127.7175,-118.3865 124.2174,-108.3866 120.7175,-118.3866 127.7175,-118.3865"/>
</g>
<!-- samples__dataID_dataID__datasets_where_No_Rows -->
<g id="node11" class="node">
<title>samples__dataID_dataID__datasets_where_No_Rows</title>
<ellipse fill="none" stroke="#000000" cx="253.2174" cy="-90" rx="44.0415" ry="18"/>
<text text-anchor="middle" x="253.2174" y="-85.8" font-family="Times,serif" font-size="14.00" fill="#000000">No rows</text>
</g>
<!-- samples__dataID_dataID__datasets_where&#45;&gt;samples__dataID_dataID__datasets_where_No_Rows -->
<g id="edge10" class="edge">
<title>samples__dataID_dataID__datasets_where&#45;&gt;samples__dataID_dataID__datasets_where_No_Rows</title>
<path fill="none" stroke="#000000" d="M167.1726,-145.6394C184.7355,-134.2827 204.7062,-121.369 220.9839,-110.8432"/>
<polygon fill="#000000" stroke="#000000" points="223.1116,-113.6355 229.6085,-105.2663 219.3106,-107.7573 223.1116,-113.6355"/>
</g>
<!-- granted -->
<g id="node10" class="node">
<title>granted</title>
<ellipse fill="none" stroke="#000000" cx="124.2174" cy="-18" rx="71.7874" ry="18"/>
<text text-anchor="middle" x="124.2174" y="-13.8" font-family="Times,serif" font-size="14.00" fill="#000000">Access Granted</text>
</g>
<!-- samples__dataID_dataID__datasets_where_Has_Rows&#45;&gt;granted -->
<g id="edge9" class="edge">
<title>samples__dataID_dataID__datasets_where_Has_Rows&#45;&gt;granted</title>
<path fill="none" stroke="#000000" d="M124.2174,-71.8314C124.2174,-64.131 124.2174,-54.9743 124.2174,-46.4166"/>
<polygon fill="#000000" stroke="#000000" points="127.7175,-46.4132 124.2174,-36.4133 120.7175,-46.4133 127.7175,-46.4132"/>
</g>
<!-- denied -->
<g id="node12" class="node">
<title>denied</title>
<ellipse fill="none" stroke="#000000" cx="363.2174" cy="-18" rx="68.8581" ry="18"/>
<text text-anchor="middle" x="363.2174" y="-13.8" font-family="Times,serif" font-size="14.00" fill="#000000">Access Denied</text>
</g>
<!-- samples__dataID_dataID__datasets_where_No_Rows&#45;&gt;denied -->
<g id="edge11" class="edge">
<title>samples__dataID_dataID__datasets_where_No_Rows&#45;&gt;denied</title>
<path fill="none" stroke="#000000" d="M276.5456,-74.7307C291.7976,-64.7475 311.9788,-51.538 329.0297,-40.3774"/>
<polygon fill="#000000" stroke="#000000" points="331.168,-43.161 337.6182,-34.7559 327.3343,-37.3041 331.168,-43.161"/>
</g>
<!-- samples__dataID_dataID__datasets_join_No_Rows&#45;&gt;denied -->
<g id="edge13" class="edge">
<title>samples__dataID_dataID__datasets_join_No_Rows&#45;&gt;denied</title>
<path fill="none" stroke="#000000" d="M316.2972,-155.5875C325.4733,-128.6799 342.9377,-77.4678 353.7776,-45.6812"/>
<polygon fill="#000000" stroke="#000000" points="357.1302,-46.6934 357.0453,-36.0989 350.5049,-44.434 357.1302,-46.6934"/>
</g>
<!-- sites__siteID_siteID__samples_join_No_Rows&#45;&gt;denied -->
<g id="edge15" class="edge">
<title>sites__siteID_siteID__samples_join_No_Rows&#45;&gt;denied</title>
<path fill="none" stroke="#000000" d="M365.1071,-333.6863C364.7758,-278.3497 363.7886,-113.4233 363.3886,-46.596"/>
<polygon fill="#000000" stroke="#000000" points="366.8874,-46.3619 363.3275,-36.383 359.8875,-46.4038 366.8874,-46.3619"/>
</g>
<!-- polygons__polygonID_polygonID__sites_join_No_Rows&#45;&gt;denied -->
<g id="edge17" class="edge">
<title>polygons__polygonID_polygonID__sites_join_No_Rows&#45;&gt;denied</title>
<path fill="none" stroke="#000000" d="M437.2174,-524.5841C437.2174,-490.7054 437.2174,-415.4909 437.2174,-352.1263 437.2174,-352.1263 437.2174,-352.1263 437.2174,-173.4156 437.2174,-123.9127 406.2342,-73.4016 384.3641,-43.9136"/>
<polygon fill="#000000" stroke="#000000" points="387.0381,-41.6481 378.1925,-35.8168 381.471,-45.8916 387.0381,-41.6481"/>
</g>
</g>
</svg>
