<?xml version="1.0" encoding="UTF-8" standalone="no"?>
<!DOCTYPE svg PUBLIC "-//W3C//DTD SVG 1.1//EN"
 "http://www.w3.org/Graphics/SVG/1.1/DTD/svg11.dtd">
<!-- Generated by graphviz version 2.40.1 (20161225.0304)
 -->
<!-- Title: G Pages: 1 -->
<svg width="1015pt" height="1021pt"
 viewBox="0.00 0.00 1014.57 1021.43" xmlns="http://www.w3.org/2000/svg" xmlns:xlink="http://www.w3.org/1999/xlink">
<g id="graph0" class="graph" transform="scale(1 1) rotate(0) translate(4 1017.4328)">
<title>G</title>
<polygon fill="#ffffff" stroke="transparent" points="-4,4 -4,-1017.4328 1010.5744,-1017.4328 1010.5744,4 -4,4"/>
<!-- polygons -->
<g id="node1" class="node">
<title>polygons</title>
<ellipse fill="none" stroke="#000000" cx="863.5537" cy="-995.4328" rx="46.3932" ry="18"/>
<text text-anchor="middle" x="863.5537" y="-991.2328" font-family="Times,serif" font-size="14.00" fill="#000000">polygons</text>
</g>
<!-- polygons__polygonID_polygonID__sites_join -->
<g id="node2" class="node">
<title>polygons__polygonID_polygonID__sites_join</title>
<ellipse fill="none" stroke="#000000" cx="863.5537" cy="-900.1377" rx="78.8882" ry="41.0911"/>
<text text-anchor="middle" x="863.5537" y="-912.7377" font-family="Times,serif" font-size="14.00" fill="#000000">LEFT JOIN sites</text>
<text text-anchor="middle" x="863.5537" y="-895.9377" font-family="Times,serif" font-size="14.00" fill="#000000">At level: 3</text>
<text text-anchor="middle" x="863.5537" y="-879.1377" font-family="Times,serif" font-size="14.00" fill="#000000">Required: true</text>
</g>
<!-- polygons&#45;&gt;polygons__polygonID_polygonID__sites_join -->
<g id="edge1" class="edge">
<title>polygons&#45;&gt;polygons__polygonID_polygonID__sites_join</title>
<path fill="none" stroke="#000000" d="M863.5537,-977.0589C863.5537,-969.7498 863.5537,-960.9402 863.5537,-951.9314"/>
<polygon fill="#000000" stroke="#000000" points="867.0538,-951.7449 863.5537,-941.7449 860.0538,-951.745 867.0538,-951.7449"/>
</g>
<!-- polygons__polygonID_polygonID__sites_join_Has_Rows -->
<g id="node3" class="node">
<title>polygons__polygonID_polygonID__sites_join_Has_Rows</title>
<ellipse fill="none" stroke="#000000" cx="826.5537" cy="-804.8427" rx="47.4704" ry="18"/>
<text text-anchor="middle" x="826.5537" y="-800.6427" font-family="Times,serif" font-size="14.00" fill="#000000">Has rows</text>
</g>
<!-- polygons__polygonID_polygonID__sites_join&#45;&gt;polygons__polygonID_polygonID__sites_join_Has_Rows -->
<g id="edge2" class="edge">
<title>polygons__polygonID_polygonID__sites_join&#45;&gt;polygons__polygonID_polygonID__sites_join_Has_Rows</title>
<path fill="none" stroke="#000000" d="M847.755,-859.4477C844.1974,-850.285 840.5036,-840.7715 837.2152,-832.302"/>
<polygon fill="#000000" stroke="#000000" points="840.4558,-830.978 833.5736,-822.9228 833.9304,-833.5117 840.4558,-830.978"/>
</g>
<!-- polygons__polygonID_polygonID__sites_join_No_Rows -->
<g id="node24" class="node">
<title>polygons__polygonID_polygonID__sites_join_No_Rows</title>
<ellipse fill="none" stroke="#000000" cx="962.5537" cy="-721.4271" rx="44.0415" ry="18"/>
<text text-anchor="middle" x="962.5537" y="-717.2271" font-family="Times,serif" font-size="14.00" fill="#000000">No rows</text>
</g>
<!-- polygons__polygonID_polygonID__sites_join&#45;&gt;polygons__polygonID_polygonID__sites_join_No_Rows -->
<g id="edge29" class="edge">
<title>polygons__polygonID_polygonID__sites_join&#45;&gt;polygons__polygonID_polygonID__sites_join_No_Rows</title>
<path fill="none" stroke="#000000" d="M885.7712,-860.0316C904.7017,-825.8591 931.374,-777.7112 947.7834,-748.0897"/>
<polygon fill="#000000" stroke="#000000" points="950.9435,-749.608 952.7277,-739.1645 944.8202,-746.2159 950.9435,-749.608"/>
</g>
<!-- polygons__polygonID_polygonID__sites_where -->
<g id="node4" class="node">
<title>polygons__polygonID_polygonID__sites_where</title>
<ellipse fill="none" stroke="#000000" cx="766.5537" cy="-721.4271" rx="133.6073" ry="29.3315"/>
<text text-anchor="middle" x="766.5537" y="-725.6271" font-family="Times,serif" font-size="14.00" fill="#000000">WHERE</text>
<text text-anchor="middle" x="766.5537" y="-708.8271" font-family="Times,serif" font-size="14.00" fill="#000000">sites.healthReg = &quot;Vancouver&quot;</text>
</g>
<!-- polygons__polygonID_polygonID__sites_join_Has_Rows&#45;&gt;polygons__polygonID_polygonID__sites_where -->
<g id="edge3" class="edge">
<title>polygons__polygonID_polygonID__sites_join_Has_Rows&#45;&gt;polygons__polygonID_polygonID__sites_where</title>
<path fill="none" stroke="#000000" d="M813.8292,-787.1524C807.8631,-778.8579 800.5141,-768.641 793.4039,-758.7559"/>
<polygon fill="#000000" stroke="#000000" points="796.2036,-756.6542 787.523,-750.5799 790.5209,-760.7417 796.2036,-756.6542"/>
</g>
<!-- polygons__polygonID_polygonID__sites_where_Has_Rows -->
<g id="node5" class="node">
<title>polygons__polygonID_polygonID__sites_where_Has_Rows</title>
<ellipse fill="none" stroke="#000000" cx="751.5537" cy="-638.0114" rx="47.4704" ry="18"/>
<text text-anchor="middle" x="751.5537" y="-633.8114" font-family="Times,serif" font-size="14.00" fill="#000000">Has rows</text>
</g>
<!-- polygons__polygonID_polygonID__sites_where&#45;&gt;polygons__polygonID_polygonID__sites_where_Has_Rows -->
<g id="edge4" class="edge">
<title>polygons__polygonID_polygonID__sites_where&#45;&gt;polygons__polygonID_polygonID__sites_where_Has_Rows</title>
<path fill="none" stroke="#000000" d="M761.223,-691.783C759.7309,-683.4856 758.1136,-674.4913 756.6363,-666.2761"/>
<polygon fill="#000000" stroke="#000000" points="760.0746,-665.6207 754.86,-656.398 753.1851,-666.8596 760.0746,-665.6207"/>
</g>
<!-- polygons__polygonID_polygonID__sites_where_No_Rows -->
<g id="node23" class="node">
<title>polygons__polygonID_polygonID__sites_where_No_Rows</title>
<ellipse fill="none" stroke="#000000" cx="890.5537" cy="-542.7164" rx="44.0415" ry="18"/>
<text text-anchor="middle" x="890.5537" y="-538.5164" font-family="Times,serif" font-size="14.00" fill="#000000">No rows</text>
</g>
<!-- polygons__polygonID_polygonID__sites_where&#45;&gt;polygons__polygonID_polygonID__sites_where_No_Rows -->
<g id="edge27" class="edge">
<title>polygons__polygonID_polygonID__sites_where&#45;&gt;polygons__polygonID_polygonID__sites_where_No_Rows</title>
<path fill="none" stroke="#000000" d="M786.7524,-692.3164C810.464,-658.1429 849.4441,-601.9641 872.287,-569.0427"/>
<polygon fill="#000000" stroke="#000000" points="875.4506,-570.6227 878.2758,-560.4115 869.6994,-566.6322 875.4506,-570.6227"/>
</g>
<!-- sites__siteID_siteID__samples_join -->
<g id="node6" class="node">
<title>sites__siteID_siteID__samples_join</title>
<ellipse fill="none" stroke="#000000" cx="735.5537" cy="-542.7164" rx="93.4765" ry="41.0911"/>
<text text-anchor="middle" x="735.5537" y="-555.3164" font-family="Times,serif" font-size="14.00" fill="#000000">LEFT JOIN samples</text>
<text text-anchor="middle" x="735.5537" y="-538.5164" font-family="Times,serif" font-size="14.00" fill="#000000">At level: 2</text>
<text text-anchor="middle" x="735.5537" y="-521.7164" font-family="Times,serif" font-size="14.00" fill="#000000">Required: true</text>
</g>
<!-- polygons__polygonID_polygonID__sites_where_Has_Rows&#45;&gt;sites__siteID_siteID__samples_join -->
<g id="edge5" class="edge">
<title>polygons__polygonID_polygonID__sites_where_Has_Rows&#45;&gt;sites__siteID_siteID__samples_join</title>
<path fill="none" stroke="#000000" d="M748.4687,-619.6376C747.215,-612.1704 745.6983,-603.1372 744.1516,-593.9255"/>
<polygon fill="#000000" stroke="#000000" points="747.5802,-593.2077 742.4726,-583.9253 740.6768,-594.3669 747.5802,-593.2077"/>
</g>
<!-- sites__siteID_siteID__samples_join_Has_Rows -->
<g id="node7" class="node">
<title>sites__siteID_siteID__samples_join_Has_Rows</title>
<ellipse fill="none" stroke="#000000" cx="722.5537" cy="-447.4214" rx="47.4704" ry="18"/>
<text text-anchor="middle" x="722.5537" y="-443.2214" font-family="Times,serif" font-size="14.00" fill="#000000">Has rows</text>
</g>
<!-- sites__siteID_siteID__samples_join&#45;&gt;sites__siteID_siteID__samples_join_Has_Rows -->
<g id="edge6" class="edge">
<title>sites__siteID_siteID__samples_join&#45;&gt;sites__siteID_siteID__samples_join_Has_Rows</title>
<path fill="none" stroke="#000000" d="M729.9273,-501.4728C728.744,-492.7989 727.5214,-483.8366 726.4201,-475.764"/>
<polygon fill="#000000" stroke="#000000" points="729.8755,-475.1986 725.0559,-465.7635 722.9397,-476.1448 729.8755,-475.1986"/>
</g>
<!-- sites__siteID_siteID__samples_join_No_Rows -->
<g id="node22" class="node">
<title>sites__siteID_siteID__samples_join_No_Rows</title>
<ellipse fill="none" stroke="#000000" cx="831.5537" cy="-447.4214" rx="44.0415" ry="18"/>
<text text-anchor="middle" x="831.5537" y="-443.2214" font-family="Times,serif" font-size="14.00" fill="#000000">No rows</text>
</g>
<!-- sites__siteID_siteID__samples_join&#45;&gt;sites__siteID_siteID__samples_join_No_Rows -->
<g id="edge25" class="edge">
<title>sites__siteID_siteID__samples_join&#45;&gt;sites__siteID_siteID__samples_join_No_Rows</title>
<path fill="none" stroke="#000000" d="M773.7712,-504.7795C785.1046,-493.5293 797.1978,-481.5249 807.3764,-471.4211"/>
<polygon fill="#000000" stroke="#000000" points="810.1111,-473.638 814.7425,-464.1091 805.1796,-468.6701 810.1111,-473.638"/>
</g>
<!-- samples__siteID_siteID__sites_join -->
<g id="node8" class="node">
<title>samples__siteID_siteID__sites_join</title>
<ellipse fill="none" stroke="#000000" cx="543.5537" cy="-352.1263" rx="78.8882" ry="41.0911"/>
<text text-anchor="middle" x="543.5537" y="-364.7263" font-family="Times,serif" font-size="14.00" fill="#000000">LEFT JOIN sites</text>
<text text-anchor="middle" x="543.5537" y="-347.9263" font-family="Times,serif" font-size="14.00" fill="#000000">At level: 1</text>
<text text-anchor="middle" x="543.5537" y="-331.1263" font-family="Times,serif" font-size="14.00" fill="#000000">Required: true</text>
</g>
<!-- sites__siteID_siteID__samples_join_Has_Rows&#45;&gt;samples__siteID_siteID__sites_join -->
<g id="edge7" class="edge">
<title>sites__siteID_siteID__samples_join_Has_Rows&#45;&gt;samples__siteID_siteID__sites_join</title>
<path fill="none" stroke="#000000" d="M694.9772,-432.7403C671.8699,-420.4386 637.961,-402.3864 608.0862,-386.4818"/>
<polygon fill="#000000" stroke="#000000" points="609.4325,-383.2335 598.9607,-381.6236 606.143,-389.4124 609.4325,-383.2335"/>
</g>
<!-- samples__dataID_dataID__datasets_join -->
<g id="node16" class="node">
<title>samples__dataID_dataID__datasets_join</title>
<ellipse fill="none" stroke="#000000" cx="733.5537" cy="-352.1263" rx="92.8656" ry="41.0911"/>
<text text-anchor="middle" x="733.5537" y="-364.7263" font-family="Times,serif" font-size="14.00" fill="#000000">LEFT JOIN datasets</text>
<text text-anchor="middle" x="733.5537" y="-347.9263" font-family="Times,serif" font-size="14.00" fill="#000000">At level: 1</text>
<text text-anchor="middle" x="733.5537" y="-331.1263" font-family="Times,serif" font-size="14.00" fill="#000000">Required: true</text>
</g>
<!-- sites__siteID_siteID__samples_join_Has_Rows&#45;&gt;samples__dataID_dataID__datasets_join -->
<g id="edge16" class="edge">
<title>sites__siteID_siteID__samples_join_Has_Rows&#45;&gt;samples__dataID_dataID__datasets_join</title>
<path fill="none" stroke="#000000" d="M724.6746,-429.0475C725.5183,-421.7384 726.5352,-412.9288 727.5751,-403.92"/>
<polygon fill="#000000" stroke="#000000" points="731.081,-404.0689 728.7509,-393.7335 724.1272,-403.2662 731.081,-404.0689"/>
</g>
<!-- samples__siteID_siteID__sites_join_Has_Rows -->
<g id="node9" class="node">
<title>samples__siteID_siteID__sites_join_Has_Rows</title>
<ellipse fill="none" stroke="#000000" cx="279.5537" cy="-256.8313" rx="47.4704" ry="18"/>
<text text-anchor="middle" x="279.5537" y="-252.6313" font-family="Times,serif" font-size="14.00" fill="#000000">Has rows</text>
</g>
<!-- samples__siteID_siteID__sites_join&#45;&gt;samples__siteID_siteID__sites_join_Has_Rows -->
<g id="edge8" class="edge">
<title>samples__siteID_siteID__sites_join&#45;&gt;samples__siteID_siteID__sites_join_Has_Rows</title>
<path fill="none" stroke="#000000" d="M478.2952,-328.5702C430.1318,-311.1849 365.8811,-287.9926 323.6453,-272.7469"/>
<polygon fill="#000000" stroke="#000000" points="324.7885,-269.4386 314.1942,-269.3353 322.4118,-276.0227 324.7885,-269.4386"/>
</g>
<!-- samples__siteID_siteID__sites_join_No_Rows -->
<g id="node15" class="node">
<title>samples__siteID_siteID__sites_join_No_Rows</title>
<ellipse fill="none" stroke="#000000" cx="755.5537" cy="-173.4156" rx="44.0415" ry="18"/>
<text text-anchor="middle" x="755.5537" y="-169.2156" font-family="Times,serif" font-size="14.00" fill="#000000">No rows</text>
</g>
<!-- samples__siteID_siteID__sites_join&#45;&gt;samples__siteID_siteID__sites_join_No_Rows -->
<g id="edge14" class="edge">
<title>samples__siteID_siteID__sites_join&#45;&gt;samples__siteID_siteID__sites_join_No_Rows</title>
<path fill="none" stroke="#000000" d="M585.1851,-317.0321C627.6738,-281.2152 692.3689,-226.6788 728.5834,-196.1509"/>
<polygon fill="#000000" stroke="#000000" points="730.8995,-198.7762 736.2895,-189.6549 726.3878,-193.4241 730.8995,-198.7762"/>
</g>
<!-- samples__siteID_siteID__sites_where -->
<g id="node10" class="node">
<title>samples__siteID_siteID__sites_where</title>
<ellipse fill="none" stroke="#000000" cx="133.5537" cy="-173.4156" rx="133.6073" ry="29.3315"/>
<text text-anchor="middle" x="133.5537" y="-177.6156" font-family="Times,serif" font-size="14.00" fill="#000000">WHERE</text>
<text text-anchor="middle" x="133.5537" y="-160.8156" font-family="Times,serif" font-size="14.00" fill="#000000">sites.healthReg = &quot;Vancouver&quot;</text>
</g>
<!-- samples__siteID_siteID__sites_join_Has_Rows&#45;&gt;samples__siteID_siteID__sites_where -->
<g id="edge9" class="edge">
<title>samples__siteID_siteID__sites_join_Has_Rows&#45;&gt;samples__siteID_siteID__sites_where</title>
<path fill="none" stroke="#000000" d="M253.1142,-241.7253C235.6361,-231.7394 212.0465,-218.2617 190.4393,-205.9167"/>
<polygon fill="#000000" stroke="#000000" points="192.0614,-202.8125 181.6424,-200.8906 188.5888,-208.8905 192.0614,-202.8125"/>
</g>
<!-- samples__siteID_siteID__sites_where_Has_Rows -->
<g id="node11" class="node">
<title>samples__siteID_siteID__sites_where_Has_Rows</title>
<ellipse fill="none" stroke="#000000" cx="194.5537" cy="-90" rx="47.4704" ry="18"/>
<text text-anchor="middle" x="194.5537" y="-85.8" font-family="Times,serif" font-size="14.00" fill="#000000">Has rows</text>
</g>
<!-- samples__siteID_siteID__sites_where&#45;&gt;samples__siteID_siteID__sites_where_Has_Rows -->
<g id="edge10" class="edge">
<title>samples__siteID_siteID__sites_where&#45;&gt;samples__siteID_siteID__sites_where_Has_Rows</title>
<path fill="none" stroke="#000000" d="M154.8885,-144.2409C161.6578,-134.984 169.0912,-124.8191 175.6751,-115.8159"/>
<polygon fill="#000000" stroke="#000000" points="178.6,-117.7455 181.6777,-107.6075 172.9496,-113.6134 178.6,-117.7455"/>
</g>
<!-- samples__siteID_siteID__sites_where_No_Rows -->
<g id="node13" class="node">
<title>samples__siteID_siteID__sites_where_No_Rows</title>
<ellipse fill="none" stroke="#000000" cx="600.5537" cy="-90" rx="44.0415" ry="18"/>
<text text-anchor="middle" x="600.5537" y="-85.8" font-family="Times,serif" font-size="14.00" fill="#000000">No rows</text>
</g>
<!-- samples__siteID_siteID__sites_where&#45;&gt;samples__siteID_siteID__sites_where_No_Rows -->
<g id="edge12" class="edge">
<title>samples__siteID_siteID__sites_where&#45;&gt;samples__siteID_siteID__sites_where_No_Rows</title>
<path fill="none" stroke="#000000" d="M229.9926,-153.0612C245.5414,-149.9283 261.4781,-146.8058 276.5537,-144 372.544,-126.1346 485.0659,-108.0113 549.0674,-97.9667"/>
<polygon fill="#000000" stroke="#000000" points="549.9557,-101.3704 559.294,-96.3657 548.873,-94.4546 549.9557,-101.3704"/>
</g>
<!-- granted -->
<g id="node12" class="node">
<title>granted</title>
<ellipse fill="none" stroke="#000000" cx="311.5537" cy="-18" rx="71.7874" ry="18"/>
<text text-anchor="middle" x="311.5537" y="-13.8" font-family="Times,serif" font-size="14.00" fill="#000000">Access Granted</text>
</g>
<!-- samples__siteID_siteID__sites_where_Has_Rows&#45;&gt;granted -->
<g id="edge11" class="edge">
<title>samples__siteID_siteID__sites_where_Has_Rows&#45;&gt;granted</title>
<path fill="none" stroke="#000000" d="M219.6531,-74.5542C236.0408,-64.4695 257.6873,-51.1485 275.8554,-39.9682"/>
<polygon fill="#000000" stroke="#000000" points="277.7743,-42.897 284.4565,-34.6751 274.1056,-36.9354 277.7743,-42.897"/>
</g>
<!-- denied -->
<g id="node14" class="node">
<title>denied</title>
<ellipse fill="none" stroke="#000000" cx="827.5537" cy="-18" rx="68.8581" ry="18"/>
<text text-anchor="middle" x="827.5537" y="-13.8" font-family="Times,serif" font-size="14.00" fill="#000000">Access Denied</text>
</g>
<!-- samples__siteID_siteID__sites_where_No_Rows&#45;&gt;denied -->
<g id="edge13" class="edge">
<title>samples__siteID_siteID__sites_where_No_Rows&#45;&gt;denied</title>
<path fill="none" stroke="#000000" d="M635.1971,-78.8341C642.2613,-76.5658 649.6452,-74.2011 656.5537,-72 695.7012,-59.5273 739.931,-45.5634 773.5993,-34.9606"/>
<polygon fill="#000000" stroke="#000000" points="774.7585,-38.265 783.2459,-31.9236 772.6564,-31.5881 774.7585,-38.265"/>
</g>
<!-- samples__siteID_siteID__sites_join_No_Rows&#45;&gt;denied -->
<g id="edge15" class="edge">
<title>samples__siteID_siteID__sites_join_No_Rows&#45;&gt;denied</title>
<path fill="none" stroke="#000000" d="M763.813,-155.5875C776.3325,-128.5634 800.2094,-77.0239 814.9204,-45.2695"/>
<polygon fill="#000000" stroke="#000000" points="818.141,-46.6438 819.1689,-36.0989 811.7895,-43.7013 818.141,-46.6438"/>
</g>
<!-- samples__dataID_dataID__datasets_join_Has_Rows -->
<g id="node17" class="node">
<title>samples__dataID_dataID__datasets_join_Has_Rows</title>
<ellipse fill="none" stroke="#000000" cx="513.5537" cy="-256.8313" rx="47.4704" ry="18"/>
<text text-anchor="middle" x="513.5537" y="-252.6313" font-family="Times,serif" font-size="14.00" fill="#000000">Has rows</text>
</g>
<!-- samples__dataID_dataID__datasets_join&#45;&gt;samples__dataID_dataID__datasets_join_Has_Rows -->
<g id="edge17" class="edge">
<title>samples__dataID_dataID__datasets_join&#45;&gt;samples__dataID_dataID__datasets_join_Has_Rows</title>
<path fill="none" stroke="#000000" d="M666.9494,-323.2761C630.2736,-307.3896 585.9328,-288.183 554.3762,-274.5139"/>
<polygon fill="#000000" stroke="#000000" points="555.5831,-271.2225 545.0158,-270.4594 552.8008,-277.6459 555.5831,-271.2225"/>
</g>
<!-- samples__dataID_dataID__datasets_join_No_Rows -->
<g id="node21" class="node">
<title>samples__dataID_dataID__datasets_join_No_Rows</title>
<ellipse fill="none" stroke="#000000" cx="763.5537" cy="-256.8313" rx="44.0415" ry="18"/>
<text text-anchor="middle" x="763.5537" y="-252.6313" font-family="Times,serif" font-size="14.00" fill="#000000">No rows</text>
</g>
<!-- samples__dataID_dataID__datasets_join&#45;&gt;samples__dataID_dataID__datasets_join_No_Rows -->
<g id="edge23" class="edge">
<title>samples__dataID_dataID__datasets_join&#45;&gt;samples__dataID_dataID__datasets_join_No_Rows</title>
<path fill="none" stroke="#000000" d="M746.4505,-311.1596C749.2956,-302.1219 752.2438,-292.7571 754.8745,-284.4007"/>
<polygon fill="#000000" stroke="#000000" points="758.2332,-285.3871 757.8977,-274.7975 751.5563,-283.285 758.2332,-285.3871"/>
</g>
<!-- samples__dataID_dataID__datasets_where -->
<g id="node18" class="node">
<title>samples__dataID_dataID__datasets_where</title>
<ellipse fill="none" stroke="#000000" cx="489.5537" cy="-173.4156" rx="204.088" ry="29.3315"/>
<text text-anchor="middle" x="489.5537" y="-177.6156" font-family="Times,serif" font-size="14.00" fill="#000000">WHERE IN</text>
<text text-anchor="middle" x="489.5537" y="-160.8156" font-family="Times,serif" font-size="14.00" fill="#000000">datasets.dataID = [&quot;BCCDC&quot;,&quot;NML&#45;WWPCR&quot;]</text>
</g>
<!-- samples__dataID_dataID__datasets_join_Has_Rows&#45;&gt;samples__dataID_dataID__datasets_where -->
<g id="edge18" class="edge">
<title>samples__dataID_dataID__datasets_join_Has_Rows&#45;&gt;samples__dataID_dataID__datasets_where</title>
<path fill="none" stroke="#000000" d="M508.346,-238.7313C506.1389,-231.0602 503.4747,-221.8004 500.8551,-212.6954"/>
<polygon fill="#000000" stroke="#000000" points="504.1823,-211.6012 498.0537,-202.9588 497.4552,-213.5367 504.1823,-211.6012"/>
</g>
<!-- samples__dataID_dataID__datasets_where_Has_Rows -->
<g id="node19" class="node">
<title>samples__dataID_dataID__datasets_where_Has_Rows</title>
<ellipse fill="none" stroke="#000000" cx="428.5537" cy="-90" rx="47.4704" ry="18"/>
<text text-anchor="middle" x="428.5537" y="-85.8" font-family="Times,serif" font-size="14.00" fill="#000000">Has rows</text>
</g>
<!-- samples__dataID_dataID__datasets_where&#45;&gt;samples__dataID_dataID__datasets_where_Has_Rows -->
<g id="edge19" class="edge">
<title>samples__dataID_dataID__datasets_where&#45;&gt;samples__dataID_dataID__datasets_where_Has_Rows</title>
<path fill="none" stroke="#000000" d="M467.8756,-143.7715C461.1284,-134.5449 453.7509,-124.4565 447.2275,-115.5359"/>
<polygon fill="#000000" stroke="#000000" points="450.0113,-113.4133 441.2832,-107.4073 444.3609,-117.5453 450.0113,-113.4133"/>
</g>
<!-- samples__dataID_dataID__datasets_where_No_Rows -->
<g id="node20" class="node">
<title>samples__dataID_dataID__datasets_where_No_Rows</title>
<ellipse fill="none" stroke="#000000" cx="709.5537" cy="-90" rx="44.0415" ry="18"/>
<text text-anchor="middle" x="709.5537" y="-85.8" font-family="Times,serif" font-size="14.00" fill="#000000">No rows</text>
</g>
<!-- samples__dataID_dataID__datasets_where&#45;&gt;samples__dataID_dataID__datasets_where_No_Rows -->
<g id="edge21" class="edge">
<title>samples__dataID_dataID__datasets_where&#45;&gt;samples__dataID_dataID__datasets_where_No_Rows</title>
<path fill="none" stroke="#000000" d="M562.1996,-145.8711C597.1706,-132.6114 637.8574,-117.1845 667.6063,-105.9049"/>
<polygon fill="#000000" stroke="#000000" points="669.1421,-109.0657 677.2516,-102.2477 666.6603,-102.5204 669.1421,-109.0657"/>
</g>
<!-- samples__dataID_dataID__datasets_where_Has_Rows&#45;&gt;granted -->
<g id="edge20" class="edge">
<title>samples__dataID_dataID__datasets_where_Has_Rows&#45;&gt;granted</title>
<path fill="none" stroke="#000000" d="M403.4542,-74.5542C387.0665,-64.4695 365.42,-51.1485 347.2519,-39.9682"/>
<polygon fill="#000000" stroke="#000000" points="349.0017,-36.9354 338.6508,-34.6751 345.333,-42.897 349.0017,-36.9354"/>
</g>
<!-- samples__dataID_dataID__datasets_where_No_Rows&#45;&gt;denied -->
<g id="edge22" class="edge">
<title>samples__dataID_dataID__datasets_where_No_Rows&#45;&gt;denied</title>
<path fill="none" stroke="#000000" d="M734.2903,-74.9064C750.9004,-64.7715 773.055,-51.2534 791.6033,-39.9358"/>
<polygon fill="#000000" stroke="#000000" points="793.6657,-42.7775 800.3791,-34.5811 790.0196,-36.802 793.6657,-42.7775"/>
</g>
<!-- samples__dataID_dataID__datasets_join_No_Rows&#45;&gt;denied -->
<g id="edge24" class="edge">
<title>samples__dataID_dataID__datasets_join_No_Rows&#45;&gt;denied</title>
<path fill="none" stroke="#000000" d="M781.9641,-240.1616C791.5914,-230.3052 802.5858,-217.0024 808.5537,-202.8313 830.4321,-150.8796 831.2947,-83.729 829.6384,-46.3373"/>
<polygon fill="#000000" stroke="#000000" points="833.124,-45.975 829.092,-36.1774 826.1341,-46.3509 833.124,-45.975"/>
</g>
<!-- sites__siteID_siteID__samples_join_No_Rows&#45;&gt;denied -->
<g id="edge26" class="edge">
<title>sites__siteID_siteID__samples_join_No_Rows&#45;&gt;denied</title>
<path fill="none" stroke="#000000" d="M836.9411,-429.4795C846.5281,-395.9145 865.5537,-321.1962 865.5537,-256.8313 865.5537,-256.8313 865.5537,-256.8313 865.5537,-173.4156 865.5537,-127.7468 849.8796,-76.6338 838.6646,-45.9068"/>
<polygon fill="#000000" stroke="#000000" points="841.8517,-44.4379 835.0612,-36.3052 835.298,-46.8974 841.8517,-44.4379"/>
</g>
<!-- polygons__polygonID_polygonID__sites_where_No_Rows&#45;&gt;denied -->
<g id="edge28" class="edge">
<title>polygons__polygonID_polygonID__sites_where_No_Rows&#45;&gt;denied</title>
<path fill="none" stroke="#000000" d="M892.6136,-524.6121C896.2792,-490.7796 903.5537,-415.6381 903.5537,-352.1263 903.5537,-352.1263 903.5537,-352.1263 903.5537,-173.4156 903.5537,-123.6627 871.7331,-73.2252 849.2718,-43.8201"/>
<polygon fill="#000000" stroke="#000000" points="851.862,-41.4515 842.9334,-35.7479 846.3564,-45.7746 851.862,-41.4515"/>
</g>
<!-- polygons__polygonID_polygonID__sites_join_No_Rows&#45;&gt;denied -->
<g id="edge30" class="edge">
<title>polygons__polygonID_polygonID__sites_join_No_Rows&#45;&gt;denied</title>
<path fill="none" stroke="#000000" d="M962.5537,-703.417C962.5537,-671.186 962.5537,-601.511 962.5537,-542.7164 962.5537,-542.7164 962.5537,-542.7164 962.5537,-173.4156 962.5537,-113.8145 905.2666,-65.9138 865.3284,-39.7613"/>
<polygon fill="#000000" stroke="#000000" points="867.1615,-36.7793 856.8467,-34.3597 863.4013,-42.6836 867.1615,-36.7793"/>
</g>
</g>
</svg>
