<?xml version="1.0" encoding="UTF-8" standalone="no"?>
<!DOCTYPE svg PUBLIC "-//W3C//DTD SVG 1.1//EN"
 "http://www.w3.org/Graphics/SVG/1.1/DTD/svg11.dtd">
<!-- Generated by graphviz version 2.40.1 (20161225.0304)
 -->
<!-- Title: G Pages: 1 -->
<svg width="846pt" height="473pt"
 viewBox="0.00 0.00 846.06 473.42" xmlns="http://www.w3.org/2000/svg" xmlns:xlink="http://www.w3.org/1999/xlink">
<g id="graph0" class="graph" transform="scale(1 1) rotate(0) translate(4 469.4214)">
<title>G</title>
<polygon fill="#ffffff" stroke="transparent" points="-4,4 -4,-469.4214 842.0648,-469.4214 842.0648,4 -4,4"/>
<!-- samples -->
<g id="node1" class="node">
<title>samples</title>
<ellipse fill="none" stroke="#000000" cx="513.044" cy="-447.4214" rx="42.2913" ry="18"/>
<text text-anchor="middle" x="513.044" y="-443.2214" font-family="Times,serif" font-size="14.00" fill="#000000">samples</text>
</g>
<!-- samples__siteID_siteID__sites_join -->
<g id="node2" class="node">
<title>samples__siteID_siteID__sites_join</title>
<ellipse fill="none" stroke="#000000" cx="608.044" cy="-352.1263" rx="78.8882" ry="41.0911"/>
<text text-anchor="middle" x="608.044" y="-364.7263" font-family="Times,serif" font-size="14.00" fill="#000000">LEFT JOIN sites</text>
<text text-anchor="middle" x="608.044" y="-347.9263" font-family="Times,serif" font-size="14.00" fill="#000000">At level: 1</text>
<text text-anchor="middle" x="608.044" y="-331.1263" font-family="Times,serif" font-size="14.00" fill="#000000">Required: true</text>
</g>
<!-- samples&#45;&gt;samples__siteID_siteID__sites_join -->
<g id="edge1" class="edge">
<title>samples&#45;&gt;samples__siteID_siteID__sites_join</title>
<path fill="none" stroke="#000000" d="M529.5917,-430.8222C539.1905,-421.1936 551.7762,-408.5689 564.0482,-396.2588"/>
<polygon fill="#000000" stroke="#000000" points="566.6311,-398.6253 571.2126,-389.0722 561.6737,-393.6832 566.6311,-398.6253"/>
</g>
<!-- samples__dataID_dataID__datasets_join -->
<g id="node10" class="node">
<title>samples__dataID_dataID__datasets_join</title>
<ellipse fill="none" stroke="#000000" cx="418.044" cy="-352.1263" rx="92.8656" ry="41.0911"/>
<text text-anchor="middle" x="418.044" y="-364.7263" font-family="Times,serif" font-size="14.00" fill="#000000">LEFT JOIN datasets</text>
<text text-anchor="middle" x="418.044" y="-347.9263" font-family="Times,serif" font-size="14.00" fill="#000000">At level: 1</text>
<text text-anchor="middle" x="418.044" y="-331.1263" font-family="Times,serif" font-size="14.00" fill="#000000">Required: true</text>
</g>
<!-- samples&#45;&gt;samples__dataID_dataID__datasets_join -->
<g id="edge10" class="edge">
<title>samples&#45;&gt;samples__dataID_dataID__datasets_join</title>
<path fill="none" stroke="#000000" d="M496.4963,-430.8222C487.1633,-421.4603 475.0066,-409.2658 463.06,-397.2821"/>
<polygon fill="#000000" stroke="#000000" points="465.2146,-394.486 455.6758,-389.875 460.2572,-399.4281 465.2146,-394.486"/>
</g>
<!-- samples__siteID_siteID__sites_join_Has_Rows -->
<g id="node3" class="node">
<title>samples__siteID_siteID__sites_join_Has_Rows</title>
<ellipse fill="none" stroke="#000000" cx="601.044" cy="-256.8313" rx="47.4704" ry="18"/>
<text text-anchor="middle" x="601.044" y="-252.6313" font-family="Times,serif" font-size="14.00" fill="#000000">Has rows</text>
</g>
<!-- samples__siteID_siteID__sites_join&#45;&gt;samples__siteID_siteID__sites_join_Has_Rows -->
<g id="edge2" class="edge">
<title>samples__siteID_siteID__sites_join&#45;&gt;samples__siteID_siteID__sites_join_Has_Rows</title>
<path fill="none" stroke="#000000" d="M604.9941,-310.6057C604.3659,-302.0541 603.7181,-293.2347 603.1333,-285.2742"/>
<polygon fill="#000000" stroke="#000000" points="606.6061,-284.7739 602.3828,-275.0572 599.6249,-285.2868 606.6061,-284.7739"/>
</g>
<!-- samples__siteID_siteID__sites_join_No_Rows -->
<g id="node9" class="node">
<title>samples__siteID_siteID__sites_join_No_Rows</title>
<ellipse fill="none" stroke="#000000" cx="794.044" cy="-173.4156" rx="44.0415" ry="18"/>
<text text-anchor="middle" x="794.044" y="-169.2156" font-family="Times,serif" font-size="14.00" fill="#000000">No rows</text>
</g>
<!-- samples__siteID_siteID__sites_join&#45;&gt;samples__siteID_siteID__sites_join_No_Rows -->
<g id="edge8" class="edge">
<title>samples__siteID_siteID__sites_join&#45;&gt;samples__siteID_siteID__sites_join_No_Rows</title>
<path fill="none" stroke="#000000" d="M646.1327,-315.5303C682.973,-280.1338 737.7238,-227.5287 769.2492,-197.2388"/>
<polygon fill="#000000" stroke="#000000" points="771.9526,-199.495 776.7386,-190.0428 767.1027,-194.4474 771.9526,-199.495"/>
</g>
<!-- samples__siteID_siteID__sites_where -->
<g id="node4" class="node">
<title>samples__siteID_siteID__sites_where</title>
<ellipse fill="none" stroke="#000000" cx="598.044" cy="-173.4156" rx="133.6073" ry="29.3315"/>
<text text-anchor="middle" x="598.044" y="-177.6156" font-family="Times,serif" font-size="14.00" fill="#000000">WHERE</text>
<text text-anchor="middle" x="598.044" y="-160.8156" font-family="Times,serif" font-size="14.00" fill="#000000">sites.healthReg = &quot;Vancouver&quot;</text>
</g>
<!-- samples__siteID_siteID__sites_join_Has_Rows&#45;&gt;samples__siteID_siteID__sites_where -->
<g id="edge3" class="edge">
<title>samples__siteID_siteID__sites_join_Has_Rows&#45;&gt;samples__siteID_siteID__sites_where</title>
<path fill="none" stroke="#000000" d="M600.3931,-238.7313C600.1201,-231.1418 599.7912,-221.9972 599.4671,-212.986"/>
<polygon fill="#000000" stroke="#000000" points="602.9638,-212.8265 599.1065,-202.9588 595.9683,-213.0781 602.9638,-212.8265"/>
</g>
<!-- samples__siteID_siteID__sites_where_Has_Rows -->
<g id="node5" class="node">
<title>samples__siteID_siteID__sites_where_Has_Rows</title>
<ellipse fill="none" stroke="#000000" cx="361.044" cy="-90" rx="47.4704" ry="18"/>
<text text-anchor="middle" x="361.044" y="-85.8" font-family="Times,serif" font-size="14.00" fill="#000000">Has rows</text>
</g>
<!-- samples__siteID_siteID__sites_where&#45;&gt;samples__siteID_siteID__sites_where_Has_Rows -->
<g id="edge4" class="edge">
<title>samples__siteID_siteID__sites_where&#45;&gt;samples__siteID_siteID__sites_where_Has_Rows</title>
<path fill="none" stroke="#000000" d="M526.9362,-148.3882C487.4732,-134.4986 439.6147,-117.6541 405.4632,-105.634"/>
<polygon fill="#000000" stroke="#000000" points="406.3664,-102.2415 395.7716,-102.2229 404.0423,-108.8444 406.3664,-102.2415"/>
</g>
<!-- samples__siteID_siteID__sites_where_No_Rows -->
<g id="node7" class="node">
<title>samples__siteID_siteID__sites_where_No_Rows</title>
<ellipse fill="none" stroke="#000000" cx="553.044" cy="-90" rx="44.0415" ry="18"/>
<text text-anchor="middle" x="553.044" y="-85.8" font-family="Times,serif" font-size="14.00" fill="#000000">No rows</text>
</g>
<!-- samples__siteID_siteID__sites_where&#45;&gt;samples__siteID_siteID__sites_where_No_Rows -->
<g id="edge6" class="edge">
<title>samples__siteID_siteID__sites_where&#45;&gt;samples__siteID_siteID__sites_where_No_Rows</title>
<path fill="none" stroke="#000000" d="M582.052,-143.7715C577.3027,-134.9678 572.1301,-125.3795 567.4854,-116.7697"/>
<polygon fill="#000000" stroke="#000000" points="570.5259,-115.034 562.6976,-107.8947 564.3652,-118.3575 570.5259,-115.034"/>
</g>
<!-- granted -->
<g id="node6" class="node">
<title>granted</title>
<ellipse fill="none" stroke="#000000" cx="268.044" cy="-18" rx="71.7874" ry="18"/>
<text text-anchor="middle" x="268.044" y="-13.8" font-family="Times,serif" font-size="14.00" fill="#000000">Access Granted</text>
</g>
<!-- samples__siteID_siteID__sites_where_Has_Rows&#45;&gt;granted -->
<g id="edge5" class="edge">
<title>samples__siteID_siteID__sites_where_Has_Rows&#45;&gt;granted</title>
<path fill="none" stroke="#000000" d="M339.9409,-73.6621C327.6918,-64.179 312.0512,-52.0701 298.4881,-41.5696"/>
<polygon fill="#000000" stroke="#000000" points="300.4104,-38.6315 290.3605,-35.2773 296.1251,-44.1666 300.4104,-38.6315"/>
</g>
<!-- denied -->
<g id="node8" class="node">
<title>denied</title>
<ellipse fill="none" stroke="#000000" cx="494.044" cy="-18" rx="68.8581" ry="18"/>
<text text-anchor="middle" x="494.044" y="-13.8" font-family="Times,serif" font-size="14.00" fill="#000000">Access Denied</text>
</g>
<!-- samples__siteID_siteID__sites_where_No_Rows&#45;&gt;denied -->
<g id="edge7" class="edge">
<title>samples__siteID_siteID__sites_where_No_Rows&#45;&gt;denied</title>
<path fill="none" stroke="#000000" d="M538.7618,-72.5708C531.6212,-63.857 522.8427,-53.1441 514.9599,-43.5244"/>
<polygon fill="#000000" stroke="#000000" points="517.6501,-41.2853 508.6046,-35.7689 512.2357,-45.7221 517.6501,-41.2853"/>
</g>
<!-- samples__siteID_siteID__sites_join_No_Rows&#45;&gt;denied -->
<g id="edge9" class="edge">
<title>samples__siteID_siteID__sites_join_No_Rows&#45;&gt;denied</title>
<path fill="none" stroke="#000000" d="M767.943,-158.8158C759.3883,-154.061 749.8256,-148.7783 741.044,-144 681.3137,-111.4994 666.6827,-102.7725 606.044,-72 583.3414,-60.479 557.786,-48.1125 536.8247,-38.1246"/>
<polygon fill="#000000" stroke="#000000" points="538.0782,-34.8452 527.5438,-33.7146 535.0738,-41.1677 538.0782,-34.8452"/>
</g>
<!-- samples__dataID_dataID__datasets_join_Has_Rows -->
<g id="node11" class="node">
<title>samples__dataID_dataID__datasets_join_Has_Rows</title>
<ellipse fill="none" stroke="#000000" cx="259.044" cy="-256.8313" rx="47.4704" ry="18"/>
<text text-anchor="middle" x="259.044" y="-252.6313" font-family="Times,serif" font-size="14.00" fill="#000000">Has rows</text>
</g>
<!-- samples__dataID_dataID__datasets_join&#45;&gt;samples__dataID_dataID__datasets_join_Has_Rows -->
<g id="edge11" class="edge">
<title>samples__dataID_dataID__datasets_join&#45;&gt;samples__dataID_dataID__datasets_join_Has_Rows</title>
<path fill="none" stroke="#000000" d="M362.4335,-318.7967C339.4465,-305.0197 313.5218,-289.482 293.3827,-277.4118"/>
<polygon fill="#000000" stroke="#000000" points="294.9448,-274.2676 284.568,-272.1289 291.3462,-280.2718 294.9448,-274.2676"/>
</g>
<!-- samples__dataID_dataID__datasets_join_No_Rows -->
<g id="node15" class="node">
<title>samples__dataID_dataID__datasets_join_No_Rows</title>
<ellipse fill="none" stroke="#000000" cx="422.044" cy="-256.8313" rx="44.0415" ry="18"/>
<text text-anchor="middle" x="422.044" y="-252.6313" font-family="Times,serif" font-size="14.00" fill="#000000">No rows</text>
</g>
<!-- samples__dataID_dataID__datasets_join&#45;&gt;samples__dataID_dataID__datasets_join_No_Rows -->
<g id="edge17" class="edge">
<title>samples__dataID_dataID__datasets_join&#45;&gt;samples__dataID_dataID__datasets_join_No_Rows</title>
<path fill="none" stroke="#000000" d="M419.7868,-310.6057C420.1458,-302.0541 420.516,-293.2347 420.8501,-285.2742"/>
<polygon fill="#000000" stroke="#000000" points="424.3564,-285.1952 421.279,-275.0572 417.3626,-284.9016 424.3564,-285.1952"/>
</g>
<!-- samples__dataID_dataID__datasets_where -->
<g id="node12" class="node">
<title>samples__dataID_dataID__datasets_where</title>
<ellipse fill="none" stroke="#000000" cx="204.044" cy="-173.4156" rx="204.088" ry="29.3315"/>
<text text-anchor="middle" x="204.044" y="-177.6156" font-family="Times,serif" font-size="14.00" fill="#000000">WHERE IN</text>
<text text-anchor="middle" x="204.044" y="-160.8156" font-family="Times,serif" font-size="14.00" fill="#000000">datasets.dataID = [&quot;BCCDC&quot;,&quot;NML&#45;WWPCR&quot;]</text>
</g>
<!-- samples__dataID_dataID__datasets_join_Has_Rows&#45;&gt;samples__dataID_dataID__datasets_where -->
<g id="edge12" class="edge">
<title>samples__dataID_dataID__datasets_join_Has_Rows&#45;&gt;samples__dataID_dataID__datasets_where</title>
<path fill="none" stroke="#000000" d="M247.3799,-239.141C242.0144,-231.0034 235.4289,-221.0155 229.0268,-211.3058"/>
<polygon fill="#000000" stroke="#000000" points="231.91,-209.3202 223.4833,-202.8982 226.066,-213.1735 231.91,-209.3202"/>
</g>
<!-- samples__dataID_dataID__datasets_where_Has_Rows -->
<g id="node13" class="node">
<title>samples__dataID_dataID__datasets_where_Has_Rows</title>
<ellipse fill="none" stroke="#000000" cx="143.044" cy="-90" rx="47.4704" ry="18"/>
<text text-anchor="middle" x="143.044" y="-85.8" font-family="Times,serif" font-size="14.00" fill="#000000">Has rows</text>
</g>
<!-- samples__dataID_dataID__datasets_where&#45;&gt;samples__dataID_dataID__datasets_where_Has_Rows -->
<g id="edge13" class="edge">
<title>samples__dataID_dataID__datasets_where&#45;&gt;samples__dataID_dataID__datasets_where_Has_Rows</title>
<path fill="none" stroke="#000000" d="M182.3659,-143.7715C175.6187,-134.5449 168.2413,-124.4565 161.7179,-115.5359"/>
<polygon fill="#000000" stroke="#000000" points="164.5017,-113.4133 155.7736,-107.4073 158.8513,-117.5453 164.5017,-113.4133"/>
</g>
<!-- samples__dataID_dataID__datasets_where_No_Rows -->
<g id="node14" class="node">
<title>samples__dataID_dataID__datasets_where_No_Rows</title>
<ellipse fill="none" stroke="#000000" cx="252.044" cy="-90" rx="44.0415" ry="18"/>
<text text-anchor="middle" x="252.044" y="-85.8" font-family="Times,serif" font-size="14.00" fill="#000000">No rows</text>
</g>
<!-- samples__dataID_dataID__datasets_where&#45;&gt;samples__dataID_dataID__datasets_where_No_Rows -->
<g id="edge15" class="edge">
<title>samples__dataID_dataID__datasets_where&#45;&gt;samples__dataID_dataID__datasets_where_No_Rows</title>
<path fill="none" stroke="#000000" d="M221.1022,-143.7715C226.1681,-134.9678 231.6855,-125.3795 236.6398,-116.7697"/>
<polygon fill="#000000" stroke="#000000" points="239.7928,-118.3079 241.7468,-107.8947 233.7256,-114.8166 239.7928,-118.3079"/>
</g>
<!-- samples__dataID_dataID__datasets_where_Has_Rows&#45;&gt;granted -->
<g id="edge14" class="edge">
<title>samples__dataID_dataID__datasets_where_Has_Rows&#45;&gt;granted</title>
<path fill="none" stroke="#000000" d="M169.2481,-74.9064C187.0035,-64.6793 210.7396,-51.0073 230.496,-39.6277"/>
<polygon fill="#000000" stroke="#000000" points="232.339,-42.6052 239.2574,-34.5811 228.8451,-36.5395 232.339,-42.6052"/>
</g>
<!-- samples__dataID_dataID__datasets_where_No_Rows&#45;&gt;denied -->
<g id="edge16" class="edge">
<title>samples__dataID_dataID__datasets_where_No_Rows&#45;&gt;denied</title>
<path fill="none" stroke="#000000" d="M285.6075,-78.3239C292.0408,-76.1646 298.7368,-73.9708 305.044,-72 348.8483,-58.3128 398.7869,-44.104 436.3265,-33.6987"/>
<polygon fill="#000000" stroke="#000000" points="437.3735,-37.0407 446.08,-31.0034 435.509,-30.2935 437.3735,-37.0407"/>
</g>
<!-- samples__dataID_dataID__datasets_join_No_Rows&#45;&gt;denied -->
<g id="edge18" class="edge">
<title>samples__dataID_dataID__datasets_join_No_Rows&#45;&gt;denied</title>
<path fill="none" stroke="#000000" d="M427.2157,-238.8273C433.6406,-216.5357 444.9856,-177.4192 455.044,-144 465.1948,-110.274 477.2263,-71.5909 485.2143,-46.0816"/>
<polygon fill="#000000" stroke="#000000" points="488.6179,-46.9246 488.2703,-36.3354 481.9386,-44.8302 488.6179,-46.9246"/>
</g>
</g>
</svg>
