<?xml version="1.0" encoding="UTF-8" standalone="no"?>
<!DOCTYPE svg PUBLIC "-//W3C//DTD SVG 1.1//EN"
 "http://www.w3.org/Graphics/SVG/1.1/DTD/svg11.dtd">
<!-- Generated by graphviz version 2.40.1 (20161225.0304)
 -->
<!-- Title: G Pages: 1 -->
<svg width="372pt" height="473pt"
 viewBox="0.00 0.00 371.90 473.42" xmlns="http://www.w3.org/2000/svg" xmlns:xlink="http://www.w3.org/1999/xlink">
<g id="graph0" class="graph" transform="scale(1 1) rotate(0) translate(4 469.4214)">
<title>G</title>
<polygon fill="#ffffff" stroke="transparent" points="-4,4 -4,-469.4214 367.8963,-469.4214 367.8963,4 -4,4"/>
<!-- samples -->
<g id="node1" class="node">
<title>samples</title>
<ellipse fill="none" stroke="#000000" cx="216.2174" cy="-447.4214" rx="42.2913" ry="18"/>
<text text-anchor="middle" x="216.2174" y="-443.2214" font-family="Times,serif" font-size="14.00" fill="#000000">samples</text>
</g>
<!-- samples__dataID_dataID__datasets_join -->
<g id="node2" class="node">
<title>samples__dataID_dataID__datasets_join</title>
<ellipse fill="none" stroke="#000000" cx="216.2174" cy="-352.1263" rx="92.8656" ry="41.0911"/>
<text text-anchor="middle" x="216.2174" y="-364.7263" font-family="Times,serif" font-size="14.00" fill="#000000">LEFT JOIN datasets</text>
<text text-anchor="middle" x="216.2174" y="-347.9263" font-family="Times,serif" font-size="14.00" fill="#000000">At level: 1</text>
<text text-anchor="middle" x="216.2174" y="-331.1263" font-family="Times,serif" font-size="14.00" fill="#000000">Required: true</text>
</g>
<!-- samples&#45;&gt;samples__dataID_dataID__datasets_join -->
<g id="edge1" class="edge">
<title>samples&#45;&gt;samples__dataID_dataID__datasets_join</title>
<path fill="none" stroke="#000000" d="M216.2174,-429.0475C216.2174,-421.7384 216.2174,-412.9288 216.2174,-403.92"/>
<polygon fill="#000000" stroke="#000000" points="219.7175,-403.7335 216.2174,-393.7335 212.7175,-403.7335 219.7175,-403.7335"/>
</g>
<!-- samples__dataID_dataID__datasets_join_Has_Rows -->
<g id="node3" class="node">
<title>samples__dataID_dataID__datasets_join_Has_Rows</title>
<ellipse fill="none" stroke="#000000" cx="179.2174" cy="-256.8313" rx="47.4704" ry="18"/>
<text text-anchor="middle" x="179.2174" y="-252.6313" font-family="Times,serif" font-size="14.00" fill="#000000">Has rows</text>
</g>
<!-- samples__dataID_dataID__datasets_join&#45;&gt;samples__dataID_dataID__datasets_join_Has_Rows -->
<g id="edge2" class="edge">
<title>samples__dataID_dataID__datasets_join&#45;&gt;samples__dataID_dataID__datasets_join_Has_Rows</title>
<path fill="none" stroke="#000000" d="M200.3114,-311.1596C196.7638,-302.0226 193.0864,-292.5513 189.8149,-284.1256"/>
<polygon fill="#000000" stroke="#000000" points="193.0754,-282.8527 186.1932,-274.7975 186.55,-285.3864 193.0754,-282.8527"/>
</g>
<!-- samples__dataID_dataID__datasets_join_No_Rows -->
<g id="node9" class="node">
<title>samples__dataID_dataID__datasets_join_No_Rows</title>
<ellipse fill="none" stroke="#000000" cx="310.2174" cy="-173.4156" rx="44.0415" ry="18"/>
<text text-anchor="middle" x="310.2174" y="-169.2156" font-family="Times,serif" font-size="14.00" fill="#000000">No rows</text>
</g>
<!-- samples__dataID_dataID__datasets_join&#45;&gt;samples__dataID_dataID__datasets_join_No_Rows -->
<g id="edge8" class="edge">
<title>samples__dataID_dataID__datasets_join&#45;&gt;samples__dataID_dataID__datasets_join_No_Rows</title>
<path fill="none" stroke="#000000" d="M237.5475,-311.5741C255.5346,-277.3774 280.7574,-229.4244 296.2645,-199.9428"/>
<polygon fill="#000000" stroke="#000000" points="299.3787,-201.5404 300.9363,-191.0607 293.1834,-198.2817 299.3787,-201.5404"/>
</g>
<!-- samples__dataID_dataID__datasets_where -->
<g id="node4" class="node">
<title>samples__dataID_dataID__datasets_where</title>
<ellipse fill="none" stroke="#000000" cx="124.2174" cy="-173.4156" rx="124.4353" ry="29.3315"/>
<text text-anchor="middle" x="124.2174" y="-177.6156" font-family="Times,serif" font-size="14.00" fill="#000000">WHERE</text>
<text text-anchor="middle" x="124.2174" y="-160.8156" font-family="Times,serif" font-size="14.00" fill="#000000">datasets.dataID = &quot;BCCDC&quot;</text>
</g>
<!-- samples__dataID_dataID__datasets_join_Has_Rows&#45;&gt;samples__dataID_dataID__datasets_where -->
<g id="edge3" class="edge">
<title>samples__dataID_dataID__datasets_join_Has_Rows&#45;&gt;samples__dataID_dataID__datasets_where</title>
<path fill="none" stroke="#000000" d="M167.5534,-239.141C162.1391,-230.9294 155.4825,-220.8337 149.0257,-211.0411"/>
<polygon fill="#000000" stroke="#000000" points="151.866,-208.9904 143.4393,-202.5684 146.022,-212.8437 151.866,-208.9904"/>
</g>
<!-- samples__dataID_dataID__datasets_where_Has_Rows -->
<g id="node5" class="node">
<title>samples__dataID_dataID__datasets_where_Has_Rows</title>
<ellipse fill="none" stroke="#000000" cx="124.2174" cy="-90" rx="47.4704" ry="18"/>
<text text-anchor="middle" x="124.2174" y="-85.8" font-family="Times,serif" font-size="14.00" fill="#000000">Has rows</text>
</g>
<!-- samples__dataID_dataID__datasets_where&#45;&gt;samples__dataID_dataID__datasets_where_Has_Rows -->
<g id="edge4" class="edge">
<title>samples__dataID_dataID__datasets_where&#45;&gt;samples__dataID_dataID__datasets_where_Has_Rows</title>
<path fill="none" stroke="#000000" d="M124.2174,-143.7715C124.2174,-135.5664 124.2174,-126.6796 124.2174,-118.5388"/>
<polygon fill="#000000" stroke="#000000" points="127.7175,-118.3865 124.2174,-108.3866 120.7175,-118.3866 127.7175,-118.3865"/>
</g>
<!-- samples__dataID_dataID__datasets_where_No_Rows -->
<g id="node7" class="node">
<title>samples__dataID_dataID__datasets_where_No_Rows</title>
<ellipse fill="none" stroke="#000000" cx="235.2174" cy="-90" rx="44.0415" ry="18"/>
<text text-anchor="middle" x="235.2174" y="-85.8" font-family="Times,serif" font-size="14.00" fill="#000000">No rows</text>
</g>
<!-- samples__dataID_dataID__datasets_where&#45;&gt;samples__dataID_dataID__datasets_where_No_Rows -->
<g id="edge6" class="edge">
<title>samples__dataID_dataID__datasets_where&#45;&gt;samples__dataID_dataID__datasets_where_No_Rows</title>
<path fill="none" stroke="#000000" d="M161.797,-145.1749C176.1723,-134.372 192.3445,-122.2187 205.8444,-112.0736"/>
<polygon fill="#000000" stroke="#000000" points="207.9732,-114.852 213.8648,-106.0463 203.7678,-109.256 207.9732,-114.852"/>
</g>
<!-- granted -->
<g id="node6" class="node">
<title>granted</title>
<ellipse fill="none" stroke="#000000" cx="124.2174" cy="-18" rx="71.7874" ry="18"/>
<text text-anchor="middle" x="124.2174" y="-13.8" font-family="Times,serif" font-size="14.00" fill="#000000">Access Granted</text>
</g>
<!-- samples__dataID_dataID__datasets_where_Has_Rows&#45;&gt;granted -->
<g id="edge5" class="edge">
<title>samples__dataID_dataID__datasets_where_Has_Rows&#45;&gt;granted</title>
<path fill="none" stroke="#000000" d="M124.2174,-71.8314C124.2174,-64.131 124.2174,-54.9743 124.2174,-46.4166"/>
<polygon fill="#000000" stroke="#000000" points="127.7175,-46.4132 124.2174,-36.4133 120.7175,-46.4133 127.7175,-46.4132"/>
</g>
<!-- denied -->
<g id="node8" class="node">
<title>denied</title>
<ellipse fill="none" stroke="#000000" cx="295.2174" cy="-18" rx="68.8581" ry="18"/>
<text text-anchor="middle" x="295.2174" y="-13.8" font-family="Times,serif" font-size="14.00" fill="#000000">Access Denied</text>
</g>
<!-- samples__dataID_dataID__datasets_where_No_Rows&#45;&gt;denied -->
<g id="edge7" class="edge">
<title>samples__dataID_dataID__datasets_where_No_Rows&#45;&gt;denied</title>
<path fill="none" stroke="#000000" d="M249.4366,-72.937C256.7464,-64.1652 265.8037,-53.2965 273.9278,-43.5476"/>
<polygon fill="#000000" stroke="#000000" points="276.7607,-45.6153 280.4738,-35.6924 271.3831,-41.134 276.7607,-45.6153"/>
</g>
<!-- samples__dataID_dataID__datasets_join_No_Rows&#45;&gt;denied -->
<g id="edge9" class="edge">
<title>samples__dataID_dataID__datasets_join_No_Rows&#45;&gt;denied</title>
<path fill="none" stroke="#000000" d="M308.4674,-155.2833C305.8706,-128.3778 300.9755,-77.6589 297.9171,-45.9715"/>
<polygon fill="#000000" stroke="#000000" points="301.4009,-45.6343 296.9563,-36.0168 294.4333,-46.3068 301.4009,-45.6343"/>
</g>
</g>
</svg>
