<?xml version="1.0" encoding="UTF-8" standalone="no"?>
<!DOCTYPE svg PUBLIC "-//W3C//DTD SVG 1.1//EN"
 "http://www.w3.org/Graphics/SVG/1.1/DTD/svg11.dtd">
<!-- Generated by graphviz version 2.40.1 (20161225.0304)
 -->
<!-- Title: G Pages: 1 -->
<svg width="434pt" height="664pt"
 viewBox="0.00 0.00 434.24 664.01" xmlns="http://www.w3.org/2000/svg" xmlns:xlink="http://www.w3.org/1999/xlink">
<g id="graph0" class="graph" transform="scale(1 1) rotate(0) translate(4 660.0114)">
<title>G</title>
<polygon fill="#ffffff" stroke="transparent" points="-4,4 -4,-660.0114 430.2382,-660.0114 430.2382,4 -4,4"/>
<!-- sites -->
<g id="node1" class="node">
<title>sites</title>
<ellipse fill="none" stroke="#000000" cx="304.2174" cy="-638.0114" rx="28.4049" ry="18"/>
<text text-anchor="middle" x="304.2174" y="-633.8114" font-family="Times,serif" font-size="14.00" fill="#000000">sites</text>
</g>
<!-- sites__siteID_siteID__samples_join -->
<g id="node2" class="node">
<title>sites__siteID_siteID__samples_join</title>
<ellipse fill="none" stroke="#000000" cx="304.2174" cy="-542.7164" rx="93.4765" ry="41.0911"/>
<text text-anchor="middle" x="304.2174" y="-555.3164" font-family="Times,serif" font-size="14.00" fill="#000000">LEFT JOIN samples</text>
<text text-anchor="middle" x="304.2174" y="-538.5164" font-family="Times,serif" font-size="14.00" fill="#000000">At level: 2</text>
<text text-anchor="middle" x="304.2174" y="-521.7164" font-family="Times,serif" font-size="14.00" fill="#000000">Required: true</text>
</g>
<!-- sites&#45;&gt;sites__siteID_siteID__samples_join -->
<g id="edge1" class="edge">
<title>sites&#45;&gt;sites__siteID_siteID__samples_join</title>
<path fill="none" stroke="#000000" d="M304.2174,-619.6376C304.2174,-612.3285 304.2174,-603.5189 304.2174,-594.5101"/>
<polygon fill="#000000" stroke="#000000" points="307.7175,-594.3235 304.2174,-584.3236 300.7175,-594.3236 307.7175,-594.3235"/>
</g>
<!-- sites__siteID_siteID__samples_join_Has_Rows -->
<g id="node3" class="node">
<title>sites__siteID_siteID__samples_join_Has_Rows</title>
<ellipse fill="none" stroke="#000000" cx="267.2174" cy="-447.4214" rx="47.4704" ry="18"/>
<text text-anchor="middle" x="267.2174" y="-443.2214" font-family="Times,serif" font-size="14.00" fill="#000000">Has rows</text>
</g>
<!-- sites__siteID_siteID__samples_join&#45;&gt;sites__siteID_siteID__samples_join_Has_Rows -->
<g id="edge2" class="edge">
<title>sites__siteID_siteID__samples_join&#45;&gt;sites__siteID_siteID__samples_join_Has_Rows</title>
<path fill="none" stroke="#000000" d="M288.3114,-501.7497C284.7638,-492.6127 281.0864,-483.1413 277.8149,-474.7156"/>
<polygon fill="#000000" stroke="#000000" points="281.0754,-473.4428 274.1932,-465.3876 274.55,-475.9764 281.0754,-473.4428"/>
</g>
<!-- sites__siteID_siteID__samples_join_No_Rows -->
<g id="node12" class="node">
<title>sites__siteID_siteID__samples_join_No_Rows</title>
<ellipse fill="none" stroke="#000000" cx="382.2174" cy="-352.1263" rx="44.0415" ry="18"/>
<text text-anchor="middle" x="382.2174" y="-347.9263" font-family="Times,serif" font-size="14.00" fill="#000000">No rows</text>
</g>
<!-- sites__siteID_siteID__samples_join&#45;&gt;sites__siteID_siteID__samples_join_No_Rows -->
<g id="edge12" class="edge">
<title>sites__siteID_siteID__samples_join&#45;&gt;sites__siteID_siteID__samples_join_No_Rows</title>
<path fill="none" stroke="#000000" d="M320.9504,-501.83C336.0571,-464.9175 357.867,-411.6256 370.9803,-379.5838"/>
<polygon fill="#000000" stroke="#000000" points="374.3644,-380.5556 374.9128,-369.9749 367.8859,-377.9042 374.3644,-380.5556"/>
</g>
<!-- samples__dataID_dataID__datasets_join -->
<g id="node4" class="node">
<title>samples__dataID_dataID__datasets_join</title>
<ellipse fill="none" stroke="#000000" cx="227.2174" cy="-352.1263" rx="92.8656" ry="41.0911"/>
<text text-anchor="middle" x="227.2174" y="-364.7263" font-family="Times,serif" font-size="14.00" fill="#000000">LEFT JOIN datasets</text>
<text text-anchor="middle" x="227.2174" y="-347.9263" font-family="Times,serif" font-size="14.00" fill="#000000">At level: 1</text>
<text text-anchor="middle" x="227.2174" y="-331.1263" font-family="Times,serif" font-size="14.00" fill="#000000">Required: true</text>
</g>
<!-- sites__siteID_siteID__samples_join_Has_Rows&#45;&gt;samples__dataID_dataID__datasets_join -->
<g id="edge3" class="edge">
<title>sites__siteID_siteID__samples_join_Has_Rows&#45;&gt;samples__dataID_dataID__datasets_join</title>
<path fill="none" stroke="#000000" d="M259.6938,-429.4971C256.401,-421.6524 252.3569,-412.018 248.2546,-402.2446"/>
<polygon fill="#000000" stroke="#000000" points="251.4237,-400.7516 244.3261,-392.8855 244.9693,-403.4608 251.4237,-400.7516"/>
</g>
<!-- samples__dataID_dataID__datasets_join_Has_Rows -->
<g id="node5" class="node">
<title>samples__dataID_dataID__datasets_join_Has_Rows</title>
<ellipse fill="none" stroke="#000000" cx="176.2174" cy="-256.8313" rx="47.4704" ry="18"/>
<text text-anchor="middle" x="176.2174" y="-252.6313" font-family="Times,serif" font-size="14.00" fill="#000000">Has rows</text>
</g>
<!-- samples__dataID_dataID__datasets_join&#45;&gt;samples__dataID_dataID__datasets_join_Has_Rows -->
<g id="edge4" class="edge">
<title>samples__dataID_dataID__datasets_join&#45;&gt;samples__dataID_dataID__datasets_join_Has_Rows</title>
<path fill="none" stroke="#000000" d="M205.5889,-311.7126C200.4849,-302.1758 195.1692,-292.2431 190.4852,-283.4911"/>
<polygon fill="#000000" stroke="#000000" points="193.4951,-281.6975 185.6906,-274.5322 187.3234,-285.0005 193.4951,-281.6975"/>
</g>
<!-- samples__dataID_dataID__datasets_join_No_Rows -->
<g id="node11" class="node">
<title>samples__dataID_dataID__datasets_join_No_Rows</title>
<ellipse fill="none" stroke="#000000" cx="310.2174" cy="-173.4156" rx="44.0415" ry="18"/>
<text text-anchor="middle" x="310.2174" y="-169.2156" font-family="Times,serif" font-size="14.00" fill="#000000">No rows</text>
</g>
<!-- samples__dataID_dataID__datasets_join&#45;&gt;samples__dataID_dataID__datasets_join_No_Rows -->
<g id="edge10" class="edge">
<title>samples__dataID_dataID__datasets_join&#45;&gt;samples__dataID_dataID__datasets_join_No_Rows</title>
<path fill="none" stroke="#000000" d="M246.0514,-311.5741C261.779,-277.7105 283.7716,-230.3572 297.4947,-200.8095"/>
<polygon fill="#000000" stroke="#000000" points="300.7727,-202.0606 301.8106,-191.5167 294.424,-199.112 300.7727,-202.0606"/>
</g>
<!-- samples__dataID_dataID__datasets_where -->
<g id="node6" class="node">
<title>samples__dataID_dataID__datasets_where</title>
<ellipse fill="none" stroke="#000000" cx="124.2174" cy="-173.4156" rx="124.4353" ry="29.3315"/>
<text text-anchor="middle" x="124.2174" y="-177.6156" font-family="Times,serif" font-size="14.00" fill="#000000">WHERE</text>
<text text-anchor="middle" x="124.2174" y="-160.8156" font-family="Times,serif" font-size="14.00" fill="#000000">datasets.dataID = &quot;BCCDC&quot;</text>
</g>
<!-- samples__dataID_dataID__datasets_join_Has_Rows&#45;&gt;samples__dataID_dataID__datasets_where -->
<g id="edge5" class="edge">
<title>samples__dataID_dataID__datasets_join_Has_Rows&#45;&gt;samples__dataID_dataID__datasets_where</title>
<path fill="none" stroke="#000000" d="M165.1896,-239.141C160.1223,-231.0124 153.9042,-221.0375 147.8576,-211.3379"/>
<polygon fill="#000000" stroke="#000000" points="150.6512,-209.203 142.3908,-202.5684 144.7109,-212.9061 150.6512,-209.203"/>
</g>
<!-- samples__dataID_dataID__datasets_where_Has_Rows -->
<g id="node7" class="node">
<title>samples__dataID_dataID__datasets_where_Has_Rows</title>
<ellipse fill="none" stroke="#000000" cx="124.2174" cy="-90" rx="47.4704" ry="18"/>
<text text-anchor="middle" x="124.2174" y="-85.8" font-family="Times,serif" font-size="14.00" fill="#000000">Has rows</text>
</g>
<!-- samples__dataID_dataID__datasets_where&#45;&gt;samples__dataID_dataID__datasets_where_Has_Rows -->
<g id="edge6" class="edge">
<title>samples__dataID_dataID__datasets_where&#45;&gt;samples__dataID_dataID__datasets_where_Has_Rows</title>
<path fill="none" stroke="#000000" d="M124.2174,-143.7715C124.2174,-135.5664 124.2174,-126.6796 124.2174,-118.5388"/>
<polygon fill="#000000" stroke="#000000" points="127.7175,-118.3865 124.2174,-108.3866 120.7175,-118.3866 127.7175,-118.3865"/>
</g>
<!-- samples__dataID_dataID__datasets_where_No_Rows -->
<g id="node9" class="node">
<title>samples__dataID_dataID__datasets_where_No_Rows</title>
<ellipse fill="none" stroke="#000000" cx="236.2174" cy="-90" rx="44.0415" ry="18"/>
<text text-anchor="middle" x="236.2174" y="-85.8" font-family="Times,serif" font-size="14.00" fill="#000000">No rows</text>
</g>
<!-- samples__dataID_dataID__datasets_where&#45;&gt;samples__dataID_dataID__datasets_where_No_Rows -->
<g id="edge8" class="edge">
<title>samples__dataID_dataID__datasets_where&#45;&gt;samples__dataID_dataID__datasets_where_No_Rows</title>
<path fill="none" stroke="#000000" d="M162.1355,-145.1749C176.7455,-134.2937 193.1948,-122.0425 206.8755,-111.8534"/>
<polygon fill="#000000" stroke="#000000" points="209.0653,-114.5866 214.9947,-105.8063 204.884,-108.9725 209.0653,-114.5866"/>
</g>
<!-- granted -->
<g id="node8" class="node">
<title>granted</title>
<ellipse fill="none" stroke="#000000" cx="124.2174" cy="-18" rx="71.7874" ry="18"/>
<text text-anchor="middle" x="124.2174" y="-13.8" font-family="Times,serif" font-size="14.00" fill="#000000">Access Granted</text>
</g>
<!-- samples__dataID_dataID__datasets_where_Has_Rows&#45;&gt;granted -->
<g id="edge7" class="edge">
<title>samples__dataID_dataID__datasets_where_Has_Rows&#45;&gt;granted</title>
<path fill="none" stroke="#000000" d="M124.2174,-71.8314C124.2174,-64.131 124.2174,-54.9743 124.2174,-46.4166"/>
<polygon fill="#000000" stroke="#000000" points="127.7175,-46.4132 124.2174,-36.4133 120.7175,-46.4133 127.7175,-46.4132"/>
</g>
<!-- denied -->
<g id="node10" class="node">
<title>denied</title>
<ellipse fill="none" stroke="#000000" cx="310.2174" cy="-18" rx="68.8581" ry="18"/>
<text text-anchor="middle" x="310.2174" y="-13.8" font-family="Times,serif" font-size="14.00" fill="#000000">Access Denied</text>
</g>
<!-- samples__dataID_dataID__datasets_where_No_Rows&#45;&gt;denied -->
<g id="edge9" class="edge">
<title>samples__dataID_dataID__datasets_where_No_Rows&#45;&gt;denied</title>
<path fill="none" stroke="#000000" d="M253.3805,-73.3008C262.7256,-64.2083 274.4677,-52.7836 284.8495,-42.6823"/>
<polygon fill="#000000" stroke="#000000" points="287.3885,-45.0953 292.115,-35.6132 282.507,-40.0782 287.3885,-45.0953"/>
</g>
<!-- samples__dataID_dataID__datasets_join_No_Rows&#45;&gt;denied -->
<g id="edge11" class="edge">
<title>samples__dataID_dataID__datasets_join_No_Rows&#45;&gt;denied</title>
<path fill="none" stroke="#000000" d="M310.2174,-155.2833C310.2174,-128.4948 310.2174,-78.0995 310.2174,-46.3859"/>
<polygon fill="#000000" stroke="#000000" points="313.7175,-46.0168 310.2174,-36.0168 306.7175,-46.0169 313.7175,-46.0168"/>
</g>
<!-- sites__siteID_siteID__samples_join_No_Rows&#45;&gt;denied -->
<g id="edge13" class="edge">
<title>sites__siteID_siteID__samples_join_No_Rows&#45;&gt;denied</title>
<path fill="none" stroke="#000000" d="M382.4137,-333.9997C382.4071,-297.4724 380.3516,-212.6464 363.2174,-144 354.3894,-108.6314 337.0733,-70.3422 324.634,-45.3715"/>
<polygon fill="#000000" stroke="#000000" points="327.6126,-43.5064 319.9693,-36.1695 321.369,-46.6715 327.6126,-43.5064"/>
</g>
</g>
</svg>
