<?xml version="1.0" encoding="UTF-8" standalone="no"?>
<!DOCTYPE svg PUBLIC "-//W3C//DTD SVG 1.1//EN"
 "http://www.w3.org/Graphics/SVG/1.1/DTD/svg11.dtd">
<!-- Generated by graphviz version 2.40.1 (20161225.0304)
 -->
<!-- Title: G Pages: 1 -->
<svg width="937pt" height="1021pt"
 viewBox="0.00 0.00 937.02 1021.43" xmlns="http://www.w3.org/2000/svg" xmlns:xlink="http://www.w3.org/1999/xlink">
<g id="graph0" class="graph" transform="scale(1 1) rotate(0) translate(4 1017.4328)">
<title>G</title>
<polygon fill="#ffffff" stroke="transparent" points="-4,4 -4,-1017.4328 933.0208,-1017.4328 933.0208,4 -4,4"/>
<!-- addresses -->
<g id="node1" class="node">
<title>addresses</title>
<ellipse fill="none" stroke="#000000" cx="581.0208" cy="-995.4328" rx="48.0703" ry="18"/>
<text text-anchor="middle" x="581.0208" y="-991.2328" font-family="Times,serif" font-size="14.00" fill="#000000">addresses</text>
</g>
<!-- addresses__addID_addID__sites_join -->
<g id="node2" class="node">
<title>addresses__addID_addID__sites_join</title>
<ellipse fill="none" stroke="#000000" cx="581.0208" cy="-900.1377" rx="78.8882" ry="41.0911"/>
<text text-anchor="middle" x="581.0208" y="-912.7377" font-family="Times,serif" font-size="14.00" fill="#000000">LEFT JOIN sites</text>
<text text-anchor="middle" x="581.0208" y="-895.9377" font-family="Times,serif" font-size="14.00" fill="#000000">At level: 3</text>
<text text-anchor="middle" x="581.0208" y="-879.1377" font-family="Times,serif" font-size="14.00" fill="#000000">Required: false</text>
</g>
<!-- addresses&#45;&gt;addresses__addID_addID__sites_join -->
<g id="edge1" class="edge">
<title>addresses&#45;&gt;addresses__addID_addID__sites_join</title>
<path fill="none" stroke="#000000" d="M581.0208,-977.0589C581.0208,-969.7498 581.0208,-960.9402 581.0208,-951.9314"/>
<polygon fill="#000000" stroke="#000000" points="584.5209,-951.7449 581.0208,-941.7449 577.5209,-951.745 584.5209,-951.7449"/>
</g>
<!-- addresses__addID_addID__sites_join_Has_Rows -->
<g id="node3" class="node">
<title>addresses__addID_addID__sites_join_Has_Rows</title>
<ellipse fill="none" stroke="#000000" cx="544.0208" cy="-804.8427" rx="47.4704" ry="18"/>
<text text-anchor="middle" x="544.0208" y="-800.6427" font-family="Times,serif" font-size="14.00" fill="#000000">Has rows</text>
</g>
<!-- addresses__addID_addID__sites_join&#45;&gt;addresses__addID_addID__sites_join_Has_Rows -->
<g id="edge2" class="edge">
<title>addresses__addID_addID__sites_join&#45;&gt;addresses__addID_addID__sites_join_Has_Rows</title>
<path fill="none" stroke="#000000" d="M565.2221,-859.4477C561.6645,-850.285 557.9707,-840.7715 554.6823,-832.302"/>
<polygon fill="#000000" stroke="#000000" points="557.9229,-830.978 551.0407,-822.9228 551.3975,-833.5117 557.9229,-830.978"/>
</g>
<!-- addresses__addID_addID__sites_join_No_Rows -->
<g id="node24" class="node">
<title>addresses__addID_addID__sites_join_No_Rows</title>
<ellipse fill="none" stroke="#000000" cx="858.0208" cy="-721.4271" rx="44.0415" ry="18"/>
<text text-anchor="middle" x="858.0208" y="-717.2271" font-family="Times,serif" font-size="14.00" fill="#000000">No rows</text>
</g>
<!-- addresses__addID_addID__sites_join&#45;&gt;addresses__addID_addID__sites_join_No_Rows -->
<g id="edge29" class="edge">
<title>addresses__addID_addID__sites_join&#45;&gt;addresses__addID_addID__sites_join_No_Rows</title>
<path fill="none" stroke="#000000" d="M630.8627,-867.9815C687.4639,-831.4644 778.1457,-772.9597 826.0208,-742.0723"/>
<polygon fill="#000000" stroke="#000000" points="827.9386,-745.0003 834.4441,-736.6379 824.1436,-739.1182 827.9386,-745.0003"/>
</g>
<!-- addresses__addID_addID__sites_where -->
<g id="node4" class="node">
<title>addresses__addID_addID__sites_where</title>
<ellipse fill="none" stroke="#000000" cx="210.0208" cy="-721.4271" rx="92.1488" ry="29.3315"/>
<text text-anchor="middle" x="210.0208" y="-725.6271" font-family="Times,serif" font-size="14.00" fill="#000000">WHERE</text>
<text text-anchor="middle" x="210.0208" y="-708.8271" font-family="Times,serif" font-size="14.00" fill="#000000">sites.siteID = &quot;HNJ&quot;</text>
</g>
<!-- addresses__addID_addID__sites_join_Has_Rows&#45;&gt;addresses__addID_addID__sites_where -->
<g id="edge3" class="edge">
<title>addresses__addID_addID__sites_join_Has_Rows&#45;&gt;addresses__addID_addID__sites_where</title>
<path fill="none" stroke="#000000" d="M504.395,-794.9463C452.4324,-781.9688 359.9628,-758.8747 292.4925,-742.0242"/>
<polygon fill="#000000" stroke="#000000" points="293.2771,-738.6127 282.727,-739.5853 291.581,-745.4041 293.2771,-738.6127"/>
</g>
<!-- addresses__addID_addID__sites_where_Has_Rows -->
<g id="node5" class="node">
<title>addresses__addID_addID__sites_where_Has_Rows</title>
<ellipse fill="none" stroke="#000000" cx="210.0208" cy="-638.0114" rx="47.4704" ry="18"/>
<text text-anchor="middle" x="210.0208" y="-633.8114" font-family="Times,serif" font-size="14.00" fill="#000000">Has rows</text>
</g>
<!-- addresses__addID_addID__sites_where&#45;&gt;addresses__addID_addID__sites_where_Has_Rows -->
<g id="edge4" class="edge">
<title>addresses__addID_addID__sites_where&#45;&gt;addresses__addID_addID__sites_where_Has_Rows</title>
<path fill="none" stroke="#000000" d="M210.0208,-691.783C210.0208,-683.5778 210.0208,-674.691 210.0208,-666.5502"/>
<polygon fill="#000000" stroke="#000000" points="213.5209,-666.398 210.0208,-656.398 206.5209,-666.398 213.5209,-666.398"/>
</g>
<!-- addresses__addID_addID__sites_where_No_Rows -->
<g id="node23" class="node">
<title>addresses__addID_addID__sites_where_No_Rows</title>
<ellipse fill="none" stroke="#000000" cx="44.0208" cy="-542.7164" rx="44.0415" ry="18"/>
<text text-anchor="middle" x="44.0208" y="-538.5164" font-family="Times,serif" font-size="14.00" fill="#000000">No rows</text>
</g>
<!-- addresses__addID_addID__sites_where&#45;&gt;addresses__addID_addID__sites_where_No_Rows -->
<g id="edge27" class="edge">
<title>addresses__addID_addID__sites_where&#45;&gt;addresses__addID_addID__sites_where_No_Rows</title>
<path fill="none" stroke="#000000" d="M183.7176,-693.1098C151.3867,-658.3034 97.0705,-599.8282 66.5652,-566.9871"/>
<polygon fill="#000000" stroke="#000000" points="69.0814,-564.5531 59.7112,-559.6083 63.9526,-569.3171 69.0814,-564.5531"/>
</g>
<!-- sites__siteID_siteID__samples_join -->
<g id="node6" class="node">
<title>sites__siteID_siteID__samples_join</title>
<ellipse fill="none" stroke="#000000" cx="210.0208" cy="-542.7164" rx="93.4765" ry="41.0911"/>
<text text-anchor="middle" x="210.0208" y="-555.3164" font-family="Times,serif" font-size="14.00" fill="#000000">LEFT JOIN samples</text>
<text text-anchor="middle" x="210.0208" y="-538.5164" font-family="Times,serif" font-size="14.00" fill="#000000">At level: 2</text>
<text text-anchor="middle" x="210.0208" y="-521.7164" font-family="Times,serif" font-size="14.00" fill="#000000">Required: true</text>
</g>
<!-- addresses__addID_addID__sites_where_Has_Rows&#45;&gt;sites__siteID_siteID__samples_join -->
<g id="edge5" class="edge">
<title>addresses__addID_addID__sites_where_Has_Rows&#45;&gt;sites__siteID_siteID__samples_join</title>
<path fill="none" stroke="#000000" d="M210.0208,-619.6376C210.0208,-612.3285 210.0208,-603.5189 210.0208,-594.5101"/>
<polygon fill="#000000" stroke="#000000" points="213.5209,-594.3235 210.0208,-584.3236 206.5209,-594.3236 213.5209,-594.3235"/>
</g>
<!-- sites__siteID_siteID__samples_join_Has_Rows -->
<g id="node7" class="node">
<title>sites__siteID_siteID__samples_join_Has_Rows</title>
<ellipse fill="none" stroke="#000000" cx="221.0208" cy="-447.4214" rx="47.4704" ry="18"/>
<text text-anchor="middle" x="221.0208" y="-443.2214" font-family="Times,serif" font-size="14.00" fill="#000000">Has rows</text>
</g>
<!-- sites__siteID_siteID__samples_join&#45;&gt;sites__siteID_siteID__samples_join_Has_Rows -->
<g id="edge6" class="edge">
<title>sites__siteID_siteID__samples_join&#45;&gt;sites__siteID_siteID__samples_join_Has_Rows</title>
<path fill="none" stroke="#000000" d="M214.7816,-501.4728C215.7828,-492.7989 216.8173,-483.8366 217.7491,-475.764"/>
<polygon fill="#000000" stroke="#000000" points="221.2337,-476.0989 218.9035,-465.7635 214.2798,-475.2961 221.2337,-476.0989"/>
</g>
<!-- sites__siteID_siteID__samples_join_No_Rows -->
<g id="node22" class="node">
<title>sites__siteID_siteID__samples_join_No_Rows</title>
<ellipse fill="none" stroke="#000000" cx="109.0208" cy="-447.4214" rx="44.0415" ry="18"/>
<text text-anchor="middle" x="109.0208" y="-443.2214" font-family="Times,serif" font-size="14.00" fill="#000000">No rows</text>
</g>
<!-- sites__siteID_siteID__samples_join&#45;&gt;sites__siteID_siteID__samples_join_No_Rows -->
<g id="edge25" class="edge">
<title>sites__siteID_siteID__samples_join&#45;&gt;sites__siteID_siteID__samples_join_No_Rows</title>
<path fill="none" stroke="#000000" d="M170.3928,-505.3268C158.2077,-493.83 145.1361,-481.4967 134.2011,-471.1794"/>
<polygon fill="#000000" stroke="#000000" points="136.3351,-468.3809 126.6596,-464.0639 131.5312,-473.4723 136.3351,-468.3809"/>
</g>
<!-- samples__siteID_siteID__sites_join -->
<g id="node8" class="node">
<title>samples__siteID_siteID__sites_join</title>
<ellipse fill="none" stroke="#000000" cx="221.0208" cy="-352.1263" rx="78.8882" ry="41.0911"/>
<text text-anchor="middle" x="221.0208" y="-364.7263" font-family="Times,serif" font-size="14.00" fill="#000000">LEFT JOIN sites</text>
<text text-anchor="middle" x="221.0208" y="-347.9263" font-family="Times,serif" font-size="14.00" fill="#000000">At level: 1</text>
<text text-anchor="middle" x="221.0208" y="-331.1263" font-family="Times,serif" font-size="14.00" fill="#000000">Required: true</text>
</g>
<!-- sites__siteID_siteID__samples_join_Has_Rows&#45;&gt;samples__siteID_siteID__sites_join -->
<g id="edge7" class="edge">
<title>sites__siteID_siteID__samples_join_Has_Rows&#45;&gt;samples__siteID_siteID__sites_join</title>
<path fill="none" stroke="#000000" d="M221.0208,-429.0475C221.0208,-421.7384 221.0208,-412.9288 221.0208,-403.92"/>
<polygon fill="#000000" stroke="#000000" points="224.5209,-403.7335 221.0208,-393.7335 217.5209,-403.7335 224.5209,-403.7335"/>
</g>
<!-- samples__dataID_dataID__datasets_join -->
<g id="node16" class="node">
<title>samples__dataID_dataID__datasets_join</title>
<ellipse fill="none" stroke="#000000" cx="415.0208" cy="-352.1263" rx="92.8656" ry="41.0911"/>
<text text-anchor="middle" x="415.0208" y="-364.7263" font-family="Times,serif" font-size="14.00" fill="#000000">LEFT JOIN datasets</text>
<text text-anchor="middle" x="415.0208" y="-347.9263" font-family="Times,serif" font-size="14.00" fill="#000000">At level: 1</text>
<text text-anchor="middle" x="415.0208" y="-331.1263" font-family="Times,serif" font-size="14.00" fill="#000000">Required: true</text>
</g>
<!-- sites__siteID_siteID__samples_join_Has_Rows&#45;&gt;samples__dataID_dataID__datasets_join -->
<g id="edge16" class="edge">
<title>sites__siteID_siteID__samples_join_Has_Rows&#45;&gt;samples__dataID_dataID__datasets_join</title>
<path fill="none" stroke="#000000" d="M250.0645,-433.1547C274.7022,-421.0524 311.0945,-403.1761 343.4327,-387.2912"/>
<polygon fill="#000000" stroke="#000000" points="345.0007,-390.4205 352.4332,-382.8701 341.9144,-384.1376 345.0007,-390.4205"/>
</g>
<!-- samples__siteID_siteID__sites_join_Has_Rows -->
<g id="node9" class="node">
<title>samples__siteID_siteID__sites_join_Has_Rows</title>
<ellipse fill="none" stroke="#000000" cx="256.0208" cy="-256.8313" rx="47.4704" ry="18"/>
<text text-anchor="middle" x="256.0208" y="-252.6313" font-family="Times,serif" font-size="14.00" fill="#000000">Has rows</text>
</g>
<!-- samples__siteID_siteID__sites_join&#45;&gt;samples__siteID_siteID__sites_join_Has_Rows -->
<g id="edge8" class="edge">
<title>samples__siteID_siteID__sites_join&#45;&gt;samples__siteID_siteID__sites_join_Has_Rows</title>
<path fill="none" stroke="#000000" d="M235.9654,-311.4362C239.2941,-302.3731 242.7489,-292.9668 245.8339,-284.5672"/>
<polygon fill="#000000" stroke="#000000" points="249.218,-285.505 249.3803,-274.9114 242.6472,-283.0916 249.218,-285.505"/>
</g>
<!-- samples__siteID_siteID__sites_join_No_Rows -->
<g id="node15" class="node">
<title>samples__siteID_siteID__sites_join_No_Rows</title>
<ellipse fill="none" stroke="#000000" cx="141.0208" cy="-173.4156" rx="44.0415" ry="18"/>
<text text-anchor="middle" x="141.0208" y="-169.2156" font-family="Times,serif" font-size="14.00" fill="#000000">No rows</text>
</g>
<!-- samples__siteID_siteID__sites_join&#45;&gt;samples__siteID_siteID__sites_join_No_Rows -->
<g id="edge14" class="edge">
<title>samples__siteID_siteID__sites_join&#45;&gt;samples__siteID_siteID__sites_join_No_Rows</title>
<path fill="none" stroke="#000000" d="M202.8675,-311.5741C187.7085,-277.7105 166.5107,-230.3572 153.2836,-200.8095"/>
<polygon fill="#000000" stroke="#000000" points="156.4041,-199.2139 149.1237,-191.5167 150.0151,-202.074 156.4041,-199.2139"/>
</g>
<!-- samples__siteID_siteID__sites_where -->
<g id="node10" class="node">
<title>samples__siteID_siteID__sites_where</title>
<ellipse fill="none" stroke="#000000" cx="295.0208" cy="-173.4156" rx="92.1488" ry="29.3315"/>
<text text-anchor="middle" x="295.0208" y="-177.6156" font-family="Times,serif" font-size="14.00" fill="#000000">WHERE</text>
<text text-anchor="middle" x="295.0208" y="-160.8156" font-family="Times,serif" font-size="14.00" fill="#000000">sites.siteID = &quot;HNJ&quot;</text>
</g>
<!-- samples__siteID_siteID__sites_join_Has_Rows&#45;&gt;samples__siteID_siteID__sites_where -->
<g id="edge9" class="edge">
<title>samples__siteID_siteID__sites_join_Has_Rows&#45;&gt;samples__siteID_siteID__sites_where</title>
<path fill="none" stroke="#000000" d="M264.4832,-238.7313C268.1796,-230.8251 272.6651,-221.2313 277.0471,-211.8588"/>
<polygon fill="#000000" stroke="#000000" points="280.2968,-213.1719 281.3616,-202.6307 273.9557,-210.2071 280.2968,-213.1719"/>
</g>
<!-- samples__siteID_siteID__sites_where_Has_Rows -->
<g id="node11" class="node">
<title>samples__siteID_siteID__sites_where_Has_Rows</title>
<ellipse fill="none" stroke="#000000" cx="596.0208" cy="-90" rx="47.4704" ry="18"/>
<text text-anchor="middle" x="596.0208" y="-85.8" font-family="Times,serif" font-size="14.00" fill="#000000">Has rows</text>
</g>
<!-- samples__siteID_siteID__sites_where&#45;&gt;samples__siteID_siteID__sites_where_Has_Rows -->
<g id="edge10" class="edge">
<title>samples__siteID_siteID__sites_where&#45;&gt;samples__siteID_siteID__sites_where_Has_Rows</title>
<path fill="none" stroke="#000000" d="M367.3801,-155.1112C416.2998,-142.4874 482.2616,-124.9821 540.0208,-108 543.4055,-107.0048 546.8965,-105.9505 550.4035,-104.871"/>
<polygon fill="#000000" stroke="#000000" points="551.7545,-108.1157 560.2542,-101.7907 549.6653,-101.4348 551.7545,-108.1157"/>
</g>
<!-- samples__siteID_siteID__sites_where_No_Rows -->
<g id="node13" class="node">
<title>samples__siteID_siteID__sites_where_No_Rows</title>
<ellipse fill="none" stroke="#000000" cx="257.0208" cy="-90" rx="44.0415" ry="18"/>
<text text-anchor="middle" x="257.0208" y="-85.8" font-family="Times,serif" font-size="14.00" fill="#000000">No rows</text>
</g>
<!-- samples__siteID_siteID__sites_where&#45;&gt;samples__siteID_siteID__sites_where_No_Rows -->
<g id="edge12" class="edge">
<title>samples__siteID_siteID__sites_where&#45;&gt;samples__siteID_siteID__sites_where_No_Rows</title>
<path fill="none" stroke="#000000" d="M281.7302,-144.2409C277.7493,-135.5023 273.3998,-125.9545 269.4749,-117.3387"/>
<polygon fill="#000000" stroke="#000000" points="272.5969,-115.7492 265.2662,-108.1 266.2268,-118.6512 272.5969,-115.7492"/>
</g>
<!-- granted -->
<g id="node12" class="node">
<title>granted</title>
<ellipse fill="none" stroke="#000000" cx="708.0208" cy="-18" rx="71.7874" ry="18"/>
<text text-anchor="middle" x="708.0208" y="-13.8" font-family="Times,serif" font-size="14.00" fill="#000000">Access Granted</text>
</g>
<!-- samples__siteID_siteID__sites_where_Has_Rows&#45;&gt;granted -->
<g id="edge11" class="edge">
<title>samples__siteID_siteID__sites_where_Has_Rows&#45;&gt;granted</title>
<path fill="none" stroke="#000000" d="M620.3231,-74.3771C635.7728,-64.4451 656.022,-51.4278 673.1699,-40.4041"/>
<polygon fill="#000000" stroke="#000000" points="675.2934,-43.1999 681.8126,-34.8481 671.5081,-37.3116 675.2934,-43.1999"/>
</g>
<!-- denied -->
<g id="node14" class="node">
<title>denied</title>
<ellipse fill="none" stroke="#000000" cx="180.0208" cy="-18" rx="68.8581" ry="18"/>
<text text-anchor="middle" x="180.0208" y="-13.8" font-family="Times,serif" font-size="14.00" fill="#000000">Access Denied</text>
</g>
<!-- samples__siteID_siteID__sites_where_No_Rows&#45;&gt;denied -->
<g id="edge13" class="edge">
<title>samples__siteID_siteID__sites_where_No_Rows&#45;&gt;denied</title>
<path fill="none" stroke="#000000" d="M239.1619,-73.3008C229.3664,-64.1414 217.0401,-52.6154 206.1791,-42.4597"/>
<polygon fill="#000000" stroke="#000000" points="208.2815,-39.6338 198.5867,-35.3603 203.5005,-44.7468 208.2815,-39.6338"/>
</g>
<!-- samples__siteID_siteID__sites_join_No_Rows&#45;&gt;denied -->
<g id="edge15" class="edge">
<title>samples__siteID_siteID__sites_join_No_Rows&#45;&gt;denied</title>
<path fill="none" stroke="#000000" d="M145.5709,-155.2833C152.3226,-128.3778 165.05,-77.6589 173.0016,-45.9715"/>
<polygon fill="#000000" stroke="#000000" points="176.4604,-46.568 175.4996,-36.0168 169.6709,-44.8642 176.4604,-46.568"/>
</g>
<!-- samples__dataID_dataID__datasets_join_Has_Rows -->
<g id="node17" class="node">
<title>samples__dataID_dataID__datasets_join_Has_Rows</title>
<ellipse fill="none" stroke="#000000" cx="598.0208" cy="-256.8313" rx="47.4704" ry="18"/>
<text text-anchor="middle" x="598.0208" y="-252.6313" font-family="Times,serif" font-size="14.00" fill="#000000">Has rows</text>
</g>
<!-- samples__dataID_dataID__datasets_join&#45;&gt;samples__dataID_dataID__datasets_join_Has_Rows -->
<g id="edge17" class="edge">
<title>samples__dataID_dataID__datasets_join&#45;&gt;samples__dataID_dataID__datasets_join_Has_Rows</title>
<path fill="none" stroke="#000000" d="M475.449,-320.6591C503.6975,-305.949 536.4296,-288.9042 560.9594,-276.1305"/>
<polygon fill="#000000" stroke="#000000" points="562.6797,-279.1809 569.9327,-271.4578 559.4466,-272.9722 562.6797,-279.1809"/>
</g>
<!-- samples__dataID_dataID__datasets_join_No_Rows -->
<g id="node21" class="node">
<title>samples__dataID_dataID__datasets_join_No_Rows</title>
<ellipse fill="none" stroke="#000000" cx="415.0208" cy="-256.8313" rx="44.0415" ry="18"/>
<text text-anchor="middle" x="415.0208" y="-252.6313" font-family="Times,serif" font-size="14.00" fill="#000000">No rows</text>
</g>
<!-- samples__dataID_dataID__datasets_join&#45;&gt;samples__dataID_dataID__datasets_join_No_Rows -->
<g id="edge23" class="edge">
<title>samples__dataID_dataID__datasets_join&#45;&gt;samples__dataID_dataID__datasets_join_No_Rows</title>
<path fill="none" stroke="#000000" d="M415.0208,-310.6057C415.0208,-302.0541 415.0208,-293.2347 415.0208,-285.2742"/>
<polygon fill="#000000" stroke="#000000" points="418.5209,-285.0572 415.0208,-275.0572 411.5209,-285.0572 418.5209,-285.0572"/>
</g>
<!-- samples__dataID_dataID__datasets_where -->
<g id="node18" class="node">
<title>samples__dataID_dataID__datasets_where</title>
<ellipse fill="none" stroke="#000000" cx="672.0208" cy="-173.4156" rx="228.5204" ry="29.3315"/>
<text text-anchor="middle" x="672.0208" y="-177.6156" font-family="Times,serif" font-size="14.00" fill="#000000">WHERE IN</text>
<text text-anchor="middle" x="672.0208" y="-160.8156" font-family="Times,serif" font-size="14.00" fill="#000000">datasets.dataID = [&quot;NML&#45;WWPCR&quot;,&quot;NML&#45;WWGX&quot;]</text>
</g>
<!-- samples__dataID_dataID__datasets_join_Has_Rows&#45;&gt;samples__dataID_dataID__datasets_where -->
<g id="edge18" class="edge">
<title>samples__dataID_dataID__datasets_join_Has_Rows&#45;&gt;samples__dataID_dataID__datasets_where</title>
<path fill="none" stroke="#000000" d="M613.3536,-239.5475C620.8428,-231.1054 630.1606,-220.6021 639.1492,-210.4697"/>
<polygon fill="#000000" stroke="#000000" points="641.9049,-212.6374 645.923,-202.834 636.6685,-207.992 641.9049,-212.6374"/>
</g>
<!-- samples__dataID_dataID__datasets_where_Has_Rows -->
<g id="node19" class="node">
<title>samples__dataID_dataID__datasets_where_Has_Rows</title>
<ellipse fill="none" stroke="#000000" cx="708.0208" cy="-90" rx="47.4704" ry="18"/>
<text text-anchor="middle" x="708.0208" y="-85.8" font-family="Times,serif" font-size="14.00" fill="#000000">Has rows</text>
</g>
<!-- samples__dataID_dataID__datasets_where&#45;&gt;samples__dataID_dataID__datasets_where_Has_Rows -->
<g id="edge19" class="edge">
<title>samples__dataID_dataID__datasets_where&#45;&gt;samples__dataID_dataID__datasets_where_Has_Rows</title>
<path fill="none" stroke="#000000" d="M684.8144,-143.7715C688.533,-135.1551 692.576,-125.7872 696.2299,-117.3206"/>
<polygon fill="#000000" stroke="#000000" points="699.5488,-118.4631 700.2979,-107.8947 693.1218,-115.6893 699.5488,-118.4631"/>
</g>
<!-- samples__dataID_dataID__datasets_where_No_Rows -->
<g id="node20" class="node">
<title>samples__dataID_dataID__datasets_where_No_Rows</title>
<ellipse fill="none" stroke="#000000" cx="487.0208" cy="-90" rx="44.0415" ry="18"/>
<text text-anchor="middle" x="487.0208" y="-85.8" font-family="Times,serif" font-size="14.00" fill="#000000">No rows</text>
</g>
<!-- samples__dataID_dataID__datasets_where&#45;&gt;samples__dataID_dataID__datasets_where_No_Rows -->
<g id="edge21" class="edge">
<title>samples__dataID_dataID__datasets_where&#45;&gt;samples__dataID_dataID__datasets_where_No_Rows</title>
<path fill="none" stroke="#000000" d="M609.1301,-145.0585C581.5727,-132.633 550.0959,-118.4403 526.003,-107.5769"/>
<polygon fill="#000000" stroke="#000000" points="527.3801,-104.3585 516.8253,-103.4387 524.5028,-110.7399 527.3801,-104.3585"/>
</g>
<!-- samples__dataID_dataID__datasets_where_Has_Rows&#45;&gt;granted -->
<g id="edge20" class="edge">
<title>samples__dataID_dataID__datasets_where_Has_Rows&#45;&gt;granted</title>
<path fill="none" stroke="#000000" d="M708.0208,-71.8314C708.0208,-64.131 708.0208,-54.9743 708.0208,-46.4166"/>
<polygon fill="#000000" stroke="#000000" points="711.5209,-46.4132 708.0208,-36.4133 704.5209,-46.4133 711.5209,-46.4132"/>
</g>
<!-- samples__dataID_dataID__datasets_where_No_Rows&#45;&gt;denied -->
<g id="edge22" class="edge">
<title>samples__dataID_dataID__datasets_where_No_Rows&#45;&gt;denied</title>
<path fill="none" stroke="#000000" d="M452.5068,-78.7466C444.8126,-76.3897 436.668,-74.0117 429.0208,-72 367.3879,-55.7863 296.2613,-40.7189 245.8481,-30.6429"/>
<polygon fill="#000000" stroke="#000000" points="246.224,-27.1492 235.7335,-28.6327 244.8594,-34.0149 246.224,-27.1492"/>
</g>
<!-- samples__dataID_dataID__datasets_join_No_Rows&#45;&gt;denied -->
<g id="edge24" class="edge">
<title>samples__dataID_dataID__datasets_join_No_Rows&#45;&gt;denied</title>
<path fill="none" stroke="#000000" d="M415.7104,-238.749C415.8064,-215.3378 413.2041,-173.9904 396.0208,-144 362.5652,-85.6095 290.4309,-51.7343 238.7244,-34.0941"/>
<polygon fill="#000000" stroke="#000000" points="239.5906,-30.6944 228.9974,-30.8836 237.3965,-37.3416 239.5906,-30.6944"/>
</g>
<!-- sites__siteID_siteID__samples_join_No_Rows&#45;&gt;denied -->
<g id="edge26" class="edge">
<title>sites__siteID_siteID__samples_join_No_Rows&#45;&gt;denied</title>
<path fill="none" stroke="#000000" d="M102.6826,-429.5519C91.4037,-396.106 69.0208,-321.5763 69.0208,-256.8313 69.0208,-256.8313 69.0208,-256.8313 69.0208,-173.4156 69.0208,-118.2429 115.9174,-69.1322 148.7456,-41.513"/>
<polygon fill="#000000" stroke="#000000" points="151.2277,-44.0045 156.7515,-34.9636 146.7953,-38.5864 151.2277,-44.0045"/>
</g>
<!-- addresses__addID_addID__sites_where_No_Rows&#45;&gt;denied -->
<g id="edge28" class="edge">
<title>addresses__addID_addID__sites_where_No_Rows&#45;&gt;denied</title>
<path fill="none" stroke="#000000" d="M41.9609,-524.6121C38.2952,-490.7796 31.0208,-415.6381 31.0208,-352.1263 31.0208,-352.1263 31.0208,-352.1263 31.0208,-173.4156 31.0208,-121.9269 51.0071,-108.7982 87.0208,-72 100.4632,-58.2647 118.1319,-46.8444 134.4546,-38.0981"/>
<polygon fill="#000000" stroke="#000000" points="136.0619,-41.2073 143.349,-33.5165 132.8563,-34.9844 136.0619,-41.2073"/>
</g>
<!-- addresses__addID_addID__sites_join_No_Rows&#45;&gt;granted -->
<g id="edge30" class="edge">
<title>addresses__addID_addID__sites_join_No_Rows&#45;&gt;granted</title>
<path fill="none" stroke="#000000" d="M870.065,-704.0772C890.3216,-673.152 929.0208,-605.8142 929.0208,-542.7164 929.0208,-542.7164 929.0208,-542.7164 929.0208,-173.4156 929.0208,-95.4505 835.8532,-53.2098 770.5029,-33.1707"/>
<polygon fill="#000000" stroke="#000000" points="771.2573,-29.7439 760.675,-30.2583 769.2684,-36.4554 771.2573,-29.7439"/>
</g>
</g>
</svg>
