<?xml version="1.0" encoding="UTF-8" standalone="no"?>
<!DOCTYPE svg PUBLIC "-//W3C//DTD SVG 1.1//EN"
 "http://www.w3.org/Graphics/SVG/1.1/DTD/svg11.dtd">
<!-- Generated by graphviz version 2.40.1 (20161225.0304)
 -->
<!-- Title: G Pages: 1 -->
<svg width="1060pt" height="473pt"
 viewBox="0.00 0.00 1060.43 473.42" xmlns="http://www.w3.org/2000/svg" xmlns:xlink="http://www.w3.org/1999/xlink">
<g id="graph0" class="graph" transform="scale(1 1) rotate(0) translate(4 469.4214)">
<title>G</title>
<polygon fill="#ffffff" stroke="transparent" points="-4,4 -4,-469.4214 1056.4283,-469.4214 1056.4283,4 -4,4"/>
<!-- allSites -->
<g id="node1" class="node">
<title>allSites</title>
<ellipse fill="none" stroke="#000000" cx="588.4075" cy="-447.4214" rx="39.437" ry="18"/>
<text text-anchor="middle" x="588.4075" y="-443.2214" font-family="Times,serif" font-size="14.00" fill="#000000">allSites</text>
</g>
<!-- allSites__dataID_dataID__datasets_join -->
<g id="node2" class="node">
<title>allSites__dataID_dataID__datasets_join</title>
<ellipse fill="none" stroke="#000000" cx="717.4075" cy="-352.1263" rx="92.8656" ry="41.0911"/>
<text text-anchor="middle" x="717.4075" y="-364.7263" font-family="Times,serif" font-size="14.00" fill="#000000">LEFT JOIN datasets</text>
<text text-anchor="middle" x="717.4075" y="-347.9263" font-family="Times,serif" font-size="14.00" fill="#000000">At level: 1</text>
<text text-anchor="middle" x="717.4075" y="-331.1263" font-family="Times,serif" font-size="14.00" fill="#000000">Required: true</text>
</g>
<!-- allSites&#45;&gt;allSites__dataID_dataID__datasets_join -->
<g id="edge1" class="edge">
<title>allSites&#45;&gt;allSites__dataID_dataID__datasets_join</title>
<path fill="none" stroke="#000000" d="M609.4207,-431.8985C623.4747,-421.5165 642.6846,-407.3257 661.0083,-393.7896"/>
<polygon fill="#000000" stroke="#000000" points="663.3796,-396.3894 669.3433,-387.6324 659.2203,-390.759 663.3796,-396.3894"/>
</g>
<!-- allSites__healthReg_healthReg__sites_join -->
<g id="node10" class="node">
<title>allSites__healthReg_healthReg__sites_join</title>
<ellipse fill="none" stroke="#000000" cx="460.4075" cy="-352.1263" rx="78.8882" ry="41.0911"/>
<text text-anchor="middle" x="460.4075" y="-364.7263" font-family="Times,serif" font-size="14.00" fill="#000000">LEFT JOIN sites</text>
<text text-anchor="middle" x="460.4075" y="-347.9263" font-family="Times,serif" font-size="14.00" fill="#000000">At level: 1</text>
<text text-anchor="middle" x="460.4075" y="-331.1263" font-family="Times,serif" font-size="14.00" fill="#000000">Required: true</text>
</g>
<!-- allSites&#45;&gt;allSites__healthReg_healthReg__sites_join -->
<g id="edge10" class="edge">
<title>allSites&#45;&gt;allSites__healthReg_healthReg__sites_join</title>
<path fill="none" stroke="#000000" d="M567.5572,-431.8985C553.0557,-421.1022 533.0217,-406.187 514.1974,-392.1725"/>
<polygon fill="#000000" stroke="#000000" points="516.053,-389.1905 505.9417,-386.0262 511.8728,-394.8053 516.053,-389.1905"/>
</g>
<!-- allSites__dataID_dataID__datasets_join_Has_Rows -->
<g id="node3" class="node">
<title>allSites__dataID_dataID__datasets_join_Has_Rows</title>
<ellipse fill="none" stroke="#000000" cx="717.4075" cy="-256.8313" rx="47.4704" ry="18"/>
<text text-anchor="middle" x="717.4075" y="-252.6313" font-family="Times,serif" font-size="14.00" fill="#000000">Has rows</text>
</g>
<!-- allSites__dataID_dataID__datasets_join&#45;&gt;allSites__dataID_dataID__datasets_join_Has_Rows -->
<g id="edge2" class="edge">
<title>allSites__dataID_dataID__datasets_join&#45;&gt;allSites__dataID_dataID__datasets_join_Has_Rows</title>
<path fill="none" stroke="#000000" d="M717.4075,-310.6057C717.4075,-302.0541 717.4075,-293.2347 717.4075,-285.2742"/>
<polygon fill="#000000" stroke="#000000" points="720.9076,-285.0572 717.4075,-275.0572 713.9076,-285.0572 720.9076,-285.0572"/>
</g>
<!-- allSites__dataID_dataID__datasets_join_No_Rows -->
<g id="node9" class="node">
<title>allSites__dataID_dataID__datasets_join_No_Rows</title>
<ellipse fill="none" stroke="#000000" cx="1008.4075" cy="-173.4156" rx="44.0415" ry="18"/>
<text text-anchor="middle" x="1008.4075" y="-169.2156" font-family="Times,serif" font-size="14.00" fill="#000000">No rows</text>
</g>
<!-- allSites__dataID_dataID__datasets_join&#45;&gt;allSites__dataID_dataID__datasets_join_No_Rows -->
<g id="edge8" class="edge">
<title>allSites__dataID_dataID__datasets_join&#45;&gt;allSites__dataID_dataID__datasets_join_No_Rows</title>
<path fill="none" stroke="#000000" d="M772.1424,-318.5122C831.8147,-281.8659 925.3992,-224.3932 974.981,-193.9437"/>
<polygon fill="#000000" stroke="#000000" points="977.0191,-196.7995 983.7088,-188.5837 973.3558,-190.8345 977.0191,-196.7995"/>
</g>
<!-- allSites__dataID_dataID__datasets_where -->
<g id="node4" class="node">
<title>allSites__dataID_dataID__datasets_where</title>
<ellipse fill="none" stroke="#000000" cx="717.4075" cy="-173.4156" rx="228.5204" ry="29.3315"/>
<text text-anchor="middle" x="717.4075" y="-177.6156" font-family="Times,serif" font-size="14.00" fill="#000000">WHERE IN</text>
<text text-anchor="middle" x="717.4075" y="-160.8156" font-family="Times,serif" font-size="14.00" fill="#000000">datasets.dataID = [&quot;NML&#45;WWPCR&quot;,&quot;NML&#45;WWGX&quot;]</text>
</g>
<!-- allSites__dataID_dataID__datasets_join_Has_Rows&#45;&gt;allSites__dataID_dataID__datasets_where -->
<g id="edge3" class="edge">
<title>allSites__dataID_dataID__datasets_join_Has_Rows&#45;&gt;allSites__dataID_dataID__datasets_where</title>
<path fill="none" stroke="#000000" d="M717.4075,-238.7313C717.4075,-231.1418 717.4075,-221.9972 717.4075,-212.986"/>
<polygon fill="#000000" stroke="#000000" points="720.9076,-212.9587 717.4075,-202.9588 713.9076,-212.9588 720.9076,-212.9587"/>
</g>
<!-- allSites__dataID_dataID__datasets_where_Has_Rows -->
<g id="node5" class="node">
<title>allSites__dataID_dataID__datasets_where_Has_Rows</title>
<ellipse fill="none" stroke="#000000" cx="385.4075" cy="-90" rx="47.4704" ry="18"/>
<text text-anchor="middle" x="385.4075" y="-85.8" font-family="Times,serif" font-size="14.00" fill="#000000">Has rows</text>
</g>
<!-- allSites__dataID_dataID__datasets_where&#45;&gt;allSites__dataID_dataID__datasets_where_Has_Rows -->
<g id="edge4" class="edge">
<title>allSites__dataID_dataID__datasets_where&#45;&gt;allSites__dataID_dataID__datasets_where_Has_Rows</title>
<path fill="none" stroke="#000000" d="M612.8163,-147.1369C553.3185,-132.188 481.5687,-114.1607 434.7884,-102.407"/>
<polygon fill="#000000" stroke="#000000" points="435.4603,-98.9672 424.9089,-99.9248 433.7545,-105.7561 435.4603,-98.9672"/>
</g>
<!-- allSites__dataID_dataID__datasets_where_No_Rows -->
<g id="node7" class="node">
<title>allSites__dataID_dataID__datasets_where_No_Rows</title>
<ellipse fill="none" stroke="#000000" cx="624.4075" cy="-90" rx="44.0415" ry="18"/>
<text text-anchor="middle" x="624.4075" y="-85.8" font-family="Times,serif" font-size="14.00" fill="#000000">No rows</text>
</g>
<!-- allSites__dataID_dataID__datasets_where&#45;&gt;allSites__dataID_dataID__datasets_where_No_Rows -->
<g id="edge6" class="edge">
<title>allSites__dataID_dataID__datasets_where&#45;&gt;allSites__dataID_dataID__datasets_where_No_Rows</title>
<path fill="none" stroke="#000000" d="M684.8806,-144.2409C673.5002,-134.0334 660.8889,-122.7217 650.1406,-113.0811"/>
<polygon fill="#000000" stroke="#000000" points="652.4689,-110.4679 642.6877,-106.3963 647.7949,-115.6788 652.4689,-110.4679"/>
</g>
<!-- granted -->
<g id="node6" class="node">
<title>granted</title>
<ellipse fill="none" stroke="#000000" cx="309.4075" cy="-18" rx="71.7874" ry="18"/>
<text text-anchor="middle" x="309.4075" y="-13.8" font-family="Times,serif" font-size="14.00" fill="#000000">Access Granted</text>
</g>
<!-- allSites__dataID_dataID__datasets_where_Has_Rows&#45;&gt;granted -->
<g id="edge5" class="edge">
<title>allSites__dataID_dataID__datasets_where_Has_Rows&#45;&gt;granted</title>
<path fill="none" stroke="#000000" d="M367.3965,-72.937C357.789,-63.8352 345.7984,-52.4756 335.2179,-42.4519"/>
<polygon fill="#000000" stroke="#000000" points="337.4838,-39.7773 327.8171,-35.4407 332.6695,-44.859 337.4838,-39.7773"/>
</g>
<!-- denied -->
<g id="node8" class="node">
<title>denied</title>
<ellipse fill="none" stroke="#000000" cx="535.4075" cy="-18" rx="68.8581" ry="18"/>
<text text-anchor="middle" x="535.4075" y="-13.8" font-family="Times,serif" font-size="14.00" fill="#000000">Access Denied</text>
</g>
<!-- allSites__dataID_dataID__datasets_where_No_Rows&#45;&gt;denied -->
<g id="edge7" class="edge">
<title>allSites__dataID_dataID__datasets_where_No_Rows&#45;&gt;denied</title>
<path fill="none" stroke="#000000" d="M604.212,-73.6621C592.4898,-64.179 577.5219,-52.0701 564.5421,-41.5696"/>
<polygon fill="#000000" stroke="#000000" points="566.7399,-38.8457 556.7641,-35.2773 562.3373,-44.2879 566.7399,-38.8457"/>
</g>
<!-- allSites__dataID_dataID__datasets_join_No_Rows&#45;&gt;denied -->
<g id="edge9" class="edge">
<title>allSites__dataID_dataID__datasets_join_No_Rows&#45;&gt;denied</title>
<path fill="none" stroke="#000000" d="M983.8875,-158.3627C975.1083,-153.3645 965.0072,-148.0482 955.4075,-144 832.2243,-92.054 680.4041,-52.0841 597.2023,-32.1038"/>
<polygon fill="#000000" stroke="#000000" points="597.9416,-28.682 587.4025,-29.7668 596.3178,-35.491 597.9416,-28.682"/>
</g>
<!-- allSites__healthReg_healthReg__sites_join_Has_Rows -->
<g id="node11" class="node">
<title>allSites__healthReg_healthReg__sites_join_Has_Rows</title>
<ellipse fill="none" stroke="#000000" cx="284.4075" cy="-256.8313" rx="47.4704" ry="18"/>
<text text-anchor="middle" x="284.4075" y="-252.6313" font-family="Times,serif" font-size="14.00" fill="#000000">Has rows</text>
</g>
<!-- allSites__healthReg_healthReg__sites_join&#45;&gt;allSites__healthReg_healthReg__sites_join_Has_Rows -->
<g id="edge11" class="edge">
<title>allSites__healthReg_healthReg__sites_join&#45;&gt;allSites__healthReg_healthReg__sites_join_Has_Rows</title>
<path fill="none" stroke="#000000" d="M405.2029,-322.2358C377.6706,-307.3285 345.1403,-289.715 320.778,-276.524"/>
<polygon fill="#000000" stroke="#000000" points="322.3284,-273.3835 311.8682,-271.6999 318.9955,-279.5391 322.3284,-273.3835"/>
</g>
<!-- allSites__healthReg_healthReg__sites_join_No_Rows -->
<g id="node15" class="node">
<title>allSites__healthReg_healthReg__sites_join_No_Rows</title>
<ellipse fill="none" stroke="#000000" cx="460.4075" cy="-256.8313" rx="44.0415" ry="18"/>
<text text-anchor="middle" x="460.4075" y="-252.6313" font-family="Times,serif" font-size="14.00" fill="#000000">No rows</text>
</g>
<!-- allSites__healthReg_healthReg__sites_join&#45;&gt;allSites__healthReg_healthReg__sites_join_No_Rows -->
<g id="edge17" class="edge">
<title>allSites__healthReg_healthReg__sites_join&#45;&gt;allSites__healthReg_healthReg__sites_join_No_Rows</title>
<path fill="none" stroke="#000000" d="M460.4075,-310.6057C460.4075,-302.0541 460.4075,-293.2347 460.4075,-285.2742"/>
<polygon fill="#000000" stroke="#000000" points="463.9076,-285.0572 460.4075,-275.0572 456.9076,-285.0572 463.9076,-285.0572"/>
</g>
<!-- allSites__healthReg_healthReg__sites_where -->
<g id="node12" class="node">
<title>allSites__healthReg_healthReg__sites_where</title>
<ellipse fill="none" stroke="#000000" cx="216.4075" cy="-173.4156" rx="216.315" ry="29.3315"/>
<text text-anchor="middle" x="216.4075" y="-177.6156" font-family="Times,serif" font-size="14.00" fill="#000000">WHERE IN</text>
<text text-anchor="middle" x="216.4075" y="-160.8156" font-family="Times,serif" font-size="14.00" fill="#000000">sites.healthReg = [&quot;Whitehorse&quot;,&quot;Haines Junction&quot;]</text>
</g>
<!-- allSites__healthReg_healthReg__sites_join_Has_Rows&#45;&gt;allSites__healthReg_healthReg__sites_where -->
<g id="edge12" class="edge">
<title>allSites__healthReg_healthReg__sites_join_Has_Rows&#45;&gt;allSites__healthReg_healthReg__sites_where</title>
<path fill="none" stroke="#000000" d="M270.3178,-239.5475C263.5034,-231.1882 255.0413,-220.8078 246.8568,-210.7678"/>
<polygon fill="#000000" stroke="#000000" points="249.4206,-208.3735 240.3892,-202.834 243.9949,-212.7965 249.4206,-208.3735"/>
</g>
<!-- allSites__healthReg_healthReg__sites_where_Has_Rows -->
<g id="node13" class="node">
<title>allSites__healthReg_healthReg__sites_where_Has_Rows</title>
<ellipse fill="none" stroke="#000000" cx="167.4075" cy="-90" rx="47.4704" ry="18"/>
<text text-anchor="middle" x="167.4075" y="-85.8" font-family="Times,serif" font-size="14.00" fill="#000000">Has rows</text>
</g>
<!-- allSites__healthReg_healthReg__sites_where&#45;&gt;allSites__healthReg_healthReg__sites_where_Has_Rows -->
<g id="edge13" class="edge">
<title>allSites__healthReg_healthReg__sites_where&#45;&gt;allSites__healthReg_healthReg__sites_where_Has_Rows</title>
<path fill="none" stroke="#000000" d="M198.9939,-143.7715C193.8225,-134.9678 188.1901,-125.3795 183.1326,-116.7697"/>
<polygon fill="#000000" stroke="#000000" points="186.0021,-114.7444 177.9192,-107.8947 179.9664,-118.2899 186.0021,-114.7444"/>
</g>
<!-- allSites__healthReg_healthReg__sites_where_No_Rows -->
<g id="node14" class="node">
<title>allSites__healthReg_healthReg__sites_where_No_Rows</title>
<ellipse fill="none" stroke="#000000" cx="276.4075" cy="-90" rx="44.0415" ry="18"/>
<text text-anchor="middle" x="276.4075" y="-85.8" font-family="Times,serif" font-size="14.00" fill="#000000">No rows</text>
</g>
<!-- allSites__healthReg_healthReg__sites_where&#45;&gt;allSites__healthReg_healthReg__sites_where_No_Rows -->
<g id="edge15" class="edge">
<title>allSites__healthReg_healthReg__sites_where&#45;&gt;allSites__healthReg_healthReg__sites_where_No_Rows</title>
<path fill="none" stroke="#000000" d="M237.7302,-143.7715C244.3668,-134.5449 251.6233,-124.4565 258.0398,-115.5359"/>
<polygon fill="#000000" stroke="#000000" points="260.8886,-117.5692 263.8866,-107.4073 255.206,-113.4817 260.8886,-117.5692"/>
</g>
<!-- allSites__healthReg_healthReg__sites_where_Has_Rows&#45;&gt;granted -->
<g id="edge14" class="edge">
<title>allSites__healthReg_healthReg__sites_where_Has_Rows&#45;&gt;granted</title>
<path fill="none" stroke="#000000" d="M195.802,-75.6028C216.5943,-65.0602 245.1224,-50.5952 268.3888,-38.7982"/>
<polygon fill="#000000" stroke="#000000" points="270.0094,-41.9008 277.3455,-34.2568 266.8437,-35.6575 270.0094,-41.9008"/>
</g>
<!-- allSites__healthReg_healthReg__sites_where_No_Rows&#45;&gt;denied -->
<g id="edge16" class="edge">
<title>allSites__healthReg_healthReg__sites_where_No_Rows&#45;&gt;denied</title>
<path fill="none" stroke="#000000" d="M309.9367,-78.2118C316.3731,-76.0628 323.079,-73.9015 329.4075,-72 377.9838,-57.4045 433.656,-42.9445 474.8686,-32.6663"/>
<polygon fill="#000000" stroke="#000000" points="475.8939,-36.018 484.7559,-30.2114 474.2071,-29.2243 475.8939,-36.018"/>
</g>
<!-- allSites__healthReg_healthReg__sites_join_No_Rows&#45;&gt;denied -->
<g id="edge18" class="edge">
<title>allSites__healthReg_healthReg__sites_join_No_Rows&#45;&gt;denied</title>
<path fill="none" stroke="#000000" d="M462.0607,-238.5317C464.4252,-215.9422 469.612,-176.5254 479.4075,-144 490.0582,-108.635 508.212,-70.1305 520.9561,-45.1167"/>
<polygon fill="#000000" stroke="#000000" points="524.0692,-46.7161 525.5486,-36.2251 517.8498,-43.5038 524.0692,-46.7161"/>
</g>
</g>
</svg>
