<?xml version="1.0" encoding="UTF-8" standalone="no"?>
<!DOCTYPE svg PUBLIC "-//W3C//DTD SVG 1.1//EN"
 "http://www.w3.org/Graphics/SVG/1.1/DTD/svg11.dtd">
<!-- Generated by graphviz version 2.40.1 (20161225.0304)
 -->
<!-- Title: G Pages: 1 -->
<svg width="994pt" height="473pt"
 viewBox="0.00 0.00 993.62 473.42" xmlns="http://www.w3.org/2000/svg" xmlns:xlink="http://www.w3.org/1999/xlink">
<g id="graph0" class="graph" transform="scale(1 1) rotate(0) translate(4 469.4214)">
<title>G</title>
<polygon fill="#ffffff" stroke="transparent" points="-4,4 -4,-469.4214 989.6215,-469.4214 989.6215,4 -4,4"/>
<!-- allSitesAdj -->
<g id="node1" class="node">
<title>allSitesAdj</title>
<ellipse fill="none" stroke="#000000" cx="521.6007" cy="-447.4214" rx="53.904" ry="18"/>
<text text-anchor="middle" x="521.6007" y="-443.2214" font-family="Times,serif" font-size="14.00" fill="#000000">allSitesAdj</text>
</g>
<!-- allSitesAdj__dataID_dataID__datasets_join -->
<g id="node2" class="node">
<title>allSitesAdj__dataID_dataID__datasets_join</title>
<ellipse fill="none" stroke="#000000" cx="650.6007" cy="-352.1263" rx="92.8656" ry="41.0911"/>
<text text-anchor="middle" x="650.6007" y="-364.7263" font-family="Times,serif" font-size="14.00" fill="#000000">LEFT JOIN datasets</text>
<text text-anchor="middle" x="650.6007" y="-347.9263" font-family="Times,serif" font-size="14.00" fill="#000000">At level: 1</text>
<text text-anchor="middle" x="650.6007" y="-331.1263" font-family="Times,serif" font-size="14.00" fill="#000000">Required: true</text>
</g>
<!-- allSitesAdj&#45;&gt;allSitesAdj__dataID_dataID__datasets_join -->
<g id="edge1" class="edge">
<title>allSitesAdj&#45;&gt;allSitesAdj__dataID_dataID__datasets_join</title>
<path fill="none" stroke="#000000" d="M544.0708,-430.8222C558.0304,-420.51 576.6422,-406.761 594.4005,-393.6426"/>
<polygon fill="#000000" stroke="#000000" points="596.5162,-396.4312 602.4799,-387.6742 592.3569,-390.8008 596.5162,-396.4312"/>
</g>
<!-- allSitesAdj__healthReg_healthReg__sites_join -->
<g id="node10" class="node">
<title>allSitesAdj__healthReg_healthReg__sites_join</title>
<ellipse fill="none" stroke="#000000" cx="393.6007" cy="-352.1263" rx="78.8882" ry="41.0911"/>
<text text-anchor="middle" x="393.6007" y="-364.7263" font-family="Times,serif" font-size="14.00" fill="#000000">LEFT JOIN sites</text>
<text text-anchor="middle" x="393.6007" y="-347.9263" font-family="Times,serif" font-size="14.00" fill="#000000">At level: 1</text>
<text text-anchor="middle" x="393.6007" y="-331.1263" font-family="Times,serif" font-size="14.00" fill="#000000">Required: true</text>
</g>
<!-- allSitesAdj&#45;&gt;allSitesAdj__healthReg_healthReg__sites_join -->
<g id="edge10" class="edge">
<title>allSitesAdj&#45;&gt;allSitesAdj__healthReg_healthReg__sites_join</title>
<path fill="none" stroke="#000000" d="M499.3048,-430.8222C484.9565,-420.14 465.6549,-405.7701 447.4724,-392.2334"/>
<polygon fill="#000000" stroke="#000000" points="449.3301,-389.253 439.2188,-386.0886 445.1499,-394.8678 449.3301,-389.253"/>
</g>
<!-- allSitesAdj__dataID_dataID__datasets_join_Has_Rows -->
<g id="node3" class="node">
<title>allSitesAdj__dataID_dataID__datasets_join_Has_Rows</title>
<ellipse fill="none" stroke="#000000" cx="650.6007" cy="-256.8313" rx="47.4704" ry="18"/>
<text text-anchor="middle" x="650.6007" y="-252.6313" font-family="Times,serif" font-size="14.00" fill="#000000">Has rows</text>
</g>
<!-- allSitesAdj__dataID_dataID__datasets_join&#45;&gt;allSitesAdj__dataID_dataID__datasets_join_Has_Rows -->
<g id="edge2" class="edge">
<title>allSitesAdj__dataID_dataID__datasets_join&#45;&gt;allSitesAdj__dataID_dataID__datasets_join_Has_Rows</title>
<path fill="none" stroke="#000000" d="M650.6007,-310.6057C650.6007,-302.0541 650.6007,-293.2347 650.6007,-285.2742"/>
<polygon fill="#000000" stroke="#000000" points="654.1008,-285.0572 650.6007,-275.0572 647.1008,-285.0572 654.1008,-285.0572"/>
</g>
<!-- allSitesAdj__dataID_dataID__datasets_join_No_Rows -->
<g id="node9" class="node">
<title>allSitesAdj__dataID_dataID__datasets_join_No_Rows</title>
<ellipse fill="none" stroke="#000000" cx="941.6007" cy="-173.4156" rx="44.0415" ry="18"/>
<text text-anchor="middle" x="941.6007" y="-169.2156" font-family="Times,serif" font-size="14.00" fill="#000000">No rows</text>
</g>
<!-- allSitesAdj__dataID_dataID__datasets_join&#45;&gt;allSitesAdj__dataID_dataID__datasets_join_No_Rows -->
<g id="edge8" class="edge">
<title>allSitesAdj__dataID_dataID__datasets_join&#45;&gt;allSitesAdj__dataID_dataID__datasets_join_No_Rows</title>
<path fill="none" stroke="#000000" d="M705.3356,-318.5122C765.0079,-281.8659 858.5925,-224.3932 908.1742,-193.9437"/>
<polygon fill="#000000" stroke="#000000" points="910.2123,-196.7995 916.902,-188.5837 906.549,-190.8345 910.2123,-196.7995"/>
</g>
<!-- allSitesAdj__dataID_dataID__datasets_where -->
<g id="node4" class="node">
<title>allSitesAdj__dataID_dataID__datasets_where</title>
<ellipse fill="none" stroke="#000000" cx="650.6007" cy="-173.4156" rx="228.5204" ry="29.3315"/>
<text text-anchor="middle" x="650.6007" y="-177.6156" font-family="Times,serif" font-size="14.00" fill="#000000">WHERE IN</text>
<text text-anchor="middle" x="650.6007" y="-160.8156" font-family="Times,serif" font-size="14.00" fill="#000000">datasets.dataID = [&quot;NML&#45;WWPCR&quot;,&quot;NML&#45;WWGX&quot;]</text>
</g>
<!-- allSitesAdj__dataID_dataID__datasets_join_Has_Rows&#45;&gt;allSitesAdj__dataID_dataID__datasets_where -->
<g id="edge3" class="edge">
<title>allSitesAdj__dataID_dataID__datasets_join_Has_Rows&#45;&gt;allSitesAdj__dataID_dataID__datasets_where</title>
<path fill="none" stroke="#000000" d="M650.6007,-238.7313C650.6007,-231.1418 650.6007,-221.9972 650.6007,-212.986"/>
<polygon fill="#000000" stroke="#000000" points="654.1008,-212.9587 650.6007,-202.9588 647.1008,-212.9588 654.1008,-212.9587"/>
</g>
<!-- allSitesAdj__dataID_dataID__datasets_where_Has_Rows -->
<g id="node5" class="node">
<title>allSitesAdj__dataID_dataID__datasets_where_Has_Rows</title>
<ellipse fill="none" stroke="#000000" cx="318.6007" cy="-90" rx="47.4704" ry="18"/>
<text text-anchor="middle" x="318.6007" y="-85.8" font-family="Times,serif" font-size="14.00" fill="#000000">Has rows</text>
</g>
<!-- allSitesAdj__dataID_dataID__datasets_where&#45;&gt;allSitesAdj__dataID_dataID__datasets_where_Has_Rows -->
<g id="edge4" class="edge">
<title>allSitesAdj__dataID_dataID__datasets_where&#45;&gt;allSitesAdj__dataID_dataID__datasets_where_Has_Rows</title>
<path fill="none" stroke="#000000" d="M546.0095,-147.1369C486.5117,-132.188 414.7619,-114.1607 367.9816,-102.407"/>
<polygon fill="#000000" stroke="#000000" points="368.6535,-98.9672 358.1021,-99.9248 366.9477,-105.7561 368.6535,-98.9672"/>
</g>
<!-- allSitesAdj__dataID_dataID__datasets_where_No_Rows -->
<g id="node7" class="node">
<title>allSitesAdj__dataID_dataID__datasets_where_No_Rows</title>
<ellipse fill="none" stroke="#000000" cx="557.6007" cy="-90" rx="44.0415" ry="18"/>
<text text-anchor="middle" x="557.6007" y="-85.8" font-family="Times,serif" font-size="14.00" fill="#000000">No rows</text>
</g>
<!-- allSitesAdj__dataID_dataID__datasets_where&#45;&gt;allSitesAdj__dataID_dataID__datasets_where_No_Rows -->
<g id="edge6" class="edge">
<title>allSitesAdj__dataID_dataID__datasets_where&#45;&gt;allSitesAdj__dataID_dataID__datasets_where_No_Rows</title>
<path fill="none" stroke="#000000" d="M618.0738,-144.2409C606.6935,-134.0334 594.0821,-122.7217 583.3338,-113.0811"/>
<polygon fill="#000000" stroke="#000000" points="585.6621,-110.4679 575.8809,-106.3963 580.9882,-115.6788 585.6621,-110.4679"/>
</g>
<!-- granted -->
<g id="node6" class="node">
<title>granted</title>
<ellipse fill="none" stroke="#000000" cx="242.6007" cy="-18" rx="71.7874" ry="18"/>
<text text-anchor="middle" x="242.6007" y="-13.8" font-family="Times,serif" font-size="14.00" fill="#000000">Access Granted</text>
</g>
<!-- allSitesAdj__dataID_dataID__datasets_where_Has_Rows&#45;&gt;granted -->
<g id="edge5" class="edge">
<title>allSitesAdj__dataID_dataID__datasets_where_Has_Rows&#45;&gt;granted</title>
<path fill="none" stroke="#000000" d="M300.5898,-72.937C290.9823,-63.8352 278.9916,-52.4756 268.4111,-42.4519"/>
<polygon fill="#000000" stroke="#000000" points="270.677,-39.7773 261.0103,-35.4407 265.8627,-44.859 270.677,-39.7773"/>
</g>
<!-- denied -->
<g id="node8" class="node">
<title>denied</title>
<ellipse fill="none" stroke="#000000" cx="468.6007" cy="-18" rx="68.8581" ry="18"/>
<text text-anchor="middle" x="468.6007" y="-13.8" font-family="Times,serif" font-size="14.00" fill="#000000">Access Denied</text>
</g>
<!-- allSitesAdj__dataID_dataID__datasets_where_No_Rows&#45;&gt;denied -->
<g id="edge7" class="edge">
<title>allSitesAdj__dataID_dataID__datasets_where_No_Rows&#45;&gt;denied</title>
<path fill="none" stroke="#000000" d="M537.4052,-73.6621C525.683,-64.179 510.7151,-52.0701 497.7354,-41.5696"/>
<polygon fill="#000000" stroke="#000000" points="499.9332,-38.8457 489.9573,-35.2773 495.5305,-44.2879 499.9332,-38.8457"/>
</g>
<!-- allSitesAdj__dataID_dataID__datasets_join_No_Rows&#45;&gt;denied -->
<g id="edge9" class="edge">
<title>allSitesAdj__dataID_dataID__datasets_join_No_Rows&#45;&gt;denied</title>
<path fill="none" stroke="#000000" d="M917.0807,-158.3627C908.3016,-153.3645 898.2004,-148.0482 888.6007,-144 765.4175,-92.054 613.5974,-52.0841 530.3955,-32.1038"/>
<polygon fill="#000000" stroke="#000000" points="531.1348,-28.682 520.5957,-29.7668 529.511,-35.491 531.1348,-28.682"/>
</g>
<!-- allSitesAdj__healthReg_healthReg__sites_join_Has_Rows -->
<g id="node11" class="node">
<title>allSitesAdj__healthReg_healthReg__sites_join_Has_Rows</title>
<ellipse fill="none" stroke="#000000" cx="233.6007" cy="-256.8313" rx="47.4704" ry="18"/>
<text text-anchor="middle" x="233.6007" y="-252.6313" font-family="Times,serif" font-size="14.00" fill="#000000">Has rows</text>
</g>
<!-- allSitesAdj__healthReg_healthReg__sites_join&#45;&gt;allSitesAdj__healthReg_healthReg__sites_join_Has_Rows -->
<g id="edge11" class="edge">
<title>allSitesAdj__healthReg_healthReg__sites_join&#45;&gt;allSitesAdj__healthReg_healthReg__sites_join_Has_Rows</title>
<path fill="none" stroke="#000000" d="M341.2107,-320.9232C317.1275,-306.5793 289.2392,-289.9692 267.8887,-277.253"/>
<polygon fill="#000000" stroke="#000000" points="269.5515,-274.1696 259.1689,-272.0595 265.9695,-280.1837 269.5515,-274.1696"/>
</g>
<!-- allSitesAdj__healthReg_healthReg__sites_join_No_Rows -->
<g id="node15" class="node">
<title>allSitesAdj__healthReg_healthReg__sites_join_No_Rows</title>
<ellipse fill="none" stroke="#000000" cx="393.6007" cy="-256.8313" rx="44.0415" ry="18"/>
<text text-anchor="middle" x="393.6007" y="-252.6313" font-family="Times,serif" font-size="14.00" fill="#000000">No rows</text>
</g>
<!-- allSitesAdj__healthReg_healthReg__sites_join&#45;&gt;allSitesAdj__healthReg_healthReg__sites_join_No_Rows -->
<g id="edge17" class="edge">
<title>allSitesAdj__healthReg_healthReg__sites_join&#45;&gt;allSitesAdj__healthReg_healthReg__sites_join_No_Rows</title>
<path fill="none" stroke="#000000" d="M393.6007,-310.6057C393.6007,-302.0541 393.6007,-293.2347 393.6007,-285.2742"/>
<polygon fill="#000000" stroke="#000000" points="397.1008,-285.0572 393.6007,-275.0572 390.1008,-285.0572 397.1008,-285.0572"/>
</g>
<!-- allSitesAdj__healthReg_healthReg__sites_where -->
<g id="node12" class="node">
<title>allSitesAdj__healthReg_healthReg__sites_where</title>
<ellipse fill="none" stroke="#000000" cx="182.6007" cy="-173.4156" rx="182.7015" ry="29.3315"/>
<text text-anchor="middle" x="182.6007" y="-177.6156" font-family="Times,serif" font-size="14.00" fill="#000000">WHERE IN</text>
<text text-anchor="middle" x="182.6007" y="-160.8156" font-family="Times,serif" font-size="14.00" fill="#000000">sites.healthReg = [&quot;Yukon&quot;,&quot;Yukon&#45;HNJ&quot;]</text>
</g>
<!-- allSitesAdj__healthReg_healthReg__sites_join_Has_Rows&#45;&gt;allSitesAdj__healthReg_healthReg__sites_where -->
<g id="edge12" class="edge">
<title>allSitesAdj__healthReg_healthReg__sites_join_Has_Rows&#45;&gt;allSitesAdj__healthReg_healthReg__sites_where</title>
<path fill="none" stroke="#000000" d="M222.7849,-239.141C217.8599,-231.0856 211.8263,-221.2171 205.9466,-211.6001"/>
<polygon fill="#000000" stroke="#000000" points="208.8287,-209.6043 200.6263,-202.8982 202.8565,-213.2557 208.8287,-209.6043"/>
</g>
<!-- allSitesAdj__healthReg_healthReg__sites_where_Has_Rows -->
<g id="node13" class="node">
<title>allSitesAdj__healthReg_healthReg__sites_where_Has_Rows</title>
<ellipse fill="none" stroke="#000000" cx="100.6007" cy="-90" rx="47.4704" ry="18"/>
<text text-anchor="middle" x="100.6007" y="-85.8" font-family="Times,serif" font-size="14.00" fill="#000000">Has rows</text>
</g>
<!-- allSitesAdj__healthReg_healthReg__sites_where&#45;&gt;allSitesAdj__healthReg_healthReg__sites_where_Has_Rows -->
<g id="edge13" class="edge">
<title>allSitesAdj__healthReg_healthReg__sites_where&#45;&gt;allSitesAdj__healthReg_healthReg__sites_where_Has_Rows</title>
<path fill="none" stroke="#000000" d="M153.9211,-144.2409C144.3003,-134.454 133.6817,-123.6521 124.4699,-114.2813"/>
<polygon fill="#000000" stroke="#000000" points="126.936,-111.7973 117.4297,-107.1195 121.944,-116.7045 126.936,-111.7973"/>
</g>
<!-- allSitesAdj__healthReg_healthReg__sites_where_No_Rows -->
<g id="node14" class="node">
<title>allSitesAdj__healthReg_healthReg__sites_where_No_Rows</title>
<ellipse fill="none" stroke="#000000" cx="209.6007" cy="-90" rx="44.0415" ry="18"/>
<text text-anchor="middle" x="209.6007" y="-85.8" font-family="Times,serif" font-size="14.00" fill="#000000">No rows</text>
</g>
<!-- allSitesAdj__healthReg_healthReg__sites_where&#45;&gt;allSitesAdj__healthReg_healthReg__sites_where_No_Rows -->
<g id="edge15" class="edge">
<title>allSitesAdj__healthReg_healthReg__sites_where&#45;&gt;allSitesAdj__healthReg_healthReg__sites_where_No_Rows</title>
<path fill="none" stroke="#000000" d="M192.1959,-143.7715C194.9546,-135.2488 197.9512,-125.9907 200.6681,-117.597"/>
<polygon fill="#000000" stroke="#000000" points="204.0589,-118.4866 203.8085,-107.8947 197.3991,-116.3309 204.0589,-118.4866"/>
</g>
<!-- allSitesAdj__healthReg_healthReg__sites_where_Has_Rows&#45;&gt;granted -->
<g id="edge14" class="edge">
<title>allSitesAdj__healthReg_healthReg__sites_where_Has_Rows&#45;&gt;granted</title>
<path fill="none" stroke="#000000" d="M128.9952,-75.6028C149.7876,-65.0602 178.3157,-50.5952 201.582,-38.7982"/>
<polygon fill="#000000" stroke="#000000" points="203.2026,-41.9008 210.5388,-34.2568 200.0369,-35.6575 203.2026,-41.9008"/>
</g>
<!-- allSitesAdj__healthReg_healthReg__sites_where_No_Rows&#45;&gt;denied -->
<g id="edge16" class="edge">
<title>allSitesAdj__healthReg_healthReg__sites_where_No_Rows&#45;&gt;denied</title>
<path fill="none" stroke="#000000" d="M243.1299,-78.2118C249.5663,-76.0628 256.2723,-73.9015 262.6007,-72 311.177,-57.4045 366.8492,-42.9445 408.0618,-32.6663"/>
<polygon fill="#000000" stroke="#000000" points="409.0872,-36.018 417.9491,-30.2114 407.4003,-29.2243 409.0872,-36.018"/>
</g>
<!-- allSitesAdj__healthReg_healthReg__sites_join_No_Rows&#45;&gt;denied -->
<g id="edge18" class="edge">
<title>allSitesAdj__healthReg_healthReg__sites_join_No_Rows&#45;&gt;denied</title>
<path fill="none" stroke="#000000" d="M395.254,-238.5317C397.6184,-215.9422 402.8052,-176.5254 412.6007,-144 423.2514,-108.635 441.4052,-70.1305 454.1493,-45.1167"/>
<polygon fill="#000000" stroke="#000000" points="457.2624,-46.7161 458.7418,-36.2251 451.043,-43.5038 457.2624,-46.7161"/>
</g>
</g>
</svg>
