<?xml version="1.0" encoding="UTF-8" standalone="no"?>
<!DOCTYPE svg PUBLIC "-//W3C//DTD SVG 1.1//EN"
 "http://www.w3.org/Graphics/SVG/1.1/DTD/svg11.dtd">
<!-- Generated by graphviz version 2.40.1 (20161225.0304)
 -->
<!-- Title: G Pages: 1 -->
<svg width="1022pt" height="664pt"
 viewBox="0.00 0.00 1022.02 664.01" xmlns="http://www.w3.org/2000/svg" xmlns:xlink="http://www.w3.org/1999/xlink">
<g id="graph0" class="graph" transform="scale(1 1) rotate(0) translate(4 660.0114)">
<title>G</title>
<polygon fill="#ffffff" stroke="transparent" points="-4,4 -4,-660.0114 1018.0208,-660.0114 1018.0208,4 -4,4"/>
<!-- contacts -->
<g id="node1" class="node">
<title>contacts</title>
<ellipse fill="none" stroke="#000000" cx="256" cy="-638.0114" rx="42.8538" ry="18"/>
<text text-anchor="middle" x="256" y="-633.8114" font-family="Times,serif" font-size="14.00" fill="#000000">contacts</text>
</g>
<!-- contacts__contID_contID__samples_join -->
<g id="node2" class="node">
<title>contacts__contID_contID__samples_join</title>
<ellipse fill="none" stroke="#000000" cx="256" cy="-542.7164" rx="93.4765" ry="41.0911"/>
<text text-anchor="middle" x="256" y="-555.3164" font-family="Times,serif" font-size="14.00" fill="#000000">LEFT JOIN samples</text>
<text text-anchor="middle" x="256" y="-538.5164" font-family="Times,serif" font-size="14.00" fill="#000000">At level: 2</text>
<text text-anchor="middle" x="256" y="-521.7164" font-family="Times,serif" font-size="14.00" fill="#000000">Required: false</text>
</g>
<!-- contacts&#45;&gt;contacts__contID_contID__samples_join -->
<g id="edge1" class="edge">
<title>contacts&#45;&gt;contacts__contID_contID__samples_join</title>
<path fill="none" stroke="#000000" d="M256,-619.6376C256,-612.3285 256,-603.5189 256,-594.5101"/>
<polygon fill="#000000" stroke="#000000" points="259.5001,-594.3235 256,-584.3236 252.5001,-594.3236 259.5001,-594.3235"/>
</g>
<!-- contacts__contID_contID__samples_join_Has_Rows -->
<g id="node3" class="node">
<title>contacts__contID_contID__samples_join_Has_Rows</title>
<ellipse fill="none" stroke="#000000" cx="385" cy="-447.4214" rx="47.4704" ry="18"/>
<text text-anchor="middle" x="385" y="-443.2214" font-family="Times,serif" font-size="14.00" fill="#000000">Has rows</text>
</g>
<!-- contacts__contID_contID__samples_join&#45;&gt;contacts__contID_contID__samples_join_Has_Rows -->
<g id="edge2" class="edge">
<title>contacts__contID_contID__samples_join&#45;&gt;contacts__contID_contID__samples_join_Has_Rows</title>
<path fill="none" stroke="#000000" d="M304.0348,-507.232C321.0412,-494.6691 339.6841,-480.8972 354.7895,-469.7385"/>
<polygon fill="#000000" stroke="#000000" points="357.2717,-472.2563 363.2355,-463.4993 353.1125,-466.6259 357.2717,-472.2563"/>
</g>
<!-- contacts__contID_contID__samples_join_No_Rows -->
<g id="node18" class="node">
<title>contacts__contID_contID__samples_join_No_Rows</title>
<ellipse fill="none" stroke="#000000" cx="202" cy="-447.4214" rx="44.0415" ry="18"/>
<text text-anchor="middle" x="202" y="-443.2214" font-family="Times,serif" font-size="14.00" fill="#000000">No rows</text>
</g>
<!-- contacts__contID_contID__samples_join&#45;&gt;contacts__contID_contID__samples_join_No_Rows -->
<g id="edge21" class="edge">
<title>contacts__contID_contID__samples_join&#45;&gt;contacts__contID_contID__samples_join_No_Rows</title>
<path fill="none" stroke="#000000" d="M233.2556,-502.5789C227.7791,-492.9143 222.063,-482.8269 217.0392,-473.9614"/>
<polygon fill="#000000" stroke="#000000" points="220.0689,-472.2085 212.0936,-465.2338 213.9787,-475.6596 220.0689,-472.2085"/>
</g>
<!-- samples__siteID_siteID__sites_join -->
<g id="node4" class="node">
<title>samples__siteID_siteID__sites_join</title>
<ellipse fill="none" stroke="#000000" cx="725" cy="-352.1263" rx="78.8882" ry="41.0911"/>
<text text-anchor="middle" x="725" y="-364.7263" font-family="Times,serif" font-size="14.00" fill="#000000">LEFT JOIN sites</text>
<text text-anchor="middle" x="725" y="-347.9263" font-family="Times,serif" font-size="14.00" fill="#000000">At level: 1</text>
<text text-anchor="middle" x="725" y="-331.1263" font-family="Times,serif" font-size="14.00" fill="#000000">Required: true</text>
</g>
<!-- contacts__contID_contID__samples_join_Has_Rows&#45;&gt;samples__siteID_siteID__sites_join -->
<g id="edge3" class="edge">
<title>contacts__contID_contID__samples_join_Has_Rows&#45;&gt;samples__siteID_siteID__sites_join</title>
<path fill="none" stroke="#000000" d="M423.3414,-436.675C476.9996,-421.6358 575.748,-393.9586 645.627,-374.3729"/>
<polygon fill="#000000" stroke="#000000" points="646.6036,-377.7342 655.288,-371.6652 644.7144,-370.9939 646.6036,-377.7342"/>
</g>
<!-- samples__dataID_dataID__datasets_join -->
<g id="node12" class="node">
<title>samples__dataID_dataID__datasets_join</title>
<ellipse fill="none" stroke="#000000" cx="385" cy="-352.1263" rx="92.8656" ry="41.0911"/>
<text text-anchor="middle" x="385" y="-364.7263" font-family="Times,serif" font-size="14.00" fill="#000000">LEFT JOIN datasets</text>
<text text-anchor="middle" x="385" y="-347.9263" font-family="Times,serif" font-size="14.00" fill="#000000">At level: 1</text>
<text text-anchor="middle" x="385" y="-331.1263" font-family="Times,serif" font-size="14.00" fill="#000000">Required: true</text>
</g>
<!-- contacts__contID_contID__samples_join_Has_Rows&#45;&gt;samples__dataID_dataID__datasets_join -->
<g id="edge12" class="edge">
<title>contacts__contID_contID__samples_join_Has_Rows&#45;&gt;samples__dataID_dataID__datasets_join</title>
<path fill="none" stroke="#000000" d="M385,-429.0475C385,-421.7384 385,-412.9288 385,-403.92"/>
<polygon fill="#000000" stroke="#000000" points="388.5001,-403.7335 385,-393.7335 381.5001,-403.7335 388.5001,-403.7335"/>
</g>
<!-- samples__siteID_siteID__sites_join_Has_Rows -->
<g id="node5" class="node">
<title>samples__siteID_siteID__sites_join_Has_Rows</title>
<ellipse fill="none" stroke="#000000" cx="725" cy="-256.8313" rx="47.4704" ry="18"/>
<text text-anchor="middle" x="725" y="-252.6313" font-family="Times,serif" font-size="14.00" fill="#000000">Has rows</text>
</g>
<!-- samples__siteID_siteID__sites_join&#45;&gt;samples__siteID_siteID__sites_join_Has_Rows -->
<g id="edge4" class="edge">
<title>samples__siteID_siteID__sites_join&#45;&gt;samples__siteID_siteID__sites_join_Has_Rows</title>
<path fill="none" stroke="#000000" d="M725,-310.6057C725,-302.0541 725,-293.2347 725,-285.2742"/>
<polygon fill="#000000" stroke="#000000" points="728.5001,-285.0572 725,-275.0572 721.5001,-285.0572 728.5001,-285.0572"/>
</g>
<!-- samples__siteID_siteID__sites_join_No_Rows -->
<g id="node11" class="node">
<title>samples__siteID_siteID__sites_join_No_Rows</title>
<ellipse fill="none" stroke="#000000" cx="970" cy="-173.4156" rx="44.0415" ry="18"/>
<text text-anchor="middle" x="970" y="-169.2156" font-family="Times,serif" font-size="14.00" fill="#000000">No rows</text>
</g>
<!-- samples__siteID_siteID__sites_join&#45;&gt;samples__siteID_siteID__sites_join_No_Rows -->
<g id="edge10" class="edge">
<title>samples__siteID_siteID__sites_join&#45;&gt;samples__siteID_siteID__sites_join_No_Rows</title>
<path fill="none" stroke="#000000" d="M771.0826,-318.5122C820.6205,-282.3778 897.9178,-225.9946 940.0867,-195.2354"/>
<polygon fill="#000000" stroke="#000000" points="942.2649,-197.9787 948.2814,-189.2579 938.1397,-192.3233 942.2649,-197.9787"/>
</g>
<!-- samples__siteID_siteID__sites_where -->
<g id="node6" class="node">
<title>samples__siteID_siteID__sites_where</title>
<ellipse fill="none" stroke="#000000" cx="725" cy="-173.4156" rx="182.7015" ry="29.3315"/>
<text text-anchor="middle" x="725" y="-177.6156" font-family="Times,serif" font-size="14.00" fill="#000000">WHERE IN</text>
<text text-anchor="middle" x="725" y="-160.8156" font-family="Times,serif" font-size="14.00" fill="#000000">sites.healthReg = [&quot;Yukon&quot;,&quot;Yukon&#45;HNJ&quot;]</text>
</g>
<!-- samples__siteID_siteID__sites_join_Has_Rows&#45;&gt;samples__siteID_siteID__sites_where -->
<g id="edge5" class="edge">
<title>samples__siteID_siteID__sites_join_Has_Rows&#45;&gt;samples__siteID_siteID__sites_where</title>
<path fill="none" stroke="#000000" d="M725,-238.7313C725,-231.1418 725,-221.9972 725,-212.986"/>
<polygon fill="#000000" stroke="#000000" points="728.5001,-212.9587 725,-202.9588 721.5001,-212.9588 728.5001,-212.9587"/>
</g>
<!-- samples__siteID_siteID__sites_where_Has_Rows -->
<g id="node7" class="node">
<title>samples__siteID_siteID__sites_where_Has_Rows</title>
<ellipse fill="none" stroke="#000000" cx="439" cy="-90" rx="47.4704" ry="18"/>
<text text-anchor="middle" x="439" y="-85.8" font-family="Times,serif" font-size="14.00" fill="#000000">Has rows</text>
</g>
<!-- samples__siteID_siteID__sites_where&#45;&gt;samples__siteID_siteID__sites_where_Has_Rows -->
<g id="edge6" class="edge">
<title>samples__siteID_siteID__sites_where&#45;&gt;samples__siteID_siteID__sites_where_Has_Rows</title>
<path fill="none" stroke="#000000" d="M636.4664,-147.5937C586.9073,-133.1391 527.0868,-115.6917 486.3667,-103.8151"/>
<polygon fill="#000000" stroke="#000000" points="487.2803,-100.4358 476.7003,-100.9958 485.3203,-107.1558 487.2803,-100.4358"/>
</g>
<!-- samples__siteID_siteID__sites_where_No_Rows -->
<g id="node9" class="node">
<title>samples__siteID_siteID__sites_where_No_Rows</title>
<ellipse fill="none" stroke="#000000" cx="655" cy="-90" rx="44.0415" ry="18"/>
<text text-anchor="middle" x="655" y="-85.8" font-family="Times,serif" font-size="14.00" fill="#000000">No rows</text>
</g>
<!-- samples__siteID_siteID__sites_where&#45;&gt;samples__siteID_siteID__sites_where_No_Rows -->
<g id="edge8" class="edge">
<title>samples__siteID_siteID__sites_where&#45;&gt;samples__siteID_siteID__sites_where_No_Rows</title>
<path fill="none" stroke="#000000" d="M700.5174,-144.2409C692.4672,-134.6478 683.5986,-124.0795 675.8447,-114.8396"/>
<polygon fill="#000000" stroke="#000000" points="678.4755,-112.5298 669.3662,-107.1195 673.1134,-117.0296 678.4755,-112.5298"/>
</g>
<!-- granted -->
<g id="node8" class="node">
<title>granted</title>
<ellipse fill="none" stroke="#000000" cx="221" cy="-18" rx="71.7874" ry="18"/>
<text text-anchor="middle" x="221" y="-13.8" font-family="Times,serif" font-size="14.00" fill="#000000">Access Granted</text>
</g>
<!-- samples__siteID_siteID__sites_where_Has_Rows&#45;&gt;granted -->
<g id="edge7" class="edge">
<title>samples__siteID_siteID__sites_where_Has_Rows&#45;&gt;granted</title>
<path fill="none" stroke="#000000" d="M403.0017,-78.1107C367.921,-66.5244 314.1693,-48.7715 274.1641,-35.5588"/>
<polygon fill="#000000" stroke="#000000" points="275.1603,-32.2019 264.5671,-32.3891 272.9649,-38.8488 275.1603,-32.2019"/>
</g>
<!-- denied -->
<g id="node10" class="node">
<title>denied</title>
<ellipse fill="none" stroke="#000000" cx="584" cy="-18" rx="68.8581" ry="18"/>
<text text-anchor="middle" x="584" y="-13.8" font-family="Times,serif" font-size="14.00" fill="#000000">Access Denied</text>
</g>
<!-- samples__siteID_siteID__sites_where_No_Rows&#45;&gt;denied -->
<g id="edge9" class="edge">
<title>samples__siteID_siteID__sites_where_No_Rows&#45;&gt;denied</title>
<path fill="none" stroke="#000000" d="M638.5327,-73.3008C629.6535,-64.2965 618.519,-53.0052 608.63,-42.9769"/>
<polygon fill="#000000" stroke="#000000" points="610.8822,-40.276 601.3686,-35.6132 605.8979,-45.1911 610.8822,-40.276"/>
</g>
<!-- samples__siteID_siteID__sites_join_No_Rows&#45;&gt;denied -->
<g id="edge11" class="edge">
<title>samples__siteID_siteID__sites_join_No_Rows&#45;&gt;denied</title>
<path fill="none" stroke="#000000" d="M944.7783,-158.4389C936.1126,-153.5576 926.2606,-148.2944 917,-144 820.5906,-99.2928 703.485,-57.8061 636.964,-35.378"/>
<polygon fill="#000000" stroke="#000000" points="637.723,-31.941 627.1291,-32.0768 635.4955,-38.5771 637.723,-31.941"/>
</g>
<!-- samples__dataID_dataID__datasets_join_Has_Rows -->
<g id="node13" class="node">
<title>samples__dataID_dataID__datasets_join_Has_Rows</title>
<ellipse fill="none" stroke="#000000" cx="294" cy="-256.8313" rx="47.4704" ry="18"/>
<text text-anchor="middle" x="294" y="-252.6313" font-family="Times,serif" font-size="14.00" fill="#000000">Has rows</text>
</g>
<!-- samples__dataID_dataID__datasets_join&#45;&gt;samples__dataID_dataID__datasets_join_Has_Rows -->
<g id="edge13" class="edge">
<title>samples__dataID_dataID__datasets_join&#45;&gt;samples__dataID_dataID__datasets_join_Has_Rows</title>
<path fill="none" stroke="#000000" d="M348.5112,-313.9153C338.0546,-302.9652 326.9367,-291.3225 317.4875,-281.4273"/>
<polygon fill="#000000" stroke="#000000" points="319.7492,-278.7278 310.3116,-273.9128 314.6866,-283.5622 319.7492,-278.7278"/>
</g>
<!-- samples__dataID_dataID__datasets_join_No_Rows -->
<g id="node17" class="node">
<title>samples__dataID_dataID__datasets_join_No_Rows</title>
<ellipse fill="none" stroke="#000000" cx="440" cy="-256.8313" rx="44.0415" ry="18"/>
<text text-anchor="middle" x="440" y="-252.6313" font-family="Times,serif" font-size="14.00" fill="#000000">No rows</text>
</g>
<!-- samples__dataID_dataID__datasets_join&#45;&gt;samples__dataID_dataID__datasets_join_No_Rows -->
<g id="edge19" class="edge">
<title>samples__dataID_dataID__datasets_join&#45;&gt;samples__dataID_dataID__datasets_join_No_Rows</title>
<path fill="none" stroke="#000000" d="M408.1655,-311.9888C413.7435,-302.3243 419.5655,-292.2368 424.6823,-283.3713"/>
<polygon fill="#000000" stroke="#000000" points="427.752,-285.0543 429.7194,-274.6438 421.6893,-281.5552 427.752,-285.0543"/>
</g>
<!-- samples__dataID_dataID__datasets_where -->
<g id="node14" class="node">
<title>samples__dataID_dataID__datasets_where</title>
<ellipse fill="none" stroke="#000000" cx="257" cy="-173.4156" rx="228.5204" ry="29.3315"/>
<text text-anchor="middle" x="257" y="-177.6156" font-family="Times,serif" font-size="14.00" fill="#000000">WHERE IN</text>
<text text-anchor="middle" x="257" y="-160.8156" font-family="Times,serif" font-size="14.00" fill="#000000">datasets.dataID = [&quot;NML&#45;WWPCR&quot;,&quot;NML&#45;WWGX&quot;]</text>
</g>
<!-- samples__dataID_dataID__datasets_join_Has_Rows&#45;&gt;samples__dataID_dataID__datasets_where -->
<g id="edge14" class="edge">
<title>samples__dataID_dataID__datasets_join_Has_Rows&#45;&gt;samples__dataID_dataID__datasets_where</title>
<path fill="none" stroke="#000000" d="M285.9716,-238.7313C282.4965,-230.897 278.2865,-221.4056 274.1653,-212.1145"/>
<polygon fill="#000000" stroke="#000000" points="277.3583,-210.6807 270.1042,-202.9588 270.9595,-213.519 277.3583,-210.6807"/>
</g>
<!-- samples__dataID_dataID__datasets_where_Has_Rows -->
<g id="node15" class="node">
<title>samples__dataID_dataID__datasets_where_Has_Rows</title>
<ellipse fill="none" stroke="#000000" cx="221" cy="-90" rx="47.4704" ry="18"/>
<text text-anchor="middle" x="221" y="-85.8" font-family="Times,serif" font-size="14.00" fill="#000000">Has rows</text>
</g>
<!-- samples__dataID_dataID__datasets_where&#45;&gt;samples__dataID_dataID__datasets_where_Has_Rows -->
<g id="edge15" class="edge">
<title>samples__dataID_dataID__datasets_where&#45;&gt;samples__dataID_dataID__datasets_where_Has_Rows</title>
<path fill="none" stroke="#000000" d="M244.2064,-143.7715C240.4878,-135.1551 236.4448,-125.7872 232.7909,-117.3206"/>
<polygon fill="#000000" stroke="#000000" points="235.8989,-115.6893 228.7229,-107.8947 229.4719,-118.4631 235.8989,-115.6893"/>
</g>
<!-- samples__dataID_dataID__datasets_where_No_Rows -->
<g id="node16" class="node">
<title>samples__dataID_dataID__datasets_where_No_Rows</title>
<ellipse fill="none" stroke="#000000" cx="330" cy="-90" rx="44.0415" ry="18"/>
<text text-anchor="middle" x="330" y="-85.8" font-family="Times,serif" font-size="14.00" fill="#000000">No rows</text>
</g>
<!-- samples__dataID_dataID__datasets_where&#45;&gt;samples__dataID_dataID__datasets_where_No_Rows -->
<g id="edge17" class="edge">
<title>samples__dataID_dataID__datasets_where&#45;&gt;samples__dataID_dataID__datasets_where_No_Rows</title>
<path fill="none" stroke="#000000" d="M282.9426,-143.7715C291.1836,-134.3547 300.2103,-124.0401 308.1342,-114.9856"/>
<polygon fill="#000000" stroke="#000000" points="310.8144,-117.2376 314.7662,-107.4073 305.5467,-112.6276 310.8144,-117.2376"/>
</g>
<!-- samples__dataID_dataID__datasets_where_Has_Rows&#45;&gt;granted -->
<g id="edge16" class="edge">
<title>samples__dataID_dataID__datasets_where_Has_Rows&#45;&gt;granted</title>
<path fill="none" stroke="#000000" d="M221,-71.8314C221,-64.131 221,-54.9743 221,-46.4166"/>
<polygon fill="#000000" stroke="#000000" points="224.5001,-46.4132 221,-36.4133 217.5001,-46.4133 224.5001,-46.4132"/>
</g>
<!-- samples__dataID_dataID__datasets_where_No_Rows&#45;&gt;denied -->
<g id="edge18" class="edge">
<title>samples__dataID_dataID__datasets_where_No_Rows&#45;&gt;denied</title>
<path fill="none" stroke="#000000" d="M363.5386,-78.243C369.9741,-76.0911 376.6774,-73.9208 383,-72 430.1706,-57.67 484.1544,-43.2762 524.2904,-32.9569"/>
<polygon fill="#000000" stroke="#000000" points="525.3643,-36.2949 534.1835,-30.4237 523.6278,-29.5137 525.3643,-36.2949"/>
</g>
<!-- samples__dataID_dataID__datasets_join_No_Rows&#45;&gt;denied -->
<g id="edge20" class="edge">
<title>samples__dataID_dataID__datasets_join_No_Rows&#45;&gt;denied</title>
<path fill="none" stroke="#000000" d="M459.7551,-240.5084C471.0595,-230.4661 484.9467,-216.8639 495,-202.8313 531.4967,-151.8884 559.8685,-83.6559 574.0425,-45.9679"/>
<polygon fill="#000000" stroke="#000000" points="577.4735,-46.7809 577.6588,-36.1876 570.9079,-44.3532 577.4735,-46.7809"/>
</g>
<!-- contacts__contID_contID__samples_join_No_Rows&#45;&gt;granted -->
<g id="edge22" class="edge">
<title>contacts__contID_contID__samples_join_No_Rows&#45;&gt;granted</title>
<path fill="none" stroke="#000000" d="M169.9925,-434.8057C113.034,-410.0074 0,-349.1636 0,-256.8313 0,-256.8313 0,-256.8313 0,-173.4156 0,-95.4505 93.1676,-53.2098 158.5178,-33.1707"/>
<polygon fill="#000000" stroke="#000000" points="159.7524,-36.4554 168.3458,-30.2583 157.7634,-29.7439 159.7524,-36.4554"/>
</g>
</g>
</svg>
