<?xml version="1.0" encoding="UTF-8" standalone="no"?>
<!DOCTYPE svg PUBLIC "-//W3C//DTD SVG 1.1//EN"
 "http://www.w3.org/Graphics/SVG/1.1/DTD/svg11.dtd">
<!-- Generated by graphviz version 2.40.1 (20161225.0304)
 -->
<!-- Title: G Pages: 1 -->
<svg width="1029pt" height="831pt"
 viewBox="0.00 0.00 1028.52 830.84" xmlns="http://www.w3.org/2000/svg" xmlns:xlink="http://www.w3.org/1999/xlink">
<g id="graph0" class="graph" transform="scale(1 1) rotate(0) translate(4 826.8427)">
<title>G</title>
<polygon fill="#ffffff" stroke="transparent" points="-4,4 -4,-826.8427 1024.5201,-826.8427 1024.5201,4 -4,4"/>
<!-- datasets -->
<g id="node1" class="node">
<title>datasets</title>
<ellipse fill="none" stroke="#000000" cx="791.7601" cy="-804.8427" rx="41.7075" ry="18"/>
<text text-anchor="middle" x="791.7601" y="-800.6427" font-family="Times,serif" font-size="14.00" fill="#000000">datasets</text>
</g>
<!-- datasets_where -->
<g id="node2" class="node">
<title>datasets_where</title>
<ellipse fill="none" stroke="#000000" cx="791.7601" cy="-721.4271" rx="228.5204" ry="29.3315"/>
<text text-anchor="middle" x="791.7601" y="-725.6271" font-family="Times,serif" font-size="14.00" fill="#000000">WHERE IN</text>
<text text-anchor="middle" x="791.7601" y="-708.8271" font-family="Times,serif" font-size="14.00" fill="#000000">datasets.dataID = [&quot;NML&#45;WWPCR&quot;,&quot;NML&#45;WWGX&quot;]</text>
</g>
<!-- datasets&#45;&gt;datasets_where -->
<g id="edge1" class="edge">
<title>datasets&#45;&gt;datasets_where</title>
<path fill="none" stroke="#000000" d="M791.7601,-786.7428C791.7601,-779.1532 791.7601,-770.0087 791.7601,-760.9975"/>
<polygon fill="#000000" stroke="#000000" points="795.2602,-760.9702 791.7601,-750.9702 788.2602,-760.9702 795.2602,-760.9702"/>
</g>
<!-- datasets_where_Has_Rows -->
<g id="node3" class="node">
<title>datasets_where_Has_Rows</title>
<ellipse fill="none" stroke="#000000" cx="754.7601" cy="-638.0114" rx="47.4704" ry="18"/>
<text text-anchor="middle" x="754.7601" y="-633.8114" font-family="Times,serif" font-size="14.00" fill="#000000">Has rows</text>
</g>
<!-- datasets_where&#45;&gt;datasets_where_Has_Rows -->
<g id="edge2" class="edge">
<title>datasets_where&#45;&gt;datasets_where_Has_Rows</title>
<path fill="none" stroke="#000000" d="M778.6111,-691.783C774.7476,-683.0729 770.5435,-673.5949 766.7561,-665.0563"/>
<polygon fill="#000000" stroke="#000000" points="769.9516,-663.6281 762.6975,-655.9062 763.5528,-666.4664 769.9516,-663.6281"/>
</g>
<!-- datasets_where_No_Rows -->
<g id="node21" class="node">
<title>datasets_where_No_Rows</title>
<ellipse fill="none" stroke="#000000" cx="869.7601" cy="-542.7164" rx="44.0415" ry="18"/>
<text text-anchor="middle" x="869.7601" y="-538.5164" font-family="Times,serif" font-size="14.00" fill="#000000">No rows</text>
</g>
<!-- datasets_where&#45;&gt;datasets_where_No_Rows -->
<g id="edge25" class="edge">
<title>datasets_where&#45;&gt;datasets_where_No_Rows</title>
<path fill="none" stroke="#000000" d="M804.6402,-691.9166C819.3844,-658.1352 843.3466,-603.234 857.7265,-570.2872"/>
<polygon fill="#000000" stroke="#000000" points="861.0684,-571.38 861.8608,-560.8149 854.6528,-568.5799 861.0684,-571.38"/>
</g>
<!-- datasets__dataID_dataID__samples_join -->
<g id="node4" class="node">
<title>datasets__dataID_dataID__samples_join</title>
<ellipse fill="none" stroke="#000000" cx="714.7601" cy="-542.7164" rx="93.4765" ry="41.0911"/>
<text text-anchor="middle" x="714.7601" y="-555.3164" font-family="Times,serif" font-size="14.00" fill="#000000">LEFT JOIN samples</text>
<text text-anchor="middle" x="714.7601" y="-538.5164" font-family="Times,serif" font-size="14.00" fill="#000000">At level: 2</text>
<text text-anchor="middle" x="714.7601" y="-521.7164" font-family="Times,serif" font-size="14.00" fill="#000000">Required: true</text>
</g>
<!-- datasets_where_Has_Rows&#45;&gt;datasets__dataID_dataID__samples_join -->
<g id="edge3" class="edge">
<title>datasets_where_Has_Rows&#45;&gt;datasets__dataID_dataID__samples_join</title>
<path fill="none" stroke="#000000" d="M747.2364,-620.0872C743.9436,-612.2425 739.8996,-602.6081 735.7972,-592.8347"/>
<polygon fill="#000000" stroke="#000000" points="738.9664,-591.3416 731.8687,-583.4756 732.5119,-594.0509 738.9664,-591.3416"/>
</g>
<!-- datasets__dataID_dataID__samples_join_Has_Rows -->
<g id="node5" class="node">
<title>datasets__dataID_dataID__samples_join_Has_Rows</title>
<ellipse fill="none" stroke="#000000" cx="678.7601" cy="-447.4214" rx="47.4704" ry="18"/>
<text text-anchor="middle" x="678.7601" y="-443.2214" font-family="Times,serif" font-size="14.00" fill="#000000">Has rows</text>
</g>
<!-- datasets__dataID_dataID__samples_join&#45;&gt;datasets__dataID_dataID__samples_join_Has_Rows -->
<g id="edge4" class="edge">
<title>datasets__dataID_dataID__samples_join&#45;&gt;datasets__dataID_dataID__samples_join_Has_Rows</title>
<path fill="none" stroke="#000000" d="M699.2839,-501.7497C695.8697,-492.712 692.3319,-483.3472 689.1751,-474.9908"/>
<polygon fill="#000000" stroke="#000000" points="692.3555,-473.5054 685.5473,-465.3876 685.8071,-475.9793 692.3555,-473.5054"/>
</g>
<!-- datasets__dataID_dataID__samples_join_No_Rows -->
<g id="node20" class="node">
<title>datasets__dataID_dataID__samples_join_No_Rows</title>
<ellipse fill="none" stroke="#000000" cx="791.7601" cy="-447.4214" rx="44.0415" ry="18"/>
<text text-anchor="middle" x="791.7601" y="-443.2214" font-family="Times,serif" font-size="14.00" fill="#000000">No rows</text>
</g>
<!-- datasets__dataID_dataID__samples_join&#45;&gt;datasets__dataID_dataID__samples_join_No_Rows -->
<g id="edge23" class="edge">
<title>datasets__dataID_dataID__samples_join&#45;&gt;datasets__dataID_dataID__samples_join_No_Rows</title>
<path fill="none" stroke="#000000" d="M746.3011,-503.6813C754.7815,-493.186 763.7279,-482.114 771.4198,-472.5945"/>
<polygon fill="#000000" stroke="#000000" points="774.2506,-474.6599 777.8132,-464.682 768.8059,-470.2605 774.2506,-474.6599"/>
</g>
<!-- samples__siteID_siteID__sites_join -->
<g id="node6" class="node">
<title>samples__siteID_siteID__sites_join</title>
<ellipse fill="none" stroke="#000000" cx="678.7601" cy="-352.1263" rx="78.8882" ry="41.0911"/>
<text text-anchor="middle" x="678.7601" y="-364.7263" font-family="Times,serif" font-size="14.00" fill="#000000">LEFT JOIN sites</text>
<text text-anchor="middle" x="678.7601" y="-347.9263" font-family="Times,serif" font-size="14.00" fill="#000000">At level: 1</text>
<text text-anchor="middle" x="678.7601" y="-331.1263" font-family="Times,serif" font-size="14.00" fill="#000000">Required: true</text>
</g>
<!-- datasets__dataID_dataID__samples_join_Has_Rows&#45;&gt;samples__siteID_siteID__sites_join -->
<g id="edge5" class="edge">
<title>datasets__dataID_dataID__samples_join_Has_Rows&#45;&gt;samples__siteID_siteID__sites_join</title>
<path fill="none" stroke="#000000" d="M678.7601,-429.0475C678.7601,-421.7384 678.7601,-412.9288 678.7601,-403.92"/>
<polygon fill="#000000" stroke="#000000" points="682.2602,-403.7335 678.7601,-393.7335 675.2602,-403.7335 682.2602,-403.7335"/>
</g>
<!-- samples__dataID_dataID__datasets_join -->
<g id="node14" class="node">
<title>samples__dataID_dataID__datasets_join</title>
<ellipse fill="none" stroke="#000000" cx="485.7601" cy="-352.1263" rx="92.8656" ry="41.0911"/>
<text text-anchor="middle" x="485.7601" y="-364.7263" font-family="Times,serif" font-size="14.00" fill="#000000">LEFT JOIN datasets</text>
<text text-anchor="middle" x="485.7601" y="-347.9263" font-family="Times,serif" font-size="14.00" fill="#000000">At level: 1</text>
<text text-anchor="middle" x="485.7601" y="-331.1263" font-family="Times,serif" font-size="14.00" fill="#000000">Required: true</text>
</g>
<!-- datasets__dataID_dataID__samples_join_Has_Rows&#45;&gt;samples__dataID_dataID__datasets_join -->
<g id="edge14" class="edge">
<title>datasets__dataID_dataID__samples_join_Has_Rows&#45;&gt;samples__dataID_dataID__datasets_join</title>
<path fill="none" stroke="#000000" d="M649.866,-433.1547C625.4601,-421.1041 589.4599,-403.3288 557.3918,-387.4949"/>
<polygon fill="#000000" stroke="#000000" points="558.5412,-384.1591 548.0251,-382.8701 555.4421,-390.4357 558.5412,-384.1591"/>
</g>
<!-- samples__siteID_siteID__sites_join_Has_Rows -->
<g id="node7" class="node">
<title>samples__siteID_siteID__sites_join_Has_Rows</title>
<ellipse fill="none" stroke="#000000" cx="625.7601" cy="-256.8313" rx="47.4704" ry="18"/>
<text text-anchor="middle" x="625.7601" y="-252.6313" font-family="Times,serif" font-size="14.00" fill="#000000">Has rows</text>
</g>
<!-- samples__siteID_siteID__sites_join&#45;&gt;samples__siteID_siteID__sites_join_Has_Rows -->
<g id="edge6" class="edge">
<title>samples__siteID_siteID__sites_join&#45;&gt;samples__siteID_siteID__sites_join_Has_Rows</title>
<path fill="none" stroke="#000000" d="M656.5904,-312.2648C651.2009,-302.5743 645.5657,-292.4422 640.6094,-283.5307"/>
<polygon fill="#000000" stroke="#000000" points="643.6483,-281.7937 635.729,-274.7556 637.5308,-285.1961 643.6483,-281.7937"/>
</g>
<!-- samples__siteID_siteID__sites_join_No_Rows -->
<g id="node13" class="node">
<title>samples__siteID_siteID__sites_join_No_Rows</title>
<ellipse fill="none" stroke="#000000" cx="759.7601" cy="-173.4156" rx="44.0415" ry="18"/>
<text text-anchor="middle" x="759.7601" y="-169.2156" font-family="Times,serif" font-size="14.00" fill="#000000">No rows</text>
</g>
<!-- samples__siteID_siteID__sites_join&#45;&gt;samples__siteID_siteID__sites_join_No_Rows -->
<g id="edge12" class="edge">
<title>samples__siteID_siteID__sites_join&#45;&gt;samples__siteID_siteID__sites_join_No_Rows</title>
<path fill="none" stroke="#000000" d="M697.1402,-311.5741C712.4888,-277.7105 733.9515,-230.3572 747.3439,-200.8095"/>
<polygon fill="#000000" stroke="#000000" points="750.6154,-202.0697 751.5558,-191.5167 744.2397,-199.1799 750.6154,-202.0697"/>
</g>
<!-- samples__siteID_siteID__sites_where -->
<g id="node8" class="node">
<title>samples__siteID_siteID__sites_where</title>
<ellipse fill="none" stroke="#000000" cx="605.7601" cy="-173.4156" rx="92.1488" ry="29.3315"/>
<text text-anchor="middle" x="605.7601" y="-177.6156" font-family="Times,serif" font-size="14.00" fill="#000000">WHERE</text>
<text text-anchor="middle" x="605.7601" y="-160.8156" font-family="Times,serif" font-size="14.00" fill="#000000">sites.siteID = &quot;HNJ&quot;</text>
</g>
<!-- samples__siteID_siteID__sites_join_Has_Rows&#45;&gt;samples__siteID_siteID__sites_where -->
<g id="edge7" class="edge">
<title>samples__siteID_siteID__sites_join_Has_Rows&#45;&gt;samples__siteID_siteID__sites_where</title>
<path fill="none" stroke="#000000" d="M621.4204,-238.7313C619.5811,-231.0602 617.361,-221.8004 615.1779,-212.6954"/>
<polygon fill="#000000" stroke="#000000" points="618.5786,-211.8671 612.8434,-202.9588 611.7715,-213.4992 618.5786,-211.8671"/>
</g>
<!-- samples__siteID_siteID__sites_where_Has_Rows -->
<g id="node9" class="node">
<title>samples__siteID_siteID__sites_where_Has_Rows</title>
<ellipse fill="none" stroke="#000000" cx="410.7601" cy="-90" rx="47.4704" ry="18"/>
<text text-anchor="middle" x="410.7601" y="-85.8" font-family="Times,serif" font-size="14.00" fill="#000000">Has rows</text>
</g>
<!-- samples__siteID_siteID__sites_where&#45;&gt;samples__siteID_siteID__sites_where_Has_Rows -->
<g id="edge8" class="edge">
<title>samples__siteID_siteID__sites_where&#45;&gt;samples__siteID_siteID__sites_where_Has_Rows</title>
<path fill="none" stroke="#000000" d="M550.4025,-149.7352C518.9408,-136.2768 480.2298,-119.7172 451.5517,-107.4496"/>
<polygon fill="#000000" stroke="#000000" points="452.8064,-104.1795 442.2357,-103.4644 450.0533,-110.6154 452.8064,-104.1795"/>
</g>
<!-- samples__siteID_siteID__sites_where_No_Rows -->
<g id="node11" class="node">
<title>samples__siteID_siteID__sites_where_No_Rows</title>
<ellipse fill="none" stroke="#000000" cx="625.7601" cy="-90" rx="44.0415" ry="18"/>
<text text-anchor="middle" x="625.7601" y="-85.8" font-family="Times,serif" font-size="14.00" fill="#000000">No rows</text>
</g>
<!-- samples__siteID_siteID__sites_where&#45;&gt;samples__siteID_siteID__sites_where_No_Rows -->
<g id="edge10" class="edge">
<title>samples__siteID_siteID__sites_where&#45;&gt;samples__siteID_siteID__sites_where_No_Rows</title>
<path fill="none" stroke="#000000" d="M612.8676,-143.7715C614.857,-135.4742 617.0136,-126.4798 618.9833,-118.2646"/>
<polygon fill="#000000" stroke="#000000" points="622.4236,-118.927 621.3517,-108.3866 615.6165,-117.2949 622.4236,-118.927"/>
</g>
<!-- granted -->
<g id="node10" class="node">
<title>granted</title>
<ellipse fill="none" stroke="#000000" cx="301.7601" cy="-18" rx="71.7874" ry="18"/>
<text text-anchor="middle" x="301.7601" y="-13.8" font-family="Times,serif" font-size="14.00" fill="#000000">Access Granted</text>
</g>
<!-- samples__siteID_siteID__sites_where_Has_Rows&#45;&gt;granted -->
<g id="edge9" class="edge">
<title>samples__siteID_siteID__sites_where_Has_Rows&#45;&gt;granted</title>
<path fill="none" stroke="#000000" d="M387.1087,-74.3771C372.0728,-64.4451 352.366,-51.4278 335.6774,-40.4041"/>
<polygon fill="#000000" stroke="#000000" points="337.5393,-37.4394 327.2663,-34.8481 333.6812,-43.2802 337.5393,-37.4394"/>
</g>
<!-- denied -->
<g id="node12" class="node">
<title>denied</title>
<ellipse fill="none" stroke="#000000" cx="671.7601" cy="-18" rx="68.8581" ry="18"/>
<text text-anchor="middle" x="671.7601" y="-13.8" font-family="Times,serif" font-size="14.00" fill="#000000">Access Denied</text>
</g>
<!-- samples__siteID_siteID__sites_where_No_Rows&#45;&gt;denied -->
<g id="edge11" class="edge">
<title>samples__siteID_siteID__sites_where_No_Rows&#45;&gt;denied</title>
<path fill="none" stroke="#000000" d="M636.8954,-72.5708C642.2956,-64.1184 648.8974,-53.7851 654.8978,-44.3931"/>
<polygon fill="#000000" stroke="#000000" points="657.9732,-46.0802 660.4077,-35.7689 652.0744,-42.3115 657.9732,-46.0802"/>
</g>
<!-- samples__siteID_siteID__sites_join_No_Rows&#45;&gt;denied -->
<g id="edge13" class="edge">
<title>samples__siteID_siteID__sites_join_No_Rows&#45;&gt;denied</title>
<path fill="none" stroke="#000000" d="M749.6654,-155.5875C734.2977,-128.4469 704.929,-76.5792 686.9689,-44.86"/>
<polygon fill="#000000" stroke="#000000" points="689.981,-43.0763 682.0081,-36.0989 683.8897,-46.5254 689.981,-43.0763"/>
</g>
<!-- samples__dataID_dataID__datasets_join_Has_Rows -->
<g id="node15" class="node">
<title>samples__dataID_dataID__datasets_join_Has_Rows</title>
<ellipse fill="none" stroke="#000000" cx="302.7601" cy="-256.8313" rx="47.4704" ry="18"/>
<text text-anchor="middle" x="302.7601" y="-252.6313" font-family="Times,serif" font-size="14.00" fill="#000000">Has rows</text>
</g>
<!-- samples__dataID_dataID__datasets_join&#45;&gt;samples__dataID_dataID__datasets_join_Has_Rows -->
<g id="edge15" class="edge">
<title>samples__dataID_dataID__datasets_join&#45;&gt;samples__dataID_dataID__datasets_join_Has_Rows</title>
<path fill="none" stroke="#000000" d="M425.3319,-320.6591C397.0833,-305.949 364.3513,-288.9042 339.8214,-276.1305"/>
<polygon fill="#000000" stroke="#000000" points="341.3342,-272.9722 330.8482,-271.4578 338.1011,-279.1809 341.3342,-272.9722"/>
</g>
<!-- samples__dataID_dataID__datasets_join_No_Rows -->
<g id="node19" class="node">
<title>samples__dataID_dataID__datasets_join_No_Rows</title>
<ellipse fill="none" stroke="#000000" cx="485.7601" cy="-256.8313" rx="44.0415" ry="18"/>
<text text-anchor="middle" x="485.7601" y="-252.6313" font-family="Times,serif" font-size="14.00" fill="#000000">No rows</text>
</g>
<!-- samples__dataID_dataID__datasets_join&#45;&gt;samples__dataID_dataID__datasets_join_No_Rows -->
<g id="edge21" class="edge">
<title>samples__dataID_dataID__datasets_join&#45;&gt;samples__dataID_dataID__datasets_join_No_Rows</title>
<path fill="none" stroke="#000000" d="M485.7601,-310.6057C485.7601,-302.0541 485.7601,-293.2347 485.7601,-285.2742"/>
<polygon fill="#000000" stroke="#000000" points="489.2602,-285.0572 485.7601,-275.0572 482.2602,-285.0572 489.2602,-285.0572"/>
</g>
<!-- samples__dataID_dataID__datasets_where -->
<g id="node16" class="node">
<title>samples__dataID_dataID__datasets_where</title>
<ellipse fill="none" stroke="#000000" cx="228.7601" cy="-173.4156" rx="228.5204" ry="29.3315"/>
<text text-anchor="middle" x="228.7601" y="-177.6156" font-family="Times,serif" font-size="14.00" fill="#000000">WHERE IN</text>
<text text-anchor="middle" x="228.7601" y="-160.8156" font-family="Times,serif" font-size="14.00" fill="#000000">datasets.dataID = [&quot;NML&#45;WWPCR&quot;,&quot;NML&#45;WWGX&quot;]</text>
</g>
<!-- samples__dataID_dataID__datasets_join_Has_Rows&#45;&gt;samples__dataID_dataID__datasets_where -->
<g id="edge16" class="edge">
<title>samples__dataID_dataID__datasets_join_Has_Rows&#45;&gt;samples__dataID_dataID__datasets_where</title>
<path fill="none" stroke="#000000" d="M287.4272,-239.5475C279.9381,-231.1054 270.6203,-220.6021 261.6316,-210.4697"/>
<polygon fill="#000000" stroke="#000000" points="264.1124,-207.992 254.8578,-202.834 258.8759,-212.6374 264.1124,-207.992"/>
</g>
<!-- samples__dataID_dataID__datasets_where_Has_Rows -->
<g id="node17" class="node">
<title>samples__dataID_dataID__datasets_where_Has_Rows</title>
<ellipse fill="none" stroke="#000000" cx="192.7601" cy="-90" rx="47.4704" ry="18"/>
<text text-anchor="middle" x="192.7601" y="-85.8" font-family="Times,serif" font-size="14.00" fill="#000000">Has rows</text>
</g>
<!-- samples__dataID_dataID__datasets_where&#45;&gt;samples__dataID_dataID__datasets_where_Has_Rows -->
<g id="edge17" class="edge">
<title>samples__dataID_dataID__datasets_where&#45;&gt;samples__dataID_dataID__datasets_where_Has_Rows</title>
<path fill="none" stroke="#000000" d="M215.9665,-143.7715C212.2478,-135.1551 208.2049,-125.7872 204.5509,-117.3206"/>
<polygon fill="#000000" stroke="#000000" points="207.659,-115.6893 200.483,-107.8947 201.232,-118.4631 207.659,-115.6893"/>
</g>
<!-- samples__dataID_dataID__datasets_where_No_Rows -->
<g id="node18" class="node">
<title>samples__dataID_dataID__datasets_where_No_Rows</title>
<ellipse fill="none" stroke="#000000" cx="301.7601" cy="-90" rx="44.0415" ry="18"/>
<text text-anchor="middle" x="301.7601" y="-85.8" font-family="Times,serif" font-size="14.00" fill="#000000">No rows</text>
</g>
<!-- samples__dataID_dataID__datasets_where&#45;&gt;samples__dataID_dataID__datasets_where_No_Rows -->
<g id="edge19" class="edge">
<title>samples__dataID_dataID__datasets_where&#45;&gt;samples__dataID_dataID__datasets_where_No_Rows</title>
<path fill="none" stroke="#000000" d="M254.7027,-143.7715C262.9437,-134.3547 271.9704,-124.0401 279.8943,-114.9856"/>
<polygon fill="#000000" stroke="#000000" points="282.5745,-117.2376 286.5263,-107.4073 277.3068,-112.6276 282.5745,-117.2376"/>
</g>
<!-- samples__dataID_dataID__datasets_where_Has_Rows&#45;&gt;granted -->
<g id="edge18" class="edge">
<title>samples__dataID_dataID__datasets_where_Has_Rows&#45;&gt;granted</title>
<path fill="none" stroke="#000000" d="M216.4115,-74.3771C231.4473,-64.4451 251.1542,-51.4278 267.8427,-40.4041"/>
<polygon fill="#000000" stroke="#000000" points="269.839,-43.2802 276.2539,-34.8481 265.9808,-37.4394 269.839,-43.2802"/>
</g>
<!-- samples__dataID_dataID__datasets_where_No_Rows&#45;&gt;denied -->
<g id="edge20" class="edge">
<title>samples__dataID_dataID__datasets_where_No_Rows&#45;&gt;denied</title>
<path fill="none" stroke="#000000" d="M334.5962,-77.9465C341.2153,-75.7728 348.166,-73.6702 354.7601,-72 437.5948,-51.0196 534.6976,-35.8235 599.395,-26.9949"/>
<polygon fill="#000000" stroke="#000000" points="600.0509,-30.4382 609.4932,-25.6327 599.115,-23.5011 600.0509,-30.4382"/>
</g>
<!-- samples__dataID_dataID__datasets_join_No_Rows&#45;&gt;denied -->
<g id="edge22" class="edge">
<title>samples__dataID_dataID__datasets_join_No_Rows&#45;&gt;denied</title>
<path fill="none" stroke="#000000" d="M485.6277,-238.6424C486.1537,-215.4773 489.4471,-174.7655 504.7601,-144 529.8336,-93.6245 585.725,-58.0737 625.9485,-37.8548"/>
<polygon fill="#000000" stroke="#000000" points="627.5946,-40.946 635.041,-33.4093 624.5199,-34.6574 627.5946,-40.946"/>
</g>
<!-- datasets__dataID_dataID__samples_join_No_Rows&#45;&gt;denied -->
<g id="edge24" class="edge">
<title>datasets__dataID_dataID__samples_join_No_Rows&#45;&gt;denied</title>
<path fill="none" stroke="#000000" d="M798.0982,-429.5519C809.3771,-396.106 831.7601,-321.5763 831.7601,-256.8313 831.7601,-256.8313 831.7601,-256.8313 831.7601,-173.4156 831.7601,-108.9748 764.155,-62.6422 716.8347,-38.1045"/>
<polygon fill="#000000" stroke="#000000" points="718.173,-34.8597 707.6672,-33.4886 715.0249,-41.1119 718.173,-34.8597"/>
</g>
<!-- datasets_where_No_Rows&#45;&gt;denied -->
<g id="edge26" class="edge">
<title>datasets_where_No_Rows&#45;&gt;denied</title>
<path fill="none" stroke="#000000" d="M869.7601,-524.5841C869.7601,-490.7054 869.7601,-415.4909 869.7601,-352.1263 869.7601,-352.1263 869.7601,-352.1263 869.7601,-173.4156 869.7601,-119.3939 844.4591,-106.3444 802.7601,-72 781.899,-54.8183 754.8165,-42.4384 730.6945,-33.9034"/>
<polygon fill="#000000" stroke="#000000" points="731.511,-30.4847 720.9167,-30.592 729.2656,-37.1148 731.511,-30.4847"/>
</g>
</g>
</svg>
