<?xml version="1.0" encoding="UTF-8" standalone="no"?>
<!DOCTYPE svg PUBLIC "-//W3C//DTD SVG 1.1//EN"
 "http://www.w3.org/Graphics/SVG/1.1/DTD/svg11.dtd">
<!-- Generated by graphviz version 2.40.1 (20161225.0304)
 -->
<!-- Title: G Pages: 1 -->
<svg width="806pt" height="831pt"
 viewBox="0.00 0.00 805.58 830.84" xmlns="http://www.w3.org/2000/svg" xmlns:xlink="http://www.w3.org/1999/xlink">
<g id="graph0" class="graph" transform="scale(1 1) rotate(0) translate(4 826.8427)">
<title>G</title>
<polygon fill="#ffffff" stroke="transparent" points="-4,4 -4,-826.8427 801.5823,-826.8427 801.5823,4 -4,4"/>
<!-- datasets -->
<g id="node1" class="node">
<title>datasets</title>
<ellipse fill="none" stroke="#000000" cx="644.2346" cy="-804.8427" rx="41.7075" ry="18"/>
<text text-anchor="middle" x="644.2346" y="-800.6427" font-family="Times,serif" font-size="14.00" fill="#000000">datasets</text>
</g>
<!-- datasets_where -->
<g id="node2" class="node">
<title>datasets_where</title>
<ellipse fill="none" stroke="#000000" cx="644.2346" cy="-721.4271" rx="153.1956" ry="29.3315"/>
<text text-anchor="middle" x="644.2346" y="-725.6271" font-family="Times,serif" font-size="14.00" fill="#000000">WHERE</text>
<text text-anchor="middle" x="644.2346" y="-708.8271" font-family="Times,serif" font-size="14.00" fill="#000000">datasets.dataID = &quot;NML&#45;WWPCR&quot;</text>
</g>
<!-- datasets&#45;&gt;datasets_where -->
<g id="edge1" class="edge">
<title>datasets&#45;&gt;datasets_where</title>
<path fill="none" stroke="#000000" d="M644.2346,-786.7428C644.2346,-779.1532 644.2346,-770.0087 644.2346,-760.9975"/>
<polygon fill="#000000" stroke="#000000" points="647.7347,-760.9702 644.2346,-750.9702 640.7347,-760.9702 647.7347,-760.9702"/>
</g>
<!-- datasets_where_Has_Rows -->
<g id="node3" class="node">
<title>datasets_where_Has_Rows</title>
<ellipse fill="none" stroke="#000000" cx="607.2346" cy="-638.0114" rx="47.4704" ry="18"/>
<text text-anchor="middle" x="607.2346" y="-633.8114" font-family="Times,serif" font-size="14.00" fill="#000000">Has rows</text>
</g>
<!-- datasets_where&#45;&gt;datasets_where_Has_Rows -->
<g id="edge2" class="edge">
<title>datasets_where&#45;&gt;datasets_where_Has_Rows</title>
<path fill="none" stroke="#000000" d="M631.0856,-691.783C627.2222,-683.0729 623.0181,-673.5949 619.2307,-665.0563"/>
<polygon fill="#000000" stroke="#000000" points="622.4261,-663.6281 615.172,-655.9062 616.0273,-666.4664 622.4261,-663.6281"/>
</g>
<!-- datasets_where_No_Rows -->
<g id="node21" class="node">
<title>datasets_where_No_Rows</title>
<ellipse fill="none" stroke="#000000" cx="722.2346" cy="-542.7164" rx="44.0415" ry="18"/>
<text text-anchor="middle" x="722.2346" y="-538.5164" font-family="Times,serif" font-size="14.00" fill="#000000">No rows</text>
</g>
<!-- datasets_where&#45;&gt;datasets_where_No_Rows -->
<g id="edge25" class="edge">
<title>datasets_where&#45;&gt;datasets_where_No_Rows</title>
<path fill="none" stroke="#000000" d="M657.1147,-691.9166C671.8589,-658.1352 695.8211,-603.234 710.2011,-570.2872"/>
<polygon fill="#000000" stroke="#000000" points="713.5429,-571.38 714.3353,-560.8149 707.1273,-568.5799 713.5429,-571.38"/>
</g>
<!-- datasets__dataID_dataID__samples_join -->
<g id="node4" class="node">
<title>datasets__dataID_dataID__samples_join</title>
<ellipse fill="none" stroke="#000000" cx="567.2346" cy="-542.7164" rx="93.4765" ry="41.0911"/>
<text text-anchor="middle" x="567.2346" y="-555.3164" font-family="Times,serif" font-size="14.00" fill="#000000">LEFT JOIN samples</text>
<text text-anchor="middle" x="567.2346" y="-538.5164" font-family="Times,serif" font-size="14.00" fill="#000000">At level: 2</text>
<text text-anchor="middle" x="567.2346" y="-521.7164" font-family="Times,serif" font-size="14.00" fill="#000000">Required: true</text>
</g>
<!-- datasets_where_Has_Rows&#45;&gt;datasets__dataID_dataID__samples_join -->
<g id="edge3" class="edge">
<title>datasets_where_Has_Rows&#45;&gt;datasets__dataID_dataID__samples_join</title>
<path fill="none" stroke="#000000" d="M599.7109,-620.0872C596.4181,-612.2425 592.3741,-602.6081 588.2717,-592.8347"/>
<polygon fill="#000000" stroke="#000000" points="591.4409,-591.3416 584.3432,-583.4756 584.9864,-594.0509 591.4409,-591.3416"/>
</g>
<!-- datasets__dataID_dataID__samples_join_Has_Rows -->
<g id="node5" class="node">
<title>datasets__dataID_dataID__samples_join_Has_Rows</title>
<ellipse fill="none" stroke="#000000" cx="531.2346" cy="-447.4214" rx="47.4704" ry="18"/>
<text text-anchor="middle" x="531.2346" y="-443.2214" font-family="Times,serif" font-size="14.00" fill="#000000">Has rows</text>
</g>
<!-- datasets__dataID_dataID__samples_join&#45;&gt;datasets__dataID_dataID__samples_join_Has_Rows -->
<g id="edge4" class="edge">
<title>datasets__dataID_dataID__samples_join&#45;&gt;datasets__dataID_dataID__samples_join_Has_Rows</title>
<path fill="none" stroke="#000000" d="M551.7584,-501.7497C548.3442,-492.712 544.8065,-483.3472 541.6496,-474.9908"/>
<polygon fill="#000000" stroke="#000000" points="544.83,-473.5054 538.0218,-465.3876 538.2817,-475.9793 544.83,-473.5054"/>
</g>
<!-- datasets__dataID_dataID__samples_join_No_Rows -->
<g id="node20" class="node">
<title>datasets__dataID_dataID__samples_join_No_Rows</title>
<ellipse fill="none" stroke="#000000" cx="644.2346" cy="-447.4214" rx="44.0415" ry="18"/>
<text text-anchor="middle" x="644.2346" y="-443.2214" font-family="Times,serif" font-size="14.00" fill="#000000">No rows</text>
</g>
<!-- datasets__dataID_dataID__samples_join&#45;&gt;datasets__dataID_dataID__samples_join_No_Rows -->
<g id="edge23" class="edge">
<title>datasets__dataID_dataID__samples_join&#45;&gt;datasets__dataID_dataID__samples_join_No_Rows</title>
<path fill="none" stroke="#000000" d="M598.7756,-503.6813C607.256,-493.186 616.2024,-482.114 623.8943,-472.5945"/>
<polygon fill="#000000" stroke="#000000" points="626.7251,-474.6599 630.2877,-464.682 621.2804,-470.2605 626.7251,-474.6599"/>
</g>
<!-- samples__siteID_siteID__sites_join -->
<g id="node6" class="node">
<title>samples__siteID_siteID__sites_join</title>
<ellipse fill="none" stroke="#000000" cx="531.2346" cy="-352.1263" rx="78.8882" ry="41.0911"/>
<text text-anchor="middle" x="531.2346" y="-364.7263" font-family="Times,serif" font-size="14.00" fill="#000000">LEFT JOIN sites</text>
<text text-anchor="middle" x="531.2346" y="-347.9263" font-family="Times,serif" font-size="14.00" fill="#000000">At level: 1</text>
<text text-anchor="middle" x="531.2346" y="-331.1263" font-family="Times,serif" font-size="14.00" fill="#000000">Required: true</text>
</g>
<!-- datasets__dataID_dataID__samples_join_Has_Rows&#45;&gt;samples__siteID_siteID__sites_join -->
<g id="edge5" class="edge">
<title>datasets__dataID_dataID__samples_join_Has_Rows&#45;&gt;samples__siteID_siteID__sites_join</title>
<path fill="none" stroke="#000000" d="M531.2346,-429.0475C531.2346,-421.7384 531.2346,-412.9288 531.2346,-403.92"/>
<polygon fill="#000000" stroke="#000000" points="534.7347,-403.7335 531.2346,-393.7335 527.7347,-403.7335 534.7347,-403.7335"/>
</g>
<!-- samples__dataID_dataID__datasets_join -->
<g id="node14" class="node">
<title>samples__dataID_dataID__datasets_join</title>
<ellipse fill="none" stroke="#000000" cx="338.2346" cy="-352.1263" rx="92.8656" ry="41.0911"/>
<text text-anchor="middle" x="338.2346" y="-364.7263" font-family="Times,serif" font-size="14.00" fill="#000000">LEFT JOIN datasets</text>
<text text-anchor="middle" x="338.2346" y="-347.9263" font-family="Times,serif" font-size="14.00" fill="#000000">At level: 1</text>
<text text-anchor="middle" x="338.2346" y="-331.1263" font-family="Times,serif" font-size="14.00" fill="#000000">Required: true</text>
</g>
<!-- datasets__dataID_dataID__samples_join_Has_Rows&#45;&gt;samples__dataID_dataID__datasets_join -->
<g id="edge14" class="edge">
<title>datasets__dataID_dataID__samples_join_Has_Rows&#45;&gt;samples__dataID_dataID__datasets_join</title>
<path fill="none" stroke="#000000" d="M502.3405,-433.1547C477.9346,-421.1041 441.9344,-403.3288 409.8663,-387.4949"/>
<polygon fill="#000000" stroke="#000000" points="411.0157,-384.1591 400.4996,-382.8701 407.9166,-390.4357 411.0157,-384.1591"/>
</g>
<!-- samples__siteID_siteID__sites_join_Has_Rows -->
<g id="node7" class="node">
<title>samples__siteID_siteID__sites_join_Has_Rows</title>
<ellipse fill="none" stroke="#000000" cx="478.2346" cy="-256.8313" rx="47.4704" ry="18"/>
<text text-anchor="middle" x="478.2346" y="-252.6313" font-family="Times,serif" font-size="14.00" fill="#000000">Has rows</text>
</g>
<!-- samples__siteID_siteID__sites_join&#45;&gt;samples__siteID_siteID__sites_join_Has_Rows -->
<g id="edge6" class="edge">
<title>samples__siteID_siteID__sites_join&#45;&gt;samples__siteID_siteID__sites_join_Has_Rows</title>
<path fill="none" stroke="#000000" d="M509.0649,-312.2648C503.6754,-302.5743 498.0402,-292.4422 493.084,-283.5307"/>
<polygon fill="#000000" stroke="#000000" points="496.1228,-281.7937 488.2035,-274.7556 490.0053,-285.1961 496.1228,-281.7937"/>
</g>
<!-- samples__siteID_siteID__sites_join_No_Rows -->
<g id="node13" class="node">
<title>samples__siteID_siteID__sites_join_No_Rows</title>
<ellipse fill="none" stroke="#000000" cx="612.2346" cy="-173.4156" rx="44.0415" ry="18"/>
<text text-anchor="middle" x="612.2346" y="-169.2156" font-family="Times,serif" font-size="14.00" fill="#000000">No rows</text>
</g>
<!-- samples__siteID_siteID__sites_join&#45;&gt;samples__siteID_siteID__sites_join_No_Rows -->
<g id="edge12" class="edge">
<title>samples__siteID_siteID__sites_join&#45;&gt;samples__siteID_siteID__sites_join_No_Rows</title>
<path fill="none" stroke="#000000" d="M549.6148,-311.5741C564.9633,-277.7105 586.426,-230.3572 599.8184,-200.8095"/>
<polygon fill="#000000" stroke="#000000" points="603.0899,-202.0697 604.0303,-191.5167 596.7142,-199.1799 603.0899,-202.0697"/>
</g>
<!-- samples__siteID_siteID__sites_where -->
<g id="node8" class="node">
<title>samples__siteID_siteID__sites_where</title>
<ellipse fill="none" stroke="#000000" cx="458.2346" cy="-173.4156" rx="92.1488" ry="29.3315"/>
<text text-anchor="middle" x="458.2346" y="-177.6156" font-family="Times,serif" font-size="14.00" fill="#000000">WHERE</text>
<text text-anchor="middle" x="458.2346" y="-160.8156" font-family="Times,serif" font-size="14.00" fill="#000000">sites.siteID = &quot;HNJ&quot;</text>
</g>
<!-- samples__siteID_siteID__sites_join_Has_Rows&#45;&gt;samples__siteID_siteID__sites_where -->
<g id="edge7" class="edge">
<title>samples__siteID_siteID__sites_join_Has_Rows&#45;&gt;samples__siteID_siteID__sites_where</title>
<path fill="none" stroke="#000000" d="M473.8949,-238.7313C472.0556,-231.0602 469.8355,-221.8004 467.6524,-212.6954"/>
<polygon fill="#000000" stroke="#000000" points="471.0531,-211.8671 465.318,-202.9588 464.246,-213.4992 471.0531,-211.8671"/>
</g>
<!-- samples__siteID_siteID__sites_where_Has_Rows -->
<g id="node9" class="node">
<title>samples__siteID_siteID__sites_where_Has_Rows</title>
<ellipse fill="none" stroke="#000000" cx="265.2346" cy="-90" rx="47.4704" ry="18"/>
<text text-anchor="middle" x="265.2346" y="-85.8" font-family="Times,serif" font-size="14.00" fill="#000000">Has rows</text>
</g>
<!-- samples__siteID_siteID__sites_where&#45;&gt;samples__siteID_siteID__sites_where_Has_Rows -->
<g id="edge8" class="edge">
<title>samples__siteID_siteID__sites_where&#45;&gt;samples__siteID_siteID__sites_where_Has_Rows</title>
<path fill="none" stroke="#000000" d="M403.4448,-149.7352C372.4059,-136.32 334.2381,-119.8237 305.882,-107.568"/>
<polygon fill="#000000" stroke="#000000" points="307.2341,-104.3396 296.6662,-103.5849 304.4569,-110.7651 307.2341,-104.3396"/>
</g>
<!-- samples__siteID_siteID__sites_where_No_Rows -->
<g id="node11" class="node">
<title>samples__siteID_siteID__sites_where_No_Rows</title>
<ellipse fill="none" stroke="#000000" cx="499.2346" cy="-90" rx="44.0415" ry="18"/>
<text text-anchor="middle" x="499.2346" y="-85.8" font-family="Times,serif" font-size="14.00" fill="#000000">No rows</text>
</g>
<!-- samples__siteID_siteID__sites_where&#45;&gt;samples__siteID_siteID__sites_where_No_Rows -->
<g id="edge10" class="edge">
<title>samples__siteID_siteID__sites_where&#45;&gt;samples__siteID_siteID__sites_where_No_Rows</title>
<path fill="none" stroke="#000000" d="M472.5744,-144.2409C476.8696,-135.5023 481.5624,-125.9545 485.7972,-117.3387"/>
<polygon fill="#000000" stroke="#000000" points="489.0681,-118.6184 490.3382,-108.1 482.786,-115.5306 489.0681,-118.6184"/>
</g>
<!-- granted -->
<g id="node10" class="node">
<title>granted</title>
<ellipse fill="none" stroke="#000000" cx="156.2346" cy="-18" rx="71.7874" ry="18"/>
<text text-anchor="middle" x="156.2346" y="-13.8" font-family="Times,serif" font-size="14.00" fill="#000000">Access Granted</text>
</g>
<!-- samples__siteID_siteID__sites_where_Has_Rows&#45;&gt;granted -->
<g id="edge9" class="edge">
<title>samples__siteID_siteID__sites_where_Has_Rows&#45;&gt;granted</title>
<path fill="none" stroke="#000000" d="M241.5832,-74.3771C226.5473,-64.4451 206.8405,-51.4278 190.152,-40.4041"/>
<polygon fill="#000000" stroke="#000000" points="192.0139,-37.4394 181.7408,-34.8481 188.1557,-43.2802 192.0139,-37.4394"/>
</g>
<!-- denied -->
<g id="node12" class="node">
<title>denied</title>
<ellipse fill="none" stroke="#000000" cx="545.2346" cy="-18" rx="68.8581" ry="18"/>
<text text-anchor="middle" x="545.2346" y="-13.8" font-family="Times,serif" font-size="14.00" fill="#000000">Access Denied</text>
</g>
<!-- samples__siteID_siteID__sites_where_No_Rows&#45;&gt;denied -->
<g id="edge11" class="edge">
<title>samples__siteID_siteID__sites_where_No_Rows&#45;&gt;denied</title>
<path fill="none" stroke="#000000" d="M510.3699,-72.5708C515.7701,-64.1184 522.3719,-53.7851 528.3724,-44.3931"/>
<polygon fill="#000000" stroke="#000000" points="531.4478,-46.0802 533.8823,-35.7689 525.5489,-42.3115 531.4478,-46.0802"/>
</g>
<!-- samples__siteID_siteID__sites_join_No_Rows&#45;&gt;denied -->
<g id="edge13" class="edge">
<title>samples__siteID_siteID__sites_join_No_Rows&#45;&gt;denied</title>
<path fill="none" stroke="#000000" d="M604.5488,-155.5875C592.9489,-128.6799 570.8713,-77.4678 557.168,-45.6812"/>
<polygon fill="#000000" stroke="#000000" points="560.21,-43.8964 553.0371,-36.0989 553.7819,-46.6676 560.21,-43.8964"/>
</g>
<!-- samples__dataID_dataID__datasets_join_Has_Rows -->
<g id="node15" class="node">
<title>samples__dataID_dataID__datasets_join_Has_Rows</title>
<ellipse fill="none" stroke="#000000" cx="193.2346" cy="-256.8313" rx="47.4704" ry="18"/>
<text text-anchor="middle" x="193.2346" y="-252.6313" font-family="Times,serif" font-size="14.00" fill="#000000">Has rows</text>
</g>
<!-- samples__dataID_dataID__datasets_join&#45;&gt;samples__dataID_dataID__datasets_join_Has_Rows -->
<g id="edge15" class="edge">
<title>samples__dataID_dataID__datasets_join&#45;&gt;samples__dataID_dataID__datasets_join_Has_Rows</title>
<path fill="none" stroke="#000000" d="M285.8863,-317.7226C265.8534,-304.5569 243.5907,-289.9257 225.9098,-278.3056"/>
<polygon fill="#000000" stroke="#000000" points="227.3966,-275.0946 217.1175,-272.5273 223.552,-280.9444 227.3966,-275.0946"/>
</g>
<!-- samples__dataID_dataID__datasets_join_No_Rows -->
<g id="node19" class="node">
<title>samples__dataID_dataID__datasets_join_No_Rows</title>
<ellipse fill="none" stroke="#000000" cx="338.2346" cy="-256.8313" rx="44.0415" ry="18"/>
<text text-anchor="middle" x="338.2346" y="-252.6313" font-family="Times,serif" font-size="14.00" fill="#000000">No rows</text>
</g>
<!-- samples__dataID_dataID__datasets_join&#45;&gt;samples__dataID_dataID__datasets_join_No_Rows -->
<g id="edge21" class="edge">
<title>samples__dataID_dataID__datasets_join&#45;&gt;samples__dataID_dataID__datasets_join_No_Rows</title>
<path fill="none" stroke="#000000" d="M338.2346,-310.6057C338.2346,-302.0541 338.2346,-293.2347 338.2346,-285.2742"/>
<polygon fill="#000000" stroke="#000000" points="341.7347,-285.0572 338.2346,-275.0572 334.7347,-285.0572 341.7347,-285.0572"/>
</g>
<!-- samples__dataID_dataID__datasets_where -->
<g id="node16" class="node">
<title>samples__dataID_dataID__datasets_where</title>
<ellipse fill="none" stroke="#000000" cx="156.2346" cy="-173.4156" rx="153.1956" ry="29.3315"/>
<text text-anchor="middle" x="156.2346" y="-177.6156" font-family="Times,serif" font-size="14.00" fill="#000000">WHERE</text>
<text text-anchor="middle" x="156.2346" y="-160.8156" font-family="Times,serif" font-size="14.00" fill="#000000">datasets.dataID = &quot;NML&#45;WWPCR&quot;</text>
</g>
<!-- samples__dataID_dataID__datasets_join_Has_Rows&#45;&gt;samples__dataID_dataID__datasets_where -->
<g id="edge16" class="edge">
<title>samples__dataID_dataID__datasets_join_Has_Rows&#45;&gt;samples__dataID_dataID__datasets_where</title>
<path fill="none" stroke="#000000" d="M185.2062,-238.7313C181.7311,-230.897 177.5211,-221.4056 173.3999,-212.1145"/>
<polygon fill="#000000" stroke="#000000" points="176.5929,-210.6807 169.3388,-202.9588 170.1941,-213.519 176.5929,-210.6807"/>
</g>
<!-- samples__dataID_dataID__datasets_where_Has_Rows -->
<g id="node17" class="node">
<title>samples__dataID_dataID__datasets_where_Has_Rows</title>
<ellipse fill="none" stroke="#000000" cx="47.2346" cy="-90" rx="47.4704" ry="18"/>
<text text-anchor="middle" x="47.2346" y="-85.8" font-family="Times,serif" font-size="14.00" fill="#000000">Has rows</text>
</g>
<!-- samples__dataID_dataID__datasets_where&#45;&gt;samples__dataID_dataID__datasets_where_Has_Rows -->
<g id="edge17" class="edge">
<title>samples__dataID_dataID__datasets_where&#45;&gt;samples__dataID_dataID__datasets_where_Has_Rows</title>
<path fill="none" stroke="#000000" d="M118.723,-144.7087C104.9826,-134.1934 89.6414,-122.4531 76.7042,-112.5525"/>
<polygon fill="#000000" stroke="#000000" points="78.6592,-109.6414 68.5907,-106.3434 74.405,-115.2004 78.6592,-109.6414"/>
</g>
<!-- samples__dataID_dataID__datasets_where_No_Rows -->
<g id="node18" class="node">
<title>samples__dataID_dataID__datasets_where_No_Rows</title>
<ellipse fill="none" stroke="#000000" cx="156.2346" cy="-90" rx="44.0415" ry="18"/>
<text text-anchor="middle" x="156.2346" y="-85.8" font-family="Times,serif" font-size="14.00" fill="#000000">No rows</text>
</g>
<!-- samples__dataID_dataID__datasets_where&#45;&gt;samples__dataID_dataID__datasets_where_No_Rows -->
<g id="edge19" class="edge">
<title>samples__dataID_dataID__datasets_where&#45;&gt;samples__dataID_dataID__datasets_where_No_Rows</title>
<path fill="none" stroke="#000000" d="M156.2346,-143.7715C156.2346,-135.5664 156.2346,-126.6796 156.2346,-118.5388"/>
<polygon fill="#000000" stroke="#000000" points="159.7347,-118.3865 156.2346,-108.3866 152.7347,-118.3866 159.7347,-118.3865"/>
</g>
<!-- samples__dataID_dataID__datasets_where_Has_Rows&#45;&gt;granted -->
<g id="edge18" class="edge">
<title>samples__dataID_dataID__datasets_where_Has_Rows&#45;&gt;granted</title>
<path fill="none" stroke="#000000" d="M70.886,-74.3771C85.9219,-64.4451 105.6287,-51.4278 122.3172,-40.4041"/>
<polygon fill="#000000" stroke="#000000" points="124.3135,-43.2802 130.7284,-34.8481 120.4553,-37.4394 124.3135,-43.2802"/>
</g>
<!-- samples__dataID_dataID__datasets_where_No_Rows&#45;&gt;denied -->
<g id="edge20" class="edge">
<title>samples__dataID_dataID__datasets_where_No_Rows&#45;&gt;denied</title>
<path fill="none" stroke="#000000" d="M189.0584,-77.8975C195.6786,-75.7278 202.6328,-73.6392 209.2346,-72 298.2726,-49.8921 402.9158,-34.7363 471.4751,-26.2328"/>
<polygon fill="#000000" stroke="#000000" points="472.2408,-29.6652 481.7412,-24.9757 471.3899,-22.7171 472.2408,-29.6652"/>
</g>
<!-- samples__dataID_dataID__datasets_join_No_Rows&#45;&gt;denied -->
<g id="edge22" class="edge">
<title>samples__dataID_dataID__datasets_join_No_Rows&#45;&gt;denied</title>
<path fill="none" stroke="#000000" d="M337.4675,-238.7042C337.2878,-215.2446 339.7996,-173.8448 357.2346,-144 388.0426,-91.2636 450.7516,-56.1151 495.2622,-36.6392"/>
<polygon fill="#000000" stroke="#000000" points="496.6364,-39.8583 504.466,-32.7205 493.8942,-33.4177 496.6364,-39.8583"/>
</g>
<!-- datasets__dataID_dataID__samples_join_No_Rows&#45;&gt;denied -->
<g id="edge24" class="edge">
<title>datasets__dataID_dataID__samples_join_No_Rows&#45;&gt;denied</title>
<path fill="none" stroke="#000000" d="M650.5727,-429.5519C661.8516,-396.106 684.2346,-321.5763 684.2346,-256.8313 684.2346,-256.8313 684.2346,-256.8313 684.2346,-173.4156 684.2346,-113.2174 625.5792,-65.6463 584.4736,-39.6997"/>
<polygon fill="#000000" stroke="#000000" points="586.0928,-36.5869 575.7387,-34.341 582.4323,-42.5536 586.0928,-36.5869"/>
</g>
<!-- datasets_where_No_Rows&#45;&gt;denied -->
<g id="edge26" class="edge">
<title>datasets_where_No_Rows&#45;&gt;denied</title>
<path fill="none" stroke="#000000" d="M722.2346,-524.5841C722.2346,-490.7054 722.2346,-415.4909 722.2346,-352.1263 722.2346,-352.1263 722.2346,-352.1263 722.2346,-173.4156 722.2346,-120.5863 699.5826,-107.2516 660.2346,-72 642.6404,-56.2375 619.6403,-44.2125 598.8367,-35.5567"/>
<polygon fill="#000000" stroke="#000000" points="600.0453,-32.2706 589.4602,-31.8154 597.4511,-38.7722 600.0453,-32.2706"/>
</g>
</g>
</svg>
