<?xml version="1.0" encoding="UTF-8" standalone="no"?>
<!DOCTYPE svg PUBLIC "-//W3C//DTD SVG 1.1//EN"
 "http://www.w3.org/Graphics/SVG/1.1/DTD/svg11.dtd">
<!-- Generated by graphviz version 2.40.1 (20161225.0304)
 -->
<!-- Title: G Pages: 1 -->
<svg width="1277pt" height="831pt"
 viewBox="0.00 0.00 1276.52 830.84" xmlns="http://www.w3.org/2000/svg" xmlns:xlink="http://www.w3.org/1999/xlink">
<g id="graph0" class="graph" transform="scale(1 1) rotate(0) translate(4 826.8427)">
<title>G</title>
<polygon fill="#ffffff" stroke="transparent" points="-4,4 -4,-826.8427 1272.5201,-826.8427 1272.5201,4 -4,4"/>
<!-- datasets -->
<g id="node1" class="node">
<title>datasets</title>
<ellipse fill="none" stroke="#000000" cx="1039.7601" cy="-804.8427" rx="41.7075" ry="18"/>
<text text-anchor="middle" x="1039.7601" y="-800.6427" font-family="Times,serif" font-size="14.00" fill="#000000">datasets</text>
</g>
<!-- datasets_where -->
<g id="node2" class="node">
<title>datasets_where</title>
<ellipse fill="none" stroke="#000000" cx="1039.7601" cy="-721.4271" rx="228.5204" ry="29.3315"/>
<text text-anchor="middle" x="1039.7601" y="-725.6271" font-family="Times,serif" font-size="14.00" fill="#000000">WHERE IN</text>
<text text-anchor="middle" x="1039.7601" y="-708.8271" font-family="Times,serif" font-size="14.00" fill="#000000">datasets.dataID = [&quot;NML&#45;WWPCR&quot;,&quot;NML&#45;WWGX&quot;]</text>
</g>
<!-- datasets&#45;&gt;datasets_where -->
<g id="edge1" class="edge">
<title>datasets&#45;&gt;datasets_where</title>
<path fill="none" stroke="#000000" d="M1039.7601,-786.7428C1039.7601,-779.1532 1039.7601,-770.0087 1039.7601,-760.9975"/>
<polygon fill="#000000" stroke="#000000" points="1043.2602,-760.9702 1039.7601,-750.9702 1036.2602,-760.9702 1043.2602,-760.9702"/>
</g>
<!-- datasets_where_Has_Rows -->
<g id="node3" class="node">
<title>datasets_where_Has_Rows</title>
<ellipse fill="none" stroke="#000000" cx="1002.7601" cy="-638.0114" rx="47.4704" ry="18"/>
<text text-anchor="middle" x="1002.7601" y="-633.8114" font-family="Times,serif" font-size="14.00" fill="#000000">Has rows</text>
</g>
<!-- datasets_where&#45;&gt;datasets_where_Has_Rows -->
<g id="edge2" class="edge">
<title>datasets_where&#45;&gt;datasets_where_Has_Rows</title>
<path fill="none" stroke="#000000" d="M1026.6111,-691.783C1022.7476,-683.0729 1018.5435,-673.5949 1014.7561,-665.0563"/>
<polygon fill="#000000" stroke="#000000" points="1017.9516,-663.6281 1010.6975,-655.9062 1011.5528,-666.4664 1017.9516,-663.6281"/>
</g>
<!-- datasets_where_No_Rows -->
<g id="node21" class="node">
<title>datasets_where_No_Rows</title>
<ellipse fill="none" stroke="#000000" cx="1117.7601" cy="-542.7164" rx="44.0415" ry="18"/>
<text text-anchor="middle" x="1117.7601" y="-538.5164" font-family="Times,serif" font-size="14.00" fill="#000000">No rows</text>
</g>
<!-- datasets_where&#45;&gt;datasets_where_No_Rows -->
<g id="edge25" class="edge">
<title>datasets_where&#45;&gt;datasets_where_No_Rows</title>
<path fill="none" stroke="#000000" d="M1052.6402,-691.9166C1067.3844,-658.1352 1091.3466,-603.234 1105.7265,-570.2872"/>
<polygon fill="#000000" stroke="#000000" points="1109.0684,-571.38 1109.8608,-560.8149 1102.6528,-568.5799 1109.0684,-571.38"/>
</g>
<!-- datasets__dataID_dataID__samples_join -->
<g id="node4" class="node">
<title>datasets__dataID_dataID__samples_join</title>
<ellipse fill="none" stroke="#000000" cx="962.7601" cy="-542.7164" rx="93.4765" ry="41.0911"/>
<text text-anchor="middle" x="962.7601" y="-555.3164" font-family="Times,serif" font-size="14.00" fill="#000000">LEFT JOIN samples</text>
<text text-anchor="middle" x="962.7601" y="-538.5164" font-family="Times,serif" font-size="14.00" fill="#000000">At level: 2</text>
<text text-anchor="middle" x="962.7601" y="-521.7164" font-family="Times,serif" font-size="14.00" fill="#000000">Required: true</text>
</g>
<!-- datasets_where_Has_Rows&#45;&gt;datasets__dataID_dataID__samples_join -->
<g id="edge3" class="edge">
<title>datasets_where_Has_Rows&#45;&gt;datasets__dataID_dataID__samples_join</title>
<path fill="none" stroke="#000000" d="M995.2364,-620.0872C991.9436,-612.2425 987.8996,-602.6081 983.7972,-592.8347"/>
<polygon fill="#000000" stroke="#000000" points="986.9664,-591.3416 979.8687,-583.4756 980.5119,-594.0509 986.9664,-591.3416"/>
</g>
<!-- datasets__dataID_dataID__samples_join_Has_Rows -->
<g id="node5" class="node">
<title>datasets__dataID_dataID__samples_join_Has_Rows</title>
<ellipse fill="none" stroke="#000000" cx="863.7601" cy="-447.4214" rx="47.4704" ry="18"/>
<text text-anchor="middle" x="863.7601" y="-443.2214" font-family="Times,serif" font-size="14.00" fill="#000000">Has rows</text>
</g>
<!-- datasets__dataID_dataID__samples_join&#45;&gt;datasets__dataID_dataID__samples_join_Has_Rows -->
<g id="edge4" class="edge">
<title>datasets__dataID_dataID__samples_join&#45;&gt;datasets__dataID_dataID__samples_join_Has_Rows</title>
<path fill="none" stroke="#000000" d="M923.6327,-505.0533C911.8031,-493.6664 899.1459,-481.483 888.5307,-471.2649"/>
<polygon fill="#000000" stroke="#000000" points="890.8349,-468.6249 881.203,-464.2115 885.9804,-473.6681 890.8349,-468.6249"/>
</g>
<!-- datasets__dataID_dataID__samples_join_No_Rows -->
<g id="node20" class="node">
<title>datasets__dataID_dataID__samples_join_No_Rows</title>
<ellipse fill="none" stroke="#000000" cx="1004.7601" cy="-447.4214" rx="44.0415" ry="18"/>
<text text-anchor="middle" x="1004.7601" y="-443.2214" font-family="Times,serif" font-size="14.00" fill="#000000">No rows</text>
</g>
<!-- datasets__dataID_dataID__samples_join&#45;&gt;datasets__dataID_dataID__samples_join_No_Rows -->
<g id="edge23" class="edge">
<title>datasets__dataID_dataID__samples_join&#45;&gt;datasets__dataID_dataID__samples_join_No_Rows</title>
<path fill="none" stroke="#000000" d="M980.6937,-502.0263C984.732,-492.8636 988.925,-483.3501 992.6577,-474.8807"/>
<polygon fill="#000000" stroke="#000000" points="995.9611,-476.0637 996.7915,-465.5015 989.5557,-473.2406 995.9611,-476.0637"/>
</g>
<!-- samples__siteID_siteID__sites_join -->
<g id="node6" class="node">
<title>samples__siteID_siteID__sites_join</title>
<ellipse fill="none" stroke="#000000" cx="863.7601" cy="-352.1263" rx="78.8882" ry="41.0911"/>
<text text-anchor="middle" x="863.7601" y="-364.7263" font-family="Times,serif" font-size="14.00" fill="#000000">LEFT JOIN sites</text>
<text text-anchor="middle" x="863.7601" y="-347.9263" font-family="Times,serif" font-size="14.00" fill="#000000">At level: 1</text>
<text text-anchor="middle" x="863.7601" y="-331.1263" font-family="Times,serif" font-size="14.00" fill="#000000">Required: true</text>
</g>
<!-- datasets__dataID_dataID__samples_join_Has_Rows&#45;&gt;samples__siteID_siteID__sites_join -->
<g id="edge5" class="edge">
<title>datasets__dataID_dataID__samples_join_Has_Rows&#45;&gt;samples__siteID_siteID__sites_join</title>
<path fill="none" stroke="#000000" d="M863.7601,-429.0475C863.7601,-421.7384 863.7601,-412.9288 863.7601,-403.92"/>
<polygon fill="#000000" stroke="#000000" points="867.2602,-403.7335 863.7601,-393.7335 860.2602,-403.7335 867.2602,-403.7335"/>
</g>
<!-- samples__dataID_dataID__datasets_join -->
<g id="node14" class="node">
<title>samples__dataID_dataID__datasets_join</title>
<ellipse fill="none" stroke="#000000" cx="485.7601" cy="-352.1263" rx="92.8656" ry="41.0911"/>
<text text-anchor="middle" x="485.7601" y="-364.7263" font-family="Times,serif" font-size="14.00" fill="#000000">LEFT JOIN datasets</text>
<text text-anchor="middle" x="485.7601" y="-347.9263" font-family="Times,serif" font-size="14.00" fill="#000000">At level: 1</text>
<text text-anchor="middle" x="485.7601" y="-331.1263" font-family="Times,serif" font-size="14.00" fill="#000000">Required: true</text>
</g>
<!-- datasets__dataID_dataID__samples_join_Has_Rows&#45;&gt;samples__dataID_dataID__datasets_join -->
<g id="edge14" class="edge">
<title>datasets__dataID_dataID__samples_join_Has_Rows&#45;&gt;samples__dataID_dataID__datasets_join</title>
<path fill="none" stroke="#000000" d="M824.0219,-437.4032C765.6717,-422.693 655.2088,-394.8449 576.3904,-374.9745"/>
<polygon fill="#000000" stroke="#000000" points="577.0097,-371.5212 566.4575,-372.4704 575.2985,-378.3088 577.0097,-371.5212"/>
</g>
<!-- samples__siteID_siteID__sites_join_Has_Rows -->
<g id="node7" class="node">
<title>samples__siteID_siteID__sites_join_Has_Rows</title>
<ellipse fill="none" stroke="#000000" cx="760.7601" cy="-256.8313" rx="47.4704" ry="18"/>
<text text-anchor="middle" x="760.7601" y="-252.6313" font-family="Times,serif" font-size="14.00" fill="#000000">Has rows</text>
</g>
<!-- samples__siteID_siteID__sites_join&#45;&gt;samples__siteID_siteID__sites_join_Has_Rows -->
<g id="edge6" class="edge">
<title>samples__siteID_siteID__sites_join&#45;&gt;samples__siteID_siteID__sites_join_Has_Rows</title>
<path fill="none" stroke="#000000" d="M824.8202,-316.0994C812.045,-304.2799 798.1717,-291.4443 786.6129,-280.7502"/>
<polygon fill="#000000" stroke="#000000" points="788.7396,-277.9496 779.0224,-273.7275 783.9858,-283.0878 788.7396,-277.9496"/>
</g>
<!-- samples__siteID_siteID__sites_join_No_Rows -->
<g id="node13" class="node">
<title>samples__siteID_siteID__sites_join_No_Rows</title>
<ellipse fill="none" stroke="#000000" cx="1007.7601" cy="-173.4156" rx="44.0415" ry="18"/>
<text text-anchor="middle" x="1007.7601" y="-169.2156" font-family="Times,serif" font-size="14.00" fill="#000000">No rows</text>
</g>
<!-- samples__siteID_siteID__sites_join&#45;&gt;samples__siteID_siteID__sites_join_No_Rows -->
<g id="edge12" class="edge">
<title>samples__siteID_siteID__sites_join&#45;&gt;samples__siteID_siteID__sites_join_No_Rows</title>
<path fill="none" stroke="#000000" d="M894.6517,-313.7884C922.752,-278.9146 963.4158,-228.449 987.5617,-198.4828"/>
<polygon fill="#000000" stroke="#000000" points="990.3609,-200.5871 993.9099,-190.6044 984.9102,-196.1951 990.3609,-200.5871"/>
</g>
<!-- samples__siteID_siteID__sites_where -->
<g id="node8" class="node">
<title>samples__siteID_siteID__sites_where</title>
<ellipse fill="none" stroke="#000000" cx="729.7601" cy="-173.4156" rx="216.315" ry="29.3315"/>
<text text-anchor="middle" x="729.7601" y="-177.6156" font-family="Times,serif" font-size="14.00" fill="#000000">WHERE IN</text>
<text text-anchor="middle" x="729.7601" y="-160.8156" font-family="Times,serif" font-size="14.00" fill="#000000">sites.healthReg = [&quot;Whitehorse&quot;,&quot;Haines Junction&quot;]</text>
</g>
<!-- samples__siteID_siteID__sites_join_Has_Rows&#45;&gt;samples__siteID_siteID__sites_where -->
<g id="edge7" class="edge">
<title>samples__siteID_siteID__sites_join_Has_Rows&#45;&gt;samples__siteID_siteID__sites_where</title>
<path fill="none" stroke="#000000" d="M754.0335,-238.7313C751.1524,-230.9786 747.6682,-221.6032 744.2498,-212.4049"/>
<polygon fill="#000000" stroke="#000000" points="747.5037,-211.1132 740.7393,-202.9588 740.9421,-213.5517 747.5037,-211.1132"/>
</g>
<!-- samples__siteID_siteID__sites_where_Has_Rows -->
<g id="node9" class="node">
<title>samples__siteID_siteID__sites_where_Has_Rows</title>
<ellipse fill="none" stroke="#000000" cx="410.7601" cy="-90" rx="47.4704" ry="18"/>
<text text-anchor="middle" x="410.7601" y="-85.8" font-family="Times,serif" font-size="14.00" fill="#000000">Has rows</text>
</g>
<!-- samples__siteID_siteID__sites_where&#45;&gt;samples__siteID_siteID__sites_where_Has_Rows -->
<g id="edge8" class="edge">
<title>samples__siteID_siteID__sites_where&#45;&gt;samples__siteID_siteID__sites_where_Has_Rows</title>
<path fill="none" stroke="#000000" d="M629.7017,-147.2513C573.1344,-132.4594 504.927,-114.6238 459.8379,-102.8334"/>
<polygon fill="#000000" stroke="#000000" points="460.5795,-99.4097 450.0193,-100.2659 458.8086,-106.182 460.5795,-99.4097"/>
</g>
<!-- samples__siteID_siteID__sites_where_No_Rows -->
<g id="node11" class="node">
<title>samples__siteID_siteID__sites_where_No_Rows</title>
<ellipse fill="none" stroke="#000000" cx="780.7601" cy="-90" rx="44.0415" ry="18"/>
<text text-anchor="middle" x="780.7601" y="-85.8" font-family="Times,serif" font-size="14.00" fill="#000000">No rows</text>
</g>
<!-- samples__siteID_siteID__sites_where&#45;&gt;samples__siteID_siteID__sites_where_No_Rows -->
<g id="edge10" class="edge">
<title>samples__siteID_siteID__sites_where&#45;&gt;samples__siteID_siteID__sites_where_No_Rows</title>
<path fill="none" stroke="#000000" d="M747.8844,-143.7715C753.3242,-134.8742 759.254,-125.1754 764.5609,-116.4953"/>
<polygon fill="#000000" stroke="#000000" points="767.5891,-118.2522 769.8193,-107.8947 761.6169,-114.6008 767.5891,-118.2522"/>
</g>
<!-- granted -->
<g id="node10" class="node">
<title>granted</title>
<ellipse fill="none" stroke="#000000" cx="301.7601" cy="-18" rx="71.7874" ry="18"/>
<text text-anchor="middle" x="301.7601" y="-13.8" font-family="Times,serif" font-size="14.00" fill="#000000">Access Granted</text>
</g>
<!-- samples__siteID_siteID__sites_where_Has_Rows&#45;&gt;granted -->
<g id="edge9" class="edge">
<title>samples__siteID_siteID__sites_where_Has_Rows&#45;&gt;granted</title>
<path fill="none" stroke="#000000" d="M387.1087,-74.3771C372.0728,-64.4451 352.366,-51.4278 335.6774,-40.4041"/>
<polygon fill="#000000" stroke="#000000" points="337.5393,-37.4394 327.2663,-34.8481 333.6812,-43.2802 337.5393,-37.4394"/>
</g>
<!-- denied -->
<g id="node12" class="node">
<title>denied</title>
<ellipse fill="none" stroke="#000000" cx="842.7601" cy="-18" rx="68.8581" ry="18"/>
<text text-anchor="middle" x="842.7601" y="-13.8" font-family="Times,serif" font-size="14.00" fill="#000000">Access Denied</text>
</g>
<!-- samples__siteID_siteID__sites_where_No_Rows&#45;&gt;denied -->
<g id="edge11" class="edge">
<title>samples__siteID_siteID__sites_where_No_Rows&#45;&gt;denied</title>
<path fill="none" stroke="#000000" d="M795.4532,-72.937C803.0067,-64.1652 812.3658,-53.2965 820.7608,-43.5476"/>
<polygon fill="#000000" stroke="#000000" points="823.6519,-45.554 827.5249,-35.6924 818.3475,-40.9863 823.6519,-45.554"/>
</g>
<!-- samples__siteID_siteID__sites_join_No_Rows&#45;&gt;denied -->
<g id="edge13" class="edge">
<title>samples__siteID_siteID__sites_join_No_Rows&#45;&gt;denied</title>
<path fill="none" stroke="#000000" d="M990.1022,-156.7834C961.0092,-129.3804 902.8541,-74.6033 868.9549,-42.6732"/>
<polygon fill="#000000" stroke="#000000" points="870.9762,-39.769 861.2971,-35.4602 866.1766,-44.8645 870.9762,-39.769"/>
</g>
<!-- samples__dataID_dataID__datasets_join_Has_Rows -->
<g id="node15" class="node">
<title>samples__dataID_dataID__datasets_join_Has_Rows</title>
<ellipse fill="none" stroke="#000000" cx="302.7601" cy="-256.8313" rx="47.4704" ry="18"/>
<text text-anchor="middle" x="302.7601" y="-252.6313" font-family="Times,serif" font-size="14.00" fill="#000000">Has rows</text>
</g>
<!-- samples__dataID_dataID__datasets_join&#45;&gt;samples__dataID_dataID__datasets_join_Has_Rows -->
<g id="edge15" class="edge">
<title>samples__dataID_dataID__datasets_join&#45;&gt;samples__dataID_dataID__datasets_join_Has_Rows</title>
<path fill="none" stroke="#000000" d="M425.3319,-320.6591C397.0833,-305.949 364.3513,-288.9042 339.8214,-276.1305"/>
<polygon fill="#000000" stroke="#000000" points="341.3342,-272.9722 330.8482,-271.4578 338.1011,-279.1809 341.3342,-272.9722"/>
</g>
<!-- samples__dataID_dataID__datasets_join_No_Rows -->
<g id="node19" class="node">
<title>samples__dataID_dataID__datasets_join_No_Rows</title>
<ellipse fill="none" stroke="#000000" cx="485.7601" cy="-256.8313" rx="44.0415" ry="18"/>
<text text-anchor="middle" x="485.7601" y="-252.6313" font-family="Times,serif" font-size="14.00" fill="#000000">No rows</text>
</g>
<!-- samples__dataID_dataID__datasets_join&#45;&gt;samples__dataID_dataID__datasets_join_No_Rows -->
<g id="edge21" class="edge">
<title>samples__dataID_dataID__datasets_join&#45;&gt;samples__dataID_dataID__datasets_join_No_Rows</title>
<path fill="none" stroke="#000000" d="M485.7601,-310.6057C485.7601,-302.0541 485.7601,-293.2347 485.7601,-285.2742"/>
<polygon fill="#000000" stroke="#000000" points="489.2602,-285.0572 485.7601,-275.0572 482.2602,-285.0572 489.2602,-285.0572"/>
</g>
<!-- samples__dataID_dataID__datasets_where -->
<g id="node16" class="node">
<title>samples__dataID_dataID__datasets_where</title>
<ellipse fill="none" stroke="#000000" cx="228.7601" cy="-173.4156" rx="228.5204" ry="29.3315"/>
<text text-anchor="middle" x="228.7601" y="-177.6156" font-family="Times,serif" font-size="14.00" fill="#000000">WHERE IN</text>
<text text-anchor="middle" x="228.7601" y="-160.8156" font-family="Times,serif" font-size="14.00" fill="#000000">datasets.dataID = [&quot;NML&#45;WWPCR&quot;,&quot;NML&#45;WWGX&quot;]</text>
</g>
<!-- samples__dataID_dataID__datasets_join_Has_Rows&#45;&gt;samples__dataID_dataID__datasets_where -->
<g id="edge16" class="edge">
<title>samples__dataID_dataID__datasets_join_Has_Rows&#45;&gt;samples__dataID_dataID__datasets_where</title>
<path fill="none" stroke="#000000" d="M287.4272,-239.5475C279.9381,-231.1054 270.6203,-220.6021 261.6316,-210.4697"/>
<polygon fill="#000000" stroke="#000000" points="264.1124,-207.992 254.8578,-202.834 258.8759,-212.6374 264.1124,-207.992"/>
</g>
<!-- samples__dataID_dataID__datasets_where_Has_Rows -->
<g id="node17" class="node">
<title>samples__dataID_dataID__datasets_where_Has_Rows</title>
<ellipse fill="none" stroke="#000000" cx="192.7601" cy="-90" rx="47.4704" ry="18"/>
<text text-anchor="middle" x="192.7601" y="-85.8" font-family="Times,serif" font-size="14.00" fill="#000000">Has rows</text>
</g>
<!-- samples__dataID_dataID__datasets_where&#45;&gt;samples__dataID_dataID__datasets_where_Has_Rows -->
<g id="edge17" class="edge">
<title>samples__dataID_dataID__datasets_where&#45;&gt;samples__dataID_dataID__datasets_where_Has_Rows</title>
<path fill="none" stroke="#000000" d="M215.9665,-143.7715C212.2478,-135.1551 208.2049,-125.7872 204.5509,-117.3206"/>
<polygon fill="#000000" stroke="#000000" points="207.659,-115.6893 200.483,-107.8947 201.232,-118.4631 207.659,-115.6893"/>
</g>
<!-- samples__dataID_dataID__datasets_where_No_Rows -->
<g id="node18" class="node">
<title>samples__dataID_dataID__datasets_where_No_Rows</title>
<ellipse fill="none" stroke="#000000" cx="301.7601" cy="-90" rx="44.0415" ry="18"/>
<text text-anchor="middle" x="301.7601" y="-85.8" font-family="Times,serif" font-size="14.00" fill="#000000">No rows</text>
</g>
<!-- samples__dataID_dataID__datasets_where&#45;&gt;samples__dataID_dataID__datasets_where_No_Rows -->
<g id="edge19" class="edge">
<title>samples__dataID_dataID__datasets_where&#45;&gt;samples__dataID_dataID__datasets_where_No_Rows</title>
<path fill="none" stroke="#000000" d="M254.7027,-143.7715C262.9437,-134.3547 271.9704,-124.0401 279.8943,-114.9856"/>
<polygon fill="#000000" stroke="#000000" points="282.5745,-117.2376 286.5263,-107.4073 277.3068,-112.6276 282.5745,-117.2376"/>
</g>
<!-- samples__dataID_dataID__datasets_where_Has_Rows&#45;&gt;granted -->
<g id="edge18" class="edge">
<title>samples__dataID_dataID__datasets_where_Has_Rows&#45;&gt;granted</title>
<path fill="none" stroke="#000000" d="M216.4115,-74.3771C231.4473,-64.4451 251.1542,-51.4278 267.8427,-40.4041"/>
<polygon fill="#000000" stroke="#000000" points="269.839,-43.2802 276.2539,-34.8481 265.9808,-37.4394 269.839,-43.2802"/>
</g>
<!-- samples__dataID_dataID__datasets_where_No_Rows&#45;&gt;denied -->
<g id="edge20" class="edge">
<title>samples__dataID_dataID__datasets_where_No_Rows&#45;&gt;denied</title>
<path fill="none" stroke="#000000" d="M334.2395,-77.732C340.9492,-75.5491 348.0251,-73.4976 354.7601,-72 497.4045,-40.2811 667.8435,-26.8279 764.883,-21.401"/>
<polygon fill="#000000" stroke="#000000" points="765.1107,-24.8939 774.9053,-20.8546 764.7295,-17.9043 765.1107,-24.8939"/>
</g>
<!-- samples__dataID_dataID__datasets_join_No_Rows&#45;&gt;denied -->
<g id="edge22" class="edge">
<title>samples__dataID_dataID__datasets_join_No_Rows&#45;&gt;denied</title>
<path fill="none" stroke="#000000" d="M483.6438,-238.5589C481.8639,-214.1773 482.4949,-170.9551 504.7601,-144 569.6472,-65.445 688.5762,-35.8469 766.649,-24.7068"/>
<polygon fill="#000000" stroke="#000000" points="767.4704,-28.1275 776.9092,-23.3152 766.5295,-21.191 767.4704,-28.1275"/>
</g>
<!-- datasets__dataID_dataID__samples_join_No_Rows&#45;&gt;denied -->
<g id="edge24" class="edge">
<title>datasets__dataID_dataID__samples_join_No_Rows&#45;&gt;denied</title>
<path fill="none" stroke="#000000" d="M1016.8101,-429.9351C1038.0109,-397.4132 1079.7601,-324.7477 1079.7601,-256.8313 1079.7601,-256.8313 1079.7601,-256.8313 1079.7601,-173.4156 1079.7601,-90.9937 978.2851,-49.8927 908.134,-31.3267"/>
<polygon fill="#000000" stroke="#000000" points="908.5818,-27.8289 898.0269,-28.7487 906.8516,-34.6117 908.5818,-27.8289"/>
</g>
<!-- datasets_where_No_Rows&#45;&gt;denied -->
<g id="edge26" class="edge">
<title>datasets_where_No_Rows&#45;&gt;denied</title>
<path fill="none" stroke="#000000" d="M1117.7601,-524.5841C1117.7601,-490.7054 1117.7601,-415.4909 1117.7601,-352.1263 1117.7601,-352.1263 1117.7601,-352.1263 1117.7601,-173.4156 1117.7601,-80.3302 996.8612,-42.3592 915.3869,-27.339"/>
<polygon fill="#000000" stroke="#000000" points="915.6178,-23.8258 905.1618,-25.5352 914.4017,-30.7193 915.6178,-23.8258"/>
</g>
</g>
</svg>
