<?xml version="1.0" encoding="UTF-8" standalone="no"?>
<!DOCTYPE svg PUBLIC "-//W3C//DTD SVG 1.1//EN"
 "http://www.w3.org/Graphics/SVG/1.1/DTD/svg11.dtd">
<!-- Generated by graphviz version 2.40.1 (20161225.0304)
 -->
<!-- Title: G Pages: 1 -->
<svg width="1119pt" height="1021pt"
 viewBox="0.00 0.00 1119.02 1021.43" xmlns="http://www.w3.org/2000/svg" xmlns:xlink="http://www.w3.org/1999/xlink">
<g id="graph0" class="graph" transform="scale(1 1) rotate(0) translate(4 1017.4328)">
<title>G</title>
<polygon fill="#ffffff" stroke="transparent" points="-4,4 -4,-1017.4328 1115.0208,-1017.4328 1115.0208,4 -4,4"/>
<!-- instruments -->
<g id="node1" class="node">
<title>instruments</title>
<ellipse fill="none" stroke="#000000" cx="700.0208" cy="-995.4328" rx="56.1957" ry="18"/>
<text text-anchor="middle" x="700.0208" y="-991.2328" font-family="Times,serif" font-size="14.00" fill="#000000">instruments</text>
</g>
<!-- instruments__dataID_dataID__datasets_join -->
<g id="node2" class="node">
<title>instruments__dataID_dataID__datasets_join</title>
<ellipse fill="none" stroke="#000000" cx="700.0208" cy="-900.1377" rx="92.8656" ry="41.0911"/>
<text text-anchor="middle" x="700.0208" y="-912.7377" font-family="Times,serif" font-size="14.00" fill="#000000">LEFT JOIN datasets</text>
<text text-anchor="middle" x="700.0208" y="-895.9377" font-family="Times,serif" font-size="14.00" fill="#000000">At level: 3</text>
<text text-anchor="middle" x="700.0208" y="-879.1377" font-family="Times,serif" font-size="14.00" fill="#000000">Required: false</text>
</g>
<!-- instruments&#45;&gt;instruments__dataID_dataID__datasets_join -->
<g id="edge1" class="edge">
<title>instruments&#45;&gt;instruments__dataID_dataID__datasets_join</title>
<path fill="none" stroke="#000000" d="M700.0208,-977.0589C700.0208,-969.7498 700.0208,-960.9402 700.0208,-951.9314"/>
<polygon fill="#000000" stroke="#000000" points="703.5209,-951.7449 700.0208,-941.7449 696.5209,-951.745 703.5209,-951.7449"/>
</g>
<!-- instruments__dataID_dataID__datasets_join_Has_Rows -->
<g id="node3" class="node">
<title>instruments__dataID_dataID__datasets_join_Has_Rows</title>
<ellipse fill="none" stroke="#000000" cx="663.0208" cy="-804.8427" rx="47.4704" ry="18"/>
<text text-anchor="middle" x="663.0208" y="-800.6427" font-family="Times,serif" font-size="14.00" fill="#000000">Has rows</text>
</g>
<!-- instruments__dataID_dataID__datasets_join&#45;&gt;instruments__dataID_dataID__datasets_join_Has_Rows -->
<g id="edge2" class="edge">
<title>instruments__dataID_dataID__datasets_join&#45;&gt;instruments__dataID_dataID__datasets_join_Has_Rows</title>
<path fill="none" stroke="#000000" d="M684.1147,-859.171C680.5671,-850.034 676.8897,-840.5627 673.6183,-832.137"/>
<polygon fill="#000000" stroke="#000000" points="676.8787,-830.8641 669.9965,-822.809 670.3533,-833.3978 676.8787,-830.8641"/>
</g>
<!-- instruments__dataID_dataID__datasets_join_No_Rows -->
<g id="node24" class="node">
<title>instruments__dataID_dataID__datasets_join_No_Rows</title>
<ellipse fill="none" stroke="#000000" cx="1031.0208" cy="-721.4271" rx="44.0415" ry="18"/>
<text text-anchor="middle" x="1031.0208" y="-717.2271" font-family="Times,serif" font-size="14.00" fill="#000000">No rows</text>
</g>
<!-- instruments__dataID_dataID__datasets_join&#45;&gt;instruments__dataID_dataID__datasets_join_No_Rows -->
<g id="edge29" class="edge">
<title>instruments__dataID_dataID__datasets_join&#45;&gt;instruments__dataID_dataID__datasets_join_No_Rows</title>
<path fill="none" stroke="#000000" d="M759.1969,-868.1879C827.8938,-831.0976 938.975,-771.1236 995.5098,-740.5998"/>
<polygon fill="#000000" stroke="#000000" points="997.2913,-743.6156 1004.4279,-735.7849 993.9656,-737.456 997.2913,-743.6156"/>
</g>
<!-- instruments__dataID_dataID__datasets_where -->
<g id="node4" class="node">
<title>instruments__dataID_dataID__datasets_where</title>
<ellipse fill="none" stroke="#000000" cx="238.0208" cy="-721.4271" rx="228.5204" ry="29.3315"/>
<text text-anchor="middle" x="238.0208" y="-725.6271" font-family="Times,serif" font-size="14.00" fill="#000000">WHERE IN</text>
<text text-anchor="middle" x="238.0208" y="-708.8271" font-family="Times,serif" font-size="14.00" fill="#000000">datasets.dataID = [&quot;NML&#45;WWPCR&quot;,&quot;NML&#45;WWGX&quot;]</text>
</g>
<!-- instruments__dataID_dataID__datasets_join_Has_Rows&#45;&gt;instruments__dataID_dataID__datasets_where -->
<g id="edge3" class="edge">
<title>instruments__dataID_dataID__datasets_join_Has_Rows&#45;&gt;instruments__dataID_dataID__datasets_where</title>
<path fill="none" stroke="#000000" d="M620.7164,-796.5395C563.5611,-785.3216 458.9998,-764.7991 373.5995,-748.0374"/>
<polygon fill="#000000" stroke="#000000" points="374.0366,-744.5565 363.5497,-746.0649 372.6884,-751.4254 374.0366,-744.5565"/>
</g>
<!-- instruments__dataID_dataID__datasets_where_Has_Rows -->
<g id="node5" class="node">
<title>instruments__dataID_dataID__datasets_where_Has_Rows</title>
<ellipse fill="none" stroke="#000000" cx="238.0208" cy="-638.0114" rx="47.4704" ry="18"/>
<text text-anchor="middle" x="238.0208" y="-633.8114" font-family="Times,serif" font-size="14.00" fill="#000000">Has rows</text>
</g>
<!-- instruments__dataID_dataID__datasets_where&#45;&gt;instruments__dataID_dataID__datasets_where_Has_Rows -->
<g id="edge4" class="edge">
<title>instruments__dataID_dataID__datasets_where&#45;&gt;instruments__dataID_dataID__datasets_where_Has_Rows</title>
<path fill="none" stroke="#000000" d="M238.0208,-691.783C238.0208,-683.5778 238.0208,-674.691 238.0208,-666.5502"/>
<polygon fill="#000000" stroke="#000000" points="241.5209,-666.398 238.0208,-656.398 234.5209,-666.398 241.5209,-666.398"/>
</g>
<!-- instruments__dataID_dataID__datasets_where_No_Rows -->
<g id="node23" class="node">
<title>instruments__dataID_dataID__datasets_where_No_Rows</title>
<ellipse fill="none" stroke="#000000" cx="44.0208" cy="-542.7164" rx="44.0415" ry="18"/>
<text text-anchor="middle" x="44.0208" y="-538.5164" font-family="Times,serif" font-size="14.00" fill="#000000">No rows</text>
</g>
<!-- instruments__dataID_dataID__datasets_where&#45;&gt;instruments__dataID_dataID__datasets_where_No_Rows -->
<g id="edge27" class="edge">
<title>instruments__dataID_dataID__datasets_where&#45;&gt;instruments__dataID_dataID__datasets_where_No_Rows</title>
<path fill="none" stroke="#000000" d="M205.9856,-691.9166C167.7654,-656.7086 104.641,-598.5591 69.55,-566.2337"/>
<polygon fill="#000000" stroke="#000000" points="71.8185,-563.5647 62.0922,-559.3636 67.0758,-568.7131 71.8185,-563.5647"/>
</g>
<!-- datasets__dataID_dataID__samples_join -->
<g id="node6" class="node">
<title>datasets__dataID_dataID__samples_join</title>
<ellipse fill="none" stroke="#000000" cx="238.0208" cy="-542.7164" rx="93.4765" ry="41.0911"/>
<text text-anchor="middle" x="238.0208" y="-555.3164" font-family="Times,serif" font-size="14.00" fill="#000000">LEFT JOIN samples</text>
<text text-anchor="middle" x="238.0208" y="-538.5164" font-family="Times,serif" font-size="14.00" fill="#000000">At level: 2</text>
<text text-anchor="middle" x="238.0208" y="-521.7164" font-family="Times,serif" font-size="14.00" fill="#000000">Required: true</text>
</g>
<!-- instruments__dataID_dataID__datasets_where_Has_Rows&#45;&gt;datasets__dataID_dataID__samples_join -->
<g id="edge5" class="edge">
<title>instruments__dataID_dataID__datasets_where_Has_Rows&#45;&gt;datasets__dataID_dataID__samples_join</title>
<path fill="none" stroke="#000000" d="M238.0208,-619.6376C238.0208,-612.3285 238.0208,-603.5189 238.0208,-594.5101"/>
<polygon fill="#000000" stroke="#000000" points="241.5209,-594.3235 238.0208,-584.3236 234.5209,-594.3236 241.5209,-594.3235"/>
</g>
<!-- datasets__dataID_dataID__samples_join_Has_Rows -->
<g id="node7" class="node">
<title>datasets__dataID_dataID__samples_join_Has_Rows</title>
<ellipse fill="none" stroke="#000000" cx="278.0208" cy="-447.4214" rx="47.4704" ry="18"/>
<text text-anchor="middle" x="278.0208" y="-443.2214" font-family="Times,serif" font-size="14.00" fill="#000000">Has rows</text>
</g>
<!-- datasets__dataID_dataID__samples_join&#45;&gt;datasets__dataID_dataID__samples_join_Has_Rows -->
<g id="edge6" class="edge">
<title>datasets__dataID_dataID__samples_join&#45;&gt;datasets__dataID_dataID__samples_join_Has_Rows</title>
<path fill="none" stroke="#000000" d="M255.1004,-502.0263C258.9464,-492.8636 262.9397,-483.3501 266.4947,-474.8807"/>
<polygon fill="#000000" stroke="#000000" points="269.7885,-476.0768 270.4317,-465.5015 263.334,-473.3675 269.7885,-476.0768"/>
</g>
<!-- datasets__dataID_dataID__samples_join_No_Rows -->
<g id="node22" class="node">
<title>datasets__dataID_dataID__samples_join_No_Rows</title>
<ellipse fill="none" stroke="#000000" cx="147.0208" cy="-447.4214" rx="44.0415" ry="18"/>
<text text-anchor="middle" x="147.0208" y="-443.2214" font-family="Times,serif" font-size="14.00" fill="#000000">No rows</text>
</g>
<!-- datasets__dataID_dataID__samples_join&#45;&gt;datasets__dataID_dataID__samples_join_No_Rows -->
<g id="edge25" class="edge">
<title>datasets__dataID_dataID__samples_join&#45;&gt;datasets__dataID_dataID__samples_join_No_Rows</title>
<path fill="none" stroke="#000000" d="M201.5319,-504.5053C190.8931,-493.3644 179.5695,-481.5064 170.0155,-471.5014"/>
<polygon fill="#000000" stroke="#000000" points="172.5325,-469.0692 163.095,-464.2542 167.4699,-473.9036 172.5325,-469.0692"/>
</g>
<!-- samples__siteID_siteID__sites_join -->
<g id="node8" class="node">
<title>samples__siteID_siteID__sites_join</title>
<ellipse fill="none" stroke="#000000" cx="278.0208" cy="-352.1263" rx="78.8882" ry="41.0911"/>
<text text-anchor="middle" x="278.0208" y="-364.7263" font-family="Times,serif" font-size="14.00" fill="#000000">LEFT JOIN sites</text>
<text text-anchor="middle" x="278.0208" y="-347.9263" font-family="Times,serif" font-size="14.00" fill="#000000">At level: 1</text>
<text text-anchor="middle" x="278.0208" y="-331.1263" font-family="Times,serif" font-size="14.00" fill="#000000">Required: true</text>
</g>
<!-- datasets__dataID_dataID__samples_join_Has_Rows&#45;&gt;samples__siteID_siteID__sites_join -->
<g id="edge7" class="edge">
<title>datasets__dataID_dataID__samples_join_Has_Rows&#45;&gt;samples__siteID_siteID__sites_join</title>
<path fill="none" stroke="#000000" d="M278.0208,-429.0475C278.0208,-421.7384 278.0208,-412.9288 278.0208,-403.92"/>
<polygon fill="#000000" stroke="#000000" points="281.5209,-403.7335 278.0208,-393.7335 274.5209,-403.7335 281.5209,-403.7335"/>
</g>
<!-- samples__dataID_dataID__datasets_join -->
<g id="node16" class="node">
<title>samples__dataID_dataID__datasets_join</title>
<ellipse fill="none" stroke="#000000" cx="597.0208" cy="-352.1263" rx="92.8656" ry="41.0911"/>
<text text-anchor="middle" x="597.0208" y="-364.7263" font-family="Times,serif" font-size="14.00" fill="#000000">LEFT JOIN datasets</text>
<text text-anchor="middle" x="597.0208" y="-347.9263" font-family="Times,serif" font-size="14.00" fill="#000000">At level: 1</text>
<text text-anchor="middle" x="597.0208" y="-331.1263" font-family="Times,serif" font-size="14.00" fill="#000000">Required: true</text>
</g>
<!-- datasets__dataID_dataID__samples_join_Has_Rows&#45;&gt;samples__dataID_dataID__datasets_join -->
<g id="edge16" class="edge">
<title>datasets__dataID_dataID__samples_join_Has_Rows&#45;&gt;samples__dataID_dataID__datasets_join</title>
<path fill="none" stroke="#000000" d="M315.2384,-436.3033C362.7621,-422.1065 446.482,-397.0968 510.3562,-378.0157"/>
<polygon fill="#000000" stroke="#000000" points="511.4488,-381.3422 520.0286,-375.1262 509.4451,-374.6351 511.4488,-381.3422"/>
</g>
<!-- samples__siteID_siteID__sites_join_Has_Rows -->
<g id="node9" class="node">
<title>samples__siteID_siteID__sites_join_Has_Rows</title>
<ellipse fill="none" stroke="#000000" cx="301.0208" cy="-256.8313" rx="47.4704" ry="18"/>
<text text-anchor="middle" x="301.0208" y="-252.6313" font-family="Times,serif" font-size="14.00" fill="#000000">Has rows</text>
</g>
<!-- samples__siteID_siteID__sites_join&#45;&gt;samples__siteID_siteID__sites_join_Has_Rows -->
<g id="edge8" class="edge">
<title>samples__siteID_siteID__sites_join&#45;&gt;samples__siteID_siteID__sites_join_Has_Rows</title>
<path fill="none" stroke="#000000" d="M287.9751,-310.8828C290.0922,-302.1114 292.2804,-293.0451 294.2457,-284.9022"/>
<polygon fill="#000000" stroke="#000000" points="297.6498,-285.7155 296.5938,-275.1734 290.8452,-284.0731 297.6498,-285.7155"/>
</g>
<!-- samples__siteID_siteID__sites_join_No_Rows -->
<g id="node15" class="node">
<title>samples__siteID_siteID__sites_join_No_Rows</title>
<ellipse fill="none" stroke="#000000" cx="141.0208" cy="-173.4156" rx="44.0415" ry="18"/>
<text text-anchor="middle" x="141.0208" y="-169.2156" font-family="Times,serif" font-size="14.00" fill="#000000">No rows</text>
</g>
<!-- samples__siteID_siteID__sites_join&#45;&gt;samples__siteID_siteID__sites_join_No_Rows -->
<g id="edge14" class="edge">
<title>samples__siteID_siteID__sites_join&#45;&gt;samples__siteID_siteID__sites_join_No_Rows</title>
<path fill="none" stroke="#000000" d="M248.6308,-313.7884C222.0107,-279.0636 183.5399,-228.88 160.5327,-198.8681"/>
<polygon fill="#000000" stroke="#000000" points="163.0594,-196.4113 154.1977,-190.6044 157.504,-200.6701 163.0594,-196.4113"/>
</g>
<!-- samples__siteID_siteID__sites_where -->
<g id="node10" class="node">
<title>samples__siteID_siteID__sites_where</title>
<ellipse fill="none" stroke="#000000" cx="386.0208" cy="-173.4156" rx="182.7015" ry="29.3315"/>
<text text-anchor="middle" x="386.0208" y="-177.6156" font-family="Times,serif" font-size="14.00" fill="#000000">WHERE IN</text>
<text text-anchor="middle" x="386.0208" y="-160.8156" font-family="Times,serif" font-size="14.00" fill="#000000">sites.healthReg = [&quot;Yukon&quot;,&quot;Yukon&#45;HNJ&quot;]</text>
</g>
<!-- samples__siteID_siteID__sites_join_Has_Rows&#45;&gt;samples__siteID_siteID__sites_where -->
<g id="edge9" class="edge">
<title>samples__siteID_siteID__sites_join_Has_Rows&#45;&gt;samples__siteID_siteID__sites_where</title>
<path fill="none" stroke="#000000" d="M318.2218,-239.9509C327.0507,-231.2866 338.1697,-220.3748 348.8351,-209.9082"/>
<polygon fill="#000000" stroke="#000000" points="351.4269,-212.2685 356.1127,-202.7662 346.5239,-207.2724 351.4269,-212.2685"/>
</g>
<!-- samples__siteID_siteID__sites_where_Has_Rows -->
<g id="node11" class="node">
<title>samples__siteID_siteID__sites_where_Has_Rows</title>
<ellipse fill="none" stroke="#000000" cx="778.0208" cy="-90" rx="47.4704" ry="18"/>
<text text-anchor="middle" x="778.0208" y="-85.8" font-family="Times,serif" font-size="14.00" fill="#000000">Has rows</text>
</g>
<!-- samples__siteID_siteID__sites_where&#45;&gt;samples__siteID_siteID__sites_where_Has_Rows -->
<g id="edge10" class="edge">
<title>samples__siteID_siteID__sites_where&#45;&gt;samples__siteID_siteID__sites_where_Has_Rows</title>
<path fill="none" stroke="#000000" d="M513.661,-152.2489C576.7598,-140.8527 653.8159,-125.5349 722.0208,-108 725.5937,-107.0814 729.2734,-106.0637 732.9585,-104.993"/>
<polygon fill="#000000" stroke="#000000" points="734.0938,-108.3064 742.6566,-102.0671 732.0718,-101.6048 734.0938,-108.3064"/>
</g>
<!-- samples__siteID_siteID__sites_where_No_Rows -->
<g id="node13" class="node">
<title>samples__siteID_siteID__sites_where_No_Rows</title>
<ellipse fill="none" stroke="#000000" cx="325.0208" cy="-90" rx="44.0415" ry="18"/>
<text text-anchor="middle" x="325.0208" y="-85.8" font-family="Times,serif" font-size="14.00" fill="#000000">No rows</text>
</g>
<!-- samples__siteID_siteID__sites_where&#45;&gt;samples__siteID_siteID__sites_where_No_Rows -->
<g id="edge12" class="edge">
<title>samples__siteID_siteID__sites_where&#45;&gt;samples__siteID_siteID__sites_where_No_Rows</title>
<path fill="none" stroke="#000000" d="M364.3427,-143.7715C357.5955,-134.5449 350.218,-124.4565 343.6946,-115.5359"/>
<polygon fill="#000000" stroke="#000000" points="346.4784,-113.4133 337.7503,-107.4073 340.828,-117.5453 346.4784,-113.4133"/>
</g>
<!-- granted -->
<g id="node12" class="node">
<title>granted</title>
<ellipse fill="none" stroke="#000000" cx="890.0208" cy="-18" rx="71.7874" ry="18"/>
<text text-anchor="middle" x="890.0208" y="-13.8" font-family="Times,serif" font-size="14.00" fill="#000000">Access Granted</text>
</g>
<!-- samples__siteID_siteID__sites_where_Has_Rows&#45;&gt;granted -->
<g id="edge11" class="edge">
<title>samples__siteID_siteID__sites_where_Has_Rows&#45;&gt;granted</title>
<path fill="none" stroke="#000000" d="M802.3231,-74.3771C817.7728,-64.4451 838.022,-51.4278 855.1699,-40.4041"/>
<polygon fill="#000000" stroke="#000000" points="857.2934,-43.1999 863.8126,-34.8481 853.5081,-37.3116 857.2934,-43.1999"/>
</g>
<!-- denied -->
<g id="node14" class="node">
<title>denied</title>
<ellipse fill="none" stroke="#000000" cx="203.0208" cy="-18" rx="68.8581" ry="18"/>
<text text-anchor="middle" x="203.0208" y="-13.8" font-family="Times,serif" font-size="14.00" fill="#000000">Access Denied</text>
</g>
<!-- samples__siteID_siteID__sites_where_No_Rows&#45;&gt;denied -->
<g id="edge13" class="edge">
<title>samples__siteID_siteID__sites_where_No_Rows&#45;&gt;denied</title>
<path fill="none" stroke="#000000" d="M299.7423,-75.0816C282.5102,-64.9118 259.406,-51.2765 240.1002,-39.8829"/>
<polygon fill="#000000" stroke="#000000" points="241.6429,-36.7293 231.2519,-34.661 238.0851,-42.7578 241.6429,-36.7293"/>
</g>
<!-- samples__siteID_siteID__sites_join_No_Rows&#45;&gt;denied -->
<g id="edge15" class="edge">
<title>samples__siteID_siteID__sites_join_No_Rows&#45;&gt;denied</title>
<path fill="none" stroke="#000000" d="M148.133,-155.5875C158.8672,-128.6799 179.2973,-77.4678 191.9779,-45.6812"/>
<polygon fill="#000000" stroke="#000000" points="195.346,-46.684 195.8006,-36.0989 188.8443,-44.0903 195.346,-46.684"/>
</g>
<!-- samples__dataID_dataID__datasets_join_Has_Rows -->
<g id="node17" class="node">
<title>samples__dataID_dataID__datasets_join_Has_Rows</title>
<ellipse fill="none" stroke="#000000" cx="780.0208" cy="-256.8313" rx="47.4704" ry="18"/>
<text text-anchor="middle" x="780.0208" y="-252.6313" font-family="Times,serif" font-size="14.00" fill="#000000">Has rows</text>
</g>
<!-- samples__dataID_dataID__datasets_join&#45;&gt;samples__dataID_dataID__datasets_join_Has_Rows -->
<g id="edge17" class="edge">
<title>samples__dataID_dataID__datasets_join&#45;&gt;samples__dataID_dataID__datasets_join_Has_Rows</title>
<path fill="none" stroke="#000000" d="M657.449,-320.6591C685.6975,-305.949 718.4296,-288.9042 742.9594,-276.1305"/>
<polygon fill="#000000" stroke="#000000" points="744.6797,-279.1809 751.9327,-271.4578 741.4466,-272.9722 744.6797,-279.1809"/>
</g>
<!-- samples__dataID_dataID__datasets_join_No_Rows -->
<g id="node21" class="node">
<title>samples__dataID_dataID__datasets_join_No_Rows</title>
<ellipse fill="none" stroke="#000000" cx="597.0208" cy="-256.8313" rx="44.0415" ry="18"/>
<text text-anchor="middle" x="597.0208" y="-252.6313" font-family="Times,serif" font-size="14.00" fill="#000000">No rows</text>
</g>
<!-- samples__dataID_dataID__datasets_join&#45;&gt;samples__dataID_dataID__datasets_join_No_Rows -->
<g id="edge23" class="edge">
<title>samples__dataID_dataID__datasets_join&#45;&gt;samples__dataID_dataID__datasets_join_No_Rows</title>
<path fill="none" stroke="#000000" d="M597.0208,-310.6057C597.0208,-302.0541 597.0208,-293.2347 597.0208,-285.2742"/>
<polygon fill="#000000" stroke="#000000" points="600.5209,-285.0572 597.0208,-275.0572 593.5209,-285.0572 600.5209,-285.0572"/>
</g>
<!-- samples__dataID_dataID__datasets_where -->
<g id="node18" class="node">
<title>samples__dataID_dataID__datasets_where</title>
<ellipse fill="none" stroke="#000000" cx="854.0208" cy="-173.4156" rx="228.5204" ry="29.3315"/>
<text text-anchor="middle" x="854.0208" y="-177.6156" font-family="Times,serif" font-size="14.00" fill="#000000">WHERE IN</text>
<text text-anchor="middle" x="854.0208" y="-160.8156" font-family="Times,serif" font-size="14.00" fill="#000000">datasets.dataID = [&quot;NML&#45;WWPCR&quot;,&quot;NML&#45;WWGX&quot;]</text>
</g>
<!-- samples__dataID_dataID__datasets_join_Has_Rows&#45;&gt;samples__dataID_dataID__datasets_where -->
<g id="edge18" class="edge">
<title>samples__dataID_dataID__datasets_join_Has_Rows&#45;&gt;samples__dataID_dataID__datasets_where</title>
<path fill="none" stroke="#000000" d="M795.3536,-239.5475C802.8428,-231.1054 812.1606,-220.6021 821.1492,-210.4697"/>
<polygon fill="#000000" stroke="#000000" points="823.9049,-212.6374 827.923,-202.834 818.6685,-207.992 823.9049,-212.6374"/>
</g>
<!-- samples__dataID_dataID__datasets_where_Has_Rows -->
<g id="node19" class="node">
<title>samples__dataID_dataID__datasets_where_Has_Rows</title>
<ellipse fill="none" stroke="#000000" cx="890.0208" cy="-90" rx="47.4704" ry="18"/>
<text text-anchor="middle" x="890.0208" y="-85.8" font-family="Times,serif" font-size="14.00" fill="#000000">Has rows</text>
</g>
<!-- samples__dataID_dataID__datasets_where&#45;&gt;samples__dataID_dataID__datasets_where_Has_Rows -->
<g id="edge19" class="edge">
<title>samples__dataID_dataID__datasets_where&#45;&gt;samples__dataID_dataID__datasets_where_Has_Rows</title>
<path fill="none" stroke="#000000" d="M866.8144,-143.7715C870.533,-135.1551 874.576,-125.7872 878.2299,-117.3206"/>
<polygon fill="#000000" stroke="#000000" points="881.5488,-118.4631 882.2979,-107.8947 875.1218,-115.6893 881.5488,-118.4631"/>
</g>
<!-- samples__dataID_dataID__datasets_where_No_Rows -->
<g id="node20" class="node">
<title>samples__dataID_dataID__datasets_where_No_Rows</title>
<ellipse fill="none" stroke="#000000" cx="669.0208" cy="-90" rx="44.0415" ry="18"/>
<text text-anchor="middle" x="669.0208" y="-85.8" font-family="Times,serif" font-size="14.00" fill="#000000">No rows</text>
</g>
<!-- samples__dataID_dataID__datasets_where&#45;&gt;samples__dataID_dataID__datasets_where_No_Rows -->
<g id="edge21" class="edge">
<title>samples__dataID_dataID__datasets_where&#45;&gt;samples__dataID_dataID__datasets_where_No_Rows</title>
<path fill="none" stroke="#000000" d="M791.1301,-145.0585C763.5727,-132.633 732.0959,-118.4403 708.003,-107.5769"/>
<polygon fill="#000000" stroke="#000000" points="709.3801,-104.3585 698.8253,-103.4387 706.5028,-110.7399 709.3801,-104.3585"/>
</g>
<!-- samples__dataID_dataID__datasets_where_Has_Rows&#45;&gt;granted -->
<g id="edge20" class="edge">
<title>samples__dataID_dataID__datasets_where_Has_Rows&#45;&gt;granted</title>
<path fill="none" stroke="#000000" d="M890.0208,-71.8314C890.0208,-64.131 890.0208,-54.9743 890.0208,-46.4166"/>
<polygon fill="#000000" stroke="#000000" points="893.5209,-46.4132 890.0208,-36.4133 886.5209,-46.4133 893.5209,-46.4132"/>
</g>
<!-- samples__dataID_dataID__datasets_where_No_Rows&#45;&gt;denied -->
<g id="edge22" class="edge">
<title>samples__dataID_dataID__datasets_where_No_Rows&#45;&gt;denied</title>
<path fill="none" stroke="#000000" d="M634.9285,-78.3674C627.1382,-76.0042 618.847,-73.7193 611.0208,-72 496.6309,-46.8697 361.4592,-31.7824 279.0143,-24.1799"/>
<polygon fill="#000000" stroke="#000000" points="279.2546,-20.6874 268.9787,-23.2675 278.6207,-27.6586 279.2546,-20.6874"/>
</g>
<!-- samples__dataID_dataID__datasets_join_No_Rows&#45;&gt;denied -->
<g id="edge24" class="edge">
<title>samples__dataID_dataID__datasets_join_No_Rows&#45;&gt;denied</title>
<path fill="none" stroke="#000000" d="M599.1814,-238.522C601.0117,-214.0987 600.4374,-170.8292 578.0208,-144 537.7752,-95.8324 363.8313,-52.2147 267.6241,-31.2046"/>
<polygon fill="#000000" stroke="#000000" points="268.2254,-27.7538 257.7114,-29.0598 266.745,-34.5955 268.2254,-27.7538"/>
</g>
<!-- datasets__dataID_dataID__samples_join_No_Rows&#45;&gt;denied -->
<g id="edge26" class="edge">
<title>datasets__dataID_dataID__samples_join_No_Rows&#45;&gt;denied</title>
<path fill="none" stroke="#000000" d="M134.4887,-430.0068C112.4399,-397.6013 69.0208,-325.1182 69.0208,-256.8313 69.0208,-256.8313 69.0208,-256.8313 69.0208,-173.4156 69.0208,-114.1285 125.6453,-66.247 165.2763,-39.9955"/>
<polygon fill="#000000" stroke="#000000" points="167.4311,-42.7709 173.9448,-34.4149 163.6419,-36.8852 167.4311,-42.7709"/>
</g>
<!-- instruments__dataID_dataID__datasets_where_No_Rows&#45;&gt;denied -->
<g id="edge28" class="edge">
<title>instruments__dataID_dataID__datasets_where_No_Rows&#45;&gt;denied</title>
<path fill="none" stroke="#000000" d="M41.9609,-524.6121C38.2952,-490.7796 31.0208,-415.6381 31.0208,-352.1263 31.0208,-352.1263 31.0208,-352.1263 31.0208,-173.4156 31.0208,-121.0444 52.4492,-107.4256 91.0208,-72 107.9024,-56.4953 130.0485,-44.5623 150.1874,-35.9057"/>
<polygon fill="#000000" stroke="#000000" points="151.6628,-39.0833 159.5758,-32.0381 148.9964,-32.611 151.6628,-39.0833"/>
</g>
<!-- instruments__dataID_dataID__datasets_join_No_Rows&#45;&gt;granted -->
<g id="edge30" class="edge">
<title>instruments__dataID_dataID__datasets_join_No_Rows&#45;&gt;granted</title>
<path fill="none" stroke="#000000" d="M1044.9557,-703.8252C1067.8762,-673.0468 1111.0208,-606.6232 1111.0208,-542.7164 1111.0208,-542.7164 1111.0208,-542.7164 1111.0208,-173.4156 1111.0208,-95.4505 1017.8532,-53.2098 952.5029,-33.1707"/>
<polygon fill="#000000" stroke="#000000" points="953.2573,-29.7439 942.675,-30.2583 951.2684,-36.4554 953.2573,-29.7439"/>
</g>
</g>
</svg>
