<?xml version="1.0" encoding="UTF-8" standalone="no"?>
<!DOCTYPE svg PUBLIC "-//W3C//DTD SVG 1.1//EN"
 "http://www.w3.org/Graphics/SVG/1.1/DTD/svg11.dtd">
<!-- Generated by graphviz version 2.40.1 (20161225.0304)
 -->
<!-- Title: G Pages: 1 -->
<svg width="1185pt" height="1021pt"
 viewBox="0.00 0.00 1185.02 1021.43" xmlns="http://www.w3.org/2000/svg" xmlns:xlink="http://www.w3.org/1999/xlink">
<g id="graph0" class="graph" transform="scale(1 1) rotate(0) translate(4 1017.4328)">
<title>G</title>
<polygon fill="#ffffff" stroke="transparent" points="-4,4 -4,-1017.4328 1181.0208,-1017.4328 1181.0208,4 -4,4"/>
<!-- instruments -->
<g id="node1" class="node">
<title>instruments</title>
<ellipse fill="none" stroke="#000000" cx="739.0208" cy="-995.4328" rx="56.1957" ry="18"/>
<text text-anchor="middle" x="739.0208" y="-991.2328" font-family="Times,serif" font-size="14.00" fill="#000000">instruments</text>
</g>
<!-- instruments__dataID_dataID__datasets_join -->
<g id="node2" class="node">
<title>instruments__dataID_dataID__datasets_join</title>
<ellipse fill="none" stroke="#000000" cx="739.0208" cy="-900.1377" rx="92.8656" ry="41.0911"/>
<text text-anchor="middle" x="739.0208" y="-912.7377" font-family="Times,serif" font-size="14.00" fill="#000000">LEFT JOIN datasets</text>
<text text-anchor="middle" x="739.0208" y="-895.9377" font-family="Times,serif" font-size="14.00" fill="#000000">At level: 3</text>
<text text-anchor="middle" x="739.0208" y="-879.1377" font-family="Times,serif" font-size="14.00" fill="#000000">Required: false</text>
</g>
<!-- instruments&#45;&gt;instruments__dataID_dataID__datasets_join -->
<g id="edge1" class="edge">
<title>instruments&#45;&gt;instruments__dataID_dataID__datasets_join</title>
<path fill="none" stroke="#000000" d="M739.0208,-977.0589C739.0208,-969.7498 739.0208,-960.9402 739.0208,-951.9314"/>
<polygon fill="#000000" stroke="#000000" points="742.5209,-951.7449 739.0208,-941.7449 735.5209,-951.745 742.5209,-951.7449"/>
</g>
<!-- instruments__dataID_dataID__datasets_join_Has_Rows -->
<g id="node3" class="node">
<title>instruments__dataID_dataID__datasets_join_Has_Rows</title>
<ellipse fill="none" stroke="#000000" cx="702.0208" cy="-804.8427" rx="47.4704" ry="18"/>
<text text-anchor="middle" x="702.0208" y="-800.6427" font-family="Times,serif" font-size="14.00" fill="#000000">Has rows</text>
</g>
<!-- instruments__dataID_dataID__datasets_join&#45;&gt;instruments__dataID_dataID__datasets_join_Has_Rows -->
<g id="edge2" class="edge">
<title>instruments__dataID_dataID__datasets_join&#45;&gt;instruments__dataID_dataID__datasets_join_Has_Rows</title>
<path fill="none" stroke="#000000" d="M723.1147,-859.171C719.5671,-850.034 715.8897,-840.5627 712.6183,-832.137"/>
<polygon fill="#000000" stroke="#000000" points="715.8787,-830.8641 708.9965,-822.809 709.3533,-833.3978 715.8787,-830.8641"/>
</g>
<!-- instruments__dataID_dataID__datasets_join_No_Rows -->
<g id="node24" class="node">
<title>instruments__dataID_dataID__datasets_join_No_Rows</title>
<ellipse fill="none" stroke="#000000" cx="1092.0208" cy="-721.4271" rx="44.0415" ry="18"/>
<text text-anchor="middle" x="1092.0208" y="-717.2271" font-family="Times,serif" font-size="14.00" fill="#000000">No rows</text>
</g>
<!-- instruments__dataID_dataID__datasets_join&#45;&gt;instruments__dataID_dataID__datasets_join_No_Rows -->
<g id="edge29" class="edge">
<title>instruments__dataID_dataID__datasets_join&#45;&gt;instruments__dataID_dataID__datasets_join_No_Rows</title>
<path fill="none" stroke="#000000" d="M800.5087,-869.0087C874.0094,-831.798 994.6423,-770.7262 1055.081,-740.1283"/>
<polygon fill="#000000" stroke="#000000" points="1056.9069,-743.1269 1064.2478,-735.4875 1053.7451,-736.8817 1056.9069,-743.1269"/>
</g>
<!-- instruments__dataID_dataID__datasets_where -->
<g id="node4" class="node">
<title>instruments__dataID_dataID__datasets_where</title>
<ellipse fill="none" stroke="#000000" cx="244.0208" cy="-721.4271" rx="228.5204" ry="29.3315"/>
<text text-anchor="middle" x="244.0208" y="-725.6271" font-family="Times,serif" font-size="14.00" fill="#000000">WHERE IN</text>
<text text-anchor="middle" x="244.0208" y="-708.8271" font-family="Times,serif" font-size="14.00" fill="#000000">datasets.dataID = [&quot;NML&#45;WWPCR&quot;,&quot;NML&#45;WWGX&quot;]</text>
</g>
<!-- instruments__dataID_dataID__datasets_join_Has_Rows&#45;&gt;instruments__dataID_dataID__datasets_where -->
<g id="edge3" class="edge">
<title>instruments__dataID_dataID__datasets_join_Has_Rows&#45;&gt;instruments__dataID_dataID__datasets_where</title>
<path fill="none" stroke="#000000" d="M659.3445,-797.0701C597.5751,-785.82 480.3397,-764.4679 386.1358,-747.3105"/>
<polygon fill="#000000" stroke="#000000" points="386.6898,-743.8539 376.2244,-745.5054 385.4354,-750.7406 386.6898,-743.8539"/>
</g>
<!-- instruments__dataID_dataID__datasets_where_Has_Rows -->
<g id="node5" class="node">
<title>instruments__dataID_dataID__datasets_where_Has_Rows</title>
<ellipse fill="none" stroke="#000000" cx="244.0208" cy="-638.0114" rx="47.4704" ry="18"/>
<text text-anchor="middle" x="244.0208" y="-633.8114" font-family="Times,serif" font-size="14.00" fill="#000000">Has rows</text>
</g>
<!-- instruments__dataID_dataID__datasets_where&#45;&gt;instruments__dataID_dataID__datasets_where_Has_Rows -->
<g id="edge4" class="edge">
<title>instruments__dataID_dataID__datasets_where&#45;&gt;instruments__dataID_dataID__datasets_where_Has_Rows</title>
<path fill="none" stroke="#000000" d="M244.0208,-691.783C244.0208,-683.5778 244.0208,-674.691 244.0208,-666.5502"/>
<polygon fill="#000000" stroke="#000000" points="247.5209,-666.398 244.0208,-656.398 240.5209,-666.398 247.5209,-666.398"/>
</g>
<!-- instruments__dataID_dataID__datasets_where_No_Rows -->
<g id="node23" class="node">
<title>instruments__dataID_dataID__datasets_where_No_Rows</title>
<ellipse fill="none" stroke="#000000" cx="44.0208" cy="-542.7164" rx="44.0415" ry="18"/>
<text text-anchor="middle" x="44.0208" y="-538.5164" font-family="Times,serif" font-size="14.00" fill="#000000">No rows</text>
</g>
<!-- instruments__dataID_dataID__datasets_where&#45;&gt;instruments__dataID_dataID__datasets_where_No_Rows -->
<g id="edge27" class="edge">
<title>instruments__dataID_dataID__datasets_where&#45;&gt;instruments__dataID_dataID__datasets_where_No_Rows</title>
<path fill="none" stroke="#000000" d="M210.9948,-691.9166C171.4894,-656.6164 106.175,-598.2545 70.0561,-565.9803"/>
<polygon fill="#000000" stroke="#000000" points="72.1747,-563.1798 62.3858,-559.1266 67.5106,-568.3995 72.1747,-563.1798"/>
</g>
<!-- datasets__dataID_dataID__samples_join -->
<g id="node6" class="node">
<title>datasets__dataID_dataID__samples_join</title>
<ellipse fill="none" stroke="#000000" cx="244.0208" cy="-542.7164" rx="93.4765" ry="41.0911"/>
<text text-anchor="middle" x="244.0208" y="-555.3164" font-family="Times,serif" font-size="14.00" fill="#000000">LEFT JOIN samples</text>
<text text-anchor="middle" x="244.0208" y="-538.5164" font-family="Times,serif" font-size="14.00" fill="#000000">At level: 2</text>
<text text-anchor="middle" x="244.0208" y="-521.7164" font-family="Times,serif" font-size="14.00" fill="#000000">Required: true</text>
</g>
<!-- instruments__dataID_dataID__datasets_where_Has_Rows&#45;&gt;datasets__dataID_dataID__samples_join -->
<g id="edge5" class="edge">
<title>instruments__dataID_dataID__datasets_where_Has_Rows&#45;&gt;datasets__dataID_dataID__samples_join</title>
<path fill="none" stroke="#000000" d="M244.0208,-619.6376C244.0208,-612.3285 244.0208,-603.5189 244.0208,-594.5101"/>
<polygon fill="#000000" stroke="#000000" points="247.5209,-594.3235 244.0208,-584.3236 240.5209,-594.3236 247.5209,-594.3235"/>
</g>
<!-- datasets__dataID_dataID__samples_join_Has_Rows -->
<g id="node7" class="node">
<title>datasets__dataID_dataID__samples_join_Has_Rows</title>
<ellipse fill="none" stroke="#000000" cx="289.0208" cy="-447.4214" rx="47.4704" ry="18"/>
<text text-anchor="middle" x="289.0208" y="-443.2214" font-family="Times,serif" font-size="14.00" fill="#000000">Has rows</text>
</g>
<!-- datasets__dataID_dataID__samples_join&#45;&gt;datasets__dataID_dataID__samples_join_Has_Rows -->
<g id="edge6" class="edge">
<title>datasets__dataID_dataID__samples_join&#45;&gt;datasets__dataID_dataID__samples_join_Has_Rows</title>
<path fill="none" stroke="#000000" d="M263.2353,-502.0263C267.6092,-492.764 272.1523,-483.1432 276.1842,-474.6049"/>
<polygon fill="#000000" stroke="#000000" points="279.3778,-476.0385 280.483,-465.5015 273.048,-473.0495 279.3778,-476.0385"/>
</g>
<!-- datasets__dataID_dataID__samples_join_No_Rows -->
<g id="node22" class="node">
<title>datasets__dataID_dataID__samples_join_No_Rows</title>
<ellipse fill="none" stroke="#000000" cx="151.0208" cy="-447.4214" rx="44.0415" ry="18"/>
<text text-anchor="middle" x="151.0208" y="-443.2214" font-family="Times,serif" font-size="14.00" fill="#000000">No rows</text>
</g>
<!-- datasets__dataID_dataID__samples_join&#45;&gt;datasets__dataID_dataID__samples_join_No_Rows -->
<g id="edge25" class="edge">
<title>datasets__dataID_dataID__samples_join&#45;&gt;datasets__dataID_dataID__samples_join_No_Rows</title>
<path fill="none" stroke="#000000" d="M206.9975,-504.7795C196.099,-493.612 184.4752,-481.7014 174.6603,-471.6443"/>
<polygon fill="#000000" stroke="#000000" points="177.0386,-469.07 167.5493,-464.3578 172.0289,-473.9591 177.0386,-469.07"/>
</g>
<!-- samples__siteID_siteID__sites_join -->
<g id="node8" class="node">
<title>samples__siteID_siteID__sites_join</title>
<ellipse fill="none" stroke="#000000" cx="289.0208" cy="-352.1263" rx="78.8882" ry="41.0911"/>
<text text-anchor="middle" x="289.0208" y="-364.7263" font-family="Times,serif" font-size="14.00" fill="#000000">LEFT JOIN sites</text>
<text text-anchor="middle" x="289.0208" y="-347.9263" font-family="Times,serif" font-size="14.00" fill="#000000">At level: 1</text>
<text text-anchor="middle" x="289.0208" y="-331.1263" font-family="Times,serif" font-size="14.00" fill="#000000">Required: true</text>
</g>
<!-- datasets__dataID_dataID__samples_join_Has_Rows&#45;&gt;samples__siteID_siteID__sites_join -->
<g id="edge7" class="edge">
<title>datasets__dataID_dataID__samples_join_Has_Rows&#45;&gt;samples__siteID_siteID__sites_join</title>
<path fill="none" stroke="#000000" d="M289.0208,-429.0475C289.0208,-421.7384 289.0208,-412.9288 289.0208,-403.92"/>
<polygon fill="#000000" stroke="#000000" points="292.5209,-403.7335 289.0208,-393.7335 285.5209,-403.7335 292.5209,-403.7335"/>
</g>
<!-- samples__dataID_dataID__datasets_join -->
<g id="node16" class="node">
<title>samples__dataID_dataID__datasets_join</title>
<ellipse fill="none" stroke="#000000" cx="663.0208" cy="-352.1263" rx="92.8656" ry="41.0911"/>
<text text-anchor="middle" x="663.0208" y="-364.7263" font-family="Times,serif" font-size="14.00" fill="#000000">LEFT JOIN datasets</text>
<text text-anchor="middle" x="663.0208" y="-347.9263" font-family="Times,serif" font-size="14.00" fill="#000000">At level: 1</text>
<text text-anchor="middle" x="663.0208" y="-331.1263" font-family="Times,serif" font-size="14.00" fill="#000000">Required: true</text>
</g>
<!-- datasets__dataID_dataID__samples_join_Has_Rows&#45;&gt;samples__dataID_dataID__datasets_join -->
<g id="edge16" class="edge">
<title>datasets__dataID_dataID__samples_join_Has_Rows&#45;&gt;samples__dataID_dataID__datasets_join</title>
<path fill="none" stroke="#000000" d="M328.3384,-437.4032C385.8913,-422.7388 494.6847,-395.0183 572.6197,-375.1605"/>
<polygon fill="#000000" stroke="#000000" points="573.6176,-378.5181 582.4438,-372.6573 571.8892,-371.7348 573.6176,-378.5181"/>
</g>
<!-- samples__siteID_siteID__sites_join_Has_Rows -->
<g id="node9" class="node">
<title>samples__siteID_siteID__sites_join_Has_Rows</title>
<ellipse fill="none" stroke="#000000" cx="318.0208" cy="-256.8313" rx="47.4704" ry="18"/>
<text text-anchor="middle" x="318.0208" y="-252.6313" font-family="Times,serif" font-size="14.00" fill="#000000">Has rows</text>
</g>
<!-- samples__siteID_siteID__sites_join&#45;&gt;samples__siteID_siteID__sites_join_Has_Rows -->
<g id="edge8" class="edge">
<title>samples__siteID_siteID__sites_join&#45;&gt;samples__siteID_siteID__sites_join_Has_Rows</title>
<path fill="none" stroke="#000000" d="M301.4877,-311.1596C304.238,-302.1219 307.0879,-292.7571 309.6309,-284.4007"/>
<polygon fill="#000000" stroke="#000000" points="312.9903,-285.3834 312.5533,-274.7975 306.2935,-283.3454 312.9903,-285.3834"/>
</g>
<!-- samples__siteID_siteID__sites_join_No_Rows -->
<g id="node15" class="node">
<title>samples__siteID_siteID__sites_join_No_Rows</title>
<ellipse fill="none" stroke="#000000" cx="141.0208" cy="-173.4156" rx="44.0415" ry="18"/>
<text text-anchor="middle" x="141.0208" y="-169.2156" font-family="Times,serif" font-size="14.00" fill="#000000">No rows</text>
</g>
<!-- samples__siteID_siteID__sites_join&#45;&gt;samples__siteID_siteID__sites_join_No_Rows -->
<g id="edge14" class="edge">
<title>samples__siteID_siteID__sites_join&#45;&gt;samples__siteID_siteID__sites_join_No_Rows</title>
<path fill="none" stroke="#000000" d="M257.6338,-314.2264C228.7816,-279.3872 186.8189,-228.7171 161.8852,-198.6096"/>
<polygon fill="#000000" stroke="#000000" points="164.4032,-196.1626 155.3293,-190.6932 159.0119,-200.6274 164.4032,-196.1626"/>
</g>
<!-- samples__siteID_siteID__sites_where -->
<g id="node10" class="node">
<title>samples__siteID_siteID__sites_where</title>
<ellipse fill="none" stroke="#000000" cx="419.0208" cy="-173.4156" rx="216.315" ry="29.3315"/>
<text text-anchor="middle" x="419.0208" y="-177.6156" font-family="Times,serif" font-size="14.00" fill="#000000">WHERE IN</text>
<text text-anchor="middle" x="419.0208" y="-160.8156" font-family="Times,serif" font-size="14.00" fill="#000000">sites.healthReg = [&quot;Whitehorse&quot;,&quot;Haines Junction&quot;]</text>
</g>
<!-- samples__siteID_siteID__sites_join_Has_Rows&#45;&gt;samples__siteID_siteID__sites_where -->
<g id="edge9" class="edge">
<title>samples__siteID_siteID__sites_join_Has_Rows&#45;&gt;samples__siteID_siteID__sites_where</title>
<path fill="none" stroke="#000000" d="M337.9751,-240.351C348.7346,-231.4648 362.4573,-220.1313 375.5392,-209.327"/>
<polygon fill="#000000" stroke="#000000" points="378.0879,-211.7614 383.5695,-202.6948 373.6303,-206.3641 378.0879,-211.7614"/>
</g>
<!-- samples__siteID_siteID__sites_where_Has_Rows -->
<g id="node11" class="node">
<title>samples__siteID_siteID__sites_where_Has_Rows</title>
<ellipse fill="none" stroke="#000000" cx="844.0208" cy="-90" rx="47.4704" ry="18"/>
<text text-anchor="middle" x="844.0208" y="-85.8" font-family="Times,serif" font-size="14.00" fill="#000000">Has rows</text>
</g>
<!-- samples__siteID_siteID__sites_where&#45;&gt;samples__siteID_siteID__sites_where_Has_Rows -->
<g id="edge10" class="edge">
<title>samples__siteID_siteID__sites_where&#45;&gt;samples__siteID_siteID__sites_where_Has_Rows</title>
<path fill="none" stroke="#000000" d="M567.2232,-151.8511C634.9865,-140.7886 716.0339,-125.8628 788.0208,-108 791.6013,-107.1115 795.2864,-106.1154 798.9754,-105.0596"/>
<polygon fill="#000000" stroke="#000000" points="800.101,-108.3762 808.6797,-102.1588 798.0962,-101.6695 800.101,-108.3762"/>
</g>
<!-- samples__siteID_siteID__sites_where_No_Rows -->
<g id="node13" class="node">
<title>samples__siteID_siteID__sites_where_No_Rows</title>
<ellipse fill="none" stroke="#000000" cx="350.0208" cy="-90" rx="44.0415" ry="18"/>
<text text-anchor="middle" x="350.0208" y="-85.8" font-family="Times,serif" font-size="14.00" fill="#000000">No rows</text>
</g>
<!-- samples__siteID_siteID__sites_where&#45;&gt;samples__siteID_siteID__sites_where_No_Rows -->
<g id="edge12" class="edge">
<title>samples__siteID_siteID__sites_where&#45;&gt;samples__siteID_siteID__sites_where_No_Rows</title>
<path fill="none" stroke="#000000" d="M394.4997,-143.7715C386.7889,-134.4498 378.3504,-124.2484 370.9157,-115.2604"/>
<polygon fill="#000000" stroke="#000000" points="373.4906,-112.8819 364.4198,-107.4073 368.0967,-117.3437 373.4906,-112.8819"/>
</g>
<!-- granted -->
<g id="node12" class="node">
<title>granted</title>
<ellipse fill="none" stroke="#000000" cx="956.0208" cy="-18" rx="71.7874" ry="18"/>
<text text-anchor="middle" x="956.0208" y="-13.8" font-family="Times,serif" font-size="14.00" fill="#000000">Access Granted</text>
</g>
<!-- samples__siteID_siteID__sites_where_Has_Rows&#45;&gt;granted -->
<g id="edge11" class="edge">
<title>samples__siteID_siteID__sites_where_Has_Rows&#45;&gt;granted</title>
<path fill="none" stroke="#000000" d="M868.3231,-74.3771C883.7728,-64.4451 904.022,-51.4278 921.1699,-40.4041"/>
<polygon fill="#000000" stroke="#000000" points="923.2934,-43.1999 929.8126,-34.8481 919.5081,-37.3116 923.2934,-43.1999"/>
</g>
<!-- denied -->
<g id="node14" class="node">
<title>denied</title>
<ellipse fill="none" stroke="#000000" cx="211.0208" cy="-18" rx="68.8581" ry="18"/>
<text text-anchor="middle" x="211.0208" y="-13.8" font-family="Times,serif" font-size="14.00" fill="#000000">Access Denied</text>
</g>
<!-- samples__siteID_siteID__sites_where_No_Rows&#45;&gt;denied -->
<g id="edge13" class="edge">
<title>samples__siteID_siteID__sites_where_No_Rows&#45;&gt;denied</title>
<path fill="none" stroke="#000000" d="M322.5588,-75.7751C302.2537,-65.2574 274.2803,-50.7675 251.4278,-38.9302"/>
<polygon fill="#000000" stroke="#000000" points="252.7964,-35.6976 242.3071,-34.2059 249.5768,-41.9132 252.7964,-35.6976"/>
</g>
<!-- samples__siteID_siteID__sites_join_No_Rows&#45;&gt;denied -->
<g id="edge15" class="edge">
<title>samples__siteID_siteID__sites_join_No_Rows&#45;&gt;denied</title>
<path fill="none" stroke="#000000" d="M149.0507,-155.5875C161.2224,-128.5634 184.4361,-77.0239 198.7384,-45.2695"/>
<polygon fill="#000000" stroke="#000000" points="201.9534,-46.6542 202.8689,-36.0989 195.5709,-43.7794 201.9534,-46.6542"/>
</g>
<!-- samples__dataID_dataID__datasets_join_Has_Rows -->
<g id="node17" class="node">
<title>samples__dataID_dataID__datasets_join_Has_Rows</title>
<ellipse fill="none" stroke="#000000" cx="846.0208" cy="-256.8313" rx="47.4704" ry="18"/>
<text text-anchor="middle" x="846.0208" y="-252.6313" font-family="Times,serif" font-size="14.00" fill="#000000">Has rows</text>
</g>
<!-- samples__dataID_dataID__datasets_join&#45;&gt;samples__dataID_dataID__datasets_join_Has_Rows -->
<g id="edge17" class="edge">
<title>samples__dataID_dataID__datasets_join&#45;&gt;samples__dataID_dataID__datasets_join_Has_Rows</title>
<path fill="none" stroke="#000000" d="M723.449,-320.6591C751.6975,-305.949 784.4296,-288.9042 808.9594,-276.1305"/>
<polygon fill="#000000" stroke="#000000" points="810.6797,-279.1809 817.9327,-271.4578 807.4466,-272.9722 810.6797,-279.1809"/>
</g>
<!-- samples__dataID_dataID__datasets_join_No_Rows -->
<g id="node21" class="node">
<title>samples__dataID_dataID__datasets_join_No_Rows</title>
<ellipse fill="none" stroke="#000000" cx="663.0208" cy="-256.8313" rx="44.0415" ry="18"/>
<text text-anchor="middle" x="663.0208" y="-252.6313" font-family="Times,serif" font-size="14.00" fill="#000000">No rows</text>
</g>
<!-- samples__dataID_dataID__datasets_join&#45;&gt;samples__dataID_dataID__datasets_join_No_Rows -->
<g id="edge23" class="edge">
<title>samples__dataID_dataID__datasets_join&#45;&gt;samples__dataID_dataID__datasets_join_No_Rows</title>
<path fill="none" stroke="#000000" d="M663.0208,-310.6057C663.0208,-302.0541 663.0208,-293.2347 663.0208,-285.2742"/>
<polygon fill="#000000" stroke="#000000" points="666.5209,-285.0572 663.0208,-275.0572 659.5209,-285.0572 666.5209,-285.0572"/>
</g>
<!-- samples__dataID_dataID__datasets_where -->
<g id="node18" class="node">
<title>samples__dataID_dataID__datasets_where</title>
<ellipse fill="none" stroke="#000000" cx="920.0208" cy="-173.4156" rx="228.5204" ry="29.3315"/>
<text text-anchor="middle" x="920.0208" y="-177.6156" font-family="Times,serif" font-size="14.00" fill="#000000">WHERE IN</text>
<text text-anchor="middle" x="920.0208" y="-160.8156" font-family="Times,serif" font-size="14.00" fill="#000000">datasets.dataID = [&quot;NML&#45;WWPCR&quot;,&quot;NML&#45;WWGX&quot;]</text>
</g>
<!-- samples__dataID_dataID__datasets_join_Has_Rows&#45;&gt;samples__dataID_dataID__datasets_where -->
<g id="edge18" class="edge">
<title>samples__dataID_dataID__datasets_join_Has_Rows&#45;&gt;samples__dataID_dataID__datasets_where</title>
<path fill="none" stroke="#000000" d="M861.3536,-239.5475C868.8428,-231.1054 878.1606,-220.6021 887.1492,-210.4697"/>
<polygon fill="#000000" stroke="#000000" points="889.9049,-212.6374 893.923,-202.834 884.6685,-207.992 889.9049,-212.6374"/>
</g>
<!-- samples__dataID_dataID__datasets_where_Has_Rows -->
<g id="node19" class="node">
<title>samples__dataID_dataID__datasets_where_Has_Rows</title>
<ellipse fill="none" stroke="#000000" cx="956.0208" cy="-90" rx="47.4704" ry="18"/>
<text text-anchor="middle" x="956.0208" y="-85.8" font-family="Times,serif" font-size="14.00" fill="#000000">Has rows</text>
</g>
<!-- samples__dataID_dataID__datasets_where&#45;&gt;samples__dataID_dataID__datasets_where_Has_Rows -->
<g id="edge19" class="edge">
<title>samples__dataID_dataID__datasets_where&#45;&gt;samples__dataID_dataID__datasets_where_Has_Rows</title>
<path fill="none" stroke="#000000" d="M932.8144,-143.7715C936.533,-135.1551 940.576,-125.7872 944.2299,-117.3206"/>
<polygon fill="#000000" stroke="#000000" points="947.5488,-118.4631 948.2979,-107.8947 941.1218,-115.6893 947.5488,-118.4631"/>
</g>
<!-- samples__dataID_dataID__datasets_where_No_Rows -->
<g id="node20" class="node">
<title>samples__dataID_dataID__datasets_where_No_Rows</title>
<ellipse fill="none" stroke="#000000" cx="735.0208" cy="-90" rx="44.0415" ry="18"/>
<text text-anchor="middle" x="735.0208" y="-85.8" font-family="Times,serif" font-size="14.00" fill="#000000">No rows</text>
</g>
<!-- samples__dataID_dataID__datasets_where&#45;&gt;samples__dataID_dataID__datasets_where_No_Rows -->
<g id="edge21" class="edge">
<title>samples__dataID_dataID__datasets_where&#45;&gt;samples__dataID_dataID__datasets_where_No_Rows</title>
<path fill="none" stroke="#000000" d="M857.1301,-145.0585C829.5727,-132.633 798.0959,-118.4403 774.003,-107.5769"/>
<polygon fill="#000000" stroke="#000000" points="775.3801,-104.3585 764.8253,-103.4387 772.5028,-110.7399 775.3801,-104.3585"/>
</g>
<!-- samples__dataID_dataID__datasets_where_Has_Rows&#45;&gt;granted -->
<g id="edge20" class="edge">
<title>samples__dataID_dataID__datasets_where_Has_Rows&#45;&gt;granted</title>
<path fill="none" stroke="#000000" d="M956.0208,-71.8314C956.0208,-64.131 956.0208,-54.9743 956.0208,-46.4166"/>
<polygon fill="#000000" stroke="#000000" points="959.5209,-46.4132 956.0208,-36.4133 952.5209,-46.4133 959.5209,-46.4132"/>
</g>
<!-- samples__dataID_dataID__datasets_where_No_Rows&#45;&gt;denied -->
<g id="edge22" class="edge">
<title>samples__dataID_dataID__datasets_where_No_Rows&#45;&gt;denied</title>
<path fill="none" stroke="#000000" d="M701.2561,-78.3663C693.3759,-75.9744 684.9638,-73.6776 677.0208,-72 542.0325,-43.4903 381.645,-29.0663 288.5798,-22.5701"/>
<polygon fill="#000000" stroke="#000000" points="288.6182,-19.0646 278.4022,-21.8726 288.1395,-26.0482 288.6182,-19.0646"/>
</g>
<!-- samples__dataID_dataID__datasets_join_No_Rows&#45;&gt;denied -->
<g id="edge24" class="edge">
<title>samples__dataID_dataID__datasets_join_No_Rows&#45;&gt;denied</title>
<path fill="none" stroke="#000000" d="M665.3604,-238.7557C667.4721,-214.2003 667.3014,-170.3488 644.0208,-144 595.8875,-89.5231 389.7386,-47.7794 280.1515,-28.9616"/>
<polygon fill="#000000" stroke="#000000" points="280.6233,-25.4917 270.1782,-27.2666 279.4503,-32.3927 280.6233,-25.4917"/>
</g>
<!-- datasets__dataID_dataID__samples_join_No_Rows&#45;&gt;denied -->
<g id="edge26" class="edge">
<title>datasets__dataID_dataID__samples_join_No_Rows&#45;&gt;denied</title>
<path fill="none" stroke="#000000" d="M137.846,-430.1061C114.6666,-397.862 69.0208,-325.6316 69.0208,-256.8313 69.0208,-256.8313 69.0208,-256.8313 69.0208,-173.4156 69.0208,-112.5091 129.1936,-65.0406 171.1988,-39.3241"/>
<polygon fill="#000000" stroke="#000000" points="173.0555,-42.292 179.8583,-34.1696 169.4751,-36.277 173.0555,-42.292"/>
</g>
<!-- instruments__dataID_dataID__datasets_where_No_Rows&#45;&gt;denied -->
<g id="edge28" class="edge">
<title>instruments__dataID_dataID__datasets_where_No_Rows&#45;&gt;denied</title>
<path fill="none" stroke="#000000" d="M41.9609,-524.6121C38.2952,-490.7796 31.0208,-415.6381 31.0208,-352.1263 31.0208,-352.1263 31.0208,-352.1263 31.0208,-173.4156 31.0208,-121.4914 50.4669,-106.7811 89.0208,-72 107.4478,-55.3762 131.821,-43.2084 153.935,-34.6787"/>
<polygon fill="#000000" stroke="#000000" points="155.4028,-37.8681 163.5775,-31.1283 152.984,-31.2992 155.4028,-37.8681"/>
</g>
<!-- instruments__dataID_dataID__datasets_join_No_Rows&#45;&gt;granted -->
<g id="edge30" class="edge">
<title>instruments__dataID_dataID__datasets_join_No_Rows&#45;&gt;granted</title>
<path fill="none" stroke="#000000" d="M1106.8266,-703.97C1131.1797,-673.4101 1177.0208,-607.3072 1177.0208,-542.7164 1177.0208,-542.7164 1177.0208,-542.7164 1177.0208,-173.4156 1177.0208,-95.4505 1083.8532,-53.2098 1018.5029,-33.1707"/>
<polygon fill="#000000" stroke="#000000" points="1019.2573,-29.7439 1008.675,-30.2583 1017.2684,-36.4554 1019.2573,-29.7439"/>
</g>
</g>
</svg>
