<?xml version="1.0" encoding="UTF-8" standalone="no"?>
<!DOCTYPE svg PUBLIC "-//W3C//DTD SVG 1.1//EN"
 "http://www.w3.org/Graphics/SVG/1.1/DTD/svg11.dtd">
<!-- Generated by graphviz version 2.40.1 (20161225.0304)
 -->
<!-- Title: G Pages: 1 -->
<svg width="956pt" height="1021pt"
 viewBox="0.00 0.00 955.76 1021.43" xmlns="http://www.w3.org/2000/svg" xmlns:xlink="http://www.w3.org/1999/xlink">
<g id="graph0" class="graph" transform="scale(1 1) rotate(0) translate(4 1017.4328)">
<title>G</title>
<polygon fill="#ffffff" stroke="transparent" points="-4,4 -4,-1017.4328 951.7601,-1017.4328 951.7601,4 -4,4"/>
<!-- instruments -->
<g id="node1" class="node">
<title>instruments</title>
<ellipse fill="none" stroke="#000000" cx="599.7601" cy="-995.4328" rx="56.1957" ry="18"/>
<text text-anchor="middle" x="599.7601" y="-991.2328" font-family="Times,serif" font-size="14.00" fill="#000000">instruments</text>
</g>
<!-- instruments__dataID_dataID__datasets_join -->
<g id="node2" class="node">
<title>instruments__dataID_dataID__datasets_join</title>
<ellipse fill="none" stroke="#000000" cx="599.7601" cy="-900.1377" rx="92.8656" ry="41.0911"/>
<text text-anchor="middle" x="599.7601" y="-912.7377" font-family="Times,serif" font-size="14.00" fill="#000000">LEFT JOIN datasets</text>
<text text-anchor="middle" x="599.7601" y="-895.9377" font-family="Times,serif" font-size="14.00" fill="#000000">At level: 3</text>
<text text-anchor="middle" x="599.7601" y="-879.1377" font-family="Times,serif" font-size="14.00" fill="#000000">Required: false</text>
</g>
<!-- instruments&#45;&gt;instruments__dataID_dataID__datasets_join -->
<g id="edge1" class="edge">
<title>instruments&#45;&gt;instruments__dataID_dataID__datasets_join</title>
<path fill="none" stroke="#000000" d="M599.7601,-977.0589C599.7601,-969.7498 599.7601,-960.9402 599.7601,-951.9314"/>
<polygon fill="#000000" stroke="#000000" points="603.2602,-951.7449 599.7601,-941.7449 596.2602,-951.745 603.2602,-951.7449"/>
</g>
<!-- instruments__dataID_dataID__datasets_join_Has_Rows -->
<g id="node3" class="node">
<title>instruments__dataID_dataID__datasets_join_Has_Rows</title>
<ellipse fill="none" stroke="#000000" cx="562.7601" cy="-804.8427" rx="47.4704" ry="18"/>
<text text-anchor="middle" x="562.7601" y="-800.6427" font-family="Times,serif" font-size="14.00" fill="#000000">Has rows</text>
</g>
<!-- instruments__dataID_dataID__datasets_join&#45;&gt;instruments__dataID_dataID__datasets_join_Has_Rows -->
<g id="edge2" class="edge">
<title>instruments__dataID_dataID__datasets_join&#45;&gt;instruments__dataID_dataID__datasets_join_Has_Rows</title>
<path fill="none" stroke="#000000" d="M583.854,-859.171C580.3064,-850.034 576.629,-840.5627 573.3576,-832.137"/>
<polygon fill="#000000" stroke="#000000" points="576.618,-830.8641 569.7358,-822.809 570.0926,-833.3978 576.618,-830.8641"/>
</g>
<!-- instruments__dataID_dataID__datasets_join_No_Rows -->
<g id="node24" class="node">
<title>instruments__dataID_dataID__datasets_join_No_Rows</title>
<ellipse fill="none" stroke="#000000" cx="876.7601" cy="-721.4271" rx="44.0415" ry="18"/>
<text text-anchor="middle" x="876.7601" y="-717.2271" font-family="Times,serif" font-size="14.00" fill="#000000">No rows</text>
</g>
<!-- instruments__dataID_dataID__datasets_join&#45;&gt;instruments__dataID_dataID__datasets_join_No_Rows -->
<g id="edge29" class="edge">
<title>instruments__dataID_dataID__datasets_join&#45;&gt;instruments__dataID_dataID__datasets_join_No_Rows</title>
<path fill="none" stroke="#000000" d="M652.5137,-866.103C709.1409,-829.5691 797.2966,-772.6941 844.4391,-742.2794"/>
<polygon fill="#000000" stroke="#000000" points="846.518,-745.1035 853.0235,-736.7411 842.723,-739.2214 846.518,-745.1035"/>
</g>
<!-- instruments__dataID_dataID__datasets_where -->
<g id="node4" class="node">
<title>instruments__dataID_dataID__datasets_where</title>
<ellipse fill="none" stroke="#000000" cx="228.7601" cy="-721.4271" rx="228.5204" ry="29.3315"/>
<text text-anchor="middle" x="228.7601" y="-725.6271" font-family="Times,serif" font-size="14.00" fill="#000000">WHERE IN</text>
<text text-anchor="middle" x="228.7601" y="-708.8271" font-family="Times,serif" font-size="14.00" fill="#000000">datasets.dataID = [&quot;NML&#45;WWPCR&quot;,&quot;NML&#45;WWGX&quot;]</text>
</g>
<!-- instruments__dataID_dataID__datasets_join_Has_Rows&#45;&gt;instruments__dataID_dataID__datasets_where -->
<g id="edge3" class="edge">
<title>instruments__dataID_dataID__datasets_join_Has_Rows&#45;&gt;instruments__dataID_dataID__datasets_where</title>
<path fill="none" stroke="#000000" d="M523.1343,-794.9463C479.0938,-783.9473 405.956,-765.6813 343.602,-750.1085"/>
<polygon fill="#000000" stroke="#000000" points="344.2434,-746.6613 333.6933,-747.6339 342.5472,-753.4527 344.2434,-746.6613"/>
</g>
<!-- instruments__dataID_dataID__datasets_where_Has_Rows -->
<g id="node5" class="node">
<title>instruments__dataID_dataID__datasets_where_Has_Rows</title>
<ellipse fill="none" stroke="#000000" cx="228.7601" cy="-638.0114" rx="47.4704" ry="18"/>
<text text-anchor="middle" x="228.7601" y="-633.8114" font-family="Times,serif" font-size="14.00" fill="#000000">Has rows</text>
</g>
<!-- instruments__dataID_dataID__datasets_where&#45;&gt;instruments__dataID_dataID__datasets_where_Has_Rows -->
<g id="edge4" class="edge">
<title>instruments__dataID_dataID__datasets_where&#45;&gt;instruments__dataID_dataID__datasets_where_Has_Rows</title>
<path fill="none" stroke="#000000" d="M228.7601,-691.783C228.7601,-683.5778 228.7601,-674.691 228.7601,-666.5502"/>
<polygon fill="#000000" stroke="#000000" points="232.2602,-666.398 228.7601,-656.398 225.2602,-666.398 232.2602,-666.398"/>
</g>
<!-- instruments__dataID_dataID__datasets_where_No_Rows -->
<g id="node23" class="node">
<title>instruments__dataID_dataID__datasets_where_No_Rows</title>
<ellipse fill="none" stroke="#000000" cx="62.7601" cy="-542.7164" rx="44.0415" ry="18"/>
<text text-anchor="middle" x="62.7601" y="-538.5164" font-family="Times,serif" font-size="14.00" fill="#000000">No rows</text>
</g>
<!-- instruments__dataID_dataID__datasets_where&#45;&gt;instruments__dataID_dataID__datasets_where_No_Rows -->
<g id="edge27" class="edge">
<title>instruments__dataID_dataID__datasets_where&#45;&gt;instruments__dataID_dataID__datasets_where_No_Rows</title>
<path fill="none" stroke="#000000" d="M201.3486,-691.9166C169.0892,-657.1872 116.0957,-600.1359 85.8425,-567.5663"/>
<polygon fill="#000000" stroke="#000000" points="88.0376,-564.7866 78.6674,-559.8418 82.9088,-569.5507 88.0376,-564.7866"/>
</g>
<!-- datasets__dataID_dataID__samples_join -->
<g id="node6" class="node">
<title>datasets__dataID_dataID__samples_join</title>
<ellipse fill="none" stroke="#000000" cx="228.7601" cy="-542.7164" rx="93.4765" ry="41.0911"/>
<text text-anchor="middle" x="228.7601" y="-555.3164" font-family="Times,serif" font-size="14.00" fill="#000000">LEFT JOIN samples</text>
<text text-anchor="middle" x="228.7601" y="-538.5164" font-family="Times,serif" font-size="14.00" fill="#000000">At level: 2</text>
<text text-anchor="middle" x="228.7601" y="-521.7164" font-family="Times,serif" font-size="14.00" fill="#000000">Required: true</text>
</g>
<!-- instruments__dataID_dataID__datasets_where_Has_Rows&#45;&gt;datasets__dataID_dataID__samples_join -->
<g id="edge5" class="edge">
<title>instruments__dataID_dataID__datasets_where_Has_Rows&#45;&gt;datasets__dataID_dataID__samples_join</title>
<path fill="none" stroke="#000000" d="M228.7601,-619.6376C228.7601,-612.3285 228.7601,-603.5189 228.7601,-594.5101"/>
<polygon fill="#000000" stroke="#000000" points="232.2602,-594.3235 228.7601,-584.3236 225.2602,-594.3236 232.2602,-594.3235"/>
</g>
<!-- datasets__dataID_dataID__samples_join_Has_Rows -->
<g id="node7" class="node">
<title>datasets__dataID_dataID__samples_join_Has_Rows</title>
<ellipse fill="none" stroke="#000000" cx="239.7601" cy="-447.4214" rx="47.4704" ry="18"/>
<text text-anchor="middle" x="239.7601" y="-443.2214" font-family="Times,serif" font-size="14.00" fill="#000000">Has rows</text>
</g>
<!-- datasets__dataID_dataID__samples_join&#45;&gt;datasets__dataID_dataID__samples_join_Has_Rows -->
<g id="edge6" class="edge">
<title>datasets__dataID_dataID__samples_join&#45;&gt;datasets__dataID_dataID__samples_join_Has_Rows</title>
<path fill="none" stroke="#000000" d="M233.5209,-501.4728C234.5221,-492.7989 235.5566,-483.8366 236.4885,-475.764"/>
<polygon fill="#000000" stroke="#000000" points="239.973,-476.0989 237.6428,-465.7635 233.0191,-475.2961 239.973,-476.0989"/>
</g>
<!-- datasets__dataID_dataID__samples_join_No_Rows -->
<g id="node22" class="node">
<title>datasets__dataID_dataID__samples_join_No_Rows</title>
<ellipse fill="none" stroke="#000000" cx="127.7601" cy="-447.4214" rx="44.0415" ry="18"/>
<text text-anchor="middle" x="127.7601" y="-443.2214" font-family="Times,serif" font-size="14.00" fill="#000000">No rows</text>
</g>
<!-- datasets__dataID_dataID__samples_join&#45;&gt;datasets__dataID_dataID__samples_join_No_Rows -->
<g id="edge25" class="edge">
<title>datasets__dataID_dataID__samples_join&#45;&gt;datasets__dataID_dataID__samples_join_No_Rows</title>
<path fill="none" stroke="#000000" d="M189.1321,-505.3268C176.947,-493.83 163.8754,-481.4967 152.9404,-471.1794"/>
<polygon fill="#000000" stroke="#000000" points="155.0744,-468.3809 145.3989,-464.0639 150.2705,-473.4723 155.0744,-468.3809"/>
</g>
<!-- samples__siteID_siteID__sites_join -->
<g id="node8" class="node">
<title>samples__siteID_siteID__sites_join</title>
<ellipse fill="none" stroke="#000000" cx="239.7601" cy="-352.1263" rx="78.8882" ry="41.0911"/>
<text text-anchor="middle" x="239.7601" y="-364.7263" font-family="Times,serif" font-size="14.00" fill="#000000">LEFT JOIN sites</text>
<text text-anchor="middle" x="239.7601" y="-347.9263" font-family="Times,serif" font-size="14.00" fill="#000000">At level: 1</text>
<text text-anchor="middle" x="239.7601" y="-331.1263" font-family="Times,serif" font-size="14.00" fill="#000000">Required: true</text>
</g>
<!-- datasets__dataID_dataID__samples_join_Has_Rows&#45;&gt;samples__siteID_siteID__sites_join -->
<g id="edge7" class="edge">
<title>datasets__dataID_dataID__samples_join_Has_Rows&#45;&gt;samples__siteID_siteID__sites_join</title>
<path fill="none" stroke="#000000" d="M239.7601,-429.0475C239.7601,-421.7384 239.7601,-412.9288 239.7601,-403.92"/>
<polygon fill="#000000" stroke="#000000" points="243.2602,-403.7335 239.7601,-393.7335 236.2602,-403.7335 243.2602,-403.7335"/>
</g>
<!-- samples__dataID_dataID__datasets_join -->
<g id="node16" class="node">
<title>samples__dataID_dataID__datasets_join</title>
<ellipse fill="none" stroke="#000000" cx="433.7601" cy="-352.1263" rx="92.8656" ry="41.0911"/>
<text text-anchor="middle" x="433.7601" y="-364.7263" font-family="Times,serif" font-size="14.00" fill="#000000">LEFT JOIN datasets</text>
<text text-anchor="middle" x="433.7601" y="-347.9263" font-family="Times,serif" font-size="14.00" fill="#000000">At level: 1</text>
<text text-anchor="middle" x="433.7601" y="-331.1263" font-family="Times,serif" font-size="14.00" fill="#000000">Required: true</text>
</g>
<!-- datasets__dataID_dataID__samples_join_Has_Rows&#45;&gt;samples__dataID_dataID__datasets_join -->
<g id="edge16" class="edge">
<title>datasets__dataID_dataID__samples_join_Has_Rows&#45;&gt;samples__dataID_dataID__datasets_join</title>
<path fill="none" stroke="#000000" d="M268.8038,-433.1547C293.4415,-421.0524 329.8338,-403.1761 362.1721,-387.2912"/>
<polygon fill="#000000" stroke="#000000" points="363.74,-390.4205 371.1725,-382.8701 360.6537,-384.1376 363.74,-390.4205"/>
</g>
<!-- samples__siteID_siteID__sites_join_Has_Rows -->
<g id="node9" class="node">
<title>samples__siteID_siteID__sites_join_Has_Rows</title>
<ellipse fill="none" stroke="#000000" cx="274.7601" cy="-256.8313" rx="47.4704" ry="18"/>
<text text-anchor="middle" x="274.7601" y="-252.6313" font-family="Times,serif" font-size="14.00" fill="#000000">Has rows</text>
</g>
<!-- samples__siteID_siteID__sites_join&#45;&gt;samples__siteID_siteID__sites_join_Has_Rows -->
<g id="edge8" class="edge">
<title>samples__siteID_siteID__sites_join&#45;&gt;samples__siteID_siteID__sites_join_Has_Rows</title>
<path fill="none" stroke="#000000" d="M254.7047,-311.4362C258.0334,-302.3731 261.4882,-292.9668 264.5732,-284.5672"/>
<polygon fill="#000000" stroke="#000000" points="267.9573,-285.505 268.1196,-274.9114 261.3865,-283.0916 267.9573,-285.505"/>
</g>
<!-- samples__siteID_siteID__sites_join_No_Rows -->
<g id="node15" class="node">
<title>samples__siteID_siteID__sites_join_No_Rows</title>
<ellipse fill="none" stroke="#000000" cx="159.7601" cy="-173.4156" rx="44.0415" ry="18"/>
<text text-anchor="middle" x="159.7601" y="-169.2156" font-family="Times,serif" font-size="14.00" fill="#000000">No rows</text>
</g>
<!-- samples__siteID_siteID__sites_join&#45;&gt;samples__siteID_siteID__sites_join_No_Rows -->
<g id="edge14" class="edge">
<title>samples__siteID_siteID__sites_join&#45;&gt;samples__siteID_siteID__sites_join_No_Rows</title>
<path fill="none" stroke="#000000" d="M221.6068,-311.5741C206.4478,-277.7105 185.25,-230.3572 172.0229,-200.8095"/>
<polygon fill="#000000" stroke="#000000" points="175.1434,-199.2139 167.863,-191.5167 168.7544,-202.074 175.1434,-199.2139"/>
</g>
<!-- samples__siteID_siteID__sites_where -->
<g id="node10" class="node">
<title>samples__siteID_siteID__sites_where</title>
<ellipse fill="none" stroke="#000000" cx="313.7601" cy="-173.4156" rx="92.1488" ry="29.3315"/>
<text text-anchor="middle" x="313.7601" y="-177.6156" font-family="Times,serif" font-size="14.00" fill="#000000">WHERE</text>
<text text-anchor="middle" x="313.7601" y="-160.8156" font-family="Times,serif" font-size="14.00" fill="#000000">sites.siteID = &quot;HNJ&quot;</text>
</g>
<!-- samples__siteID_siteID__sites_join_Has_Rows&#45;&gt;samples__siteID_siteID__sites_where -->
<g id="edge9" class="edge">
<title>samples__siteID_siteID__sites_join_Has_Rows&#45;&gt;samples__siteID_siteID__sites_where</title>
<path fill="none" stroke="#000000" d="M283.2225,-238.7313C286.9189,-230.8251 291.4044,-221.2313 295.7864,-211.8588"/>
<polygon fill="#000000" stroke="#000000" points="299.0361,-213.1719 300.1009,-202.6307 292.695,-210.2071 299.0361,-213.1719"/>
</g>
<!-- samples__siteID_siteID__sites_where_Has_Rows -->
<g id="node11" class="node">
<title>samples__siteID_siteID__sites_where_Has_Rows</title>
<ellipse fill="none" stroke="#000000" cx="614.7601" cy="-90" rx="47.4704" ry="18"/>
<text text-anchor="middle" x="614.7601" y="-85.8" font-family="Times,serif" font-size="14.00" fill="#000000">Has rows</text>
</g>
<!-- samples__siteID_siteID__sites_where&#45;&gt;samples__siteID_siteID__sites_where_Has_Rows -->
<g id="edge10" class="edge">
<title>samples__siteID_siteID__sites_where&#45;&gt;samples__siteID_siteID__sites_where_Has_Rows</title>
<path fill="none" stroke="#000000" d="M386.1194,-155.1112C435.0391,-142.4874 501.0009,-124.9821 558.7601,-108 562.1448,-107.0048 565.6358,-105.9505 569.1428,-104.871"/>
<polygon fill="#000000" stroke="#000000" points="570.4938,-108.1157 578.9935,-101.7907 568.4046,-101.4348 570.4938,-108.1157"/>
</g>
<!-- samples__siteID_siteID__sites_where_No_Rows -->
<g id="node13" class="node">
<title>samples__siteID_siteID__sites_where_No_Rows</title>
<ellipse fill="none" stroke="#000000" cx="275.7601" cy="-90" rx="44.0415" ry="18"/>
<text text-anchor="middle" x="275.7601" y="-85.8" font-family="Times,serif" font-size="14.00" fill="#000000">No rows</text>
</g>
<!-- samples__siteID_siteID__sites_where&#45;&gt;samples__siteID_siteID__sites_where_No_Rows -->
<g id="edge12" class="edge">
<title>samples__siteID_siteID__sites_where&#45;&gt;samples__siteID_siteID__sites_where_No_Rows</title>
<path fill="none" stroke="#000000" d="M300.4695,-144.2409C296.4886,-135.5023 292.1391,-125.9545 288.2142,-117.3387"/>
<polygon fill="#000000" stroke="#000000" points="291.3363,-115.7492 284.0055,-108.1 284.9661,-118.6512 291.3363,-115.7492"/>
</g>
<!-- granted -->
<g id="node12" class="node">
<title>granted</title>
<ellipse fill="none" stroke="#000000" cx="726.7601" cy="-18" rx="71.7874" ry="18"/>
<text text-anchor="middle" x="726.7601" y="-13.8" font-family="Times,serif" font-size="14.00" fill="#000000">Access Granted</text>
</g>
<!-- samples__siteID_siteID__sites_where_Has_Rows&#45;&gt;granted -->
<g id="edge11" class="edge">
<title>samples__siteID_siteID__sites_where_Has_Rows&#45;&gt;granted</title>
<path fill="none" stroke="#000000" d="M639.0624,-74.3771C654.5121,-64.4451 674.7613,-51.4278 691.9092,-40.4041"/>
<polygon fill="#000000" stroke="#000000" points="694.0327,-43.1999 700.5519,-34.8481 690.2474,-37.3116 694.0327,-43.1999"/>
</g>
<!-- denied -->
<g id="node14" class="node">
<title>denied</title>
<ellipse fill="none" stroke="#000000" cx="198.7601" cy="-18" rx="68.8581" ry="18"/>
<text text-anchor="middle" x="198.7601" y="-13.8" font-family="Times,serif" font-size="14.00" fill="#000000">Access Denied</text>
</g>
<!-- samples__siteID_siteID__sites_where_No_Rows&#45;&gt;denied -->
<g id="edge13" class="edge">
<title>samples__siteID_siteID__sites_where_No_Rows&#45;&gt;denied</title>
<path fill="none" stroke="#000000" d="M257.9012,-73.3008C248.1057,-64.1414 235.7794,-52.6154 224.9184,-42.4597"/>
<polygon fill="#000000" stroke="#000000" points="227.0208,-39.6338 217.326,-35.3603 222.2398,-44.7468 227.0208,-39.6338"/>
</g>
<!-- samples__siteID_siteID__sites_join_No_Rows&#45;&gt;denied -->
<g id="edge15" class="edge">
<title>samples__siteID_siteID__sites_join_No_Rows&#45;&gt;denied</title>
<path fill="none" stroke="#000000" d="M164.3102,-155.2833C171.0619,-128.3778 183.7893,-77.6589 191.7409,-45.9715"/>
<polygon fill="#000000" stroke="#000000" points="195.1997,-46.568 194.2389,-36.0168 188.4102,-44.8642 195.1997,-46.568"/>
</g>
<!-- samples__dataID_dataID__datasets_join_Has_Rows -->
<g id="node17" class="node">
<title>samples__dataID_dataID__datasets_join_Has_Rows</title>
<ellipse fill="none" stroke="#000000" cx="616.7601" cy="-256.8313" rx="47.4704" ry="18"/>
<text text-anchor="middle" x="616.7601" y="-252.6313" font-family="Times,serif" font-size="14.00" fill="#000000">Has rows</text>
</g>
<!-- samples__dataID_dataID__datasets_join&#45;&gt;samples__dataID_dataID__datasets_join_Has_Rows -->
<g id="edge17" class="edge">
<title>samples__dataID_dataID__datasets_join&#45;&gt;samples__dataID_dataID__datasets_join_Has_Rows</title>
<path fill="none" stroke="#000000" d="M494.1883,-320.6591C522.4368,-305.949 555.1689,-288.9042 579.6987,-276.1305"/>
<polygon fill="#000000" stroke="#000000" points="581.419,-279.1809 588.672,-271.4578 578.1859,-272.9722 581.419,-279.1809"/>
</g>
<!-- samples__dataID_dataID__datasets_join_No_Rows -->
<g id="node21" class="node">
<title>samples__dataID_dataID__datasets_join_No_Rows</title>
<ellipse fill="none" stroke="#000000" cx="433.7601" cy="-256.8313" rx="44.0415" ry="18"/>
<text text-anchor="middle" x="433.7601" y="-252.6313" font-family="Times,serif" font-size="14.00" fill="#000000">No rows</text>
</g>
<!-- samples__dataID_dataID__datasets_join&#45;&gt;samples__dataID_dataID__datasets_join_No_Rows -->
<g id="edge23" class="edge">
<title>samples__dataID_dataID__datasets_join&#45;&gt;samples__dataID_dataID__datasets_join_No_Rows</title>
<path fill="none" stroke="#000000" d="M433.7601,-310.6057C433.7601,-302.0541 433.7601,-293.2347 433.7601,-285.2742"/>
<polygon fill="#000000" stroke="#000000" points="437.2602,-285.0572 433.7601,-275.0572 430.2602,-285.0572 437.2602,-285.0572"/>
</g>
<!-- samples__dataID_dataID__datasets_where -->
<g id="node18" class="node">
<title>samples__dataID_dataID__datasets_where</title>
<ellipse fill="none" stroke="#000000" cx="690.7601" cy="-173.4156" rx="228.5204" ry="29.3315"/>
<text text-anchor="middle" x="690.7601" y="-177.6156" font-family="Times,serif" font-size="14.00" fill="#000000">WHERE IN</text>
<text text-anchor="middle" x="690.7601" y="-160.8156" font-family="Times,serif" font-size="14.00" fill="#000000">datasets.dataID = [&quot;NML&#45;WWPCR&quot;,&quot;NML&#45;WWGX&quot;]</text>
</g>
<!-- samples__dataID_dataID__datasets_join_Has_Rows&#45;&gt;samples__dataID_dataID__datasets_where -->
<g id="edge18" class="edge">
<title>samples__dataID_dataID__datasets_join_Has_Rows&#45;&gt;samples__dataID_dataID__datasets_where</title>
<path fill="none" stroke="#000000" d="M632.0929,-239.5475C639.5821,-231.1054 648.8999,-220.6021 657.8885,-210.4697"/>
<polygon fill="#000000" stroke="#000000" points="660.6443,-212.6374 664.6623,-202.834 655.4078,-207.992 660.6443,-212.6374"/>
</g>
<!-- samples__dataID_dataID__datasets_where_Has_Rows -->
<g id="node19" class="node">
<title>samples__dataID_dataID__datasets_where_Has_Rows</title>
<ellipse fill="none" stroke="#000000" cx="726.7601" cy="-90" rx="47.4704" ry="18"/>
<text text-anchor="middle" x="726.7601" y="-85.8" font-family="Times,serif" font-size="14.00" fill="#000000">Has rows</text>
</g>
<!-- samples__dataID_dataID__datasets_where&#45;&gt;samples__dataID_dataID__datasets_where_Has_Rows -->
<g id="edge19" class="edge">
<title>samples__dataID_dataID__datasets_where&#45;&gt;samples__dataID_dataID__datasets_where_Has_Rows</title>
<path fill="none" stroke="#000000" d="M703.5537,-143.7715C707.2723,-135.1551 711.3153,-125.7872 714.9692,-117.3206"/>
<polygon fill="#000000" stroke="#000000" points="718.2882,-118.4631 719.0372,-107.8947 711.8611,-115.6893 718.2882,-118.4631"/>
</g>
<!-- samples__dataID_dataID__datasets_where_No_Rows -->
<g id="node20" class="node">
<title>samples__dataID_dataID__datasets_where_No_Rows</title>
<ellipse fill="none" stroke="#000000" cx="505.7601" cy="-90" rx="44.0415" ry="18"/>
<text text-anchor="middle" x="505.7601" y="-85.8" font-family="Times,serif" font-size="14.00" fill="#000000">No rows</text>
</g>
<!-- samples__dataID_dataID__datasets_where&#45;&gt;samples__dataID_dataID__datasets_where_No_Rows -->
<g id="edge21" class="edge">
<title>samples__dataID_dataID__datasets_where&#45;&gt;samples__dataID_dataID__datasets_where_No_Rows</title>
<path fill="none" stroke="#000000" d="M627.8694,-145.0585C600.312,-132.633 568.8352,-118.4403 544.7423,-107.5769"/>
<polygon fill="#000000" stroke="#000000" points="546.1194,-104.3585 535.5646,-103.4387 543.2421,-110.7399 546.1194,-104.3585"/>
</g>
<!-- samples__dataID_dataID__datasets_where_Has_Rows&#45;&gt;granted -->
<g id="edge20" class="edge">
<title>samples__dataID_dataID__datasets_where_Has_Rows&#45;&gt;granted</title>
<path fill="none" stroke="#000000" d="M726.7601,-71.8314C726.7601,-64.131 726.7601,-54.9743 726.7601,-46.4166"/>
<polygon fill="#000000" stroke="#000000" points="730.2602,-46.4132 726.7601,-36.4133 723.2602,-46.4133 730.2602,-46.4132"/>
</g>
<!-- samples__dataID_dataID__datasets_where_No_Rows&#45;&gt;denied -->
<g id="edge22" class="edge">
<title>samples__dataID_dataID__datasets_where_No_Rows&#45;&gt;denied</title>
<path fill="none" stroke="#000000" d="M471.2461,-78.7466C463.5519,-76.3897 455.4073,-74.0117 447.7601,-72 386.1272,-55.7863 315.0006,-40.7189 264.5875,-30.6429"/>
<polygon fill="#000000" stroke="#000000" points="264.9633,-27.1492 254.4728,-28.6327 263.5987,-34.0149 264.9633,-27.1492"/>
</g>
<!-- samples__dataID_dataID__datasets_join_No_Rows&#45;&gt;denied -->
<g id="edge24" class="edge">
<title>samples__dataID_dataID__datasets_join_No_Rows&#45;&gt;denied</title>
<path fill="none" stroke="#000000" d="M434.4498,-238.749C434.5457,-215.3378 431.9434,-173.9904 414.7601,-144 381.3045,-85.6095 309.1702,-51.7343 257.4637,-34.0941"/>
<polygon fill="#000000" stroke="#000000" points="258.3299,-30.6944 247.7367,-30.8836 256.1358,-37.3416 258.3299,-30.6944"/>
</g>
<!-- datasets__dataID_dataID__samples_join_No_Rows&#45;&gt;denied -->
<g id="edge26" class="edge">
<title>datasets__dataID_dataID__samples_join_No_Rows&#45;&gt;denied</title>
<path fill="none" stroke="#000000" d="M121.422,-429.5519C110.143,-396.106 87.7601,-321.5763 87.7601,-256.8313 87.7601,-256.8313 87.7601,-256.8313 87.7601,-173.4156 87.7601,-118.2429 134.6567,-69.1322 167.4849,-41.513"/>
<polygon fill="#000000" stroke="#000000" points="169.967,-44.0045 175.4908,-34.9636 165.5346,-38.5864 169.967,-44.0045"/>
</g>
<!-- instruments__dataID_dataID__datasets_where_No_Rows&#45;&gt;denied -->
<g id="edge28" class="edge">
<title>instruments__dataID_dataID__datasets_where_No_Rows&#45;&gt;denied</title>
<path fill="none" stroke="#000000" d="M60.7002,-524.6121C57.0345,-490.7796 49.7601,-415.6381 49.7601,-352.1263 49.7601,-352.1263 49.7601,-352.1263 49.7601,-173.4156 49.7601,-121.9269 69.7464,-108.7982 105.7601,-72 119.2025,-58.2647 136.8712,-46.8444 153.1939,-38.0981"/>
<polygon fill="#000000" stroke="#000000" points="154.8012,-41.2073 162.0883,-33.5165 151.5956,-34.9844 154.8012,-41.2073"/>
</g>
<!-- instruments__dataID_dataID__datasets_join_No_Rows&#45;&gt;granted -->
<g id="edge30" class="edge">
<title>instruments__dataID_dataID__datasets_join_No_Rows&#45;&gt;granted</title>
<path fill="none" stroke="#000000" d="M888.8043,-704.0772C909.0609,-673.152 947.7601,-605.8142 947.7601,-542.7164 947.7601,-542.7164 947.7601,-542.7164 947.7601,-173.4156 947.7601,-95.4505 854.5925,-53.2098 789.2422,-33.1707"/>
<polygon fill="#000000" stroke="#000000" points="789.9966,-29.7439 779.4143,-30.2583 788.0077,-36.4554 789.9966,-29.7439"/>
</g>
</g>
</svg>
