<?xml version="1.0" encoding="UTF-8" standalone="no"?>
<!DOCTYPE svg PUBLIC "-//W3C//DTD SVG 1.1//EN"
 "http://www.w3.org/Graphics/SVG/1.1/DTD/svg11.dtd">
<!-- Generated by graphviz version 2.40.1 (20161225.0304)
 -->
<!-- Title: G Pages: 1 -->
<svg width="812pt" height="473pt"
 viewBox="0.00 0.00 811.78 473.42" xmlns="http://www.w3.org/2000/svg" xmlns:xlink="http://www.w3.org/1999/xlink">
<g id="graph0" class="graph" transform="scale(1 1) rotate(0) translate(4 469.4214)">
<title>G</title>
<polygon fill="#ffffff" stroke="transparent" points="-4,4 -4,-469.4214 807.7808,-469.4214 807.7808,4 -4,4"/>
<!-- measures -->
<g id="node1" class="node">
<title>measures</title>
<ellipse fill="none" stroke="#000000" cx="536.7601" cy="-447.4214" rx="46.9265" ry="18"/>
<text text-anchor="middle" x="536.7601" y="-443.2214" font-family="Times,serif" font-size="14.00" fill="#000000">measures</text>
</g>
<!-- measures__siteID_siteID__sites_join -->
<g id="node2" class="node">
<title>measures__siteID_siteID__sites_join</title>
<ellipse fill="none" stroke="#000000" cx="631.7601" cy="-352.1263" rx="78.8882" ry="41.0911"/>
<text text-anchor="middle" x="631.7601" y="-364.7263" font-family="Times,serif" font-size="14.00" fill="#000000">LEFT JOIN sites</text>
<text text-anchor="middle" x="631.7601" y="-347.9263" font-family="Times,serif" font-size="14.00" fill="#000000">At level: 1</text>
<text text-anchor="middle" x="631.7601" y="-331.1263" font-family="Times,serif" font-size="14.00" fill="#000000">Required: true</text>
</g>
<!-- measures&#45;&gt;measures__siteID_siteID__sites_join -->
<g id="edge1" class="edge">
<title>measures&#45;&gt;measures__siteID_siteID__sites_join</title>
<path fill="none" stroke="#000000" d="M553.7442,-430.3845C563.3808,-420.718 575.9233,-408.1365 588.1236,-395.8983"/>
<polygon fill="#000000" stroke="#000000" points="590.6615,-398.31 595.2429,-388.7569 585.704,-393.3679 590.6615,-398.31"/>
</g>
<!-- measures__dataID_dataID__datasets_join -->
<g id="node10" class="node">
<title>measures__dataID_dataID__datasets_join</title>
<ellipse fill="none" stroke="#000000" cx="441.7601" cy="-352.1263" rx="92.8656" ry="41.0911"/>
<text text-anchor="middle" x="441.7601" y="-364.7263" font-family="Times,serif" font-size="14.00" fill="#000000">LEFT JOIN datasets</text>
<text text-anchor="middle" x="441.7601" y="-347.9263" font-family="Times,serif" font-size="14.00" fill="#000000">At level: 1</text>
<text text-anchor="middle" x="441.7601" y="-331.1263" font-family="Times,serif" font-size="14.00" fill="#000000">Required: true</text>
</g>
<!-- measures&#45;&gt;measures__dataID_dataID__datasets_join -->
<g id="edge10" class="edge">
<title>measures&#45;&gt;measures__dataID_dataID__datasets_join</title>
<path fill="none" stroke="#000000" d="M519.776,-430.3845C510.4946,-421.0743 498.5177,-409.0602 486.747,-397.253"/>
<polygon fill="#000000" stroke="#000000" points="489.0096,-394.5651 479.4708,-389.9541 484.0522,-399.5072 489.0096,-394.5651"/>
</g>
<!-- measures__siteID_siteID__sites_join_Has_Rows -->
<g id="node3" class="node">
<title>measures__siteID_siteID__sites_join_Has_Rows</title>
<ellipse fill="none" stroke="#000000" cx="614.7601" cy="-256.8313" rx="47.4704" ry="18"/>
<text text-anchor="middle" x="614.7601" y="-252.6313" font-family="Times,serif" font-size="14.00" fill="#000000">Has rows</text>
</g>
<!-- measures__siteID_siteID__sites_join&#45;&gt;measures__siteID_siteID__sites_join_Has_Rows -->
<g id="edge2" class="edge">
<title>measures__siteID_siteID__sites_join&#45;&gt;measures__siteID_siteID__sites_join_Has_Rows</title>
<path fill="none" stroke="#000000" d="M624.4025,-310.8828C622.8551,-302.2088 621.2563,-293.2465 619.8162,-285.174"/>
<polygon fill="#000000" stroke="#000000" points="623.2341,-284.4033 618.0322,-275.1734 616.3429,-285.6327 623.2341,-284.4033"/>
</g>
<!-- measures__siteID_siteID__sites_join_No_Rows -->
<g id="node9" class="node">
<title>measures__siteID_siteID__sites_join_No_Rows</title>
<ellipse fill="none" stroke="#000000" cx="759.7601" cy="-173.4156" rx="44.0415" ry="18"/>
<text text-anchor="middle" x="759.7601" y="-169.2156" font-family="Times,serif" font-size="14.00" fill="#000000">No rows</text>
</g>
<!-- measures__siteID_siteID__sites_join&#45;&gt;measures__siteID_siteID__sites_join_No_Rows -->
<g id="edge8" class="edge">
<title>measures__siteID_siteID__sites_join&#45;&gt;measures__siteID_siteID__sites_join_No_Rows</title>
<path fill="none" stroke="#000000" d="M659.5342,-313.3488C684.295,-278.7783 719.8425,-229.1476 741.2756,-199.2233"/>
<polygon fill="#000000" stroke="#000000" points="744.2086,-201.1389 747.1861,-190.9711 738.5178,-197.0629 744.2086,-201.1389"/>
</g>
<!-- measures__siteID_siteID__sites_where -->
<g id="node4" class="node">
<title>measures__siteID_siteID__sites_where</title>
<ellipse fill="none" stroke="#000000" cx="605.7601" cy="-173.4156" rx="92.1488" ry="29.3315"/>
<text text-anchor="middle" x="605.7601" y="-177.6156" font-family="Times,serif" font-size="14.00" fill="#000000">WHERE</text>
<text text-anchor="middle" x="605.7601" y="-160.8156" font-family="Times,serif" font-size="14.00" fill="#000000">sites.siteID = &quot;HNJ&quot;</text>
</g>
<!-- measures__siteID_siteID__sites_join_Has_Rows&#45;&gt;measures__siteID_siteID__sites_where -->
<g id="edge3" class="edge">
<title>measures__siteID_siteID__sites_join_Has_Rows&#45;&gt;measures__siteID_siteID__sites_where</title>
<path fill="none" stroke="#000000" d="M612.8072,-238.7313C611.9884,-231.1418 611.0017,-221.9972 610.0295,-212.986"/>
<polygon fill="#000000" stroke="#000000" points="613.5002,-212.5256 608.9476,-202.9588 606.5406,-213.2766 613.5002,-212.5256"/>
</g>
<!-- measures__siteID_siteID__sites_where_Has_Rows -->
<g id="node5" class="node">
<title>measures__siteID_siteID__sites_where_Has_Rows</title>
<ellipse fill="none" stroke="#000000" cx="410.7601" cy="-90" rx="47.4704" ry="18"/>
<text text-anchor="middle" x="410.7601" y="-85.8" font-family="Times,serif" font-size="14.00" fill="#000000">Has rows</text>
</g>
<!-- measures__siteID_siteID__sites_where&#45;&gt;measures__siteID_siteID__sites_where_Has_Rows -->
<g id="edge4" class="edge">
<title>measures__siteID_siteID__sites_where&#45;&gt;measures__siteID_siteID__sites_where_Has_Rows</title>
<path fill="none" stroke="#000000" d="M550.4025,-149.7352C518.9408,-136.2768 480.2298,-119.7172 451.5517,-107.4496"/>
<polygon fill="#000000" stroke="#000000" points="452.8064,-104.1795 442.2357,-103.4644 450.0533,-110.6154 452.8064,-104.1795"/>
</g>
<!-- measures__siteID_siteID__sites_where_No_Rows -->
<g id="node7" class="node">
<title>measures__siteID_siteID__sites_where_No_Rows</title>
<ellipse fill="none" stroke="#000000" cx="581.7601" cy="-90" rx="44.0415" ry="18"/>
<text text-anchor="middle" x="581.7601" y="-85.8" font-family="Times,serif" font-size="14.00" fill="#000000">No rows</text>
</g>
<!-- measures__siteID_siteID__sites_where&#45;&gt;measures__siteID_siteID__sites_where_No_Rows -->
<g id="edge6" class="edge">
<title>measures__siteID_siteID__sites_where&#45;&gt;measures__siteID_siteID__sites_where_No_Rows</title>
<path fill="none" stroke="#000000" d="M597.231,-143.7715C594.7789,-135.2488 592.1152,-125.9907 589.7002,-117.597"/>
<polygon fill="#000000" stroke="#000000" points="593.0373,-116.5371 586.9087,-107.8947 586.3102,-118.4727 593.0373,-116.5371"/>
</g>
<!-- granted -->
<g id="node6" class="node">
<title>granted</title>
<ellipse fill="none" stroke="#000000" cx="307.7601" cy="-18" rx="71.7874" ry="18"/>
<text text-anchor="middle" x="307.7601" y="-13.8" font-family="Times,serif" font-size="14.00" fill="#000000">Access Granted</text>
</g>
<!-- measures__siteID_siteID__sites_where_Has_Rows&#45;&gt;granted -->
<g id="edge5" class="edge">
<title>measures__siteID_siteID__sites_where_Has_Rows&#45;&gt;granted</title>
<path fill="none" stroke="#000000" d="M387.901,-74.0209C373.9993,-64.3031 356.0149,-51.7315 340.6064,-40.9605"/>
<polygon fill="#000000" stroke="#000000" points="342.5548,-38.0522 332.3534,-35.1915 338.5442,-43.7894 342.5548,-38.0522"/>
</g>
<!-- denied -->
<g id="node8" class="node">
<title>denied</title>
<ellipse fill="none" stroke="#000000" cx="533.7601" cy="-18" rx="68.8581" ry="18"/>
<text text-anchor="middle" x="533.7601" y="-13.8" font-family="Times,serif" font-size="14.00" fill="#000000">Access Denied</text>
</g>
<!-- measures__siteID_siteID__sites_where_No_Rows&#45;&gt;denied -->
<g id="edge7" class="edge">
<title>measures__siteID_siteID__sites_where_No_Rows&#45;&gt;denied</title>
<path fill="none" stroke="#000000" d="M570.1406,-72.5708C564.4476,-64.0312 557.4746,-53.5719 551.162,-44.1029"/>
<polygon fill="#000000" stroke="#000000" points="554.0652,-42.1479 545.606,-35.7689 548.2409,-46.0309 554.0652,-42.1479"/>
</g>
<!-- measures__siteID_siteID__sites_join_No_Rows&#45;&gt;denied -->
<g id="edge9" class="edge">
<title>measures__siteID_siteID__sites_join_No_Rows&#45;&gt;denied</title>
<path fill="none" stroke="#000000" d="M741.561,-156.7819C717.9589,-135.6594 675.0319,-98.7487 634.7601,-72 616.3403,-59.7655 594.8637,-47.9699 576.4623,-38.5408"/>
<polygon fill="#000000" stroke="#000000" points="577.9319,-35.362 567.4284,-33.9737 574.7736,-41.609 577.9319,-35.362"/>
</g>
<!-- measures__dataID_dataID__datasets_join_Has_Rows -->
<g id="node11" class="node">
<title>measures__dataID_dataID__datasets_join_Has_Rows</title>
<ellipse fill="none" stroke="#000000" cx="285.7601" cy="-256.8313" rx="47.4704" ry="18"/>
<text text-anchor="middle" x="285.7601" y="-252.6313" font-family="Times,serif" font-size="14.00" fill="#000000">Has rows</text>
</g>
<!-- measures__dataID_dataID__datasets_join&#45;&gt;measures__dataID_dataID__datasets_join_Has_Rows -->
<g id="edge11" class="edge">
<title>measures__dataID_dataID__datasets_join&#45;&gt;measures__dataID_dataID__datasets_join_Has_Rows</title>
<path fill="none" stroke="#000000" d="M386.7603,-318.5289C364.3955,-304.8669 339.26,-289.5126 319.6589,-277.5389"/>
<polygon fill="#000000" stroke="#000000" points="321.4305,-274.5198 311.0722,-272.2936 317.7814,-280.4934 321.4305,-274.5198"/>
</g>
<!-- measures__dataID_dataID__datasets_join_No_Rows -->
<g id="node15" class="node">
<title>measures__dataID_dataID__datasets_join_No_Rows</title>
<ellipse fill="none" stroke="#000000" cx="450.7601" cy="-256.8313" rx="44.0415" ry="18"/>
<text text-anchor="middle" x="450.7601" y="-252.6313" font-family="Times,serif" font-size="14.00" fill="#000000">No rows</text>
</g>
<!-- measures__dataID_dataID__datasets_join&#45;&gt;measures__dataID_dataID__datasets_join_No_Rows -->
<g id="edge17" class="edge">
<title>measures__dataID_dataID__datasets_join&#45;&gt;measures__dataID_dataID__datasets_join_No_Rows</title>
<path fill="none" stroke="#000000" d="M445.6814,-310.6057C446.4891,-302.0541 447.322,-293.2347 448.0738,-285.2742"/>
<polygon fill="#000000" stroke="#000000" points="451.5829,-285.342 449.0388,-275.0572 444.6139,-284.6838 451.5829,-285.342"/>
</g>
<!-- measures__dataID_dataID__datasets_where -->
<g id="node12" class="node">
<title>measures__dataID_dataID__datasets_where</title>
<ellipse fill="none" stroke="#000000" cx="228.7601" cy="-173.4156" rx="228.5204" ry="29.3315"/>
<text text-anchor="middle" x="228.7601" y="-177.6156" font-family="Times,serif" font-size="14.00" fill="#000000">WHERE IN</text>
<text text-anchor="middle" x="228.7601" y="-160.8156" font-family="Times,serif" font-size="14.00" fill="#000000">datasets.dataID = [&quot;NML&#45;WWPCR&quot;,&quot;NML&#45;WWGX&quot;]</text>
</g>
<!-- measures__dataID_dataID__datasets_join_Has_Rows&#45;&gt;measures__dataID_dataID__datasets_where -->
<g id="edge12" class="edge">
<title>measures__dataID_dataID__datasets_join_Has_Rows&#45;&gt;measures__dataID_dataID__datasets_where</title>
<path fill="none" stroke="#000000" d="M273.6718,-239.141C268.1112,-231.0034 261.2862,-221.0155 254.6514,-211.3058"/>
<polygon fill="#000000" stroke="#000000" points="257.4379,-209.1801 248.9063,-202.8982 251.6584,-213.1294 257.4379,-209.1801"/>
</g>
<!-- measures__dataID_dataID__datasets_where_Has_Rows -->
<g id="node13" class="node">
<title>measures__dataID_dataID__datasets_where_Has_Rows</title>
<ellipse fill="none" stroke="#000000" cx="192.7601" cy="-90" rx="47.4704" ry="18"/>
<text text-anchor="middle" x="192.7601" y="-85.8" font-family="Times,serif" font-size="14.00" fill="#000000">Has rows</text>
</g>
<!-- measures__dataID_dataID__datasets_where&#45;&gt;measures__dataID_dataID__datasets_where_Has_Rows -->
<g id="edge13" class="edge">
<title>measures__dataID_dataID__datasets_where&#45;&gt;measures__dataID_dataID__datasets_where_Has_Rows</title>
<path fill="none" stroke="#000000" d="M215.9665,-143.7715C212.2478,-135.1551 208.2049,-125.7872 204.5509,-117.3206"/>
<polygon fill="#000000" stroke="#000000" points="207.659,-115.6893 200.483,-107.8947 201.232,-118.4631 207.659,-115.6893"/>
</g>
<!-- measures__dataID_dataID__datasets_where_No_Rows -->
<g id="node14" class="node">
<title>measures__dataID_dataID__datasets_where_No_Rows</title>
<ellipse fill="none" stroke="#000000" cx="301.7601" cy="-90" rx="44.0415" ry="18"/>
<text text-anchor="middle" x="301.7601" y="-85.8" font-family="Times,serif" font-size="14.00" fill="#000000">No rows</text>
</g>
<!-- measures__dataID_dataID__datasets_where&#45;&gt;measures__dataID_dataID__datasets_where_No_Rows -->
<g id="edge15" class="edge">
<title>measures__dataID_dataID__datasets_where&#45;&gt;measures__dataID_dataID__datasets_where_No_Rows</title>
<path fill="none" stroke="#000000" d="M254.7027,-143.7715C262.9437,-134.3547 271.9704,-124.0401 279.8943,-114.9856"/>
<polygon fill="#000000" stroke="#000000" points="282.5745,-117.2376 286.5263,-107.4073 277.3068,-112.6276 282.5745,-117.2376"/>
</g>
<!-- measures__dataID_dataID__datasets_where_Has_Rows&#45;&gt;granted -->
<g id="edge14" class="edge">
<title>measures__dataID_dataID__datasets_where_Has_Rows&#45;&gt;granted</title>
<path fill="none" stroke="#000000" d="M217.4305,-74.5542C233.2792,-64.6315 254.1321,-51.5758 271.8086,-40.5088"/>
<polygon fill="#000000" stroke="#000000" points="274.1008,-43.2031 280.7193,-34.9298 270.3862,-37.27 274.1008,-43.2031"/>
</g>
<!-- measures__dataID_dataID__datasets_where_No_Rows&#45;&gt;denied -->
<g id="edge16" class="edge">
<title>measures__dataID_dataID__datasets_where_No_Rows&#45;&gt;denied</title>
<path fill="none" stroke="#000000" d="M335.6312,-78.3032C341.975,-76.1674 348.56,-73.9874 354.7601,-72 395.8699,-58.8225 442.5768,-44.7624 477.9699,-34.2933"/>
<polygon fill="#000000" stroke="#000000" points="479.0384,-37.6273 487.6385,-31.4395 477.0567,-30.9136 479.0384,-37.6273"/>
</g>
<!-- measures__dataID_dataID__datasets_join_No_Rows&#45;&gt;denied -->
<g id="edge18" class="edge">
<title>measures__dataID_dataID__datasets_join_No_Rows&#45;&gt;denied</title>
<path fill="none" stroke="#000000" d="M456.9986,-238.8801C471.3589,-197.5585 506.8377,-95.4688 524.0644,-45.8992"/>
<polygon fill="#000000" stroke="#000000" points="527.4725,-46.7543 527.4492,-36.1595 520.8604,-44.4564 527.4725,-46.7543"/>
</g>
</g>
</svg>
