<?xml version="1.0" encoding="UTF-8" standalone="no"?>
<!DOCTYPE svg PUBLIC "-//W3C//DTD SVG 1.1//EN"
 "http://www.w3.org/Graphics/SVG/1.1/DTD/svg11.dtd">
<!-- Generated by graphviz version 2.40.1 (20161225.0304)
 -->
<!-- Title: G Pages: 1 -->
<svg width="860pt" height="664pt"
 viewBox="0.00 0.00 860.35 664.01" xmlns="http://www.w3.org/2000/svg" xmlns:xlink="http://www.w3.org/1999/xlink">
<g id="graph0" class="graph" transform="scale(1 1) rotate(0) translate(4 660.0114)">
<title>G</title>
<polygon fill="#ffffff" stroke="transparent" points="-4,4 -4,-660.0114 856.345,-660.0114 856.345,4 -4,4"/>
<!-- measureSets -->
<g id="node1" class="node">
<title>measureSets</title>
<ellipse fill="none" stroke="#000000" cx="660.3242" cy="-638.0114" rx="59.1045" ry="18"/>
<text text-anchor="middle" x="660.3242" y="-633.8114" font-family="Times,serif" font-size="14.00" fill="#000000">measureSets</text>
</g>
<!-- measureSets__measSetRepID_measSetRepID__measures_join -->
<g id="node2" class="node">
<title>measureSets__measSetRepID_measSetRepID__measures_join</title>
<ellipse fill="none" stroke="#000000" cx="660.3242" cy="-542.7164" rx="98.354" ry="41.0911"/>
<text text-anchor="middle" x="660.3242" y="-555.3164" font-family="Times,serif" font-size="14.00" fill="#000000">LEFT JOIN measures</text>
<text text-anchor="middle" x="660.3242" y="-538.5164" font-family="Times,serif" font-size="14.00" fill="#000000">At level: 2</text>
<text text-anchor="middle" x="660.3242" y="-521.7164" font-family="Times,serif" font-size="14.00" fill="#000000">Required: true</text>
</g>
<!-- measureSets&#45;&gt;measureSets__measSetRepID_measSetRepID__measures_join -->
<g id="edge1" class="edge">
<title>measureSets&#45;&gt;measureSets__measSetRepID_measSetRepID__measures_join</title>
<path fill="none" stroke="#000000" d="M660.3242,-619.6376C660.3242,-612.3285 660.3242,-603.5189 660.3242,-594.5101"/>
<polygon fill="#000000" stroke="#000000" points="663.8243,-594.3235 660.3242,-584.3236 656.8243,-594.3236 663.8243,-594.3235"/>
</g>
<!-- measureSets__measSetRepID_measSetRepID__measures_join_Has_Rows -->
<g id="node3" class="node">
<title>measureSets__measSetRepID_measSetRepID__measures_join_Has_Rows</title>
<ellipse fill="none" stroke="#000000" cx="606.3242" cy="-447.4214" rx="47.4704" ry="18"/>
<text text-anchor="middle" x="606.3242" y="-443.2214" font-family="Times,serif" font-size="14.00" fill="#000000">Has rows</text>
</g>
<!-- measureSets__measSetRepID_measSetRepID__measures_join&#45;&gt;measureSets__measSetRepID_measSetRepID__measures_join_Has_Rows -->
<g id="edge2" class="edge">
<title>measureSets__measSetRepID_measSetRepID__measures_join&#45;&gt;measureSets__measSetRepID_measSetRepID__measures_join_Has_Rows</title>
<path fill="none" stroke="#000000" d="M637.4234,-502.3027C632.0192,-492.7659 626.3908,-482.8332 621.4313,-474.0812"/>
<polygon fill="#000000" stroke="#000000" points="624.3299,-472.097 616.3547,-465.1223 618.2397,-475.5481 624.3299,-472.097"/>
</g>
<!-- measureSets__measSetRepID_measSetRepID__measures_join_No_Rows -->
<g id="node18" class="node">
<title>measureSets__measSetRepID_measSetRepID__measures_join_No_Rows</title>
<ellipse fill="none" stroke="#000000" cx="808.3242" cy="-447.4214" rx="44.0415" ry="18"/>
<text text-anchor="middle" x="808.3242" y="-443.2214" font-family="Times,serif" font-size="14.00" fill="#000000">No rows</text>
</g>
<!-- measureSets__measSetRepID_measSetRepID__measures_join&#45;&gt;measureSets__measSetRepID_measSetRepID__measures_join_No_Rows -->
<g id="edge21" class="edge">
<title>measureSets__measSetRepID_measSetRepID__measures_join&#45;&gt;measureSets__measSetRepID_measSetRepID__measures_join_No_Rows</title>
<path fill="none" stroke="#000000" d="M714.1743,-508.0431C734.9143,-494.6889 757.9402,-479.8629 776.0294,-468.2156"/>
<polygon fill="#000000" stroke="#000000" points="777.9682,-471.13 784.4813,-462.7735 774.1786,-465.2445 777.9682,-471.13"/>
</g>
<!-- measures__siteID_siteID__sites_join -->
<g id="node4" class="node">
<title>measures__siteID_siteID__sites_join</title>
<ellipse fill="none" stroke="#000000" cx="246.3242" cy="-352.1263" rx="78.8882" ry="41.0911"/>
<text text-anchor="middle" x="246.3242" y="-364.7263" font-family="Times,serif" font-size="14.00" fill="#000000">LEFT JOIN sites</text>
<text text-anchor="middle" x="246.3242" y="-347.9263" font-family="Times,serif" font-size="14.00" fill="#000000">At level: 1</text>
<text text-anchor="middle" x="246.3242" y="-331.1263" font-family="Times,serif" font-size="14.00" fill="#000000">Required: true</text>
</g>
<!-- measureSets__measSetRepID_measSetRepID__measures_join_Has_Rows&#45;&gt;measures__siteID_siteID__sites_join -->
<g id="edge3" class="edge">
<title>measureSets__measSetRepID_measSetRepID__measures_join_Has_Rows&#45;&gt;measures__siteID_siteID__sites_join</title>
<path fill="none" stroke="#000000" d="M567.4559,-437.1326C510.1228,-421.956 401.5963,-393.2281 326.6851,-373.3985"/>
<polygon fill="#000000" stroke="#000000" points="327.3687,-369.959 316.8059,-370.7834 325.5773,-376.7259 327.3687,-369.959"/>
</g>
<!-- measures__dataID_dataID__datasets_join -->
<g id="node12" class="node">
<title>measures__dataID_dataID__datasets_join</title>
<ellipse fill="none" stroke="#000000" cx="606.3242" cy="-352.1263" rx="92.8656" ry="41.0911"/>
<text text-anchor="middle" x="606.3242" y="-364.7263" font-family="Times,serif" font-size="14.00" fill="#000000">LEFT JOIN datasets</text>
<text text-anchor="middle" x="606.3242" y="-347.9263" font-family="Times,serif" font-size="14.00" fill="#000000">At level: 1</text>
<text text-anchor="middle" x="606.3242" y="-331.1263" font-family="Times,serif" font-size="14.00" fill="#000000">Required: true</text>
</g>
<!-- measureSets__measSetRepID_measSetRepID__measures_join_Has_Rows&#45;&gt;measures__dataID_dataID__datasets_join -->
<g id="edge12" class="edge">
<title>measureSets__measSetRepID_measSetRepID__measures_join_Has_Rows&#45;&gt;measures__dataID_dataID__datasets_join</title>
<path fill="none" stroke="#000000" d="M606.3242,-429.0475C606.3242,-421.7384 606.3242,-412.9288 606.3242,-403.92"/>
<polygon fill="#000000" stroke="#000000" points="609.8243,-403.7335 606.3242,-393.7335 602.8243,-403.7335 609.8243,-403.7335"/>
</g>
<!-- measures__siteID_siteID__sites_join_Has_Rows -->
<g id="node5" class="node">
<title>measures__siteID_siteID__sites_join_Has_Rows</title>
<ellipse fill="none" stroke="#000000" cx="132.3242" cy="-256.8313" rx="47.4704" ry="18"/>
<text text-anchor="middle" x="132.3242" y="-252.6313" font-family="Times,serif" font-size="14.00" fill="#000000">Has rows</text>
</g>
<!-- measures__siteID_siteID__sites_join&#45;&gt;measures__siteID_siteID__sites_join_Has_Rows -->
<g id="edge4" class="edge">
<title>measures__siteID_siteID__sites_join&#45;&gt;measures__siteID_siteID__sites_join_Has_Rows</title>
<path fill="none" stroke="#000000" d="M204.1987,-316.9127C189.3867,-304.531 173.1338,-290.9448 159.8359,-279.8289"/>
<polygon fill="#000000" stroke="#000000" points="161.8945,-276.9879 151.9773,-273.2597 157.405,-282.3586 161.8945,-276.9879"/>
</g>
<!-- measures__siteID_siteID__sites_join_No_Rows -->
<g id="node11" class="node">
<title>measures__siteID_siteID__sites_join_No_Rows</title>
<ellipse fill="none" stroke="#000000" cx="246.3242" cy="-173.4156" rx="44.0415" ry="18"/>
<text text-anchor="middle" x="246.3242" y="-169.2156" font-family="Times,serif" font-size="14.00" fill="#000000">No rows</text>
</g>
<!-- measures__siteID_siteID__sites_join&#45;&gt;measures__siteID_siteID__sites_join_No_Rows -->
<g id="edge10" class="edge">
<title>measures__siteID_siteID__sites_join&#45;&gt;measures__siteID_siteID__sites_join_No_Rows</title>
<path fill="none" stroke="#000000" d="M246.3242,-310.6773C246.3242,-277.3966 246.3242,-231.5276 246.3242,-202.1677"/>
<polygon fill="#000000" stroke="#000000" points="249.8243,-201.7842 246.3242,-191.7843 242.8243,-201.7843 249.8243,-201.7842"/>
</g>
<!-- measures__siteID_siteID__sites_where -->
<g id="node6" class="node">
<title>measures__siteID_siteID__sites_where</title>
<ellipse fill="none" stroke="#000000" cx="92.3242" cy="-173.4156" rx="92.1488" ry="29.3315"/>
<text text-anchor="middle" x="92.3242" y="-177.6156" font-family="Times,serif" font-size="14.00" fill="#000000">WHERE</text>
<text text-anchor="middle" x="92.3242" y="-160.8156" font-family="Times,serif" font-size="14.00" fill="#000000">sites.siteID = &quot;HNJ&quot;</text>
</g>
<!-- measures__siteID_siteID__sites_join_Has_Rows&#45;&gt;measures__siteID_siteID__sites_where -->
<g id="edge5" class="edge">
<title>measures__siteID_siteID__sites_join_Has_Rows&#45;&gt;measures__siteID_siteID__sites_where</title>
<path fill="none" stroke="#000000" d="M123.6448,-238.7313C119.8536,-230.8251 115.2531,-221.2313 110.7587,-211.8588"/>
<polygon fill="#000000" stroke="#000000" points="113.8134,-210.1342 106.3336,-202.6307 107.5016,-213.1609 113.8134,-210.1342"/>
</g>
<!-- measures__siteID_siteID__sites_where_Has_Rows -->
<g id="node7" class="node">
<title>measures__siteID_siteID__sites_where_Has_Rows</title>
<ellipse fill="none" stroke="#000000" cx="103.3242" cy="-90" rx="47.4704" ry="18"/>
<text text-anchor="middle" x="103.3242" y="-85.8" font-family="Times,serif" font-size="14.00" fill="#000000">Has rows</text>
</g>
<!-- measures__siteID_siteID__sites_where&#45;&gt;measures__siteID_siteID__sites_where_Has_Rows -->
<g id="edge6" class="edge">
<title>measures__siteID_siteID__sites_where&#45;&gt;measures__siteID_siteID__sites_where_Has_Rows</title>
<path fill="none" stroke="#000000" d="M96.2334,-143.7715C97.3154,-135.5664 98.4873,-126.6796 99.5608,-118.5388"/>
<polygon fill="#000000" stroke="#000000" points="103.0621,-118.7584 100.8996,-108.3866 96.1222,-117.8431 103.0621,-118.7584"/>
</g>
<!-- measures__siteID_siteID__sites_where_No_Rows -->
<g id="node9" class="node">
<title>measures__siteID_siteID__sites_where_No_Rows</title>
<ellipse fill="none" stroke="#000000" cx="252.3242" cy="-90" rx="44.0415" ry="18"/>
<text text-anchor="middle" x="252.3242" y="-85.8" font-family="Times,serif" font-size="14.00" fill="#000000">No rows</text>
</g>
<!-- measures__siteID_siteID__sites_where&#45;&gt;measures__siteID_siteID__sites_where_No_Rows -->
<g id="edge8" class="edge">
<title>measures__siteID_siteID__sites_where&#45;&gt;measures__siteID_siteID__sites_where_No_Rows</title>
<path fill="none" stroke="#000000" d="M140.7637,-148.1618C164.9076,-135.5745 193.619,-120.6058 215.868,-109.0064"/>
<polygon fill="#000000" stroke="#000000" points="217.7263,-111.9847 224.9755,-104.2582 214.4902,-105.7776 217.7263,-111.9847"/>
</g>
<!-- granted -->
<g id="node8" class="node">
<title>granted</title>
<ellipse fill="none" stroke="#000000" cx="241.3242" cy="-18" rx="71.7874" ry="18"/>
<text text-anchor="middle" x="241.3242" y="-13.8" font-family="Times,serif" font-size="14.00" fill="#000000">Access Granted</text>
</g>
<!-- measures__siteID_siteID__sites_where_Has_Rows&#45;&gt;granted -->
<g id="edge7" class="edge">
<title>measures__siteID_siteID__sites_where_Has_Rows&#45;&gt;granted</title>
<path fill="none" stroke="#000000" d="M131.2506,-75.4297C151.3246,-64.9563 178.691,-50.6782 201.1144,-38.9791"/>
<polygon fill="#000000" stroke="#000000" points="202.8223,-42.0357 210.0692,-34.307 199.5843,-35.8296 202.8223,-42.0357"/>
</g>
<!-- denied -->
<g id="node10" class="node">
<title>denied</title>
<ellipse fill="none" stroke="#000000" cx="537.3242" cy="-18" rx="68.8581" ry="18"/>
<text text-anchor="middle" x="537.3242" y="-13.8" font-family="Times,serif" font-size="14.00" fill="#000000">Access Denied</text>
</g>
<!-- measures__siteID_siteID__sites_where_No_Rows&#45;&gt;denied -->
<g id="edge9" class="edge">
<title>measures__siteID_siteID__sites_where_No_Rows&#45;&gt;denied</title>
<path fill="none" stroke="#000000" d="M289.8761,-80.5132C337.7865,-68.4095 421.2131,-47.3333 477.819,-33.0329"/>
<polygon fill="#000000" stroke="#000000" points="478.8735,-36.3766 487.7116,-30.5337 477.1589,-29.5898 478.8735,-36.3766"/>
</g>
<!-- measures__siteID_siteID__sites_join_No_Rows&#45;&gt;denied -->
<g id="edge11" class="edge">
<title>measures__siteID_siteID__sites_join_No_Rows&#45;&gt;denied</title>
<path fill="none" stroke="#000000" d="M270.4978,-158.3174C279.3308,-153.2569 289.555,-147.9125 299.3242,-144 358.1666,-120.434 381.5165,-138.0545 437.3242,-108 453.7465,-99.156 488.6009,-66.3163 512.4963,-42.8644"/>
<polygon fill="#000000" stroke="#000000" points="515.1746,-45.1385 519.8321,-35.6223 510.2568,-40.157 515.1746,-45.1385"/>
</g>
<!-- measures__dataID_dataID__datasets_join_Has_Rows -->
<g id="node13" class="node">
<title>measures__dataID_dataID__datasets_join_Has_Rows</title>
<ellipse fill="none" stroke="#000000" cx="560.3242" cy="-256.8313" rx="47.4704" ry="18"/>
<text text-anchor="middle" x="560.3242" y="-252.6313" font-family="Times,serif" font-size="14.00" fill="#000000">Has rows</text>
</g>
<!-- measures__dataID_dataID__datasets_join&#45;&gt;measures__dataID_dataID__datasets_join_Has_Rows -->
<g id="edge13" class="edge">
<title>measures__dataID_dataID__datasets_join&#45;&gt;measures__dataID_dataID__datasets_join_Has_Rows</title>
<path fill="none" stroke="#000000" d="M586.8161,-311.7126C582.3327,-302.4247 577.6681,-292.7613 573.5251,-284.1787"/>
<polygon fill="#000000" stroke="#000000" points="576.606,-282.5097 569.1068,-275.0255 570.302,-285.5528 576.606,-282.5097"/>
</g>
<!-- measures__dataID_dataID__datasets_join_No_Rows -->
<g id="node17" class="node">
<title>measures__dataID_dataID__datasets_join_No_Rows</title>
<ellipse fill="none" stroke="#000000" cx="703.3242" cy="-256.8313" rx="44.0415" ry="18"/>
<text text-anchor="middle" x="703.3242" y="-252.6313" font-family="Times,serif" font-size="14.00" fill="#000000">No rows</text>
</g>
<!-- measures__dataID_dataID__datasets_join&#45;&gt;measures__dataID_dataID__datasets_join_No_Rows -->
<g id="edge19" class="edge">
<title>measures__dataID_dataID__datasets_join&#45;&gt;measures__dataID_dataID__datasets_join_No_Rows</title>
<path fill="none" stroke="#000000" d="M644.6612,-314.4632C656.2518,-303.0763 668.6532,-290.8929 679.0541,-280.6749"/>
<polygon fill="#000000" stroke="#000000" points="681.5531,-283.1263 686.2337,-273.6214 676.6474,-278.1328 681.5531,-283.1263"/>
</g>
<!-- measures__dataID_dataID__datasets_where -->
<g id="node14" class="node">
<title>measures__dataID_dataID__datasets_where</title>
<ellipse fill="none" stroke="#000000" cx="537.3242" cy="-173.4156" rx="228.5204" ry="29.3315"/>
<text text-anchor="middle" x="537.3242" y="-177.6156" font-family="Times,serif" font-size="14.00" fill="#000000">WHERE IN</text>
<text text-anchor="middle" x="537.3242" y="-160.8156" font-family="Times,serif" font-size="14.00" fill="#000000">datasets.dataID = [&quot;NML&#45;WWPCR&quot;,&quot;NML&#45;WWGX&quot;]</text>
</g>
<!-- measures__dataID_dataID__datasets_join_Has_Rows&#45;&gt;measures__dataID_dataID__datasets_where -->
<g id="edge14" class="edge">
<title>measures__dataID_dataID__datasets_join_Has_Rows&#45;&gt;measures__dataID_dataID__datasets_where</title>
<path fill="none" stroke="#000000" d="M555.3336,-238.7313C553.2184,-231.0602 550.6653,-221.8004 548.1548,-212.6954"/>
<polygon fill="#000000" stroke="#000000" points="551.5024,-211.6687 545.4701,-202.9588 544.7542,-213.5294 551.5024,-211.6687"/>
</g>
<!-- measures__dataID_dataID__datasets_where_Has_Rows -->
<g id="node15" class="node">
<title>measures__dataID_dataID__datasets_where_Has_Rows</title>
<ellipse fill="none" stroke="#000000" cx="381.3242" cy="-90" rx="47.4704" ry="18"/>
<text text-anchor="middle" x="381.3242" y="-85.8" font-family="Times,serif" font-size="14.00" fill="#000000">Has rows</text>
</g>
<!-- measures__dataID_dataID__datasets_where&#45;&gt;measures__dataID_dataID__datasets_where_Has_Rows -->
<g id="edge15" class="edge">
<title>measures__dataID_dataID__datasets_where&#45;&gt;measures__dataID_dataID__datasets_where_Has_Rows</title>
<path fill="none" stroke="#000000" d="M483.6379,-144.7087C461.8774,-133.0731 437.3118,-119.9374 417.7066,-109.4542"/>
<polygon fill="#000000" stroke="#000000" points="419.2649,-106.3186 408.7961,-104.6896 415.9641,-112.4915 419.2649,-106.3186"/>
</g>
<!-- measures__dataID_dataID__datasets_where_No_Rows -->
<g id="node16" class="node">
<title>measures__dataID_dataID__datasets_where_No_Rows</title>
<ellipse fill="none" stroke="#000000" cx="537.3242" cy="-90" rx="44.0415" ry="18"/>
<text text-anchor="middle" x="537.3242" y="-85.8" font-family="Times,serif" font-size="14.00" fill="#000000">No rows</text>
</g>
<!-- measures__dataID_dataID__datasets_where&#45;&gt;measures__dataID_dataID__datasets_where_No_Rows -->
<g id="edge17" class="edge">
<title>measures__dataID_dataID__datasets_where&#45;&gt;measures__dataID_dataID__datasets_where_No_Rows</title>
<path fill="none" stroke="#000000" d="M537.3242,-143.7715C537.3242,-135.5664 537.3242,-126.6796 537.3242,-118.5388"/>
<polygon fill="#000000" stroke="#000000" points="540.8243,-118.3865 537.3242,-108.3866 533.8243,-118.3866 540.8243,-118.3865"/>
</g>
<!-- measures__dataID_dataID__datasets_where_Has_Rows&#45;&gt;granted -->
<g id="edge16" class="edge">
<title>measures__dataID_dataID__datasets_where_Has_Rows&#45;&gt;granted</title>
<path fill="none" stroke="#000000" d="M352.9932,-75.4297C332.6282,-64.9563 304.8652,-50.6782 282.1169,-38.9791"/>
<polygon fill="#000000" stroke="#000000" points="283.5259,-35.768 273.0323,-34.307 280.3244,-41.993 283.5259,-35.768"/>
</g>
<!-- measures__dataID_dataID__datasets_where_No_Rows&#45;&gt;denied -->
<g id="edge18" class="edge">
<title>measures__dataID_dataID__datasets_where_No_Rows&#45;&gt;denied</title>
<path fill="none" stroke="#000000" d="M537.3242,-71.8314C537.3242,-64.131 537.3242,-54.9743 537.3242,-46.4166"/>
<polygon fill="#000000" stroke="#000000" points="540.8243,-46.4132 537.3242,-36.4133 533.8243,-46.4133 540.8243,-46.4132"/>
</g>
<!-- measures__dataID_dataID__datasets_join_No_Rows&#45;&gt;denied -->
<g id="edge20" class="edge">
<title>measures__dataID_dataID__datasets_join_No_Rows&#45;&gt;denied</title>
<path fill="none" stroke="#000000" d="M732.616,-243.2477C748.38,-234.2198 766.38,-220.7198 775.3242,-202.8313 787.0176,-179.4445 788.8112,-166.4005 775.3242,-144 737.7308,-81.5609 657.6681,-48.4432 600.7994,-32.0899"/>
<polygon fill="#000000" stroke="#000000" points="601.3926,-28.6224 590.821,-29.3229 599.522,-35.3679 601.3926,-28.6224"/>
</g>
<!-- measureSets__measSetRepID_measSetRepID__measures_join_No_Rows&#45;&gt;denied -->
<g id="edge22" class="edge">
<title>measureSets__measSetRepID_measSetRepID__measures_join_No_Rows&#45;&gt;denied</title>
<path fill="none" stroke="#000000" d="M812.1271,-429.3843C818.8945,-395.6625 832.3242,-320.6963 832.3242,-256.8313 832.3242,-256.8313 832.3242,-256.8313 832.3242,-173.4156 832.3242,-74.1601 699.9896,-38.1431 612.5878,-25.1794"/>
<polygon fill="#000000" stroke="#000000" points="612.8195,-21.6775 602.4284,-23.7454 611.8411,-28.6088 612.8195,-21.6775"/>
</g>
</g>
</svg>
