<?xml version="1.0" encoding="UTF-8" standalone="no"?>
<!DOCTYPE svg PUBLIC "-//W3C//DTD SVG 1.1//EN"
 "http://www.w3.org/Graphics/SVG/1.1/DTD/svg11.dtd">
<!-- Generated by graphviz version 2.40.1 (20161225.0304)
 -->
<!-- Title: G Pages: 1 -->
<svg width="1108pt" height="664pt"
 viewBox="0.00 0.00 1108.43 664.01" xmlns="http://www.w3.org/2000/svg" xmlns:xlink="http://www.w3.org/1999/xlink">
<g id="graph0" class="graph" transform="scale(1 1) rotate(0) translate(4 660.0114)">
<title>G</title>
<polygon fill="#ffffff" stroke="transparent" points="-4,4 -4,-660.0114 1104.4283,-660.0114 1104.4283,4 -4,4"/>
<!-- measureSets -->
<g id="node1" class="node">
<title>measureSets</title>
<ellipse fill="none" stroke="#000000" cx="908.4075" cy="-638.0114" rx="59.1045" ry="18"/>
<text text-anchor="middle" x="908.4075" y="-633.8114" font-family="Times,serif" font-size="14.00" fill="#000000">measureSets</text>
</g>
<!-- measureSets__measSetRepID_measSetRepID__measures_join -->
<g id="node2" class="node">
<title>measureSets__measSetRepID_measSetRepID__measures_join</title>
<ellipse fill="none" stroke="#000000" cx="908.4075" cy="-542.7164" rx="98.354" ry="41.0911"/>
<text text-anchor="middle" x="908.4075" y="-555.3164" font-family="Times,serif" font-size="14.00" fill="#000000">LEFT JOIN measures</text>
<text text-anchor="middle" x="908.4075" y="-538.5164" font-family="Times,serif" font-size="14.00" fill="#000000">At level: 2</text>
<text text-anchor="middle" x="908.4075" y="-521.7164" font-family="Times,serif" font-size="14.00" fill="#000000">Required: true</text>
</g>
<!-- measureSets&#45;&gt;measureSets__measSetRepID_measSetRepID__measures_join -->
<g id="edge1" class="edge">
<title>measureSets&#45;&gt;measureSets__measSetRepID_measSetRepID__measures_join</title>
<path fill="none" stroke="#000000" d="M908.4075,-619.6376C908.4075,-612.3285 908.4075,-603.5189 908.4075,-594.5101"/>
<polygon fill="#000000" stroke="#000000" points="911.9076,-594.3235 908.4075,-584.3236 904.9076,-594.3236 911.9076,-594.3235"/>
</g>
<!-- measureSets__measSetRepID_measSetRepID__measures_join_Has_Rows -->
<g id="node3" class="node">
<title>measureSets__measSetRepID_measSetRepID__measures_join_Has_Rows</title>
<ellipse fill="none" stroke="#000000" cx="854.4075" cy="-447.4214" rx="47.4704" ry="18"/>
<text text-anchor="middle" x="854.4075" y="-443.2214" font-family="Times,serif" font-size="14.00" fill="#000000">Has rows</text>
</g>
<!-- measureSets__measSetRepID_measSetRepID__measures_join&#45;&gt;measureSets__measSetRepID_measSetRepID__measures_join_Has_Rows -->
<g id="edge2" class="edge">
<title>measureSets__measSetRepID_measSetRepID__measures_join&#45;&gt;measureSets__measSetRepID_measSetRepID__measures_join_Has_Rows</title>
<path fill="none" stroke="#000000" d="M885.5066,-502.3027C880.1025,-492.7659 874.474,-482.8332 869.5146,-474.0812"/>
<polygon fill="#000000" stroke="#000000" points="872.4131,-472.097 864.4379,-465.1223 866.323,-475.5481 872.4131,-472.097"/>
</g>
<!-- measureSets__measSetRepID_measSetRepID__measures_join_No_Rows -->
<g id="node18" class="node">
<title>measureSets__measSetRepID_measSetRepID__measures_join_No_Rows</title>
<ellipse fill="none" stroke="#000000" cx="1056.4075" cy="-447.4214" rx="44.0415" ry="18"/>
<text text-anchor="middle" x="1056.4075" y="-443.2214" font-family="Times,serif" font-size="14.00" fill="#000000">No rows</text>
</g>
<!-- measureSets__measSetRepID_measSetRepID__measures_join&#45;&gt;measureSets__measSetRepID_measSetRepID__measures_join_No_Rows -->
<g id="edge21" class="edge">
<title>measureSets__measSetRepID_measSetRepID__measures_join&#45;&gt;measureSets__measSetRepID_measSetRepID__measures_join_No_Rows</title>
<path fill="none" stroke="#000000" d="M962.2575,-508.0431C982.9976,-494.6889 1006.0235,-479.8629 1024.1126,-468.2156"/>
<polygon fill="#000000" stroke="#000000" points="1026.0515,-471.13 1032.5645,-462.7735 1022.2618,-465.2445 1026.0515,-471.13"/>
</g>
<!-- measures__siteID_siteID__sites_join -->
<g id="node4" class="node">
<title>measures__siteID_siteID__sites_join</title>
<ellipse fill="none" stroke="#000000" cx="494.4075" cy="-352.1263" rx="78.8882" ry="41.0911"/>
<text text-anchor="middle" x="494.4075" y="-364.7263" font-family="Times,serif" font-size="14.00" fill="#000000">LEFT JOIN sites</text>
<text text-anchor="middle" x="494.4075" y="-347.9263" font-family="Times,serif" font-size="14.00" fill="#000000">At level: 1</text>
<text text-anchor="middle" x="494.4075" y="-331.1263" font-family="Times,serif" font-size="14.00" fill="#000000">Required: true</text>
</g>
<!-- measureSets__measSetRepID_measSetRepID__measures_join_Has_Rows&#45;&gt;measures__siteID_siteID__sites_join -->
<g id="edge3" class="edge">
<title>measureSets__measSetRepID_measSetRepID__measures_join_Has_Rows&#45;&gt;measures__siteID_siteID__sites_join</title>
<path fill="none" stroke="#000000" d="M815.5391,-437.1326C758.206,-421.956 649.6795,-393.2281 574.7683,-373.3985"/>
<polygon fill="#000000" stroke="#000000" points="575.4519,-369.959 564.8892,-370.7834 573.6606,-376.7259 575.4519,-369.959"/>
</g>
<!-- measures__dataID_dataID__datasets_join -->
<g id="node12" class="node">
<title>measures__dataID_dataID__datasets_join</title>
<ellipse fill="none" stroke="#000000" cx="854.4075" cy="-352.1263" rx="92.8656" ry="41.0911"/>
<text text-anchor="middle" x="854.4075" y="-364.7263" font-family="Times,serif" font-size="14.00" fill="#000000">LEFT JOIN datasets</text>
<text text-anchor="middle" x="854.4075" y="-347.9263" font-family="Times,serif" font-size="14.00" fill="#000000">At level: 1</text>
<text text-anchor="middle" x="854.4075" y="-331.1263" font-family="Times,serif" font-size="14.00" fill="#000000">Required: true</text>
</g>
<!-- measureSets__measSetRepID_measSetRepID__measures_join_Has_Rows&#45;&gt;measures__dataID_dataID__datasets_join -->
<g id="edge12" class="edge">
<title>measureSets__measSetRepID_measSetRepID__measures_join_Has_Rows&#45;&gt;measures__dataID_dataID__datasets_join</title>
<path fill="none" stroke="#000000" d="M854.4075,-429.0475C854.4075,-421.7384 854.4075,-412.9288 854.4075,-403.92"/>
<polygon fill="#000000" stroke="#000000" points="857.9076,-403.7335 854.4075,-393.7335 850.9076,-403.7335 857.9076,-403.7335"/>
</g>
<!-- measures__siteID_siteID__sites_join_Has_Rows -->
<g id="node5" class="node">
<title>measures__siteID_siteID__sites_join_Has_Rows</title>
<ellipse fill="none" stroke="#000000" cx="318.4075" cy="-256.8313" rx="47.4704" ry="18"/>
<text text-anchor="middle" x="318.4075" y="-252.6313" font-family="Times,serif" font-size="14.00" fill="#000000">Has rows</text>
</g>
<!-- measures__siteID_siteID__sites_join&#45;&gt;measures__siteID_siteID__sites_join_Has_Rows -->
<g id="edge4" class="edge">
<title>measures__siteID_siteID__sites_join&#45;&gt;measures__siteID_siteID__sites_join_Has_Rows</title>
<path fill="none" stroke="#000000" d="M439.2029,-322.2358C411.6706,-307.3285 379.1403,-289.715 354.778,-276.524"/>
<polygon fill="#000000" stroke="#000000" points="356.3284,-273.3835 345.8682,-271.6999 352.9955,-279.5391 356.3284,-273.3835"/>
</g>
<!-- measures__siteID_siteID__sites_join_No_Rows -->
<g id="node11" class="node">
<title>measures__siteID_siteID__sites_join_No_Rows</title>
<ellipse fill="none" stroke="#000000" cx="494.4075" cy="-173.4156" rx="44.0415" ry="18"/>
<text text-anchor="middle" x="494.4075" y="-169.2156" font-family="Times,serif" font-size="14.00" fill="#000000">No rows</text>
</g>
<!-- measures__siteID_siteID__sites_join&#45;&gt;measures__siteID_siteID__sites_join_No_Rows -->
<g id="edge10" class="edge">
<title>measures__siteID_siteID__sites_join&#45;&gt;measures__siteID_siteID__sites_join_No_Rows</title>
<path fill="none" stroke="#000000" d="M494.4075,-310.6773C494.4075,-277.3966 494.4075,-231.5276 494.4075,-202.1677"/>
<polygon fill="#000000" stroke="#000000" points="497.9076,-201.7842 494.4075,-191.7843 490.9076,-201.7843 497.9076,-201.7842"/>
</g>
<!-- measures__siteID_siteID__sites_where -->
<g id="node6" class="node">
<title>measures__siteID_siteID__sites_where</title>
<ellipse fill="none" stroke="#000000" cx="216.4075" cy="-173.4156" rx="216.315" ry="29.3315"/>
<text text-anchor="middle" x="216.4075" y="-177.6156" font-family="Times,serif" font-size="14.00" fill="#000000">WHERE IN</text>
<text text-anchor="middle" x="216.4075" y="-160.8156" font-family="Times,serif" font-size="14.00" fill="#000000">sites.healthReg = [&quot;Whitehorse&quot;,&quot;Haines Junction&quot;]</text>
</g>
<!-- measures__siteID_siteID__sites_join_Has_Rows&#45;&gt;measures__siteID_siteID__sites_where -->
<g id="edge5" class="edge">
<title>measures__siteID_siteID__sites_join_Has_Rows&#45;&gt;measures__siteID_siteID__sites_where</title>
<path fill="none" stroke="#000000" d="M298.2556,-240.351C287.3896,-231.4648 273.531,-220.1313 260.3196,-209.327"/>
<polygon fill="#000000" stroke="#000000" points="262.1665,-206.316 252.2098,-202.6948 257.7351,-211.7348 262.1665,-206.316"/>
</g>
<!-- measures__siteID_siteID__sites_where_Has_Rows -->
<g id="node7" class="node">
<title>measures__siteID_siteID__sites_where_Has_Rows</title>
<ellipse fill="none" stroke="#000000" cx="258.4075" cy="-90" rx="47.4704" ry="18"/>
<text text-anchor="middle" x="258.4075" y="-85.8" font-family="Times,serif" font-size="14.00" fill="#000000">Has rows</text>
</g>
<!-- measures__siteID_siteID__sites_where&#45;&gt;measures__siteID_siteID__sites_where_Has_Rows -->
<g id="edge6" class="edge">
<title>measures__siteID_siteID__sites_where&#45;&gt;measures__siteID_siteID__sites_where_Has_Rows</title>
<path fill="none" stroke="#000000" d="M231.3334,-143.7715C235.7189,-135.0615 240.4911,-125.5834 244.7903,-117.0449"/>
<polygon fill="#000000" stroke="#000000" points="248.0263,-118.4005 249.3974,-107.8947 241.7741,-115.2525 248.0263,-118.4005"/>
</g>
<!-- measures__siteID_siteID__sites_where_No_Rows -->
<g id="node9" class="node">
<title>measures__siteID_siteID__sites_where_No_Rows</title>
<ellipse fill="none" stroke="#000000" cx="469.4075" cy="-90" rx="44.0415" ry="18"/>
<text text-anchor="middle" x="469.4075" y="-85.8" font-family="Times,serif" font-size="14.00" fill="#000000">No rows</text>
</g>
<!-- measures__siteID_siteID__sites_where&#45;&gt;measures__siteID_siteID__sites_where_No_Rows -->
<g id="edge8" class="edge">
<title>measures__siteID_siteID__sites_where&#45;&gt;measures__siteID_siteID__sites_where_No_Rows</title>
<path fill="none" stroke="#000000" d="M298.8991,-146.2177C340.8973,-132.3706 390.2887,-116.0859 425.0721,-104.6177"/>
<polygon fill="#000000" stroke="#000000" points="426.5234,-107.8246 434.9245,-101.3692 424.3315,-101.1766 426.5234,-107.8246"/>
</g>
<!-- granted -->
<g id="node8" class="node">
<title>granted</title>
<ellipse fill="none" stroke="#000000" cx="442.4075" cy="-18" rx="71.7874" ry="18"/>
<text text-anchor="middle" x="442.4075" y="-13.8" font-family="Times,serif" font-size="14.00" fill="#000000">Access Granted</text>
</g>
<!-- measures__siteID_siteID__sites_where_Has_Rows&#45;&gt;granted -->
<g id="edge7" class="edge">
<title>measures__siteID_siteID__sites_where_Has_Rows&#45;&gt;granted</title>
<path fill="none" stroke="#000000" d="M291.7285,-76.9613C320.2598,-65.7969 361.7136,-49.5759 393.9222,-36.9725"/>
<polygon fill="#000000" stroke="#000000" points="395.5596,-40.0903 403.5966,-33.1869 393.0088,-33.5716 395.5596,-40.0903"/>
</g>
<!-- denied -->
<g id="node10" class="node">
<title>denied</title>
<ellipse fill="none" stroke="#000000" cx="785.4075" cy="-18" rx="68.8581" ry="18"/>
<text text-anchor="middle" x="785.4075" y="-13.8" font-family="Times,serif" font-size="14.00" fill="#000000">Access Denied</text>
</g>
<!-- measures__siteID_siteID__sites_where_No_Rows&#45;&gt;denied -->
<g id="edge9" class="edge">
<title>measures__siteID_siteID__sites_where_No_Rows&#45;&gt;denied</title>
<path fill="none" stroke="#000000" d="M508.1553,-81.1714C561.8917,-68.9277 659.6263,-46.659 723.5276,-32.0992"/>
<polygon fill="#000000" stroke="#000000" points="724.5084,-35.4655 733.4809,-29.8314 722.9532,-28.6404 724.5084,-35.4655"/>
</g>
<!-- measures__siteID_siteID__sites_join_No_Rows&#45;&gt;denied -->
<g id="edge11" class="edge">
<title>measures__siteID_siteID__sites_join_No_Rows&#45;&gt;denied</title>
<path fill="none" stroke="#000000" d="M518.581,-158.3174C527.4141,-153.2569 537.6383,-147.9125 547.4075,-144 606.2498,-120.434 629.5997,-138.0545 685.4075,-108 701.8298,-99.156 736.6842,-66.3163 760.5795,-42.8644"/>
<polygon fill="#000000" stroke="#000000" points="763.2578,-45.1385 767.9154,-35.6223 758.34,-40.157 763.2578,-45.1385"/>
</g>
<!-- measures__dataID_dataID__datasets_join_Has_Rows -->
<g id="node13" class="node">
<title>measures__dataID_dataID__datasets_join_Has_Rows</title>
<ellipse fill="none" stroke="#000000" cx="808.4075" cy="-256.8313" rx="47.4704" ry="18"/>
<text text-anchor="middle" x="808.4075" y="-252.6313" font-family="Times,serif" font-size="14.00" fill="#000000">Has rows</text>
</g>
<!-- measures__dataID_dataID__datasets_join&#45;&gt;measures__dataID_dataID__datasets_join_Has_Rows -->
<g id="edge13" class="edge">
<title>measures__dataID_dataID__datasets_join&#45;&gt;measures__dataID_dataID__datasets_join_Has_Rows</title>
<path fill="none" stroke="#000000" d="M834.8993,-311.7126C830.4159,-302.4247 825.7513,-292.7613 821.6084,-284.1787"/>
<polygon fill="#000000" stroke="#000000" points="824.6893,-282.5097 817.1901,-275.0255 818.3853,-285.5528 824.6893,-282.5097"/>
</g>
<!-- measures__dataID_dataID__datasets_join_No_Rows -->
<g id="node17" class="node">
<title>measures__dataID_dataID__datasets_join_No_Rows</title>
<ellipse fill="none" stroke="#000000" cx="951.4075" cy="-256.8313" rx="44.0415" ry="18"/>
<text text-anchor="middle" x="951.4075" y="-252.6313" font-family="Times,serif" font-size="14.00" fill="#000000">No rows</text>
</g>
<!-- measures__dataID_dataID__datasets_join&#45;&gt;measures__dataID_dataID__datasets_join_No_Rows -->
<g id="edge19" class="edge">
<title>measures__dataID_dataID__datasets_join&#45;&gt;measures__dataID_dataID__datasets_join_No_Rows</title>
<path fill="none" stroke="#000000" d="M892.7445,-314.4632C904.3351,-303.0763 916.7365,-290.8929 927.1373,-280.6749"/>
<polygon fill="#000000" stroke="#000000" points="929.6363,-283.1263 934.317,-273.6214 924.7306,-278.1328 929.6363,-283.1263"/>
</g>
<!-- measures__dataID_dataID__datasets_where -->
<g id="node14" class="node">
<title>measures__dataID_dataID__datasets_where</title>
<ellipse fill="none" stroke="#000000" cx="785.4075" cy="-173.4156" rx="228.5204" ry="29.3315"/>
<text text-anchor="middle" x="785.4075" y="-177.6156" font-family="Times,serif" font-size="14.00" fill="#000000">WHERE IN</text>
<text text-anchor="middle" x="785.4075" y="-160.8156" font-family="Times,serif" font-size="14.00" fill="#000000">datasets.dataID = [&quot;NML&#45;WWPCR&quot;,&quot;NML&#45;WWGX&quot;]</text>
</g>
<!-- measures__dataID_dataID__datasets_join_Has_Rows&#45;&gt;measures__dataID_dataID__datasets_where -->
<g id="edge14" class="edge">
<title>measures__dataID_dataID__datasets_join_Has_Rows&#45;&gt;measures__dataID_dataID__datasets_where</title>
<path fill="none" stroke="#000000" d="M803.4168,-238.7313C801.3017,-231.0602 798.7485,-221.8004 796.238,-212.6954"/>
<polygon fill="#000000" stroke="#000000" points="799.5856,-211.6687 793.5533,-202.9588 792.8374,-213.5294 799.5856,-211.6687"/>
</g>
<!-- measures__dataID_dataID__datasets_where_Has_Rows -->
<g id="node15" class="node">
<title>measures__dataID_dataID__datasets_where_Has_Rows</title>
<ellipse fill="none" stroke="#000000" cx="629.4075" cy="-90" rx="47.4704" ry="18"/>
<text text-anchor="middle" x="629.4075" y="-85.8" font-family="Times,serif" font-size="14.00" fill="#000000">Has rows</text>
</g>
<!-- measures__dataID_dataID__datasets_where&#45;&gt;measures__dataID_dataID__datasets_where_Has_Rows -->
<g id="edge15" class="edge">
<title>measures__dataID_dataID__datasets_where&#45;&gt;measures__dataID_dataID__datasets_where_Has_Rows</title>
<path fill="none" stroke="#000000" d="M731.7211,-144.7087C709.9607,-133.0731 685.3951,-119.9374 665.7899,-109.4542"/>
<polygon fill="#000000" stroke="#000000" points="667.3482,-106.3186 656.8793,-104.6896 664.0474,-112.4915 667.3482,-106.3186"/>
</g>
<!-- measures__dataID_dataID__datasets_where_No_Rows -->
<g id="node16" class="node">
<title>measures__dataID_dataID__datasets_where_No_Rows</title>
<ellipse fill="none" stroke="#000000" cx="785.4075" cy="-90" rx="44.0415" ry="18"/>
<text text-anchor="middle" x="785.4075" y="-85.8" font-family="Times,serif" font-size="14.00" fill="#000000">No rows</text>
</g>
<!-- measures__dataID_dataID__datasets_where&#45;&gt;measures__dataID_dataID__datasets_where_No_Rows -->
<g id="edge17" class="edge">
<title>measures__dataID_dataID__datasets_where&#45;&gt;measures__dataID_dataID__datasets_where_No_Rows</title>
<path fill="none" stroke="#000000" d="M785.4075,-143.7715C785.4075,-135.5664 785.4075,-126.6796 785.4075,-118.5388"/>
<polygon fill="#000000" stroke="#000000" points="788.9076,-118.3865 785.4075,-108.3866 781.9076,-118.3866 788.9076,-118.3865"/>
</g>
<!-- measures__dataID_dataID__datasets_where_Has_Rows&#45;&gt;granted -->
<g id="edge16" class="edge">
<title>measures__dataID_dataID__datasets_where_Has_Rows&#45;&gt;granted</title>
<path fill="none" stroke="#000000" d="M595.9756,-77.1278C566.8128,-65.8994 524.1299,-49.4653 491.1604,-36.7712"/>
<polygon fill="#000000" stroke="#000000" points="492.293,-33.4568 481.7032,-33.1299 489.7777,-39.9894 492.293,-33.4568"/>
</g>
<!-- measures__dataID_dataID__datasets_where_No_Rows&#45;&gt;denied -->
<g id="edge18" class="edge">
<title>measures__dataID_dataID__datasets_where_No_Rows&#45;&gt;denied</title>
<path fill="none" stroke="#000000" d="M785.4075,-71.8314C785.4075,-64.131 785.4075,-54.9743 785.4075,-46.4166"/>
<polygon fill="#000000" stroke="#000000" points="788.9076,-46.4132 785.4075,-36.4133 781.9076,-46.4133 788.9076,-46.4132"/>
</g>
<!-- measures__dataID_dataID__datasets_join_No_Rows&#45;&gt;denied -->
<g id="edge20" class="edge">
<title>measures__dataID_dataID__datasets_join_No_Rows&#45;&gt;denied</title>
<path fill="none" stroke="#000000" d="M980.6993,-243.2477C996.4632,-234.2198 1014.4632,-220.7198 1023.4075,-202.8313 1035.1009,-179.4445 1036.8944,-166.4005 1023.4075,-144 985.8141,-81.5609 905.7514,-48.4432 848.8826,-32.0899"/>
<polygon fill="#000000" stroke="#000000" points="849.4759,-28.6224 838.9042,-29.3229 847.6053,-35.3679 849.4759,-28.6224"/>
</g>
<!-- measureSets__measSetRepID_measSetRepID__measures_join_No_Rows&#45;&gt;denied -->
<g id="edge22" class="edge">
<title>measureSets__measSetRepID_measSetRepID__measures_join_No_Rows&#45;&gt;denied</title>
<path fill="none" stroke="#000000" d="M1060.2104,-429.3843C1066.9777,-395.6625 1080.4075,-320.6963 1080.4075,-256.8313 1080.4075,-256.8313 1080.4075,-256.8313 1080.4075,-173.4156 1080.4075,-74.1601 948.0728,-38.1431 860.6711,-25.1794"/>
<polygon fill="#000000" stroke="#000000" points="860.9027,-21.6775 850.5117,-23.7454 859.9244,-28.6088 860.9027,-21.6775"/>
</g>
</g>
</svg>
