<?xml version="1.0" encoding="UTF-8" standalone="no"?>
<!DOCTYPE svg PUBLIC "-//W3C//DTD SVG 1.1//EN"
 "http://www.w3.org/Graphics/SVG/1.1/DTD/svg11.dtd">
<!-- Generated by graphviz version 2.40.1 (20161225.0304)
 -->
<!-- Title: G Pages: 1 -->
<svg width="664pt" height="473pt"
 viewBox="0.00 0.00 664.26 473.42" xmlns="http://www.w3.org/2000/svg" xmlns:xlink="http://www.w3.org/1999/xlink">
<g id="graph0" class="graph" transform="scale(1 1) rotate(0) translate(4 469.4214)">
<title>G</title>
<polygon fill="#ffffff" stroke="transparent" points="-4,4 -4,-469.4214 660.2554,-469.4214 660.2554,4 -4,4"/>
<!-- measures -->
<g id="node1" class="node">
<title>measures</title>
<ellipse fill="none" stroke="#000000" cx="389.2346" cy="-447.4214" rx="46.9265" ry="18"/>
<text text-anchor="middle" x="389.2346" y="-443.2214" font-family="Times,serif" font-size="14.00" fill="#000000">measures</text>
</g>
<!-- measures__siteID_siteID__sites_join -->
<g id="node2" class="node">
<title>measures__siteID_siteID__sites_join</title>
<ellipse fill="none" stroke="#000000" cx="484.2346" cy="-352.1263" rx="78.8882" ry="41.0911"/>
<text text-anchor="middle" x="484.2346" y="-364.7263" font-family="Times,serif" font-size="14.00" fill="#000000">LEFT JOIN sites</text>
<text text-anchor="middle" x="484.2346" y="-347.9263" font-family="Times,serif" font-size="14.00" fill="#000000">At level: 1</text>
<text text-anchor="middle" x="484.2346" y="-331.1263" font-family="Times,serif" font-size="14.00" fill="#000000">Required: true</text>
</g>
<!-- measures&#45;&gt;measures__siteID_siteID__sites_join -->
<g id="edge1" class="edge">
<title>measures&#45;&gt;measures__siteID_siteID__sites_join</title>
<path fill="none" stroke="#000000" d="M406.2187,-430.3845C415.8553,-420.718 428.3978,-408.1365 440.5981,-395.8983"/>
<polygon fill="#000000" stroke="#000000" points="443.136,-398.31 447.7174,-388.7569 438.1786,-393.3679 443.136,-398.31"/>
</g>
<!-- measures__dataID_dataID__datasets_join -->
<g id="node10" class="node">
<title>measures__dataID_dataID__datasets_join</title>
<ellipse fill="none" stroke="#000000" cx="294.2346" cy="-352.1263" rx="92.8656" ry="41.0911"/>
<text text-anchor="middle" x="294.2346" y="-364.7263" font-family="Times,serif" font-size="14.00" fill="#000000">LEFT JOIN datasets</text>
<text text-anchor="middle" x="294.2346" y="-347.9263" font-family="Times,serif" font-size="14.00" fill="#000000">At level: 1</text>
<text text-anchor="middle" x="294.2346" y="-331.1263" font-family="Times,serif" font-size="14.00" fill="#000000">Required: true</text>
</g>
<!-- measures&#45;&gt;measures__dataID_dataID__datasets_join -->
<g id="edge10" class="edge">
<title>measures&#45;&gt;measures__dataID_dataID__datasets_join</title>
<path fill="none" stroke="#000000" d="M372.2505,-430.3845C362.9692,-421.0743 350.9922,-409.0602 339.2216,-397.253"/>
<polygon fill="#000000" stroke="#000000" points="341.4841,-394.5651 331.9453,-389.9541 336.5267,-399.5072 341.4841,-394.5651"/>
</g>
<!-- measures__siteID_siteID__sites_join_Has_Rows -->
<g id="node3" class="node">
<title>measures__siteID_siteID__sites_join_Has_Rows</title>
<ellipse fill="none" stroke="#000000" cx="467.2346" cy="-256.8313" rx="47.4704" ry="18"/>
<text text-anchor="middle" x="467.2346" y="-252.6313" font-family="Times,serif" font-size="14.00" fill="#000000">Has rows</text>
</g>
<!-- measures__siteID_siteID__sites_join&#45;&gt;measures__siteID_siteID__sites_join_Has_Rows -->
<g id="edge2" class="edge">
<title>measures__siteID_siteID__sites_join&#45;&gt;measures__siteID_siteID__sites_join_Has_Rows</title>
<path fill="none" stroke="#000000" d="M476.877,-310.8828C475.3297,-302.2088 473.7308,-293.2465 472.2907,-285.174"/>
<polygon fill="#000000" stroke="#000000" points="475.7086,-284.4033 470.5067,-275.1734 468.8174,-285.6327 475.7086,-284.4033"/>
</g>
<!-- measures__siteID_siteID__sites_join_No_Rows -->
<g id="node9" class="node">
<title>measures__siteID_siteID__sites_join_No_Rows</title>
<ellipse fill="none" stroke="#000000" cx="612.2346" cy="-173.4156" rx="44.0415" ry="18"/>
<text text-anchor="middle" x="612.2346" y="-169.2156" font-family="Times,serif" font-size="14.00" fill="#000000">No rows</text>
</g>
<!-- measures__siteID_siteID__sites_join&#45;&gt;measures__siteID_siteID__sites_join_No_Rows -->
<g id="edge8" class="edge">
<title>measures__siteID_siteID__sites_join&#45;&gt;measures__siteID_siteID__sites_join_No_Rows</title>
<path fill="none" stroke="#000000" d="M512.0087,-313.3488C536.7695,-278.7783 572.3171,-229.1476 593.7501,-199.2233"/>
<polygon fill="#000000" stroke="#000000" points="596.6832,-201.1389 599.6607,-190.9711 590.9923,-197.0629 596.6832,-201.1389"/>
</g>
<!-- measures__siteID_siteID__sites_where -->
<g id="node4" class="node">
<title>measures__siteID_siteID__sites_where</title>
<ellipse fill="none" stroke="#000000" cx="458.2346" cy="-173.4156" rx="92.1488" ry="29.3315"/>
<text text-anchor="middle" x="458.2346" y="-177.6156" font-family="Times,serif" font-size="14.00" fill="#000000">WHERE</text>
<text text-anchor="middle" x="458.2346" y="-160.8156" font-family="Times,serif" font-size="14.00" fill="#000000">sites.siteID = &quot;HNJ&quot;</text>
</g>
<!-- measures__siteID_siteID__sites_join_Has_Rows&#45;&gt;measures__siteID_siteID__sites_where -->
<g id="edge3" class="edge">
<title>measures__siteID_siteID__sites_join_Has_Rows&#45;&gt;measures__siteID_siteID__sites_where</title>
<path fill="none" stroke="#000000" d="M465.2817,-238.7313C464.4629,-231.1418 463.4762,-221.9972 462.504,-212.986"/>
<polygon fill="#000000" stroke="#000000" points="465.9747,-212.5256 461.4221,-202.9588 459.0151,-213.2766 465.9747,-212.5256"/>
</g>
<!-- measures__siteID_siteID__sites_where_Has_Rows -->
<g id="node5" class="node">
<title>measures__siteID_siteID__sites_where_Has_Rows</title>
<ellipse fill="none" stroke="#000000" cx="265.2346" cy="-90" rx="47.4704" ry="18"/>
<text text-anchor="middle" x="265.2346" y="-85.8" font-family="Times,serif" font-size="14.00" fill="#000000">Has rows</text>
</g>
<!-- measures__siteID_siteID__sites_where&#45;&gt;measures__siteID_siteID__sites_where_Has_Rows -->
<g id="edge4" class="edge">
<title>measures__siteID_siteID__sites_where&#45;&gt;measures__siteID_siteID__sites_where_Has_Rows</title>
<path fill="none" stroke="#000000" d="M403.4448,-149.7352C372.4059,-136.32 334.2381,-119.8237 305.882,-107.568"/>
<polygon fill="#000000" stroke="#000000" points="307.2341,-104.3396 296.6662,-103.5849 304.4569,-110.7651 307.2341,-104.3396"/>
</g>
<!-- measures__siteID_siteID__sites_where_No_Rows -->
<g id="node7" class="node">
<title>measures__siteID_siteID__sites_where_No_Rows</title>
<ellipse fill="none" stroke="#000000" cx="435.2346" cy="-90" rx="44.0415" ry="18"/>
<text text-anchor="middle" x="435.2346" y="-85.8" font-family="Times,serif" font-size="14.00" fill="#000000">No rows</text>
</g>
<!-- measures__siteID_siteID__sites_where&#45;&gt;measures__siteID_siteID__sites_where_No_Rows -->
<g id="edge6" class="edge">
<title>measures__siteID_siteID__sites_where&#45;&gt;measures__siteID_siteID__sites_where_No_Rows</title>
<path fill="none" stroke="#000000" d="M450.0609,-143.7715C447.7109,-135.2488 445.1582,-125.9907 442.8439,-117.597"/>
<polygon fill="#000000" stroke="#000000" points="446.2009,-116.6047 440.1687,-107.8947 439.4527,-118.4654 446.2009,-116.6047"/>
</g>
<!-- granted -->
<g id="node6" class="node">
<title>granted</title>
<ellipse fill="none" stroke="#000000" cx="161.2346" cy="-18" rx="71.7874" ry="18"/>
<text text-anchor="middle" x="161.2346" y="-13.8" font-family="Times,serif" font-size="14.00" fill="#000000">Access Granted</text>
</g>
<!-- measures__siteID_siteID__sites_where_Has_Rows&#45;&gt;granted -->
<g id="edge5" class="edge">
<title>measures__siteID_siteID__sites_where_Has_Rows&#45;&gt;granted</title>
<path fill="none" stroke="#000000" d="M242.4114,-74.1993C228.2852,-64.4197 209.9118,-51.6996 194.2183,-40.8349"/>
<polygon fill="#000000" stroke="#000000" points="196.0336,-37.8347 185.8194,-35.0202 192.0491,-43.5901 196.0336,-37.8347"/>
</g>
<!-- denied -->
<g id="node8" class="node">
<title>denied</title>
<ellipse fill="none" stroke="#000000" cx="387.2346" cy="-18" rx="68.8581" ry="18"/>
<text text-anchor="middle" x="387.2346" y="-13.8" font-family="Times,serif" font-size="14.00" fill="#000000">Access Denied</text>
</g>
<!-- measures__siteID_siteID__sites_where_No_Rows&#45;&gt;denied -->
<g id="edge7" class="edge">
<title>measures__siteID_siteID__sites_where_No_Rows&#45;&gt;denied</title>
<path fill="none" stroke="#000000" d="M423.6151,-72.5708C417.9221,-64.0312 410.9492,-53.5719 404.6365,-44.1029"/>
<polygon fill="#000000" stroke="#000000" points="407.5397,-42.1479 399.0805,-35.7689 401.7154,-46.0309 407.5397,-42.1479"/>
</g>
<!-- measures__siteID_siteID__sites_join_No_Rows&#45;&gt;denied -->
<g id="edge9" class="edge">
<title>measures__siteID_siteID__sites_join_No_Rows&#45;&gt;denied</title>
<path fill="none" stroke="#000000" d="M594.2051,-156.7661C570.8169,-135.6269 528.26,-98.6987 488.2346,-72 469.8389,-59.7293 448.3654,-47.929 429.9599,-38.5061"/>
<polygon fill="#000000" stroke="#000000" points="431.4276,-35.3263 420.9234,-33.9429 428.2722,-41.5748 431.4276,-35.3263"/>
</g>
<!-- measures__dataID_dataID__datasets_join_Has_Rows -->
<g id="node11" class="node">
<title>measures__dataID_dataID__datasets_join_Has_Rows</title>
<ellipse fill="none" stroke="#000000" cx="176.2346" cy="-256.8313" rx="47.4704" ry="18"/>
<text text-anchor="middle" x="176.2346" y="-252.6313" font-family="Times,serif" font-size="14.00" fill="#000000">Has rows</text>
</g>
<!-- measures__dataID_dataID__datasets_join&#45;&gt;measures__dataID_dataID__datasets_join_Has_Rows -->
<g id="edge11" class="edge">
<title>measures__dataID_dataID__datasets_join&#45;&gt;measures__dataID_dataID__datasets_join_Has_Rows</title>
<path fill="none" stroke="#000000" d="M249.2872,-315.8275C234.1851,-303.6313 217.7788,-290.3817 204.3469,-279.5344"/>
<polygon fill="#000000" stroke="#000000" points="206.3852,-276.6817 196.4064,-273.1217 201.9872,-282.1276 206.3852,-276.6817"/>
</g>
<!-- measures__dataID_dataID__datasets_join_No_Rows -->
<g id="node15" class="node">
<title>measures__dataID_dataID__datasets_join_No_Rows</title>
<ellipse fill="none" stroke="#000000" cx="303.2346" cy="-256.8313" rx="44.0415" ry="18"/>
<text text-anchor="middle" x="303.2346" y="-252.6313" font-family="Times,serif" font-size="14.00" fill="#000000">No rows</text>
</g>
<!-- measures__dataID_dataID__datasets_join&#45;&gt;measures__dataID_dataID__datasets_join_No_Rows -->
<g id="edge17" class="edge">
<title>measures__dataID_dataID__datasets_join&#45;&gt;measures__dataID_dataID__datasets_join_No_Rows</title>
<path fill="none" stroke="#000000" d="M298.1559,-310.6057C298.9636,-302.0541 299.7965,-293.2347 300.5483,-285.2742"/>
<polygon fill="#000000" stroke="#000000" points="304.0574,-285.342 301.5133,-275.0572 297.0884,-284.6838 304.0574,-285.342"/>
</g>
<!-- measures__dataID_dataID__datasets_where -->
<g id="node12" class="node">
<title>measures__dataID_dataID__datasets_where</title>
<ellipse fill="none" stroke="#000000" cx="156.2346" cy="-173.4156" rx="153.1956" ry="29.3315"/>
<text text-anchor="middle" x="156.2346" y="-177.6156" font-family="Times,serif" font-size="14.00" fill="#000000">WHERE</text>
<text text-anchor="middle" x="156.2346" y="-160.8156" font-family="Times,serif" font-size="14.00" fill="#000000">datasets.dataID = &quot;NML&#45;WWPCR&quot;</text>
</g>
<!-- measures__dataID_dataID__datasets_join_Has_Rows&#45;&gt;measures__dataID_dataID__datasets_where -->
<g id="edge12" class="edge">
<title>measures__dataID_dataID__datasets_join_Has_Rows&#45;&gt;measures__dataID_dataID__datasets_where</title>
<path fill="none" stroke="#000000" d="M171.8949,-238.7313C170.0556,-231.0602 167.8355,-221.8004 165.6524,-212.6954"/>
<polygon fill="#000000" stroke="#000000" points="169.0531,-211.8671 163.318,-202.9588 162.246,-213.4992 169.0531,-211.8671"/>
</g>
<!-- measures__dataID_dataID__datasets_where_Has_Rows -->
<g id="node13" class="node">
<title>measures__dataID_dataID__datasets_where_Has_Rows</title>
<ellipse fill="none" stroke="#000000" cx="47.2346" cy="-90" rx="47.4704" ry="18"/>
<text text-anchor="middle" x="47.2346" y="-85.8" font-family="Times,serif" font-size="14.00" fill="#000000">Has rows</text>
</g>
<!-- measures__dataID_dataID__datasets_where&#45;&gt;measures__dataID_dataID__datasets_where_Has_Rows -->
<g id="edge13" class="edge">
<title>measures__dataID_dataID__datasets_where&#45;&gt;measures__dataID_dataID__datasets_where_Has_Rows</title>
<path fill="none" stroke="#000000" d="M118.723,-144.7087C104.9826,-134.1934 89.6414,-122.4531 76.7042,-112.5525"/>
<polygon fill="#000000" stroke="#000000" points="78.6592,-109.6414 68.5907,-106.3434 74.405,-115.2004 78.6592,-109.6414"/>
</g>
<!-- measures__dataID_dataID__datasets_where_No_Rows -->
<g id="node14" class="node">
<title>measures__dataID_dataID__datasets_where_No_Rows</title>
<ellipse fill="none" stroke="#000000" cx="156.2346" cy="-90" rx="44.0415" ry="18"/>
<text text-anchor="middle" x="156.2346" y="-85.8" font-family="Times,serif" font-size="14.00" fill="#000000">No rows</text>
</g>
<!-- measures__dataID_dataID__datasets_where&#45;&gt;measures__dataID_dataID__datasets_where_No_Rows -->
<g id="edge15" class="edge">
<title>measures__dataID_dataID__datasets_where&#45;&gt;measures__dataID_dataID__datasets_where_No_Rows</title>
<path fill="none" stroke="#000000" d="M156.2346,-143.7715C156.2346,-135.5664 156.2346,-126.6796 156.2346,-118.5388"/>
<polygon fill="#000000" stroke="#000000" points="159.7347,-118.3865 156.2346,-108.3866 152.7347,-118.3866 159.7347,-118.3865"/>
</g>
<!-- measures__dataID_dataID__datasets_where_Has_Rows&#45;&gt;granted -->
<g id="edge14" class="edge">
<title>measures__dataID_dataID__datasets_where_Has_Rows&#45;&gt;granted</title>
<path fill="none" stroke="#000000" d="M71.6905,-74.5542C87.4014,-64.6315 108.0729,-51.5758 125.5957,-40.5088"/>
<polygon fill="#000000" stroke="#000000" points="127.8431,-43.229 134.429,-34.9298 124.1051,-37.3106 127.8431,-43.229"/>
</g>
<!-- measures__dataID_dataID__datasets_where_No_Rows&#45;&gt;denied -->
<g id="edge16" class="edge">
<title>measures__dataID_dataID__datasets_where_No_Rows&#45;&gt;denied</title>
<path fill="none" stroke="#000000" d="M190.1082,-78.3111C196.4518,-76.1746 203.0361,-73.9922 209.2346,-72 250.1237,-58.8582 296.5694,-44.7967 331.7623,-34.3181"/>
<polygon fill="#000000" stroke="#000000" points="332.7874,-37.6648 341.3762,-31.4613 330.7934,-30.9548 332.7874,-37.6648"/>
</g>
<!-- measures__dataID_dataID__datasets_join_No_Rows&#45;&gt;denied -->
<g id="edge18" class="edge">
<title>measures__dataID_dataID__datasets_join_No_Rows&#45;&gt;denied</title>
<path fill="none" stroke="#000000" d="M309.5483,-238.8801C324.0816,-197.5585 359.9878,-95.4688 377.4221,-45.8992"/>
<polygon fill="#000000" stroke="#000000" points="380.8315,-46.7543 380.8477,-36.1595 374.228,-44.4317 380.8315,-46.7543"/>
</g>
</g>
</svg>
