<?xml version="1.0" encoding="UTF-8" standalone="no"?>
<!DOCTYPE svg PUBLIC "-//W3C//DTD SVG 1.1//EN"
 "http://www.w3.org/Graphics/SVG/1.1/DTD/svg11.dtd">
<!-- Generated by graphviz version 2.40.1 (20161225.0304)
 -->
<!-- Title: G Pages: 1 -->
<svg width="1042pt" height="664pt"
 viewBox="0.00 0.00 1041.62 664.01" xmlns="http://www.w3.org/2000/svg" xmlns:xlink="http://www.w3.org/1999/xlink">
<g id="graph0" class="graph" transform="scale(1 1) rotate(0) translate(4 660.0114)">
<title>G</title>
<polygon fill="#ffffff" stroke="transparent" points="-4,4 -4,-660.0114 1037.6215,-660.0114 1037.6215,4 -4,4"/>
<!-- measureSets -->
<g id="node1" class="node">
<title>measureSets</title>
<ellipse fill="none" stroke="#000000" cx="841.6007" cy="-638.0114" rx="59.1045" ry="18"/>
<text text-anchor="middle" x="841.6007" y="-633.8114" font-family="Times,serif" font-size="14.00" fill="#000000">measureSets</text>
</g>
<!-- measureSets__measSetRepID_measSetRepID__measures_join -->
<g id="node2" class="node">
<title>measureSets__measSetRepID_measSetRepID__measures_join</title>
<ellipse fill="none" stroke="#000000" cx="841.6007" cy="-542.7164" rx="98.354" ry="41.0911"/>
<text text-anchor="middle" x="841.6007" y="-555.3164" font-family="Times,serif" font-size="14.00" fill="#000000">LEFT JOIN measures</text>
<text text-anchor="middle" x="841.6007" y="-538.5164" font-family="Times,serif" font-size="14.00" fill="#000000">At level: 2</text>
<text text-anchor="middle" x="841.6007" y="-521.7164" font-family="Times,serif" font-size="14.00" fill="#000000">Required: true</text>
</g>
<!-- measureSets&#45;&gt;measureSets__measSetRepID_measSetRepID__measures_join -->
<g id="edge1" class="edge">
<title>measureSets&#45;&gt;measureSets__measSetRepID_measSetRepID__measures_join</title>
<path fill="none" stroke="#000000" d="M841.6007,-619.6376C841.6007,-612.3285 841.6007,-603.5189 841.6007,-594.5101"/>
<polygon fill="#000000" stroke="#000000" points="845.1008,-594.3235 841.6007,-584.3236 838.1008,-594.3236 845.1008,-594.3235"/>
</g>
<!-- measureSets__measSetRepID_measSetRepID__measures_join_Has_Rows -->
<g id="node3" class="node">
<title>measureSets__measSetRepID_measSetRepID__measures_join_Has_Rows</title>
<ellipse fill="none" stroke="#000000" cx="787.6007" cy="-447.4214" rx="47.4704" ry="18"/>
<text text-anchor="middle" x="787.6007" y="-443.2214" font-family="Times,serif" font-size="14.00" fill="#000000">Has rows</text>
</g>
<!-- measureSets__measSetRepID_measSetRepID__measures_join&#45;&gt;measureSets__measSetRepID_measSetRepID__measures_join_Has_Rows -->
<g id="edge2" class="edge">
<title>measureSets__measSetRepID_measSetRepID__measures_join&#45;&gt;measureSets__measSetRepID_measSetRepID__measures_join_Has_Rows</title>
<path fill="none" stroke="#000000" d="M818.6998,-502.3027C813.2957,-492.7659 807.6672,-482.8332 802.7078,-474.0812"/>
<polygon fill="#000000" stroke="#000000" points="805.6064,-472.097 797.6311,-465.1223 799.5162,-475.5481 805.6064,-472.097"/>
</g>
<!-- measureSets__measSetRepID_measSetRepID__measures_join_No_Rows -->
<g id="node18" class="node">
<title>measureSets__measSetRepID_measSetRepID__measures_join_No_Rows</title>
<ellipse fill="none" stroke="#000000" cx="989.6007" cy="-447.4214" rx="44.0415" ry="18"/>
<text text-anchor="middle" x="989.6007" y="-443.2214" font-family="Times,serif" font-size="14.00" fill="#000000">No rows</text>
</g>
<!-- measureSets__measSetRepID_measSetRepID__measures_join&#45;&gt;measureSets__measSetRepID_measSetRepID__measures_join_No_Rows -->
<g id="edge21" class="edge">
<title>measureSets__measSetRepID_measSetRepID__measures_join&#45;&gt;measureSets__measSetRepID_measSetRepID__measures_join_No_Rows</title>
<path fill="none" stroke="#000000" d="M895.4508,-508.0431C916.1908,-494.6889 939.2167,-479.8629 957.3058,-468.2156"/>
<polygon fill="#000000" stroke="#000000" points="959.2447,-471.13 965.7577,-462.7735 955.4551,-465.2445 959.2447,-471.13"/>
</g>
<!-- measures__siteID_siteID__sites_join -->
<g id="node4" class="node">
<title>measures__siteID_siteID__sites_join</title>
<ellipse fill="none" stroke="#000000" cx="427.6007" cy="-352.1263" rx="78.8882" ry="41.0911"/>
<text text-anchor="middle" x="427.6007" y="-364.7263" font-family="Times,serif" font-size="14.00" fill="#000000">LEFT JOIN sites</text>
<text text-anchor="middle" x="427.6007" y="-347.9263" font-family="Times,serif" font-size="14.00" fill="#000000">At level: 1</text>
<text text-anchor="middle" x="427.6007" y="-331.1263" font-family="Times,serif" font-size="14.00" fill="#000000">Required: true</text>
</g>
<!-- measureSets__measSetRepID_measSetRepID__measures_join_Has_Rows&#45;&gt;measures__siteID_siteID__sites_join -->
<g id="edge3" class="edge">
<title>measureSets__measSetRepID_measSetRepID__measures_join_Has_Rows&#45;&gt;measures__siteID_siteID__sites_join</title>
<path fill="none" stroke="#000000" d="M748.7324,-437.1326C691.3992,-421.956 582.8727,-393.2281 507.9615,-373.3985"/>
<polygon fill="#000000" stroke="#000000" points="508.6451,-369.959 498.0824,-370.7834 506.8538,-376.7259 508.6451,-369.959"/>
</g>
<!-- measures__dataID_dataID__datasets_join -->
<g id="node12" class="node">
<title>measures__dataID_dataID__datasets_join</title>
<ellipse fill="none" stroke="#000000" cx="787.6007" cy="-352.1263" rx="92.8656" ry="41.0911"/>
<text text-anchor="middle" x="787.6007" y="-364.7263" font-family="Times,serif" font-size="14.00" fill="#000000">LEFT JOIN datasets</text>
<text text-anchor="middle" x="787.6007" y="-347.9263" font-family="Times,serif" font-size="14.00" fill="#000000">At level: 1</text>
<text text-anchor="middle" x="787.6007" y="-331.1263" font-family="Times,serif" font-size="14.00" fill="#000000">Required: true</text>
</g>
<!-- measureSets__measSetRepID_measSetRepID__measures_join_Has_Rows&#45;&gt;measures__dataID_dataID__datasets_join -->
<g id="edge12" class="edge">
<title>measureSets__measSetRepID_measSetRepID__measures_join_Has_Rows&#45;&gt;measures__dataID_dataID__datasets_join</title>
<path fill="none" stroke="#000000" d="M787.6007,-429.0475C787.6007,-421.7384 787.6007,-412.9288 787.6007,-403.92"/>
<polygon fill="#000000" stroke="#000000" points="791.1008,-403.7335 787.6007,-393.7335 784.1008,-403.7335 791.1008,-403.7335"/>
</g>
<!-- measures__siteID_siteID__sites_join_Has_Rows -->
<g id="node5" class="node">
<title>measures__siteID_siteID__sites_join_Has_Rows</title>
<ellipse fill="none" stroke="#000000" cx="267.6007" cy="-256.8313" rx="47.4704" ry="18"/>
<text text-anchor="middle" x="267.6007" y="-252.6313" font-family="Times,serif" font-size="14.00" fill="#000000">Has rows</text>
</g>
<!-- measures__siteID_siteID__sites_join&#45;&gt;measures__siteID_siteID__sites_join_Has_Rows -->
<g id="edge4" class="edge">
<title>measures__siteID_siteID__sites_join&#45;&gt;measures__siteID_siteID__sites_join_Has_Rows</title>
<path fill="none" stroke="#000000" d="M375.2107,-320.9232C351.1275,-306.5793 323.2392,-289.9692 301.8887,-277.253"/>
<polygon fill="#000000" stroke="#000000" points="303.5515,-274.1696 293.1689,-272.0595 299.9695,-280.1837 303.5515,-274.1696"/>
</g>
<!-- measures__siteID_siteID__sites_join_No_Rows -->
<g id="node11" class="node">
<title>measures__siteID_siteID__sites_join_No_Rows</title>
<ellipse fill="none" stroke="#000000" cx="427.6007" cy="-173.4156" rx="44.0415" ry="18"/>
<text text-anchor="middle" x="427.6007" y="-169.2156" font-family="Times,serif" font-size="14.00" fill="#000000">No rows</text>
</g>
<!-- measures__siteID_siteID__sites_join&#45;&gt;measures__siteID_siteID__sites_join_No_Rows -->
<g id="edge10" class="edge">
<title>measures__siteID_siteID__sites_join&#45;&gt;measures__siteID_siteID__sites_join_No_Rows</title>
<path fill="none" stroke="#000000" d="M427.6007,-310.6773C427.6007,-277.3966 427.6007,-231.5276 427.6007,-202.1677"/>
<polygon fill="#000000" stroke="#000000" points="431.1008,-201.7842 427.6007,-191.7843 424.1008,-201.7843 431.1008,-201.7842"/>
</g>
<!-- measures__siteID_siteID__sites_where -->
<g id="node6" class="node">
<title>measures__siteID_siteID__sites_where</title>
<ellipse fill="none" stroke="#000000" cx="182.6007" cy="-173.4156" rx="182.7015" ry="29.3315"/>
<text text-anchor="middle" x="182.6007" y="-177.6156" font-family="Times,serif" font-size="14.00" fill="#000000">WHERE IN</text>
<text text-anchor="middle" x="182.6007" y="-160.8156" font-family="Times,serif" font-size="14.00" fill="#000000">sites.healthReg = [&quot;Yukon&quot;,&quot;Yukon&#45;HNJ&quot;]</text>
</g>
<!-- measures__siteID_siteID__sites_join_Has_Rows&#45;&gt;measures__siteID_siteID__sites_where -->
<g id="edge5" class="edge">
<title>measures__siteID_siteID__sites_join_Has_Rows&#45;&gt;measures__siteID_siteID__sites_where</title>
<path fill="none" stroke="#000000" d="M250.3997,-239.9509C241.5708,-231.2866 230.4518,-220.3748 219.7863,-209.9082"/>
<polygon fill="#000000" stroke="#000000" points="222.0976,-207.2724 212.5088,-202.7662 217.1946,-212.2685 222.0976,-207.2724"/>
</g>
<!-- measures__siteID_siteID__sites_where_Has_Rows -->
<g id="node7" class="node">
<title>measures__siteID_siteID__sites_where_Has_Rows</title>
<ellipse fill="none" stroke="#000000" cx="216.6007" cy="-90" rx="47.4704" ry="18"/>
<text text-anchor="middle" x="216.6007" y="-85.8" font-family="Times,serif" font-size="14.00" fill="#000000">Has rows</text>
</g>
<!-- measures__siteID_siteID__sites_where&#45;&gt;measures__siteID_siteID__sites_where_Has_Rows -->
<g id="edge6" class="edge">
<title>measures__siteID_siteID__sites_where&#45;&gt;measures__siteID_siteID__sites_where_Has_Rows</title>
<path fill="none" stroke="#000000" d="M194.6836,-143.7715C198.1956,-135.1551 202.014,-125.7872 205.4649,-117.3206"/>
<polygon fill="#000000" stroke="#000000" points="208.7734,-118.4762 209.3069,-107.8947 202.2912,-115.834 208.7734,-118.4762"/>
</g>
<!-- measures__siteID_siteID__sites_where_No_Rows -->
<g id="node9" class="node">
<title>measures__siteID_siteID__sites_where_No_Rows</title>
<ellipse fill="none" stroke="#000000" cx="410.6007" cy="-90" rx="44.0415" ry="18"/>
<text text-anchor="middle" x="410.6007" y="-85.8" font-family="Times,serif" font-size="14.00" fill="#000000">No rows</text>
</g>
<!-- measures__siteID_siteID__sites_where&#45;&gt;measures__siteID_siteID__sites_where_No_Rows -->
<g id="edge8" class="edge">
<title>measures__siteID_siteID__sites_where&#45;&gt;measures__siteID_siteID__sites_where_No_Rows</title>
<path fill="none" stroke="#000000" d="M256.3109,-146.4482C293.1742,-132.9614 336.4877,-117.1148 367.8235,-105.6504"/>
<polygon fill="#000000" stroke="#000000" points="369.3646,-108.8135 377.5532,-102.0907 366.9594,-102.2397 369.3646,-108.8135"/>
</g>
<!-- granted -->
<g id="node8" class="node">
<title>granted</title>
<ellipse fill="none" stroke="#000000" cx="388.6007" cy="-18" rx="71.7874" ry="18"/>
<text text-anchor="middle" x="388.6007" y="-13.8" font-family="Times,serif" font-size="14.00" fill="#000000">Access Granted</text>
</g>
<!-- measures__siteID_siteID__sites_where_Has_Rows&#45;&gt;granted -->
<g id="edge7" class="edge">
<title>measures__siteID_siteID__sites_where_Has_Rows&#45;&gt;granted</title>
<path fill="none" stroke="#000000" d="M248.5495,-76.6261C274.8485,-65.6172 312.4882,-49.8611 342.1249,-37.455"/>
<polygon fill="#000000" stroke="#000000" points="343.5685,-40.645 351.4414,-33.555 340.8655,-34.1879 343.5685,-40.645"/>
</g>
<!-- denied -->
<g id="node10" class="node">
<title>denied</title>
<ellipse fill="none" stroke="#000000" cx="718.6007" cy="-18" rx="68.8581" ry="18"/>
<text text-anchor="middle" x="718.6007" y="-13.8" font-family="Times,serif" font-size="14.00" fill="#000000">Access Denied</text>
</g>
<!-- measures__siteID_siteID__sites_where_No_Rows&#45;&gt;denied -->
<g id="edge9" class="edge">
<title>measures__siteID_siteID__sites_where_No_Rows&#45;&gt;denied</title>
<path fill="none" stroke="#000000" d="M448.9864,-81.0267C501.1524,-68.8321 595.0281,-46.8871 657.0832,-32.3807"/>
<polygon fill="#000000" stroke="#000000" points="658.1978,-35.7146 667.1385,-30.0301 656.6043,-28.8984 658.1978,-35.7146"/>
</g>
<!-- measures__siteID_siteID__sites_join_No_Rows&#45;&gt;denied -->
<g id="edge11" class="edge">
<title>measures__siteID_siteID__sites_join_No_Rows&#45;&gt;denied</title>
<path fill="none" stroke="#000000" d="M451.7743,-158.3174C460.6073,-153.2569 470.8315,-147.9125 480.6007,-144 539.443,-120.434 562.7929,-138.0545 618.6007,-108 635.023,-99.156 669.8774,-66.3163 693.7727,-42.8644"/>
<polygon fill="#000000" stroke="#000000" points="696.4511,-45.1385 701.1086,-35.6223 691.5332,-40.157 696.4511,-45.1385"/>
</g>
<!-- measures__dataID_dataID__datasets_join_Has_Rows -->
<g id="node13" class="node">
<title>measures__dataID_dataID__datasets_join_Has_Rows</title>
<ellipse fill="none" stroke="#000000" cx="741.6007" cy="-256.8313" rx="47.4704" ry="18"/>
<text text-anchor="middle" x="741.6007" y="-252.6313" font-family="Times,serif" font-size="14.00" fill="#000000">Has rows</text>
</g>
<!-- measures__dataID_dataID__datasets_join&#45;&gt;measures__dataID_dataID__datasets_join_Has_Rows -->
<g id="edge13" class="edge">
<title>measures__dataID_dataID__datasets_join&#45;&gt;measures__dataID_dataID__datasets_join_Has_Rows</title>
<path fill="none" stroke="#000000" d="M768.0926,-311.7126C763.6092,-302.4247 758.9445,-292.7613 754.8016,-284.1787"/>
<polygon fill="#000000" stroke="#000000" points="757.8825,-282.5097 750.3833,-275.0255 751.5785,-285.5528 757.8825,-282.5097"/>
</g>
<!-- measures__dataID_dataID__datasets_join_No_Rows -->
<g id="node17" class="node">
<title>measures__dataID_dataID__datasets_join_No_Rows</title>
<ellipse fill="none" stroke="#000000" cx="884.6007" cy="-256.8313" rx="44.0415" ry="18"/>
<text text-anchor="middle" x="884.6007" y="-252.6313" font-family="Times,serif" font-size="14.00" fill="#000000">No rows</text>
</g>
<!-- measures__dataID_dataID__datasets_join&#45;&gt;measures__dataID_dataID__datasets_join_No_Rows -->
<g id="edge19" class="edge">
<title>measures__dataID_dataID__datasets_join&#45;&gt;measures__dataID_dataID__datasets_join_No_Rows</title>
<path fill="none" stroke="#000000" d="M825.9377,-314.4632C837.5283,-303.0763 849.9297,-290.8929 860.3305,-280.6749"/>
<polygon fill="#000000" stroke="#000000" points="862.8295,-283.1263 867.5102,-273.6214 857.9238,-278.1328 862.8295,-283.1263"/>
</g>
<!-- measures__dataID_dataID__datasets_where -->
<g id="node14" class="node">
<title>measures__dataID_dataID__datasets_where</title>
<ellipse fill="none" stroke="#000000" cx="718.6007" cy="-173.4156" rx="228.5204" ry="29.3315"/>
<text text-anchor="middle" x="718.6007" y="-177.6156" font-family="Times,serif" font-size="14.00" fill="#000000">WHERE IN</text>
<text text-anchor="middle" x="718.6007" y="-160.8156" font-family="Times,serif" font-size="14.00" fill="#000000">datasets.dataID = [&quot;NML&#45;WWPCR&quot;,&quot;NML&#45;WWGX&quot;]</text>
</g>
<!-- measures__dataID_dataID__datasets_join_Has_Rows&#45;&gt;measures__dataID_dataID__datasets_where -->
<g id="edge14" class="edge">
<title>measures__dataID_dataID__datasets_join_Has_Rows&#45;&gt;measures__dataID_dataID__datasets_where</title>
<path fill="none" stroke="#000000" d="M736.6101,-238.7313C734.4949,-231.0602 731.9417,-221.8004 729.4312,-212.6954"/>
<polygon fill="#000000" stroke="#000000" points="732.7788,-211.6687 726.7466,-202.9588 726.0306,-213.5294 732.7788,-211.6687"/>
</g>
<!-- measures__dataID_dataID__datasets_where_Has_Rows -->
<g id="node15" class="node">
<title>measures__dataID_dataID__datasets_where_Has_Rows</title>
<ellipse fill="none" stroke="#000000" cx="562.6007" cy="-90" rx="47.4704" ry="18"/>
<text text-anchor="middle" x="562.6007" y="-85.8" font-family="Times,serif" font-size="14.00" fill="#000000">Has rows</text>
</g>
<!-- measures__dataID_dataID__datasets_where&#45;&gt;measures__dataID_dataID__datasets_where_Has_Rows -->
<g id="edge15" class="edge">
<title>measures__dataID_dataID__datasets_where&#45;&gt;measures__dataID_dataID__datasets_where_Has_Rows</title>
<path fill="none" stroke="#000000" d="M664.9144,-144.7087C643.1539,-133.0731 618.5883,-119.9374 598.9831,-109.4542"/>
<polygon fill="#000000" stroke="#000000" points="600.5414,-106.3186 590.0725,-104.6896 597.2406,-112.4915 600.5414,-106.3186"/>
</g>
<!-- measures__dataID_dataID__datasets_where_No_Rows -->
<g id="node16" class="node">
<title>measures__dataID_dataID__datasets_where_No_Rows</title>
<ellipse fill="none" stroke="#000000" cx="718.6007" cy="-90" rx="44.0415" ry="18"/>
<text text-anchor="middle" x="718.6007" y="-85.8" font-family="Times,serif" font-size="14.00" fill="#000000">No rows</text>
</g>
<!-- measures__dataID_dataID__datasets_where&#45;&gt;measures__dataID_dataID__datasets_where_No_Rows -->
<g id="edge17" class="edge">
<title>measures__dataID_dataID__datasets_where&#45;&gt;measures__dataID_dataID__datasets_where_No_Rows</title>
<path fill="none" stroke="#000000" d="M718.6007,-143.7715C718.6007,-135.5664 718.6007,-126.6796 718.6007,-118.5388"/>
<polygon fill="#000000" stroke="#000000" points="722.1008,-118.3865 718.6007,-108.3866 715.1008,-118.3866 722.1008,-118.3865"/>
</g>
<!-- measures__dataID_dataID__datasets_where_Has_Rows&#45;&gt;granted -->
<g id="edge16" class="edge">
<title>measures__dataID_dataID__datasets_where_Has_Rows&#45;&gt;granted</title>
<path fill="none" stroke="#000000" d="M530.2804,-76.6261C503.587,-65.5805 465.3443,-49.756 435.3174,-37.3311"/>
<polygon fill="#000000" stroke="#000000" points="436.4606,-34.0163 425.8822,-33.4268 433.7841,-40.4845 436.4606,-34.0163"/>
</g>
<!-- measures__dataID_dataID__datasets_where_No_Rows&#45;&gt;denied -->
<g id="edge18" class="edge">
<title>measures__dataID_dataID__datasets_where_No_Rows&#45;&gt;denied</title>
<path fill="none" stroke="#000000" d="M718.6007,-71.8314C718.6007,-64.131 718.6007,-54.9743 718.6007,-46.4166"/>
<polygon fill="#000000" stroke="#000000" points="722.1008,-46.4132 718.6007,-36.4133 715.1008,-46.4133 722.1008,-46.4132"/>
</g>
<!-- measures__dataID_dataID__datasets_join_No_Rows&#45;&gt;denied -->
<g id="edge20" class="edge">
<title>measures__dataID_dataID__datasets_join_No_Rows&#45;&gt;denied</title>
<path fill="none" stroke="#000000" d="M913.8925,-243.2477C929.6564,-234.2198 947.6564,-220.7198 956.6007,-202.8313 968.2941,-179.4445 970.0876,-166.4005 956.6007,-144 919.0073,-81.5609 838.9446,-48.4432 782.0758,-32.0899"/>
<polygon fill="#000000" stroke="#000000" points="782.6691,-28.6224 772.0974,-29.3229 780.7985,-35.3679 782.6691,-28.6224"/>
</g>
<!-- measureSets__measSetRepID_measSetRepID__measures_join_No_Rows&#45;&gt;denied -->
<g id="edge22" class="edge">
<title>measureSets__measSetRepID_measSetRepID__measures_join_No_Rows&#45;&gt;denied</title>
<path fill="none" stroke="#000000" d="M993.4036,-429.3843C1000.1709,-395.6625 1013.6007,-320.6963 1013.6007,-256.8313 1013.6007,-256.8313 1013.6007,-256.8313 1013.6007,-173.4156 1013.6007,-74.1601 881.266,-38.1431 793.8643,-25.1794"/>
<polygon fill="#000000" stroke="#000000" points="794.096,-21.6775 783.7049,-23.7454 793.1176,-28.6088 794.096,-21.6775"/>
</g>
</g>
</svg>
