<?xml version="1.0" encoding="UTF-8" standalone="no"?>
<!DOCTYPE svg PUBLIC "-//W3C//DTD SVG 1.1//EN"
 "http://www.w3.org/Graphics/SVG/1.1/DTD/svg11.dtd">
<!-- Generated by graphviz version 2.40.1 (20161225.0304)
 -->
<!-- Title: G Pages: 1 -->
<svg width="713pt" height="664pt"
 viewBox="0.00 0.00 713.35 664.01" xmlns="http://www.w3.org/2000/svg" xmlns:xlink="http://www.w3.org/1999/xlink">
<g id="graph0" class="graph" transform="scale(1 1) rotate(0) translate(4 660.0114)">
<title>G</title>
<polygon fill="#ffffff" stroke="transparent" points="-4,4 -4,-660.0114 709.345,-660.0114 709.345,4 -4,4"/>
<!-- measureSets -->
<g id="node1" class="node">
<title>measureSets</title>
<ellipse fill="none" stroke="#000000" cx="551.3242" cy="-638.0114" rx="59.1045" ry="18"/>
<text text-anchor="middle" x="551.3242" y="-633.8114" font-family="Times,serif" font-size="14.00" fill="#000000">measureSets</text>
</g>
<!-- measureSets__measSetRepID_measSetRepID__measures_join -->
<g id="node2" class="node">
<title>measureSets__measSetRepID_measSetRepID__measures_join</title>
<ellipse fill="none" stroke="#000000" cx="551.3242" cy="-542.7164" rx="98.354" ry="41.0911"/>
<text text-anchor="middle" x="551.3242" y="-555.3164" font-family="Times,serif" font-size="14.00" fill="#000000">LEFT JOIN measures</text>
<text text-anchor="middle" x="551.3242" y="-538.5164" font-family="Times,serif" font-size="14.00" fill="#000000">At level: 2</text>
<text text-anchor="middle" x="551.3242" y="-521.7164" font-family="Times,serif" font-size="14.00" fill="#000000">Required: true</text>
</g>
<!-- measureSets&#45;&gt;measureSets__measSetRepID_measSetRepID__measures_join -->
<g id="edge1" class="edge">
<title>measureSets&#45;&gt;measureSets__measSetRepID_measSetRepID__measures_join</title>
<path fill="none" stroke="#000000" d="M551.3242,-619.6376C551.3242,-612.3285 551.3242,-603.5189 551.3242,-594.5101"/>
<polygon fill="#000000" stroke="#000000" points="554.8243,-594.3235 551.3242,-584.3236 547.8243,-594.3236 554.8243,-594.3235"/>
</g>
<!-- measureSets__measSetRepID_measSetRepID__measures_join_Has_Rows -->
<g id="node3" class="node">
<title>measureSets__measSetRepID_measSetRepID__measures_join_Has_Rows</title>
<ellipse fill="none" stroke="#000000" cx="497.3242" cy="-447.4214" rx="47.4704" ry="18"/>
<text text-anchor="middle" x="497.3242" y="-443.2214" font-family="Times,serif" font-size="14.00" fill="#000000">Has rows</text>
</g>
<!-- measureSets__measSetRepID_measSetRepID__measures_join&#45;&gt;measureSets__measSetRepID_measSetRepID__measures_join_Has_Rows -->
<g id="edge2" class="edge">
<title>measureSets__measSetRepID_measSetRepID__measures_join&#45;&gt;measureSets__measSetRepID_measSetRepID__measures_join_Has_Rows</title>
<path fill="none" stroke="#000000" d="M528.4234,-502.3027C523.0192,-492.7659 517.3908,-482.8332 512.4313,-474.0812"/>
<polygon fill="#000000" stroke="#000000" points="515.3299,-472.097 507.3547,-465.1223 509.2397,-475.5481 515.3299,-472.097"/>
</g>
<!-- measureSets__measSetRepID_measSetRepID__measures_join_No_Rows -->
<g id="node18" class="node">
<title>measureSets__measSetRepID_measSetRepID__measures_join_No_Rows</title>
<ellipse fill="none" stroke="#000000" cx="661.3242" cy="-447.4214" rx="44.0415" ry="18"/>
<text text-anchor="middle" x="661.3242" y="-443.2214" font-family="Times,serif" font-size="14.00" fill="#000000">No rows</text>
</g>
<!-- measureSets__measSetRepID_measSetRepID__measures_join&#45;&gt;measureSets__measSetRepID_measSetRepID__measures_join_No_Rows -->
<g id="edge21" class="edge">
<title>measureSets__measSetRepID_measSetRepID__measures_join&#45;&gt;measureSets__measSetRepID_measSetRepID__measures_join_No_Rows</title>
<path fill="none" stroke="#000000" d="M594.4834,-505.3268C607.981,-493.6336 622.4773,-481.0752 634.5082,-470.6526"/>
<polygon fill="#000000" stroke="#000000" points="637.1344,-473.0082 642.4009,-463.815 632.5509,-467.7175 637.1344,-473.0082"/>
</g>
<!-- measures__siteID_siteID__sites_join -->
<g id="node4" class="node">
<title>measures__siteID_siteID__sites_join</title>
<ellipse fill="none" stroke="#000000" cx="246.3242" cy="-352.1263" rx="78.8882" ry="41.0911"/>
<text text-anchor="middle" x="246.3242" y="-364.7263" font-family="Times,serif" font-size="14.00" fill="#000000">LEFT JOIN sites</text>
<text text-anchor="middle" x="246.3242" y="-347.9263" font-family="Times,serif" font-size="14.00" fill="#000000">At level: 1</text>
<text text-anchor="middle" x="246.3242" y="-331.1263" font-family="Times,serif" font-size="14.00" fill="#000000">Required: true</text>
</g>
<!-- measureSets__measSetRepID_measSetRepID__measures_join_Has_Rows&#45;&gt;measures__siteID_siteID__sites_join -->
<g id="edge3" class="edge">
<title>measureSets__measSetRepID_measSetRepID__measures_join_Has_Rows&#45;&gt;measures__siteID_siteID__sites_join</title>
<path fill="none" stroke="#000000" d="M463.7337,-434.6683C427.1787,-420.7898 367.5944,-398.1679 320.0397,-380.1132"/>
<polygon fill="#000000" stroke="#000000" points="320.9851,-376.7284 310.3939,-376.4511 318.5004,-383.2727 320.9851,-376.7284"/>
</g>
<!-- measures__dataID_dataID__datasets_join -->
<g id="node12" class="node">
<title>measures__dataID_dataID__datasets_join</title>
<ellipse fill="none" stroke="#000000" cx="497.3242" cy="-352.1263" rx="92.8656" ry="41.0911"/>
<text text-anchor="middle" x="497.3242" y="-364.7263" font-family="Times,serif" font-size="14.00" fill="#000000">LEFT JOIN datasets</text>
<text text-anchor="middle" x="497.3242" y="-347.9263" font-family="Times,serif" font-size="14.00" fill="#000000">At level: 1</text>
<text text-anchor="middle" x="497.3242" y="-331.1263" font-family="Times,serif" font-size="14.00" fill="#000000">Required: true</text>
</g>
<!-- measureSets__measSetRepID_measSetRepID__measures_join_Has_Rows&#45;&gt;measures__dataID_dataID__datasets_join -->
<g id="edge12" class="edge">
<title>measureSets__measSetRepID_measSetRepID__measures_join_Has_Rows&#45;&gt;measures__dataID_dataID__datasets_join</title>
<path fill="none" stroke="#000000" d="M497.3242,-429.0475C497.3242,-421.7384 497.3242,-412.9288 497.3242,-403.92"/>
<polygon fill="#000000" stroke="#000000" points="500.8243,-403.7335 497.3242,-393.7335 493.8243,-403.7335 500.8243,-403.7335"/>
</g>
<!-- measures__siteID_siteID__sites_join_Has_Rows -->
<g id="node5" class="node">
<title>measures__siteID_siteID__sites_join_Has_Rows</title>
<ellipse fill="none" stroke="#000000" cx="132.3242" cy="-256.8313" rx="47.4704" ry="18"/>
<text text-anchor="middle" x="132.3242" y="-252.6313" font-family="Times,serif" font-size="14.00" fill="#000000">Has rows</text>
</g>
<!-- measures__siteID_siteID__sites_join&#45;&gt;measures__siteID_siteID__sites_join_Has_Rows -->
<g id="edge4" class="edge">
<title>measures__siteID_siteID__sites_join&#45;&gt;measures__siteID_siteID__sites_join_Has_Rows</title>
<path fill="none" stroke="#000000" d="M204.1987,-316.9127C189.3867,-304.531 173.1338,-290.9448 159.8359,-279.8289"/>
<polygon fill="#000000" stroke="#000000" points="161.8945,-276.9879 151.9773,-273.2597 157.405,-282.3586 161.8945,-276.9879"/>
</g>
<!-- measures__siteID_siteID__sites_join_No_Rows -->
<g id="node11" class="node">
<title>measures__siteID_siteID__sites_join_No_Rows</title>
<ellipse fill="none" stroke="#000000" cx="246.3242" cy="-173.4156" rx="44.0415" ry="18"/>
<text text-anchor="middle" x="246.3242" y="-169.2156" font-family="Times,serif" font-size="14.00" fill="#000000">No rows</text>
</g>
<!-- measures__siteID_siteID__sites_join&#45;&gt;measures__siteID_siteID__sites_join_No_Rows -->
<g id="edge10" class="edge">
<title>measures__siteID_siteID__sites_join&#45;&gt;measures__siteID_siteID__sites_join_No_Rows</title>
<path fill="none" stroke="#000000" d="M246.3242,-310.6773C246.3242,-277.3966 246.3242,-231.5276 246.3242,-202.1677"/>
<polygon fill="#000000" stroke="#000000" points="249.8243,-201.7842 246.3242,-191.7843 242.8243,-201.7843 249.8243,-201.7842"/>
</g>
<!-- measures__siteID_siteID__sites_where -->
<g id="node6" class="node">
<title>measures__siteID_siteID__sites_where</title>
<ellipse fill="none" stroke="#000000" cx="92.3242" cy="-173.4156" rx="92.1488" ry="29.3315"/>
<text text-anchor="middle" x="92.3242" y="-177.6156" font-family="Times,serif" font-size="14.00" fill="#000000">WHERE</text>
<text text-anchor="middle" x="92.3242" y="-160.8156" font-family="Times,serif" font-size="14.00" fill="#000000">sites.siteID = &quot;HNJ&quot;</text>
</g>
<!-- measures__siteID_siteID__sites_join_Has_Rows&#45;&gt;measures__siteID_siteID__sites_where -->
<g id="edge5" class="edge">
<title>measures__siteID_siteID__sites_join_Has_Rows&#45;&gt;measures__siteID_siteID__sites_where</title>
<path fill="none" stroke="#000000" d="M123.6448,-238.7313C119.8536,-230.8251 115.2531,-221.2313 110.7587,-211.8588"/>
<polygon fill="#000000" stroke="#000000" points="113.8134,-210.1342 106.3336,-202.6307 107.5016,-213.1609 113.8134,-210.1342"/>
</g>
<!-- measures__siteID_siteID__sites_where_Has_Rows -->
<g id="node7" class="node">
<title>measures__siteID_siteID__sites_where_Has_Rows</title>
<ellipse fill="none" stroke="#000000" cx="93.3242" cy="-90" rx="47.4704" ry="18"/>
<text text-anchor="middle" x="93.3242" y="-85.8" font-family="Times,serif" font-size="14.00" fill="#000000">Has rows</text>
</g>
<!-- measures__siteID_siteID__sites_where&#45;&gt;measures__siteID_siteID__sites_where_Has_Rows -->
<g id="edge6" class="edge">
<title>measures__siteID_siteID__sites_where&#45;&gt;measures__siteID_siteID__sites_where_Has_Rows</title>
<path fill="none" stroke="#000000" d="M92.6796,-143.7715C92.778,-135.5664 92.8845,-126.6796 92.9821,-118.5388"/>
<polygon fill="#000000" stroke="#000000" points="96.4836,-118.4278 93.1038,-108.3866 89.4841,-118.3439 96.4836,-118.4278"/>
</g>
<!-- measures__siteID_siteID__sites_where_No_Rows -->
<g id="node9" class="node">
<title>measures__siteID_siteID__sites_where_No_Rows</title>
<ellipse fill="none" stroke="#000000" cx="204.3242" cy="-90" rx="44.0415" ry="18"/>
<text text-anchor="middle" x="204.3242" y="-85.8" font-family="Times,serif" font-size="14.00" fill="#000000">No rows</text>
</g>
<!-- measures__siteID_siteID__sites_where&#45;&gt;measures__siteID_siteID__sites_where_No_Rows -->
<g id="edge8" class="edge">
<title>measures__siteID_siteID__sites_where&#45;&gt;measures__siteID_siteID__sites_where_No_Rows</title>
<path fill="none" stroke="#000000" d="M128.6874,-146.333C143.4981,-135.3022 160.407,-122.7088 174.476,-112.2304"/>
<polygon fill="#000000" stroke="#000000" points="176.8954,-114.7927 182.8248,-106.0124 172.7141,-109.1786 176.8954,-114.7927"/>
</g>
<!-- granted -->
<g id="node8" class="node">
<title>granted</title>
<ellipse fill="none" stroke="#000000" cx="198.3242" cy="-18" rx="71.7874" ry="18"/>
<text text-anchor="middle" x="198.3242" y="-13.8" font-family="Times,serif" font-size="14.00" fill="#000000">Access Granted</text>
</g>
<!-- measures__siteID_siteID__sites_where_Has_Rows&#45;&gt;granted -->
<g id="edge7" class="edge">
<title>measures__siteID_siteID__sites_where_Has_Rows&#45;&gt;granted</title>
<path fill="none" stroke="#000000" d="M116.3669,-74.1993C130.6289,-64.4197 149.179,-51.6996 165.0234,-40.8349"/>
<polygon fill="#000000" stroke="#000000" points="167.2351,-43.5621 173.5031,-35.0202 163.2764,-37.789 167.2351,-43.5621"/>
</g>
<!-- denied -->
<g id="node10" class="node">
<title>denied</title>
<ellipse fill="none" stroke="#000000" cx="461.3242" cy="-18" rx="68.8581" ry="18"/>
<text text-anchor="middle" x="461.3242" y="-13.8" font-family="Times,serif" font-size="14.00" fill="#000000">Access Denied</text>
</g>
<!-- measures__siteID_siteID__sites_where_No_Rows&#45;&gt;denied -->
<g id="edge9" class="edge">
<title>measures__siteID_siteID__sites_where_No_Rows&#45;&gt;denied</title>
<path fill="none" stroke="#000000" d="M238.2136,-78.3483C244.8581,-76.1645 251.792,-73.9555 258.3242,-72 306.0921,-57.7002 360.7413,-43.2716 401.2955,-32.9308"/>
<polygon fill="#000000" stroke="#000000" points="402.1971,-36.313 411.0276,-30.4587 400.4737,-29.5285 402.1971,-36.313"/>
</g>
<!-- measures__siteID_siteID__sites_join_No_Rows&#45;&gt;denied -->
<g id="edge11" class="edge">
<title>measures__siteID_siteID__sites_join_No_Rows&#45;&gt;denied</title>
<path fill="none" stroke="#000000" d="M272.3672,-158.7077C280.9184,-153.9464 290.4937,-148.6872 299.3242,-144 330.575,-127.4125 341.6234,-128.6885 370.3242,-108 377.6752,-102.7012 412.607,-67.6123 436.9855,-42.8497"/>
<polygon fill="#000000" stroke="#000000" points="439.656,-45.1258 444.1702,-35.5407 434.664,-40.2186 439.656,-45.1258"/>
</g>
<!-- measures__dataID_dataID__datasets_join_Has_Rows -->
<g id="node13" class="node">
<title>measures__dataID_dataID__datasets_join_Has_Rows</title>
<ellipse fill="none" stroke="#000000" cx="470.3242" cy="-256.8313" rx="47.4704" ry="18"/>
<text text-anchor="middle" x="470.3242" y="-252.6313" font-family="Times,serif" font-size="14.00" fill="#000000">Has rows</text>
</g>
<!-- measures__dataID_dataID__datasets_join&#45;&gt;measures__dataID_dataID__datasets_join_Has_Rows -->
<g id="edge13" class="edge">
<title>measures__dataID_dataID__datasets_join&#45;&gt;measures__dataID_dataID__datasets_join_Has_Rows</title>
<path fill="none" stroke="#000000" d="M485.6387,-310.8828C483.1535,-302.1114 480.5847,-293.0451 478.2776,-284.9022"/>
<polygon fill="#000000" stroke="#000000" points="481.6146,-283.8405 475.5211,-275.1734 474.8798,-285.7488 481.6146,-283.8405"/>
</g>
<!-- measures__dataID_dataID__datasets_join_No_Rows -->
<g id="node17" class="node">
<title>measures__dataID_dataID__datasets_join_No_Rows</title>
<ellipse fill="none" stroke="#000000" cx="589.3242" cy="-256.8313" rx="44.0415" ry="18"/>
<text text-anchor="middle" x="589.3242" y="-252.6313" font-family="Times,serif" font-size="14.00" fill="#000000">No rows</text>
</g>
<!-- measures__dataID_dataID__datasets_join&#45;&gt;measures__dataID_dataID__datasets_join_No_Rows -->
<g id="edge19" class="edge">
<title>measures__dataID_dataID__datasets_join&#45;&gt;measures__dataID_dataID__datasets_join_No_Rows</title>
<path fill="none" stroke="#000000" d="M533.9494,-314.1894C544.7307,-303.022 556.2295,-291.1113 565.9389,-281.0542"/>
<polygon fill="#000000" stroke="#000000" points="568.5458,-283.3931 572.9734,-273.7677 563.5097,-278.5312 568.5458,-283.3931"/>
</g>
<!-- measures__dataID_dataID__datasets_where -->
<g id="node14" class="node">
<title>measures__dataID_dataID__datasets_where</title>
<ellipse fill="none" stroke="#000000" cx="461.3242" cy="-173.4156" rx="153.1956" ry="29.3315"/>
<text text-anchor="middle" x="461.3242" y="-177.6156" font-family="Times,serif" font-size="14.00" fill="#000000">WHERE</text>
<text text-anchor="middle" x="461.3242" y="-160.8156" font-family="Times,serif" font-size="14.00" fill="#000000">datasets.dataID = &quot;NML&#45;WWPCR&quot;</text>
</g>
<!-- measures__dataID_dataID__datasets_join_Has_Rows&#45;&gt;measures__dataID_dataID__datasets_where -->
<g id="edge14" class="edge">
<title>measures__dataID_dataID__datasets_join_Has_Rows&#45;&gt;measures__dataID_dataID__datasets_where</title>
<path fill="none" stroke="#000000" d="M468.3714,-238.7313C467.5525,-231.1418 466.5659,-221.9972 465.5936,-212.986"/>
<polygon fill="#000000" stroke="#000000" points="469.0644,-212.5256 464.5118,-202.9588 462.1047,-213.2766 469.0644,-212.5256"/>
</g>
<!-- measures__dataID_dataID__datasets_where_Has_Rows -->
<g id="node15" class="node">
<title>measures__dataID_dataID__datasets_where_Has_Rows</title>
<ellipse fill="none" stroke="#000000" cx="314.3242" cy="-90" rx="47.4704" ry="18"/>
<text text-anchor="middle" x="314.3242" y="-85.8" font-family="Times,serif" font-size="14.00" fill="#000000">Has rows</text>
</g>
<!-- measures__dataID_dataID__datasets_where&#45;&gt;measures__dataID_dataID__datasets_where_Has_Rows -->
<g id="edge15" class="edge">
<title>measures__dataID_dataID__datasets_where&#45;&gt;measures__dataID_dataID__datasets_where_Has_Rows</title>
<path fill="none" stroke="#000000" d="M411.9664,-145.4074C391.4662,-133.7745 368.1473,-120.5421 349.4399,-109.9265"/>
<polygon fill="#000000" stroke="#000000" points="351.0839,-106.8352 340.6592,-104.9439 347.6292,-112.9233 351.0839,-106.8352"/>
</g>
<!-- measures__dataID_dataID__datasets_where_No_Rows -->
<g id="node16" class="node">
<title>measures__dataID_dataID__datasets_where_No_Rows</title>
<ellipse fill="none" stroke="#000000" cx="461.3242" cy="-90" rx="44.0415" ry="18"/>
<text text-anchor="middle" x="461.3242" y="-85.8" font-family="Times,serif" font-size="14.00" fill="#000000">No rows</text>
</g>
<!-- measures__dataID_dataID__datasets_where&#45;&gt;measures__dataID_dataID__datasets_where_No_Rows -->
<g id="edge17" class="edge">
<title>measures__dataID_dataID__datasets_where&#45;&gt;measures__dataID_dataID__datasets_where_No_Rows</title>
<path fill="none" stroke="#000000" d="M461.3242,-143.7715C461.3242,-135.5664 461.3242,-126.6796 461.3242,-118.5388"/>
<polygon fill="#000000" stroke="#000000" points="464.8243,-118.3865 461.3242,-108.3866 457.8243,-118.3866 464.8243,-118.3865"/>
</g>
<!-- measures__dataID_dataID__datasets_where_Has_Rows&#45;&gt;granted -->
<g id="edge16" class="edge">
<title>measures__dataID_dataID__datasets_where_Has_Rows&#45;&gt;granted</title>
<path fill="none" stroke="#000000" d="M289.4393,-74.5542C273.3061,-64.5405 252.0322,-51.336 234.0985,-40.2047"/>
<polygon fill="#000000" stroke="#000000" points="235.9423,-37.2298 225.6001,-34.9298 232.2507,-43.1773 235.9423,-37.2298"/>
</g>
<!-- measures__dataID_dataID__datasets_where_No_Rows&#45;&gt;denied -->
<g id="edge18" class="edge">
<title>measures__dataID_dataID__datasets_where_No_Rows&#45;&gt;denied</title>
<path fill="none" stroke="#000000" d="M461.3242,-71.8314C461.3242,-64.131 461.3242,-54.9743 461.3242,-46.4166"/>
<polygon fill="#000000" stroke="#000000" points="464.8243,-46.4132 461.3242,-36.4133 457.8243,-46.4133 464.8243,-46.4132"/>
</g>
<!-- measures__dataID_dataID__datasets_join_No_Rows&#45;&gt;denied -->
<g id="edge20" class="edge">
<title>measures__dataID_dataID__datasets_join_No_Rows&#45;&gt;denied</title>
<path fill="none" stroke="#000000" d="M603.7283,-239.574C611.1568,-229.5338 619.4537,-216.2429 623.3242,-202.8313 630.5743,-177.7093 634.8121,-167.4885 623.3242,-144 599.0494,-94.3666 544.7425,-58.6313 505.6933,-38.1682"/>
<polygon fill="#000000" stroke="#000000" points="507.1179,-34.9659 496.6192,-33.5418 503.9384,-41.2022 507.1179,-34.9659"/>
</g>
<!-- measureSets__measSetRepID_measSetRepID__measures_join_No_Rows&#45;&gt;denied -->
<g id="edge22" class="edge">
<title>measureSets__measSetRepID_measSetRepID__measures_join_No_Rows&#45;&gt;denied</title>
<path fill="none" stroke="#000000" d="M664.3349,-429.3488C669.6923,-395.5686 680.3242,-320.51 680.3242,-256.8313 680.3242,-256.8313 680.3242,-256.8313 680.3242,-173.4156 680.3242,-95.4785 586.9402,-53.0565 522.1319,-33.0001"/>
<polygon fill="#000000" stroke="#000000" points="522.9773,-29.5998 512.3936,-30.0864 520.9707,-36.306 522.9773,-29.5998"/>
</g>
</g>
</svg>
