<?xml version="1.0" encoding="UTF-8" standalone="no"?>
<!DOCTYPE svg PUBLIC "-//W3C//DTD SVG 1.1//EN"
 "http://www.w3.org/Graphics/SVG/1.1/DTD/svg11.dtd">
<!-- Generated by graphviz version 2.40.1 (20161225.0304)
 -->
<!-- Title: G Pages: 1 -->
<svg width="1179pt" height="1403pt"
 viewBox="0.00 0.00 1179.02 1402.61" xmlns="http://www.w3.org/2000/svg" xmlns:xlink="http://www.w3.org/1999/xlink">
<g id="graph0" class="graph" transform="scale(1 1) rotate(0) translate(4 1398.6129)">
<title>G</title>
<polygon fill="#ffffff" stroke="transparent" points="-4,4 -4,-1398.6129 1175.0208,-1398.6129 1175.0208,4 -4,4"/>
<!-- methodSteps -->
<g id="node1" class="node">
<title>methodSteps</title>
<ellipse fill="none" stroke="#000000" cx="294.0208" cy="-1376.6129" rx="60.8544" ry="18"/>
<text text-anchor="middle" x="294.0208" y="-1372.4129" font-family="Times,serif" font-size="14.00" fill="#000000">methodSteps</text>
</g>
<!-- methodSteps__orgID_orgID__organizations_join -->
<g id="node2" class="node">
<title>methodSteps__orgID_orgID__organizations_join</title>
<ellipse fill="none" stroke="#000000" cx="294.0208" cy="-1281.3179" rx="114.8569" ry="41.0911"/>
<text text-anchor="middle" x="294.0208" y="-1293.9179" font-family="Times,serif" font-size="14.00" fill="#000000">LEFT JOIN organizations</text>
<text text-anchor="middle" x="294.0208" y="-1277.1179" font-family="Times,serif" font-size="14.00" fill="#000000">At level: 5</text>
<text text-anchor="middle" x="294.0208" y="-1260.3179" font-family="Times,serif" font-size="14.00" fill="#000000">Required: true</text>
</g>
<!-- methodSteps&#45;&gt;methodSteps__orgID_orgID__organizations_join -->
<g id="edge1" class="edge">
<title>methodSteps&#45;&gt;methodSteps__orgID_orgID__organizations_join</title>
<path fill="none" stroke="#000000" d="M294.0208,-1358.2391C294.0208,-1350.93 294.0208,-1342.1204 294.0208,-1333.1116"/>
<polygon fill="#000000" stroke="#000000" points="297.5209,-1332.925 294.0208,-1322.9251 290.5209,-1332.9251 297.5209,-1332.925"/>
</g>
<!-- methodSteps__orgID_orgID__organizations_join_Has_Rows -->
<g id="node3" class="node">
<title>methodSteps__orgID_orgID__organizations_join_Has_Rows</title>
<ellipse fill="none" stroke="#000000" cx="257.0208" cy="-1186.0229" rx="47.4704" ry="18"/>
<text text-anchor="middle" x="257.0208" y="-1181.8229" font-family="Times,serif" font-size="14.00" fill="#000000">Has rows</text>
</g>
<!-- methodSteps__orgID_orgID__organizations_join&#45;&gt;methodSteps__orgID_orgID__organizations_join_Has_Rows -->
<g id="edge2" class="edge">
<title>methodSteps__orgID_orgID__organizations_join&#45;&gt;methodSteps__orgID_orgID__organizations_join_Has_Rows</title>
<path fill="none" stroke="#000000" d="M278.1147,-1240.3512C274.5671,-1231.2142 270.8897,-1221.7428 267.6183,-1213.3171"/>
<polygon fill="#000000" stroke="#000000" points="270.8787,-1212.0443 263.9965,-1203.9891 264.3533,-1214.5779 270.8787,-1212.0443"/>
</g>
<!-- methodSteps__orgID_orgID__organizations_join_No_Rows -->
<g id="node30" class="node">
<title>methodSteps__orgID_orgID__organizations_join_No_Rows</title>
<ellipse fill="none" stroke="#000000" cx="606.0208" cy="-1090.7278" rx="44.0415" ry="18"/>
<text text-anchor="middle" x="606.0208" y="-1086.5278" font-family="Times,serif" font-size="14.00" fill="#000000">No rows</text>
</g>
<!-- methodSteps__orgID_orgID__organizations_join&#45;&gt;methodSteps__orgID_orgID__organizations_join_No_Rows -->
<g id="edge37" class="edge">
<title>methodSteps__orgID_orgID__organizations_join&#45;&gt;methodSteps__orgID_orgID__organizations_join_No_Rows</title>
<path fill="none" stroke="#000000" d="M352.3396,-1245.6929C417.3642,-1205.9717 520.2763,-1143.1062 572.7987,-1111.0221"/>
<polygon fill="#000000" stroke="#000000" points="574.6819,-1113.9731 581.3911,-1105.7732 571.0328,-1107.9995 574.6819,-1113.9731"/>
</g>
<!-- organizations__addID_addID__addresses_join -->
<g id="node4" class="node">
<title>organizations__addID_addID__addresses_join</title>
<ellipse fill="none" stroke="#000000" cx="214.0208" cy="-1090.7278" rx="99.0518" ry="41.0911"/>
<text text-anchor="middle" x="214.0208" y="-1103.3278" font-family="Times,serif" font-size="14.00" fill="#000000">LEFT JOIN addresses</text>
<text text-anchor="middle" x="214.0208" y="-1086.5278" font-family="Times,serif" font-size="14.00" fill="#000000">At level: 4</text>
<text text-anchor="middle" x="214.0208" y="-1069.7278" font-family="Times,serif" font-size="14.00" fill="#000000">Required: false</text>
</g>
<!-- methodSteps__orgID_orgID__organizations_join_Has_Rows&#45;&gt;organizations__addID_addID__addresses_join -->
<g id="edge3" class="edge">
<title>methodSteps__orgID_orgID__organizations_join_Has_Rows&#45;&gt;organizations__addID_addID__addresses_join</title>
<path fill="none" stroke="#000000" d="M248.9328,-1168.0986C245.393,-1160.2539 241.0457,-1150.6195 236.6357,-1140.8461"/>
<polygon fill="#000000" stroke="#000000" points="239.7158,-1139.1625 232.4126,-1131.487 233.3353,-1142.0416 239.7158,-1139.1625"/>
</g>
<!-- organizations__addID_addID__addresses_join_Has_Rows -->
<g id="node5" class="node">
<title>organizations__addID_addID__addresses_join_Has_Rows</title>
<ellipse fill="none" stroke="#000000" cx="214.0208" cy="-995.4328" rx="47.4704" ry="18"/>
<text text-anchor="middle" x="214.0208" y="-991.2328" font-family="Times,serif" font-size="14.00" fill="#000000">Has rows</text>
</g>
<!-- organizations__addID_addID__addresses_join&#45;&gt;organizations__addID_addID__addresses_join_Has_Rows -->
<g id="edge4" class="edge">
<title>organizations__addID_addID__addresses_join&#45;&gt;organizations__addID_addID__addresses_join_Has_Rows</title>
<path fill="none" stroke="#000000" d="M214.0208,-1049.2072C214.0208,-1040.6556 214.0208,-1031.8362 214.0208,-1023.8757"/>
<polygon fill="#000000" stroke="#000000" points="217.5209,-1023.6587 214.0208,-1013.6587 210.5209,-1023.6587 217.5209,-1023.6587"/>
</g>
<!-- organizations__addID_addID__addresses_join_No_Rows -->
<g id="node29" class="node">
<title>organizations__addID_addID__addresses_join_No_Rows</title>
<ellipse fill="none" stroke="#000000" cx="44.0208" cy="-900.1377" rx="44.0415" ry="18"/>
<text text-anchor="middle" x="44.0208" y="-895.9377" font-family="Times,serif" font-size="14.00" fill="#000000">No rows</text>
</g>
<!-- organizations__addID_addID__addresses_join&#45;&gt;organizations__addID_addID__addresses_join_No_Rows -->
<g id="edge35" class="edge">
<title>organizations__addID_addID__addresses_join&#45;&gt;organizations__addID_addID__addresses_join_No_Rows</title>
<path fill="none" stroke="#000000" d="M179.2085,-1051.6992C145.3582,-1013.749 94.9634,-957.2505 66.2247,-925.031"/>
<polygon fill="#000000" stroke="#000000" points="68.6766,-922.5217 59.4081,-917.3888 63.4527,-927.1813 68.6766,-922.5217"/>
</g>
<!-- addresses__addID_addID__sites_join -->
<g id="node6" class="node">
<title>addresses__addID_addID__sites_join</title>
<ellipse fill="none" stroke="#000000" cx="214.0208" cy="-900.1377" rx="78.8882" ry="41.0911"/>
<text text-anchor="middle" x="214.0208" y="-912.7377" font-family="Times,serif" font-size="14.00" fill="#000000">LEFT JOIN sites</text>
<text text-anchor="middle" x="214.0208" y="-895.9377" font-family="Times,serif" font-size="14.00" fill="#000000">At level: 3</text>
<text text-anchor="middle" x="214.0208" y="-879.1377" font-family="Times,serif" font-size="14.00" fill="#000000">Required: false</text>
</g>
<!-- organizations__addID_addID__addresses_join_Has_Rows&#45;&gt;addresses__addID_addID__sites_join -->
<g id="edge5" class="edge">
<title>organizations__addID_addID__addresses_join_Has_Rows&#45;&gt;addresses__addID_addID__sites_join</title>
<path fill="none" stroke="#000000" d="M214.0208,-977.0589C214.0208,-969.7498 214.0208,-960.9402 214.0208,-951.9314"/>
<polygon fill="#000000" stroke="#000000" points="217.5209,-951.7449 214.0208,-941.7449 210.5209,-951.745 217.5209,-951.7449"/>
</g>
<!-- addresses__addID_addID__sites_join_Has_Rows -->
<g id="node7" class="node">
<title>addresses__addID_addID__sites_join_Has_Rows</title>
<ellipse fill="none" stroke="#000000" cx="272.0208" cy="-804.8427" rx="47.4704" ry="18"/>
<text text-anchor="middle" x="272.0208" y="-800.6427" font-family="Times,serif" font-size="14.00" fill="#000000">Has rows</text>
</g>
<!-- addresses__addID_addID__sites_join&#45;&gt;addresses__addID_addID__sites_join_Has_Rows -->
<g id="edge6" class="edge">
<title>addresses__addID_addID__sites_join&#45;&gt;addresses__addID_addID__sites_join_Has_Rows</title>
<path fill="none" stroke="#000000" d="M238.1141,-860.552C244.1833,-850.5802 250.5477,-840.1233 256.1022,-830.9972"/>
<polygon fill="#000000" stroke="#000000" points="259.1364,-832.7439 261.3457,-822.382 253.1568,-829.1045 259.1364,-832.7439"/>
</g>
<!-- addresses__addID_addID__sites_join_No_Rows -->
<g id="node28" class="node">
<title>addresses__addID_addID__sites_join_No_Rows</title>
<ellipse fill="none" stroke="#000000" cx="104.0208" cy="-721.4271" rx="44.0415" ry="18"/>
<text text-anchor="middle" x="104.0208" y="-717.2271" font-family="Times,serif" font-size="14.00" fill="#000000">No rows</text>
</g>
<!-- addresses__addID_addID__sites_join&#45;&gt;addresses__addID_addID__sites_join_No_Rows -->
<g id="edge33" class="edge">
<title>addresses__addID_addID__sites_join&#45;&gt;addresses__addID_addID__sites_join_No_Rows</title>
<path fill="none" stroke="#000000" d="M189.6082,-860.4761C168.4994,-826.1818 138.5768,-777.5683 120.2785,-747.84"/>
<polygon fill="#000000" stroke="#000000" points="123.218,-745.9385 114.9955,-739.2571 117.2567,-749.6078 123.218,-745.9385"/>
</g>
<!-- addresses__addID_addID__sites_where -->
<g id="node8" class="node">
<title>addresses__addID_addID__sites_where</title>
<ellipse fill="none" stroke="#000000" cx="365.0208" cy="-721.4271" rx="182.7015" ry="29.3315"/>
<text text-anchor="middle" x="365.0208" y="-725.6271" font-family="Times,serif" font-size="14.00" fill="#000000">WHERE IN</text>
<text text-anchor="middle" x="365.0208" y="-708.8271" font-family="Times,serif" font-size="14.00" fill="#000000">sites.healthReg = [&quot;Yukon&quot;,&quot;Yukon&#45;HNJ&quot;]</text>
</g>
<!-- addresses__addID_addID__sites_join_Has_Rows&#45;&gt;addresses__addID_addID__sites_where -->
<g id="edge7" class="edge">
<title>addresses__addID_addID__sites_join_Has_Rows&#45;&gt;addresses__addID_addID__sites_where</title>
<path fill="none" stroke="#000000" d="M290.8407,-787.9623C300.6805,-779.1366 313.1202,-767.9789 324.987,-757.3351"/>
<polygon fill="#000000" stroke="#000000" points="327.562,-759.7271 332.6693,-750.4445 322.888,-754.5161 327.562,-759.7271"/>
</g>
<!-- addresses__addID_addID__sites_where_Has_Rows -->
<g id="node9" class="node">
<title>addresses__addID_addID__sites_where_Has_Rows</title>
<ellipse fill="none" stroke="#000000" cx="365.0208" cy="-638.0114" rx="47.4704" ry="18"/>
<text text-anchor="middle" x="365.0208" y="-633.8114" font-family="Times,serif" font-size="14.00" fill="#000000">Has rows</text>
</g>
<!-- addresses__addID_addID__sites_where&#45;&gt;addresses__addID_addID__sites_where_Has_Rows -->
<g id="edge8" class="edge">
<title>addresses__addID_addID__sites_where&#45;&gt;addresses__addID_addID__sites_where_Has_Rows</title>
<path fill="none" stroke="#000000" d="M365.0208,-691.783C365.0208,-683.5778 365.0208,-674.691 365.0208,-666.5502"/>
<polygon fill="#000000" stroke="#000000" points="368.5209,-666.398 365.0208,-656.398 361.5209,-666.398 368.5209,-666.398"/>
</g>
<!-- addresses__addID_addID__sites_where_No_Rows -->
<g id="node27" class="node">
<title>addresses__addID_addID__sites_where_No_Rows</title>
<ellipse fill="none" stroke="#000000" cx="810.0208" cy="-542.7164" rx="44.0415" ry="18"/>
<text text-anchor="middle" x="810.0208" y="-538.5164" font-family="Times,serif" font-size="14.00" fill="#000000">No rows</text>
</g>
<!-- addresses__addID_addID__sites_where&#45;&gt;addresses__addID_addID__sites_where_No_Rows -->
<g id="edge31" class="edge">
<title>addresses__addID_addID__sites_where&#45;&gt;addresses__addID_addID__sites_where_No_Rows</title>
<path fill="none" stroke="#000000" d="M433.0911,-694.0902C526.8358,-656.4427 692.7498,-589.8121 769.2729,-559.0806"/>
<polygon fill="#000000" stroke="#000000" points="770.613,-562.3142 778.5883,-555.3396 768.0043,-555.8184 770.613,-562.3142"/>
</g>
<!-- sites__siteID_siteID__samples_join -->
<g id="node10" class="node">
<title>sites__siteID_siteID__samples_join</title>
<ellipse fill="none" stroke="#000000" cx="365.0208" cy="-542.7164" rx="93.4765" ry="41.0911"/>
<text text-anchor="middle" x="365.0208" y="-555.3164" font-family="Times,serif" font-size="14.00" fill="#000000">LEFT JOIN samples</text>
<text text-anchor="middle" x="365.0208" y="-538.5164" font-family="Times,serif" font-size="14.00" fill="#000000">At level: 2</text>
<text text-anchor="middle" x="365.0208" y="-521.7164" font-family="Times,serif" font-size="14.00" fill="#000000">Required: true</text>
</g>
<!-- addresses__addID_addID__sites_where_Has_Rows&#45;&gt;sites__siteID_siteID__samples_join -->
<g id="edge9" class="edge">
<title>addresses__addID_addID__sites_where_Has_Rows&#45;&gt;sites__siteID_siteID__samples_join</title>
<path fill="none" stroke="#000000" d="M365.0208,-619.6376C365.0208,-612.3285 365.0208,-603.5189 365.0208,-594.5101"/>
<polygon fill="#000000" stroke="#000000" points="368.5209,-594.3235 365.0208,-584.3236 361.5209,-594.3236 368.5209,-594.3235"/>
</g>
<!-- sites__siteID_siteID__samples_join_Has_Rows -->
<g id="node11" class="node">
<title>sites__siteID_siteID__samples_join_Has_Rows</title>
<ellipse fill="none" stroke="#000000" cx="397.0208" cy="-447.4214" rx="47.4704" ry="18"/>
<text text-anchor="middle" x="397.0208" y="-443.2214" font-family="Times,serif" font-size="14.00" fill="#000000">Has rows</text>
</g>
<!-- sites__siteID_siteID__samples_join&#45;&gt;sites__siteID_siteID__samples_join_Has_Rows -->
<g id="edge10" class="edge">
<title>sites__siteID_siteID__samples_join&#45;&gt;sites__siteID_siteID__samples_join_Has_Rows</title>
<path fill="none" stroke="#000000" d="M378.7774,-501.7497C381.8122,-492.712 384.9569,-483.3472 387.763,-474.9908"/>
<polygon fill="#000000" stroke="#000000" points="391.1223,-475.9816 390.9877,-465.3876 384.4864,-473.7532 391.1223,-475.9816"/>
</g>
<!-- sites__siteID_siteID__samples_join_No_Rows -->
<g id="node26" class="node">
<title>sites__siteID_siteID__samples_join_No_Rows</title>
<ellipse fill="none" stroke="#000000" cx="207.0208" cy="-447.4214" rx="44.0415" ry="18"/>
<text text-anchor="middle" x="207.0208" y="-443.2214" font-family="Times,serif" font-size="14.00" fill="#000000">No rows</text>
</g>
<!-- sites__siteID_siteID__samples_join&#45;&gt;sites__siteID_siteID__samples_join_No_Rows -->
<g id="edge29" class="edge">
<title>sites__siteID_siteID__samples_join&#45;&gt;sites__siteID_siteID__samples_join_No_Rows</title>
<path fill="none" stroke="#000000" d="M309.76,-509.3868C286.7632,-495.5167 260.8077,-479.862 240.7386,-467.7577"/>
<polygon fill="#000000" stroke="#000000" points="242.3344,-464.6329 231.9637,-462.4653 238.7191,-470.6271 242.3344,-464.6329"/>
</g>
<!-- samples__siteID_siteID__sites_join -->
<g id="node12" class="node">
<title>samples__siteID_siteID__sites_join</title>
<ellipse fill="none" stroke="#000000" cx="397.0208" cy="-352.1263" rx="78.8882" ry="41.0911"/>
<text text-anchor="middle" x="397.0208" y="-364.7263" font-family="Times,serif" font-size="14.00" fill="#000000">LEFT JOIN sites</text>
<text text-anchor="middle" x="397.0208" y="-347.9263" font-family="Times,serif" font-size="14.00" fill="#000000">At level: 1</text>
<text text-anchor="middle" x="397.0208" y="-331.1263" font-family="Times,serif" font-size="14.00" fill="#000000">Required: true</text>
</g>
<!-- sites__siteID_siteID__samples_join_Has_Rows&#45;&gt;samples__siteID_siteID__sites_join -->
<g id="edge11" class="edge">
<title>sites__siteID_siteID__samples_join_Has_Rows&#45;&gt;samples__siteID_siteID__sites_join</title>
<path fill="none" stroke="#000000" d="M397.0208,-429.0475C397.0208,-421.7384 397.0208,-412.9288 397.0208,-403.92"/>
<polygon fill="#000000" stroke="#000000" points="400.5209,-403.7335 397.0208,-393.7335 393.5209,-403.7335 400.5209,-403.7335"/>
</g>
<!-- samples__dataID_dataID__datasets_join -->
<g id="node20" class="node">
<title>samples__dataID_dataID__datasets_join</title>
<ellipse fill="none" stroke="#000000" cx="838.0208" cy="-352.1263" rx="92.8656" ry="41.0911"/>
<text text-anchor="middle" x="838.0208" y="-364.7263" font-family="Times,serif" font-size="14.00" fill="#000000">LEFT JOIN datasets</text>
<text text-anchor="middle" x="838.0208" y="-347.9263" font-family="Times,serif" font-size="14.00" fill="#000000">At level: 1</text>
<text text-anchor="middle" x="838.0208" y="-331.1263" font-family="Times,serif" font-size="14.00" fill="#000000">Required: true</text>
</g>
<!-- sites__siteID_siteID__samples_join_Has_Rows&#45;&gt;samples__dataID_dataID__datasets_join -->
<g id="edge20" class="edge">
<title>sites__siteID_siteID__samples_join_Has_Rows&#45;&gt;samples__dataID_dataID__datasets_join</title>
<path fill="none" stroke="#000000" d="M438.113,-438.5418C507.5025,-423.5475 649.585,-392.8451 744.3363,-372.3704"/>
<polygon fill="#000000" stroke="#000000" points="745.1776,-375.7695 754.2127,-370.2363 743.6991,-368.9274 745.1776,-375.7695"/>
</g>
<!-- samples__siteID_siteID__sites_join_Has_Rows -->
<g id="node13" class="node">
<title>samples__siteID_siteID__sites_join_Has_Rows</title>
<ellipse fill="none" stroke="#000000" cx="344.0208" cy="-256.8313" rx="47.4704" ry="18"/>
<text text-anchor="middle" x="344.0208" y="-252.6313" font-family="Times,serif" font-size="14.00" fill="#000000">Has rows</text>
</g>
<!-- samples__siteID_siteID__sites_join&#45;&gt;samples__siteID_siteID__sites_join_Has_Rows -->
<g id="edge12" class="edge">
<title>samples__siteID_siteID__sites_join&#45;&gt;samples__siteID_siteID__sites_join_Has_Rows</title>
<path fill="none" stroke="#000000" d="M374.8511,-312.2648C369.4616,-302.5743 363.8264,-292.4422 358.8701,-283.5307"/>
<polygon fill="#000000" stroke="#000000" points="361.909,-281.7937 353.9897,-274.7556 355.7915,-285.1961 361.909,-281.7937"/>
</g>
<!-- samples__siteID_siteID__sites_join_No_Rows -->
<g id="node19" class="node">
<title>samples__siteID_siteID__sites_join_No_Rows</title>
<ellipse fill="none" stroke="#000000" cx="547.0208" cy="-173.4156" rx="44.0415" ry="18"/>
<text text-anchor="middle" x="547.0208" y="-169.2156" font-family="Times,serif" font-size="14.00" fill="#000000">No rows</text>
</g>
<!-- samples__siteID_siteID__sites_join&#45;&gt;samples__siteID_siteID__sites_join_No_Rows -->
<g id="edge18" class="edge">
<title>samples__siteID_siteID__sites_join&#45;&gt;samples__siteID_siteID__sites_join_No_Rows</title>
<path fill="none" stroke="#000000" d="M428.8319,-314.2264C458.074,-279.3872 500.6038,-228.7171 525.8744,-198.6096"/>
<polygon fill="#000000" stroke="#000000" points="528.7707,-200.6029 532.5189,-190.6932 523.4091,-196.1026 528.7707,-200.6029"/>
</g>
<!-- samples__siteID_siteID__sites_where -->
<g id="node14" class="node">
<title>samples__siteID_siteID__sites_where</title>
<ellipse fill="none" stroke="#000000" cx="302.0208" cy="-173.4156" rx="182.7015" ry="29.3315"/>
<text text-anchor="middle" x="302.0208" y="-177.6156" font-family="Times,serif" font-size="14.00" fill="#000000">WHERE IN</text>
<text text-anchor="middle" x="302.0208" y="-160.8156" font-family="Times,serif" font-size="14.00" fill="#000000">sites.healthReg = [&quot;Yukon&quot;,&quot;Yukon&#45;HNJ&quot;]</text>
</g>
<!-- samples__siteID_siteID__sites_join_Has_Rows&#45;&gt;samples__siteID_siteID__sites_where -->
<g id="edge13" class="edge">
<title>samples__siteID_siteID__sites_join_Has_Rows&#45;&gt;samples__siteID_siteID__sites_where</title>
<path fill="none" stroke="#000000" d="M335.1136,-239.141C331.0991,-231.1678 326.1902,-221.4183 321.395,-211.8946"/>
<polygon fill="#000000" stroke="#000000" points="324.4886,-210.2559 316.8653,-202.8982 318.2364,-213.404 324.4886,-210.2559"/>
</g>
<!-- samples__siteID_siteID__sites_where_Has_Rows -->
<g id="node15" class="node">
<title>samples__siteID_siteID__sites_where_Has_Rows</title>
<ellipse fill="none" stroke="#000000" cx="240.0208" cy="-90" rx="47.4704" ry="18"/>
<text text-anchor="middle" x="240.0208" y="-85.8" font-family="Times,serif" font-size="14.00" fill="#000000">Has rows</text>
</g>
<!-- samples__siteID_siteID__sites_where&#45;&gt;samples__siteID_siteID__sites_where_Has_Rows -->
<g id="edge14" class="edge">
<title>samples__siteID_siteID__sites_where&#45;&gt;samples__siteID_siteID__sites_where_Has_Rows</title>
<path fill="none" stroke="#000000" d="M279.9873,-143.7715C273.1295,-134.5449 265.6311,-124.4565 259.0007,-115.5359"/>
<polygon fill="#000000" stroke="#000000" points="261.7335,-113.3453 252.959,-107.4073 256.1154,-117.5211 261.7335,-113.3453"/>
</g>
<!-- samples__siteID_siteID__sites_where_No_Rows -->
<g id="node17" class="node">
<title>samples__siteID_siteID__sites_where_No_Rows</title>
<ellipse fill="none" stroke="#000000" cx="470.0208" cy="-90" rx="44.0415" ry="18"/>
<text text-anchor="middle" x="470.0208" y="-85.8" font-family="Times,serif" font-size="14.00" fill="#000000">No rows</text>
</g>
<!-- samples__siteID_siteID__sites_where&#45;&gt;samples__siteID_siteID__sites_where_No_Rows -->
<g id="edge16" class="edge">
<title>samples__siteID_siteID__sites_where&#45;&gt;samples__siteID_siteID__sites_where_No_Rows</title>
<path fill="none" stroke="#000000" d="M358.4297,-145.4074C382.8423,-133.286 410.7525,-119.428 432.5533,-108.6034"/>
<polygon fill="#000000" stroke="#000000" points="434.3991,-111.5947 441.7992,-104.0126 431.286,-105.325 434.3991,-111.5947"/>
</g>
<!-- granted -->
<g id="node16" class="node">
<title>granted</title>
<ellipse fill="none" stroke="#000000" cx="116.0208" cy="-18" rx="71.7874" ry="18"/>
<text text-anchor="middle" x="116.0208" y="-13.8" font-family="Times,serif" font-size="14.00" fill="#000000">Access Granted</text>
</g>
<!-- samples__siteID_siteID__sites_where_Has_Rows&#45;&gt;granted -->
<g id="edge15" class="edge">
<title>samples__siteID_siteID__sites_where_Has_Rows&#45;&gt;granted</title>
<path fill="none" stroke="#000000" d="M214.0263,-74.9064C196.4129,-64.6793 172.8667,-51.0073 153.2684,-39.6277"/>
<polygon fill="#000000" stroke="#000000" points="154.9825,-36.5757 144.5771,-34.5811 151.4675,-42.6293 154.9825,-36.5757"/>
</g>
<!-- denied -->
<g id="node18" class="node">
<title>denied</title>
<ellipse fill="none" stroke="#000000" cx="838.0208" cy="-18" rx="68.8581" ry="18"/>
<text text-anchor="middle" x="838.0208" y="-13.8" font-family="Times,serif" font-size="14.00" fill="#000000">Access Denied</text>
</g>
<!-- samples__siteID_siteID__sites_where_No_Rows&#45;&gt;denied -->
<g id="edge17" class="edge">
<title>samples__siteID_siteID__sites_where_No_Rows&#45;&gt;denied</title>
<path fill="none" stroke="#000000" d="M509.8857,-81.9777C525.5153,-78.8453 543.6055,-75.2358 560.0208,-72 632.8296,-57.6479 716.4228,-41.4479 772.7731,-30.5682"/>
<polygon fill="#000000" stroke="#000000" points="773.4648,-33.9994 782.6203,-28.6676 772.1382,-27.1262 773.4648,-33.9994"/>
</g>
<!-- samples__siteID_siteID__sites_join_No_Rows&#45;&gt;denied -->
<g id="edge19" class="edge">
<title>samples__siteID_siteID__sites_join_No_Rows&#45;&gt;denied</title>
<path fill="none" stroke="#000000" d="M555.0692,-155.3767C566.2685,-132.4028 588.7574,-93.1533 620.0208,-72 644.3418,-55.544 715.5122,-39.7585 769.982,-29.5514"/>
<polygon fill="#000000" stroke="#000000" points="770.7453,-32.9697 779.9433,-27.7115 769.4738,-26.0861 770.7453,-32.9697"/>
</g>
<!-- samples__dataID_dataID__datasets_join_Has_Rows -->
<g id="node21" class="node">
<title>samples__dataID_dataID__datasets_join_Has_Rows</title>
<ellipse fill="none" stroke="#000000" cx="838.0208" cy="-256.8313" rx="47.4704" ry="18"/>
<text text-anchor="middle" x="838.0208" y="-252.6313" font-family="Times,serif" font-size="14.00" fill="#000000">Has rows</text>
</g>
<!-- samples__dataID_dataID__datasets_join&#45;&gt;samples__dataID_dataID__datasets_join_Has_Rows -->
<g id="edge21" class="edge">
<title>samples__dataID_dataID__datasets_join&#45;&gt;samples__dataID_dataID__datasets_join_Has_Rows</title>
<path fill="none" stroke="#000000" d="M838.0208,-310.6057C838.0208,-302.0541 838.0208,-293.2347 838.0208,-285.2742"/>
<polygon fill="#000000" stroke="#000000" points="841.5209,-285.0572 838.0208,-275.0572 834.5209,-285.0572 841.5209,-285.0572"/>
</g>
<!-- samples__dataID_dataID__datasets_join_No_Rows -->
<g id="node25" class="node">
<title>samples__dataID_dataID__datasets_join_No_Rows</title>
<ellipse fill="none" stroke="#000000" cx="1004.0208" cy="-256.8313" rx="44.0415" ry="18"/>
<text text-anchor="middle" x="1004.0208" y="-252.6313" font-family="Times,serif" font-size="14.00" fill="#000000">No rows</text>
</g>
<!-- samples__dataID_dataID__datasets_join&#45;&gt;samples__dataID_dataID__datasets_join_No_Rows -->
<g id="edge27" class="edge">
<title>samples__dataID_dataID__datasets_join&#45;&gt;samples__dataID_dataID__datasets_join_No_Rows</title>
<path fill="none" stroke="#000000" d="M895.1486,-319.3312C919.9312,-305.1043 948.1332,-288.9145 969.6235,-276.5776"/>
<polygon fill="#000000" stroke="#000000" points="971.4631,-279.5573 978.3932,-271.5432 967.9781,-273.4865 971.4631,-279.5573"/>
</g>
<!-- samples__dataID_dataID__datasets_where -->
<g id="node22" class="node">
<title>samples__dataID_dataID__datasets_where</title>
<ellipse fill="none" stroke="#000000" cx="838.0208" cy="-173.4156" rx="228.5204" ry="29.3315"/>
<text text-anchor="middle" x="838.0208" y="-177.6156" font-family="Times,serif" font-size="14.00" fill="#000000">WHERE IN</text>
<text text-anchor="middle" x="838.0208" y="-160.8156" font-family="Times,serif" font-size="14.00" fill="#000000">datasets.dataID = [&quot;NML&#45;WWPCR&quot;,&quot;NML&#45;WWGX&quot;]</text>
</g>
<!-- samples__dataID_dataID__datasets_join_Has_Rows&#45;&gt;samples__dataID_dataID__datasets_where -->
<g id="edge22" class="edge">
<title>samples__dataID_dataID__datasets_join_Has_Rows&#45;&gt;samples__dataID_dataID__datasets_where</title>
<path fill="none" stroke="#000000" d="M838.0208,-238.7313C838.0208,-231.1418 838.0208,-221.9972 838.0208,-212.986"/>
<polygon fill="#000000" stroke="#000000" points="841.5209,-212.9587 838.0208,-202.9588 834.5209,-212.9588 841.5209,-212.9587"/>
</g>
<!-- samples__dataID_dataID__datasets_where_Has_Rows -->
<g id="node23" class="node">
<title>samples__dataID_dataID__datasets_where_Has_Rows</title>
<ellipse fill="none" stroke="#000000" cx="676.0208" cy="-90" rx="47.4704" ry="18"/>
<text text-anchor="middle" x="676.0208" y="-85.8" font-family="Times,serif" font-size="14.00" fill="#000000">Has rows</text>
</g>
<!-- samples__dataID_dataID__datasets_where&#45;&gt;samples__dataID_dataID__datasets_where_Has_Rows -->
<g id="edge23" class="edge">
<title>samples__dataID_dataID__datasets_where&#45;&gt;samples__dataID_dataID__datasets_where_Has_Rows</title>
<path fill="none" stroke="#000000" d="M782.2696,-144.7087C759.5699,-133.0204 733.9308,-119.8185 713.5264,-109.3121"/>
<polygon fill="#000000" stroke="#000000" points="715.0421,-106.1558 704.5492,-104.6896 711.8375,-112.3793 715.0421,-106.1558"/>
</g>
<!-- samples__dataID_dataID__datasets_where_No_Rows -->
<g id="node24" class="node">
<title>samples__dataID_dataID__datasets_where_No_Rows</title>
<ellipse fill="none" stroke="#000000" cx="838.0208" cy="-90" rx="44.0415" ry="18"/>
<text text-anchor="middle" x="838.0208" y="-85.8" font-family="Times,serif" font-size="14.00" fill="#000000">No rows</text>
</g>
<!-- samples__dataID_dataID__datasets_where&#45;&gt;samples__dataID_dataID__datasets_where_No_Rows -->
<g id="edge25" class="edge">
<title>samples__dataID_dataID__datasets_where&#45;&gt;samples__dataID_dataID__datasets_where_No_Rows</title>
<path fill="none" stroke="#000000" d="M838.0208,-143.7715C838.0208,-135.5664 838.0208,-126.6796 838.0208,-118.5388"/>
<polygon fill="#000000" stroke="#000000" points="841.5209,-118.3865 838.0208,-108.3866 834.5209,-118.3866 841.5209,-118.3865"/>
</g>
<!-- samples__dataID_dataID__datasets_where_Has_Rows&#45;&gt;granted -->
<g id="edge24" class="edge">
<title>samples__dataID_dataID__datasets_where_Has_Rows&#45;&gt;granted</title>
<path fill="none" stroke="#000000" d="M631.1402,-84.2296C534.9288,-71.8596 308.0098,-42.6843 190.0857,-27.5226"/>
<polygon fill="#000000" stroke="#000000" points="190.4231,-24.0373 180.0584,-26.2334 189.5304,-30.9801 190.4231,-24.0373"/>
</g>
<!-- samples__dataID_dataID__datasets_where_No_Rows&#45;&gt;denied -->
<g id="edge26" class="edge">
<title>samples__dataID_dataID__datasets_where_No_Rows&#45;&gt;denied</title>
<path fill="none" stroke="#000000" d="M838.0208,-71.8314C838.0208,-64.131 838.0208,-54.9743 838.0208,-46.4166"/>
<polygon fill="#000000" stroke="#000000" points="841.5209,-46.4132 838.0208,-36.4133 834.5209,-46.4133 841.5209,-46.4132"/>
</g>
<!-- samples__dataID_dataID__datasets_join_No_Rows&#45;&gt;denied -->
<g id="edge28" class="edge">
<title>samples__dataID_dataID__datasets_join_No_Rows&#45;&gt;denied</title>
<path fill="none" stroke="#000000" d="M1033.3126,-243.2477C1049.0765,-234.2198 1067.0765,-220.7198 1076.0208,-202.8313 1087.7142,-179.4445 1089.5077,-166.4005 1076.0208,-144 1038.4274,-81.5609 958.3647,-48.4432 901.4959,-32.0899"/>
<polygon fill="#000000" stroke="#000000" points="902.0891,-28.6224 891.5175,-29.3229 900.2186,-35.3679 902.0891,-28.6224"/>
</g>
<!-- sites__siteID_siteID__samples_join_No_Rows&#45;&gt;denied -->
<g id="edge30" class="edge">
<title>sites__siteID_siteID__samples_join_No_Rows&#45;&gt;denied</title>
<path fill="none" stroke="#000000" d="M188.3834,-431.1088C155.5929,-400.4946 91.0208,-330.8158 91.0208,-256.8313 91.0208,-256.8313 91.0208,-256.8313 91.0208,-173.4156 91.0208,-137.7978 145.7428,-89.4182 184.0208,-72 235.2943,-48.6683 597.7085,-29.156 759.8917,-21.488"/>
<polygon fill="#000000" stroke="#000000" points="760.4546,-24.9655 770.2794,-21.0001 760.1262,-17.9732 760.4546,-24.9655"/>
</g>
<!-- addresses__addID_addID__sites_where_No_Rows&#45;&gt;denied -->
<g id="edge32" class="edge">
<title>addresses__addID_addID__sites_where_No_Rows&#45;&gt;denied</title>
<path fill="none" stroke="#000000" d="M852.5795,-537.6028C940.288,-524.4449 1133.0208,-480.8829 1133.0208,-352.1263 1133.0208,-352.1263 1133.0208,-352.1263 1133.0208,-173.4156 1133.0208,-74.1601 1000.6861,-38.1431 913.2844,-25.1794"/>
<polygon fill="#000000" stroke="#000000" points="913.516,-21.6775 903.125,-23.7454 912.5376,-28.6088 913.516,-21.6775"/>
</g>
<!-- addresses__addID_addID__sites_join_No_Rows&#45;&gt;granted -->
<g id="edge34" class="edge">
<title>addresses__addID_addID__sites_join_No_Rows&#45;&gt;granted</title>
<path fill="none" stroke="#000000" d="M95.3693,-703.6421C80.8188,-672.0438 53.0208,-603.6969 53.0208,-542.7164 53.0208,-542.7164 53.0208,-542.7164 53.0208,-173.4156 53.0208,-125.395 79.1724,-74.7386 97.7774,-44.7764"/>
<polygon fill="#000000" stroke="#000000" points="100.8419,-46.4805 103.2718,-36.168 94.9413,-42.7144 100.8419,-46.4805"/>
</g>
<!-- organizations__addID_addID__addresses_join_No_Rows&#45;&gt;granted -->
<g id="edge36" class="edge">
<title>organizations__addID_addID__addresses_join_No_Rows&#45;&gt;granted</title>
<path fill="none" stroke="#000000" d="M39.1013,-882.0294C30.8275,-849.9306 15.0208,-780.8336 15.0208,-721.4271 15.0208,-721.4271 15.0208,-721.4271 15.0208,-173.4156 15.0208,-120.2449 57.0975,-70.9655 86.9344,-42.7052"/>
<polygon fill="#000000" stroke="#000000" points="89.6162,-44.9936 94.6013,-35.6448 84.8743,-39.8444 89.6162,-44.9936"/>
</g>
<!-- methodSteps__orgID_orgID__organizations_join_No_Rows&#45;&gt;denied -->
<g id="edge38" class="edge">
<title>methodSteps__orgID_orgID__organizations_join_No_Rows&#45;&gt;denied</title>
<path fill="none" stroke="#000000" d="M648.4876,-1085.7342C779.8848,-1069.1157 1171.0208,-1010.3874 1171.0208,-900.1377 1171.0208,-900.1377 1171.0208,-900.1377 1171.0208,-173.4156 1171.0208,-118.8989 1147.3947,-102.2206 1102.0208,-72 1071.2814,-51.5265 978.0318,-35.7659 911.0752,-26.6929"/>
<polygon fill="#000000" stroke="#000000" points="911.3581,-23.1997 900.9835,-25.3488 910.4338,-30.1385 911.3581,-23.1997"/>
</g>
</g>
</svg>
