<?xml version="1.0" encoding="UTF-8" standalone="no"?>
<!DOCTYPE svg PUBLIC "-//W3C//DTD SVG 1.1//EN"
 "http://www.w3.org/Graphics/SVG/1.1/DTD/svg11.dtd">
<!-- Generated by graphviz version 2.40.1 (20161225.0304)
 -->
<!-- Title: G Pages: 1 -->
<svg width="982pt" height="1403pt"
 viewBox="0.00 0.00 982.00 1402.61" xmlns="http://www.w3.org/2000/svg" xmlns:xlink="http://www.w3.org/1999/xlink">
<g id="graph0" class="graph" transform="scale(1 1) rotate(0) translate(4 1398.6129)">
<title>G</title>
<polygon fill="#ffffff" stroke="transparent" points="-4,4 -4,-1398.6129 978,-1398.6129 978,4 -4,4"/>
<!-- methodSteps -->
<g id="node1" class="node">
<title>methodSteps</title>
<ellipse fill="none" stroke="#000000" cx="364" cy="-1376.6129" rx="60.8544" ry="18"/>
<text text-anchor="middle" x="364" y="-1372.4129" font-family="Times,serif" font-size="14.00" fill="#000000">methodSteps</text>
</g>
<!-- methodSteps__orgID_orgID__organizations_join -->
<g id="node2" class="node">
<title>methodSteps__orgID_orgID__organizations_join</title>
<ellipse fill="none" stroke="#000000" cx="364" cy="-1281.3179" rx="114.8569" ry="41.0911"/>
<text text-anchor="middle" x="364" y="-1293.9179" font-family="Times,serif" font-size="14.00" fill="#000000">LEFT JOIN organizations</text>
<text text-anchor="middle" x="364" y="-1277.1179" font-family="Times,serif" font-size="14.00" fill="#000000">At level: 5</text>
<text text-anchor="middle" x="364" y="-1260.3179" font-family="Times,serif" font-size="14.00" fill="#000000">Required: true</text>
</g>
<!-- methodSteps&#45;&gt;methodSteps__orgID_orgID__organizations_join -->
<g id="edge1" class="edge">
<title>methodSteps&#45;&gt;methodSteps__orgID_orgID__organizations_join</title>
<path fill="none" stroke="#000000" d="M364,-1358.2391C364,-1350.93 364,-1342.1204 364,-1333.1116"/>
<polygon fill="#000000" stroke="#000000" points="367.5001,-1332.925 364,-1322.9251 360.5001,-1332.9251 367.5001,-1332.925"/>
</g>
<!-- methodSteps__orgID_orgID__organizations_join_Has_Rows -->
<g id="node3" class="node">
<title>methodSteps__orgID_orgID__organizations_join_Has_Rows</title>
<ellipse fill="none" stroke="#000000" cx="327" cy="-1186.0229" rx="47.4704" ry="18"/>
<text text-anchor="middle" x="327" y="-1181.8229" font-family="Times,serif" font-size="14.00" fill="#000000">Has rows</text>
</g>
<!-- methodSteps__orgID_orgID__organizations_join&#45;&gt;methodSteps__orgID_orgID__organizations_join_Has_Rows -->
<g id="edge2" class="edge">
<title>methodSteps__orgID_orgID__organizations_join&#45;&gt;methodSteps__orgID_orgID__organizations_join_Has_Rows</title>
<path fill="none" stroke="#000000" d="M348.0939,-1240.3512C344.5463,-1231.2142 340.8689,-1221.7428 337.5975,-1213.3171"/>
<polygon fill="#000000" stroke="#000000" points="340.8579,-1212.0443 333.9757,-1203.9891 334.3325,-1214.5779 340.8579,-1212.0443"/>
</g>
<!-- methodSteps__orgID_orgID__organizations_join_No_Rows -->
<g id="node30" class="node">
<title>methodSteps__orgID_orgID__organizations_join_No_Rows</title>
<ellipse fill="none" stroke="#000000" cx="676" cy="-1090.7278" rx="44.0415" ry="18"/>
<text text-anchor="middle" x="676" y="-1086.5278" font-family="Times,serif" font-size="14.00" fill="#000000">No rows</text>
</g>
<!-- methodSteps__orgID_orgID__organizations_join&#45;&gt;methodSteps__orgID_orgID__organizations_join_No_Rows -->
<g id="edge37" class="edge">
<title>methodSteps__orgID_orgID__organizations_join&#45;&gt;methodSteps__orgID_orgID__organizations_join_No_Rows</title>
<path fill="none" stroke="#000000" d="M422.3188,-1245.6929C487.3434,-1205.9717 590.2556,-1143.1062 642.7779,-1111.0221"/>
<polygon fill="#000000" stroke="#000000" points="644.6611,-1113.9731 651.3703,-1105.7732 641.012,-1107.9995 644.6611,-1113.9731"/>
</g>
<!-- organizations__addID_addID__addresses_join -->
<g id="node4" class="node">
<title>organizations__addID_addID__addresses_join</title>
<ellipse fill="none" stroke="#000000" cx="284" cy="-1090.7278" rx="99.0518" ry="41.0911"/>
<text text-anchor="middle" x="284" y="-1103.3278" font-family="Times,serif" font-size="14.00" fill="#000000">LEFT JOIN addresses</text>
<text text-anchor="middle" x="284" y="-1086.5278" font-family="Times,serif" font-size="14.00" fill="#000000">At level: 4</text>
<text text-anchor="middle" x="284" y="-1069.7278" font-family="Times,serif" font-size="14.00" fill="#000000">Required: false</text>
</g>
<!-- methodSteps__orgID_orgID__organizations_join_Has_Rows&#45;&gt;organizations__addID_addID__addresses_join -->
<g id="edge3" class="edge">
<title>methodSteps__orgID_orgID__organizations_join_Has_Rows&#45;&gt;organizations__addID_addID__addresses_join</title>
<path fill="none" stroke="#000000" d="M318.912,-1168.0986C315.3723,-1160.2539 311.0249,-1150.6195 306.6149,-1140.8461"/>
<polygon fill="#000000" stroke="#000000" points="309.6951,-1139.1625 302.3918,-1131.487 303.3146,-1142.0416 309.6951,-1139.1625"/>
</g>
<!-- organizations__addID_addID__addresses_join_Has_Rows -->
<g id="node5" class="node">
<title>organizations__addID_addID__addresses_join_Has_Rows</title>
<ellipse fill="none" stroke="#000000" cx="284" cy="-995.4328" rx="47.4704" ry="18"/>
<text text-anchor="middle" x="284" y="-991.2328" font-family="Times,serif" font-size="14.00" fill="#000000">Has rows</text>
</g>
<!-- organizations__addID_addID__addresses_join&#45;&gt;organizations__addID_addID__addresses_join_Has_Rows -->
<g id="edge4" class="edge">
<title>organizations__addID_addID__addresses_join&#45;&gt;organizations__addID_addID__addresses_join_Has_Rows</title>
<path fill="none" stroke="#000000" d="M284,-1049.2072C284,-1040.6556 284,-1031.8362 284,-1023.8757"/>
<polygon fill="#000000" stroke="#000000" points="287.5001,-1023.6587 284,-1013.6587 280.5001,-1023.6587 287.5001,-1023.6587"/>
</g>
<!-- organizations__addID_addID__addresses_join_No_Rows -->
<g id="node29" class="node">
<title>organizations__addID_addID__addresses_join_No_Rows</title>
<ellipse fill="none" stroke="#000000" cx="69" cy="-900.1377" rx="44.0415" ry="18"/>
<text text-anchor="middle" x="69" y="-895.9377" font-family="Times,serif" font-size="14.00" fill="#000000">No rows</text>
</g>
<!-- organizations__addID_addID__addresses_join&#45;&gt;organizations__addID_addID__addresses_join_No_Rows -->
<g id="edge35" class="edge">
<title>organizations__addID_addID__addresses_join&#45;&gt;organizations__addID_addID__addresses_join_No_Rows</title>
<path fill="none" stroke="#000000" d="M241.7794,-1053.3008C198.2347,-1014.6999 131.6915,-955.7116 95.1988,-923.3621"/>
<polygon fill="#000000" stroke="#000000" points="97.2624,-920.5142 87.4575,-916.4997 92.6189,-925.7523 97.2624,-920.5142"/>
</g>
<!-- addresses__addID_addID__sites_join -->
<g id="node6" class="node">
<title>addresses__addID_addID__sites_join</title>
<ellipse fill="none" stroke="#000000" cx="284" cy="-900.1377" rx="78.8882" ry="41.0911"/>
<text text-anchor="middle" x="284" y="-912.7377" font-family="Times,serif" font-size="14.00" fill="#000000">LEFT JOIN sites</text>
<text text-anchor="middle" x="284" y="-895.9377" font-family="Times,serif" font-size="14.00" fill="#000000">At level: 3</text>
<text text-anchor="middle" x="284" y="-879.1377" font-family="Times,serif" font-size="14.00" fill="#000000">Required: false</text>
</g>
<!-- organizations__addID_addID__addresses_join_Has_Rows&#45;&gt;addresses__addID_addID__sites_join -->
<g id="edge5" class="edge">
<title>organizations__addID_addID__addresses_join_Has_Rows&#45;&gt;addresses__addID_addID__sites_join</title>
<path fill="none" stroke="#000000" d="M284,-977.0589C284,-969.7498 284,-960.9402 284,-951.9314"/>
<polygon fill="#000000" stroke="#000000" points="287.5001,-951.7449 284,-941.7449 280.5001,-951.745 287.5001,-951.7449"/>
</g>
<!-- addresses__addID_addID__sites_join_Has_Rows -->
<g id="node7" class="node">
<title>addresses__addID_addID__sites_join_Has_Rows</title>
<ellipse fill="none" stroke="#000000" cx="293" cy="-804.8427" rx="47.4704" ry="18"/>
<text text-anchor="middle" x="293" y="-800.6427" font-family="Times,serif" font-size="14.00" fill="#000000">Has rows</text>
</g>
<!-- addresses__addID_addID__sites_join&#45;&gt;addresses__addID_addID__sites_join_Has_Rows -->
<g id="edge6" class="edge">
<title>addresses__addID_addID__sites_join&#45;&gt;addresses__addID_addID__sites_join_Has_Rows</title>
<path fill="none" stroke="#000000" d="M287.9213,-858.6172C288.729,-850.0655 289.5619,-841.2461 290.3138,-833.2856"/>
<polygon fill="#000000" stroke="#000000" points="293.8228,-833.3534 291.2787,-823.0686 286.8538,-832.6952 293.8228,-833.3534"/>
</g>
<!-- addresses__addID_addID__sites_join_No_Rows -->
<g id="node28" class="node">
<title>addresses__addID_addID__sites_join_No_Rows</title>
<ellipse fill="none" stroke="#000000" cx="108" cy="-721.4271" rx="44.0415" ry="18"/>
<text text-anchor="middle" x="108" y="-717.2271" font-family="Times,serif" font-size="14.00" fill="#000000">No rows</text>
</g>
<!-- addresses__addID_addID__sites_join&#45;&gt;addresses__addID_addID__sites_join_No_Rows -->
<g id="edge33" class="edge">
<title>addresses__addID_addID__sites_join&#45;&gt;addresses__addID_addID__sites_join_No_Rows</title>
<path fill="none" stroke="#000000" d="M247.5327,-863.1088C212.8179,-827.8593 161.5833,-775.8357 131.8199,-745.6139"/>
<polygon fill="#000000" stroke="#000000" points="134.2493,-743.0926 124.7387,-738.4236 129.2618,-748.0044 134.2493,-743.0926"/>
</g>
<!-- addresses__addID_addID__sites_where -->
<g id="node8" class="node">
<title>addresses__addID_addID__sites_where</title>
<ellipse fill="none" stroke="#000000" cx="297" cy="-721.4271" rx="92.1488" ry="29.3315"/>
<text text-anchor="middle" x="297" y="-725.6271" font-family="Times,serif" font-size="14.00" fill="#000000">WHERE</text>
<text text-anchor="middle" x="297" y="-708.8271" font-family="Times,serif" font-size="14.00" fill="#000000">sites.siteID = &quot;HNJ&quot;</text>
</g>
<!-- addresses__addID_addID__sites_join_Has_Rows&#45;&gt;addresses__addID_addID__sites_where -->
<g id="edge7" class="edge">
<title>addresses__addID_addID__sites_join_Has_Rows&#45;&gt;addresses__addID_addID__sites_where</title>
<path fill="none" stroke="#000000" d="M293.8679,-786.7428C294.2319,-779.1532 294.6704,-770.0087 295.1025,-760.9975"/>
<polygon fill="#000000" stroke="#000000" points="298.6002,-761.1264 295.5833,-750.9702 291.6083,-760.7911 298.6002,-761.1264"/>
</g>
<!-- addresses__addID_addID__sites_where_Has_Rows -->
<g id="node9" class="node">
<title>addresses__addID_addID__sites_where_Has_Rows</title>
<ellipse fill="none" stroke="#000000" cx="297" cy="-638.0114" rx="47.4704" ry="18"/>
<text text-anchor="middle" x="297" y="-633.8114" font-family="Times,serif" font-size="14.00" fill="#000000">Has rows</text>
</g>
<!-- addresses__addID_addID__sites_where&#45;&gt;addresses__addID_addID__sites_where_Has_Rows -->
<g id="edge8" class="edge">
<title>addresses__addID_addID__sites_where&#45;&gt;addresses__addID_addID__sites_where_Has_Rows</title>
<path fill="none" stroke="#000000" d="M297,-691.783C297,-683.5778 297,-674.691 297,-666.5502"/>
<polygon fill="#000000" stroke="#000000" points="300.5001,-666.398 297,-656.398 293.5001,-666.398 300.5001,-666.398"/>
</g>
<!-- addresses__addID_addID__sites_where_No_Rows -->
<g id="node27" class="node">
<title>addresses__addID_addID__sites_where_No_Rows</title>
<ellipse fill="none" stroke="#000000" cx="678" cy="-542.7164" rx="44.0415" ry="18"/>
<text text-anchor="middle" x="678" y="-538.5164" font-family="Times,serif" font-size="14.00" fill="#000000">No rows</text>
</g>
<!-- addresses__addID_addID__sites_where&#45;&gt;addresses__addID_addID__sites_where_No_Rows -->
<g id="edge31" class="edge">
<title>addresses__addID_addID__sites_where&#45;&gt;addresses__addID_addID__sites_where_No_Rows</title>
<path fill="none" stroke="#000000" d="M349.1776,-696.9528C426.8414,-660.5241 571.0532,-592.8805 639.7279,-560.6682"/>
<polygon fill="#000000" stroke="#000000" points="641.3349,-563.7804 648.9021,-556.365 638.3622,-557.4429 641.3349,-563.7804"/>
</g>
<!-- sites__siteID_siteID__samples_join -->
<g id="node10" class="node">
<title>sites__siteID_siteID__samples_join</title>
<ellipse fill="none" stroke="#000000" cx="297" cy="-542.7164" rx="93.4765" ry="41.0911"/>
<text text-anchor="middle" x="297" y="-555.3164" font-family="Times,serif" font-size="14.00" fill="#000000">LEFT JOIN samples</text>
<text text-anchor="middle" x="297" y="-538.5164" font-family="Times,serif" font-size="14.00" fill="#000000">At level: 2</text>
<text text-anchor="middle" x="297" y="-521.7164" font-family="Times,serif" font-size="14.00" fill="#000000">Required: true</text>
</g>
<!-- addresses__addID_addID__sites_where_Has_Rows&#45;&gt;sites__siteID_siteID__samples_join -->
<g id="edge9" class="edge">
<title>addresses__addID_addID__sites_where_Has_Rows&#45;&gt;sites__siteID_siteID__samples_join</title>
<path fill="none" stroke="#000000" d="M297,-619.6376C297,-612.3285 297,-603.5189 297,-594.5101"/>
<polygon fill="#000000" stroke="#000000" points="300.5001,-594.3235 297,-584.3236 293.5001,-594.3236 300.5001,-594.3235"/>
</g>
<!-- sites__siteID_siteID__samples_join_Has_Rows -->
<g id="node11" class="node">
<title>sites__siteID_siteID__samples_join_Has_Rows</title>
<ellipse fill="none" stroke="#000000" cx="314" cy="-447.4214" rx="47.4704" ry="18"/>
<text text-anchor="middle" x="314" y="-443.2214" font-family="Times,serif" font-size="14.00" fill="#000000">Has rows</text>
</g>
<!-- sites__siteID_siteID__samples_join&#45;&gt;sites__siteID_siteID__samples_join_Has_Rows -->
<g id="edge10" class="edge">
<title>sites__siteID_siteID__samples_join&#45;&gt;sites__siteID_siteID__samples_join_Has_Rows</title>
<path fill="none" stroke="#000000" d="M304.3576,-501.4728C305.9049,-492.7989 307.5038,-483.8366 308.9439,-475.764"/>
<polygon fill="#000000" stroke="#000000" points="312.4172,-476.2227 310.7279,-465.7635 305.526,-474.9933 312.4172,-476.2227"/>
</g>
<!-- sites__siteID_siteID__samples_join_No_Rows -->
<g id="node26" class="node">
<title>sites__siteID_siteID__samples_join_No_Rows</title>
<ellipse fill="none" stroke="#000000" cx="157" cy="-447.4214" rx="44.0415" ry="18"/>
<text text-anchor="middle" x="157" y="-443.2214" font-family="Times,serif" font-size="14.00" fill="#000000">No rows</text>
</g>
<!-- sites__siteID_siteID__samples_join&#45;&gt;sites__siteID_siteID__samples_join_No_Rows -->
<g id="edge29" class="edge">
<title>sites__siteID_siteID__samples_join&#45;&gt;sites__siteID_siteID__samples_join_No_Rows</title>
<path fill="none" stroke="#000000" d="M246.0608,-508.0431C226.7533,-494.901 205.3517,-480.3333 188.3678,-468.7727"/>
<polygon fill="#000000" stroke="#000000" points="190.1596,-465.7585 179.9235,-463.0249 186.2207,-471.5452 190.1596,-465.7585"/>
</g>
<!-- samples__siteID_siteID__sites_join -->
<g id="node12" class="node">
<title>samples__siteID_siteID__sites_join</title>
<ellipse fill="none" stroke="#000000" cx="314" cy="-352.1263" rx="78.8882" ry="41.0911"/>
<text text-anchor="middle" x="314" y="-364.7263" font-family="Times,serif" font-size="14.00" fill="#000000">LEFT JOIN sites</text>
<text text-anchor="middle" x="314" y="-347.9263" font-family="Times,serif" font-size="14.00" fill="#000000">At level: 1</text>
<text text-anchor="middle" x="314" y="-331.1263" font-family="Times,serif" font-size="14.00" fill="#000000">Required: true</text>
</g>
<!-- sites__siteID_siteID__samples_join_Has_Rows&#45;&gt;samples__siteID_siteID__sites_join -->
<g id="edge11" class="edge">
<title>sites__siteID_siteID__samples_join_Has_Rows&#45;&gt;samples__siteID_siteID__sites_join</title>
<path fill="none" stroke="#000000" d="M314,-429.0475C314,-421.7384 314,-412.9288 314,-403.92"/>
<polygon fill="#000000" stroke="#000000" points="317.5001,-403.7335 314,-393.7335 310.5001,-403.7335 317.5001,-403.7335"/>
</g>
<!-- samples__dataID_dataID__datasets_join -->
<g id="node20" class="node">
<title>samples__dataID_dataID__datasets_join</title>
<ellipse fill="none" stroke="#000000" cx="641" cy="-352.1263" rx="92.8656" ry="41.0911"/>
<text text-anchor="middle" x="641" y="-364.7263" font-family="Times,serif" font-size="14.00" fill="#000000">LEFT JOIN datasets</text>
<text text-anchor="middle" x="641" y="-347.9263" font-family="Times,serif" font-size="14.00" fill="#000000">At level: 1</text>
<text text-anchor="middle" x="641" y="-331.1263" font-family="Times,serif" font-size="14.00" fill="#000000">Required: true</text>
</g>
<!-- sites__siteID_siteID__samples_join_Has_Rows&#45;&gt;samples__dataID_dataID__datasets_join -->
<g id="edge20" class="edge">
<title>sites__siteID_siteID__samples_join_Has_Rows&#45;&gt;samples__dataID_dataID__datasets_join</title>
<path fill="none" stroke="#000000" d="M351.8305,-436.3967C400.7628,-422.1368 487.5103,-396.8566 553.2661,-377.6939"/>
<polygon fill="#000000" stroke="#000000" points="554.5975,-380.9516 563.2189,-374.7935 552.639,-374.2311 554.5975,-380.9516"/>
</g>
<!-- samples__siteID_siteID__sites_join_Has_Rows -->
<g id="node13" class="node">
<title>samples__siteID_siteID__sites_join_Has_Rows</title>
<ellipse fill="none" stroke="#000000" cx="234" cy="-256.8313" rx="47.4704" ry="18"/>
<text text-anchor="middle" x="234" y="-252.6313" font-family="Times,serif" font-size="14.00" fill="#000000">Has rows</text>
</g>
<!-- samples__siteID_siteID__sites_join&#45;&gt;samples__siteID_siteID__sites_join_Has_Rows -->
<g id="edge12" class="edge">
<title>samples__siteID_siteID__sites_join&#45;&gt;samples__siteID_siteID__sites_join_Has_Rows</title>
<path fill="none" stroke="#000000" d="M282.152,-314.1894C273.0289,-303.322 263.3149,-291.7509 255.019,-281.8689"/>
<polygon fill="#000000" stroke="#000000" points="257.5384,-279.4264 248.428,-274.0178 252.1771,-283.9272 257.5384,-279.4264"/>
</g>
<!-- samples__siteID_siteID__sites_join_No_Rows -->
<g id="node19" class="node">
<title>samples__siteID_siteID__sites_join_No_Rows</title>
<ellipse fill="none" stroke="#000000" cx="350" cy="-173.4156" rx="44.0415" ry="18"/>
<text text-anchor="middle" x="350" y="-169.2156" font-family="Times,serif" font-size="14.00" fill="#000000">No rows</text>
</g>
<!-- samples__siteID_siteID__sites_join&#45;&gt;samples__siteID_siteID__sites_join_No_Rows -->
<g id="edge18" class="edge">
<title>samples__siteID_siteID__sites_join&#45;&gt;samples__siteID_siteID__sites_join_No_Rows</title>
<path fill="none" stroke="#000000" d="M322.3496,-310.6773C329.0833,-277.2499 338.3752,-231.1233 344.2861,-201.7807"/>
<polygon fill="#000000" stroke="#000000" points="347.756,-202.2785 346.2998,-191.7843 340.8939,-200.8962 347.756,-202.2785"/>
</g>
<!-- samples__siteID_siteID__sites_where -->
<g id="node14" class="node">
<title>samples__siteID_siteID__sites_where</title>
<ellipse fill="none" stroke="#000000" cx="196" cy="-173.4156" rx="92.1488" ry="29.3315"/>
<text text-anchor="middle" x="196" y="-177.6156" font-family="Times,serif" font-size="14.00" fill="#000000">WHERE</text>
<text text-anchor="middle" x="196" y="-160.8156" font-family="Times,serif" font-size="14.00" fill="#000000">sites.siteID = &quot;HNJ&quot;</text>
</g>
<!-- samples__siteID_siteID__sites_join_Has_Rows&#45;&gt;samples__siteID_siteID__sites_where -->
<g id="edge13" class="edge">
<title>samples__siteID_siteID__sites_join_Has_Rows&#45;&gt;samples__siteID_siteID__sites_where</title>
<path fill="none" stroke="#000000" d="M225.7546,-238.7313C222.1529,-230.8251 217.7824,-221.2313 213.5128,-211.8588"/>
<polygon fill="#000000" stroke="#000000" points="216.6396,-210.2799 209.3089,-202.6307 210.2695,-213.1819 216.6396,-210.2799"/>
</g>
<!-- samples__siteID_siteID__sites_where_Has_Rows -->
<g id="node15" class="node">
<title>samples__siteID_siteID__sites_where_Has_Rows</title>
<ellipse fill="none" stroke="#000000" cx="160" cy="-90" rx="47.4704" ry="18"/>
<text text-anchor="middle" x="160" y="-85.8" font-family="Times,serif" font-size="14.00" fill="#000000">Has rows</text>
</g>
<!-- samples__siteID_siteID__sites_where&#45;&gt;samples__siteID_siteID__sites_where_Has_Rows -->
<g id="edge14" class="edge">
<title>samples__siteID_siteID__sites_where&#45;&gt;samples__siteID_siteID__sites_where_Has_Rows</title>
<path fill="none" stroke="#000000" d="M183.4089,-144.2409C179.6376,-135.5023 175.517,-125.9545 171.7986,-117.3387"/>
<polygon fill="#000000" stroke="#000000" points="174.9875,-115.8945 167.8115,-108.1 168.5605,-118.6683 174.9875,-115.8945"/>
</g>
<!-- samples__siteID_siteID__sites_where_No_Rows -->
<g id="node17" class="node">
<title>samples__siteID_siteID__sites_where_No_Rows</title>
<ellipse fill="none" stroke="#000000" cx="273" cy="-90" rx="44.0415" ry="18"/>
<text text-anchor="middle" x="273" y="-85.8" font-family="Times,serif" font-size="14.00" fill="#000000">No rows</text>
</g>
<!-- samples__siteID_siteID__sites_where&#45;&gt;samples__siteID_siteID__sites_where_No_Rows -->
<g id="edge16" class="edge">
<title>samples__siteID_siteID__sites_where&#45;&gt;samples__siteID_siteID__sites_where_No_Rows</title>
<path fill="none" stroke="#000000" d="M222.0687,-145.1749C231.295,-135.1799 241.5882,-124.029 250.4932,-114.3821"/>
<polygon fill="#000000" stroke="#000000" points="253.0792,-116.7407 257.2902,-107.0187 247.9356,-111.9927 253.0792,-116.7407"/>
</g>
<!-- granted -->
<g id="node16" class="node">
<title>granted</title>
<ellipse fill="none" stroke="#000000" cx="99" cy="-18" rx="71.7874" ry="18"/>
<text text-anchor="middle" x="99" y="-13.8" font-family="Times,serif" font-size="14.00" fill="#000000">Access Granted</text>
</g>
<!-- samples__siteID_siteID__sites_where_Has_Rows&#45;&gt;granted -->
<g id="edge15" class="edge">
<title>samples__siteID_siteID__sites_where_Has_Rows&#45;&gt;granted</title>
<path fill="none" stroke="#000000" d="M145.2336,-72.5708C137.851,-63.857 128.7749,-53.1441 120.6249,-43.5244"/>
<polygon fill="#000000" stroke="#000000" points="123.1888,-41.1363 114.0542,-35.7689 117.8479,-45.6612 123.1888,-41.1363"/>
</g>
<!-- denied -->
<g id="node18" class="node">
<title>denied</title>
<ellipse fill="none" stroke="#000000" cx="641" cy="-18" rx="68.8581" ry="18"/>
<text text-anchor="middle" x="641" y="-13.8" font-family="Times,serif" font-size="14.00" fill="#000000">Access Denied</text>
</g>
<!-- samples__siteID_siteID__sites_where_No_Rows&#45;&gt;denied -->
<g id="edge17" class="edge">
<title>samples__siteID_siteID__sites_where_No_Rows&#45;&gt;denied</title>
<path fill="none" stroke="#000000" d="M312.865,-81.9777C328.4946,-78.8453 346.5847,-75.2358 363,-72 435.8088,-57.6479 519.402,-41.4479 575.7523,-30.5682"/>
<polygon fill="#000000" stroke="#000000" points="576.4441,-33.9994 585.5995,-28.6676 575.1174,-27.1262 576.4441,-33.9994"/>
</g>
<!-- samples__siteID_siteID__sites_join_No_Rows&#45;&gt;denied -->
<g id="edge19" class="edge">
<title>samples__siteID_siteID__sites_join_No_Rows&#45;&gt;denied</title>
<path fill="none" stroke="#000000" d="M358.0484,-155.3767C369.2477,-132.4028 391.7367,-93.1533 423,-72 447.321,-55.544 518.4915,-39.7585 572.9612,-29.5514"/>
<polygon fill="#000000" stroke="#000000" points="573.7246,-32.9697 582.9225,-27.7115 572.4531,-26.0861 573.7246,-32.9697"/>
</g>
<!-- samples__dataID_dataID__datasets_join_Has_Rows -->
<g id="node21" class="node">
<title>samples__dataID_dataID__datasets_join_Has_Rows</title>
<ellipse fill="none" stroke="#000000" cx="641" cy="-256.8313" rx="47.4704" ry="18"/>
<text text-anchor="middle" x="641" y="-252.6313" font-family="Times,serif" font-size="14.00" fill="#000000">Has rows</text>
</g>
<!-- samples__dataID_dataID__datasets_join&#45;&gt;samples__dataID_dataID__datasets_join_Has_Rows -->
<g id="edge21" class="edge">
<title>samples__dataID_dataID__datasets_join&#45;&gt;samples__dataID_dataID__datasets_join_Has_Rows</title>
<path fill="none" stroke="#000000" d="M641,-310.6057C641,-302.0541 641,-293.2347 641,-285.2742"/>
<polygon fill="#000000" stroke="#000000" points="644.5001,-285.0572 641,-275.0572 637.5001,-285.0572 644.5001,-285.0572"/>
</g>
<!-- samples__dataID_dataID__datasets_join_No_Rows -->
<g id="node25" class="node">
<title>samples__dataID_dataID__datasets_join_No_Rows</title>
<ellipse fill="none" stroke="#000000" cx="807" cy="-256.8313" rx="44.0415" ry="18"/>
<text text-anchor="middle" x="807" y="-252.6313" font-family="Times,serif" font-size="14.00" fill="#000000">No rows</text>
</g>
<!-- samples__dataID_dataID__datasets_join&#45;&gt;samples__dataID_dataID__datasets_join_No_Rows -->
<g id="edge27" class="edge">
<title>samples__dataID_dataID__datasets_join&#45;&gt;samples__dataID_dataID__datasets_join_No_Rows</title>
<path fill="none" stroke="#000000" d="M698.1278,-319.3312C722.9104,-305.1043 751.1124,-288.9145 772.6027,-276.5776"/>
<polygon fill="#000000" stroke="#000000" points="774.4424,-279.5573 781.3724,-271.5432 770.9573,-273.4865 774.4424,-279.5573"/>
</g>
<!-- samples__dataID_dataID__datasets_where -->
<g id="node22" class="node">
<title>samples__dataID_dataID__datasets_where</title>
<ellipse fill="none" stroke="#000000" cx="641" cy="-173.4156" rx="228.5204" ry="29.3315"/>
<text text-anchor="middle" x="641" y="-177.6156" font-family="Times,serif" font-size="14.00" fill="#000000">WHERE IN</text>
<text text-anchor="middle" x="641" y="-160.8156" font-family="Times,serif" font-size="14.00" fill="#000000">datasets.dataID = [&quot;NML&#45;WWPCR&quot;,&quot;NML&#45;WWGX&quot;]</text>
</g>
<!-- samples__dataID_dataID__datasets_join_Has_Rows&#45;&gt;samples__dataID_dataID__datasets_where -->
<g id="edge22" class="edge">
<title>samples__dataID_dataID__datasets_join_Has_Rows&#45;&gt;samples__dataID_dataID__datasets_where</title>
<path fill="none" stroke="#000000" d="M641,-238.7313C641,-231.1418 641,-221.9972 641,-212.986"/>
<polygon fill="#000000" stroke="#000000" points="644.5001,-212.9587 641,-202.9588 637.5001,-212.9588 644.5001,-212.9587"/>
</g>
<!-- samples__dataID_dataID__datasets_where_Has_Rows -->
<g id="node23" class="node">
<title>samples__dataID_dataID__datasets_where_Has_Rows</title>
<ellipse fill="none" stroke="#000000" cx="479" cy="-90" rx="47.4704" ry="18"/>
<text text-anchor="middle" x="479" y="-85.8" font-family="Times,serif" font-size="14.00" fill="#000000">Has rows</text>
</g>
<!-- samples__dataID_dataID__datasets_where&#45;&gt;samples__dataID_dataID__datasets_where_Has_Rows -->
<g id="edge23" class="edge">
<title>samples__dataID_dataID__datasets_where&#45;&gt;samples__dataID_dataID__datasets_where_Has_Rows</title>
<path fill="none" stroke="#000000" d="M585.2488,-144.7087C562.5492,-133.0204 536.91,-119.8185 516.5057,-109.3121"/>
<polygon fill="#000000" stroke="#000000" points="518.0213,-106.1558 507.5284,-104.6896 514.8168,-112.3793 518.0213,-106.1558"/>
</g>
<!-- samples__dataID_dataID__datasets_where_No_Rows -->
<g id="node24" class="node">
<title>samples__dataID_dataID__datasets_where_No_Rows</title>
<ellipse fill="none" stroke="#000000" cx="641" cy="-90" rx="44.0415" ry="18"/>
<text text-anchor="middle" x="641" y="-85.8" font-family="Times,serif" font-size="14.00" fill="#000000">No rows</text>
</g>
<!-- samples__dataID_dataID__datasets_where&#45;&gt;samples__dataID_dataID__datasets_where_No_Rows -->
<g id="edge25" class="edge">
<title>samples__dataID_dataID__datasets_where&#45;&gt;samples__dataID_dataID__datasets_where_No_Rows</title>
<path fill="none" stroke="#000000" d="M641,-143.7715C641,-135.5664 641,-126.6796 641,-118.5388"/>
<polygon fill="#000000" stroke="#000000" points="644.5001,-118.3865 641,-108.3866 637.5001,-118.3866 644.5001,-118.3865"/>
</g>
<!-- samples__dataID_dataID__datasets_where_Has_Rows&#45;&gt;granted -->
<g id="edge24" class="edge">
<title>samples__dataID_dataID__datasets_where_Has_Rows&#45;&gt;granted</title>
<path fill="none" stroke="#000000" d="M436.5153,-81.9503C371.0869,-69.5533 245.0564,-45.6738 166.8835,-30.8621"/>
<polygon fill="#000000" stroke="#000000" points="167.1301,-27.3467 156.6533,-28.9238 165.8269,-34.2243 167.1301,-27.3467"/>
</g>
<!-- samples__dataID_dataID__datasets_where_No_Rows&#45;&gt;denied -->
<g id="edge26" class="edge">
<title>samples__dataID_dataID__datasets_where_No_Rows&#45;&gt;denied</title>
<path fill="none" stroke="#000000" d="M641,-71.8314C641,-64.131 641,-54.9743 641,-46.4166"/>
<polygon fill="#000000" stroke="#000000" points="644.5001,-46.4132 641,-36.4133 637.5001,-46.4133 644.5001,-46.4132"/>
</g>
<!-- samples__dataID_dataID__datasets_join_No_Rows&#45;&gt;denied -->
<g id="edge28" class="edge">
<title>samples__dataID_dataID__datasets_join_No_Rows&#45;&gt;denied</title>
<path fill="none" stroke="#000000" d="M836.2918,-243.2477C852.0557,-234.2198 870.0557,-220.7198 879,-202.8313 890.6934,-179.4445 892.4869,-166.4005 879,-144 841.4066,-81.5609 761.3439,-48.4432 704.4751,-32.0899"/>
<polygon fill="#000000" stroke="#000000" points="705.0684,-28.6224 694.4967,-29.3229 703.1978,-35.3679 705.0684,-28.6224"/>
</g>
<!-- sites__siteID_siteID__samples_join_No_Rows&#45;&gt;denied -->
<g id="edge30" class="edge">
<title>sites__siteID_siteID__samples_join_No_Rows&#45;&gt;denied</title>
<path fill="none" stroke="#000000" d="M143.9859,-430.0809C121.0891,-397.7958 76,-325.5012 76,-256.8313 76,-256.8313 76,-256.8313 76,-173.4156 76,-126.6557 68.2607,-102.1529 104,-72 138.3005,-43.0611 422.0072,-27.1933 562.618,-21.0398"/>
<polygon fill="#000000" stroke="#000000" points="563.0596,-24.5241 572.8993,-20.5961 562.7577,-17.5306 563.0596,-24.5241"/>
</g>
<!-- addresses__addID_addID__sites_where_No_Rows&#45;&gt;denied -->
<g id="edge32" class="edge">
<title>addresses__addID_addID__sites_where_No_Rows&#45;&gt;denied</title>
<path fill="none" stroke="#000000" d="M716.0688,-533.6044C787.8358,-513.9076 936,-460.1609 936,-352.1263 936,-352.1263 936,-352.1263 936,-173.4156 936,-74.1601 803.6653,-38.1431 716.2636,-25.1794"/>
<polygon fill="#000000" stroke="#000000" points="716.4952,-21.6775 706.1042,-23.7454 715.5169,-28.6088 716.4952,-21.6775"/>
</g>
<!-- addresses__addID_addID__sites_join_No_Rows&#45;&gt;granted -->
<g id="edge34" class="edge">
<title>addresses__addID_addID__sites_join_No_Rows&#45;&gt;granted</title>
<path fill="none" stroke="#000000" d="M96.1255,-704.0525C76.1541,-673.089 38,-605.6937 38,-542.7164 38,-542.7164 38,-542.7164 38,-173.4156 38,-125.3445 63.6005,-74.3321 81.6321,-44.3638"/>
<polygon fill="#000000" stroke="#000000" points="84.6664,-46.1116 86.9484,-35.7655 78.7125,-42.4304 84.6664,-46.1116"/>
</g>
<!-- organizations__addID_addID__addresses_join_No_Rows&#45;&gt;granted -->
<g id="edge36" class="edge">
<title>organizations__addID_addID__addresses_join_No_Rows&#45;&gt;granted</title>
<path fill="none" stroke="#000000" d="M57.2951,-882.7387C37.6091,-851.7374 0,-784.2855 0,-721.4271 0,-721.4271 0,-721.4271 0,-173.4156 0,-120.2616 41.7031,-70.6372 70.9759,-42.3515"/>
<polygon fill="#000000" stroke="#000000" points="73.5971,-44.6912 78.4871,-35.2924 68.8032,-39.5903 73.5971,-44.6912"/>
</g>
<!-- methodSteps__orgID_orgID__organizations_join_No_Rows&#45;&gt;denied -->
<g id="edge38" class="edge">
<title>methodSteps__orgID_orgID__organizations_join_No_Rows&#45;&gt;denied</title>
<path fill="none" stroke="#000000" d="M717.1228,-1084.1234C798.872,-1068.4025 974,-1020.6595 974,-900.1377 974,-900.1377 974,-900.1377 974,-173.4156 974,-118.8989 950.3739,-102.2206 905,-72 874.2606,-51.5265 781.0111,-35.7659 714.0544,-26.6929"/>
<polygon fill="#000000" stroke="#000000" points="714.3373,-23.1997 703.9627,-25.3488 713.4131,-30.1385 714.3373,-23.1997"/>
</g>
</g>
</svg>
