<?xml version="1.0" encoding="UTF-8" standalone="no"?>
<!DOCTYPE svg PUBLIC "-//W3C//DTD SVG 1.1//EN"
 "http://www.w3.org/Graphics/SVG/1.1/DTD/svg11.dtd">
<!-- Generated by graphviz version 2.40.1 (20161225.0304)
 -->
<!-- Title: G Pages: 1 -->
<svg width="690pt" height="664pt"
 viewBox="0.00 0.00 689.71 664.01" xmlns="http://www.w3.org/2000/svg" xmlns:xlink="http://www.w3.org/1999/xlink">
<g id="graph0" class="graph" transform="scale(1 1) rotate(0) translate(4 660.0114)">
<title>G</title>
<polygon fill="#ffffff" stroke="transparent" points="-4,4 -4,-660.0114 685.7106,-660.0114 685.7106,4 -4,4"/>
<!-- methodSets -->
<g id="node1" class="node">
<title>methodSets</title>
<ellipse fill="none" stroke="#000000" cx="164.6898" cy="-638.0114" rx="56.1976" ry="18"/>
<text text-anchor="middle" x="164.6898" y="-633.8114" font-family="Times,serif" font-size="14.00" fill="#000000">methodSets</text>
</g>
<!-- methodSets__mSRID_mSRID__samples_join -->
<g id="node2" class="node">
<title>methodSets__mSRID_mSRID__samples_join</title>
<ellipse fill="none" stroke="#000000" cx="164.6898" cy="-542.7164" rx="93.4765" ry="41.0911"/>
<text text-anchor="middle" x="164.6898" y="-555.3164" font-family="Times,serif" font-size="14.00" fill="#000000">LEFT JOIN samples</text>
<text text-anchor="middle" x="164.6898" y="-538.5164" font-family="Times,serif" font-size="14.00" fill="#000000">At level: 2</text>
<text text-anchor="middle" x="164.6898" y="-521.7164" font-family="Times,serif" font-size="14.00" fill="#000000">Required: false</text>
</g>
<!-- methodSets&#45;&gt;methodSets__mSRID_mSRID__samples_join -->
<g id="edge1" class="edge">
<title>methodSets&#45;&gt;methodSets__mSRID_mSRID__samples_join</title>
<path fill="none" stroke="#000000" d="M164.6898,-619.6376C164.6898,-612.3285 164.6898,-603.5189 164.6898,-594.5101"/>
<polygon fill="#000000" stroke="#000000" points="168.1899,-594.3235 164.6898,-584.3236 161.1899,-594.3236 168.1899,-594.3235"/>
</g>
<!-- methodSets__mSRID_mSRID__samples_join_Has_Rows -->
<g id="node3" class="node">
<title>methodSets__mSRID_mSRID__samples_join_Has_Rows</title>
<ellipse fill="none" stroke="#000000" cx="255.6898" cy="-447.4214" rx="47.4704" ry="18"/>
<text text-anchor="middle" x="255.6898" y="-443.2214" font-family="Times,serif" font-size="14.00" fill="#000000">Has rows</text>
</g>
<!-- methodSets__mSRID_mSRID__samples_join&#45;&gt;methodSets__mSRID_mSRID__samples_join_Has_Rows -->
<g id="edge2" class="edge">
<title>methodSets__mSRID_mSRID__samples_join&#45;&gt;methodSets__mSRID_mSRID__samples_join_Has_Rows</title>
<path fill="none" stroke="#000000" d="M201.1787,-504.5053C211.6352,-493.5553 222.7531,-481.9126 232.2023,-472.0174"/>
<polygon fill="#000000" stroke="#000000" points="235.0032,-474.1523 239.3782,-464.5029 229.9407,-469.3179 235.0032,-474.1523"/>
</g>
<!-- methodSets__mSRID_mSRID__samples_join_No_Rows -->
<g id="node18" class="node">
<title>methodSets__mSRID_mSRID__samples_join_No_Rows</title>
<ellipse fill="none" stroke="#000000" cx="110.6898" cy="-447.4214" rx="44.0415" ry="18"/>
<text text-anchor="middle" x="110.6898" y="-443.2214" font-family="Times,serif" font-size="14.00" fill="#000000">No rows</text>
</g>
<!-- methodSets__mSRID_mSRID__samples_join&#45;&gt;methodSets__mSRID_mSRID__samples_join_No_Rows -->
<g id="edge21" class="edge">
<title>methodSets__mSRID_mSRID__samples_join&#45;&gt;methodSets__mSRID_mSRID__samples_join_No_Rows</title>
<path fill="none" stroke="#000000" d="M141.9455,-502.5789C136.4689,-492.9143 130.7528,-482.8269 125.729,-473.9614"/>
<polygon fill="#000000" stroke="#000000" points="128.7587,-472.2085 120.7835,-465.2338 122.6685,-475.6596 128.7587,-472.2085"/>
</g>
<!-- samples__siteID_siteID__sites_join -->
<g id="node4" class="node">
<title>samples__siteID_siteID__sites_join</title>
<ellipse fill="none" stroke="#000000" cx="483.6898" cy="-352.1263" rx="78.8882" ry="41.0911"/>
<text text-anchor="middle" x="483.6898" y="-364.7263" font-family="Times,serif" font-size="14.00" fill="#000000">LEFT JOIN sites</text>
<text text-anchor="middle" x="483.6898" y="-347.9263" font-family="Times,serif" font-size="14.00" fill="#000000">At level: 1</text>
<text text-anchor="middle" x="483.6898" y="-331.1263" font-family="Times,serif" font-size="14.00" fill="#000000">Required: true</text>
</g>
<!-- methodSets__mSRID_mSRID__samples_join_Has_Rows&#45;&gt;samples__siteID_siteID__sites_join -->
<g id="edge3" class="edge">
<title>methodSets__mSRID_mSRID__samples_join_Has_Rows&#45;&gt;samples__siteID_siteID__sites_join</title>
<path fill="none" stroke="#000000" d="M287.8731,-433.97C320.0548,-420.5193 370.6221,-399.3842 412.308,-381.9611"/>
<polygon fill="#000000" stroke="#000000" points="413.7252,-385.1623 421.602,-378.0766 411.0257,-378.7037 413.7252,-385.1623"/>
</g>
<!-- samples__dataID_dataID__datasets_join -->
<g id="node12" class="node">
<title>samples__dataID_dataID__datasets_join</title>
<ellipse fill="none" stroke="#000000" cx="255.6898" cy="-352.1263" rx="92.8656" ry="41.0911"/>
<text text-anchor="middle" x="255.6898" y="-364.7263" font-family="Times,serif" font-size="14.00" fill="#000000">LEFT JOIN datasets</text>
<text text-anchor="middle" x="255.6898" y="-347.9263" font-family="Times,serif" font-size="14.00" fill="#000000">At level: 1</text>
<text text-anchor="middle" x="255.6898" y="-331.1263" font-family="Times,serif" font-size="14.00" fill="#000000">Required: true</text>
</g>
<!-- methodSets__mSRID_mSRID__samples_join_Has_Rows&#45;&gt;samples__dataID_dataID__datasets_join -->
<g id="edge12" class="edge">
<title>methodSets__mSRID_mSRID__samples_join_Has_Rows&#45;&gt;samples__dataID_dataID__datasets_join</title>
<path fill="none" stroke="#000000" d="M255.6898,-429.0475C255.6898,-421.7384 255.6898,-412.9288 255.6898,-403.92"/>
<polygon fill="#000000" stroke="#000000" points="259.1899,-403.7335 255.6898,-393.7335 252.1899,-403.7335 259.1899,-403.7335"/>
</g>
<!-- samples__siteID_siteID__sites_join_Has_Rows -->
<g id="node5" class="node">
<title>samples__siteID_siteID__sites_join_Has_Rows</title>
<ellipse fill="none" stroke="#000000" cx="483.6898" cy="-256.8313" rx="47.4704" ry="18"/>
<text text-anchor="middle" x="483.6898" y="-252.6313" font-family="Times,serif" font-size="14.00" fill="#000000">Has rows</text>
</g>
<!-- samples__siteID_siteID__sites_join&#45;&gt;samples__siteID_siteID__sites_join_Has_Rows -->
<g id="edge4" class="edge">
<title>samples__siteID_siteID__sites_join&#45;&gt;samples__siteID_siteID__sites_join_Has_Rows</title>
<path fill="none" stroke="#000000" d="M483.6898,-310.6057C483.6898,-302.0541 483.6898,-293.2347 483.6898,-285.2742"/>
<polygon fill="#000000" stroke="#000000" points="487.1899,-285.0572 483.6898,-275.0572 480.1899,-285.0572 487.1899,-285.0572"/>
</g>
<!-- samples__siteID_siteID__sites_join_No_Rows -->
<g id="node11" class="node">
<title>samples__siteID_siteID__sites_join_No_Rows</title>
<ellipse fill="none" stroke="#000000" cx="637.6898" cy="-173.4156" rx="44.0415" ry="18"/>
<text text-anchor="middle" x="637.6898" y="-169.2156" font-family="Times,serif" font-size="14.00" fill="#000000">No rows</text>
</g>
<!-- samples__siteID_siteID__sites_join&#45;&gt;samples__siteID_siteID__sites_join_No_Rows -->
<g id="edge10" class="edge">
<title>samples__siteID_siteID__sites_join&#45;&gt;samples__siteID_siteID__sites_join_No_Rows</title>
<path fill="none" stroke="#000000" d="M516.3493,-314.2264C546.3712,-279.3872 590.035,-228.7171 615.9795,-198.6096"/>
<polygon fill="#000000" stroke="#000000" points="618.9247,-200.5534 622.8012,-190.6932 613.6219,-195.9838 618.9247,-200.5534"/>
</g>
<!-- samples__siteID_siteID__sites_where -->
<g id="node6" class="node">
<title>samples__siteID_siteID__sites_where</title>
<ellipse fill="none" stroke="#000000" cx="483.6898" cy="-173.4156" rx="92.1488" ry="29.3315"/>
<text text-anchor="middle" x="483.6898" y="-177.6156" font-family="Times,serif" font-size="14.00" fill="#000000">WHERE</text>
<text text-anchor="middle" x="483.6898" y="-160.8156" font-family="Times,serif" font-size="14.00" fill="#000000">sites.siteID = &quot;HNJ&quot;</text>
</g>
<!-- samples__siteID_siteID__sites_join_Has_Rows&#45;&gt;samples__siteID_siteID__sites_where -->
<g id="edge5" class="edge">
<title>samples__siteID_siteID__sites_join_Has_Rows&#45;&gt;samples__siteID_siteID__sites_where</title>
<path fill="none" stroke="#000000" d="M483.6898,-238.7313C483.6898,-231.1418 483.6898,-221.9972 483.6898,-212.986"/>
<polygon fill="#000000" stroke="#000000" points="487.1899,-212.9587 483.6898,-202.9588 480.1899,-212.9588 487.1899,-212.9587"/>
</g>
<!-- samples__siteID_siteID__sites_where_Has_Rows -->
<g id="node7" class="node">
<title>samples__siteID_siteID__sites_where_Has_Rows</title>
<ellipse fill="none" stroke="#000000" cx="293.6898" cy="-90" rx="47.4704" ry="18"/>
<text text-anchor="middle" x="293.6898" y="-85.8" font-family="Times,serif" font-size="14.00" fill="#000000">Has rows</text>
</g>
<!-- samples__siteID_siteID__sites_where&#45;&gt;samples__siteID_siteID__sites_where_Has_Rows -->
<g id="edge6" class="edge">
<title>samples__siteID_siteID__sites_where&#45;&gt;samples__siteID_siteID__sites_where_Has_Rows</title>
<path fill="none" stroke="#000000" d="M429.2434,-149.5121C398.933,-136.2049 361.8421,-119.9209 334.1258,-107.7526"/>
<polygon fill="#000000" stroke="#000000" points="335.3031,-104.4471 324.7397,-103.6318 332.4891,-110.8566 335.3031,-104.4471"/>
</g>
<!-- samples__siteID_siteID__sites_where_No_Rows -->
<g id="node9" class="node">
<title>samples__siteID_siteID__sites_where_No_Rows</title>
<ellipse fill="none" stroke="#000000" cx="461.6898" cy="-90" rx="44.0415" ry="18"/>
<text text-anchor="middle" x="461.6898" y="-85.8" font-family="Times,serif" font-size="14.00" fill="#000000">No rows</text>
</g>
<!-- samples__siteID_siteID__sites_where&#45;&gt;samples__siteID_siteID__sites_where_No_Rows -->
<g id="edge8" class="edge">
<title>samples__siteID_siteID__sites_where&#45;&gt;samples__siteID_siteID__sites_where_No_Rows</title>
<path fill="none" stroke="#000000" d="M475.8715,-143.7715C473.6832,-135.4742 471.311,-126.4798 469.1443,-118.2646"/>
<polygon fill="#000000" stroke="#000000" points="472.4736,-117.1633 466.5391,-108.3866 465.7051,-118.9485 472.4736,-117.1633"/>
</g>
<!-- granted -->
<g id="node8" class="node">
<title>granted</title>
<ellipse fill="none" stroke="#000000" cx="75.6898" cy="-18" rx="71.7874" ry="18"/>
<text text-anchor="middle" x="75.6898" y="-13.8" font-family="Times,serif" font-size="14.00" fill="#000000">Access Granted</text>
</g>
<!-- samples__siteID_siteID__sites_where_Has_Rows&#45;&gt;granted -->
<g id="edge7" class="edge">
<title>samples__siteID_siteID__sites_where_Has_Rows&#45;&gt;granted</title>
<path fill="none" stroke="#000000" d="M257.6916,-78.1107C222.6108,-66.5244 168.8591,-48.7715 128.854,-35.5588"/>
<polygon fill="#000000" stroke="#000000" points="129.8501,-32.2019 119.2569,-32.3891 127.6548,-38.8488 129.8501,-32.2019"/>
</g>
<!-- denied -->
<g id="node10" class="node">
<title>denied</title>
<ellipse fill="none" stroke="#000000" cx="414.6898" cy="-18" rx="68.8581" ry="18"/>
<text text-anchor="middle" x="414.6898" y="-13.8" font-family="Times,serif" font-size="14.00" fill="#000000">Access Denied</text>
</g>
<!-- samples__siteID_siteID__sites_where_No_Rows&#45;&gt;denied -->
<g id="edge9" class="edge">
<title>samples__siteID_siteID__sites_where_No_Rows&#45;&gt;denied</title>
<path fill="none" stroke="#000000" d="M450.3124,-72.5708C444.7949,-64.1184 438.0495,-53.7851 431.9186,-44.3931"/>
<polygon fill="#000000" stroke="#000000" points="434.686,-42.2295 426.2889,-35.7689 428.8244,-46.0559 434.686,-42.2295"/>
</g>
<!-- samples__siteID_siteID__sites_join_No_Rows&#45;&gt;denied -->
<g id="edge11" class="edge">
<title>samples__siteID_siteID__sites_join_No_Rows&#45;&gt;denied</title>
<path fill="none" stroke="#000000" d="M619.8124,-156.7764C596.6201,-135.6481 554.4139,-98.7314 514.6898,-72 496.5683,-59.8056 475.4196,-48.0598 457.2505,-38.6549"/>
<polygon fill="#000000" stroke="#000000" points="458.5507,-35.389 448.0527,-33.9602 455.3684,-41.6239 458.5507,-35.389"/>
</g>
<!-- samples__dataID_dataID__datasets_join_Has_Rows -->
<g id="node13" class="node">
<title>samples__dataID_dataID__datasets_join_Has_Rows</title>
<ellipse fill="none" stroke="#000000" cx="200.6898" cy="-256.8313" rx="47.4704" ry="18"/>
<text text-anchor="middle" x="200.6898" y="-252.6313" font-family="Times,serif" font-size="14.00" fill="#000000">Has rows</text>
</g>
<!-- samples__dataID_dataID__datasets_join&#45;&gt;samples__dataID_dataID__datasets_join_Has_Rows -->
<g id="edge13" class="edge">
<title>samples__dataID_dataID__datasets_join&#45;&gt;samples__dataID_dataID__datasets_join_Has_Rows</title>
<path fill="none" stroke="#000000" d="M232.5243,-311.9888C226.9463,-302.3243 221.1243,-292.2368 216.0075,-283.3713"/>
<polygon fill="#000000" stroke="#000000" points="219.0005,-281.5552 210.9704,-274.6438 212.9378,-285.0543 219.0005,-281.5552"/>
</g>
<!-- samples__dataID_dataID__datasets_join_No_Rows -->
<g id="node17" class="node">
<title>samples__dataID_dataID__datasets_join_No_Rows</title>
<ellipse fill="none" stroke="#000000" cx="327.6898" cy="-256.8313" rx="44.0415" ry="18"/>
<text text-anchor="middle" x="327.6898" y="-252.6313" font-family="Times,serif" font-size="14.00" fill="#000000">No rows</text>
</g>
<!-- samples__dataID_dataID__datasets_join&#45;&gt;samples__dataID_dataID__datasets_join_No_Rows -->
<g id="edge19" class="edge">
<title>samples__dataID_dataID__datasets_join&#45;&gt;samples__dataID_dataID__datasets_join_No_Rows</title>
<path fill="none" stroke="#000000" d="M285.3907,-312.816C293.1017,-302.6101 301.2107,-291.8775 308.2426,-282.5705"/>
<polygon fill="#000000" stroke="#000000" points="311.1196,-284.5687 314.3554,-274.48 305.5345,-280.3488 311.1196,-284.5687"/>
</g>
<!-- samples__dataID_dataID__datasets_where -->
<g id="node14" class="node">
<title>samples__dataID_dataID__datasets_where</title>
<ellipse fill="none" stroke="#000000" cx="182.6898" cy="-173.4156" rx="153.1956" ry="29.3315"/>
<text text-anchor="middle" x="182.6898" y="-177.6156" font-family="Times,serif" font-size="14.00" fill="#000000">WHERE</text>
<text text-anchor="middle" x="182.6898" y="-160.8156" font-family="Times,serif" font-size="14.00" fill="#000000">datasets.dataID = &quot;NML&#45;WWPCR&quot;</text>
</g>
<!-- samples__dataID_dataID__datasets_join_Has_Rows&#45;&gt;samples__dataID_dataID__datasets_where -->
<g id="edge14" class="edge">
<title>samples__dataID_dataID__datasets_join_Has_Rows&#45;&gt;samples__dataID_dataID__datasets_where</title>
<path fill="none" stroke="#000000" d="M196.7841,-238.7313C195.1464,-231.1418 193.1731,-221.9972 191.2286,-212.986"/>
<polygon fill="#000000" stroke="#000000" points="194.5955,-211.9955 189.0648,-202.9588 187.753,-213.4721 194.5955,-211.9955"/>
</g>
<!-- samples__dataID_dataID__datasets_where_Has_Rows -->
<g id="node15" class="node">
<title>samples__dataID_dataID__datasets_where_Has_Rows</title>
<ellipse fill="none" stroke="#000000" cx="75.6898" cy="-90" rx="47.4704" ry="18"/>
<text text-anchor="middle" x="75.6898" y="-85.8" font-family="Times,serif" font-size="14.00" fill="#000000">Has rows</text>
</g>
<!-- samples__dataID_dataID__datasets_where&#45;&gt;samples__dataID_dataID__datasets_where_Has_Rows -->
<g id="edge15" class="edge">
<title>samples__dataID_dataID__datasets_where&#45;&gt;samples__dataID_dataID__datasets_where_Has_Rows</title>
<path fill="none" stroke="#000000" d="M145.8665,-144.7087C132.3782,-134.1934 117.3185,-122.4531 104.6187,-112.5525"/>
<polygon fill="#000000" stroke="#000000" points="106.6926,-109.7315 96.6541,-106.3434 102.3888,-115.2521 106.6926,-109.7315"/>
</g>
<!-- samples__dataID_dataID__datasets_where_No_Rows -->
<g id="node16" class="node">
<title>samples__dataID_dataID__datasets_where_No_Rows</title>
<ellipse fill="none" stroke="#000000" cx="184.6898" cy="-90" rx="44.0415" ry="18"/>
<text text-anchor="middle" x="184.6898" y="-85.8" font-family="Times,serif" font-size="14.00" fill="#000000">No rows</text>
</g>
<!-- samples__dataID_dataID__datasets_where&#45;&gt;samples__dataID_dataID__datasets_where_No_Rows -->
<g id="edge17" class="edge">
<title>samples__dataID_dataID__datasets_where&#45;&gt;samples__dataID_dataID__datasets_where_No_Rows</title>
<path fill="none" stroke="#000000" d="M183.4006,-143.7715C183.5973,-135.5664 183.8104,-126.6796 184.0056,-118.5388"/>
<polygon fill="#000000" stroke="#000000" points="187.5082,-118.4676 184.249,-108.3866 180.5102,-118.2998 187.5082,-118.4676"/>
</g>
<!-- samples__dataID_dataID__datasets_where_Has_Rows&#45;&gt;granted -->
<g id="edge16" class="edge">
<title>samples__dataID_dataID__datasets_where_Has_Rows&#45;&gt;granted</title>
<path fill="none" stroke="#000000" d="M75.6898,-71.8314C75.6898,-64.131 75.6898,-54.9743 75.6898,-46.4166"/>
<polygon fill="#000000" stroke="#000000" points="79.1899,-46.4132 75.6898,-36.4133 72.1899,-46.4133 79.1899,-46.4132"/>
</g>
<!-- samples__dataID_dataID__datasets_where_No_Rows&#45;&gt;denied -->
<g id="edge18" class="edge">
<title>samples__dataID_dataID__datasets_where_No_Rows&#45;&gt;denied</title>
<path fill="none" stroke="#000000" d="M218.566,-78.319C224.9093,-76.1817 231.4929,-73.9971 237.6898,-72 278.1846,-58.9499 324.1481,-44.9512 359.0863,-34.4774"/>
<polygon fill="#000000" stroke="#000000" points="360.5174,-37.7026 369.0946,-31.4831 358.511,-30.9963 360.5174,-37.7026"/>
</g>
<!-- samples__dataID_dataID__datasets_join_No_Rows&#45;&gt;denied -->
<g id="edge20" class="edge">
<title>samples__dataID_dataID__datasets_join_No_Rows&#45;&gt;denied</title>
<path fill="none" stroke="#000000" d="M334.229,-238.8801C349.3128,-197.4721 386.6257,-95.0414 404.64,-45.5887"/>
<polygon fill="#000000" stroke="#000000" points="407.9406,-46.7535 408.0748,-36.1595 401.3634,-44.3575 407.9406,-46.7535"/>
</g>
<!-- methodSets__mSRID_mSRID__samples_join_No_Rows&#45;&gt;granted -->
<g id="edge22" class="edge">
<title>methodSets__mSRID_mSRID__samples_join_No_Rows&#45;&gt;granted</title>
<path fill="none" stroke="#000000" d="M93.0164,-430.9125C61.922,-399.9794 .6898,-329.8012 .6898,-256.8313 .6898,-256.8313 .6898,-256.8313 .6898,-173.4156 .6898,-127.5578 -2.0695,-112.3667 19.6898,-72 25.7479,-60.7614 34.9678,-50.4596 44.1884,-41.9352"/>
<polygon fill="#000000" stroke="#000000" points="46.6485,-44.4332 51.8645,-35.2112 42.0361,-39.1677 46.6485,-44.4332"/>
</g>
</g>
</svg>
