<?xml version="1.0" encoding="UTF-8" standalone="no"?>
<!DOCTYPE svg PUBLIC "-//W3C//DTD SVG 1.1//EN"
 "http://www.w3.org/Graphics/SVG/1.1/DTD/svg11.dtd">
<!-- Generated by graphviz version 2.40.1 (20161225.0304)
 -->
<!-- Title: G Pages: 1 -->
<svg width="830pt" height="1403pt"
 viewBox="0.00 0.00 830.00 1402.61" xmlns="http://www.w3.org/2000/svg" xmlns:xlink="http://www.w3.org/1999/xlink">
<g id="graph0" class="graph" transform="scale(1 1) rotate(0) translate(4 1398.6129)">
<title>G</title>
<polygon fill="#ffffff" stroke="transparent" points="-4,4 -4,-1398.6129 826,-1398.6129 826,4 -4,4"/>
<!-- methodSteps -->
<g id="node1" class="node">
<title>methodSteps</title>
<ellipse fill="none" stroke="#000000" cx="364" cy="-1376.6129" rx="60.8544" ry="18"/>
<text text-anchor="middle" x="364" y="-1372.4129" font-family="Times,serif" font-size="14.00" fill="#000000">methodSteps</text>
</g>
<!-- methodSteps__orgID_orgID__organizations_join -->
<g id="node2" class="node">
<title>methodSteps__orgID_orgID__organizations_join</title>
<ellipse fill="none" stroke="#000000" cx="364" cy="-1281.3179" rx="114.8569" ry="41.0911"/>
<text text-anchor="middle" x="364" y="-1293.9179" font-family="Times,serif" font-size="14.00" fill="#000000">LEFT JOIN organizations</text>
<text text-anchor="middle" x="364" y="-1277.1179" font-family="Times,serif" font-size="14.00" fill="#000000">At level: 5</text>
<text text-anchor="middle" x="364" y="-1260.3179" font-family="Times,serif" font-size="14.00" fill="#000000">Required: true</text>
</g>
<!-- methodSteps&#45;&gt;methodSteps__orgID_orgID__organizations_join -->
<g id="edge1" class="edge">
<title>methodSteps&#45;&gt;methodSteps__orgID_orgID__organizations_join</title>
<path fill="none" stroke="#000000" d="M364,-1358.2391C364,-1350.93 364,-1342.1204 364,-1333.1116"/>
<polygon fill="#000000" stroke="#000000" points="367.5001,-1332.925 364,-1322.9251 360.5001,-1332.9251 367.5001,-1332.925"/>
</g>
<!-- methodSteps__orgID_orgID__organizations_join_Has_Rows -->
<g id="node3" class="node">
<title>methodSteps__orgID_orgID__organizations_join_Has_Rows</title>
<ellipse fill="none" stroke="#000000" cx="327" cy="-1186.0229" rx="47.4704" ry="18"/>
<text text-anchor="middle" x="327" y="-1181.8229" font-family="Times,serif" font-size="14.00" fill="#000000">Has rows</text>
</g>
<!-- methodSteps__orgID_orgID__organizations_join&#45;&gt;methodSteps__orgID_orgID__organizations_join_Has_Rows -->
<g id="edge2" class="edge">
<title>methodSteps__orgID_orgID__organizations_join&#45;&gt;methodSteps__orgID_orgID__organizations_join_Has_Rows</title>
<path fill="none" stroke="#000000" d="M348.0939,-1240.3512C344.5463,-1231.2142 340.8689,-1221.7428 337.5975,-1213.3171"/>
<polygon fill="#000000" stroke="#000000" points="340.8579,-1212.0443 333.9757,-1203.9891 334.3325,-1214.5779 340.8579,-1212.0443"/>
</g>
<!-- methodSteps__orgID_orgID__organizations_join_No_Rows -->
<g id="node30" class="node">
<title>methodSteps__orgID_orgID__organizations_join_No_Rows</title>
<ellipse fill="none" stroke="#000000" cx="600" cy="-1090.7278" rx="44.0415" ry="18"/>
<text text-anchor="middle" x="600" y="-1086.5278" font-family="Times,serif" font-size="14.00" fill="#000000">No rows</text>
</g>
<!-- methodSteps__orgID_orgID__organizations_join&#45;&gt;methodSteps__orgID_orgID__organizations_join_No_Rows -->
<g id="edge37" class="edge">
<title>methodSteps__orgID_orgID__organizations_join&#45;&gt;methodSteps__orgID_orgID__organizations_join_No_Rows</title>
<path fill="none" stroke="#000000" d="M410.9082,-1243.4356C458.9734,-1204.6188 532.1283,-1145.54 571.8865,-1113.4318"/>
<polygon fill="#000000" stroke="#000000" points="574.2617,-1116.0125 579.8425,-1107.0067 569.8637,-1110.5666 574.2617,-1116.0125"/>
</g>
<!-- organizations__addID_addID__addresses_join -->
<g id="node4" class="node">
<title>organizations__addID_addID__addresses_join</title>
<ellipse fill="none" stroke="#000000" cx="284" cy="-1090.7278" rx="99.0518" ry="41.0911"/>
<text text-anchor="middle" x="284" y="-1103.3278" font-family="Times,serif" font-size="14.00" fill="#000000">LEFT JOIN addresses</text>
<text text-anchor="middle" x="284" y="-1086.5278" font-family="Times,serif" font-size="14.00" fill="#000000">At level: 4</text>
<text text-anchor="middle" x="284" y="-1069.7278" font-family="Times,serif" font-size="14.00" fill="#000000">Required: false</text>
</g>
<!-- methodSteps__orgID_orgID__organizations_join_Has_Rows&#45;&gt;organizations__addID_addID__addresses_join -->
<g id="edge3" class="edge">
<title>methodSteps__orgID_orgID__organizations_join_Has_Rows&#45;&gt;organizations__addID_addID__addresses_join</title>
<path fill="none" stroke="#000000" d="M318.912,-1168.0986C315.3723,-1160.2539 311.0249,-1150.6195 306.6149,-1140.8461"/>
<polygon fill="#000000" stroke="#000000" points="309.6951,-1139.1625 302.3918,-1131.487 303.3146,-1142.0416 309.6951,-1139.1625"/>
</g>
<!-- organizations__addID_addID__addresses_join_Has_Rows -->
<g id="node5" class="node">
<title>organizations__addID_addID__addresses_join_Has_Rows</title>
<ellipse fill="none" stroke="#000000" cx="284" cy="-995.4328" rx="47.4704" ry="18"/>
<text text-anchor="middle" x="284" y="-991.2328" font-family="Times,serif" font-size="14.00" fill="#000000">Has rows</text>
</g>
<!-- organizations__addID_addID__addresses_join&#45;&gt;organizations__addID_addID__addresses_join_Has_Rows -->
<g id="edge4" class="edge">
<title>organizations__addID_addID__addresses_join&#45;&gt;organizations__addID_addID__addresses_join_Has_Rows</title>
<path fill="none" stroke="#000000" d="M284,-1049.2072C284,-1040.6556 284,-1031.8362 284,-1023.8757"/>
<polygon fill="#000000" stroke="#000000" points="287.5001,-1023.6587 284,-1013.6587 280.5001,-1023.6587 287.5001,-1023.6587"/>
</g>
<!-- organizations__addID_addID__addresses_join_No_Rows -->
<g id="node29" class="node">
<title>organizations__addID_addID__addresses_join_No_Rows</title>
<ellipse fill="none" stroke="#000000" cx="69" cy="-900.1377" rx="44.0415" ry="18"/>
<text text-anchor="middle" x="69" y="-895.9377" font-family="Times,serif" font-size="14.00" fill="#000000">No rows</text>
</g>
<!-- organizations__addID_addID__addresses_join&#45;&gt;organizations__addID_addID__addresses_join_No_Rows -->
<g id="edge35" class="edge">
<title>organizations__addID_addID__addresses_join&#45;&gt;organizations__addID_addID__addresses_join_No_Rows</title>
<path fill="none" stroke="#000000" d="M241.7794,-1053.3008C198.2347,-1014.6999 131.6915,-955.7116 95.1988,-923.3621"/>
<polygon fill="#000000" stroke="#000000" points="97.2624,-920.5142 87.4575,-916.4997 92.6189,-925.7523 97.2624,-920.5142"/>
</g>
<!-- addresses__addID_addID__sites_join -->
<g id="node6" class="node">
<title>addresses__addID_addID__sites_join</title>
<ellipse fill="none" stroke="#000000" cx="284" cy="-900.1377" rx="78.8882" ry="41.0911"/>
<text text-anchor="middle" x="284" y="-912.7377" font-family="Times,serif" font-size="14.00" fill="#000000">LEFT JOIN sites</text>
<text text-anchor="middle" x="284" y="-895.9377" font-family="Times,serif" font-size="14.00" fill="#000000">At level: 3</text>
<text text-anchor="middle" x="284" y="-879.1377" font-family="Times,serif" font-size="14.00" fill="#000000">Required: false</text>
</g>
<!-- organizations__addID_addID__addresses_join_Has_Rows&#45;&gt;addresses__addID_addID__sites_join -->
<g id="edge5" class="edge">
<title>organizations__addID_addID__addresses_join_Has_Rows&#45;&gt;addresses__addID_addID__sites_join</title>
<path fill="none" stroke="#000000" d="M284,-977.0589C284,-969.7498 284,-960.9402 284,-951.9314"/>
<polygon fill="#000000" stroke="#000000" points="287.5001,-951.7449 284,-941.7449 280.5001,-951.745 287.5001,-951.7449"/>
</g>
<!-- addresses__addID_addID__sites_join_Has_Rows -->
<g id="node7" class="node">
<title>addresses__addID_addID__sites_join_Has_Rows</title>
<ellipse fill="none" stroke="#000000" cx="293" cy="-804.8427" rx="47.4704" ry="18"/>
<text text-anchor="middle" x="293" y="-800.6427" font-family="Times,serif" font-size="14.00" fill="#000000">Has rows</text>
</g>
<!-- addresses__addID_addID__sites_join&#45;&gt;addresses__addID_addID__sites_join_Has_Rows -->
<g id="edge6" class="edge">
<title>addresses__addID_addID__sites_join&#45;&gt;addresses__addID_addID__sites_join_Has_Rows</title>
<path fill="none" stroke="#000000" d="M287.9213,-858.6172C288.729,-850.0655 289.5619,-841.2461 290.3138,-833.2856"/>
<polygon fill="#000000" stroke="#000000" points="293.8228,-833.3534 291.2787,-823.0686 286.8538,-832.6952 293.8228,-833.3534"/>
</g>
<!-- addresses__addID_addID__sites_join_No_Rows -->
<g id="node28" class="node">
<title>addresses__addID_addID__sites_join_No_Rows</title>
<ellipse fill="none" stroke="#000000" cx="108" cy="-721.4271" rx="44.0415" ry="18"/>
<text text-anchor="middle" x="108" y="-717.2271" font-family="Times,serif" font-size="14.00" fill="#000000">No rows</text>
</g>
<!-- addresses__addID_addID__sites_join&#45;&gt;addresses__addID_addID__sites_join_No_Rows -->
<g id="edge33" class="edge">
<title>addresses__addID_addID__sites_join&#45;&gt;addresses__addID_addID__sites_join_No_Rows</title>
<path fill="none" stroke="#000000" d="M247.5327,-863.1088C212.8179,-827.8593 161.5833,-775.8357 131.8199,-745.6139"/>
<polygon fill="#000000" stroke="#000000" points="134.2493,-743.0926 124.7387,-738.4236 129.2618,-748.0044 134.2493,-743.0926"/>
</g>
<!-- addresses__addID_addID__sites_where -->
<g id="node8" class="node">
<title>addresses__addID_addID__sites_where</title>
<ellipse fill="none" stroke="#000000" cx="297" cy="-721.4271" rx="92.1488" ry="29.3315"/>
<text text-anchor="middle" x="297" y="-725.6271" font-family="Times,serif" font-size="14.00" fill="#000000">WHERE</text>
<text text-anchor="middle" x="297" y="-708.8271" font-family="Times,serif" font-size="14.00" fill="#000000">sites.siteID = &quot;HNJ&quot;</text>
</g>
<!-- addresses__addID_addID__sites_join_Has_Rows&#45;&gt;addresses__addID_addID__sites_where -->
<g id="edge7" class="edge">
<title>addresses__addID_addID__sites_join_Has_Rows&#45;&gt;addresses__addID_addID__sites_where</title>
<path fill="none" stroke="#000000" d="M293.8679,-786.7428C294.2319,-779.1532 294.6704,-770.0087 295.1025,-760.9975"/>
<polygon fill="#000000" stroke="#000000" points="298.6002,-761.1264 295.5833,-750.9702 291.6083,-760.7911 298.6002,-761.1264"/>
</g>
<!-- addresses__addID_addID__sites_where_Has_Rows -->
<g id="node9" class="node">
<title>addresses__addID_addID__sites_where_Has_Rows</title>
<ellipse fill="none" stroke="#000000" cx="297" cy="-638.0114" rx="47.4704" ry="18"/>
<text text-anchor="middle" x="297" y="-633.8114" font-family="Times,serif" font-size="14.00" fill="#000000">Has rows</text>
</g>
<!-- addresses__addID_addID__sites_where&#45;&gt;addresses__addID_addID__sites_where_Has_Rows -->
<g id="edge8" class="edge">
<title>addresses__addID_addID__sites_where&#45;&gt;addresses__addID_addID__sites_where_Has_Rows</title>
<path fill="none" stroke="#000000" d="M297,-691.783C297,-683.5778 297,-674.691 297,-666.5502"/>
<polygon fill="#000000" stroke="#000000" points="300.5001,-666.398 297,-656.398 293.5001,-666.398 300.5001,-666.398"/>
</g>
<!-- addresses__addID_addID__sites_where_No_Rows -->
<g id="node27" class="node">
<title>addresses__addID_addID__sites_where_No_Rows</title>
<ellipse fill="none" stroke="#000000" cx="602" cy="-542.7164" rx="44.0415" ry="18"/>
<text text-anchor="middle" x="602" y="-538.5164" font-family="Times,serif" font-size="14.00" fill="#000000">No rows</text>
</g>
<!-- addresses__addID_addID__sites_where&#45;&gt;addresses__addID_addID__sites_where_No_Rows -->
<g id="edge31" class="edge">
<title>addresses__addID_addID__sites_where&#45;&gt;addresses__addID_addID__sites_where_No_Rows</title>
<path fill="none" stroke="#000000" d="M341.3496,-695.441C402.6993,-659.494 512.1602,-595.3568 567.6778,-562.8271"/>
<polygon fill="#000000" stroke="#000000" points="569.572,-565.7737 576.4306,-557.6984 566.0332,-559.7341 569.572,-565.7737"/>
</g>
<!-- sites__siteID_siteID__samples_join -->
<g id="node10" class="node">
<title>sites__siteID_siteID__samples_join</title>
<ellipse fill="none" stroke="#000000" cx="297" cy="-542.7164" rx="93.4765" ry="41.0911"/>
<text text-anchor="middle" x="297" y="-555.3164" font-family="Times,serif" font-size="14.00" fill="#000000">LEFT JOIN samples</text>
<text text-anchor="middle" x="297" y="-538.5164" font-family="Times,serif" font-size="14.00" fill="#000000">At level: 2</text>
<text text-anchor="middle" x="297" y="-521.7164" font-family="Times,serif" font-size="14.00" fill="#000000">Required: true</text>
</g>
<!-- addresses__addID_addID__sites_where_Has_Rows&#45;&gt;sites__siteID_siteID__samples_join -->
<g id="edge9" class="edge">
<title>addresses__addID_addID__sites_where_Has_Rows&#45;&gt;sites__siteID_siteID__samples_join</title>
<path fill="none" stroke="#000000" d="M297,-619.6376C297,-612.3285 297,-603.5189 297,-594.5101"/>
<polygon fill="#000000" stroke="#000000" points="300.5001,-594.3235 297,-584.3236 293.5001,-594.3236 300.5001,-594.3235"/>
</g>
<!-- sites__siteID_siteID__samples_join_Has_Rows -->
<g id="node11" class="node">
<title>sites__siteID_siteID__samples_join_Has_Rows</title>
<ellipse fill="none" stroke="#000000" cx="314" cy="-447.4214" rx="47.4704" ry="18"/>
<text text-anchor="middle" x="314" y="-443.2214" font-family="Times,serif" font-size="14.00" fill="#000000">Has rows</text>
</g>
<!-- sites__siteID_siteID__samples_join&#45;&gt;sites__siteID_siteID__samples_join_Has_Rows -->
<g id="edge10" class="edge">
<title>sites__siteID_siteID__samples_join&#45;&gt;sites__siteID_siteID__samples_join_Has_Rows</title>
<path fill="none" stroke="#000000" d="M304.3576,-501.4728C305.9049,-492.7989 307.5038,-483.8366 308.9439,-475.764"/>
<polygon fill="#000000" stroke="#000000" points="312.4172,-476.2227 310.7279,-465.7635 305.526,-474.9933 312.4172,-476.2227"/>
</g>
<!-- sites__siteID_siteID__samples_join_No_Rows -->
<g id="node26" class="node">
<title>sites__siteID_siteID__samples_join_No_Rows</title>
<ellipse fill="none" stroke="#000000" cx="157" cy="-447.4214" rx="44.0415" ry="18"/>
<text text-anchor="middle" x="157" y="-443.2214" font-family="Times,serif" font-size="14.00" fill="#000000">No rows</text>
</g>
<!-- sites__siteID_siteID__samples_join&#45;&gt;sites__siteID_siteID__samples_join_No_Rows -->
<g id="edge29" class="edge">
<title>sites__siteID_siteID__samples_join&#45;&gt;sites__siteID_siteID__samples_join_No_Rows</title>
<path fill="none" stroke="#000000" d="M246.0608,-508.0431C226.7533,-494.901 205.3517,-480.3333 188.3678,-468.7727"/>
<polygon fill="#000000" stroke="#000000" points="190.1596,-465.7585 179.9235,-463.0249 186.2207,-471.5452 190.1596,-465.7585"/>
</g>
<!-- samples__siteID_siteID__sites_join -->
<g id="node12" class="node">
<title>samples__siteID_siteID__sites_join</title>
<ellipse fill="none" stroke="#000000" cx="314" cy="-352.1263" rx="78.8882" ry="41.0911"/>
<text text-anchor="middle" x="314" y="-364.7263" font-family="Times,serif" font-size="14.00" fill="#000000">LEFT JOIN sites</text>
<text text-anchor="middle" x="314" y="-347.9263" font-family="Times,serif" font-size="14.00" fill="#000000">At level: 1</text>
<text text-anchor="middle" x="314" y="-331.1263" font-family="Times,serif" font-size="14.00" fill="#000000">Required: true</text>
</g>
<!-- sites__siteID_siteID__samples_join_Has_Rows&#45;&gt;samples__siteID_siteID__sites_join -->
<g id="edge11" class="edge">
<title>sites__siteID_siteID__samples_join_Has_Rows&#45;&gt;samples__siteID_siteID__sites_join</title>
<path fill="none" stroke="#000000" d="M314,-429.0475C314,-421.7384 314,-412.9288 314,-403.92"/>
<polygon fill="#000000" stroke="#000000" points="317.5001,-403.7335 314,-393.7335 310.5001,-403.7335 317.5001,-403.7335"/>
</g>
<!-- samples__dataID_dataID__datasets_join -->
<g id="node20" class="node">
<title>samples__dataID_dataID__datasets_join</title>
<ellipse fill="none" stroke="#000000" cx="565" cy="-352.1263" rx="92.8656" ry="41.0911"/>
<text text-anchor="middle" x="565" y="-364.7263" font-family="Times,serif" font-size="14.00" fill="#000000">LEFT JOIN datasets</text>
<text text-anchor="middle" x="565" y="-347.9263" font-family="Times,serif" font-size="14.00" fill="#000000">At level: 1</text>
<text text-anchor="middle" x="565" y="-331.1263" font-family="Times,serif" font-size="14.00" fill="#000000">Required: true</text>
</g>
<!-- sites__siteID_siteID__samples_join_Has_Rows&#45;&gt;samples__dataID_dataID__datasets_join -->
<g id="edge20" class="edge">
<title>sites__siteID_siteID__samples_join_Has_Rows&#45;&gt;samples__dataID_dataID__datasets_join</title>
<path fill="none" stroke="#000000" d="M347.5905,-434.6683C382.5209,-421.4066 438.479,-400.1615 484.8757,-382.5464"/>
<polygon fill="#000000" stroke="#000000" points="486.2123,-385.7828 494.3188,-378.9612 483.7276,-379.2386 486.2123,-385.7828"/>
</g>
<!-- samples__siteID_siteID__sites_join_Has_Rows -->
<g id="node13" class="node">
<title>samples__siteID_siteID__sites_join_Has_Rows</title>
<ellipse fill="none" stroke="#000000" cx="234" cy="-256.8313" rx="47.4704" ry="18"/>
<text text-anchor="middle" x="234" y="-252.6313" font-family="Times,serif" font-size="14.00" fill="#000000">Has rows</text>
</g>
<!-- samples__siteID_siteID__sites_join&#45;&gt;samples__siteID_siteID__sites_join_Has_Rows -->
<g id="edge12" class="edge">
<title>samples__siteID_siteID__sites_join&#45;&gt;samples__siteID_siteID__sites_join_Has_Rows</title>
<path fill="none" stroke="#000000" d="M282.152,-314.1894C273.0289,-303.322 263.3149,-291.7509 255.019,-281.8689"/>
<polygon fill="#000000" stroke="#000000" points="257.5384,-279.4264 248.428,-274.0178 252.1771,-283.9272 257.5384,-279.4264"/>
</g>
<!-- samples__siteID_siteID__sites_join_No_Rows -->
<g id="node19" class="node">
<title>samples__siteID_siteID__sites_join_No_Rows</title>
<ellipse fill="none" stroke="#000000" cx="350" cy="-173.4156" rx="44.0415" ry="18"/>
<text text-anchor="middle" x="350" y="-169.2156" font-family="Times,serif" font-size="14.00" fill="#000000">No rows</text>
</g>
<!-- samples__siteID_siteID__sites_join&#45;&gt;samples__siteID_siteID__sites_join_No_Rows -->
<g id="edge18" class="edge">
<title>samples__siteID_siteID__sites_join&#45;&gt;samples__siteID_siteID__sites_join_No_Rows</title>
<path fill="none" stroke="#000000" d="M322.3496,-310.6773C329.0833,-277.2499 338.3752,-231.1233 344.2861,-201.7807"/>
<polygon fill="#000000" stroke="#000000" points="347.756,-202.2785 346.2998,-191.7843 340.8939,-200.8962 347.756,-202.2785"/>
</g>
<!-- samples__siteID_siteID__sites_where -->
<g id="node14" class="node">
<title>samples__siteID_siteID__sites_where</title>
<ellipse fill="none" stroke="#000000" cx="196" cy="-173.4156" rx="92.1488" ry="29.3315"/>
<text text-anchor="middle" x="196" y="-177.6156" font-family="Times,serif" font-size="14.00" fill="#000000">WHERE</text>
<text text-anchor="middle" x="196" y="-160.8156" font-family="Times,serif" font-size="14.00" fill="#000000">sites.siteID = &quot;HNJ&quot;</text>
</g>
<!-- samples__siteID_siteID__sites_join_Has_Rows&#45;&gt;samples__siteID_siteID__sites_where -->
<g id="edge13" class="edge">
<title>samples__siteID_siteID__sites_join_Has_Rows&#45;&gt;samples__siteID_siteID__sites_where</title>
<path fill="none" stroke="#000000" d="M225.7546,-238.7313C222.1529,-230.8251 217.7824,-221.2313 213.5128,-211.8588"/>
<polygon fill="#000000" stroke="#000000" points="216.6396,-210.2799 209.3089,-202.6307 210.2695,-213.1819 216.6396,-210.2799"/>
</g>
<!-- samples__siteID_siteID__sites_where_Has_Rows -->
<g id="node15" class="node">
<title>samples__siteID_siteID__sites_where_Has_Rows</title>
<ellipse fill="none" stroke="#000000" cx="160" cy="-90" rx="47.4704" ry="18"/>
<text text-anchor="middle" x="160" y="-85.8" font-family="Times,serif" font-size="14.00" fill="#000000">Has rows</text>
</g>
<!-- samples__siteID_siteID__sites_where&#45;&gt;samples__siteID_siteID__sites_where_Has_Rows -->
<g id="edge14" class="edge">
<title>samples__siteID_siteID__sites_where&#45;&gt;samples__siteID_siteID__sites_where_Has_Rows</title>
<path fill="none" stroke="#000000" d="M183.4089,-144.2409C179.6376,-135.5023 175.517,-125.9545 171.7986,-117.3387"/>
<polygon fill="#000000" stroke="#000000" points="174.9875,-115.8945 167.8115,-108.1 168.5605,-118.6683 174.9875,-115.8945"/>
</g>
<!-- samples__siteID_siteID__sites_where_No_Rows -->
<g id="node17" class="node">
<title>samples__siteID_siteID__sites_where_No_Rows</title>
<ellipse fill="none" stroke="#000000" cx="273" cy="-90" rx="44.0415" ry="18"/>
<text text-anchor="middle" x="273" y="-85.8" font-family="Times,serif" font-size="14.00" fill="#000000">No rows</text>
</g>
<!-- samples__siteID_siteID__sites_where&#45;&gt;samples__siteID_siteID__sites_where_No_Rows -->
<g id="edge16" class="edge">
<title>samples__siteID_siteID__sites_where&#45;&gt;samples__siteID_siteID__sites_where_No_Rows</title>
<path fill="none" stroke="#000000" d="M222.0687,-145.1749C231.295,-135.1799 241.5882,-124.029 250.4932,-114.3821"/>
<polygon fill="#000000" stroke="#000000" points="253.0792,-116.7407 257.2902,-107.0187 247.9356,-111.9927 253.0792,-116.7407"/>
</g>
<!-- granted -->
<g id="node16" class="node">
<title>granted</title>
<ellipse fill="none" stroke="#000000" cx="99" cy="-18" rx="71.7874" ry="18"/>
<text text-anchor="middle" x="99" y="-13.8" font-family="Times,serif" font-size="14.00" fill="#000000">Access Granted</text>
</g>
<!-- samples__siteID_siteID__sites_where_Has_Rows&#45;&gt;granted -->
<g id="edge15" class="edge">
<title>samples__siteID_siteID__sites_where_Has_Rows&#45;&gt;granted</title>
<path fill="none" stroke="#000000" d="M145.2336,-72.5708C137.851,-63.857 128.7749,-53.1441 120.6249,-43.5244"/>
<polygon fill="#000000" stroke="#000000" points="123.1888,-41.1363 114.0542,-35.7689 117.8479,-45.6612 123.1888,-41.1363"/>
</g>
<!-- denied -->
<g id="node18" class="node">
<title>denied</title>
<ellipse fill="none" stroke="#000000" cx="565" cy="-18" rx="68.8581" ry="18"/>
<text text-anchor="middle" x="565" y="-13.8" font-family="Times,serif" font-size="14.00" fill="#000000">Access Denied</text>
</g>
<!-- samples__siteID_siteID__sites_where_No_Rows&#45;&gt;denied -->
<g id="edge17" class="edge">
<title>samples__siteID_siteID__sites_where_No_Rows&#45;&gt;denied</title>
<path fill="none" stroke="#000000" d="M310.5692,-80.411C321.3579,-77.6748 333.141,-74.7031 344,-72 398.3393,-58.4735 460.2743,-43.3668 504.725,-32.5791"/>
<polygon fill="#000000" stroke="#000000" points="505.6065,-35.9668 514.4996,-30.2081 503.9564,-29.1641 505.6065,-35.9668"/>
</g>
<!-- samples__siteID_siteID__sites_join_No_Rows&#45;&gt;denied -->
<g id="edge19" class="edge">
<title>samples__siteID_siteID__sites_join_No_Rows&#45;&gt;denied</title>
<path fill="none" stroke="#000000" d="M351.3211,-155.3836C353.9428,-132.7843 361.7543,-94.3148 385,-72 401.7394,-55.9309 455.448,-41.0476 499.8752,-30.9932"/>
<polygon fill="#000000" stroke="#000000" points="500.7717,-34.3795 509.7761,-28.7964 499.2553,-27.5457 500.7717,-34.3795"/>
</g>
<!-- samples__dataID_dataID__datasets_join_Has_Rows -->
<g id="node21" class="node">
<title>samples__dataID_dataID__datasets_join_Has_Rows</title>
<ellipse fill="none" stroke="#000000" cx="565" cy="-256.8313" rx="47.4704" ry="18"/>
<text text-anchor="middle" x="565" y="-252.6313" font-family="Times,serif" font-size="14.00" fill="#000000">Has rows</text>
</g>
<!-- samples__dataID_dataID__datasets_join&#45;&gt;samples__dataID_dataID__datasets_join_Has_Rows -->
<g id="edge21" class="edge">
<title>samples__dataID_dataID__datasets_join&#45;&gt;samples__dataID_dataID__datasets_join_Has_Rows</title>
<path fill="none" stroke="#000000" d="M565,-310.6057C565,-302.0541 565,-293.2347 565,-285.2742"/>
<polygon fill="#000000" stroke="#000000" points="568.5001,-285.0572 565,-275.0572 561.5001,-285.0572 568.5001,-285.0572"/>
</g>
<!-- samples__dataID_dataID__datasets_join_No_Rows -->
<g id="node25" class="node">
<title>samples__dataID_dataID__datasets_join_No_Rows</title>
<ellipse fill="none" stroke="#000000" cx="693" cy="-256.8313" rx="44.0415" ry="18"/>
<text text-anchor="middle" x="693" y="-252.6313" font-family="Times,serif" font-size="14.00" fill="#000000">No rows</text>
</g>
<!-- samples__dataID_dataID__datasets_join&#45;&gt;samples__dataID_dataID__datasets_join_No_Rows -->
<g id="edge27" class="edge">
<title>samples__dataID_dataID__datasets_join&#45;&gt;samples__dataID_dataID__datasets_join_No_Rows</title>
<path fill="none" stroke="#000000" d="M612.6625,-316.642C629.6558,-303.9906 648.296,-290.1131 663.3398,-278.9131"/>
<polygon fill="#000000" stroke="#000000" points="665.8111,-281.4367 671.7422,-272.6576 661.6309,-275.8219 665.8111,-281.4367"/>
</g>
<!-- samples__dataID_dataID__datasets_where -->
<g id="node22" class="node">
<title>samples__dataID_dataID__datasets_where</title>
<ellipse fill="none" stroke="#000000" cx="565" cy="-173.4156" rx="153.1956" ry="29.3315"/>
<text text-anchor="middle" x="565" y="-177.6156" font-family="Times,serif" font-size="14.00" fill="#000000">WHERE</text>
<text text-anchor="middle" x="565" y="-160.8156" font-family="Times,serif" font-size="14.00" fill="#000000">datasets.dataID = &quot;NML&#45;WWPCR&quot;</text>
</g>
<!-- samples__dataID_dataID__datasets_join_Has_Rows&#45;&gt;samples__dataID_dataID__datasets_where -->
<g id="edge22" class="edge">
<title>samples__dataID_dataID__datasets_join_Has_Rows&#45;&gt;samples__dataID_dataID__datasets_where</title>
<path fill="none" stroke="#000000" d="M565,-238.7313C565,-231.1418 565,-221.9972 565,-212.986"/>
<polygon fill="#000000" stroke="#000000" points="568.5001,-212.9587 565,-202.9588 561.5001,-212.9588 568.5001,-212.9587"/>
</g>
<!-- samples__dataID_dataID__datasets_where_Has_Rows -->
<g id="node23" class="node">
<title>samples__dataID_dataID__datasets_where_Has_Rows</title>
<ellipse fill="none" stroke="#000000" cx="441" cy="-90" rx="47.4704" ry="18"/>
<text text-anchor="middle" x="441" y="-85.8" font-family="Times,serif" font-size="14.00" fill="#000000">Has rows</text>
</g>
<!-- samples__dataID_dataID__datasets_where&#45;&gt;samples__dataID_dataID__datasets_where_Has_Rows -->
<g id="edge23" class="edge">
<title>samples__dataID_dataID__datasets_where&#45;&gt;samples__dataID_dataID__datasets_where_Has_Rows</title>
<path fill="none" stroke="#000000" d="M522.6731,-144.942C506.3686,-133.9739 488.0391,-121.6435 472.8818,-111.4471"/>
<polygon fill="#000000" stroke="#000000" points="474.6142,-108.3943 464.3633,-105.7166 470.707,-114.2024 474.6142,-108.3943"/>
</g>
<!-- samples__dataID_dataID__datasets_where_No_Rows -->
<g id="node24" class="node">
<title>samples__dataID_dataID__datasets_where_No_Rows</title>
<ellipse fill="none" stroke="#000000" cx="565" cy="-90" rx="44.0415" ry="18"/>
<text text-anchor="middle" x="565" y="-85.8" font-family="Times,serif" font-size="14.00" fill="#000000">No rows</text>
</g>
<!-- samples__dataID_dataID__datasets_where&#45;&gt;samples__dataID_dataID__datasets_where_No_Rows -->
<g id="edge25" class="edge">
<title>samples__dataID_dataID__datasets_where&#45;&gt;samples__dataID_dataID__datasets_where_No_Rows</title>
<path fill="none" stroke="#000000" d="M565,-143.7715C565,-135.5664 565,-126.6796 565,-118.5388"/>
<polygon fill="#000000" stroke="#000000" points="568.5001,-118.3865 565,-108.3866 561.5001,-118.3866 568.5001,-118.3865"/>
</g>
<!-- samples__dataID_dataID__datasets_where_Has_Rows&#45;&gt;granted -->
<g id="edge24" class="edge">
<title>samples__dataID_dataID__datasets_where_Has_Rows&#45;&gt;granted</title>
<path fill="none" stroke="#000000" d="M399.406,-81.2434C340.7849,-68.9021 233.3013,-46.274 164.0593,-31.6967"/>
<polygon fill="#000000" stroke="#000000" points="164.6377,-28.2418 154.1311,-29.6065 163.1955,-35.0917 164.6377,-28.2418"/>
</g>
<!-- samples__dataID_dataID__datasets_where_No_Rows&#45;&gt;denied -->
<g id="edge26" class="edge">
<title>samples__dataID_dataID__datasets_where_No_Rows&#45;&gt;denied</title>
<path fill="none" stroke="#000000" d="M565,-71.8314C565,-64.131 565,-54.9743 565,-46.4166"/>
<polygon fill="#000000" stroke="#000000" points="568.5001,-46.4132 565,-36.4133 561.5001,-46.4133 568.5001,-46.4132"/>
</g>
<!-- samples__dataID_dataID__datasets_join_No_Rows&#45;&gt;denied -->
<g id="edge28" class="edge">
<title>samples__dataID_dataID__datasets_join_No_Rows&#45;&gt;denied</title>
<path fill="none" stroke="#000000" d="M707.4041,-239.574C714.8326,-229.5338 723.1295,-216.2429 727,-202.8313 734.2501,-177.7093 738.4878,-167.4885 727,-144 702.7251,-94.3666 648.4182,-58.6313 609.369,-38.1682"/>
<polygon fill="#000000" stroke="#000000" points="610.7937,-34.9659 600.295,-33.5418 607.6142,-41.2022 610.7937,-34.9659"/>
</g>
<!-- sites__siteID_siteID__samples_join_No_Rows&#45;&gt;denied -->
<g id="edge30" class="edge">
<title>sites__siteID_siteID__samples_join_No_Rows&#45;&gt;denied</title>
<path fill="none" stroke="#000000" d="M143.9859,-430.0809C121.0891,-397.7958 76,-325.5012 76,-256.8313 76,-256.8313 76,-256.8313 76,-173.4156 76,-126.6557 68.5089,-102.4446 104,-72 132.4807,-47.5689 363.5659,-30.1025 487.3511,-22.3994"/>
<polygon fill="#000000" stroke="#000000" points="487.7635,-25.8808 497.5296,-21.773 487.3334,-18.894 487.7635,-25.8808"/>
</g>
<!-- addresses__addID_addID__sites_where_No_Rows&#45;&gt;denied -->
<g id="edge32" class="edge">
<title>addresses__addID_addID__sites_where_No_Rows&#45;&gt;denied</title>
<path fill="none" stroke="#000000" d="M631.2414,-528.9957C682.6886,-502.5952 784,-439.5125 784,-352.1263 784,-352.1263 784,-352.1263 784,-173.4156 784,-95.4785 690.6159,-53.0565 625.8077,-33.0001"/>
<polygon fill="#000000" stroke="#000000" points="626.653,-29.5998 616.0694,-30.0864 624.6465,-36.306 626.653,-29.5998"/>
</g>
<!-- addresses__addID_addID__sites_join_No_Rows&#45;&gt;granted -->
<g id="edge34" class="edge">
<title>addresses__addID_addID__sites_join_No_Rows&#45;&gt;granted</title>
<path fill="none" stroke="#000000" d="M96.1255,-704.0525C76.1541,-673.089 38,-605.6937 38,-542.7164 38,-542.7164 38,-542.7164 38,-173.4156 38,-125.3445 63.6005,-74.3321 81.6321,-44.3638"/>
<polygon fill="#000000" stroke="#000000" points="84.6664,-46.1116 86.9484,-35.7655 78.7125,-42.4304 84.6664,-46.1116"/>
</g>
<!-- organizations__addID_addID__addresses_join_No_Rows&#45;&gt;granted -->
<g id="edge36" class="edge">
<title>organizations__addID_addID__addresses_join_No_Rows&#45;&gt;granted</title>
<path fill="none" stroke="#000000" d="M57.2951,-882.7387C37.6091,-851.7374 0,-784.2855 0,-721.4271 0,-721.4271 0,-721.4271 0,-173.4156 0,-120.2616 41.7031,-70.6372 70.9759,-42.3515"/>
<polygon fill="#000000" stroke="#000000" points="73.5971,-44.6912 78.4871,-35.2924 68.8032,-39.5903 73.5971,-44.6912"/>
</g>
<!-- methodSteps__orgID_orgID__organizations_join_No_Rows&#45;&gt;denied -->
<g id="edge38" class="edge">
<title>methodSteps__orgID_orgID__organizations_join_No_Rows&#45;&gt;denied</title>
<path fill="none" stroke="#000000" d="M634.6875,-1079.235C697.125,-1056.1096 822,-997.6676 822,-900.1377 822,-900.1377 822,-900.1377 822,-173.4156 822,-85.4641 710.4258,-45.9417 634.3085,-29.2125"/>
<polygon fill="#000000" stroke="#000000" points="634.7912,-25.7373 624.2837,-27.0947 633.3443,-32.5861 634.7912,-25.7373"/>
</g>
</g>
</svg>
