<?xml version="1.0" encoding="UTF-8" standalone="no"?>
<!DOCTYPE svg PUBLIC "-//W3C//DTD SVG 1.1//EN"
 "http://www.w3.org/Graphics/SVG/1.1/DTD/svg11.dtd">
<!-- Generated by graphviz version 2.40.1 (20161225.0304)
 -->
<!-- Title: G Pages: 1 -->
<svg width="840pt" height="664pt"
 viewBox="0.00 0.00 840.02 664.01" xmlns="http://www.w3.org/2000/svg" xmlns:xlink="http://www.w3.org/1999/xlink">
<g id="graph0" class="graph" transform="scale(1 1) rotate(0) translate(4 660.0114)">
<title>G</title>
<polygon fill="#ffffff" stroke="transparent" points="-4,4 -4,-660.0114 836.0208,-660.0114 836.0208,4 -4,4"/>
<!-- methodSets -->
<g id="node1" class="node">
<title>methodSets</title>
<ellipse fill="none" stroke="#000000" cx="256" cy="-638.0114" rx="56.1976" ry="18"/>
<text text-anchor="middle" x="256" y="-633.8114" font-family="Times,serif" font-size="14.00" fill="#000000">methodSets</text>
</g>
<!-- methodSets__mSRID_mSRID__samples_join -->
<g id="node2" class="node">
<title>methodSets__mSRID_mSRID__samples_join</title>
<ellipse fill="none" stroke="#000000" cx="256" cy="-542.7164" rx="93.4765" ry="41.0911"/>
<text text-anchor="middle" x="256" y="-555.3164" font-family="Times,serif" font-size="14.00" fill="#000000">LEFT JOIN samples</text>
<text text-anchor="middle" x="256" y="-538.5164" font-family="Times,serif" font-size="14.00" fill="#000000">At level: 2</text>
<text text-anchor="middle" x="256" y="-521.7164" font-family="Times,serif" font-size="14.00" fill="#000000">Required: false</text>
</g>
<!-- methodSets&#45;&gt;methodSets__mSRID_mSRID__samples_join -->
<g id="edge1" class="edge">
<title>methodSets&#45;&gt;methodSets__mSRID_mSRID__samples_join</title>
<path fill="none" stroke="#000000" d="M256,-619.6376C256,-612.3285 256,-603.5189 256,-594.5101"/>
<polygon fill="#000000" stroke="#000000" points="259.5001,-594.3235 256,-584.3236 252.5001,-594.3236 259.5001,-594.3235"/>
</g>
<!-- methodSets__mSRID_mSRID__samples_join_Has_Rows -->
<g id="node3" class="node">
<title>methodSets__mSRID_mSRID__samples_join_Has_Rows</title>
<ellipse fill="none" stroke="#000000" cx="385" cy="-447.4214" rx="47.4704" ry="18"/>
<text text-anchor="middle" x="385" y="-443.2214" font-family="Times,serif" font-size="14.00" fill="#000000">Has rows</text>
</g>
<!-- methodSets__mSRID_mSRID__samples_join&#45;&gt;methodSets__mSRID_mSRID__samples_join_Has_Rows -->
<g id="edge2" class="edge">
<title>methodSets__mSRID_mSRID__samples_join&#45;&gt;methodSets__mSRID_mSRID__samples_join_Has_Rows</title>
<path fill="none" stroke="#000000" d="M304.0348,-507.232C321.0412,-494.6691 339.6841,-480.8972 354.7895,-469.7385"/>
<polygon fill="#000000" stroke="#000000" points="357.2717,-472.2563 363.2355,-463.4993 353.1125,-466.6259 357.2717,-472.2563"/>
</g>
<!-- methodSets__mSRID_mSRID__samples_join_No_Rows -->
<g id="node18" class="node">
<title>methodSets__mSRID_mSRID__samples_join_No_Rows</title>
<ellipse fill="none" stroke="#000000" cx="202" cy="-447.4214" rx="44.0415" ry="18"/>
<text text-anchor="middle" x="202" y="-443.2214" font-family="Times,serif" font-size="14.00" fill="#000000">No rows</text>
</g>
<!-- methodSets__mSRID_mSRID__samples_join&#45;&gt;methodSets__mSRID_mSRID__samples_join_No_Rows -->
<g id="edge21" class="edge">
<title>methodSets__mSRID_mSRID__samples_join&#45;&gt;methodSets__mSRID_mSRID__samples_join_No_Rows</title>
<path fill="none" stroke="#000000" d="M233.2556,-502.5789C227.7791,-492.9143 222.063,-482.8269 217.0392,-473.9614"/>
<polygon fill="#000000" stroke="#000000" points="220.0689,-472.2085 212.0936,-465.2338 213.9787,-475.6596 220.0689,-472.2085"/>
</g>
<!-- samples__siteID_siteID__sites_join -->
<g id="node4" class="node">
<title>samples__siteID_siteID__sites_join</title>
<ellipse fill="none" stroke="#000000" cx="634" cy="-352.1263" rx="78.8882" ry="41.0911"/>
<text text-anchor="middle" x="634" y="-364.7263" font-family="Times,serif" font-size="14.00" fill="#000000">LEFT JOIN sites</text>
<text text-anchor="middle" x="634" y="-347.9263" font-family="Times,serif" font-size="14.00" fill="#000000">At level: 1</text>
<text text-anchor="middle" x="634" y="-331.1263" font-family="Times,serif" font-size="14.00" fill="#000000">Required: true</text>
</g>
<!-- methodSets__mSRID_mSRID__samples_join_Has_Rows&#45;&gt;samples__siteID_siteID__sites_join -->
<g id="edge3" class="edge">
<title>methodSets__mSRID_mSRID__samples_join_Has_Rows&#45;&gt;samples__siteID_siteID__sites_join</title>
<path fill="none" stroke="#000000" d="M418.5812,-434.5694C454.7208,-420.7384 513.3337,-398.3066 560.3027,-380.3311"/>
<polygon fill="#000000" stroke="#000000" points="561.7449,-383.5268 569.8333,-376.6836 559.2429,-376.9892 561.7449,-383.5268"/>
</g>
<!-- samples__dataID_dataID__datasets_join -->
<g id="node12" class="node">
<title>samples__dataID_dataID__datasets_join</title>
<ellipse fill="none" stroke="#000000" cx="385" cy="-352.1263" rx="92.8656" ry="41.0911"/>
<text text-anchor="middle" x="385" y="-364.7263" font-family="Times,serif" font-size="14.00" fill="#000000">LEFT JOIN datasets</text>
<text text-anchor="middle" x="385" y="-347.9263" font-family="Times,serif" font-size="14.00" fill="#000000">At level: 1</text>
<text text-anchor="middle" x="385" y="-331.1263" font-family="Times,serif" font-size="14.00" fill="#000000">Required: true</text>
</g>
<!-- methodSets__mSRID_mSRID__samples_join_Has_Rows&#45;&gt;samples__dataID_dataID__datasets_join -->
<g id="edge12" class="edge">
<title>methodSets__mSRID_mSRID__samples_join_Has_Rows&#45;&gt;samples__dataID_dataID__datasets_join</title>
<path fill="none" stroke="#000000" d="M385,-429.0475C385,-421.7384 385,-412.9288 385,-403.92"/>
<polygon fill="#000000" stroke="#000000" points="388.5001,-403.7335 385,-393.7335 381.5001,-403.7335 388.5001,-403.7335"/>
</g>
<!-- samples__siteID_siteID__sites_join_Has_Rows -->
<g id="node5" class="node">
<title>samples__siteID_siteID__sites_join_Has_Rows</title>
<ellipse fill="none" stroke="#000000" cx="634" cy="-256.8313" rx="47.4704" ry="18"/>
<text text-anchor="middle" x="634" y="-252.6313" font-family="Times,serif" font-size="14.00" fill="#000000">Has rows</text>
</g>
<!-- samples__siteID_siteID__sites_join&#45;&gt;samples__siteID_siteID__sites_join_Has_Rows -->
<g id="edge4" class="edge">
<title>samples__siteID_siteID__sites_join&#45;&gt;samples__siteID_siteID__sites_join_Has_Rows</title>
<path fill="none" stroke="#000000" d="M634,-310.6057C634,-302.0541 634,-293.2347 634,-285.2742"/>
<polygon fill="#000000" stroke="#000000" points="637.5001,-285.0572 634,-275.0572 630.5001,-285.0572 637.5001,-285.0572"/>
</g>
<!-- samples__siteID_siteID__sites_join_No_Rows -->
<g id="node11" class="node">
<title>samples__siteID_siteID__sites_join_No_Rows</title>
<ellipse fill="none" stroke="#000000" cx="788" cy="-173.4156" rx="44.0415" ry="18"/>
<text text-anchor="middle" x="788" y="-169.2156" font-family="Times,serif" font-size="14.00" fill="#000000">No rows</text>
</g>
<!-- samples__siteID_siteID__sites_join&#45;&gt;samples__siteID_siteID__sites_join_No_Rows -->
<g id="edge10" class="edge">
<title>samples__siteID_siteID__sites_join&#45;&gt;samples__siteID_siteID__sites_join_No_Rows</title>
<path fill="none" stroke="#000000" d="M666.6594,-314.2264C696.6813,-279.3872 740.3452,-228.7171 766.2897,-198.6096"/>
<polygon fill="#000000" stroke="#000000" points="769.2349,-200.5534 773.1114,-190.6932 763.9321,-195.9838 769.2349,-200.5534"/>
</g>
<!-- samples__siteID_siteID__sites_where -->
<g id="node6" class="node">
<title>samples__siteID_siteID__sites_where</title>
<ellipse fill="none" stroke="#000000" cx="634" cy="-173.4156" rx="92.1488" ry="29.3315"/>
<text text-anchor="middle" x="634" y="-177.6156" font-family="Times,serif" font-size="14.00" fill="#000000">WHERE</text>
<text text-anchor="middle" x="634" y="-160.8156" font-family="Times,serif" font-size="14.00" fill="#000000">sites.siteID = &quot;HNJ&quot;</text>
</g>
<!-- samples__siteID_siteID__sites_join_Has_Rows&#45;&gt;samples__siteID_siteID__sites_where -->
<g id="edge5" class="edge">
<title>samples__siteID_siteID__sites_join_Has_Rows&#45;&gt;samples__siteID_siteID__sites_where</title>
<path fill="none" stroke="#000000" d="M634,-238.7313C634,-231.1418 634,-221.9972 634,-212.986"/>
<polygon fill="#000000" stroke="#000000" points="637.5001,-212.9587 634,-202.9588 630.5001,-212.9588 637.5001,-212.9587"/>
</g>
<!-- samples__siteID_siteID__sites_where_Has_Rows -->
<g id="node7" class="node">
<title>samples__siteID_siteID__sites_where_Has_Rows</title>
<ellipse fill="none" stroke="#000000" cx="439" cy="-90" rx="47.4704" ry="18"/>
<text text-anchor="middle" x="439" y="-85.8" font-family="Times,serif" font-size="14.00" fill="#000000">Has rows</text>
</g>
<!-- samples__siteID_siteID__sites_where&#45;&gt;samples__siteID_siteID__sites_where_Has_Rows -->
<g id="edge6" class="edge">
<title>samples__siteID_siteID__sites_where&#45;&gt;samples__siteID_siteID__sites_where_Has_Rows</title>
<path fill="none" stroke="#000000" d="M578.6424,-149.7352C547.1808,-136.2768 508.4697,-119.7172 479.7917,-107.4496"/>
<polygon fill="#000000" stroke="#000000" points="481.0464,-104.1795 470.4757,-103.4644 478.2932,-110.6154 481.0464,-104.1795"/>
</g>
<!-- samples__siteID_siteID__sites_where_No_Rows -->
<g id="node9" class="node">
<title>samples__siteID_siteID__sites_where_No_Rows</title>
<ellipse fill="none" stroke="#000000" cx="610" cy="-90" rx="44.0415" ry="18"/>
<text text-anchor="middle" x="610" y="-85.8" font-family="Times,serif" font-size="14.00" fill="#000000">No rows</text>
</g>
<!-- samples__siteID_siteID__sites_where&#45;&gt;samples__siteID_siteID__sites_where_No_Rows -->
<g id="edge8" class="edge">
<title>samples__siteID_siteID__sites_where&#45;&gt;samples__siteID_siteID__sites_where_No_Rows</title>
<path fill="none" stroke="#000000" d="M625.4709,-143.7715C623.0188,-135.2488 620.3551,-125.9907 617.9401,-117.597"/>
<polygon fill="#000000" stroke="#000000" points="621.2772,-116.5371 615.1486,-107.8947 614.5501,-118.4727 621.2772,-116.5371"/>
</g>
<!-- granted -->
<g id="node8" class="node">
<title>granted</title>
<ellipse fill="none" stroke="#000000" cx="221" cy="-18" rx="71.7874" ry="18"/>
<text text-anchor="middle" x="221" y="-13.8" font-family="Times,serif" font-size="14.00" fill="#000000">Access Granted</text>
</g>
<!-- samples__siteID_siteID__sites_where_Has_Rows&#45;&gt;granted -->
<g id="edge7" class="edge">
<title>samples__siteID_siteID__sites_where_Has_Rows&#45;&gt;granted</title>
<path fill="none" stroke="#000000" d="M403.0017,-78.1107C367.921,-66.5244 314.1693,-48.7715 274.1641,-35.5588"/>
<polygon fill="#000000" stroke="#000000" points="275.1603,-32.2019 264.5671,-32.3891 272.9649,-38.8488 275.1603,-32.2019"/>
</g>
<!-- denied -->
<g id="node10" class="node">
<title>denied</title>
<ellipse fill="none" stroke="#000000" cx="562" cy="-18" rx="68.8581" ry="18"/>
<text text-anchor="middle" x="562" y="-13.8" font-family="Times,serif" font-size="14.00" fill="#000000">Access Denied</text>
</g>
<!-- samples__siteID_siteID__sites_where_No_Rows&#45;&gt;denied -->
<g id="edge9" class="edge">
<title>samples__siteID_siteID__sites_where_No_Rows&#45;&gt;denied</title>
<path fill="none" stroke="#000000" d="M598.3805,-72.5708C592.6875,-64.0312 585.7146,-53.5719 579.4019,-44.1029"/>
<polygon fill="#000000" stroke="#000000" points="582.3051,-42.1479 573.8459,-35.7689 576.4808,-46.0309 582.3051,-42.1479"/>
</g>
<!-- samples__siteID_siteID__sites_join_No_Rows&#45;&gt;denied -->
<g id="edge11" class="edge">
<title>samples__siteID_siteID__sites_join_No_Rows&#45;&gt;denied</title>
<path fill="none" stroke="#000000" d="M769.801,-156.7819C746.1988,-135.6594 703.2718,-98.7487 663,-72 644.5802,-59.7655 623.1036,-47.9699 604.7022,-38.5408"/>
<polygon fill="#000000" stroke="#000000" points="606.1718,-35.362 595.6683,-33.9737 603.0135,-41.609 606.1718,-35.362"/>
</g>
<!-- samples__dataID_dataID__datasets_join_Has_Rows -->
<g id="node13" class="node">
<title>samples__dataID_dataID__datasets_join_Has_Rows</title>
<ellipse fill="none" stroke="#000000" cx="294" cy="-256.8313" rx="47.4704" ry="18"/>
<text text-anchor="middle" x="294" y="-252.6313" font-family="Times,serif" font-size="14.00" fill="#000000">Has rows</text>
</g>
<!-- samples__dataID_dataID__datasets_join&#45;&gt;samples__dataID_dataID__datasets_join_Has_Rows -->
<g id="edge13" class="edge">
<title>samples__dataID_dataID__datasets_join&#45;&gt;samples__dataID_dataID__datasets_join_Has_Rows</title>
<path fill="none" stroke="#000000" d="M348.5112,-313.9153C338.0546,-302.9652 326.9367,-291.3225 317.4875,-281.4273"/>
<polygon fill="#000000" stroke="#000000" points="319.7492,-278.7278 310.3116,-273.9128 314.6866,-283.5622 319.7492,-278.7278"/>
</g>
<!-- samples__dataID_dataID__datasets_join_No_Rows -->
<g id="node17" class="node">
<title>samples__dataID_dataID__datasets_join_No_Rows</title>
<ellipse fill="none" stroke="#000000" cx="440" cy="-256.8313" rx="44.0415" ry="18"/>
<text text-anchor="middle" x="440" y="-252.6313" font-family="Times,serif" font-size="14.00" fill="#000000">No rows</text>
</g>
<!-- samples__dataID_dataID__datasets_join&#45;&gt;samples__dataID_dataID__datasets_join_No_Rows -->
<g id="edge19" class="edge">
<title>samples__dataID_dataID__datasets_join&#45;&gt;samples__dataID_dataID__datasets_join_No_Rows</title>
<path fill="none" stroke="#000000" d="M408.1655,-311.9888C413.7435,-302.3243 419.5655,-292.2368 424.6823,-283.3713"/>
<polygon fill="#000000" stroke="#000000" points="427.752,-285.0543 429.7194,-274.6438 421.6893,-281.5552 427.752,-285.0543"/>
</g>
<!-- samples__dataID_dataID__datasets_where -->
<g id="node14" class="node">
<title>samples__dataID_dataID__datasets_where</title>
<ellipse fill="none" stroke="#000000" cx="257" cy="-173.4156" rx="228.5204" ry="29.3315"/>
<text text-anchor="middle" x="257" y="-177.6156" font-family="Times,serif" font-size="14.00" fill="#000000">WHERE IN</text>
<text text-anchor="middle" x="257" y="-160.8156" font-family="Times,serif" font-size="14.00" fill="#000000">datasets.dataID = [&quot;NML&#45;WWPCR&quot;,&quot;NML&#45;WWGX&quot;]</text>
</g>
<!-- samples__dataID_dataID__datasets_join_Has_Rows&#45;&gt;samples__dataID_dataID__datasets_where -->
<g id="edge14" class="edge">
<title>samples__dataID_dataID__datasets_join_Has_Rows&#45;&gt;samples__dataID_dataID__datasets_where</title>
<path fill="none" stroke="#000000" d="M285.9716,-238.7313C282.4965,-230.897 278.2865,-221.4056 274.1653,-212.1145"/>
<polygon fill="#000000" stroke="#000000" points="277.3583,-210.6807 270.1042,-202.9588 270.9595,-213.519 277.3583,-210.6807"/>
</g>
<!-- samples__dataID_dataID__datasets_where_Has_Rows -->
<g id="node15" class="node">
<title>samples__dataID_dataID__datasets_where_Has_Rows</title>
<ellipse fill="none" stroke="#000000" cx="221" cy="-90" rx="47.4704" ry="18"/>
<text text-anchor="middle" x="221" y="-85.8" font-family="Times,serif" font-size="14.00" fill="#000000">Has rows</text>
</g>
<!-- samples__dataID_dataID__datasets_where&#45;&gt;samples__dataID_dataID__datasets_where_Has_Rows -->
<g id="edge15" class="edge">
<title>samples__dataID_dataID__datasets_where&#45;&gt;samples__dataID_dataID__datasets_where_Has_Rows</title>
<path fill="none" stroke="#000000" d="M244.2064,-143.7715C240.4878,-135.1551 236.4448,-125.7872 232.7909,-117.3206"/>
<polygon fill="#000000" stroke="#000000" points="235.8989,-115.6893 228.7229,-107.8947 229.4719,-118.4631 235.8989,-115.6893"/>
</g>
<!-- samples__dataID_dataID__datasets_where_No_Rows -->
<g id="node16" class="node">
<title>samples__dataID_dataID__datasets_where_No_Rows</title>
<ellipse fill="none" stroke="#000000" cx="330" cy="-90" rx="44.0415" ry="18"/>
<text text-anchor="middle" x="330" y="-85.8" font-family="Times,serif" font-size="14.00" fill="#000000">No rows</text>
</g>
<!-- samples__dataID_dataID__datasets_where&#45;&gt;samples__dataID_dataID__datasets_where_No_Rows -->
<g id="edge17" class="edge">
<title>samples__dataID_dataID__datasets_where&#45;&gt;samples__dataID_dataID__datasets_where_No_Rows</title>
<path fill="none" stroke="#000000" d="M282.9426,-143.7715C291.1836,-134.3547 300.2103,-124.0401 308.1342,-114.9856"/>
<polygon fill="#000000" stroke="#000000" points="310.8144,-117.2376 314.7662,-107.4073 305.5467,-112.6276 310.8144,-117.2376"/>
</g>
<!-- samples__dataID_dataID__datasets_where_Has_Rows&#45;&gt;granted -->
<g id="edge16" class="edge">
<title>samples__dataID_dataID__datasets_where_Has_Rows&#45;&gt;granted</title>
<path fill="none" stroke="#000000" d="M221,-71.8314C221,-64.131 221,-54.9743 221,-46.4166"/>
<polygon fill="#000000" stroke="#000000" points="224.5001,-46.4132 221,-36.4133 217.5001,-46.4133 224.5001,-46.4132"/>
</g>
<!-- samples__dataID_dataID__datasets_where_No_Rows&#45;&gt;denied -->
<g id="edge18" class="edge">
<title>samples__dataID_dataID__datasets_where_No_Rows&#45;&gt;denied</title>
<path fill="none" stroke="#000000" d="M363.8711,-78.3032C370.2149,-76.1674 376.8,-73.9874 383,-72 424.1098,-58.8225 470.8167,-44.7624 506.2098,-34.2933"/>
<polygon fill="#000000" stroke="#000000" points="507.2783,-37.6273 515.8784,-31.4395 505.2966,-30.9136 507.2783,-37.6273"/>
</g>
<!-- samples__dataID_dataID__datasets_join_No_Rows&#45;&gt;denied -->
<g id="edge20" class="edge">
<title>samples__dataID_dataID__datasets_join_No_Rows&#45;&gt;denied</title>
<path fill="none" stroke="#000000" d="M460.5551,-240.6385C471.9901,-230.7409 485.7401,-217.2409 495,-202.8313 527.5523,-152.1753 547.057,-83.562 556.0383,-45.7964"/>
<polygon fill="#000000" stroke="#000000" points="559.46,-46.5336 558.2945,-36.0031 552.6387,-44.9621 559.46,-46.5336"/>
</g>
<!-- methodSets__mSRID_mSRID__samples_join_No_Rows&#45;&gt;granted -->
<g id="edge22" class="edge">
<title>methodSets__mSRID_mSRID__samples_join_No_Rows&#45;&gt;granted</title>
<path fill="none" stroke="#000000" d="M169.9925,-434.8057C113.034,-410.0074 0,-349.1636 0,-256.8313 0,-256.8313 0,-256.8313 0,-173.4156 0,-95.4505 93.1676,-53.2098 158.5178,-33.1707"/>
<polygon fill="#000000" stroke="#000000" points="159.7524,-36.4554 168.3458,-30.2583 157.7634,-29.7439 159.7524,-36.4554"/>
</g>
</g>
</svg>
