<?xml version="1.0" encoding="UTF-8" standalone="no"?>
<!DOCTYPE svg PUBLIC "-//W3C//DTD SVG 1.1//EN"
 "http://www.w3.org/Graphics/SVG/1.1/DTD/svg11.dtd">
<!-- Generated by graphviz version 2.40.1 (20161225.0304)
 -->
<!-- Title: G Pages: 1 -->
<svg width="1235pt" height="1403pt"
 viewBox="0.00 0.00 1235.02 1402.61" xmlns="http://www.w3.org/2000/svg" xmlns:xlink="http://www.w3.org/1999/xlink">
<g id="graph0" class="graph" transform="scale(1 1) rotate(0) translate(4 1398.6129)">
<title>G</title>
<polygon fill="#ffffff" stroke="transparent" points="-4,4 -4,-1398.6129 1231.0208,-1398.6129 1231.0208,4 -4,4"/>
<!-- methodSteps -->
<g id="node1" class="node">
<title>methodSteps</title>
<ellipse fill="none" stroke="#000000" cx="342.0208" cy="-1376.6129" rx="60.8544" ry="18"/>
<text text-anchor="middle" x="342.0208" y="-1372.4129" font-family="Times,serif" font-size="14.00" fill="#000000">methodSteps</text>
</g>
<!-- methodSteps__orgID_orgID__organizations_join -->
<g id="node2" class="node">
<title>methodSteps__orgID_orgID__organizations_join</title>
<ellipse fill="none" stroke="#000000" cx="342.0208" cy="-1281.3179" rx="114.8569" ry="41.0911"/>
<text text-anchor="middle" x="342.0208" y="-1293.9179" font-family="Times,serif" font-size="14.00" fill="#000000">LEFT JOIN organizations</text>
<text text-anchor="middle" x="342.0208" y="-1277.1179" font-family="Times,serif" font-size="14.00" fill="#000000">At level: 5</text>
<text text-anchor="middle" x="342.0208" y="-1260.3179" font-family="Times,serif" font-size="14.00" fill="#000000">Required: true</text>
</g>
<!-- methodSteps&#45;&gt;methodSteps__orgID_orgID__organizations_join -->
<g id="edge1" class="edge">
<title>methodSteps&#45;&gt;methodSteps__orgID_orgID__organizations_join</title>
<path fill="none" stroke="#000000" d="M342.0208,-1358.2391C342.0208,-1350.93 342.0208,-1342.1204 342.0208,-1333.1116"/>
<polygon fill="#000000" stroke="#000000" points="345.5209,-1332.925 342.0208,-1322.9251 338.5209,-1332.9251 345.5209,-1332.925"/>
</g>
<!-- methodSteps__orgID_orgID__organizations_join_Has_Rows -->
<g id="node3" class="node">
<title>methodSteps__orgID_orgID__organizations_join_Has_Rows</title>
<ellipse fill="none" stroke="#000000" cx="305.0208" cy="-1186.0229" rx="47.4704" ry="18"/>
<text text-anchor="middle" x="305.0208" y="-1181.8229" font-family="Times,serif" font-size="14.00" fill="#000000">Has rows</text>
</g>
<!-- methodSteps__orgID_orgID__organizations_join&#45;&gt;methodSteps__orgID_orgID__organizations_join_Has_Rows -->
<g id="edge2" class="edge">
<title>methodSteps__orgID_orgID__organizations_join&#45;&gt;methodSteps__orgID_orgID__organizations_join_Has_Rows</title>
<path fill="none" stroke="#000000" d="M326.1147,-1240.3512C322.5671,-1231.2142 318.8897,-1221.7428 315.6183,-1213.3171"/>
<polygon fill="#000000" stroke="#000000" points="318.8787,-1212.0443 311.9965,-1203.9891 312.3533,-1214.5779 318.8787,-1212.0443"/>
</g>
<!-- methodSteps__orgID_orgID__organizations_join_No_Rows -->
<g id="node30" class="node">
<title>methodSteps__orgID_orgID__organizations_join_No_Rows</title>
<ellipse fill="none" stroke="#000000" cx="654.0208" cy="-1090.7278" rx="44.0415" ry="18"/>
<text text-anchor="middle" x="654.0208" y="-1086.5278" font-family="Times,serif" font-size="14.00" fill="#000000">No rows</text>
</g>
<!-- methodSteps__orgID_orgID__organizations_join&#45;&gt;methodSteps__orgID_orgID__organizations_join_No_Rows -->
<g id="edge37" class="edge">
<title>methodSteps__orgID_orgID__organizations_join&#45;&gt;methodSteps__orgID_orgID__organizations_join_No_Rows</title>
<path fill="none" stroke="#000000" d="M400.3396,-1245.6929C465.3642,-1205.9717 568.2763,-1143.1062 620.7987,-1111.0221"/>
<polygon fill="#000000" stroke="#000000" points="622.6819,-1113.9731 629.3911,-1105.7732 619.0328,-1107.9995 622.6819,-1113.9731"/>
</g>
<!-- organizations__addID_addID__addresses_join -->
<g id="node4" class="node">
<title>organizations__addID_addID__addresses_join</title>
<ellipse fill="none" stroke="#000000" cx="262.0208" cy="-1090.7278" rx="99.0518" ry="41.0911"/>
<text text-anchor="middle" x="262.0208" y="-1103.3278" font-family="Times,serif" font-size="14.00" fill="#000000">LEFT JOIN addresses</text>
<text text-anchor="middle" x="262.0208" y="-1086.5278" font-family="Times,serif" font-size="14.00" fill="#000000">At level: 4</text>
<text text-anchor="middle" x="262.0208" y="-1069.7278" font-family="Times,serif" font-size="14.00" fill="#000000">Required: false</text>
</g>
<!-- methodSteps__orgID_orgID__organizations_join_Has_Rows&#45;&gt;organizations__addID_addID__addresses_join -->
<g id="edge3" class="edge">
<title>methodSteps__orgID_orgID__organizations_join_Has_Rows&#45;&gt;organizations__addID_addID__addresses_join</title>
<path fill="none" stroke="#000000" d="M296.9328,-1168.0986C293.393,-1160.2539 289.0457,-1150.6195 284.6357,-1140.8461"/>
<polygon fill="#000000" stroke="#000000" points="287.7158,-1139.1625 280.4126,-1131.487 281.3353,-1142.0416 287.7158,-1139.1625"/>
</g>
<!-- organizations__addID_addID__addresses_join_Has_Rows -->
<g id="node5" class="node">
<title>organizations__addID_addID__addresses_join_Has_Rows</title>
<ellipse fill="none" stroke="#000000" cx="262.0208" cy="-995.4328" rx="47.4704" ry="18"/>
<text text-anchor="middle" x="262.0208" y="-991.2328" font-family="Times,serif" font-size="14.00" fill="#000000">Has rows</text>
</g>
<!-- organizations__addID_addID__addresses_join&#45;&gt;organizations__addID_addID__addresses_join_Has_Rows -->
<g id="edge4" class="edge">
<title>organizations__addID_addID__addresses_join&#45;&gt;organizations__addID_addID__addresses_join_Has_Rows</title>
<path fill="none" stroke="#000000" d="M262.0208,-1049.2072C262.0208,-1040.6556 262.0208,-1031.8362 262.0208,-1023.8757"/>
<polygon fill="#000000" stroke="#000000" points="265.5209,-1023.6587 262.0208,-1013.6587 258.5209,-1023.6587 265.5209,-1023.6587"/>
</g>
<!-- organizations__addID_addID__addresses_join_No_Rows -->
<g id="node29" class="node">
<title>organizations__addID_addID__addresses_join_No_Rows</title>
<ellipse fill="none" stroke="#000000" cx="44.0208" cy="-900.1377" rx="44.0415" ry="18"/>
<text text-anchor="middle" x="44.0208" y="-895.9377" font-family="Times,serif" font-size="14.00" fill="#000000">No rows</text>
</g>
<!-- organizations__addID_addID__addresses_join&#45;&gt;organizations__addID_addID__addresses_join_No_Rows -->
<g id="edge35" class="edge">
<title>organizations__addID_addID__addresses_join&#45;&gt;organizations__addID_addID__addresses_join_No_Rows</title>
<path fill="none" stroke="#000000" d="M219.2111,-1053.3008C175.0588,-1014.6999 107.587,-955.7116 70.5851,-923.3621"/>
<polygon fill="#000000" stroke="#000000" points="72.5681,-920.4467 62.7359,-916.4997 67.9607,-925.7167 72.5681,-920.4467"/>
</g>
<!-- addresses__addID_addID__sites_join -->
<g id="node6" class="node">
<title>addresses__addID_addID__sites_join</title>
<ellipse fill="none" stroke="#000000" cx="262.0208" cy="-900.1377" rx="78.8882" ry="41.0911"/>
<text text-anchor="middle" x="262.0208" y="-912.7377" font-family="Times,serif" font-size="14.00" fill="#000000">LEFT JOIN sites</text>
<text text-anchor="middle" x="262.0208" y="-895.9377" font-family="Times,serif" font-size="14.00" fill="#000000">At level: 3</text>
<text text-anchor="middle" x="262.0208" y="-879.1377" font-family="Times,serif" font-size="14.00" fill="#000000">Required: false</text>
</g>
<!-- organizations__addID_addID__addresses_join_Has_Rows&#45;&gt;addresses__addID_addID__sites_join -->
<g id="edge5" class="edge">
<title>organizations__addID_addID__addresses_join_Has_Rows&#45;&gt;addresses__addID_addID__sites_join</title>
<path fill="none" stroke="#000000" d="M262.0208,-977.0589C262.0208,-969.7498 262.0208,-960.9402 262.0208,-951.9314"/>
<polygon fill="#000000" stroke="#000000" points="265.5209,-951.7449 262.0208,-941.7449 258.5209,-951.745 265.5209,-951.7449"/>
</g>
<!-- addresses__addID_addID__sites_join_Has_Rows -->
<g id="node7" class="node">
<title>addresses__addID_addID__sites_join_Has_Rows</title>
<ellipse fill="none" stroke="#000000" cx="354.0208" cy="-804.8427" rx="47.4704" ry="18"/>
<text text-anchor="middle" x="354.0208" y="-800.6427" font-family="Times,serif" font-size="14.00" fill="#000000">Has rows</text>
</g>
<!-- addresses__addID_addID__sites_join&#45;&gt;addresses__addID_addID__sites_join_Has_Rows -->
<g id="edge6" class="edge">
<title>addresses__addID_addID__sites_join&#45;&gt;addresses__addID_addID__sites_join_Has_Rows</title>
<path fill="none" stroke="#000000" d="M297.8538,-863.0213C308.7895,-851.6939 320.5323,-839.5306 330.4389,-829.2692"/>
<polygon fill="#000000" stroke="#000000" points="333.1852,-831.4637 337.6128,-821.8383 328.1491,-826.6018 333.1852,-831.4637"/>
</g>
<!-- addresses__addID_addID__sites_join_No_Rows -->
<g id="node28" class="node">
<title>addresses__addID_addID__sites_join_No_Rows</title>
<ellipse fill="none" stroke="#000000" cx="96.0208" cy="-721.4271" rx="44.0415" ry="18"/>
<text text-anchor="middle" x="96.0208" y="-717.2271" font-family="Times,serif" font-size="14.00" fill="#000000">No rows</text>
</g>
<!-- addresses__addID_addID__sites_join&#45;&gt;addresses__addID_addID__sites_join_No_Rows -->
<g id="edge33" class="edge">
<title>addresses__addID_addID__sites_join&#45;&gt;addresses__addID_addID__sites_join_No_Rows</title>
<path fill="none" stroke="#000000" d="M227.2217,-862.6741C194.5818,-827.535 146.7227,-776.0113 118.7308,-745.876"/>
<polygon fill="#000000" stroke="#000000" points="121.0977,-743.2814 111.7276,-738.3366 115.9689,-748.0454 121.0977,-743.2814"/>
</g>
<!-- addresses__addID_addID__sites_where -->
<g id="node8" class="node">
<title>addresses__addID_addID__sites_where</title>
<ellipse fill="none" stroke="#000000" cx="392.0208" cy="-721.4271" rx="216.315" ry="29.3315"/>
<text text-anchor="middle" x="392.0208" y="-725.6271" font-family="Times,serif" font-size="14.00" fill="#000000">WHERE IN</text>
<text text-anchor="middle" x="392.0208" y="-708.8271" font-family="Times,serif" font-size="14.00" fill="#000000">sites.healthReg = [&quot;Whitehorse&quot;,&quot;Haines Junction&quot;]</text>
</g>
<!-- addresses__addID_addID__sites_join_Has_Rows&#45;&gt;addresses__addID_addID__sites_where -->
<g id="edge7" class="edge">
<title>addresses__addID_addID__sites_join_Has_Rows&#45;&gt;addresses__addID_addID__sites_where</title>
<path fill="none" stroke="#000000" d="M362.2662,-786.7428C365.8351,-778.9084 370.1589,-769.4171 374.3915,-760.1259"/>
<polygon fill="#000000" stroke="#000000" points="377.6018,-761.5214 378.5624,-750.9702 371.2316,-758.6195 377.6018,-761.5214"/>
</g>
<!-- addresses__addID_addID__sites_where_Has_Rows -->
<g id="node9" class="node">
<title>addresses__addID_addID__sites_where_Has_Rows</title>
<ellipse fill="none" stroke="#000000" cx="392.0208" cy="-638.0114" rx="47.4704" ry="18"/>
<text text-anchor="middle" x="392.0208" y="-633.8114" font-family="Times,serif" font-size="14.00" fill="#000000">Has rows</text>
</g>
<!-- addresses__addID_addID__sites_where&#45;&gt;addresses__addID_addID__sites_where_Has_Rows -->
<g id="edge8" class="edge">
<title>addresses__addID_addID__sites_where&#45;&gt;addresses__addID_addID__sites_where_Has_Rows</title>
<path fill="none" stroke="#000000" d="M392.0208,-691.783C392.0208,-683.5778 392.0208,-674.691 392.0208,-666.5502"/>
<polygon fill="#000000" stroke="#000000" points="395.5209,-666.398 392.0208,-656.398 388.5209,-666.398 395.5209,-666.398"/>
</g>
<!-- addresses__addID_addID__sites_where_No_Rows -->
<g id="node27" class="node">
<title>addresses__addID_addID__sites_where_No_Rows</title>
<ellipse fill="none" stroke="#000000" cx="851.0208" cy="-542.7164" rx="44.0415" ry="18"/>
<text text-anchor="middle" x="851.0208" y="-538.5164" font-family="Times,serif" font-size="14.00" fill="#000000">No rows</text>
</g>
<!-- addresses__addID_addID__sites_where&#45;&gt;addresses__addID_addID__sites_where_No_Rows -->
<g id="edge31" class="edge">
<title>addresses__addID_addID__sites_where&#45;&gt;addresses__addID_addID__sites_where_No_Rows</title>
<path fill="none" stroke="#000000" d="M463.4875,-693.6016C560.6255,-655.7812 731.1901,-589.3722 809.5366,-558.8682"/>
<polygon fill="#000000" stroke="#000000" points="811.0214,-562.0461 819.0701,-555.1563 808.4816,-555.523 811.0214,-562.0461"/>
</g>
<!-- sites__siteID_siteID__samples_join -->
<g id="node10" class="node">
<title>sites__siteID_siteID__samples_join</title>
<ellipse fill="none" stroke="#000000" cx="392.0208" cy="-542.7164" rx="93.4765" ry="41.0911"/>
<text text-anchor="middle" x="392.0208" y="-555.3164" font-family="Times,serif" font-size="14.00" fill="#000000">LEFT JOIN samples</text>
<text text-anchor="middle" x="392.0208" y="-538.5164" font-family="Times,serif" font-size="14.00" fill="#000000">At level: 2</text>
<text text-anchor="middle" x="392.0208" y="-521.7164" font-family="Times,serif" font-size="14.00" fill="#000000">Required: true</text>
</g>
<!-- addresses__addID_addID__sites_where_Has_Rows&#45;&gt;sites__siteID_siteID__samples_join -->
<g id="edge9" class="edge">
<title>addresses__addID_addID__sites_where_Has_Rows&#45;&gt;sites__siteID_siteID__samples_join</title>
<path fill="none" stroke="#000000" d="M392.0208,-619.6376C392.0208,-612.3285 392.0208,-603.5189 392.0208,-594.5101"/>
<polygon fill="#000000" stroke="#000000" points="395.5209,-594.3235 392.0208,-584.3236 388.5209,-594.3236 395.5209,-594.3235"/>
</g>
<!-- sites__siteID_siteID__samples_join_Has_Rows -->
<g id="node11" class="node">
<title>sites__siteID_siteID__samples_join_Has_Rows</title>
<ellipse fill="none" stroke="#000000" cx="429.0208" cy="-447.4214" rx="47.4704" ry="18"/>
<text text-anchor="middle" x="429.0208" y="-443.2214" font-family="Times,serif" font-size="14.00" fill="#000000">Has rows</text>
</g>
<!-- sites__siteID_siteID__samples_join&#45;&gt;sites__siteID_siteID__samples_join_Has_Rows -->
<g id="edge10" class="edge">
<title>sites__siteID_siteID__samples_join&#45;&gt;sites__siteID_siteID__samples_join_Has_Rows</title>
<path fill="none" stroke="#000000" d="M407.9268,-501.7497C411.4744,-492.6127 415.1518,-483.1413 418.4233,-474.7156"/>
<polygon fill="#000000" stroke="#000000" points="421.6883,-475.9764 422.0451,-465.3876 415.1629,-473.4428 421.6883,-475.9764"/>
</g>
<!-- sites__siteID_siteID__samples_join_No_Rows -->
<g id="node26" class="node">
<title>sites__siteID_siteID__samples_join_No_Rows</title>
<ellipse fill="none" stroke="#000000" cx="218.0208" cy="-447.4214" rx="44.0415" ry="18"/>
<text text-anchor="middle" x="218.0208" y="-443.2214" font-family="Times,serif" font-size="14.00" fill="#000000">No rows</text>
</g>
<!-- sites__siteID_siteID__samples_join&#45;&gt;sites__siteID_siteID__samples_join_No_Rows -->
<g id="edge29" class="edge">
<title>sites__siteID_siteID__samples_join&#45;&gt;sites__siteID_siteID__samples_join_No_Rows</title>
<path fill="none" stroke="#000000" d="M333.1123,-510.4538C306.7699,-496.0268 276.5785,-479.4918 253.729,-466.9778"/>
<polygon fill="#000000" stroke="#000000" points="255.1839,-463.7841 244.7319,-462.0503 251.8215,-469.9237 255.1839,-463.7841"/>
</g>
<!-- samples__siteID_siteID__sites_join -->
<g id="node12" class="node">
<title>samples__siteID_siteID__sites_join</title>
<ellipse fill="none" stroke="#000000" cx="429.0208" cy="-352.1263" rx="78.8882" ry="41.0911"/>
<text text-anchor="middle" x="429.0208" y="-364.7263" font-family="Times,serif" font-size="14.00" fill="#000000">LEFT JOIN sites</text>
<text text-anchor="middle" x="429.0208" y="-347.9263" font-family="Times,serif" font-size="14.00" fill="#000000">At level: 1</text>
<text text-anchor="middle" x="429.0208" y="-331.1263" font-family="Times,serif" font-size="14.00" fill="#000000">Required: true</text>
</g>
<!-- sites__siteID_siteID__samples_join_Has_Rows&#45;&gt;samples__siteID_siteID__sites_join -->
<g id="edge11" class="edge">
<title>sites__siteID_siteID__samples_join_Has_Rows&#45;&gt;samples__siteID_siteID__sites_join</title>
<path fill="none" stroke="#000000" d="M429.0208,-429.0475C429.0208,-421.7384 429.0208,-412.9288 429.0208,-403.92"/>
<polygon fill="#000000" stroke="#000000" points="432.5209,-403.7335 429.0208,-393.7335 425.5209,-403.7335 432.5209,-403.7335"/>
</g>
<!-- samples__dataID_dataID__datasets_join -->
<g id="node20" class="node">
<title>samples__dataID_dataID__datasets_join</title>
<ellipse fill="none" stroke="#000000" cx="894.0208" cy="-352.1263" rx="92.8656" ry="41.0911"/>
<text text-anchor="middle" x="894.0208" y="-364.7263" font-family="Times,serif" font-size="14.00" fill="#000000">LEFT JOIN datasets</text>
<text text-anchor="middle" x="894.0208" y="-347.9263" font-family="Times,serif" font-size="14.00" fill="#000000">At level: 1</text>
<text text-anchor="middle" x="894.0208" y="-331.1263" font-family="Times,serif" font-size="14.00" fill="#000000">Required: true</text>
</g>
<!-- sites__siteID_siteID__samples_join_Has_Rows&#45;&gt;samples__dataID_dataID__datasets_join -->
<g id="edge20" class="edge">
<title>sites__siteID_siteID__samples_join_Has_Rows&#45;&gt;samples__dataID_dataID__datasets_join</title>
<path fill="none" stroke="#000000" d="M470.6956,-438.8807C544.3693,-423.7823 699.3162,-392.0282 799.9156,-371.4118"/>
<polygon fill="#000000" stroke="#000000" points="800.6859,-374.8268 809.7796,-369.3903 799.2805,-367.9693 800.6859,-374.8268"/>
</g>
<!-- samples__siteID_siteID__sites_join_Has_Rows -->
<g id="node13" class="node">
<title>samples__siteID_siteID__sites_join_Has_Rows</title>
<ellipse fill="none" stroke="#000000" cx="376.0208" cy="-256.8313" rx="47.4704" ry="18"/>
<text text-anchor="middle" x="376.0208" y="-252.6313" font-family="Times,serif" font-size="14.00" fill="#000000">Has rows</text>
</g>
<!-- samples__siteID_siteID__sites_join&#45;&gt;samples__siteID_siteID__sites_join_Has_Rows -->
<g id="edge12" class="edge">
<title>samples__siteID_siteID__sites_join&#45;&gt;samples__siteID_siteID__sites_join_Has_Rows</title>
<path fill="none" stroke="#000000" d="M406.8511,-312.2648C401.4616,-302.5743 395.8264,-292.4422 390.8701,-283.5307"/>
<polygon fill="#000000" stroke="#000000" points="393.909,-281.7937 385.9897,-274.7556 387.7915,-285.1961 393.909,-281.7937"/>
</g>
<!-- samples__siteID_siteID__sites_join_No_Rows -->
<g id="node19" class="node">
<title>samples__siteID_siteID__sites_join_No_Rows</title>
<ellipse fill="none" stroke="#000000" cx="603.0208" cy="-173.4156" rx="44.0415" ry="18"/>
<text text-anchor="middle" x="603.0208" y="-169.2156" font-family="Times,serif" font-size="14.00" fill="#000000">No rows</text>
</g>
<!-- samples__siteID_siteID__sites_join&#45;&gt;samples__siteID_siteID__sites_join_No_Rows -->
<g id="edge18" class="edge">
<title>samples__siteID_siteID__sites_join&#45;&gt;samples__siteID_siteID__sites_join_No_Rows</title>
<path fill="none" stroke="#000000" d="M465.0737,-315.0974C499.394,-279.8479 550.0464,-227.8242 579.4715,-197.6024"/>
<polygon fill="#000000" stroke="#000000" points="582.004,-200.0186 586.4723,-190.4121 576.9885,-195.1354 582.004,-200.0186"/>
</g>
<!-- samples__siteID_siteID__sites_where -->
<g id="node14" class="node">
<title>samples__siteID_siteID__sites_where</title>
<ellipse fill="none" stroke="#000000" cx="325.0208" cy="-173.4156" rx="216.315" ry="29.3315"/>
<text text-anchor="middle" x="325.0208" y="-177.6156" font-family="Times,serif" font-size="14.00" fill="#000000">WHERE IN</text>
<text text-anchor="middle" x="325.0208" y="-160.8156" font-family="Times,serif" font-size="14.00" fill="#000000">sites.healthReg = [&quot;Whitehorse&quot;,&quot;Haines Junction&quot;]</text>
</g>
<!-- samples__siteID_siteID__sites_join_Has_Rows&#45;&gt;samples__siteID_siteID__sites_where -->
<g id="edge13" class="edge">
<title>samples__siteID_siteID__sites_join_Has_Rows&#45;&gt;samples__siteID_siteID__sites_where</title>
<path fill="none" stroke="#000000" d="M365.205,-239.141C360.28,-231.0856 354.2464,-221.2171 348.3666,-211.6001"/>
<polygon fill="#000000" stroke="#000000" points="351.2487,-209.6043 343.0463,-202.8982 345.2765,-213.2557 351.2487,-209.6043"/>
</g>
<!-- samples__siteID_siteID__sites_where_Has_Rows -->
<g id="node15" class="node">
<title>samples__siteID_siteID__sites_where_Has_Rows</title>
<ellipse fill="none" stroke="#000000" cx="255.0208" cy="-90" rx="47.4704" ry="18"/>
<text text-anchor="middle" x="255.0208" y="-85.8" font-family="Times,serif" font-size="14.00" fill="#000000">Has rows</text>
</g>
<!-- samples__siteID_siteID__sites_where&#45;&gt;samples__siteID_siteID__sites_where_Has_Rows -->
<g id="edge14" class="edge">
<title>samples__siteID_siteID__sites_where&#45;&gt;samples__siteID_siteID__sites_where_Has_Rows</title>
<path fill="none" stroke="#000000" d="M300.1443,-143.7715C292.3218,-134.4498 283.761,-124.2484 276.2186,-115.2604"/>
<polygon fill="#000000" stroke="#000000" points="278.7378,-112.8176 269.6285,-107.4073 273.3756,-117.3174 278.7378,-112.8176"/>
</g>
<!-- samples__siteID_siteID__sites_where_No_Rows -->
<g id="node17" class="node">
<title>samples__siteID_siteID__sites_where_No_Rows</title>
<ellipse fill="none" stroke="#000000" cx="510.0208" cy="-90" rx="44.0415" ry="18"/>
<text text-anchor="middle" x="510.0208" y="-85.8" font-family="Times,serif" font-size="14.00" fill="#000000">No rows</text>
</g>
<!-- samples__siteID_siteID__sites_where&#45;&gt;samples__siteID_siteID__sites_where_No_Rows -->
<g id="edge16" class="edge">
<title>samples__siteID_siteID__sites_where&#45;&gt;samples__siteID_siteID__sites_where_No_Rows</title>
<path fill="none" stroke="#000000" d="M387.6533,-145.1749C415.3228,-132.6989 446.9864,-118.4219 471.1716,-107.5169"/>
<polygon fill="#000000" stroke="#000000" points="472.7032,-110.6657 480.3807,-103.3646 469.8259,-104.2844 472.7032,-110.6657"/>
</g>
<!-- granted -->
<g id="node16" class="node">
<title>granted</title>
<ellipse fill="none" stroke="#000000" cx="114.0208" cy="-18" rx="71.7874" ry="18"/>
<text text-anchor="middle" x="114.0208" y="-13.8" font-family="Times,serif" font-size="14.00" fill="#000000">Access Granted</text>
</g>
<!-- samples__siteID_siteID__sites_where_Has_Rows&#45;&gt;granted -->
<g id="edge15" class="edge">
<title>samples__siteID_siteID__sites_where_Has_Rows&#45;&gt;granted</title>
<path fill="none" stroke="#000000" d="M226.4873,-75.4297C205.9769,-64.9563 178.0156,-50.6782 155.1048,-38.9791"/>
<polygon fill="#000000" stroke="#000000" points="156.4531,-35.7377 145.9553,-34.307 153.2696,-41.9719 156.4531,-35.7377"/>
</g>
<!-- denied -->
<g id="node18" class="node">
<title>denied</title>
<ellipse fill="none" stroke="#000000" cx="894.0208" cy="-18" rx="68.8581" ry="18"/>
<text text-anchor="middle" x="894.0208" y="-13.8" font-family="Times,serif" font-size="14.00" fill="#000000">Access Denied</text>
</g>
<!-- samples__siteID_siteID__sites_where_No_Rows&#45;&gt;denied -->
<g id="edge17" class="edge">
<title>samples__siteID_siteID__sites_where_No_Rows&#45;&gt;denied</title>
<path fill="none" stroke="#000000" d="M550.3897,-82.4308C616.4063,-70.0527 748.0864,-45.3627 827.8933,-30.3989"/>
<polygon fill="#000000" stroke="#000000" points="828.6557,-33.817 837.8394,-28.534 827.3656,-26.9369 828.6557,-33.817"/>
</g>
<!-- samples__siteID_siteID__sites_join_No_Rows&#45;&gt;denied -->
<g id="edge19" class="edge">
<title>samples__siteID_siteID__sites_join_No_Rows&#45;&gt;denied</title>
<path fill="none" stroke="#000000" d="M611.0692,-155.3767C622.2685,-132.4028 644.7574,-93.1533 676.0208,-72 700.3418,-55.544 771.5122,-39.7585 825.982,-29.5514"/>
<polygon fill="#000000" stroke="#000000" points="826.7453,-32.9697 835.9433,-27.7115 825.4738,-26.0861 826.7453,-32.9697"/>
</g>
<!-- samples__dataID_dataID__datasets_join_Has_Rows -->
<g id="node21" class="node">
<title>samples__dataID_dataID__datasets_join_Has_Rows</title>
<ellipse fill="none" stroke="#000000" cx="894.0208" cy="-256.8313" rx="47.4704" ry="18"/>
<text text-anchor="middle" x="894.0208" y="-252.6313" font-family="Times,serif" font-size="14.00" fill="#000000">Has rows</text>
</g>
<!-- samples__dataID_dataID__datasets_join&#45;&gt;samples__dataID_dataID__datasets_join_Has_Rows -->
<g id="edge21" class="edge">
<title>samples__dataID_dataID__datasets_join&#45;&gt;samples__dataID_dataID__datasets_join_Has_Rows</title>
<path fill="none" stroke="#000000" d="M894.0208,-310.6057C894.0208,-302.0541 894.0208,-293.2347 894.0208,-285.2742"/>
<polygon fill="#000000" stroke="#000000" points="897.5209,-285.0572 894.0208,-275.0572 890.5209,-285.0572 897.5209,-285.0572"/>
</g>
<!-- samples__dataID_dataID__datasets_join_No_Rows -->
<g id="node25" class="node">
<title>samples__dataID_dataID__datasets_join_No_Rows</title>
<ellipse fill="none" stroke="#000000" cx="1060.0208" cy="-256.8313" rx="44.0415" ry="18"/>
<text text-anchor="middle" x="1060.0208" y="-252.6313" font-family="Times,serif" font-size="14.00" fill="#000000">No rows</text>
</g>
<!-- samples__dataID_dataID__datasets_join&#45;&gt;samples__dataID_dataID__datasets_join_No_Rows -->
<g id="edge27" class="edge">
<title>samples__dataID_dataID__datasets_join&#45;&gt;samples__dataID_dataID__datasets_join_No_Rows</title>
<path fill="none" stroke="#000000" d="M951.1486,-319.3312C975.9312,-305.1043 1004.1332,-288.9145 1025.6235,-276.5776"/>
<polygon fill="#000000" stroke="#000000" points="1027.4631,-279.5573 1034.3932,-271.5432 1023.9781,-273.4865 1027.4631,-279.5573"/>
</g>
<!-- samples__dataID_dataID__datasets_where -->
<g id="node22" class="node">
<title>samples__dataID_dataID__datasets_where</title>
<ellipse fill="none" stroke="#000000" cx="894.0208" cy="-173.4156" rx="228.5204" ry="29.3315"/>
<text text-anchor="middle" x="894.0208" y="-177.6156" font-family="Times,serif" font-size="14.00" fill="#000000">WHERE IN</text>
<text text-anchor="middle" x="894.0208" y="-160.8156" font-family="Times,serif" font-size="14.00" fill="#000000">datasets.dataID = [&quot;NML&#45;WWPCR&quot;,&quot;NML&#45;WWGX&quot;]</text>
</g>
<!-- samples__dataID_dataID__datasets_join_Has_Rows&#45;&gt;samples__dataID_dataID__datasets_where -->
<g id="edge22" class="edge">
<title>samples__dataID_dataID__datasets_join_Has_Rows&#45;&gt;samples__dataID_dataID__datasets_where</title>
<path fill="none" stroke="#000000" d="M894.0208,-238.7313C894.0208,-231.1418 894.0208,-221.9972 894.0208,-212.986"/>
<polygon fill="#000000" stroke="#000000" points="897.5209,-212.9587 894.0208,-202.9588 890.5209,-212.9588 897.5209,-212.9587"/>
</g>
<!-- samples__dataID_dataID__datasets_where_Has_Rows -->
<g id="node23" class="node">
<title>samples__dataID_dataID__datasets_where_Has_Rows</title>
<ellipse fill="none" stroke="#000000" cx="732.0208" cy="-90" rx="47.4704" ry="18"/>
<text text-anchor="middle" x="732.0208" y="-85.8" font-family="Times,serif" font-size="14.00" fill="#000000">Has rows</text>
</g>
<!-- samples__dataID_dataID__datasets_where&#45;&gt;samples__dataID_dataID__datasets_where_Has_Rows -->
<g id="edge23" class="edge">
<title>samples__dataID_dataID__datasets_where&#45;&gt;samples__dataID_dataID__datasets_where_Has_Rows</title>
<path fill="none" stroke="#000000" d="M838.2696,-144.7087C815.5699,-133.0204 789.9308,-119.8185 769.5264,-109.3121"/>
<polygon fill="#000000" stroke="#000000" points="771.0421,-106.1558 760.5492,-104.6896 767.8375,-112.3793 771.0421,-106.1558"/>
</g>
<!-- samples__dataID_dataID__datasets_where_No_Rows -->
<g id="node24" class="node">
<title>samples__dataID_dataID__datasets_where_No_Rows</title>
<ellipse fill="none" stroke="#000000" cx="894.0208" cy="-90" rx="44.0415" ry="18"/>
<text text-anchor="middle" x="894.0208" y="-85.8" font-family="Times,serif" font-size="14.00" fill="#000000">No rows</text>
</g>
<!-- samples__dataID_dataID__datasets_where&#45;&gt;samples__dataID_dataID__datasets_where_No_Rows -->
<g id="edge25" class="edge">
<title>samples__dataID_dataID__datasets_where&#45;&gt;samples__dataID_dataID__datasets_where_No_Rows</title>
<path fill="none" stroke="#000000" d="M894.0208,-143.7715C894.0208,-135.5664 894.0208,-126.6796 894.0208,-118.5388"/>
<polygon fill="#000000" stroke="#000000" points="897.5209,-118.3865 894.0208,-108.3866 890.5209,-118.3866 897.5209,-118.3865"/>
</g>
<!-- samples__dataID_dataID__datasets_where_Has_Rows&#45;&gt;granted -->
<g id="edge24" class="edge">
<title>samples__dataID_dataID__datasets_where_Has_Rows&#45;&gt;granted</title>
<path fill="none" stroke="#000000" d="M686.8281,-84.7348C581.712,-72.4883 319.8784,-41.9834 189.8141,-26.8303"/>
<polygon fill="#000000" stroke="#000000" points="189.8807,-23.3145 179.5429,-25.6336 189.0706,-30.2674 189.8807,-23.3145"/>
</g>
<!-- samples__dataID_dataID__datasets_where_No_Rows&#45;&gt;denied -->
<g id="edge26" class="edge">
<title>samples__dataID_dataID__datasets_where_No_Rows&#45;&gt;denied</title>
<path fill="none" stroke="#000000" d="M894.0208,-71.8314C894.0208,-64.131 894.0208,-54.9743 894.0208,-46.4166"/>
<polygon fill="#000000" stroke="#000000" points="897.5209,-46.4132 894.0208,-36.4133 890.5209,-46.4133 897.5209,-46.4132"/>
</g>
<!-- samples__dataID_dataID__datasets_join_No_Rows&#45;&gt;denied -->
<g id="edge28" class="edge">
<title>samples__dataID_dataID__datasets_join_No_Rows&#45;&gt;denied</title>
<path fill="none" stroke="#000000" d="M1089.3126,-243.2477C1105.0765,-234.2198 1123.0765,-220.7198 1132.0208,-202.8313 1143.7142,-179.4445 1145.5077,-166.4005 1132.0208,-144 1094.4274,-81.5609 1014.3647,-48.4432 957.4959,-32.0899"/>
<polygon fill="#000000" stroke="#000000" points="958.0891,-28.6224 947.5175,-29.3229 956.2186,-35.3679 958.0891,-28.6224"/>
</g>
<!-- sites__siteID_siteID__samples_join_No_Rows&#45;&gt;denied -->
<g id="edge30" class="edge">
<title>sites__siteID_siteID__samples_join_No_Rows&#45;&gt;denied</title>
<path fill="none" stroke="#000000" d="M195.7044,-431.6213C156.8839,-402.0938 81.0208,-334.4601 81.0208,-256.8313 81.0208,-256.8313 81.0208,-256.8313 81.0208,-173.4156 81.0208,-123.5476 151.8599,-89.3846 199.0208,-72 310.1351,-31.0406 657.5264,-21.1473 815.0075,-18.7591"/>
<polygon fill="#000000" stroke="#000000" points="815.1533,-22.2575 825.1013,-18.6124 815.0515,-15.2582 815.1533,-22.2575"/>
</g>
<!-- addresses__addID_addID__sites_where_No_Rows&#45;&gt;denied -->
<g id="edge32" class="edge">
<title>addresses__addID_addID__sites_where_No_Rows&#45;&gt;denied</title>
<path fill="none" stroke="#000000" d="M893.8287,-538.5164C984.7798,-526.9913 1189.0208,-486.1859 1189.0208,-352.1263 1189.0208,-352.1263 1189.0208,-352.1263 1189.0208,-173.4156 1189.0208,-74.1601 1056.6861,-38.1431 969.2844,-25.1794"/>
<polygon fill="#000000" stroke="#000000" points="969.516,-21.6775 959.125,-23.7454 968.5376,-28.6088 969.516,-21.6775"/>
</g>
<!-- addresses__addID_addID__sites_join_No_Rows&#45;&gt;granted -->
<g id="edge34" class="edge">
<title>addresses__addID_addID__sites_join_No_Rows&#45;&gt;granted</title>
<path fill="none" stroke="#000000" d="M87.03,-703.6798C71.9089,-672.1398 43.0208,-603.8803 43.0208,-542.7164 43.0208,-542.7164 43.0208,-542.7164 43.0208,-173.4156 43.0208,-124.2774 72.7479,-73.6591 93.7314,-44.0499"/>
<polygon fill="#000000" stroke="#000000" points="96.5962,-46.0616 99.6529,-35.9172 90.9372,-41.9413 96.5962,-46.0616"/>
</g>
<!-- organizations__addID_addID__addresses_join_No_Rows&#45;&gt;granted -->
<g id="edge36" class="edge">
<title>organizations__addID_addID__addresses_join_No_Rows&#45;&gt;granted</title>
<path fill="none" stroke="#000000" d="M37.4049,-882.1553C26.2781,-850.2514 5.0208,-781.4466 5.0208,-721.4271 5.0208,-721.4271 5.0208,-721.4271 5.0208,-173.4156 5.0208,-118.7286 50.8176,-69.6385 83.0409,-41.8666"/>
<polygon fill="#000000" stroke="#000000" points="85.4894,-44.3812 90.9047,-35.2748 80.9926,-39.0166 85.4894,-44.3812"/>
</g>
<!-- methodSteps__orgID_orgID__organizations_join_No_Rows&#45;&gt;denied -->
<g id="edge38" class="edge">
<title>methodSteps__orgID_orgID__organizations_join_No_Rows&#45;&gt;denied</title>
<path fill="none" stroke="#000000" d="M696.6208,-1085.91C829.4149,-1069.7224 1227.0208,-1011.921 1227.0208,-900.1377 1227.0208,-900.1377 1227.0208,-900.1377 1227.0208,-173.4156 1227.0208,-118.8989 1203.3947,-102.2206 1158.0208,-72 1127.2814,-51.5265 1034.0318,-35.7659 967.0752,-26.6929"/>
<polygon fill="#000000" stroke="#000000" points="967.3581,-23.1997 956.9835,-25.3488 966.4338,-30.1385 967.3581,-23.1997"/>
</g>
</g>
</svg>
