<?xml version="1.0" encoding="UTF-8" standalone="no"?>
<!DOCTYPE svg PUBLIC "-//W3C//DTD SVG 1.1//EN"
 "http://www.w3.org/Graphics/SVG/1.1/DTD/svg11.dtd">
<!-- Generated by graphviz version 2.40.1 (20161225.0304)
 -->
<!-- Title: G Pages: 1 -->
<svg width="1088pt" height="664pt"
 viewBox="0.00 0.00 1088.02 664.01" xmlns="http://www.w3.org/2000/svg" xmlns:xlink="http://www.w3.org/1999/xlink">
<g id="graph0" class="graph" transform="scale(1 1) rotate(0) translate(4 660.0114)">
<title>G</title>
<polygon fill="#ffffff" stroke="transparent" points="-4,4 -4,-660.0114 1084.0208,-660.0114 1084.0208,4 -4,4"/>
<!-- methodSets -->
<g id="node1" class="node">
<title>methodSets</title>
<ellipse fill="none" stroke="#000000" cx="256" cy="-638.0114" rx="56.1976" ry="18"/>
<text text-anchor="middle" x="256" y="-633.8114" font-family="Times,serif" font-size="14.00" fill="#000000">methodSets</text>
</g>
<!-- methodSets__mSRID_mSRID__samples_join -->
<g id="node2" class="node">
<title>methodSets__mSRID_mSRID__samples_join</title>
<ellipse fill="none" stroke="#000000" cx="256" cy="-542.7164" rx="93.4765" ry="41.0911"/>
<text text-anchor="middle" x="256" y="-555.3164" font-family="Times,serif" font-size="14.00" fill="#000000">LEFT JOIN samples</text>
<text text-anchor="middle" x="256" y="-538.5164" font-family="Times,serif" font-size="14.00" fill="#000000">At level: 2</text>
<text text-anchor="middle" x="256" y="-521.7164" font-family="Times,serif" font-size="14.00" fill="#000000">Required: false</text>
</g>
<!-- methodSets&#45;&gt;methodSets__mSRID_mSRID__samples_join -->
<g id="edge1" class="edge">
<title>methodSets&#45;&gt;methodSets__mSRID_mSRID__samples_join</title>
<path fill="none" stroke="#000000" d="M256,-619.6376C256,-612.3285 256,-603.5189 256,-594.5101"/>
<polygon fill="#000000" stroke="#000000" points="259.5001,-594.3235 256,-584.3236 252.5001,-594.3236 259.5001,-594.3235"/>
</g>
<!-- methodSets__mSRID_mSRID__samples_join_Has_Rows -->
<g id="node3" class="node">
<title>methodSets__mSRID_mSRID__samples_join_Has_Rows</title>
<ellipse fill="none" stroke="#000000" cx="385" cy="-447.4214" rx="47.4704" ry="18"/>
<text text-anchor="middle" x="385" y="-443.2214" font-family="Times,serif" font-size="14.00" fill="#000000">Has rows</text>
</g>
<!-- methodSets__mSRID_mSRID__samples_join&#45;&gt;methodSets__mSRID_mSRID__samples_join_Has_Rows -->
<g id="edge2" class="edge">
<title>methodSets__mSRID_mSRID__samples_join&#45;&gt;methodSets__mSRID_mSRID__samples_join_Has_Rows</title>
<path fill="none" stroke="#000000" d="M304.0348,-507.232C321.0412,-494.6691 339.6841,-480.8972 354.7895,-469.7385"/>
<polygon fill="#000000" stroke="#000000" points="357.2717,-472.2563 363.2355,-463.4993 353.1125,-466.6259 357.2717,-472.2563"/>
</g>
<!-- methodSets__mSRID_mSRID__samples_join_No_Rows -->
<g id="node18" class="node">
<title>methodSets__mSRID_mSRID__samples_join_No_Rows</title>
<ellipse fill="none" stroke="#000000" cx="202" cy="-447.4214" rx="44.0415" ry="18"/>
<text text-anchor="middle" x="202" y="-443.2214" font-family="Times,serif" font-size="14.00" fill="#000000">No rows</text>
</g>
<!-- methodSets__mSRID_mSRID__samples_join&#45;&gt;methodSets__mSRID_mSRID__samples_join_No_Rows -->
<g id="edge21" class="edge">
<title>methodSets__mSRID_mSRID__samples_join&#45;&gt;methodSets__mSRID_mSRID__samples_join_No_Rows</title>
<path fill="none" stroke="#000000" d="M233.2556,-502.5789C227.7791,-492.9143 222.063,-482.8269 217.0392,-473.9614"/>
<polygon fill="#000000" stroke="#000000" points="220.0689,-472.2085 212.0936,-465.2338 213.9787,-475.6596 220.0689,-472.2085"/>
</g>
<!-- samples__siteID_siteID__sites_join -->
<g id="node4" class="node">
<title>samples__siteID_siteID__sites_join</title>
<ellipse fill="none" stroke="#000000" cx="758" cy="-352.1263" rx="78.8882" ry="41.0911"/>
<text text-anchor="middle" x="758" y="-364.7263" font-family="Times,serif" font-size="14.00" fill="#000000">LEFT JOIN sites</text>
<text text-anchor="middle" x="758" y="-347.9263" font-family="Times,serif" font-size="14.00" fill="#000000">At level: 1</text>
<text text-anchor="middle" x="758" y="-331.1263" font-family="Times,serif" font-size="14.00" fill="#000000">Required: true</text>
</g>
<!-- methodSets__mSRID_mSRID__samples_join_Has_Rows&#45;&gt;samples__siteID_siteID__sites_join -->
<g id="edge3" class="edge">
<title>methodSets__mSRID_mSRID__samples_join_Has_Rows&#45;&gt;samples__siteID_siteID__sites_join</title>
<path fill="none" stroke="#000000" d="M424.5644,-437.3133C484.3486,-422.0395 598.992,-392.7501 676.977,-372.8263"/>
<polygon fill="#000000" stroke="#000000" points="677.9525,-376.1896 686.7749,-370.3231 676.2197,-369.4074 677.9525,-376.1896"/>
</g>
<!-- samples__dataID_dataID__datasets_join -->
<g id="node12" class="node">
<title>samples__dataID_dataID__datasets_join</title>
<ellipse fill="none" stroke="#000000" cx="385" cy="-352.1263" rx="92.8656" ry="41.0911"/>
<text text-anchor="middle" x="385" y="-364.7263" font-family="Times,serif" font-size="14.00" fill="#000000">LEFT JOIN datasets</text>
<text text-anchor="middle" x="385" y="-347.9263" font-family="Times,serif" font-size="14.00" fill="#000000">At level: 1</text>
<text text-anchor="middle" x="385" y="-331.1263" font-family="Times,serif" font-size="14.00" fill="#000000">Required: true</text>
</g>
<!-- methodSets__mSRID_mSRID__samples_join_Has_Rows&#45;&gt;samples__dataID_dataID__datasets_join -->
<g id="edge12" class="edge">
<title>methodSets__mSRID_mSRID__samples_join_Has_Rows&#45;&gt;samples__dataID_dataID__datasets_join</title>
<path fill="none" stroke="#000000" d="M385,-429.0475C385,-421.7384 385,-412.9288 385,-403.92"/>
<polygon fill="#000000" stroke="#000000" points="388.5001,-403.7335 385,-393.7335 381.5001,-403.7335 388.5001,-403.7335"/>
</g>
<!-- samples__siteID_siteID__sites_join_Has_Rows -->
<g id="node5" class="node">
<title>samples__siteID_siteID__sites_join_Has_Rows</title>
<ellipse fill="none" stroke="#000000" cx="758" cy="-256.8313" rx="47.4704" ry="18"/>
<text text-anchor="middle" x="758" y="-252.6313" font-family="Times,serif" font-size="14.00" fill="#000000">Has rows</text>
</g>
<!-- samples__siteID_siteID__sites_join&#45;&gt;samples__siteID_siteID__sites_join_Has_Rows -->
<g id="edge4" class="edge">
<title>samples__siteID_siteID__sites_join&#45;&gt;samples__siteID_siteID__sites_join_Has_Rows</title>
<path fill="none" stroke="#000000" d="M758,-310.6057C758,-302.0541 758,-293.2347 758,-285.2742"/>
<polygon fill="#000000" stroke="#000000" points="761.5001,-285.0572 758,-275.0572 754.5001,-285.0572 761.5001,-285.0572"/>
</g>
<!-- samples__siteID_siteID__sites_join_No_Rows -->
<g id="node11" class="node">
<title>samples__siteID_siteID__sites_join_No_Rows</title>
<ellipse fill="none" stroke="#000000" cx="1036" cy="-173.4156" rx="44.0415" ry="18"/>
<text text-anchor="middle" x="1036" y="-169.2156" font-family="Times,serif" font-size="14.00" fill="#000000">No rows</text>
</g>
<!-- samples__siteID_siteID__sites_join&#45;&gt;samples__siteID_siteID__sites_join_No_Rows -->
<g id="edge10" class="edge">
<title>samples__siteID_siteID__sites_join&#45;&gt;samples__siteID_siteID__sites_join_No_Rows</title>
<path fill="none" stroke="#000000" d="M808.0219,-319.97C864.8274,-283.453 955.8366,-224.9482 1003.8845,-194.0609"/>
<polygon fill="#000000" stroke="#000000" points="1005.819,-196.9782 1012.3382,-188.6265 1002.0337,-191.0899 1005.819,-196.9782"/>
</g>
<!-- samples__siteID_siteID__sites_where -->
<g id="node6" class="node">
<title>samples__siteID_siteID__sites_where</title>
<ellipse fill="none" stroke="#000000" cx="758" cy="-173.4156" rx="216.315" ry="29.3315"/>
<text text-anchor="middle" x="758" y="-177.6156" font-family="Times,serif" font-size="14.00" fill="#000000">WHERE IN</text>
<text text-anchor="middle" x="758" y="-160.8156" font-family="Times,serif" font-size="14.00" fill="#000000">sites.healthReg = [&quot;Whitehorse&quot;,&quot;Haines Junction&quot;]</text>
</g>
<!-- samples__siteID_siteID__sites_join_Has_Rows&#45;&gt;samples__siteID_siteID__sites_where -->
<g id="edge5" class="edge">
<title>samples__siteID_siteID__sites_join_Has_Rows&#45;&gt;samples__siteID_siteID__sites_where</title>
<path fill="none" stroke="#000000" d="M758,-238.7313C758,-231.1418 758,-221.9972 758,-212.986"/>
<polygon fill="#000000" stroke="#000000" points="761.5001,-212.9587 758,-202.9588 754.5001,-212.9588 761.5001,-212.9587"/>
</g>
<!-- samples__siteID_siteID__sites_where_Has_Rows -->
<g id="node7" class="node">
<title>samples__siteID_siteID__sites_where_Has_Rows</title>
<ellipse fill="none" stroke="#000000" cx="439" cy="-90" rx="47.4704" ry="18"/>
<text text-anchor="middle" x="439" y="-85.8" font-family="Times,serif" font-size="14.00" fill="#000000">Has rows</text>
</g>
<!-- samples__siteID_siteID__sites_where&#45;&gt;samples__siteID_siteID__sites_where_Has_Rows -->
<g id="edge6" class="edge">
<title>samples__siteID_siteID__sites_where&#45;&gt;samples__siteID_siteID__sites_where_Has_Rows</title>
<path fill="none" stroke="#000000" d="M657.9416,-147.2513C601.3743,-132.4594 533.1669,-114.6238 488.0778,-102.8334"/>
<polygon fill="#000000" stroke="#000000" points="488.8194,-99.4097 478.2593,-100.2659 487.0485,-106.182 488.8194,-99.4097"/>
</g>
<!-- samples__siteID_siteID__sites_where_No_Rows -->
<g id="node9" class="node">
<title>samples__siteID_siteID__sites_where_No_Rows</title>
<ellipse fill="none" stroke="#000000" cx="672" cy="-90" rx="44.0415" ry="18"/>
<text text-anchor="middle" x="672" y="-85.8" font-family="Times,serif" font-size="14.00" fill="#000000">No rows</text>
</g>
<!-- samples__siteID_siteID__sites_where&#45;&gt;samples__siteID_siteID__sites_where_No_Rows -->
<g id="edge8" class="edge">
<title>samples__siteID_siteID__sites_where&#45;&gt;samples__siteID_siteID__sites_where_No_Rows</title>
<path fill="none" stroke="#000000" d="M727.9214,-144.2409C717.6784,-134.3057 706.357,-123.3246 696.5954,-113.8563"/>
<polygon fill="#000000" stroke="#000000" points="698.7666,-111.0862 689.1516,-106.6362 693.8929,-116.1109 698.7666,-111.0862"/>
</g>
<!-- granted -->
<g id="node8" class="node">
<title>granted</title>
<ellipse fill="none" stroke="#000000" cx="221" cy="-18" rx="71.7874" ry="18"/>
<text text-anchor="middle" x="221" y="-13.8" font-family="Times,serif" font-size="14.00" fill="#000000">Access Granted</text>
</g>
<!-- samples__siteID_siteID__sites_where_Has_Rows&#45;&gt;granted -->
<g id="edge7" class="edge">
<title>samples__siteID_siteID__sites_where_Has_Rows&#45;&gt;granted</title>
<path fill="none" stroke="#000000" d="M403.0017,-78.1107C367.921,-66.5244 314.1693,-48.7715 274.1641,-35.5588"/>
<polygon fill="#000000" stroke="#000000" points="275.1603,-32.2019 264.5671,-32.3891 272.9649,-38.8488 275.1603,-32.2019"/>
</g>
<!-- denied -->
<g id="node10" class="node">
<title>denied</title>
<ellipse fill="none" stroke="#000000" cx="593" cy="-18" rx="68.8581" ry="18"/>
<text text-anchor="middle" x="593" y="-13.8" font-family="Times,serif" font-size="14.00" fill="#000000">Access Denied</text>
</g>
<!-- samples__siteID_siteID__sites_where_No_Rows&#45;&gt;denied -->
<g id="edge9" class="edge">
<title>samples__siteID_siteID__sites_where_No_Rows&#45;&gt;denied</title>
<path fill="none" stroke="#000000" d="M653.6772,-73.3008C643.5298,-64.0525 630.735,-52.3914 619.5136,-42.1643"/>
<polygon fill="#000000" stroke="#000000" points="621.7967,-39.5096 612.0482,-35.3603 617.0815,-44.6832 621.7967,-39.5096"/>
</g>
<!-- samples__siteID_siteID__sites_join_No_Rows&#45;&gt;denied -->
<g id="edge11" class="edge">
<title>samples__siteID_siteID__sites_join_No_Rows&#45;&gt;denied</title>
<path fill="none" stroke="#000000" d="M1011.4313,-158.4764C1002.648,-153.488 992.5566,-148.1489 983,-144 869.4712,-94.7125 730.1708,-54.2333 652.5317,-33.3466"/>
<polygon fill="#000000" stroke="#000000" points="653.0197,-29.8543 642.455,-30.6528 651.2118,-36.6168 653.0197,-29.8543"/>
</g>
<!-- samples__dataID_dataID__datasets_join_Has_Rows -->
<g id="node13" class="node">
<title>samples__dataID_dataID__datasets_join_Has_Rows</title>
<ellipse fill="none" stroke="#000000" cx="294" cy="-256.8313" rx="47.4704" ry="18"/>
<text text-anchor="middle" x="294" y="-252.6313" font-family="Times,serif" font-size="14.00" fill="#000000">Has rows</text>
</g>
<!-- samples__dataID_dataID__datasets_join&#45;&gt;samples__dataID_dataID__datasets_join_Has_Rows -->
<g id="edge13" class="edge">
<title>samples__dataID_dataID__datasets_join&#45;&gt;samples__dataID_dataID__datasets_join_Has_Rows</title>
<path fill="none" stroke="#000000" d="M348.5112,-313.9153C338.0546,-302.9652 326.9367,-291.3225 317.4875,-281.4273"/>
<polygon fill="#000000" stroke="#000000" points="319.7492,-278.7278 310.3116,-273.9128 314.6866,-283.5622 319.7492,-278.7278"/>
</g>
<!-- samples__dataID_dataID__datasets_join_No_Rows -->
<g id="node17" class="node">
<title>samples__dataID_dataID__datasets_join_No_Rows</title>
<ellipse fill="none" stroke="#000000" cx="440" cy="-256.8313" rx="44.0415" ry="18"/>
<text text-anchor="middle" x="440" y="-252.6313" font-family="Times,serif" font-size="14.00" fill="#000000">No rows</text>
</g>
<!-- samples__dataID_dataID__datasets_join&#45;&gt;samples__dataID_dataID__datasets_join_No_Rows -->
<g id="edge19" class="edge">
<title>samples__dataID_dataID__datasets_join&#45;&gt;samples__dataID_dataID__datasets_join_No_Rows</title>
<path fill="none" stroke="#000000" d="M408.1655,-311.9888C413.7435,-302.3243 419.5655,-292.2368 424.6823,-283.3713"/>
<polygon fill="#000000" stroke="#000000" points="427.752,-285.0543 429.7194,-274.6438 421.6893,-281.5552 427.752,-285.0543"/>
</g>
<!-- samples__dataID_dataID__datasets_where -->
<g id="node14" class="node">
<title>samples__dataID_dataID__datasets_where</title>
<ellipse fill="none" stroke="#000000" cx="257" cy="-173.4156" rx="228.5204" ry="29.3315"/>
<text text-anchor="middle" x="257" y="-177.6156" font-family="Times,serif" font-size="14.00" fill="#000000">WHERE IN</text>
<text text-anchor="middle" x="257" y="-160.8156" font-family="Times,serif" font-size="14.00" fill="#000000">datasets.dataID = [&quot;NML&#45;WWPCR&quot;,&quot;NML&#45;WWGX&quot;]</text>
</g>
<!-- samples__dataID_dataID__datasets_join_Has_Rows&#45;&gt;samples__dataID_dataID__datasets_where -->
<g id="edge14" class="edge">
<title>samples__dataID_dataID__datasets_join_Has_Rows&#45;&gt;samples__dataID_dataID__datasets_where</title>
<path fill="none" stroke="#000000" d="M285.9716,-238.7313C282.4965,-230.897 278.2865,-221.4056 274.1653,-212.1145"/>
<polygon fill="#000000" stroke="#000000" points="277.3583,-210.6807 270.1042,-202.9588 270.9595,-213.519 277.3583,-210.6807"/>
</g>
<!-- samples__dataID_dataID__datasets_where_Has_Rows -->
<g id="node15" class="node">
<title>samples__dataID_dataID__datasets_where_Has_Rows</title>
<ellipse fill="none" stroke="#000000" cx="221" cy="-90" rx="47.4704" ry="18"/>
<text text-anchor="middle" x="221" y="-85.8" font-family="Times,serif" font-size="14.00" fill="#000000">Has rows</text>
</g>
<!-- samples__dataID_dataID__datasets_where&#45;&gt;samples__dataID_dataID__datasets_where_Has_Rows -->
<g id="edge15" class="edge">
<title>samples__dataID_dataID__datasets_where&#45;&gt;samples__dataID_dataID__datasets_where_Has_Rows</title>
<path fill="none" stroke="#000000" d="M244.2064,-143.7715C240.4878,-135.1551 236.4448,-125.7872 232.7909,-117.3206"/>
<polygon fill="#000000" stroke="#000000" points="235.8989,-115.6893 228.7229,-107.8947 229.4719,-118.4631 235.8989,-115.6893"/>
</g>
<!-- samples__dataID_dataID__datasets_where_No_Rows -->
<g id="node16" class="node">
<title>samples__dataID_dataID__datasets_where_No_Rows</title>
<ellipse fill="none" stroke="#000000" cx="330" cy="-90" rx="44.0415" ry="18"/>
<text text-anchor="middle" x="330" y="-85.8" font-family="Times,serif" font-size="14.00" fill="#000000">No rows</text>
</g>
<!-- samples__dataID_dataID__datasets_where&#45;&gt;samples__dataID_dataID__datasets_where_No_Rows -->
<g id="edge17" class="edge">
<title>samples__dataID_dataID__datasets_where&#45;&gt;samples__dataID_dataID__datasets_where_No_Rows</title>
<path fill="none" stroke="#000000" d="M282.9426,-143.7715C291.1836,-134.3547 300.2103,-124.0401 308.1342,-114.9856"/>
<polygon fill="#000000" stroke="#000000" points="310.8144,-117.2376 314.7662,-107.4073 305.5467,-112.6276 310.8144,-117.2376"/>
</g>
<!-- samples__dataID_dataID__datasets_where_Has_Rows&#45;&gt;granted -->
<g id="edge16" class="edge">
<title>samples__dataID_dataID__datasets_where_Has_Rows&#45;&gt;granted</title>
<path fill="none" stroke="#000000" d="M221,-71.8314C221,-64.131 221,-54.9743 221,-46.4166"/>
<polygon fill="#000000" stroke="#000000" points="224.5001,-46.4132 221,-36.4133 217.5001,-46.4133 224.5001,-46.4132"/>
</g>
<!-- samples__dataID_dataID__datasets_where_No_Rows&#45;&gt;denied -->
<g id="edge18" class="edge">
<title>samples__dataID_dataID__datasets_where_No_Rows&#45;&gt;denied</title>
<path fill="none" stroke="#000000" d="M363.522,-78.1879C369.9591,-76.0411 376.6671,-73.8867 383,-72 432.7657,-57.1739 489.8723,-42.647 531.9597,-32.4014"/>
<polygon fill="#000000" stroke="#000000" points="532.8862,-35.7783 541.7808,-30.0219 531.2378,-28.9751 532.8862,-35.7783"/>
</g>
<!-- samples__dataID_dataID__datasets_join_No_Rows&#45;&gt;denied -->
<g id="edge20" class="edge">
<title>samples__dataID_dataID__datasets_join_No_Rows&#45;&gt;denied</title>
<path fill="none" stroke="#000000" d="M459.2948,-240.5966C470.576,-230.481 484.5965,-216.7737 495,-202.8313 533.3827,-151.3921 565.4708,-82.8998 581.666,-45.4062"/>
<polygon fill="#000000" stroke="#000000" points="584.9178,-46.7032 585.6201,-36.1316 578.4786,-43.9578 584.9178,-46.7032"/>
</g>
<!-- methodSets__mSRID_mSRID__samples_join_No_Rows&#45;&gt;granted -->
<g id="edge22" class="edge">
<title>methodSets__mSRID_mSRID__samples_join_No_Rows&#45;&gt;granted</title>
<path fill="none" stroke="#000000" d="M169.9925,-434.8057C113.034,-410.0074 0,-349.1636 0,-256.8313 0,-256.8313 0,-256.8313 0,-173.4156 0,-95.4505 93.1676,-53.2098 158.5178,-33.1707"/>
<polygon fill="#000000" stroke="#000000" points="159.7524,-36.4554 168.3458,-30.2583 157.7634,-29.7439 159.7524,-36.4554"/>
</g>
</g>
</svg>
