<?xml version="1.0" encoding="UTF-8" standalone="no"?>
<!DOCTYPE svg PUBLIC "-//W3C//DTD SVG 1.1//EN"
 "http://www.w3.org/Graphics/SVG/1.1/DTD/svg11.dtd">
<!-- Generated by graphviz version 2.40.1 (20161225.0304)
 -->
<!-- Title: G Pages: 1 -->
<svg width="1201pt" height="1212pt"
 viewBox="0.00 0.00 1201.04 1212.02" xmlns="http://www.w3.org/2000/svg" xmlns:xlink="http://www.w3.org/1999/xlink">
<g id="graph0" class="graph" transform="scale(1 1) rotate(0) translate(4 1208.0229)">
<title>G</title>
<polygon fill="#ffffff" stroke="transparent" points="-4,4 -4,-1208.0229 1197.0415,-1208.0229 1197.0415,4 -4,4"/>
<!-- organizations -->
<g id="node1" class="node">
<title>organizations</title>
<ellipse fill="none" stroke="#000000" cx="1078.0208" cy="-1186.0229" rx="63.1209" ry="18"/>
<text text-anchor="middle" x="1078.0208" y="-1181.8229" font-family="Times,serif" font-size="14.00" fill="#000000">organizations</text>
</g>
<!-- organizations__addID_addID__addresses_join -->
<g id="node2" class="node">
<title>organizations__addID_addID__addresses_join</title>
<ellipse fill="none" stroke="#000000" cx="1078.0208" cy="-1090.7278" rx="99.0518" ry="41.0911"/>
<text text-anchor="middle" x="1078.0208" y="-1103.3278" font-family="Times,serif" font-size="14.00" fill="#000000">LEFT JOIN addresses</text>
<text text-anchor="middle" x="1078.0208" y="-1086.5278" font-family="Times,serif" font-size="14.00" fill="#000000">At level: 4</text>
<text text-anchor="middle" x="1078.0208" y="-1069.7278" font-family="Times,serif" font-size="14.00" fill="#000000">Required: false</text>
</g>
<!-- organizations&#45;&gt;organizations__addID_addID__addresses_join -->
<g id="edge1" class="edge">
<title>organizations&#45;&gt;organizations__addID_addID__addresses_join</title>
<path fill="none" stroke="#000000" d="M1078.0208,-1167.649C1078.0208,-1160.3399 1078.0208,-1151.5303 1078.0208,-1142.5215"/>
<polygon fill="#000000" stroke="#000000" points="1081.5209,-1142.335 1078.0208,-1132.335 1074.5209,-1142.335 1081.5209,-1142.335"/>
</g>
<!-- organizations__addID_addID__addresses_join_Has_Rows -->
<g id="node3" class="node">
<title>organizations__addID_addID__addresses_join_Has_Rows</title>
<ellipse fill="none" stroke="#000000" cx="1041.0208" cy="-995.4328" rx="47.4704" ry="18"/>
<text text-anchor="middle" x="1041.0208" y="-991.2328" font-family="Times,serif" font-size="14.00" fill="#000000">Has rows</text>
</g>
<!-- organizations__addID_addID__addresses_join&#45;&gt;organizations__addID_addID__addresses_join_Has_Rows -->
<g id="edge2" class="edge">
<title>organizations__addID_addID__addresses_join&#45;&gt;organizations__addID_addID__addresses_join_Has_Rows</title>
<path fill="none" stroke="#000000" d="M1062.1147,-1049.7611C1058.5671,-1040.6241 1054.8897,-1031.1528 1051.6183,-1022.7271"/>
<polygon fill="#000000" stroke="#000000" points="1054.8787,-1021.4542 1047.9965,-1013.399 1048.3533,-1023.9879 1054.8787,-1021.4542"/>
</g>
<!-- organizations__addID_addID__addresses_join_No_Rows -->
<g id="node27" class="node">
<title>organizations__addID_addID__addresses_join_No_Rows</title>
<ellipse fill="none" stroke="#000000" cx="1149.0208" cy="-900.1377" rx="44.0415" ry="18"/>
<text text-anchor="middle" x="1149.0208" y="-895.9377" font-family="Times,serif" font-size="14.00" fill="#000000">No rows</text>
</g>
<!-- organizations__addID_addID__addresses_join&#45;&gt;organizations__addID_addID__addresses_join_No_Rows -->
<g id="edge33" class="edge">
<title>organizations__addID_addID__addresses_join&#45;&gt;organizations__addID_addID__addresses_join_No_Rows</title>
<path fill="none" stroke="#000000" d="M1093.252,-1049.8415C1107.003,-1012.9289 1126.8556,-959.6371 1138.7921,-927.5952"/>
<polygon fill="#000000" stroke="#000000" points="1142.1605,-928.5791 1142.3717,-917.9864 1135.6009,-926.1354 1142.1605,-928.5791"/>
</g>
<!-- addresses__addID_addID__sites_join -->
<g id="node4" class="node">
<title>addresses__addID_addID__sites_join</title>
<ellipse fill="none" stroke="#000000" cx="1008.0208" cy="-900.1377" rx="78.8882" ry="41.0911"/>
<text text-anchor="middle" x="1008.0208" y="-912.7377" font-family="Times,serif" font-size="14.00" fill="#000000">LEFT JOIN sites</text>
<text text-anchor="middle" x="1008.0208" y="-895.9377" font-family="Times,serif" font-size="14.00" fill="#000000">At level: 3</text>
<text text-anchor="middle" x="1008.0208" y="-879.1377" font-family="Times,serif" font-size="14.00" fill="#000000">Required: false</text>
</g>
<!-- organizations__addID_addID__addresses_join_Has_Rows&#45;&gt;addresses__addID_addID__sites_join -->
<g id="edge3" class="edge">
<title>organizations__addID_addID__addresses_join_Has_Rows&#45;&gt;addresses__addID_addID__sites_join</title>
<path fill="none" stroke="#000000" d="M1034.8137,-977.5085C1032.1252,-969.7447 1028.8296,-960.2279 1025.481,-950.5583"/>
<polygon fill="#000000" stroke="#000000" points="1028.7151,-949.2011 1022.1354,-940.897 1022.1004,-951.4918 1028.7151,-949.2011"/>
</g>
<!-- addresses__addID_addID__sites_join_Has_Rows -->
<g id="node5" class="node">
<title>addresses__addID_addID__sites_join_Has_Rows</title>
<ellipse fill="none" stroke="#000000" cx="666.0208" cy="-804.8427" rx="47.4704" ry="18"/>
<text text-anchor="middle" x="666.0208" y="-800.6427" font-family="Times,serif" font-size="14.00" fill="#000000">Has rows</text>
</g>
<!-- addresses__addID_addID__sites_join&#45;&gt;addresses__addID_addID__sites_join_Has_Rows -->
<g id="edge4" class="edge">
<title>addresses__addID_addID__sites_join&#45;&gt;addresses__addID_addID__sites_join_Has_Rows</title>
<path fill="none" stroke="#000000" d="M937.9867,-880.6234C871.1123,-861.9895 772.1404,-834.4119 713.8504,-818.17"/>
<polygon fill="#000000" stroke="#000000" points="714.729,-814.7815 704.1565,-815.4689 712.85,-821.5247 714.729,-814.7815"/>
</g>
<!-- addresses__addID_addID__sites_join_No_Rows -->
<g id="node26" class="node">
<title>addresses__addID_addID__sites_join_No_Rows</title>
<ellipse fill="none" stroke="#000000" cx="1059.0208" cy="-721.4271" rx="44.0415" ry="18"/>
<text text-anchor="middle" x="1059.0208" y="-717.2271" font-family="Times,serif" font-size="14.00" fill="#000000">No rows</text>
</g>
<!-- addresses__addID_addID__sites_join&#45;&gt;addresses__addID_addID__sites_join_No_Rows -->
<g id="edge31" class="edge">
<title>addresses__addID_addID__sites_join&#45;&gt;addresses__addID_addID__sites_join_No_Rows</title>
<path fill="none" stroke="#000000" d="M1019.7212,-859.1379C1029.3494,-825.3996 1042.7335,-778.4997 1051.1332,-749.0661"/>
<polygon fill="#000000" stroke="#000000" points="1054.5034,-750.0103 1053.8821,-739.4337 1047.7722,-748.0893 1054.5034,-750.0103"/>
</g>
<!-- addresses__addID_addID__sites_where -->
<g id="node6" class="node">
<title>addresses__addID_addID__sites_where</title>
<ellipse fill="none" stroke="#000000" cx="212.0208" cy="-721.4271" rx="182.7015" ry="29.3315"/>
<text text-anchor="middle" x="212.0208" y="-725.6271" font-family="Times,serif" font-size="14.00" fill="#000000">WHERE IN</text>
<text text-anchor="middle" x="212.0208" y="-708.8271" font-family="Times,serif" font-size="14.00" fill="#000000">sites.healthReg = [&quot;Yukon&quot;,&quot;Yukon&#45;HNJ&quot;]</text>
</g>
<!-- addresses__addID_addID__sites_join_Has_Rows&#45;&gt;addresses__addID_addID__sites_where -->
<g id="edge5" class="edge">
<title>addresses__addID_addID__sites_join_Has_Rows&#45;&gt;addresses__addID_addID__sites_where</title>
<path fill="none" stroke="#000000" d="M623.3096,-796.9952C559.6718,-785.3027 437.2973,-762.8182 342.51,-745.4025"/>
<polygon fill="#000000" stroke="#000000" points="343.022,-741.9381 332.5541,-743.5733 341.757,-748.8228 343.022,-741.9381"/>
</g>
<!-- addresses__addID_addID__sites_where_Has_Rows -->
<g id="node7" class="node">
<title>addresses__addID_addID__sites_where_Has_Rows</title>
<ellipse fill="none" stroke="#000000" cx="212.0208" cy="-638.0114" rx="47.4704" ry="18"/>
<text text-anchor="middle" x="212.0208" y="-633.8114" font-family="Times,serif" font-size="14.00" fill="#000000">Has rows</text>
</g>
<!-- addresses__addID_addID__sites_where&#45;&gt;addresses__addID_addID__sites_where_Has_Rows -->
<g id="edge6" class="edge">
<title>addresses__addID_addID__sites_where&#45;&gt;addresses__addID_addID__sites_where_Has_Rows</title>
<path fill="none" stroke="#000000" d="M212.0208,-691.783C212.0208,-683.5778 212.0208,-674.691 212.0208,-666.5502"/>
<polygon fill="#000000" stroke="#000000" points="215.5209,-666.398 212.0208,-656.398 208.5209,-666.398 215.5209,-666.398"/>
</g>
<!-- addresses__addID_addID__sites_where_No_Rows -->
<g id="node25" class="node">
<title>addresses__addID_addID__sites_where_No_Rows</title>
<ellipse fill="none" stroke="#000000" cx="44.0208" cy="-542.7164" rx="44.0415" ry="18"/>
<text text-anchor="middle" x="44.0208" y="-538.5164" font-family="Times,serif" font-size="14.00" fill="#000000">No rows</text>
</g>
<!-- addresses__addID_addID__sites_where&#45;&gt;addresses__addID_addID__sites_where_No_Rows -->
<g id="edge29" class="edge">
<title>addresses__addID_addID__sites_where&#45;&gt;addresses__addID_addID__sites_where_No_Rows</title>
<path fill="none" stroke="#000000" d="M184.6548,-692.3164C151.9454,-657.5216 97.7906,-599.9143 67.1033,-567.2705"/>
<polygon fill="#000000" stroke="#000000" points="69.5979,-564.8142 60.1984,-559.9254 64.4977,-569.6088 69.5979,-564.8142"/>
</g>
<!-- sites__siteID_siteID__samples_join -->
<g id="node8" class="node">
<title>sites__siteID_siteID__samples_join</title>
<ellipse fill="none" stroke="#000000" cx="212.0208" cy="-542.7164" rx="93.4765" ry="41.0911"/>
<text text-anchor="middle" x="212.0208" y="-555.3164" font-family="Times,serif" font-size="14.00" fill="#000000">LEFT JOIN samples</text>
<text text-anchor="middle" x="212.0208" y="-538.5164" font-family="Times,serif" font-size="14.00" fill="#000000">At level: 2</text>
<text text-anchor="middle" x="212.0208" y="-521.7164" font-family="Times,serif" font-size="14.00" fill="#000000">Required: true</text>
</g>
<!-- addresses__addID_addID__sites_where_Has_Rows&#45;&gt;sites__siteID_siteID__samples_join -->
<g id="edge7" class="edge">
<title>addresses__addID_addID__sites_where_Has_Rows&#45;&gt;sites__siteID_siteID__samples_join</title>
<path fill="none" stroke="#000000" d="M212.0208,-619.6376C212.0208,-612.3285 212.0208,-603.5189 212.0208,-594.5101"/>
<polygon fill="#000000" stroke="#000000" points="215.5209,-594.3235 212.0208,-584.3236 208.5209,-594.3236 215.5209,-594.3235"/>
</g>
<!-- sites__siteID_siteID__samples_join_Has_Rows -->
<g id="node9" class="node">
<title>sites__siteID_siteID__samples_join_Has_Rows</title>
<ellipse fill="none" stroke="#000000" cx="263.0208" cy="-447.4214" rx="47.4704" ry="18"/>
<text text-anchor="middle" x="263.0208" y="-443.2214" font-family="Times,serif" font-size="14.00" fill="#000000">Has rows</text>
</g>
<!-- sites__siteID_siteID__samples_join&#45;&gt;sites__siteID_siteID__samples_join_Has_Rows -->
<g id="edge8" class="edge">
<title>sites__siteID_siteID__samples_join&#45;&gt;sites__siteID_siteID__samples_join_Has_Rows</title>
<path fill="none" stroke="#000000" d="M233.6494,-502.3027C238.7533,-492.7659 244.0691,-482.8332 248.753,-474.0812"/>
<polygon fill="#000000" stroke="#000000" points="251.9148,-475.5906 253.5476,-465.1223 245.7431,-472.2875 251.9148,-475.5906"/>
</g>
<!-- sites__siteID_siteID__samples_join_No_Rows -->
<g id="node24" class="node">
<title>sites__siteID_siteID__samples_join_No_Rows</title>
<ellipse fill="none" stroke="#000000" cx="129.0208" cy="-447.4214" rx="44.0415" ry="18"/>
<text text-anchor="middle" x="129.0208" y="-443.2214" font-family="Times,serif" font-size="14.00" fill="#000000">No rows</text>
</g>
<!-- sites__siteID_siteID__samples_join&#45;&gt;sites__siteID_siteID__samples_join_No_Rows -->
<g id="edge27" class="edge">
<title>sites__siteID_siteID__samples_join&#45;&gt;sites__siteID_siteID__samples_join_No_Rows</title>
<path fill="none" stroke="#000000" d="M178.2615,-503.9563C169.0048,-493.3284 159.2154,-482.0888 150.8247,-472.4551"/>
<polygon fill="#000000" stroke="#000000" points="153.3549,-470.0312 144.1477,-464.7891 148.0763,-474.6287 153.3549,-470.0312"/>
</g>
<!-- samples__siteID_siteID__sites_join -->
<g id="node10" class="node">
<title>samples__siteID_siteID__sites_join</title>
<ellipse fill="none" stroke="#000000" cx="655.0208" cy="-352.1263" rx="78.8882" ry="41.0911"/>
<text text-anchor="middle" x="655.0208" y="-364.7263" font-family="Times,serif" font-size="14.00" fill="#000000">LEFT JOIN sites</text>
<text text-anchor="middle" x="655.0208" y="-347.9263" font-family="Times,serif" font-size="14.00" fill="#000000">At level: 1</text>
<text text-anchor="middle" x="655.0208" y="-331.1263" font-family="Times,serif" font-size="14.00" fill="#000000">Required: true</text>
</g>
<!-- sites__siteID_siteID__samples_join_Has_Rows&#45;&gt;samples__siteID_siteID__sites_join -->
<g id="edge9" class="edge">
<title>sites__siteID_siteID__samples_join_Has_Rows&#45;&gt;samples__siteID_siteID__sites_join</title>
<path fill="none" stroke="#000000" d="M303.1295,-437.671C366.414,-422.2865 490.7166,-392.0686 573.344,-371.9819"/>
<polygon fill="#000000" stroke="#000000" points="574.3168,-375.3474 583.207,-369.5842 572.6632,-368.5455 574.3168,-375.3474"/>
</g>
<!-- samples__dataID_dataID__datasets_join -->
<g id="node18" class="node">
<title>samples__dataID_dataID__datasets_join</title>
<ellipse fill="none" stroke="#000000" cx="263.0208" cy="-352.1263" rx="92.8656" ry="41.0911"/>
<text text-anchor="middle" x="263.0208" y="-364.7263" font-family="Times,serif" font-size="14.00" fill="#000000">LEFT JOIN datasets</text>
<text text-anchor="middle" x="263.0208" y="-347.9263" font-family="Times,serif" font-size="14.00" fill="#000000">At level: 1</text>
<text text-anchor="middle" x="263.0208" y="-331.1263" font-family="Times,serif" font-size="14.00" fill="#000000">Required: true</text>
</g>
<!-- sites__siteID_siteID__samples_join_Has_Rows&#45;&gt;samples__dataID_dataID__datasets_join -->
<g id="edge18" class="edge">
<title>sites__siteID_siteID__samples_join_Has_Rows&#45;&gt;samples__dataID_dataID__datasets_join</title>
<path fill="none" stroke="#000000" d="M263.0208,-429.0475C263.0208,-421.7384 263.0208,-412.9288 263.0208,-403.92"/>
<polygon fill="#000000" stroke="#000000" points="266.5209,-403.7335 263.0208,-393.7335 259.5209,-403.7335 266.5209,-403.7335"/>
</g>
<!-- samples__siteID_siteID__sites_join_Has_Rows -->
<g id="node11" class="node">
<title>samples__siteID_siteID__sites_join_Has_Rows</title>
<ellipse fill="none" stroke="#000000" cx="815.0208" cy="-256.8313" rx="47.4704" ry="18"/>
<text text-anchor="middle" x="815.0208" y="-252.6313" font-family="Times,serif" font-size="14.00" fill="#000000">Has rows</text>
</g>
<!-- samples__siteID_siteID__sites_join&#45;&gt;samples__siteID_siteID__sites_join_Has_Rows -->
<g id="edge10" class="edge">
<title>samples__siteID_siteID__sites_join&#45;&gt;samples__siteID_siteID__sites_join_Has_Rows</title>
<path fill="none" stroke="#000000" d="M707.4108,-320.9232C731.494,-306.5793 759.3823,-289.9692 780.7328,-277.253"/>
<polygon fill="#000000" stroke="#000000" points="782.652,-280.1837 789.4526,-272.0595 779.07,-274.1696 782.652,-280.1837"/>
</g>
<!-- samples__siteID_siteID__sites_join_No_Rows -->
<g id="node17" class="node">
<title>samples__siteID_siteID__sites_join_No_Rows</title>
<ellipse fill="none" stroke="#000000" cx="655.0208" cy="-173.4156" rx="44.0415" ry="18"/>
<text text-anchor="middle" x="655.0208" y="-169.2156" font-family="Times,serif" font-size="14.00" fill="#000000">No rows</text>
</g>
<!-- samples__siteID_siteID__sites_join&#45;&gt;samples__siteID_siteID__sites_join_No_Rows -->
<g id="edge16" class="edge">
<title>samples__siteID_siteID__sites_join&#45;&gt;samples__siteID_siteID__sites_join_No_Rows</title>
<path fill="none" stroke="#000000" d="M655.0208,-310.6773C655.0208,-277.3966 655.0208,-231.5276 655.0208,-202.1677"/>
<polygon fill="#000000" stroke="#000000" points="658.5209,-201.7842 655.0208,-191.7843 651.5209,-201.7843 658.5209,-201.7842"/>
</g>
<!-- samples__siteID_siteID__sites_where -->
<g id="node12" class="node">
<title>samples__siteID_siteID__sites_where</title>
<ellipse fill="none" stroke="#000000" cx="900.0208" cy="-173.4156" rx="182.7015" ry="29.3315"/>
<text text-anchor="middle" x="900.0208" y="-177.6156" font-family="Times,serif" font-size="14.00" fill="#000000">WHERE IN</text>
<text text-anchor="middle" x="900.0208" y="-160.8156" font-family="Times,serif" font-size="14.00" fill="#000000">sites.healthReg = [&quot;Yukon&quot;,&quot;Yukon&#45;HNJ&quot;]</text>
</g>
<!-- samples__siteID_siteID__sites_join_Has_Rows&#45;&gt;samples__siteID_siteID__sites_where -->
<g id="edge11" class="edge">
<title>samples__siteID_siteID__sites_join_Has_Rows&#45;&gt;samples__siteID_siteID__sites_where</title>
<path fill="none" stroke="#000000" d="M832.2218,-239.9509C841.0507,-231.2866 852.1697,-220.3748 862.8351,-209.9082"/>
<polygon fill="#000000" stroke="#000000" points="865.4269,-212.2685 870.1127,-202.7662 860.5239,-207.2724 865.4269,-212.2685"/>
</g>
<!-- samples__siteID_siteID__sites_where_Has_Rows -->
<g id="node13" class="node">
<title>samples__siteID_siteID__sites_where_Has_Rows</title>
<ellipse fill="none" stroke="#000000" cx="968.0208" cy="-90" rx="47.4704" ry="18"/>
<text text-anchor="middle" x="968.0208" y="-85.8" font-family="Times,serif" font-size="14.00" fill="#000000">Has rows</text>
</g>
<!-- samples__siteID_siteID__sites_where&#45;&gt;samples__siteID_siteID__sites_where_Has_Rows -->
<g id="edge12" class="edge">
<title>samples__siteID_siteID__sites_where&#45;&gt;samples__siteID_siteID__sites_where_Has_Rows</title>
<path fill="none" stroke="#000000" d="M923.8039,-144.2409C931.4278,-134.8886 939.8073,-124.6094 947.2025,-115.5378"/>
<polygon fill="#000000" stroke="#000000" points="950.0615,-117.5699 953.6672,-107.6075 944.6359,-113.1469 950.0615,-117.5699"/>
</g>
<!-- samples__siteID_siteID__sites_where_No_Rows -->
<g id="node15" class="node">
<title>samples__siteID_siteID__sites_where_No_Rows</title>
<ellipse fill="none" stroke="#000000" cx="773.0208" cy="-90" rx="44.0415" ry="18"/>
<text text-anchor="middle" x="773.0208" y="-85.8" font-family="Times,serif" font-size="14.00" fill="#000000">No rows</text>
</g>
<!-- samples__siteID_siteID__sites_where&#45;&gt;samples__siteID_siteID__sites_where_No_Rows -->
<g id="edge14" class="edge">
<title>samples__siteID_siteID__sites_where&#45;&gt;samples__siteID_siteID__sites_where_No_Rows</title>
<path fill="none" stroke="#000000" d="M856.3146,-144.7087C839.5203,-133.678 820.6737,-121.2992 805.161,-111.1102"/>
<polygon fill="#000000" stroke="#000000" points="806.7331,-107.9553 796.4533,-105.3908 802.8901,-113.8062 806.7331,-107.9553"/>
</g>
<!-- granted -->
<g id="node14" class="node">
<title>granted</title>
<ellipse fill="none" stroke="#000000" cx="1039.0208" cy="-18" rx="71.7874" ry="18"/>
<text text-anchor="middle" x="1039.0208" y="-13.8" font-family="Times,serif" font-size="14.00" fill="#000000">Access Granted</text>
</g>
<!-- samples__siteID_siteID__sites_where_Has_Rows&#45;&gt;granted -->
<g id="edge13" class="edge">
<title>samples__siteID_siteID__sites_where_Has_Rows&#45;&gt;granted</title>
<path fill="none" stroke="#000000" d="M984.8468,-72.937C993.6697,-63.9898 1004.644,-52.8609 1014.4035,-42.964"/>
<polygon fill="#000000" stroke="#000000" points="1017.0447,-45.2703 1021.5741,-35.6924 1012.0605,-40.3553 1017.0447,-45.2703"/>
</g>
<!-- denied -->
<g id="node16" class="node">
<title>denied</title>
<ellipse fill="none" stroke="#000000" cx="216.0208" cy="-18" rx="68.8581" ry="18"/>
<text text-anchor="middle" x="216.0208" y="-13.8" font-family="Times,serif" font-size="14.00" fill="#000000">Access Denied</text>
</g>
<!-- samples__siteID_siteID__sites_where_No_Rows&#45;&gt;denied -->
<g id="edge15" class="edge">
<title>samples__siteID_siteID__sites_where_No_Rows&#45;&gt;denied</title>
<path fill="none" stroke="#000000" d="M730.6981,-84.5292C635.8475,-72.2684 405.3708,-42.4761 287.7087,-27.2667"/>
<polygon fill="#000000" stroke="#000000" points="288.0805,-23.7857 277.7143,-25.9747 287.183,-30.7279 288.0805,-23.7857"/>
</g>
<!-- samples__siteID_siteID__sites_join_No_Rows&#45;&gt;denied -->
<g id="edge17" class="edge">
<title>samples__siteID_siteID__sites_join_No_Rows&#45;&gt;denied</title>
<path fill="none" stroke="#000000" d="M632.4114,-157.7372C599.193,-135.4194 534.5657,-94.6873 474.0208,-72 413.4326,-49.2965 341.0717,-35.1995 288.4234,-27.1275"/>
<polygon fill="#000000" stroke="#000000" points="288.9062,-23.6609 278.4981,-25.6412 287.8694,-30.5837 288.9062,-23.6609"/>
</g>
<!-- samples__dataID_dataID__datasets_join_Has_Rows -->
<g id="node19" class="node">
<title>samples__dataID_dataID__datasets_join_Has_Rows</title>
<ellipse fill="none" stroke="#000000" cx="339.0208" cy="-256.8313" rx="47.4704" ry="18"/>
<text text-anchor="middle" x="339.0208" y="-252.6313" font-family="Times,serif" font-size="14.00" fill="#000000">Has rows</text>
</g>
<!-- samples__dataID_dataID__datasets_join&#45;&gt;samples__dataID_dataID__datasets_join_Has_Rows -->
<g id="edge19" class="edge">
<title>samples__dataID_dataID__datasets_join&#45;&gt;samples__dataID_dataID__datasets_join_Has_Rows</title>
<path fill="none" stroke="#000000" d="M294.1522,-313.0912C302.5224,-302.5959 311.3526,-291.5239 318.9446,-282.0044"/>
<polygon fill="#000000" stroke="#000000" points="321.7562,-284.0924 325.255,-274.0919 316.2835,-279.7278 321.7562,-284.0924"/>
</g>
<!-- samples__dataID_dataID__datasets_join_No_Rows -->
<g id="node23" class="node">
<title>samples__dataID_dataID__datasets_join_No_Rows</title>
<ellipse fill="none" stroke="#000000" cx="173.0208" cy="-256.8313" rx="44.0415" ry="18"/>
<text text-anchor="middle" x="173.0208" y="-252.6313" font-family="Times,serif" font-size="14.00" fill="#000000">No rows</text>
</g>
<!-- samples__dataID_dataID__datasets_join&#45;&gt;samples__dataID_dataID__datasets_join_No_Rows -->
<g id="edge25" class="edge">
<title>samples__dataID_dataID__datasets_join&#45;&gt;samples__dataID_dataID__datasets_join_No_Rows</title>
<path fill="none" stroke="#000000" d="M226.9329,-313.9153C216.5141,-302.8835 205.4314,-291.1487 196.0412,-281.2061"/>
<polygon fill="#000000" stroke="#000000" points="198.3291,-278.5312 188.9183,-273.6642 193.24,-283.3375 198.3291,-278.5312"/>
</g>
<!-- samples__dataID_dataID__datasets_where -->
<g id="node20" class="node">
<title>samples__dataID_dataID__datasets_where</title>
<ellipse fill="none" stroke="#000000" cx="364.0208" cy="-173.4156" rx="228.5204" ry="29.3315"/>
<text text-anchor="middle" x="364.0208" y="-177.6156" font-family="Times,serif" font-size="14.00" fill="#000000">WHERE IN</text>
<text text-anchor="middle" x="364.0208" y="-160.8156" font-family="Times,serif" font-size="14.00" fill="#000000">datasets.dataID = [&quot;NML&#45;WWPCR&quot;,&quot;NML&#45;WWGX&quot;]</text>
</g>
<!-- samples__dataID_dataID__datasets_join_Has_Rows&#45;&gt;samples__dataID_dataID__datasets_where -->
<g id="edge20" class="edge">
<title>samples__dataID_dataID__datasets_join_Has_Rows&#45;&gt;samples__dataID_dataID__datasets_where</title>
<path fill="none" stroke="#000000" d="M344.4454,-238.7313C346.7445,-231.0602 349.5197,-221.8004 352.2485,-212.6954"/>
<polygon fill="#000000" stroke="#000000" points="355.6483,-213.5427 355.1666,-202.9588 348.943,-211.533 355.6483,-213.5427"/>
</g>
<!-- samples__dataID_dataID__datasets_where_Has_Rows -->
<g id="node21" class="node">
<title>samples__dataID_dataID__datasets_where_Has_Rows</title>
<ellipse fill="none" stroke="#000000" cx="418.0208" cy="-90" rx="47.4704" ry="18"/>
<text text-anchor="middle" x="418.0208" y="-85.8" font-family="Times,serif" font-size="14.00" fill="#000000">Has rows</text>
</g>
<!-- samples__dataID_dataID__datasets_where&#45;&gt;samples__dataID_dataID__datasets_where_Has_Rows -->
<g id="edge21" class="edge">
<title>samples__dataID_dataID__datasets_where&#45;&gt;samples__dataID_dataID__datasets_where_Has_Rows</title>
<path fill="none" stroke="#000000" d="M383.2112,-143.7715C388.971,-134.8742 395.2496,-125.1754 400.8688,-116.4953"/>
<polygon fill="#000000" stroke="#000000" points="403.9402,-118.1913 406.4364,-107.8947 398.064,-114.3873 403.9402,-118.1913"/>
</g>
<!-- samples__dataID_dataID__datasets_where_No_Rows -->
<g id="node22" class="node">
<title>samples__dataID_dataID__datasets_where_No_Rows</title>
<ellipse fill="none" stroke="#000000" cx="271.0208" cy="-90" rx="44.0415" ry="18"/>
<text text-anchor="middle" x="271.0208" y="-85.8" font-family="Times,serif" font-size="14.00" fill="#000000">No rows</text>
</g>
<!-- samples__dataID_dataID__datasets_where&#45;&gt;samples__dataID_dataID__datasets_where_No_Rows -->
<g id="edge23" class="edge">
<title>samples__dataID_dataID__datasets_where&#45;&gt;samples__dataID_dataID__datasets_where_No_Rows</title>
<path fill="none" stroke="#000000" d="M331.4939,-144.2409C320.1135,-134.0334 307.5022,-122.7217 296.7539,-113.0811"/>
<polygon fill="#000000" stroke="#000000" points="299.0822,-110.4679 289.3009,-106.3963 294.4082,-115.6788 299.0822,-110.4679"/>
</g>
<!-- samples__dataID_dataID__datasets_where_Has_Rows&#45;&gt;granted -->
<g id="edge22" class="edge">
<title>samples__dataID_dataID__datasets_where_Has_Rows&#45;&gt;granted</title>
<path fill="none" stroke="#000000" d="M463.4328,-84.7348C569.1953,-72.4725 832.8421,-41.9048 963.3641,-26.7718"/>
<polygon fill="#000000" stroke="#000000" points="964.1392,-30.2055 973.6695,-25.577 963.3329,-23.252 964.1392,-30.2055"/>
</g>
<!-- samples__dataID_dataID__datasets_where_No_Rows&#45;&gt;denied -->
<g id="edge24" class="edge">
<title>samples__dataID_dataID__datasets_where_No_Rows&#45;&gt;denied</title>
<path fill="none" stroke="#000000" d="M257.7068,-72.5708C251.117,-63.9441 243.0305,-53.3582 235.7393,-43.8134"/>
<polygon fill="#000000" stroke="#000000" points="238.446,-41.591 229.5942,-35.7689 232.8833,-45.8403 238.446,-41.591"/>
</g>
<!-- samples__dataID_dataID__datasets_join_No_Rows&#45;&gt;denied -->
<g id="edge26" class="edge">
<title>samples__dataID_dataID__datasets_join_No_Rows&#45;&gt;denied</title>
<path fill="none" stroke="#000000" d="M153.2163,-240.545C142.981,-230.8086 131.5096,-217.498 126.0208,-202.8313 116.8563,-178.3427 118.0412,-168.8999 126.0208,-144 138.6983,-104.4402 168.8646,-66.7283 190.7865,-43.0481"/>
<polygon fill="#000000" stroke="#000000" points="193.5314,-45.2398 197.8677,-35.5729 188.4496,-40.4258 193.5314,-45.2398"/>
</g>
<!-- sites__siteID_siteID__samples_join_No_Rows&#45;&gt;denied -->
<g id="edge28" class="edge">
<title>sites__siteID_siteID__samples_join_No_Rows&#45;&gt;denied</title>
<path fill="none" stroke="#000000" d="M119.3807,-429.6142C102.4201,-396.5704 69.0208,-323.0882 69.0208,-256.8313 69.0208,-256.8313 69.0208,-256.8313 69.0208,-173.4156 69.0208,-111.6975 130.9639,-64.6174 174.4307,-39.1779"/>
<polygon fill="#000000" stroke="#000000" points="176.4333,-42.0656 183.3967,-34.0804 172.9736,-35.9803 176.4333,-42.0656"/>
</g>
<!-- addresses__addID_addID__sites_where_No_Rows&#45;&gt;denied -->
<g id="edge30" class="edge">
<title>addresses__addID_addID__sites_where_No_Rows&#45;&gt;denied</title>
<path fill="none" stroke="#000000" d="M41.9609,-524.6121C38.2952,-490.7796 31.0208,-415.6381 31.0208,-352.1263 31.0208,-352.1263 31.0208,-352.1263 31.0208,-173.4156 31.0208,-121.2693 50.9683,-106.5563 90.0208,-72 109.2811,-54.9571 134.7324,-42.6805 157.7161,-34.1831"/>
<polygon fill="#000000" stroke="#000000" points="159.1243,-37.3978 167.3899,-30.7699 156.7951,-30.7966 159.1243,-37.3978"/>
</g>
<!-- addresses__addID_addID__sites_join_No_Rows&#45;&gt;granted -->
<g id="edge32" class="edge">
<title>addresses__addID_addID__sites_join_No_Rows&#45;&gt;granted</title>
<path fill="none" stroke="#000000" d="M1067.8419,-703.6608C1082.6777,-672.0913 1111.0208,-603.7878 1111.0208,-542.7164 1111.0208,-542.7164 1111.0208,-542.7164 1111.0208,-173.4156 1111.0208,-124.1572 1080.8749,-73.5742 1059.5959,-44.0049"/>
<polygon fill="#000000" stroke="#000000" points="1062.3508,-41.8438 1053.591,-35.8841 1056.7224,-46.0057 1062.3508,-41.8438"/>
</g>
<!-- organizations__addID_addID__addresses_join_No_Rows&#45;&gt;granted -->
<g id="edge34" class="edge">
<title>organizations__addID_addID__addresses_join_No_Rows&#45;&gt;granted</title>
<path fill="none" stroke="#000000" d="M1149.0208,-882.1277C1149.0208,-849.8967 1149.0208,-780.2216 1149.0208,-721.4271 1149.0208,-721.4271 1149.0208,-721.4271 1149.0208,-173.4156 1149.0208,-123.7369 1132.0094,-111.6063 1102.0208,-72 1093.4974,-60.7431 1082.2655,-50.1902 1071.6485,-41.4523"/>
<polygon fill="#000000" stroke="#000000" points="1073.712,-38.6216 1063.7046,-35.1426 1069.3583,-44.1029 1073.712,-38.6216"/>
</g>
</g>
</svg>
