<?xml version="1.0" encoding="UTF-8" standalone="no"?>
<!DOCTYPE svg PUBLIC "-//W3C//DTD SVG 1.1//EN"
 "http://www.w3.org/Graphics/SVG/1.1/DTD/svg11.dtd">
<!-- Generated by graphviz version 2.40.1 (20161225.0304)
 -->
<!-- Title: G Pages: 1 -->
<svg width="836pt" height="1212pt"
 viewBox="0.00 0.00 836.02 1212.02" xmlns="http://www.w3.org/2000/svg" xmlns:xlink="http://www.w3.org/1999/xlink">
<g id="graph0" class="graph" transform="scale(1 1) rotate(0) translate(4 1208.0229)">
<title>G</title>
<polygon fill="#ffffff" stroke="transparent" points="-4,4 -4,-1208.0229 832.0208,-1208.0229 832.0208,4 -4,4"/>
<!-- organizations -->
<g id="node1" class="node">
<title>organizations</title>
<ellipse fill="none" stroke="#000000" cx="713" cy="-1186.0229" rx="63.1209" ry="18"/>
<text text-anchor="middle" x="713" y="-1181.8229" font-family="Times,serif" font-size="14.00" fill="#000000">organizations</text>
</g>
<!-- organizations__addID_addID__addresses_join -->
<g id="node2" class="node">
<title>organizations__addID_addID__addresses_join</title>
<ellipse fill="none" stroke="#000000" cx="713" cy="-1090.7278" rx="99.0518" ry="41.0911"/>
<text text-anchor="middle" x="713" y="-1103.3278" font-family="Times,serif" font-size="14.00" fill="#000000">LEFT JOIN addresses</text>
<text text-anchor="middle" x="713" y="-1086.5278" font-family="Times,serif" font-size="14.00" fill="#000000">At level: 4</text>
<text text-anchor="middle" x="713" y="-1069.7278" font-family="Times,serif" font-size="14.00" fill="#000000">Required: false</text>
</g>
<!-- organizations&#45;&gt;organizations__addID_addID__addresses_join -->
<g id="edge1" class="edge">
<title>organizations&#45;&gt;organizations__addID_addID__addresses_join</title>
<path fill="none" stroke="#000000" d="M713,-1167.649C713,-1160.3399 713,-1151.5303 713,-1142.5215"/>
<polygon fill="#000000" stroke="#000000" points="716.5001,-1142.335 713,-1132.335 709.5001,-1142.335 716.5001,-1142.335"/>
</g>
<!-- organizations__addID_addID__addresses_join_Has_Rows -->
<g id="node3" class="node">
<title>organizations__addID_addID__addresses_join_Has_Rows</title>
<ellipse fill="none" stroke="#000000" cx="676" cy="-995.4328" rx="47.4704" ry="18"/>
<text text-anchor="middle" x="676" y="-991.2328" font-family="Times,serif" font-size="14.00" fill="#000000">Has rows</text>
</g>
<!-- organizations__addID_addID__addresses_join&#45;&gt;organizations__addID_addID__addresses_join_Has_Rows -->
<g id="edge2" class="edge">
<title>organizations__addID_addID__addresses_join&#45;&gt;organizations__addID_addID__addresses_join_Has_Rows</title>
<path fill="none" stroke="#000000" d="M697.0939,-1049.7611C693.5463,-1040.6241 689.8689,-1031.1528 686.5975,-1022.7271"/>
<polygon fill="#000000" stroke="#000000" points="689.8579,-1021.4542 682.9757,-1013.399 683.3325,-1023.9879 689.8579,-1021.4542"/>
</g>
<!-- organizations__addID_addID__addresses_join_No_Rows -->
<g id="node27" class="node">
<title>organizations__addID_addID__addresses_join_No_Rows</title>
<ellipse fill="none" stroke="#000000" cx="784" cy="-900.1377" rx="44.0415" ry="18"/>
<text text-anchor="middle" x="784" y="-895.9377" font-family="Times,serif" font-size="14.00" fill="#000000">No rows</text>
</g>
<!-- organizations__addID_addID__addresses_join&#45;&gt;organizations__addID_addID__addresses_join_No_Rows -->
<g id="edge33" class="edge">
<title>organizations__addID_addID__addresses_join&#45;&gt;organizations__addID_addID__addresses_join_No_Rows</title>
<path fill="none" stroke="#000000" d="M728.2313,-1049.8415C741.9822,-1012.9289 761.8349,-959.6371 773.7714,-927.5952"/>
<polygon fill="#000000" stroke="#000000" points="777.1397,-928.5791 777.3509,-917.9864 770.5801,-926.1354 777.1397,-928.5791"/>
</g>
<!-- addresses__addID_addID__sites_join -->
<g id="node4" class="node">
<title>addresses__addID_addID__sites_join</title>
<ellipse fill="none" stroke="#000000" cx="643" cy="-900.1377" rx="78.8882" ry="41.0911"/>
<text text-anchor="middle" x="643" y="-912.7377" font-family="Times,serif" font-size="14.00" fill="#000000">LEFT JOIN sites</text>
<text text-anchor="middle" x="643" y="-895.9377" font-family="Times,serif" font-size="14.00" fill="#000000">At level: 3</text>
<text text-anchor="middle" x="643" y="-879.1377" font-family="Times,serif" font-size="14.00" fill="#000000">Required: false</text>
</g>
<!-- organizations__addID_addID__addresses_join_Has_Rows&#45;&gt;addresses__addID_addID__sites_join -->
<g id="edge3" class="edge">
<title>organizations__addID_addID__addresses_join_Has_Rows&#45;&gt;addresses__addID_addID__sites_join</title>
<path fill="none" stroke="#000000" d="M669.793,-977.5085C667.1044,-969.7447 663.8088,-960.2279 660.4603,-950.5583"/>
<polygon fill="#000000" stroke="#000000" points="663.6943,-949.2011 657.1146,-940.897 657.0797,-951.4918 663.6943,-949.2011"/>
</g>
<!-- addresses__addID_addID__sites_join_Has_Rows -->
<g id="node5" class="node">
<title>addresses__addID_addID__sites_join_Has_Rows</title>
<ellipse fill="none" stroke="#000000" cx="413" cy="-804.8427" rx="47.4704" ry="18"/>
<text text-anchor="middle" x="413" y="-800.6427" font-family="Times,serif" font-size="14.00" fill="#000000">Has rows</text>
</g>
<!-- addresses__addID_addID__sites_join&#45;&gt;addresses__addID_addID__sites_join_Has_Rows -->
<g id="edge4" class="edge">
<title>addresses__addID_addID__sites_join&#45;&gt;addresses__addID_addID__sites_join_Has_Rows</title>
<path fill="none" stroke="#000000" d="M581.0617,-874.4751C541.0494,-857.897 490.0609,-836.7711 454.7938,-822.159"/>
<polygon fill="#000000" stroke="#000000" points="455.8639,-818.8139 445.2857,-818.2195 453.1844,-825.2808 455.8639,-818.8139"/>
</g>
<!-- addresses__addID_addID__sites_join_No_Rows -->
<g id="node26" class="node">
<title>addresses__addID_addID__sites_join_No_Rows</title>
<ellipse fill="none" stroke="#000000" cx="695" cy="-721.4271" rx="44.0415" ry="18"/>
<text text-anchor="middle" x="695" y="-717.2271" font-family="Times,serif" font-size="14.00" fill="#000000">No rows</text>
</g>
<!-- addresses__addID_addID__sites_join&#45;&gt;addresses__addID_addID__sites_join_No_Rows -->
<g id="edge31" class="edge">
<title>addresses__addID_addID__sites_join&#45;&gt;addresses__addID_addID__sites_join_No_Rows</title>
<path fill="none" stroke="#000000" d="M654.9299,-859.1379C664.7468,-825.3996 678.3934,-778.4997 686.9578,-749.0661"/>
<polygon fill="#000000" stroke="#000000" points="690.3272,-750.0134 689.7605,-739.4337 683.606,-748.0576 690.3272,-750.0134"/>
</g>
<!-- addresses__addID_addID__sites_where -->
<g id="node6" class="node">
<title>addresses__addID_addID__sites_where</title>
<ellipse fill="none" stroke="#000000" cx="218" cy="-721.4271" rx="92.1488" ry="29.3315"/>
<text text-anchor="middle" x="218" y="-725.6271" font-family="Times,serif" font-size="14.00" fill="#000000">WHERE</text>
<text text-anchor="middle" x="218" y="-708.8271" font-family="Times,serif" font-size="14.00" fill="#000000">sites.siteID = &quot;HNJ&quot;</text>
</g>
<!-- addresses__addID_addID__sites_join_Has_Rows&#45;&gt;addresses__addID_addID__sites_where -->
<g id="edge5" class="edge">
<title>addresses__addID_addID__sites_join_Has_Rows&#45;&gt;addresses__addID_addID__sites_where</title>
<path fill="none" stroke="#000000" d="M381.2359,-791.2549C354.7151,-779.9101 316.0484,-763.3695 283.0044,-749.2342"/>
<polygon fill="#000000" stroke="#000000" points="283.971,-745.8409 273.4003,-745.1258 281.2179,-752.2768 283.971,-745.8409"/>
</g>
<!-- addresses__addID_addID__sites_where_Has_Rows -->
<g id="node7" class="node">
<title>addresses__addID_addID__sites_where_Has_Rows</title>
<ellipse fill="none" stroke="#000000" cx="218" cy="-638.0114" rx="47.4704" ry="18"/>
<text text-anchor="middle" x="218" y="-633.8114" font-family="Times,serif" font-size="14.00" fill="#000000">Has rows</text>
</g>
<!-- addresses__addID_addID__sites_where&#45;&gt;addresses__addID_addID__sites_where_Has_Rows -->
<g id="edge6" class="edge">
<title>addresses__addID_addID__sites_where&#45;&gt;addresses__addID_addID__sites_where_Has_Rows</title>
<path fill="none" stroke="#000000" d="M218,-691.783C218,-683.5778 218,-674.691 218,-666.5502"/>
<polygon fill="#000000" stroke="#000000" points="221.5001,-666.398 218,-656.398 214.5001,-666.398 221.5001,-666.398"/>
</g>
<!-- addresses__addID_addID__sites_where_No_Rows -->
<g id="node25" class="node">
<title>addresses__addID_addID__sites_where_No_Rows</title>
<ellipse fill="none" stroke="#000000" cx="45" cy="-542.7164" rx="44.0415" ry="18"/>
<text text-anchor="middle" x="45" y="-538.5164" font-family="Times,serif" font-size="14.00" fill="#000000">No rows</text>
</g>
<!-- addresses__addID_addID__sites_where&#45;&gt;addresses__addID_addID__sites_where_No_Rows -->
<g id="edge29" class="edge">
<title>addresses__addID_addID__sites_where&#45;&gt;addresses__addID_addID__sites_where_No_Rows</title>
<path fill="none" stroke="#000000" d="M190.5876,-693.1098C156.8934,-658.3034 100.2868,-599.8282 68.4951,-566.9871"/>
<polygon fill="#000000" stroke="#000000" points="70.8222,-564.3589 61.3521,-559.6083 65.7927,-569.2276 70.8222,-564.3589"/>
</g>
<!-- sites__siteID_siteID__samples_join -->
<g id="node8" class="node">
<title>sites__siteID_siteID__samples_join</title>
<ellipse fill="none" stroke="#000000" cx="218" cy="-542.7164" rx="93.4765" ry="41.0911"/>
<text text-anchor="middle" x="218" y="-555.3164" font-family="Times,serif" font-size="14.00" fill="#000000">LEFT JOIN samples</text>
<text text-anchor="middle" x="218" y="-538.5164" font-family="Times,serif" font-size="14.00" fill="#000000">At level: 2</text>
<text text-anchor="middle" x="218" y="-521.7164" font-family="Times,serif" font-size="14.00" fill="#000000">Required: true</text>
</g>
<!-- addresses__addID_addID__sites_where_Has_Rows&#45;&gt;sites__siteID_siteID__samples_join -->
<g id="edge7" class="edge">
<title>addresses__addID_addID__sites_where_Has_Rows&#45;&gt;sites__siteID_siteID__samples_join</title>
<path fill="none" stroke="#000000" d="M218,-619.6376C218,-612.3285 218,-603.5189 218,-594.5101"/>
<polygon fill="#000000" stroke="#000000" points="221.5001,-594.3235 218,-584.3236 214.5001,-594.3236 221.5001,-594.3235"/>
</g>
<!-- sites__siteID_siteID__samples_join_Has_Rows -->
<g id="node9" class="node">
<title>sites__siteID_siteID__samples_join_Has_Rows</title>
<ellipse fill="none" stroke="#000000" cx="225" cy="-447.4214" rx="47.4704" ry="18"/>
<text text-anchor="middle" x="225" y="-443.2214" font-family="Times,serif" font-size="14.00" fill="#000000">Has rows</text>
</g>
<!-- sites__siteID_siteID__samples_join&#45;&gt;sites__siteID_siteID__samples_join_Has_Rows -->
<g id="edge8" class="edge">
<title>sites__siteID_siteID__samples_join&#45;&gt;sites__siteID_siteID__samples_join_Has_Rows</title>
<path fill="none" stroke="#000000" d="M221.0499,-501.1958C221.6781,-492.6442 222.3259,-483.8248 222.9107,-475.8643"/>
<polygon fill="#000000" stroke="#000000" points="226.4191,-475.8768 223.6612,-465.6473 219.4379,-475.3639 226.4191,-475.8768"/>
</g>
<!-- sites__siteID_siteID__samples_join_No_Rows -->
<g id="node24" class="node">
<title>sites__siteID_siteID__samples_join_No_Rows</title>
<ellipse fill="none" stroke="#000000" cx="94" cy="-447.4214" rx="44.0415" ry="18"/>
<text text-anchor="middle" x="94" y="-443.2214" font-family="Times,serif" font-size="14.00" fill="#000000">No rows</text>
</g>
<!-- sites__siteID_siteID__samples_join&#45;&gt;sites__siteID_siteID__samples_join_No_Rows -->
<g id="edge27" class="edge">
<title>sites__siteID_siteID__samples_join&#45;&gt;sites__siteID_siteID__samples_join_No_Rows</title>
<path fill="none" stroke="#000000" d="M171.1209,-506.6894C154.9535,-494.2646 137.3251,-480.7171 123.0084,-469.7145"/>
<polygon fill="#000000" stroke="#000000" points="125.0594,-466.8766 114.9976,-463.5582 120.7939,-472.4269 125.0594,-466.8766"/>
</g>
<!-- samples__siteID_siteID__sites_join -->
<g id="node10" class="node">
<title>samples__siteID_siteID__sites_join</title>
<ellipse fill="none" stroke="#000000" cx="472" cy="-352.1263" rx="78.8882" ry="41.0911"/>
<text text-anchor="middle" x="472" y="-364.7263" font-family="Times,serif" font-size="14.00" fill="#000000">LEFT JOIN sites</text>
<text text-anchor="middle" x="472" y="-347.9263" font-family="Times,serif" font-size="14.00" fill="#000000">At level: 1</text>
<text text-anchor="middle" x="472" y="-331.1263" font-family="Times,serif" font-size="14.00" fill="#000000">Required: true</text>
</g>
<!-- sites__siteID_siteID__samples_join_Has_Rows&#45;&gt;samples__siteID_siteID__sites_join -->
<g id="edge9" class="edge">
<title>sites__siteID_siteID__samples_join_Has_Rows&#45;&gt;samples__siteID_siteID__sites_join</title>
<path fill="none" stroke="#000000" d="M258.3115,-434.5694C294.1608,-420.7384 352.3029,-398.3066 398.8946,-380.3311"/>
<polygon fill="#000000" stroke="#000000" points="400.2788,-383.5486 408.3487,-376.6836 397.7592,-377.0178 400.2788,-383.5486"/>
</g>
<!-- samples__dataID_dataID__datasets_join -->
<g id="node18" class="node">
<title>samples__dataID_dataID__datasets_join</title>
<ellipse fill="none" stroke="#000000" cx="225" cy="-352.1263" rx="92.8656" ry="41.0911"/>
<text text-anchor="middle" x="225" y="-364.7263" font-family="Times,serif" font-size="14.00" fill="#000000">LEFT JOIN datasets</text>
<text text-anchor="middle" x="225" y="-347.9263" font-family="Times,serif" font-size="14.00" fill="#000000">At level: 1</text>
<text text-anchor="middle" x="225" y="-331.1263" font-family="Times,serif" font-size="14.00" fill="#000000">Required: true</text>
</g>
<!-- sites__siteID_siteID__samples_join_Has_Rows&#45;&gt;samples__dataID_dataID__datasets_join -->
<g id="edge18" class="edge">
<title>sites__siteID_siteID__samples_join_Has_Rows&#45;&gt;samples__dataID_dataID__datasets_join</title>
<path fill="none" stroke="#000000" d="M225,-429.0475C225,-421.7384 225,-412.9288 225,-403.92"/>
<polygon fill="#000000" stroke="#000000" points="228.5001,-403.7335 225,-393.7335 221.5001,-403.7335 228.5001,-403.7335"/>
</g>
<!-- samples__siteID_siteID__sites_join_Has_Rows -->
<g id="node11" class="node">
<title>samples__siteID_siteID__sites_join_Has_Rows</title>
<ellipse fill="none" stroke="#000000" cx="587" cy="-256.8313" rx="47.4704" ry="18"/>
<text text-anchor="middle" x="587" y="-252.6313" font-family="Times,serif" font-size="14.00" fill="#000000">Has rows</text>
</g>
<!-- samples__siteID_siteID__sites_join&#45;&gt;samples__siteID_siteID__sites_join_Has_Rows -->
<g id="edge10" class="edge">
<title>samples__siteID_siteID__sites_join&#45;&gt;samples__siteID_siteID__sites_join_Has_Rows</title>
<path fill="none" stroke="#000000" d="M514.1688,-317.1831C529.1389,-304.778 545.6047,-291.1336 559.0874,-279.9611"/>
<polygon fill="#000000" stroke="#000000" points="561.59,-282.4328 567.0568,-273.3573 557.1236,-277.0429 561.59,-282.4328"/>
</g>
<!-- samples__siteID_siteID__sites_join_No_Rows -->
<g id="node17" class="node">
<title>samples__siteID_siteID__sites_join_No_Rows</title>
<ellipse fill="none" stroke="#000000" cx="472" cy="-173.4156" rx="44.0415" ry="18"/>
<text text-anchor="middle" x="472" y="-169.2156" font-family="Times,serif" font-size="14.00" fill="#000000">No rows</text>
</g>
<!-- samples__siteID_siteID__sites_join&#45;&gt;samples__siteID_siteID__sites_join_No_Rows -->
<g id="edge16" class="edge">
<title>samples__siteID_siteID__sites_join&#45;&gt;samples__siteID_siteID__sites_join_No_Rows</title>
<path fill="none" stroke="#000000" d="M472,-310.6773C472,-277.3966 472,-231.5276 472,-202.1677"/>
<polygon fill="#000000" stroke="#000000" points="475.5001,-201.7842 472,-191.7843 468.5001,-201.7843 475.5001,-201.7842"/>
</g>
<!-- samples__siteID_siteID__sites_where -->
<g id="node12" class="node">
<title>samples__siteID_siteID__sites_where</title>
<ellipse fill="none" stroke="#000000" cx="626" cy="-173.4156" rx="92.1488" ry="29.3315"/>
<text text-anchor="middle" x="626" y="-177.6156" font-family="Times,serif" font-size="14.00" fill="#000000">WHERE</text>
<text text-anchor="middle" x="626" y="-160.8156" font-family="Times,serif" font-size="14.00" fill="#000000">sites.siteID = &quot;HNJ&quot;</text>
</g>
<!-- samples__siteID_siteID__sites_join_Has_Rows&#45;&gt;samples__siteID_siteID__sites_where -->
<g id="edge11" class="edge">
<title>samples__siteID_siteID__sites_join_Has_Rows&#45;&gt;samples__siteID_siteID__sites_where</title>
<path fill="none" stroke="#000000" d="M595.4624,-238.7313C599.1589,-230.8251 603.6443,-221.2313 608.0264,-211.8588"/>
<polygon fill="#000000" stroke="#000000" points="611.2761,-213.1719 612.3409,-202.6307 604.9349,-210.2071 611.2761,-213.1719"/>
</g>
<!-- samples__siteID_siteID__sites_where_Has_Rows -->
<g id="node13" class="node">
<title>samples__siteID_siteID__sites_where_Has_Rows</title>
<ellipse fill="none" stroke="#000000" cx="648" cy="-90" rx="47.4704" ry="18"/>
<text text-anchor="middle" x="648" y="-85.8" font-family="Times,serif" font-size="14.00" fill="#000000">Has rows</text>
</g>
<!-- samples__siteID_siteID__sites_where&#45;&gt;samples__siteID_siteID__sites_where_Has_Rows -->
<g id="edge12" class="edge">
<title>samples__siteID_siteID__sites_where&#45;&gt;samples__siteID_siteID__sites_where_Has_Rows</title>
<path fill="none" stroke="#000000" d="M633.8183,-143.7715C636.0067,-135.4742 638.3788,-126.4798 640.5455,-118.2646"/>
<polygon fill="#000000" stroke="#000000" points="643.9847,-118.9485 643.1507,-108.3866 637.2162,-117.1633 643.9847,-118.9485"/>
</g>
<!-- samples__siteID_siteID__sites_where_No_Rows -->
<g id="node15" class="node">
<title>samples__siteID_siteID__sites_where_No_Rows</title>
<ellipse fill="none" stroke="#000000" cx="532" cy="-90" rx="44.0415" ry="18"/>
<text text-anchor="middle" x="532" y="-85.8" font-family="Times,serif" font-size="14.00" fill="#000000">No rows</text>
</g>
<!-- samples__siteID_siteID__sites_where&#45;&gt;samples__siteID_siteID__sites_where_No_Rows -->
<g id="edge14" class="edge">
<title>samples__siteID_siteID__sites_where&#45;&gt;samples__siteID_siteID__sites_where_No_Rows</title>
<path fill="none" stroke="#000000" d="M594.6994,-145.6394C582.8095,-135.0884 569.4052,-123.1934 558.0515,-113.1181"/>
<polygon fill="#000000" stroke="#000000" points="560.3654,-110.492 550.5626,-106.4725 555.7191,-115.7278 560.3654,-110.492"/>
</g>
<!-- granted -->
<g id="node14" class="node">
<title>granted</title>
<ellipse fill="none" stroke="#000000" cx="697" cy="-18" rx="71.7874" ry="18"/>
<text text-anchor="middle" x="697" y="-13.8" font-family="Times,serif" font-size="14.00" fill="#000000">Access Granted</text>
</g>
<!-- samples__siteID_siteID__sites_where_Has_Rows&#45;&gt;granted -->
<g id="edge13" class="edge">
<title>samples__siteID_siteID__sites_where_Has_Rows&#45;&gt;granted</title>
<path fill="none" stroke="#000000" d="M659.8615,-72.5708C665.6732,-64.0312 672.7914,-53.5719 679.2355,-44.1029"/>
<polygon fill="#000000" stroke="#000000" points="682.1745,-46.0052 684.9073,-35.7689 676.3875,-42.0668 682.1745,-46.0052"/>
</g>
<!-- denied -->
<g id="node16" class="node">
<title>denied</title>
<ellipse fill="none" stroke="#000000" cx="139" cy="-18" rx="68.8581" ry="18"/>
<text text-anchor="middle" x="139" y="-13.8" font-family="Times,serif" font-size="14.00" fill="#000000">Access Denied</text>
</g>
<!-- samples__siteID_siteID__sites_where_No_Rows&#45;&gt;denied -->
<g id="edge15" class="edge">
<title>samples__siteID_siteID__sites_where_No_Rows&#45;&gt;denied</title>
<path fill="none" stroke="#000000" d="M494.6099,-80.2121C483.2172,-77.3834 470.631,-74.4118 459,-72 373.5126,-54.2732 274.2694,-38.2211 209.2463,-28.3115"/>
<polygon fill="#000000" stroke="#000000" points="209.5235,-24.8136 199.1117,-26.7745 208.4738,-31.7344 209.5235,-24.8136"/>
</g>
<!-- samples__siteID_siteID__sites_join_No_Rows&#45;&gt;denied -->
<g id="edge17" class="edge">
<title>samples__siteID_siteID__sites_join_No_Rows&#45;&gt;denied</title>
<path fill="none" stroke="#000000" d="M463.7412,-155.5966C452.0625,-132.4866 428.4704,-92.6934 396,-72 365.8454,-52.7825 276.1569,-36.8417 211.2119,-27.377"/>
<polygon fill="#000000" stroke="#000000" points="211.4097,-23.8697 201.014,-25.9141 210.4156,-30.7987 211.4097,-23.8697"/>
</g>
<!-- samples__dataID_dataID__datasets_join_Has_Rows -->
<g id="node19" class="node">
<title>samples__dataID_dataID__datasets_join_Has_Rows</title>
<ellipse fill="none" stroke="#000000" cx="248" cy="-256.8313" rx="47.4704" ry="18"/>
<text text-anchor="middle" x="248" y="-252.6313" font-family="Times,serif" font-size="14.00" fill="#000000">Has rows</text>
</g>
<!-- samples__dataID_dataID__datasets_join&#45;&gt;samples__dataID_dataID__datasets_join_Has_Rows -->
<g id="edge19" class="edge">
<title>samples__dataID_dataID__datasets_join&#45;&gt;samples__dataID_dataID__datasets_join_Has_Rows</title>
<path fill="none" stroke="#000000" d="M234.9544,-310.8828C237.0714,-302.1114 239.2596,-293.0451 241.2249,-284.9022"/>
<polygon fill="#000000" stroke="#000000" points="244.6291,-285.7155 243.573,-275.1734 237.8245,-284.0731 244.6291,-285.7155"/>
</g>
<!-- samples__dataID_dataID__datasets_join_No_Rows -->
<g id="node23" class="node">
<title>samples__dataID_dataID__datasets_join_No_Rows</title>
<ellipse fill="none" stroke="#000000" cx="120" cy="-256.8313" rx="44.0415" ry="18"/>
<text text-anchor="middle" x="120" y="-252.6313" font-family="Times,serif" font-size="14.00" fill="#000000">No rows</text>
</g>
<!-- samples__dataID_dataID__datasets_join&#45;&gt;samples__dataID_dataID__datasets_join_No_Rows -->
<g id="edge25" class="edge">
<title>samples__dataID_dataID__datasets_join&#45;&gt;samples__dataID_dataID__datasets_join_No_Rows</title>
<path fill="none" stroke="#000000" d="M184.1036,-315.0099C171.1907,-303.2905 157.292,-290.6764 145.7481,-280.1995"/>
<polygon fill="#000000" stroke="#000000" points="147.9307,-277.4539 138.1735,-273.325 143.2263,-282.6374 147.9307,-277.4539"/>
</g>
<!-- samples__dataID_dataID__datasets_where -->
<g id="node20" class="node">
<title>samples__dataID_dataID__datasets_where</title>
<ellipse fill="none" stroke="#000000" cx="257" cy="-173.4156" rx="153.1956" ry="29.3315"/>
<text text-anchor="middle" x="257" y="-177.6156" font-family="Times,serif" font-size="14.00" fill="#000000">WHERE</text>
<text text-anchor="middle" x="257" y="-160.8156" font-family="Times,serif" font-size="14.00" fill="#000000">datasets.dataID = &quot;NML&#45;WWPCR&quot;</text>
</g>
<!-- samples__dataID_dataID__datasets_join_Has_Rows&#45;&gt;samples__dataID_dataID__datasets_where -->
<g id="edge20" class="edge">
<title>samples__dataID_dataID__datasets_join_Has_Rows&#45;&gt;samples__dataID_dataID__datasets_where</title>
<path fill="none" stroke="#000000" d="M249.9529,-238.7313C250.7717,-231.1418 251.7584,-221.9972 252.7306,-212.986"/>
<polygon fill="#000000" stroke="#000000" points="256.2195,-213.2766 253.8125,-202.9588 249.2599,-212.5256 256.2195,-213.2766"/>
</g>
<!-- samples__dataID_dataID__datasets_where_Has_Rows -->
<g id="node21" class="node">
<title>samples__dataID_dataID__datasets_where_Has_Rows</title>
<ellipse fill="none" stroke="#000000" cx="340" cy="-90" rx="47.4704" ry="18"/>
<text text-anchor="middle" x="340" y="-85.8" font-family="Times,serif" font-size="14.00" fill="#000000">Has rows</text>
</g>
<!-- samples__dataID_dataID__datasets_where&#45;&gt;samples__dataID_dataID__datasets_where_Has_Rows -->
<g id="edge21" class="edge">
<title>samples__dataID_dataID__datasets_where&#45;&gt;samples__dataID_dataID__datasets_where_Has_Rows</title>
<path fill="none" stroke="#000000" d="M286.0294,-144.2409C295.7675,-134.454 306.5156,-123.6521 315.8397,-114.2813"/>
<polygon fill="#000000" stroke="#000000" points="318.3934,-116.6769 322.9658,-107.1195 313.4313,-111.7396 318.3934,-116.6769"/>
</g>
<!-- samples__dataID_dataID__datasets_where_No_Rows -->
<g id="node22" class="node">
<title>samples__dataID_dataID__datasets_where_No_Rows</title>
<ellipse fill="none" stroke="#000000" cx="202" cy="-90" rx="44.0415" ry="18"/>
<text text-anchor="middle" x="202" y="-85.8" font-family="Times,serif" font-size="14.00" fill="#000000">No rows</text>
</g>
<!-- samples__dataID_dataID__datasets_where&#45;&gt;samples__dataID_dataID__datasets_where_No_Rows -->
<g id="edge23" class="edge">
<title>samples__dataID_dataID__datasets_where&#45;&gt;samples__dataID_dataID__datasets_where_No_Rows</title>
<path fill="none" stroke="#000000" d="M237.4542,-143.7715C231.4333,-134.64 224.8559,-124.6644 219.0192,-115.8122"/>
<polygon fill="#000000" stroke="#000000" points="221.9042,-113.8293 213.4775,-107.4073 216.0602,-117.6826 221.9042,-113.8293"/>
</g>
<!-- samples__dataID_dataID__datasets_where_Has_Rows&#45;&gt;granted -->
<g id="edge22" class="edge">
<title>samples__dataID_dataID__datasets_where_Has_Rows&#45;&gt;granted</title>
<path fill="none" stroke="#000000" d="M382.0022,-81.529C443.351,-69.1561 558.058,-46.0219 630.8214,-31.347"/>
<polygon fill="#000000" stroke="#000000" points="631.6896,-34.7424 640.8003,-29.3344 630.3057,-27.8806 631.6896,-34.7424"/>
</g>
<!-- samples__dataID_dataID__datasets_where_No_Rows&#45;&gt;denied -->
<g id="edge24" class="edge">
<title>samples__dataID_dataID__datasets_where_No_Rows&#45;&gt;denied</title>
<path fill="none" stroke="#000000" d="M187.0699,-72.937C179.3178,-64.0775 169.6941,-53.0789 161.0985,-43.2554"/>
<polygon fill="#000000" stroke="#000000" points="163.7,-40.9134 154.4809,-35.6924 158.4319,-45.523 163.7,-40.9134"/>
</g>
<!-- samples__dataID_dataID__datasets_join_No_Rows&#45;&gt;denied -->
<g id="edge26" class="edge">
<title>samples__dataID_dataID__datasets_join_No_Rows&#45;&gt;denied</title>
<path fill="none" stroke="#000000" d="M109.3731,-239.033C103.8999,-228.8236 97.7999,-215.5436 95,-202.8313 82.6454,-146.7385 107.4548,-81.4393 124.587,-45.4098"/>
<polygon fill="#000000" stroke="#000000" points="127.9139,-46.5749 129.1783,-36.0558 121.6301,-43.4906 127.9139,-46.5749"/>
</g>
<!-- sites__siteID_siteID__samples_join_No_Rows&#45;&gt;denied -->
<g id="edge28" class="edge">
<title>sites__siteID_siteID__samples_join_No_Rows&#45;&gt;denied</title>
<path fill="none" stroke="#000000" d="M85.0026,-429.5395C69.1727,-396.3744 38,-322.702 38,-256.8313 38,-256.8313 38,-256.8313 38,-173.4156 38,-119.9495 80.5456,-70.4181 110.4098,-42.2361"/>
<polygon fill="#000000" stroke="#000000" points="113.0708,-44.5446 118.0727,-35.2049 108.3382,-39.3869 113.0708,-44.5446"/>
</g>
<!-- addresses__addID_addID__sites_where_No_Rows&#45;&gt;denied -->
<g id="edge30" class="edge">
<title>addresses__addID_addID__sites_where_No_Rows&#45;&gt;denied</title>
<path fill="none" stroke="#000000" d="M37.8696,-524.9158C25.1808,-491.5833 0,-417.2332 0,-352.1263 0,-352.1263 0,-352.1263 0,-173.4156 0,-122.3507 19.3024,-109.4661 54,-72 66.1003,-58.9343 82.0282,-47.7169 96.8222,-38.9456"/>
<polygon fill="#000000" stroke="#000000" points="98.887,-41.7974 105.8427,-33.8056 95.4214,-35.7155 98.887,-41.7974"/>
</g>
<!-- addresses__addID_addID__sites_join_No_Rows&#45;&gt;granted -->
<g id="edge32" class="edge">
<title>addresses__addID_addID__sites_join_No_Rows&#45;&gt;granted</title>
<path fill="none" stroke="#000000" d="M703.6515,-703.6421C718.202,-672.0438 746,-603.6969 746,-542.7164 746,-542.7164 746,-542.7164 746,-173.4156 746,-126.6987 725.6126,-75.5861 711.1389,-45.1861"/>
<polygon fill="#000000" stroke="#000000" points="714.22,-43.5194 706.6808,-36.0755 707.9324,-46.5962 714.22,-43.5194"/>
</g>
<!-- organizations__addID_addID__addresses_join_No_Rows&#45;&gt;granted -->
<g id="edge34" class="edge">
<title>organizations__addID_addID__addresses_join_No_Rows&#45;&gt;granted</title>
<path fill="none" stroke="#000000" d="M784,-882.1277C784,-849.8967 784,-780.2216 784,-721.4271 784,-721.4271 784,-721.4271 784,-173.4156 784,-122.257 747.6631,-72.3112 721.9562,-43.3778"/>
<polygon fill="#000000" stroke="#000000" points="724.3548,-40.8141 715.0265,-35.7908 719.1862,-45.5349 724.3548,-40.8141"/>
</g>
</g>
</svg>
