<?xml version="1.0" encoding="UTF-8" standalone="no"?>
<!DOCTYPE svg PUBLIC "-//W3C//DTD SVG 1.1//EN"
 "http://www.w3.org/Graphics/SVG/1.1/DTD/svg11.dtd">
<!-- Generated by graphviz version 2.40.1 (20161225.0304)
 -->
<!-- Title: G Pages: 1 -->
<svg width="1271pt" height="1212pt"
 viewBox="0.00 0.00 1271.43 1212.02" xmlns="http://www.w3.org/2000/svg" xmlns:xlink="http://www.w3.org/1999/xlink">
<g id="graph0" class="graph" transform="scale(1 1) rotate(0) translate(4 1208.0229)">
<title>G</title>
<polygon fill="#ffffff" stroke="transparent" points="-4,4 -4,-1208.0229 1267.4283,-1208.0229 1267.4283,4 -4,4"/>
<!-- organizations -->
<g id="node1" class="node">
<title>organizations</title>
<ellipse fill="none" stroke="#000000" cx="1148.4075" cy="-1186.0229" rx="63.1209" ry="18"/>
<text text-anchor="middle" x="1148.4075" y="-1181.8229" font-family="Times,serif" font-size="14.00" fill="#000000">organizations</text>
</g>
<!-- organizations__addID_addID__addresses_join -->
<g id="node2" class="node">
<title>organizations__addID_addID__addresses_join</title>
<ellipse fill="none" stroke="#000000" cx="1148.4075" cy="-1090.7278" rx="99.0518" ry="41.0911"/>
<text text-anchor="middle" x="1148.4075" y="-1103.3278" font-family="Times,serif" font-size="14.00" fill="#000000">LEFT JOIN addresses</text>
<text text-anchor="middle" x="1148.4075" y="-1086.5278" font-family="Times,serif" font-size="14.00" fill="#000000">At level: 4</text>
<text text-anchor="middle" x="1148.4075" y="-1069.7278" font-family="Times,serif" font-size="14.00" fill="#000000">Required: false</text>
</g>
<!-- organizations&#45;&gt;organizations__addID_addID__addresses_join -->
<g id="edge1" class="edge">
<title>organizations&#45;&gt;organizations__addID_addID__addresses_join</title>
<path fill="none" stroke="#000000" d="M1148.4075,-1167.649C1148.4075,-1160.3399 1148.4075,-1151.5303 1148.4075,-1142.5215"/>
<polygon fill="#000000" stroke="#000000" points="1151.9076,-1142.335 1148.4075,-1132.335 1144.9076,-1142.335 1151.9076,-1142.335"/>
</g>
<!-- organizations__addID_addID__addresses_join_Has_Rows -->
<g id="node3" class="node">
<title>organizations__addID_addID__addresses_join_Has_Rows</title>
<ellipse fill="none" stroke="#000000" cx="1111.4075" cy="-995.4328" rx="47.4704" ry="18"/>
<text text-anchor="middle" x="1111.4075" y="-991.2328" font-family="Times,serif" font-size="14.00" fill="#000000">Has rows</text>
</g>
<!-- organizations__addID_addID__addresses_join&#45;&gt;organizations__addID_addID__addresses_join_Has_Rows -->
<g id="edge2" class="edge">
<title>organizations__addID_addID__addresses_join&#45;&gt;organizations__addID_addID__addresses_join_Has_Rows</title>
<path fill="none" stroke="#000000" d="M1132.5014,-1049.7611C1128.9538,-1040.6241 1125.2764,-1031.1528 1122.005,-1022.7271"/>
<polygon fill="#000000" stroke="#000000" points="1125.2654,-1021.4542 1118.3832,-1013.399 1118.74,-1023.9879 1125.2654,-1021.4542"/>
</g>
<!-- organizations__addID_addID__addresses_join_No_Rows -->
<g id="node27" class="node">
<title>organizations__addID_addID__addresses_join_No_Rows</title>
<ellipse fill="none" stroke="#000000" cx="1219.4075" cy="-900.1377" rx="44.0415" ry="18"/>
<text text-anchor="middle" x="1219.4075" y="-895.9377" font-family="Times,serif" font-size="14.00" fill="#000000">No rows</text>
</g>
<!-- organizations__addID_addID__addresses_join&#45;&gt;organizations__addID_addID__addresses_join_No_Rows -->
<g id="edge33" class="edge">
<title>organizations__addID_addID__addresses_join&#45;&gt;organizations__addID_addID__addresses_join_No_Rows</title>
<path fill="none" stroke="#000000" d="M1163.6388,-1049.8415C1177.3897,-1012.9289 1197.2424,-959.6371 1209.1788,-927.5952"/>
<polygon fill="#000000" stroke="#000000" points="1212.5472,-928.5791 1212.7584,-917.9864 1205.9876,-926.1354 1212.5472,-928.5791"/>
</g>
<!-- addresses__addID_addID__sites_join -->
<g id="node4" class="node">
<title>addresses__addID_addID__sites_join</title>
<ellipse fill="none" stroke="#000000" cx="1078.4075" cy="-900.1377" rx="78.8882" ry="41.0911"/>
<text text-anchor="middle" x="1078.4075" y="-912.7377" font-family="Times,serif" font-size="14.00" fill="#000000">LEFT JOIN sites</text>
<text text-anchor="middle" x="1078.4075" y="-895.9377" font-family="Times,serif" font-size="14.00" fill="#000000">At level: 3</text>
<text text-anchor="middle" x="1078.4075" y="-879.1377" font-family="Times,serif" font-size="14.00" fill="#000000">Required: false</text>
</g>
<!-- organizations__addID_addID__addresses_join_Has_Rows&#45;&gt;addresses__addID_addID__sites_join -->
<g id="edge3" class="edge">
<title>organizations__addID_addID__addresses_join_Has_Rows&#45;&gt;addresses__addID_addID__sites_join</title>
<path fill="none" stroke="#000000" d="M1105.2004,-977.5085C1102.5119,-969.7447 1099.2163,-960.2279 1095.8678,-950.5583"/>
<polygon fill="#000000" stroke="#000000" points="1099.1018,-949.2011 1092.5221,-940.897 1092.4872,-951.4918 1099.1018,-949.2011"/>
</g>
<!-- addresses__addID_addID__sites_join_Has_Rows -->
<g id="node5" class="node">
<title>addresses__addID_addID__sites_join_Has_Rows</title>
<ellipse fill="none" stroke="#000000" cx="686.4075" cy="-804.8427" rx="47.4704" ry="18"/>
<text text-anchor="middle" x="686.4075" y="-800.6427" font-family="Times,serif" font-size="14.00" fill="#000000">Has rows</text>
</g>
<!-- addresses__addID_addID__sites_join&#45;&gt;addresses__addID_addID__sites_join_Has_Rows -->
<g id="edge4" class="edge">
<title>addresses__addID_addID__sites_join&#45;&gt;addresses__addID_addID__sites_join_Has_Rows</title>
<path fill="none" stroke="#000000" d="M1006.5086,-882.6592C928.1954,-863.6212 804.9785,-833.6673 736.509,-817.0224"/>
<polygon fill="#000000" stroke="#000000" points="736.9545,-813.5288 726.4107,-814.5675 735.3009,-820.3307 736.9545,-813.5288"/>
</g>
<!-- addresses__addID_addID__sites_join_No_Rows -->
<g id="node26" class="node">
<title>addresses__addID_addID__sites_join_No_Rows</title>
<ellipse fill="none" stroke="#000000" cx="1130.4075" cy="-721.4271" rx="44.0415" ry="18"/>
<text text-anchor="middle" x="1130.4075" y="-717.2271" font-family="Times,serif" font-size="14.00" fill="#000000">No rows</text>
</g>
<!-- addresses__addID_addID__sites_join&#45;&gt;addresses__addID_addID__sites_join_No_Rows -->
<g id="edge31" class="edge">
<title>addresses__addID_addID__sites_join&#45;&gt;addresses__addID_addID__sites_join_No_Rows</title>
<path fill="none" stroke="#000000" d="M1090.3373,-859.1379C1100.1543,-825.3996 1113.8009,-778.4997 1122.3653,-749.0661"/>
<polygon fill="#000000" stroke="#000000" points="1125.7347,-750.0134 1125.168,-739.4337 1119.0135,-748.0576 1125.7347,-750.0134"/>
</g>
<!-- addresses__addID_addID__sites_where -->
<g id="node6" class="node">
<title>addresses__addID_addID__sites_where</title>
<ellipse fill="none" stroke="#000000" cx="216.4075" cy="-721.4271" rx="216.315" ry="29.3315"/>
<text text-anchor="middle" x="216.4075" y="-725.6271" font-family="Times,serif" font-size="14.00" fill="#000000">WHERE IN</text>
<text text-anchor="middle" x="216.4075" y="-708.8271" font-family="Times,serif" font-size="14.00" fill="#000000">sites.healthReg = [&quot;Whitehorse&quot;,&quot;Haines Junction&quot;]</text>
</g>
<!-- addresses__addID_addID__sites_join_Has_Rows&#45;&gt;addresses__addID_addID__sites_where -->
<g id="edge5" class="edge">
<title>addresses__addID_addID__sites_join_Has_Rows&#45;&gt;addresses__addID_addID__sites_where</title>
<path fill="none" stroke="#000000" d="M643.4522,-797.219C579.3692,-785.8455 455.8016,-763.9148 358.0074,-746.5582"/>
<polygon fill="#000000" stroke="#000000" points="358.4841,-743.0882 348.0263,-744.7868 357.2608,-749.9805 358.4841,-743.0882"/>
</g>
<!-- addresses__addID_addID__sites_where_Has_Rows -->
<g id="node7" class="node">
<title>addresses__addID_addID__sites_where_Has_Rows</title>
<ellipse fill="none" stroke="#000000" cx="216.4075" cy="-638.0114" rx="47.4704" ry="18"/>
<text text-anchor="middle" x="216.4075" y="-633.8114" font-family="Times,serif" font-size="14.00" fill="#000000">Has rows</text>
</g>
<!-- addresses__addID_addID__sites_where&#45;&gt;addresses__addID_addID__sites_where_Has_Rows -->
<g id="edge6" class="edge">
<title>addresses__addID_addID__sites_where&#45;&gt;addresses__addID_addID__sites_where_Has_Rows</title>
<path fill="none" stroke="#000000" d="M216.4075,-691.783C216.4075,-683.5778 216.4075,-674.691 216.4075,-666.5502"/>
<polygon fill="#000000" stroke="#000000" points="219.9076,-666.398 216.4075,-656.398 212.9076,-666.398 219.9076,-666.398"/>
</g>
<!-- addresses__addID_addID__sites_where_No_Rows -->
<g id="node25" class="node">
<title>addresses__addID_addID__sites_where_No_Rows</title>
<ellipse fill="none" stroke="#000000" cx="48.4075" cy="-542.7164" rx="44.0415" ry="18"/>
<text text-anchor="middle" x="48.4075" y="-538.5164" font-family="Times,serif" font-size="14.00" fill="#000000">No rows</text>
</g>
<!-- addresses__addID_addID__sites_where&#45;&gt;addresses__addID_addID__sites_where_No_Rows -->
<g id="edge29" class="edge">
<title>addresses__addID_addID__sites_where&#45;&gt;addresses__addID_addID__sites_where_No_Rows</title>
<path fill="none" stroke="#000000" d="M188.6657,-691.9166C155.8794,-657.0401 101.9308,-599.652 71.3801,-567.1536"/>
<polygon fill="#000000" stroke="#000000" points="73.906,-564.7306 64.5065,-559.8418 68.8058,-569.5251 73.906,-564.7306"/>
</g>
<!-- sites__siteID_siteID__samples_join -->
<g id="node8" class="node">
<title>sites__siteID_siteID__samples_join</title>
<ellipse fill="none" stroke="#000000" cx="216.4075" cy="-542.7164" rx="93.4765" ry="41.0911"/>
<text text-anchor="middle" x="216.4075" y="-555.3164" font-family="Times,serif" font-size="14.00" fill="#000000">LEFT JOIN samples</text>
<text text-anchor="middle" x="216.4075" y="-538.5164" font-family="Times,serif" font-size="14.00" fill="#000000">At level: 2</text>
<text text-anchor="middle" x="216.4075" y="-521.7164" font-family="Times,serif" font-size="14.00" fill="#000000">Required: true</text>
</g>
<!-- addresses__addID_addID__sites_where_Has_Rows&#45;&gt;sites__siteID_siteID__samples_join -->
<g id="edge7" class="edge">
<title>addresses__addID_addID__sites_where_Has_Rows&#45;&gt;sites__siteID_siteID__samples_join</title>
<path fill="none" stroke="#000000" d="M216.4075,-619.6376C216.4075,-612.3285 216.4075,-603.5189 216.4075,-594.5101"/>
<polygon fill="#000000" stroke="#000000" points="219.9076,-594.3235 216.4075,-584.3236 212.9076,-594.3236 219.9076,-594.3235"/>
</g>
<!-- sites__siteID_siteID__samples_join_Has_Rows -->
<g id="node9" class="node">
<title>sites__siteID_siteID__samples_join_Has_Rows</title>
<ellipse fill="none" stroke="#000000" cx="267.4075" cy="-447.4214" rx="47.4704" ry="18"/>
<text text-anchor="middle" x="267.4075" y="-443.2214" font-family="Times,serif" font-size="14.00" fill="#000000">Has rows</text>
</g>
<!-- sites__siteID_siteID__samples_join&#45;&gt;sites__siteID_siteID__samples_join_Has_Rows -->
<g id="edge8" class="edge">
<title>sites__siteID_siteID__samples_join&#45;&gt;sites__siteID_siteID__samples_join_Has_Rows</title>
<path fill="none" stroke="#000000" d="M238.0361,-502.3027C243.14,-492.7659 248.4558,-482.8332 253.1397,-474.0812"/>
<polygon fill="#000000" stroke="#000000" points="256.3016,-475.5906 257.9343,-465.1223 250.1298,-472.2875 256.3016,-475.5906"/>
</g>
<!-- sites__siteID_siteID__samples_join_No_Rows -->
<g id="node24" class="node">
<title>sites__siteID_siteID__samples_join_No_Rows</title>
<ellipse fill="none" stroke="#000000" cx="133.4075" cy="-447.4214" rx="44.0415" ry="18"/>
<text text-anchor="middle" x="133.4075" y="-443.2214" font-family="Times,serif" font-size="14.00" fill="#000000">No rows</text>
</g>
<!-- sites__siteID_siteID__samples_join&#45;&gt;sites__siteID_siteID__samples_join_No_Rows -->
<g id="edge27" class="edge">
<title>sites__siteID_siteID__samples_join&#45;&gt;sites__siteID_siteID__samples_join_No_Rows</title>
<path fill="none" stroke="#000000" d="M182.6482,-503.9563C173.3915,-493.3284 163.6022,-482.0888 155.2114,-472.4551"/>
<polygon fill="#000000" stroke="#000000" points="157.7416,-470.0312 148.5345,-464.7891 152.4631,-474.6287 157.7416,-470.0312"/>
</g>
<!-- samples__siteID_siteID__sites_join -->
<g id="node10" class="node">
<title>samples__siteID_siteID__sites_join</title>
<ellipse fill="none" stroke="#000000" cx="659.4075" cy="-352.1263" rx="78.8882" ry="41.0911"/>
<text text-anchor="middle" x="659.4075" y="-364.7263" font-family="Times,serif" font-size="14.00" fill="#000000">LEFT JOIN sites</text>
<text text-anchor="middle" x="659.4075" y="-347.9263" font-family="Times,serif" font-size="14.00" fill="#000000">At level: 1</text>
<text text-anchor="middle" x="659.4075" y="-331.1263" font-family="Times,serif" font-size="14.00" fill="#000000">Required: true</text>
</g>
<!-- sites__siteID_siteID__samples_join_Has_Rows&#45;&gt;samples__siteID_siteID__sites_join -->
<g id="edge9" class="edge">
<title>sites__siteID_siteID__samples_join_Has_Rows&#45;&gt;samples__siteID_siteID__sites_join</title>
<path fill="none" stroke="#000000" d="M307.5162,-437.671C370.8007,-422.2865 495.1033,-392.0686 577.7307,-371.9819"/>
<polygon fill="#000000" stroke="#000000" points="578.7035,-375.3474 587.5937,-369.5842 577.0499,-368.5455 578.7035,-375.3474"/>
</g>
<!-- samples__dataID_dataID__datasets_join -->
<g id="node18" class="node">
<title>samples__dataID_dataID__datasets_join</title>
<ellipse fill="none" stroke="#000000" cx="267.4075" cy="-352.1263" rx="92.8656" ry="41.0911"/>
<text text-anchor="middle" x="267.4075" y="-364.7263" font-family="Times,serif" font-size="14.00" fill="#000000">LEFT JOIN datasets</text>
<text text-anchor="middle" x="267.4075" y="-347.9263" font-family="Times,serif" font-size="14.00" fill="#000000">At level: 1</text>
<text text-anchor="middle" x="267.4075" y="-331.1263" font-family="Times,serif" font-size="14.00" fill="#000000">Required: true</text>
</g>
<!-- sites__siteID_siteID__samples_join_Has_Rows&#45;&gt;samples__dataID_dataID__datasets_join -->
<g id="edge18" class="edge">
<title>sites__siteID_siteID__samples_join_Has_Rows&#45;&gt;samples__dataID_dataID__datasets_join</title>
<path fill="none" stroke="#000000" d="M267.4075,-429.0475C267.4075,-421.7384 267.4075,-412.9288 267.4075,-403.92"/>
<polygon fill="#000000" stroke="#000000" points="270.9076,-403.7335 267.4075,-393.7335 263.9076,-403.7335 270.9076,-403.7335"/>
</g>
<!-- samples__siteID_siteID__sites_join_Has_Rows -->
<g id="node11" class="node">
<title>samples__siteID_siteID__sites_join_Has_Rows</title>
<ellipse fill="none" stroke="#000000" cx="836.4075" cy="-256.8313" rx="47.4704" ry="18"/>
<text text-anchor="middle" x="836.4075" y="-252.6313" font-family="Times,serif" font-size="14.00" fill="#000000">Has rows</text>
</g>
<!-- samples__siteID_siteID__sites_join&#45;&gt;samples__siteID_siteID__sites_join_Has_Rows -->
<g id="edge10" class="edge">
<title>samples__siteID_siteID__sites_join&#45;&gt;samples__siteID_siteID__sites_join_Has_Rows</title>
<path fill="none" stroke="#000000" d="M714.4411,-322.4967C742.1568,-307.5749 775.008,-289.8882 799.6299,-276.632"/>
<polygon fill="#000000" stroke="#000000" points="801.4899,-279.6057 808.6357,-271.7833 798.1715,-273.4422 801.4899,-279.6057"/>
</g>
<!-- samples__siteID_siteID__sites_join_No_Rows -->
<g id="node17" class="node">
<title>samples__siteID_siteID__sites_join_No_Rows</title>
<ellipse fill="none" stroke="#000000" cx="659.4075" cy="-173.4156" rx="44.0415" ry="18"/>
<text text-anchor="middle" x="659.4075" y="-169.2156" font-family="Times,serif" font-size="14.00" fill="#000000">No rows</text>
</g>
<!-- samples__siteID_siteID__sites_join&#45;&gt;samples__siteID_siteID__sites_join_No_Rows -->
<g id="edge16" class="edge">
<title>samples__siteID_siteID__sites_join&#45;&gt;samples__siteID_siteID__sites_join_No_Rows</title>
<path fill="none" stroke="#000000" d="M659.4075,-310.6773C659.4075,-277.3966 659.4075,-231.5276 659.4075,-202.1677"/>
<polygon fill="#000000" stroke="#000000" points="662.9076,-201.7842 659.4075,-191.7843 655.9076,-201.7843 662.9076,-201.7842"/>
</g>
<!-- samples__siteID_siteID__sites_where -->
<g id="node12" class="node">
<title>samples__siteID_siteID__sites_where</title>
<ellipse fill="none" stroke="#000000" cx="937.4075" cy="-173.4156" rx="216.315" ry="29.3315"/>
<text text-anchor="middle" x="937.4075" y="-177.6156" font-family="Times,serif" font-size="14.00" fill="#000000">WHERE IN</text>
<text text-anchor="middle" x="937.4075" y="-160.8156" font-family="Times,serif" font-size="14.00" fill="#000000">sites.healthReg = [&quot;Whitehorse&quot;,&quot;Haines Junction&quot;]</text>
</g>
<!-- samples__siteID_siteID__sites_join_Has_Rows&#45;&gt;samples__siteID_siteID__sites_where -->
<g id="edge11" class="edge">
<title>samples__siteID_siteID__sites_join_Has_Rows&#45;&gt;samples__siteID_siteID__sites_where</title>
<path fill="none" stroke="#000000" d="M856.3618,-240.351C867.1213,-231.4648 880.844,-220.1313 893.9259,-209.327"/>
<polygon fill="#000000" stroke="#000000" points="896.4746,-211.7614 901.9562,-202.6948 892.0171,-206.3641 896.4746,-211.7614"/>
</g>
<!-- samples__siteID_siteID__sites_where_Has_Rows -->
<g id="node13" class="node">
<title>samples__siteID_siteID__sites_where_Has_Rows</title>
<ellipse fill="none" stroke="#000000" cx="1021.4075" cy="-90" rx="47.4704" ry="18"/>
<text text-anchor="middle" x="1021.4075" y="-85.8" font-family="Times,serif" font-size="14.00" fill="#000000">Has rows</text>
</g>
<!-- samples__siteID_siteID__sites_where&#45;&gt;samples__siteID_siteID__sites_where_Has_Rows -->
<g id="edge12" class="edge">
<title>samples__siteID_siteID__sites_where&#45;&gt;samples__siteID_siteID__sites_where_Has_Rows</title>
<path fill="none" stroke="#000000" d="M966.7866,-144.2409C976.6421,-134.454 987.5196,-123.6521 996.9561,-114.2813"/>
<polygon fill="#000000" stroke="#000000" points="999.5385,-116.6494 1004.168,-107.1195 994.6061,-111.6824 999.5385,-116.6494"/>
</g>
<!-- samples__siteID_siteID__sites_where_No_Rows -->
<g id="node15" class="node">
<title>samples__siteID_siteID__sites_where_No_Rows</title>
<ellipse fill="none" stroke="#000000" cx="810.4075" cy="-90" rx="44.0415" ry="18"/>
<text text-anchor="middle" x="810.4075" y="-85.8" font-family="Times,serif" font-size="14.00" fill="#000000">No rows</text>
</g>
<!-- samples__siteID_siteID__sites_where&#45;&gt;samples__siteID_siteID__sites_where_No_Rows -->
<g id="edge14" class="edge">
<title>samples__siteID_siteID__sites_where&#45;&gt;samples__siteID_siteID__sites_where_No_Rows</title>
<path fill="none" stroke="#000000" d="M893.3455,-144.475C876.5768,-133.4611 857.8067,-121.1326 842.3696,-110.9932"/>
<polygon fill="#000000" stroke="#000000" points="843.9857,-107.8673 833.7059,-105.3027 840.1427,-113.7181 843.9857,-107.8673"/>
</g>
<!-- granted -->
<g id="node14" class="node">
<title>granted</title>
<ellipse fill="none" stroke="#000000" cx="1101.4075" cy="-18" rx="71.7874" ry="18"/>
<text text-anchor="middle" x="1101.4075" y="-13.8" font-family="Times,serif" font-size="14.00" fill="#000000">Access Granted</text>
</g>
<!-- samples__siteID_siteID__sites_where_Has_Rows&#45;&gt;granted -->
<g id="edge13" class="edge">
<title>samples__siteID_siteID__sites_where_Has_Rows&#45;&gt;granted</title>
<path fill="none" stroke="#000000" d="M1039.9622,-73.3008C1050.2381,-64.0525 1063.1948,-52.3914 1074.5583,-42.1643"/>
<polygon fill="#000000" stroke="#000000" points="1077.0266,-44.6516 1082.1182,-35.3603 1072.3439,-39.4485 1077.0266,-44.6516"/>
</g>
<!-- denied -->
<g id="node16" class="node">
<title>denied</title>
<ellipse fill="none" stroke="#000000" cx="220.4075" cy="-18" rx="68.8581" ry="18"/>
<text text-anchor="middle" x="220.4075" y="-13.8" font-family="Times,serif" font-size="14.00" fill="#000000">Access Denied</text>
</g>
<!-- samples__siteID_siteID__sites_where_No_Rows&#45;&gt;denied -->
<g id="edge15" class="edge">
<title>samples__siteID_siteID__sites_where_No_Rows&#45;&gt;denied</title>
<path fill="none" stroke="#000000" d="M767.9761,-84.8219C668.1327,-72.6377 417.4033,-42.0402 292.8931,-26.8457"/>
<polygon fill="#000000" stroke="#000000" points="293.048,-23.3387 282.6977,-25.6015 292.2,-30.2872 293.048,-23.3387"/>
</g>
<!-- samples__siteID_siteID__sites_join_No_Rows&#45;&gt;denied -->
<g id="edge17" class="edge">
<title>samples__siteID_siteID__sites_join_No_Rows&#45;&gt;denied</title>
<path fill="none" stroke="#000000" d="M636.7981,-157.7372C603.5798,-135.4194 538.9524,-94.6873 478.4075,-72 417.8193,-49.2965 345.4584,-35.1995 292.8101,-27.1275"/>
<polygon fill="#000000" stroke="#000000" points="293.2929,-23.6609 282.8848,-25.6412 292.2561,-30.5837 293.2929,-23.6609"/>
</g>
<!-- samples__dataID_dataID__datasets_join_Has_Rows -->
<g id="node19" class="node">
<title>samples__dataID_dataID__datasets_join_Has_Rows</title>
<ellipse fill="none" stroke="#000000" cx="343.4075" cy="-256.8313" rx="47.4704" ry="18"/>
<text text-anchor="middle" x="343.4075" y="-252.6313" font-family="Times,serif" font-size="14.00" fill="#000000">Has rows</text>
</g>
<!-- samples__dataID_dataID__datasets_join&#45;&gt;samples__dataID_dataID__datasets_join_Has_Rows -->
<g id="edge19" class="edge">
<title>samples__dataID_dataID__datasets_join&#45;&gt;samples__dataID_dataID__datasets_join_Has_Rows</title>
<path fill="none" stroke="#000000" d="M298.5389,-313.0912C306.9091,-302.5959 315.7393,-291.5239 323.3313,-282.0044"/>
<polygon fill="#000000" stroke="#000000" points="326.1429,-284.0924 329.6417,-274.0919 320.6702,-279.7278 326.1429,-284.0924"/>
</g>
<!-- samples__dataID_dataID__datasets_join_No_Rows -->
<g id="node23" class="node">
<title>samples__dataID_dataID__datasets_join_No_Rows</title>
<ellipse fill="none" stroke="#000000" cx="177.4075" cy="-256.8313" rx="44.0415" ry="18"/>
<text text-anchor="middle" x="177.4075" y="-252.6313" font-family="Times,serif" font-size="14.00" fill="#000000">No rows</text>
</g>
<!-- samples__dataID_dataID__datasets_join&#45;&gt;samples__dataID_dataID__datasets_join_No_Rows -->
<g id="edge25" class="edge">
<title>samples__dataID_dataID__datasets_join&#45;&gt;samples__dataID_dataID__datasets_join_No_Rows</title>
<path fill="none" stroke="#000000" d="M231.3196,-313.9153C220.9008,-302.8835 209.8181,-291.1487 200.4279,-281.2061"/>
<polygon fill="#000000" stroke="#000000" points="202.7158,-278.5312 193.305,-273.6642 197.6267,-283.3375 202.7158,-278.5312"/>
</g>
<!-- samples__dataID_dataID__datasets_where -->
<g id="node20" class="node">
<title>samples__dataID_dataID__datasets_where</title>
<ellipse fill="none" stroke="#000000" cx="368.4075" cy="-173.4156" rx="228.5204" ry="29.3315"/>
<text text-anchor="middle" x="368.4075" y="-177.6156" font-family="Times,serif" font-size="14.00" fill="#000000">WHERE IN</text>
<text text-anchor="middle" x="368.4075" y="-160.8156" font-family="Times,serif" font-size="14.00" fill="#000000">datasets.dataID = [&quot;NML&#45;WWPCR&quot;,&quot;NML&#45;WWGX&quot;]</text>
</g>
<!-- samples__dataID_dataID__datasets_join_Has_Rows&#45;&gt;samples__dataID_dataID__datasets_where -->
<g id="edge20" class="edge">
<title>samples__dataID_dataID__datasets_join_Has_Rows&#45;&gt;samples__dataID_dataID__datasets_where</title>
<path fill="none" stroke="#000000" d="M348.8321,-238.7313C351.1312,-231.0602 353.9064,-221.8004 356.6352,-212.6954"/>
<polygon fill="#000000" stroke="#000000" points="360.035,-213.5427 359.5533,-202.9588 353.3297,-211.533 360.035,-213.5427"/>
</g>
<!-- samples__dataID_dataID__datasets_where_Has_Rows -->
<g id="node21" class="node">
<title>samples__dataID_dataID__datasets_where_Has_Rows</title>
<ellipse fill="none" stroke="#000000" cx="422.4075" cy="-90" rx="47.4704" ry="18"/>
<text text-anchor="middle" x="422.4075" y="-85.8" font-family="Times,serif" font-size="14.00" fill="#000000">Has rows</text>
</g>
<!-- samples__dataID_dataID__datasets_where&#45;&gt;samples__dataID_dataID__datasets_where_Has_Rows -->
<g id="edge21" class="edge">
<title>samples__dataID_dataID__datasets_where&#45;&gt;samples__dataID_dataID__datasets_where_Has_Rows</title>
<path fill="none" stroke="#000000" d="M387.5979,-143.7715C393.3577,-134.8742 399.6363,-125.1754 405.2555,-116.4953"/>
<polygon fill="#000000" stroke="#000000" points="408.3269,-118.1913 410.8231,-107.8947 402.4507,-114.3873 408.3269,-118.1913"/>
</g>
<!-- samples__dataID_dataID__datasets_where_No_Rows -->
<g id="node22" class="node">
<title>samples__dataID_dataID__datasets_where_No_Rows</title>
<ellipse fill="none" stroke="#000000" cx="275.4075" cy="-90" rx="44.0415" ry="18"/>
<text text-anchor="middle" x="275.4075" y="-85.8" font-family="Times,serif" font-size="14.00" fill="#000000">No rows</text>
</g>
<!-- samples__dataID_dataID__datasets_where&#45;&gt;samples__dataID_dataID__datasets_where_No_Rows -->
<g id="edge23" class="edge">
<title>samples__dataID_dataID__datasets_where&#45;&gt;samples__dataID_dataID__datasets_where_No_Rows</title>
<path fill="none" stroke="#000000" d="M335.8806,-144.2409C324.5002,-134.0334 311.8889,-122.7217 301.1406,-113.0811"/>
<polygon fill="#000000" stroke="#000000" points="303.4689,-110.4679 293.6877,-106.3963 298.7949,-115.6788 303.4689,-110.4679"/>
</g>
<!-- samples__dataID_dataID__datasets_where_Has_Rows&#45;&gt;granted -->
<g id="edge22" class="edge">
<title>samples__dataID_dataID__datasets_where_Has_Rows&#45;&gt;granted</title>
<path fill="none" stroke="#000000" d="M468.0129,-85.1641C582.4514,-73.0292 882.742,-41.1869 1024.8127,-26.122"/>
<polygon fill="#000000" stroke="#000000" points="1025.6009,-29.5581 1035.1761,-25.0231 1024.8627,-22.5971 1025.6009,-29.5581"/>
</g>
<!-- samples__dataID_dataID__datasets_where_No_Rows&#45;&gt;denied -->
<g id="edge24" class="edge">
<title>samples__dataID_dataID__datasets_where_No_Rows&#45;&gt;denied</title>
<path fill="none" stroke="#000000" d="M262.0935,-72.5708C255.5037,-63.9441 247.4172,-53.3582 240.126,-43.8134"/>
<polygon fill="#000000" stroke="#000000" points="242.8327,-41.591 233.9809,-35.7689 237.27,-45.8403 242.8327,-41.591"/>
</g>
<!-- samples__dataID_dataID__datasets_join_No_Rows&#45;&gt;denied -->
<g id="edge26" class="edge">
<title>samples__dataID_dataID__datasets_join_No_Rows&#45;&gt;denied</title>
<path fill="none" stroke="#000000" d="M157.603,-240.545C147.3677,-230.8086 135.8963,-217.498 130.4075,-202.8313 121.243,-178.3427 122.4279,-168.8999 130.4075,-144 143.085,-104.4402 173.2513,-66.7283 195.1732,-43.0481"/>
<polygon fill="#000000" stroke="#000000" points="197.9181,-45.2398 202.2544,-35.5729 192.8363,-40.4258 197.9181,-45.2398"/>
</g>
<!-- sites__siteID_siteID__samples_join_No_Rows&#45;&gt;denied -->
<g id="edge28" class="edge">
<title>sites__siteID_siteID__samples_join_No_Rows&#45;&gt;denied</title>
<path fill="none" stroke="#000000" d="M123.7674,-429.6142C106.8068,-396.5704 73.4075,-323.0882 73.4075,-256.8313 73.4075,-256.8313 73.4075,-256.8313 73.4075,-173.4156 73.4075,-111.6975 135.3506,-64.6174 178.8175,-39.1779"/>
<polygon fill="#000000" stroke="#000000" points="180.8201,-42.0656 187.7834,-34.0804 177.3603,-35.9803 180.8201,-42.0656"/>
</g>
<!-- addresses__addID_addID__sites_where_No_Rows&#45;&gt;denied -->
<g id="edge30" class="edge">
<title>addresses__addID_addID__sites_where_No_Rows&#45;&gt;denied</title>
<path fill="none" stroke="#000000" d="M46.3476,-524.6121C42.6819,-490.7796 35.4075,-415.6381 35.4075,-352.1263 35.4075,-352.1263 35.4075,-352.1263 35.4075,-173.4156 35.4075,-121.2693 55.355,-106.5563 94.4075,-72 113.6678,-54.9571 139.1191,-42.6805 162.1028,-34.1831"/>
<polygon fill="#000000" stroke="#000000" points="163.511,-37.3978 171.7766,-30.7699 161.1818,-30.7966 163.511,-37.3978"/>
</g>
<!-- addresses__addID_addID__sites_join_No_Rows&#45;&gt;granted -->
<g id="edge32" class="edge">
<title>addresses__addID_addID__sites_join_No_Rows&#45;&gt;granted</title>
<path fill="none" stroke="#000000" d="M1139.0589,-703.6421C1153.6095,-672.0438 1181.4075,-603.6969 1181.4075,-542.7164 1181.4075,-542.7164 1181.4075,-542.7164 1181.4075,-173.4156 1181.4075,-123.1468 1147.9121,-72.861 1124.2687,-43.6273"/>
<polygon fill="#000000" stroke="#000000" points="1126.6823,-41.0558 1117.5967,-35.6058 1121.3006,-45.5322 1126.6823,-41.0558"/>
</g>
<!-- organizations__addID_addID__addresses_join_No_Rows&#45;&gt;granted -->
<g id="edge34" class="edge">
<title>organizations__addID_addID__addresses_join_No_Rows&#45;&gt;granted</title>
<path fill="none" stroke="#000000" d="M1219.4075,-882.1277C1219.4075,-849.8967 1219.4075,-780.2216 1219.4075,-721.4271 1219.4075,-721.4271 1219.4075,-721.4271 1219.4075,-173.4156 1219.4075,-123.1617 1200.9619,-111.1124 1169.4075,-72 1160.0387,-60.3871 1147.7496,-49.682 1136.1989,-40.9186"/>
<polygon fill="#000000" stroke="#000000" points="1138.1075,-37.9782 1127.971,-34.8955 1133.9727,-43.6265 1138.1075,-37.9782"/>
</g>
</g>
</svg>
