<?xml version="1.0" encoding="UTF-8" standalone="no"?>
<!DOCTYPE svg PUBLIC "-//W3C//DTD SVG 1.1//EN"
 "http://www.w3.org/Graphics/SVG/1.1/DTD/svg11.dtd">
<!-- Generated by graphviz version 2.40.1 (20161225.0304)
 -->
<!-- Title: G Pages: 1 -->
<svg width="988pt" height="1212pt"
 viewBox="0.00 0.00 988.02 1212.02" xmlns="http://www.w3.org/2000/svg" xmlns:xlink="http://www.w3.org/1999/xlink">
<g id="graph0" class="graph" transform="scale(1 1) rotate(0) translate(4 1208.0229)">
<title>G</title>
<polygon fill="#ffffff" stroke="transparent" points="-4,4 -4,-1208.0229 984.0208,-1208.0229 984.0208,4 -4,4"/>
<!-- organizations -->
<g id="node1" class="node">
<title>organizations</title>
<ellipse fill="none" stroke="#000000" cx="865" cy="-1186.0229" rx="63.1209" ry="18"/>
<text text-anchor="middle" x="865" y="-1181.8229" font-family="Times,serif" font-size="14.00" fill="#000000">organizations</text>
</g>
<!-- organizations__addID_addID__addresses_join -->
<g id="node2" class="node">
<title>organizations__addID_addID__addresses_join</title>
<ellipse fill="none" stroke="#000000" cx="865" cy="-1090.7278" rx="99.0518" ry="41.0911"/>
<text text-anchor="middle" x="865" y="-1103.3278" font-family="Times,serif" font-size="14.00" fill="#000000">LEFT JOIN addresses</text>
<text text-anchor="middle" x="865" y="-1086.5278" font-family="Times,serif" font-size="14.00" fill="#000000">At level: 4</text>
<text text-anchor="middle" x="865" y="-1069.7278" font-family="Times,serif" font-size="14.00" fill="#000000">Required: false</text>
</g>
<!-- organizations&#45;&gt;organizations__addID_addID__addresses_join -->
<g id="edge1" class="edge">
<title>organizations&#45;&gt;organizations__addID_addID__addresses_join</title>
<path fill="none" stroke="#000000" d="M865,-1167.649C865,-1160.3399 865,-1151.5303 865,-1142.5215"/>
<polygon fill="#000000" stroke="#000000" points="868.5001,-1142.335 865,-1132.335 861.5001,-1142.335 868.5001,-1142.335"/>
</g>
<!-- organizations__addID_addID__addresses_join_Has_Rows -->
<g id="node3" class="node">
<title>organizations__addID_addID__addresses_join_Has_Rows</title>
<ellipse fill="none" stroke="#000000" cx="828" cy="-995.4328" rx="47.4704" ry="18"/>
<text text-anchor="middle" x="828" y="-991.2328" font-family="Times,serif" font-size="14.00" fill="#000000">Has rows</text>
</g>
<!-- organizations__addID_addID__addresses_join&#45;&gt;organizations__addID_addID__addresses_join_Has_Rows -->
<g id="edge2" class="edge">
<title>organizations__addID_addID__addresses_join&#45;&gt;organizations__addID_addID__addresses_join_Has_Rows</title>
<path fill="none" stroke="#000000" d="M849.0939,-1049.7611C845.5463,-1040.6241 841.8689,-1031.1528 838.5975,-1022.7271"/>
<polygon fill="#000000" stroke="#000000" points="841.8579,-1021.4542 834.9757,-1013.399 835.3325,-1023.9879 841.8579,-1021.4542"/>
</g>
<!-- organizations__addID_addID__addresses_join_No_Rows -->
<g id="node27" class="node">
<title>organizations__addID_addID__addresses_join_No_Rows</title>
<ellipse fill="none" stroke="#000000" cx="936" cy="-900.1377" rx="44.0415" ry="18"/>
<text text-anchor="middle" x="936" y="-895.9377" font-family="Times,serif" font-size="14.00" fill="#000000">No rows</text>
</g>
<!-- organizations__addID_addID__addresses_join&#45;&gt;organizations__addID_addID__addresses_join_No_Rows -->
<g id="edge33" class="edge">
<title>organizations__addID_addID__addresses_join&#45;&gt;organizations__addID_addID__addresses_join_No_Rows</title>
<path fill="none" stroke="#000000" d="M880.2313,-1049.8415C893.9822,-1012.9289 913.8349,-959.6371 925.7714,-927.5952"/>
<polygon fill="#000000" stroke="#000000" points="929.1397,-928.5791 929.3509,-917.9864 922.5801,-926.1354 929.1397,-928.5791"/>
</g>
<!-- addresses__addID_addID__sites_join -->
<g id="node4" class="node">
<title>addresses__addID_addID__sites_join</title>
<ellipse fill="none" stroke="#000000" cx="795" cy="-900.1377" rx="78.8882" ry="41.0911"/>
<text text-anchor="middle" x="795" y="-912.7377" font-family="Times,serif" font-size="14.00" fill="#000000">LEFT JOIN sites</text>
<text text-anchor="middle" x="795" y="-895.9377" font-family="Times,serif" font-size="14.00" fill="#000000">At level: 3</text>
<text text-anchor="middle" x="795" y="-879.1377" font-family="Times,serif" font-size="14.00" fill="#000000">Required: false</text>
</g>
<!-- organizations__addID_addID__addresses_join_Has_Rows&#45;&gt;addresses__addID_addID__sites_join -->
<g id="edge3" class="edge">
<title>organizations__addID_addID__addresses_join_Has_Rows&#45;&gt;addresses__addID_addID__sites_join</title>
<path fill="none" stroke="#000000" d="M821.793,-977.5085C819.1044,-969.7447 815.8088,-960.2279 812.4603,-950.5583"/>
<polygon fill="#000000" stroke="#000000" points="815.6943,-949.2011 809.1146,-940.897 809.0797,-951.4918 815.6943,-949.2011"/>
</g>
<!-- addresses__addID_addID__sites_join_Has_Rows -->
<g id="node5" class="node">
<title>addresses__addID_addID__sites_join_Has_Rows</title>
<ellipse fill="none" stroke="#000000" cx="527" cy="-804.8427" rx="47.4704" ry="18"/>
<text text-anchor="middle" x="527" y="-800.6427" font-family="Times,serif" font-size="14.00" fill="#000000">Has rows</text>
</g>
<!-- addresses__addID_addID__sites_join&#45;&gt;addresses__addID_addID__sites_join_Has_Rows -->
<g id="edge4" class="edge">
<title>addresses__addID_addID__sites_join&#45;&gt;addresses__addID_addID__sites_join_Has_Rows</title>
<path fill="none" stroke="#000000" d="M729.4398,-876.826C680.2724,-859.3431 614.3009,-835.885 571.2337,-820.5713"/>
<polygon fill="#000000" stroke="#000000" points="572.2,-817.2002 561.6053,-817.1476 569.8547,-823.7957 572.2,-817.2002"/>
</g>
<!-- addresses__addID_addID__sites_join_No_Rows -->
<g id="node26" class="node">
<title>addresses__addID_addID__sites_join_No_Rows</title>
<ellipse fill="none" stroke="#000000" cx="847" cy="-721.4271" rx="44.0415" ry="18"/>
<text text-anchor="middle" x="847" y="-717.2271" font-family="Times,serif" font-size="14.00" fill="#000000">No rows</text>
</g>
<!-- addresses__addID_addID__sites_join&#45;&gt;addresses__addID_addID__sites_join_No_Rows -->
<g id="edge31" class="edge">
<title>addresses__addID_addID__sites_join&#45;&gt;addresses__addID_addID__sites_join_No_Rows</title>
<path fill="none" stroke="#000000" d="M806.9299,-859.1379C816.7468,-825.3996 830.3934,-778.4997 838.9578,-749.0661"/>
<polygon fill="#000000" stroke="#000000" points="842.3272,-750.0134 841.7605,-739.4337 835.606,-748.0576 842.3272,-750.0134"/>
</g>
<!-- addresses__addID_addID__sites_where -->
<g id="node6" class="node">
<title>addresses__addID_addID__sites_where</title>
<ellipse fill="none" stroke="#000000" cx="277" cy="-721.4271" rx="92.1488" ry="29.3315"/>
<text text-anchor="middle" x="277" y="-725.6271" font-family="Times,serif" font-size="14.00" fill="#000000">WHERE</text>
<text text-anchor="middle" x="277" y="-708.8271" font-family="Times,serif" font-size="14.00" fill="#000000">sites.siteID = &quot;HNJ&quot;</text>
</g>
<!-- addresses__addID_addID__sites_join_Has_Rows&#45;&gt;addresses__addID_addID__sites_where -->
<g id="edge5" class="edge">
<title>addresses__addID_addID__sites_join_Has_Rows&#45;&gt;addresses__addID_addID__sites_where</title>
<path fill="none" stroke="#000000" d="M491.4466,-792.9799C454.949,-780.802 397.0867,-761.4955 350.6603,-746.0047"/>
<polygon fill="#000000" stroke="#000000" points="351.5325,-742.6061 340.9388,-742.761 349.3168,-749.2463 351.5325,-742.6061"/>
</g>
<!-- addresses__addID_addID__sites_where_Has_Rows -->
<g id="node7" class="node">
<title>addresses__addID_addID__sites_where_Has_Rows</title>
<ellipse fill="none" stroke="#000000" cx="277" cy="-638.0114" rx="47.4704" ry="18"/>
<text text-anchor="middle" x="277" y="-633.8114" font-family="Times,serif" font-size="14.00" fill="#000000">Has rows</text>
</g>
<!-- addresses__addID_addID__sites_where&#45;&gt;addresses__addID_addID__sites_where_Has_Rows -->
<g id="edge6" class="edge">
<title>addresses__addID_addID__sites_where&#45;&gt;addresses__addID_addID__sites_where_Has_Rows</title>
<path fill="none" stroke="#000000" d="M277,-691.783C277,-683.5778 277,-674.691 277,-666.5502"/>
<polygon fill="#000000" stroke="#000000" points="280.5001,-666.398 277,-656.398 273.5001,-666.398 280.5001,-666.398"/>
</g>
<!-- addresses__addID_addID__sites_where_No_Rows -->
<g id="node25" class="node">
<title>addresses__addID_addID__sites_where_No_Rows</title>
<ellipse fill="none" stroke="#000000" cx="64" cy="-542.7164" rx="44.0415" ry="18"/>
<text text-anchor="middle" x="64" y="-538.5164" font-family="Times,serif" font-size="14.00" fill="#000000">No rows</text>
</g>
<!-- addresses__addID_addID__sites_where&#45;&gt;addresses__addID_addID__sites_where_No_Rows -->
<g id="edge29" class="edge">
<title>addresses__addID_addID__sites_where&#45;&gt;addresses__addID_addID__sites_where_No_Rows</title>
<path fill="none" stroke="#000000" d="M244.1855,-693.8952C202.2412,-658.7031 130.3874,-598.4165 91.2896,-565.6128"/>
<polygon fill="#000000" stroke="#000000" points="93.3767,-562.7952 83.4662,-559.0489 88.8774,-568.1577 93.3767,-562.7952"/>
</g>
<!-- sites__siteID_siteID__samples_join -->
<g id="node8" class="node">
<title>sites__siteID_siteID__samples_join</title>
<ellipse fill="none" stroke="#000000" cx="277" cy="-542.7164" rx="93.4765" ry="41.0911"/>
<text text-anchor="middle" x="277" y="-555.3164" font-family="Times,serif" font-size="14.00" fill="#000000">LEFT JOIN samples</text>
<text text-anchor="middle" x="277" y="-538.5164" font-family="Times,serif" font-size="14.00" fill="#000000">At level: 2</text>
<text text-anchor="middle" x="277" y="-521.7164" font-family="Times,serif" font-size="14.00" fill="#000000">Required: true</text>
</g>
<!-- addresses__addID_addID__sites_where_Has_Rows&#45;&gt;sites__siteID_siteID__samples_join -->
<g id="edge7" class="edge">
<title>addresses__addID_addID__sites_where_Has_Rows&#45;&gt;sites__siteID_siteID__samples_join</title>
<path fill="none" stroke="#000000" d="M277,-619.6376C277,-612.3285 277,-603.5189 277,-594.5101"/>
<polygon fill="#000000" stroke="#000000" points="280.5001,-594.3235 277,-584.3236 273.5001,-594.3236 280.5001,-594.3235"/>
</g>
<!-- sites__siteID_siteID__samples_join_Has_Rows -->
<g id="node9" class="node">
<title>sites__siteID_siteID__samples_join_Has_Rows</title>
<ellipse fill="none" stroke="#000000" cx="285" cy="-447.4214" rx="47.4704" ry="18"/>
<text text-anchor="middle" x="285" y="-443.2214" font-family="Times,serif" font-size="14.00" fill="#000000">Has rows</text>
</g>
<!-- sites__siteID_siteID__samples_join&#45;&gt;sites__siteID_siteID__samples_join_Has_Rows -->
<g id="edge8" class="edge">
<title>sites__siteID_siteID__samples_join&#45;&gt;sites__siteID_siteID__samples_join_Has_Rows</title>
<path fill="none" stroke="#000000" d="M280.4856,-501.1958C281.2036,-492.6442 281.9439,-483.8248 282.6122,-475.8643"/>
<polygon fill="#000000" stroke="#000000" points="286.121,-475.905 283.4699,-465.6473 279.1456,-475.3194 286.121,-475.905"/>
</g>
<!-- sites__siteID_siteID__samples_join_No_Rows -->
<g id="node24" class="node">
<title>sites__siteID_siteID__samples_join_No_Rows</title>
<ellipse fill="none" stroke="#000000" cx="124" cy="-447.4214" rx="44.0415" ry="18"/>
<text text-anchor="middle" x="124" y="-443.2214" font-family="Times,serif" font-size="14.00" fill="#000000">No rows</text>
</g>
<!-- sites__siteID_siteID__samples_join&#45;&gt;sites__siteID_siteID__samples_join_No_Rows -->
<g id="edge27" class="edge">
<title>sites__siteID_siteID__samples_join&#45;&gt;sites__siteID_siteID__samples_join_No_Rows</title>
<path fill="none" stroke="#000000" d="M222.6271,-508.8506C200.6791,-495.1804 176.0723,-479.8543 156.9276,-467.9301"/>
<polygon fill="#000000" stroke="#000000" points="158.6136,-464.8569 148.275,-462.5409 154.9128,-470.7986 158.6136,-464.8569"/>
</g>
<!-- samples__siteID_siteID__sites_join -->
<g id="node10" class="node">
<title>samples__siteID_siteID__sites_join</title>
<ellipse fill="none" stroke="#000000" cx="624" cy="-352.1263" rx="78.8882" ry="41.0911"/>
<text text-anchor="middle" x="624" y="-364.7263" font-family="Times,serif" font-size="14.00" fill="#000000">LEFT JOIN sites</text>
<text text-anchor="middle" x="624" y="-347.9263" font-family="Times,serif" font-size="14.00" fill="#000000">At level: 1</text>
<text text-anchor="middle" x="624" y="-331.1263" font-family="Times,serif" font-size="14.00" fill="#000000">Required: true</text>
</g>
<!-- sites__siteID_siteID__samples_join_Has_Rows&#45;&gt;samples__siteID_siteID__sites_join -->
<g id="edge9" class="edge">
<title>sites__siteID_siteID__samples_join_Has_Rows&#45;&gt;samples__siteID_siteID__sites_join</title>
<path fill="none" stroke="#000000" d="M323.2286,-436.675C376.6463,-421.659 474.8827,-394.0441 544.5372,-374.4638"/>
<polygon fill="#000000" stroke="#000000" points="545.4887,-377.8321 554.1684,-371.7564 543.5944,-371.0933 545.4887,-377.8321"/>
</g>
<!-- samples__dataID_dataID__datasets_join -->
<g id="node18" class="node">
<title>samples__dataID_dataID__datasets_join</title>
<ellipse fill="none" stroke="#000000" cx="285" cy="-352.1263" rx="92.8656" ry="41.0911"/>
<text text-anchor="middle" x="285" y="-364.7263" font-family="Times,serif" font-size="14.00" fill="#000000">LEFT JOIN datasets</text>
<text text-anchor="middle" x="285" y="-347.9263" font-family="Times,serif" font-size="14.00" fill="#000000">At level: 1</text>
<text text-anchor="middle" x="285" y="-331.1263" font-family="Times,serif" font-size="14.00" fill="#000000">Required: true</text>
</g>
<!-- sites__siteID_siteID__samples_join_Has_Rows&#45;&gt;samples__dataID_dataID__datasets_join -->
<g id="edge18" class="edge">
<title>sites__siteID_siteID__samples_join_Has_Rows&#45;&gt;samples__dataID_dataID__datasets_join</title>
<path fill="none" stroke="#000000" d="M285,-429.0475C285,-421.7384 285,-412.9288 285,-403.92"/>
<polygon fill="#000000" stroke="#000000" points="288.5001,-403.7335 285,-393.7335 281.5001,-403.7335 288.5001,-403.7335"/>
</g>
<!-- samples__siteID_siteID__sites_join_Has_Rows -->
<g id="node11" class="node">
<title>samples__siteID_siteID__sites_join_Has_Rows</title>
<ellipse fill="none" stroke="#000000" cx="739" cy="-256.8313" rx="47.4704" ry="18"/>
<text text-anchor="middle" x="739" y="-252.6313" font-family="Times,serif" font-size="14.00" fill="#000000">Has rows</text>
</g>
<!-- samples__siteID_siteID__sites_join&#45;&gt;samples__siteID_siteID__sites_join_Has_Rows -->
<g id="edge10" class="edge">
<title>samples__siteID_siteID__sites_join&#45;&gt;samples__siteID_siteID__sites_join_Has_Rows</title>
<path fill="none" stroke="#000000" d="M666.1688,-317.1831C681.1389,-304.778 697.6047,-291.1336 711.0874,-279.9611"/>
<polygon fill="#000000" stroke="#000000" points="713.59,-282.4328 719.0568,-273.3573 709.1236,-277.0429 713.59,-282.4328"/>
</g>
<!-- samples__siteID_siteID__sites_join_No_Rows -->
<g id="node17" class="node">
<title>samples__siteID_siteID__sites_join_No_Rows</title>
<ellipse fill="none" stroke="#000000" cx="624" cy="-173.4156" rx="44.0415" ry="18"/>
<text text-anchor="middle" x="624" y="-169.2156" font-family="Times,serif" font-size="14.00" fill="#000000">No rows</text>
</g>
<!-- samples__siteID_siteID__sites_join&#45;&gt;samples__siteID_siteID__sites_join_No_Rows -->
<g id="edge16" class="edge">
<title>samples__siteID_siteID__sites_join&#45;&gt;samples__siteID_siteID__sites_join_No_Rows</title>
<path fill="none" stroke="#000000" d="M624,-310.6773C624,-277.3966 624,-231.5276 624,-202.1677"/>
<polygon fill="#000000" stroke="#000000" points="627.5001,-201.7842 624,-191.7843 620.5001,-201.7843 627.5001,-201.7842"/>
</g>
<!-- samples__siteID_siteID__sites_where -->
<g id="node12" class="node">
<title>samples__siteID_siteID__sites_where</title>
<ellipse fill="none" stroke="#000000" cx="778" cy="-173.4156" rx="92.1488" ry="29.3315"/>
<text text-anchor="middle" x="778" y="-177.6156" font-family="Times,serif" font-size="14.00" fill="#000000">WHERE</text>
<text text-anchor="middle" x="778" y="-160.8156" font-family="Times,serif" font-size="14.00" fill="#000000">sites.siteID = &quot;HNJ&quot;</text>
</g>
<!-- samples__siteID_siteID__sites_join_Has_Rows&#45;&gt;samples__siteID_siteID__sites_where -->
<g id="edge11" class="edge">
<title>samples__siteID_siteID__sites_join_Has_Rows&#45;&gt;samples__siteID_siteID__sites_where</title>
<path fill="none" stroke="#000000" d="M747.4624,-238.7313C751.1589,-230.8251 755.6443,-221.2313 760.0264,-211.8588"/>
<polygon fill="#000000" stroke="#000000" points="763.2761,-213.1719 764.3409,-202.6307 756.9349,-210.2071 763.2761,-213.1719"/>
</g>
<!-- samples__siteID_siteID__sites_where_Has_Rows -->
<g id="node13" class="node">
<title>samples__siteID_siteID__sites_where_Has_Rows</title>
<ellipse fill="none" stroke="#000000" cx="800" cy="-90" rx="47.4704" ry="18"/>
<text text-anchor="middle" x="800" y="-85.8" font-family="Times,serif" font-size="14.00" fill="#000000">Has rows</text>
</g>
<!-- samples__siteID_siteID__sites_where&#45;&gt;samples__siteID_siteID__sites_where_Has_Rows -->
<g id="edge12" class="edge">
<title>samples__siteID_siteID__sites_where&#45;&gt;samples__siteID_siteID__sites_where_Has_Rows</title>
<path fill="none" stroke="#000000" d="M785.8183,-143.7715C788.0067,-135.4742 790.3788,-126.4798 792.5455,-118.2646"/>
<polygon fill="#000000" stroke="#000000" points="795.9847,-118.9485 795.1507,-108.3866 789.2162,-117.1633 795.9847,-118.9485"/>
</g>
<!-- samples__siteID_siteID__sites_where_No_Rows -->
<g id="node15" class="node">
<title>samples__siteID_siteID__sites_where_No_Rows</title>
<ellipse fill="none" stroke="#000000" cx="644" cy="-90" rx="44.0415" ry="18"/>
<text text-anchor="middle" x="644" y="-85.8" font-family="Times,serif" font-size="14.00" fill="#000000">No rows</text>
</g>
<!-- samples__siteID_siteID__sites_where&#45;&gt;samples__siteID_siteID__sites_where_No_Rows -->
<g id="edge14" class="edge">
<title>samples__siteID_siteID__sites_where&#45;&gt;samples__siteID_siteID__sites_where_No_Rows</title>
<path fill="none" stroke="#000000" d="M735.6016,-147.0224C716.6663,-135.2351 694.6868,-121.5527 677.0047,-110.5456"/>
<polygon fill="#000000" stroke="#000000" points="678.528,-107.3711 668.1888,-105.0576 674.8286,-113.3138 678.528,-107.3711"/>
</g>
<!-- granted -->
<g id="node14" class="node">
<title>granted</title>
<ellipse fill="none" stroke="#000000" cx="849" cy="-18" rx="71.7874" ry="18"/>
<text text-anchor="middle" x="849" y="-13.8" font-family="Times,serif" font-size="14.00" fill="#000000">Access Granted</text>
</g>
<!-- samples__siteID_siteID__sites_where_Has_Rows&#45;&gt;granted -->
<g id="edge13" class="edge">
<title>samples__siteID_siteID__sites_where_Has_Rows&#45;&gt;granted</title>
<path fill="none" stroke="#000000" d="M811.8615,-72.5708C817.6732,-64.0312 824.7914,-53.5719 831.2355,-44.1029"/>
<polygon fill="#000000" stroke="#000000" points="834.1745,-46.0052 836.9073,-35.7689 828.3875,-42.0668 834.1745,-46.0052"/>
</g>
<!-- denied -->
<g id="node16" class="node">
<title>denied</title>
<ellipse fill="none" stroke="#000000" cx="166" cy="-18" rx="68.8581" ry="18"/>
<text text-anchor="middle" x="166" y="-13.8" font-family="Times,serif" font-size="14.00" fill="#000000">Access Denied</text>
</g>
<!-- samples__siteID_siteID__sites_where_No_Rows&#45;&gt;denied -->
<g id="edge15" class="edge">
<title>samples__siteID_siteID__sites_where_No_Rows&#45;&gt;denied</title>
<path fill="none" stroke="#000000" d="M602.4168,-83.7364C520.3977,-71.3821 336.9933,-43.7563 236.0086,-28.5452"/>
<polygon fill="#000000" stroke="#000000" points="236.3129,-25.0517 225.9031,-27.0231 235.2703,-31.9736 236.3129,-25.0517"/>
</g>
<!-- samples__siteID_siteID__sites_join_No_Rows&#45;&gt;denied -->
<g id="edge17" class="edge">
<title>samples__siteID_siteID__sites_join_No_Rows&#45;&gt;denied</title>
<path fill="none" stroke="#000000" d="M598.2649,-158.7855C589.6481,-153.98 579.956,-148.6747 571,-144 506.5077,-110.3371 492.8029,-95.6349 424,-72 362.401,-50.8397 289.5487,-36.5169 236.996,-27.9694"/>
<polygon fill="#000000" stroke="#000000" points="237.5234,-24.5094 227.0965,-26.3885 236.4194,-31.4218 237.5234,-24.5094"/>
</g>
<!-- samples__dataID_dataID__datasets_join_Has_Rows -->
<g id="node19" class="node">
<title>samples__dataID_dataID__datasets_join_Has_Rows</title>
<ellipse fill="none" stroke="#000000" cx="317" cy="-256.8313" rx="47.4704" ry="18"/>
<text text-anchor="middle" x="317" y="-252.6313" font-family="Times,serif" font-size="14.00" fill="#000000">Has rows</text>
</g>
<!-- samples__dataID_dataID__datasets_join&#45;&gt;samples__dataID_dataID__datasets_join_Has_Rows -->
<g id="edge19" class="edge">
<title>samples__dataID_dataID__datasets_join&#45;&gt;samples__dataID_dataID__datasets_join_Has_Rows</title>
<path fill="none" stroke="#000000" d="M298.7566,-311.1596C301.7914,-302.1219 304.9361,-292.7571 307.7422,-284.4007"/>
<polygon fill="#000000" stroke="#000000" points="311.1015,-285.3915 310.9669,-274.7975 304.4656,-283.1632 311.1015,-285.3915"/>
</g>
<!-- samples__dataID_dataID__datasets_join_No_Rows -->
<g id="node23" class="node">
<title>samples__dataID_dataID__datasets_join_No_Rows</title>
<ellipse fill="none" stroke="#000000" cx="151" cy="-256.8313" rx="44.0415" ry="18"/>
<text text-anchor="middle" x="151" y="-252.6313" font-family="Times,serif" font-size="14.00" fill="#000000">No rows</text>
</g>
<!-- samples__dataID_dataID__datasets_join&#45;&gt;samples__dataID_dataID__datasets_join_No_Rows -->
<g id="edge25" class="edge">
<title>samples__dataID_dataID__datasets_join&#45;&gt;samples__dataID_dataID__datasets_join_No_Rows</title>
<path fill="none" stroke="#000000" d="M235.4841,-316.9127C217.3675,-304.029 197.4171,-289.8411 181.4545,-278.4892"/>
<polygon fill="#000000" stroke="#000000" points="183.2114,-275.4438 173.0335,-272.5006 179.1545,-281.1484 183.2114,-275.4438"/>
</g>
<!-- samples__dataID_dataID__datasets_where -->
<g id="node20" class="node">
<title>samples__dataID_dataID__datasets_where</title>
<ellipse fill="none" stroke="#000000" cx="333" cy="-173.4156" rx="228.5204" ry="29.3315"/>
<text text-anchor="middle" x="333" y="-177.6156" font-family="Times,serif" font-size="14.00" fill="#000000">WHERE IN</text>
<text text-anchor="middle" x="333" y="-160.8156" font-family="Times,serif" font-size="14.00" fill="#000000">datasets.dataID = [&quot;NML&#45;WWPCR&quot;,&quot;NML&#45;WWGX&quot;]</text>
</g>
<!-- samples__dataID_dataID__datasets_join_Has_Rows&#45;&gt;samples__dataID_dataID__datasets_where -->
<g id="edge20" class="edge">
<title>samples__dataID_dataID__datasets_join_Has_Rows&#45;&gt;samples__dataID_dataID__datasets_where</title>
<path fill="none" stroke="#000000" d="M320.4718,-238.7313C321.9275,-231.1418 323.6815,-221.9972 325.41,-212.986"/>
<polygon fill="#000000" stroke="#000000" points="328.8868,-213.4391 327.3333,-202.9588 322.0121,-212.1204 328.8868,-213.4391"/>
</g>
<!-- samples__dataID_dataID__datasets_where_Has_Rows -->
<g id="node21" class="node">
<title>samples__dataID_dataID__datasets_where_Has_Rows</title>
<ellipse fill="none" stroke="#000000" cx="368" cy="-90" rx="47.4704" ry="18"/>
<text text-anchor="middle" x="368" y="-85.8" font-family="Times,serif" font-size="14.00" fill="#000000">Has rows</text>
</g>
<!-- samples__dataID_dataID__datasets_where&#45;&gt;samples__dataID_dataID__datasets_where_Has_Rows -->
<g id="edge21" class="edge">
<title>samples__dataID_dataID__datasets_where&#45;&gt;samples__dataID_dataID__datasets_where_Has_Rows</title>
<path fill="none" stroke="#000000" d="M345.4382,-143.7715C349.0536,-135.1551 352.9842,-125.7872 356.5367,-117.3206"/>
<polygon fill="#000000" stroke="#000000" points="359.8499,-118.4701 360.4916,-107.8947 353.3951,-115.7617 359.8499,-118.4701"/>
</g>
<!-- samples__dataID_dataID__datasets_where_No_Rows -->
<g id="node22" class="node">
<title>samples__dataID_dataID__datasets_where_No_Rows</title>
<ellipse fill="none" stroke="#000000" cx="221" cy="-90" rx="44.0415" ry="18"/>
<text text-anchor="middle" x="221" y="-85.8" font-family="Times,serif" font-size="14.00" fill="#000000">No rows</text>
</g>
<!-- samples__dataID_dataID__datasets_where&#45;&gt;samples__dataID_dataID__datasets_where_No_Rows -->
<g id="edge23" class="edge">
<title>samples__dataID_dataID__datasets_where&#45;&gt;samples__dataID_dataID__datasets_where_No_Rows</title>
<path fill="none" stroke="#000000" d="M293.8278,-144.2409C279.6494,-133.681 263.8843,-121.9395 250.6581,-112.0888"/>
<polygon fill="#000000" stroke="#000000" points="252.4861,-109.0862 242.3754,-105.92 248.3048,-114.7003 252.4861,-109.0862"/>
</g>
<!-- samples__dataID_dataID__datasets_where_Has_Rows&#45;&gt;granted -->
<g id="edge22" class="edge">
<title>samples__dataID_dataID__datasets_where_Has_Rows&#45;&gt;granted</title>
<path fill="none" stroke="#000000" d="M412.3892,-83.3555C495.6952,-70.8855 676.137,-43.8755 777.027,-28.7735"/>
<polygon fill="#000000" stroke="#000000" points="777.7614,-32.2027 787.133,-27.2608 776.7251,-25.2798 777.7614,-32.2027"/>
</g>
<!-- samples__dataID_dataID__datasets_where_No_Rows&#45;&gt;denied -->
<g id="edge24" class="edge">
<title>samples__dataID_dataID__datasets_where_No_Rows&#45;&gt;denied</title>
<path fill="none" stroke="#000000" d="M207.686,-72.5708C201.0962,-63.9441 193.0097,-53.3582 185.7185,-43.8134"/>
<polygon fill="#000000" stroke="#000000" points="188.4252,-41.591 179.5734,-35.7689 182.8625,-45.8403 188.4252,-41.591"/>
</g>
<!-- samples__dataID_dataID__datasets_join_No_Rows&#45;&gt;denied -->
<g id="edge26" class="edge">
<title>samples__dataID_dataID__datasets_join_No_Rows&#45;&gt;denied</title>
<path fill="none" stroke="#000000" d="M127.4922,-241.3152C115.3249,-231.8198 101.655,-218.4936 95,-202.8313 84.7747,-178.7663 88.3647,-169.2913 95,-144 104.8175,-106.5791 128.5367,-68.5602 145.8673,-44.2187"/>
<polygon fill="#000000" stroke="#000000" points="148.8701,-46.0407 151.9256,-35.8961 143.2107,-41.9211 148.8701,-46.0407"/>
</g>
<!-- sites__siteID_siteID__samples_join_No_Rows&#45;&gt;denied -->
<g id="edge28" class="edge">
<title>sites__siteID_siteID__samples_join_No_Rows&#45;&gt;denied</title>
<path fill="none" stroke="#000000" d="M110.1826,-430.2096C85.8724,-398.1337 38,-326.1665 38,-256.8313 38,-256.8313 38,-256.8313 38,-173.4156 38,-115.0832 92.3917,-66.7596 130.2624,-40.1834"/>
<polygon fill="#000000" stroke="#000000" points="132.2553,-43.0607 138.5408,-34.5317 128.3085,-37.2795 132.2553,-43.0607"/>
</g>
<!-- addresses__addID_addID__sites_where_No_Rows&#45;&gt;denied -->
<g id="edge30" class="edge">
<title>addresses__addID_addID__sites_where_No_Rows&#45;&gt;denied</title>
<path fill="none" stroke="#000000" d="M53.7173,-524.9886C35.626,-492.0738 0,-418.7935 0,-352.1263 0,-352.1263 0,-352.1263 0,-173.4156 0,-121.2693 21.0461,-107.7594 59,-72 75.0085,-56.9171 96.0394,-45.0833 115.2159,-36.387"/>
<polygon fill="#000000" stroke="#000000" points="116.6771,-39.5683 124.4507,-32.3695 113.8846,-33.1494 116.6771,-39.5683"/>
</g>
<!-- addresses__addID_addID__sites_join_No_Rows&#45;&gt;granted -->
<g id="edge32" class="edge">
<title>addresses__addID_addID__sites_join_No_Rows&#45;&gt;granted</title>
<path fill="none" stroke="#000000" d="M855.6515,-703.6421C870.202,-672.0438 898,-603.6969 898,-542.7164 898,-542.7164 898,-542.7164 898,-173.4156 898,-126.6987 877.6126,-75.5861 863.1389,-45.1861"/>
<polygon fill="#000000" stroke="#000000" points="866.22,-43.5194 858.6808,-36.0755 859.9324,-46.5962 866.22,-43.5194"/>
</g>
<!-- organizations__addID_addID__addresses_join_No_Rows&#45;&gt;granted -->
<g id="edge34" class="edge">
<title>organizations__addID_addID__addresses_join_No_Rows&#45;&gt;granted</title>
<path fill="none" stroke="#000000" d="M936,-882.1277C936,-849.8967 936,-780.2216 936,-721.4271 936,-721.4271 936,-721.4271 936,-173.4156 936,-122.257 899.6631,-72.3112 873.9562,-43.3778"/>
<polygon fill="#000000" stroke="#000000" points="876.3548,-40.8141 867.0265,-35.7908 871.1862,-45.5349 876.3548,-40.8141"/>
</g>
</g>
</svg>
