<?xml version="1.0" encoding="UTF-8" standalone="no"?>
<!DOCTYPE svg PUBLIC "-//W3C//DTD SVG 1.1//EN"
 "http://www.w3.org/Graphics/SVG/1.1/DTD/svg11.dtd">
<!-- Generated by graphviz version 2.40.1 (20161225.0304)
 -->
<!-- Title: G Pages: 1 -->
<svg width="1280pt" height="1021pt"
 viewBox="0.00 0.00 1280.43 1021.43" xmlns="http://www.w3.org/2000/svg" xmlns:xlink="http://www.w3.org/1999/xlink">
<g id="graph0" class="graph" transform="scale(1 1) rotate(0) translate(4 1017.4328)">
<title>G</title>
<polygon fill="#ffffff" stroke="transparent" points="-4,4 -4,-1017.4328 1276.4283,-1017.4328 1276.4283,4 -4,4"/>
<!-- polygons -->
<g id="node1" class="node">
<title>polygons</title>
<ellipse fill="none" stroke="#000000" cx="1088.4075" cy="-995.4328" rx="46.3932" ry="18"/>
<text text-anchor="middle" x="1088.4075" y="-991.2328" font-family="Times,serif" font-size="14.00" fill="#000000">polygons</text>
</g>
<!-- polygons__polygonID_polygonID__sites_join -->
<g id="node2" class="node">
<title>polygons__polygonID_polygonID__sites_join</title>
<ellipse fill="none" stroke="#000000" cx="1088.4075" cy="-900.1377" rx="78.8882" ry="41.0911"/>
<text text-anchor="middle" x="1088.4075" y="-912.7377" font-family="Times,serif" font-size="14.00" fill="#000000">LEFT JOIN sites</text>
<text text-anchor="middle" x="1088.4075" y="-895.9377" font-family="Times,serif" font-size="14.00" fill="#000000">At level: 3</text>
<text text-anchor="middle" x="1088.4075" y="-879.1377" font-family="Times,serif" font-size="14.00" fill="#000000">Required: true</text>
</g>
<!-- polygons&#45;&gt;polygons__polygonID_polygonID__sites_join -->
<g id="edge1" class="edge">
<title>polygons&#45;&gt;polygons__polygonID_polygonID__sites_join</title>
<path fill="none" stroke="#000000" d="M1088.4075,-977.0589C1088.4075,-969.7498 1088.4075,-960.9402 1088.4075,-951.9314"/>
<polygon fill="#000000" stroke="#000000" points="1091.9076,-951.7449 1088.4075,-941.7449 1084.9076,-951.745 1091.9076,-951.7449"/>
</g>
<!-- polygons__polygonID_polygonID__sites_join_Has_Rows -->
<g id="node3" class="node">
<title>polygons__polygonID_polygonID__sites_join_Has_Rows</title>
<ellipse fill="none" stroke="#000000" cx="1051.4075" cy="-804.8427" rx="47.4704" ry="18"/>
<text text-anchor="middle" x="1051.4075" y="-800.6427" font-family="Times,serif" font-size="14.00" fill="#000000">Has rows</text>
</g>
<!-- polygons__polygonID_polygonID__sites_join&#45;&gt;polygons__polygonID_polygonID__sites_join_Has_Rows -->
<g id="edge2" class="edge">
<title>polygons__polygonID_polygonID__sites_join&#45;&gt;polygons__polygonID_polygonID__sites_join_Has_Rows</title>
<path fill="none" stroke="#000000" d="M1072.6088,-859.4477C1069.0512,-850.285 1065.3575,-840.7715 1062.0691,-832.302"/>
<polygon fill="#000000" stroke="#000000" points="1065.3096,-830.978 1058.4274,-822.9228 1058.7842,-833.5117 1065.3096,-830.978"/>
</g>
<!-- polygons__polygonID_polygonID__sites_join_No_Rows -->
<g id="node24" class="node">
<title>polygons__polygonID_polygonID__sites_join_No_Rows</title>
<ellipse fill="none" stroke="#000000" cx="1228.4075" cy="-721.4271" rx="44.0415" ry="18"/>
<text text-anchor="middle" x="1228.4075" y="-717.2271" font-family="Times,serif" font-size="14.00" fill="#000000">No rows</text>
</g>
<!-- polygons__polygonID_polygonID__sites_join&#45;&gt;polygons__polygonID_polygonID__sites_join_No_Rows -->
<g id="edge29" class="edge">
<title>polygons__polygonID_polygonID__sites_join&#45;&gt;polygons__polygonID_polygonID__sites_join_No_Rows</title>
<path fill="none" stroke="#000000" d="M1118.441,-861.7998C1145.7608,-826.926 1185.295,-776.4604 1208.7702,-746.4942"/>
<polygon fill="#000000" stroke="#000000" points="1211.5303,-748.6463 1214.942,-738.6158 1206.0198,-744.3295 1211.5303,-748.6463"/>
</g>
<!-- polygons__polygonID_polygonID__sites_where -->
<g id="node4" class="node">
<title>polygons__polygonID_polygonID__sites_where</title>
<ellipse fill="none" stroke="#000000" cx="950.4075" cy="-721.4271" rx="216.315" ry="29.3315"/>
<text text-anchor="middle" x="950.4075" y="-725.6271" font-family="Times,serif" font-size="14.00" fill="#000000">WHERE IN</text>
<text text-anchor="middle" x="950.4075" y="-708.8271" font-family="Times,serif" font-size="14.00" fill="#000000">sites.healthReg = [&quot;Whitehorse&quot;,&quot;Haines Junction&quot;]</text>
</g>
<!-- polygons__polygonID_polygonID__sites_join_Has_Rows&#45;&gt;polygons__polygonID_polygonID__sites_where -->
<g id="edge3" class="edge">
<title>polygons__polygonID_polygonID__sites_join_Has_Rows&#45;&gt;polygons__polygonID_polygonID__sites_where</title>
<path fill="none" stroke="#000000" d="M1031.4531,-788.3625C1020.6937,-779.4762 1006.971,-768.1427 993.8891,-757.3384"/>
<polygon fill="#000000" stroke="#000000" points="995.7979,-754.3755 985.8588,-750.7062 991.3403,-759.7728 995.7979,-754.3755"/>
</g>
<!-- polygons__polygonID_polygonID__sites_where_Has_Rows -->
<g id="node5" class="node">
<title>polygons__polygonID_polygonID__sites_where_Has_Rows</title>
<ellipse fill="none" stroke="#000000" cx="950.4075" cy="-638.0114" rx="47.4704" ry="18"/>
<text text-anchor="middle" x="950.4075" y="-633.8114" font-family="Times,serif" font-size="14.00" fill="#000000">Has rows</text>
</g>
<!-- polygons__polygonID_polygonID__sites_where&#45;&gt;polygons__polygonID_polygonID__sites_where_Has_Rows -->
<g id="edge4" class="edge">
<title>polygons__polygonID_polygonID__sites_where&#45;&gt;polygons__polygonID_polygonID__sites_where_Has_Rows</title>
<path fill="none" stroke="#000000" d="M950.4075,-691.783C950.4075,-683.5778 950.4075,-674.691 950.4075,-666.5502"/>
<polygon fill="#000000" stroke="#000000" points="953.9076,-666.398 950.4075,-656.398 946.9076,-666.398 953.9076,-666.398"/>
</g>
<!-- polygons__polygonID_polygonID__sites_where_No_Rows -->
<g id="node23" class="node">
<title>polygons__polygonID_polygonID__sites_where_No_Rows</title>
<ellipse fill="none" stroke="#000000" cx="1111.4075" cy="-542.7164" rx="44.0415" ry="18"/>
<text text-anchor="middle" x="1111.4075" y="-538.5164" font-family="Times,serif" font-size="14.00" fill="#000000">No rows</text>
</g>
<!-- polygons__polygonID_polygonID__sites_where&#45;&gt;polygons__polygonID_polygonID__sites_where_No_Rows -->
<g id="edge27" class="edge">
<title>polygons__polygonID_polygonID__sites_where&#45;&gt;polygons__polygonID_polygonID__sites_where_No_Rows</title>
<path fill="none" stroke="#000000" d="M976.9934,-691.9166C1008.281,-657.1872 1059.6784,-600.1359 1089.0203,-567.5663"/>
<polygon fill="#000000" stroke="#000000" points="1091.8863,-569.6141 1095.9793,-559.8418 1086.6855,-564.9288 1091.8863,-569.6141"/>
</g>
<!-- sites__siteID_siteID__samples_join -->
<g id="node6" class="node">
<title>sites__siteID_siteID__samples_join</title>
<ellipse fill="none" stroke="#000000" cx="950.4075" cy="-542.7164" rx="93.4765" ry="41.0911"/>
<text text-anchor="middle" x="950.4075" y="-555.3164" font-family="Times,serif" font-size="14.00" fill="#000000">LEFT JOIN samples</text>
<text text-anchor="middle" x="950.4075" y="-538.5164" font-family="Times,serif" font-size="14.00" fill="#000000">At level: 2</text>
<text text-anchor="middle" x="950.4075" y="-521.7164" font-family="Times,serif" font-size="14.00" fill="#000000">Required: true</text>
</g>
<!-- polygons__polygonID_polygonID__sites_where_Has_Rows&#45;&gt;sites__siteID_siteID__samples_join -->
<g id="edge5" class="edge">
<title>polygons__polygonID_polygonID__sites_where_Has_Rows&#45;&gt;sites__siteID_siteID__samples_join</title>
<path fill="none" stroke="#000000" d="M950.4075,-619.6376C950.4075,-612.3285 950.4075,-603.5189 950.4075,-594.5101"/>
<polygon fill="#000000" stroke="#000000" points="953.9076,-594.3235 950.4075,-584.3236 946.9076,-594.3236 953.9076,-594.3235"/>
</g>
<!-- sites__siteID_siteID__samples_join_Has_Rows -->
<g id="node7" class="node">
<title>sites__siteID_siteID__samples_join_Has_Rows</title>
<ellipse fill="none" stroke="#000000" cx="937.4075" cy="-447.4214" rx="47.4704" ry="18"/>
<text text-anchor="middle" x="937.4075" y="-443.2214" font-family="Times,serif" font-size="14.00" fill="#000000">Has rows</text>
</g>
<!-- sites__siteID_siteID__samples_join&#45;&gt;sites__siteID_siteID__samples_join_Has_Rows -->
<g id="edge6" class="edge">
<title>sites__siteID_siteID__samples_join&#45;&gt;sites__siteID_siteID__samples_join_Has_Rows</title>
<path fill="none" stroke="#000000" d="M944.7811,-501.4728C943.5978,-492.7989 942.3752,-483.8366 941.2739,-475.764"/>
<polygon fill="#000000" stroke="#000000" points="944.7293,-475.1986 939.9097,-465.7635 937.7936,-476.1448 944.7293,-475.1986"/>
</g>
<!-- sites__siteID_siteID__samples_join_No_Rows -->
<g id="node22" class="node">
<title>sites__siteID_siteID__samples_join_No_Rows</title>
<ellipse fill="none" stroke="#000000" cx="1046.4075" cy="-447.4214" rx="44.0415" ry="18"/>
<text text-anchor="middle" x="1046.4075" y="-443.2214" font-family="Times,serif" font-size="14.00" fill="#000000">No rows</text>
</g>
<!-- sites__siteID_siteID__samples_join&#45;&gt;sites__siteID_siteID__samples_join_No_Rows -->
<g id="edge25" class="edge">
<title>sites__siteID_siteID__samples_join&#45;&gt;sites__siteID_siteID__samples_join_No_Rows</title>
<path fill="none" stroke="#000000" d="M988.6251,-504.7795C999.9584,-493.5293 1012.0516,-481.5249 1022.2302,-471.4211"/>
<polygon fill="#000000" stroke="#000000" points="1024.965,-473.638 1029.5963,-464.1091 1020.0335,-468.6701 1024.965,-473.638"/>
</g>
<!-- samples__siteID_siteID__sites_join -->
<g id="node8" class="node">
<title>samples__siteID_siteID__sites_join</title>
<ellipse fill="none" stroke="#000000" cx="758.4075" cy="-352.1263" rx="78.8882" ry="41.0911"/>
<text text-anchor="middle" x="758.4075" y="-364.7263" font-family="Times,serif" font-size="14.00" fill="#000000">LEFT JOIN sites</text>
<text text-anchor="middle" x="758.4075" y="-347.9263" font-family="Times,serif" font-size="14.00" fill="#000000">At level: 1</text>
<text text-anchor="middle" x="758.4075" y="-331.1263" font-family="Times,serif" font-size="14.00" fill="#000000">Required: true</text>
</g>
<!-- sites__siteID_siteID__samples_join_Has_Rows&#45;&gt;samples__siteID_siteID__sites_join -->
<g id="edge7" class="edge">
<title>sites__siteID_siteID__samples_join_Has_Rows&#45;&gt;samples__siteID_siteID__sites_join</title>
<path fill="none" stroke="#000000" d="M909.831,-432.7403C886.7237,-420.4386 852.8148,-402.3864 822.9401,-386.4818"/>
<polygon fill="#000000" stroke="#000000" points="824.2864,-383.2335 813.8145,-381.6236 820.9968,-389.4124 824.2864,-383.2335"/>
</g>
<!-- samples__dataID_dataID__datasets_join -->
<g id="node16" class="node">
<title>samples__dataID_dataID__datasets_join</title>
<ellipse fill="none" stroke="#000000" cx="948.4075" cy="-352.1263" rx="92.8656" ry="41.0911"/>
<text text-anchor="middle" x="948.4075" y="-364.7263" font-family="Times,serif" font-size="14.00" fill="#000000">LEFT JOIN datasets</text>
<text text-anchor="middle" x="948.4075" y="-347.9263" font-family="Times,serif" font-size="14.00" fill="#000000">At level: 1</text>
<text text-anchor="middle" x="948.4075" y="-331.1263" font-family="Times,serif" font-size="14.00" fill="#000000">Required: true</text>
</g>
<!-- sites__siteID_siteID__samples_join_Has_Rows&#45;&gt;samples__dataID_dataID__datasets_join -->
<g id="edge16" class="edge">
<title>sites__siteID_siteID__samples_join_Has_Rows&#45;&gt;samples__dataID_dataID__datasets_join</title>
<path fill="none" stroke="#000000" d="M939.5284,-429.0475C940.3721,-421.7384 941.389,-412.9288 942.4289,-403.92"/>
<polygon fill="#000000" stroke="#000000" points="945.9349,-404.0689 943.6047,-393.7335 938.981,-403.2662 945.9349,-404.0689"/>
</g>
<!-- samples__siteID_siteID__sites_join_Has_Rows -->
<g id="node9" class="node">
<title>samples__siteID_siteID__sites_join_Has_Rows</title>
<ellipse fill="none" stroke="#000000" cx="423.4075" cy="-256.8313" rx="47.4704" ry="18"/>
<text text-anchor="middle" x="423.4075" y="-252.6313" font-family="Times,serif" font-size="14.00" fill="#000000">Has rows</text>
</g>
<!-- samples__siteID_siteID__sites_join&#45;&gt;samples__siteID_siteID__sites_join_Has_Rows -->
<g id="edge8" class="edge">
<title>samples__siteID_siteID__sites_join&#45;&gt;samples__siteID_siteID__sites_join_Has_Rows</title>
<path fill="none" stroke="#000000" d="M688.9953,-332.3811C623.91,-313.8668 528.3171,-286.6742 471.3233,-270.4616"/>
<polygon fill="#000000" stroke="#000000" points="472.0658,-267.034 461.4897,-267.6643 470.1505,-273.7669 472.0658,-267.034"/>
</g>
<!-- samples__siteID_siteID__sites_join_No_Rows -->
<g id="node15" class="node">
<title>samples__siteID_siteID__sites_join_No_Rows</title>
<ellipse fill="none" stroke="#000000" cx="970.4075" cy="-173.4156" rx="44.0415" ry="18"/>
<text text-anchor="middle" x="970.4075" y="-169.2156" font-family="Times,serif" font-size="14.00" fill="#000000">No rows</text>
</g>
<!-- samples__siteID_siteID__sites_join&#45;&gt;samples__siteID_siteID__sites_join_No_Rows -->
<g id="edge14" class="edge">
<title>samples__siteID_siteID__sites_join&#45;&gt;samples__siteID_siteID__sites_join_No_Rows</title>
<path fill="none" stroke="#000000" d="M800.0389,-317.0321C842.5276,-281.2152 907.2227,-226.6788 943.4372,-196.1509"/>
<polygon fill="#000000" stroke="#000000" points="945.7533,-198.7762 951.1433,-189.6549 941.2416,-193.4241 945.7533,-198.7762"/>
</g>
<!-- samples__siteID_siteID__sites_where -->
<g id="node10" class="node">
<title>samples__siteID_siteID__sites_where</title>
<ellipse fill="none" stroke="#000000" cx="216.4075" cy="-173.4156" rx="216.315" ry="29.3315"/>
<text text-anchor="middle" x="216.4075" y="-177.6156" font-family="Times,serif" font-size="14.00" fill="#000000">WHERE IN</text>
<text text-anchor="middle" x="216.4075" y="-160.8156" font-family="Times,serif" font-size="14.00" fill="#000000">sites.healthReg = [&quot;Whitehorse&quot;,&quot;Haines Junction&quot;]</text>
</g>
<!-- samples__siteID_siteID__sites_join_Has_Rows&#45;&gt;samples__siteID_siteID__sites_where -->
<g id="edge9" class="edge">
<title>samples__siteID_siteID__sites_join_Has_Rows&#45;&gt;samples__siteID_siteID__sites_where</title>
<path fill="none" stroke="#000000" d="M390.6077,-243.6138C365.0831,-233.3281 328.5696,-218.6141 295.5593,-205.3118"/>
<polygon fill="#000000" stroke="#000000" points="296.4835,-201.9108 285.9001,-201.4194 293.8671,-208.4034 296.4835,-201.9108"/>
</g>
<!-- samples__siteID_siteID__sites_where_Has_Rows -->
<g id="node11" class="node">
<title>samples__siteID_siteID__sites_where_Has_Rows</title>
<ellipse fill="none" stroke="#000000" cx="304.4075" cy="-90" rx="47.4704" ry="18"/>
<text text-anchor="middle" x="304.4075" y="-85.8" font-family="Times,serif" font-size="14.00" fill="#000000">Has rows</text>
</g>
<!-- samples__siteID_siteID__sites_where&#45;&gt;samples__siteID_siteID__sites_where_Has_Rows -->
<g id="edge10" class="edge">
<title>samples__siteID_siteID__sites_where&#45;&gt;samples__siteID_siteID__sites_where_Has_Rows</title>
<path fill="none" stroke="#000000" d="M247.1856,-144.2409C257.6916,-134.2822 269.3063,-123.2726 279.3109,-113.7892"/>
<polygon fill="#000000" stroke="#000000" points="281.7529,-116.297 286.6027,-106.8773 276.9372,-111.2166 281.7529,-116.297"/>
</g>
<!-- samples__siteID_siteID__sites_where_No_Rows -->
<g id="node13" class="node">
<title>samples__siteID_siteID__sites_where_No_Rows</title>
<ellipse fill="none" stroke="#000000" cx="806.4075" cy="-90" rx="44.0415" ry="18"/>
<text text-anchor="middle" x="806.4075" y="-85.8" font-family="Times,serif" font-size="14.00" fill="#000000">No rows</text>
</g>
<!-- samples__siteID_siteID__sites_where&#45;&gt;samples__siteID_siteID__sites_where_No_Rows -->
<g id="edge12" class="edge">
<title>samples__siteID_siteID__sites_where&#45;&gt;samples__siteID_siteID__sites_where_No_Rows</title>
<path fill="none" stroke="#000000" d="M366.4339,-152.2045C493.7238,-134.208 668.9398,-109.4355 754.7807,-97.2991"/>
<polygon fill="#000000" stroke="#000000" points="755.3853,-100.7485 764.7969,-95.883 754.4053,-93.8175 755.3853,-100.7485"/>
</g>
<!-- granted -->
<g id="node12" class="node">
<title>granted</title>
<ellipse fill="none" stroke="#000000" cx="448.4075" cy="-18" rx="71.7874" ry="18"/>
<text text-anchor="middle" x="448.4075" y="-13.8" font-family="Times,serif" font-size="14.00" fill="#000000">Access Granted</text>
</g>
<!-- samples__siteID_siteID__sites_where_Has_Rows&#45;&gt;granted -->
<g id="edge11" class="edge">
<title>samples__siteID_siteID__sites_where_Has_Rows&#45;&gt;granted</title>
<path fill="none" stroke="#000000" d="M333.2019,-75.6028C354.3596,-65.024 383.4159,-50.4958 407.0541,-38.6767"/>
<polygon fill="#000000" stroke="#000000" points="408.7709,-41.7315 416.1499,-34.1288 405.6404,-35.4705 408.7709,-41.7315"/>
</g>
<!-- denied -->
<g id="node14" class="node">
<title>denied</title>
<ellipse fill="none" stroke="#000000" cx="1042.4075" cy="-18" rx="68.8581" ry="18"/>
<text text-anchor="middle" x="1042.4075" y="-13.8" font-family="Times,serif" font-size="14.00" fill="#000000">Access Denied</text>
</g>
<!-- samples__siteID_siteID__sites_where_No_Rows&#45;&gt;denied -->
<g id="edge13" class="edge">
<title>samples__siteID_siteID__sites_where_No_Rows&#45;&gt;denied</title>
<path fill="none" stroke="#000000" d="M840.6896,-78.626C847.5415,-76.3963 854.6952,-74.0992 861.4075,-72 903.1748,-58.9374 950.5831,-44.8191 986.4005,-34.2956"/>
<polygon fill="#000000" stroke="#000000" points="987.5707,-37.5999 996.1812,-31.4267 985.6003,-30.8829 987.5707,-37.5999"/>
</g>
<!-- samples__siteID_siteID__sites_join_No_Rows&#45;&gt;denied -->
<g id="edge15" class="edge">
<title>samples__siteID_siteID__sites_join_No_Rows&#45;&gt;denied</title>
<path fill="none" stroke="#000000" d="M978.6668,-155.5875C991.1864,-128.5634 1015.0632,-77.0239 1029.7742,-45.2695"/>
<polygon fill="#000000" stroke="#000000" points="1032.9949,-46.6438 1034.0227,-36.0989 1026.6433,-43.7013 1032.9949,-46.6438"/>
</g>
<!-- samples__dataID_dataID__datasets_join_Has_Rows -->
<g id="node17" class="node">
<title>samples__dataID_dataID__datasets_join_Has_Rows</title>
<ellipse fill="none" stroke="#000000" cx="710.4075" cy="-256.8313" rx="47.4704" ry="18"/>
<text text-anchor="middle" x="710.4075" y="-252.6313" font-family="Times,serif" font-size="14.00" fill="#000000">Has rows</text>
</g>
<!-- samples__dataID_dataID__datasets_join&#45;&gt;samples__dataID_dataID__datasets_join_Has_Rows -->
<g id="edge17" class="edge">
<title>samples__dataID_dataID__datasets_join&#45;&gt;samples__dataID_dataID__datasets_join_Has_Rows</title>
<path fill="none" stroke="#000000" d="M879.8497,-324.297C868.6774,-319.783 857.2242,-315.1683 846.4075,-310.8313 815.1167,-298.2852 779.722,-284.2359 752.8862,-273.6131"/>
<polygon fill="#000000" stroke="#000000" points="753.9964,-270.2884 743.41,-269.8636 751.4208,-276.7974 753.9964,-270.2884"/>
</g>
<!-- samples__dataID_dataID__datasets_join_No_Rows -->
<g id="node21" class="node">
<title>samples__dataID_dataID__datasets_join_No_Rows</title>
<ellipse fill="none" stroke="#000000" cx="978.4075" cy="-256.8313" rx="44.0415" ry="18"/>
<text text-anchor="middle" x="978.4075" y="-252.6313" font-family="Times,serif" font-size="14.00" fill="#000000">No rows</text>
</g>
<!-- samples__dataID_dataID__datasets_join&#45;&gt;samples__dataID_dataID__datasets_join_No_Rows -->
<g id="edge23" class="edge">
<title>samples__dataID_dataID__datasets_join&#45;&gt;samples__dataID_dataID__datasets_join_No_Rows</title>
<path fill="none" stroke="#000000" d="M961.3043,-311.1596C964.1495,-302.1219 967.0976,-292.7571 969.7283,-284.4007"/>
<polygon fill="#000000" stroke="#000000" points="973.0871,-285.3871 972.7515,-274.7975 966.4101,-283.285 973.0871,-285.3871"/>
</g>
<!-- samples__dataID_dataID__datasets_where -->
<g id="node18" class="node">
<title>samples__dataID_dataID__datasets_where</title>
<ellipse fill="none" stroke="#000000" cx="679.4075" cy="-173.4156" rx="228.5204" ry="29.3315"/>
<text text-anchor="middle" x="679.4075" y="-177.6156" font-family="Times,serif" font-size="14.00" fill="#000000">WHERE IN</text>
<text text-anchor="middle" x="679.4075" y="-160.8156" font-family="Times,serif" font-size="14.00" fill="#000000">datasets.dataID = [&quot;NML&#45;WWPCR&quot;,&quot;NML&#45;WWGX&quot;]</text>
</g>
<!-- samples__dataID_dataID__datasets_join_Has_Rows&#45;&gt;samples__dataID_dataID__datasets_where -->
<g id="edge18" class="edge">
<title>samples__dataID_dataID__datasets_join_Has_Rows&#45;&gt;samples__dataID_dataID__datasets_where</title>
<path fill="none" stroke="#000000" d="M703.6809,-238.7313C700.7998,-230.9786 697.3156,-221.6032 693.8972,-212.4049"/>
<polygon fill="#000000" stroke="#000000" points="697.1511,-211.1132 690.3867,-202.9588 690.5895,-213.5517 697.1511,-211.1132"/>
</g>
<!-- samples__dataID_dataID__datasets_where_Has_Rows -->
<g id="node19" class="node">
<title>samples__dataID_dataID__datasets_where_Has_Rows</title>
<ellipse fill="none" stroke="#000000" cx="591.4075" cy="-90" rx="47.4704" ry="18"/>
<text text-anchor="middle" x="591.4075" y="-85.8" font-family="Times,serif" font-size="14.00" fill="#000000">Has rows</text>
</g>
<!-- samples__dataID_dataID__datasets_where&#45;&gt;samples__dataID_dataID__datasets_where_Has_Rows -->
<g id="edge19" class="edge">
<title>samples__dataID_dataID__datasets_where&#45;&gt;samples__dataID_dataID__datasets_where_Has_Rows</title>
<path fill="none" stroke="#000000" d="M648.6294,-144.2409C638.1234,-134.2822 626.5087,-123.2726 616.5041,-113.7892"/>
<polygon fill="#000000" stroke="#000000" points="618.8777,-111.2166 609.2123,-106.8773 614.0621,-116.297 618.8777,-111.2166"/>
</g>
<!-- samples__dataID_dataID__datasets_where_No_Rows -->
<g id="node20" class="node">
<title>samples__dataID_dataID__datasets_where_No_Rows</title>
<ellipse fill="none" stroke="#000000" cx="914.4075" cy="-90" rx="44.0415" ry="18"/>
<text text-anchor="middle" x="914.4075" y="-85.8" font-family="Times,serif" font-size="14.00" fill="#000000">No rows</text>
</g>
<!-- samples__dataID_dataID__datasets_where&#45;&gt;samples__dataID_dataID__datasets_where_No_Rows -->
<g id="edge21" class="edge">
<title>samples__dataID_dataID__datasets_where&#45;&gt;samples__dataID_dataID__datasets_where_No_Rows</title>
<path fill="none" stroke="#000000" d="M757.3327,-145.7553C795.352,-132.26 839.6302,-116.543 871.466,-105.2425"/>
<polygon fill="#000000" stroke="#000000" points="872.6728,-108.5282 880.9259,-101.8846 870.3312,-101.9314 872.6728,-108.5282"/>
</g>
<!-- samples__dataID_dataID__datasets_where_Has_Rows&#45;&gt;granted -->
<g id="edge20" class="edge">
<title>samples__dataID_dataID__datasets_where_Has_Rows&#45;&gt;granted</title>
<path fill="none" stroke="#000000" d="M562.813,-75.6028C541.8023,-65.024 512.9477,-50.4958 489.4737,-38.6767"/>
<polygon fill="#000000" stroke="#000000" points="490.9468,-35.4998 480.441,-34.1288 487.7988,-41.7521 490.9468,-35.4998"/>
</g>
<!-- samples__dataID_dataID__datasets_where_No_Rows&#45;&gt;denied -->
<g id="edge22" class="edge">
<title>samples__dataID_dataID__datasets_where_No_Rows&#45;&gt;denied</title>
<path fill="none" stroke="#000000" d="M940.3102,-75.4297C958.6368,-65.121 983.5163,-51.1263 1004.1269,-39.5328"/>
<polygon fill="#000000" stroke="#000000" points="1005.9615,-42.5166 1012.9614,-34.5634 1002.5297,-36.4156 1005.9615,-42.5166"/>
</g>
<!-- samples__dataID_dataID__datasets_join_No_Rows&#45;&gt;denied -->
<g id="edge24" class="edge">
<title>samples__dataID_dataID__datasets_join_No_Rows&#45;&gt;denied</title>
<path fill="none" stroke="#000000" d="M996.8179,-240.1616C1006.4452,-230.3052 1017.4396,-217.0024 1023.4075,-202.8313 1045.2859,-150.8796 1046.1485,-83.729 1044.4922,-46.3373"/>
<polygon fill="#000000" stroke="#000000" points="1047.9779,-45.975 1043.9459,-36.1774 1040.988,-46.3509 1047.9779,-45.975"/>
</g>
<!-- sites__siteID_siteID__samples_join_No_Rows&#45;&gt;denied -->
<g id="edge26" class="edge">
<title>sites__siteID_siteID__samples_join_No_Rows&#45;&gt;denied</title>
<path fill="none" stroke="#000000" d="M1051.7949,-429.4795C1061.382,-395.9145 1080.4075,-321.1962 1080.4075,-256.8313 1080.4075,-256.8313 1080.4075,-256.8313 1080.4075,-173.4156 1080.4075,-127.7468 1064.7334,-76.6338 1053.5184,-45.9068"/>
<polygon fill="#000000" stroke="#000000" points="1056.7055,-44.4379 1049.9151,-36.3052 1050.1518,-46.8974 1056.7055,-44.4379"/>
</g>
<!-- polygons__polygonID_polygonID__sites_where_No_Rows&#45;&gt;denied -->
<g id="edge28" class="edge">
<title>polygons__polygonID_polygonID__sites_where_No_Rows&#45;&gt;denied</title>
<path fill="none" stroke="#000000" d="M1112.5167,-524.5922C1114.4905,-490.7269 1118.4075,-415.5336 1118.4075,-352.1263 1118.4075,-352.1263 1118.4075,-352.1263 1118.4075,-173.4156 1118.4075,-123.6627 1086.5869,-73.2252 1064.1256,-43.8201"/>
<polygon fill="#000000" stroke="#000000" points="1066.7158,-41.4515 1057.7872,-35.7479 1061.2102,-45.7746 1066.7158,-41.4515"/>
</g>
<!-- polygons__polygonID_polygonID__sites_join_No_Rows&#45;&gt;denied -->
<g id="edge30" class="edge">
<title>polygons__polygonID_polygonID__sites_join_No_Rows&#45;&gt;denied</title>
<path fill="none" stroke="#000000" d="M1224.5058,-703.2604C1217.9438,-671.0715 1205.4075,-601.8395 1205.4075,-542.7164 1205.4075,-542.7164 1205.4075,-542.7164 1205.4075,-173.4156 1205.4075,-108.2147 1136.2475,-62.0128 1088.0263,-37.7232"/>
<polygon fill="#000000" stroke="#000000" points="1089.5086,-34.552 1078.9879,-33.3007 1086.432,-40.8397 1089.5086,-34.552"/>
</g>
</g>
</svg>
