<?xml version="1.0" encoding="UTF-8" standalone="no"?>
<!DOCTYPE svg PUBLIC "-//W3C//DTD SVG 1.1//EN"
 "http://www.w3.org/Graphics/SVG/1.1/DTD/svg11.dtd">
<!-- Generated by graphviz version 2.40.1 (20161225.0304)
 -->
<!-- Title: G Pages: 1 -->
<svg width="1180pt" height="1021pt"
 viewBox="0.00 0.00 1179.62 1021.43" xmlns="http://www.w3.org/2000/svg" xmlns:xlink="http://www.w3.org/1999/xlink">
<g id="graph0" class="graph" transform="scale(1 1) rotate(0) translate(4 1017.4328)">
<title>G</title>
<polygon fill="#ffffff" stroke="transparent" points="-4,4 -4,-1017.4328 1175.6215,-1017.4328 1175.6215,4 -4,4"/>
<!-- polygons -->
<g id="node1" class="node">
<title>polygons</title>
<ellipse fill="none" stroke="#000000" cx="1004.6007" cy="-995.4328" rx="46.3932" ry="18"/>
<text text-anchor="middle" x="1004.6007" y="-991.2328" font-family="Times,serif" font-size="14.00" fill="#000000">polygons</text>
</g>
<!-- polygons__polygonID_polygonID__sites_join -->
<g id="node2" class="node">
<title>polygons__polygonID_polygonID__sites_join</title>
<ellipse fill="none" stroke="#000000" cx="1004.6007" cy="-900.1377" rx="78.8882" ry="41.0911"/>
<text text-anchor="middle" x="1004.6007" y="-912.7377" font-family="Times,serif" font-size="14.00" fill="#000000">LEFT JOIN sites</text>
<text text-anchor="middle" x="1004.6007" y="-895.9377" font-family="Times,serif" font-size="14.00" fill="#000000">At level: 3</text>
<text text-anchor="middle" x="1004.6007" y="-879.1377" font-family="Times,serif" font-size="14.00" fill="#000000">Required: true</text>
</g>
<!-- polygons&#45;&gt;polygons__polygonID_polygonID__sites_join -->
<g id="edge1" class="edge">
<title>polygons&#45;&gt;polygons__polygonID_polygonID__sites_join</title>
<path fill="none" stroke="#000000" d="M1004.6007,-977.0589C1004.6007,-969.7498 1004.6007,-960.9402 1004.6007,-951.9314"/>
<polygon fill="#000000" stroke="#000000" points="1008.1008,-951.7449 1004.6007,-941.7449 1001.1008,-951.745 1008.1008,-951.7449"/>
</g>
<!-- polygons__polygonID_polygonID__sites_join_Has_Rows -->
<g id="node3" class="node">
<title>polygons__polygonID_polygonID__sites_join_Has_Rows</title>
<ellipse fill="none" stroke="#000000" cx="967.6007" cy="-804.8427" rx="47.4704" ry="18"/>
<text text-anchor="middle" x="967.6007" y="-800.6427" font-family="Times,serif" font-size="14.00" fill="#000000">Has rows</text>
</g>
<!-- polygons__polygonID_polygonID__sites_join&#45;&gt;polygons__polygonID_polygonID__sites_join_Has_Rows -->
<g id="edge2" class="edge">
<title>polygons__polygonID_polygonID__sites_join&#45;&gt;polygons__polygonID_polygonID__sites_join_Has_Rows</title>
<path fill="none" stroke="#000000" d="M988.8021,-859.4477C985.2445,-850.285 981.5507,-840.7715 978.2623,-832.302"/>
<polygon fill="#000000" stroke="#000000" points="981.5028,-830.978 974.6206,-822.9228 974.9774,-833.5117 981.5028,-830.978"/>
</g>
<!-- polygons__polygonID_polygonID__sites_join_No_Rows -->
<g id="node24" class="node">
<title>polygons__polygonID_polygonID__sites_join_No_Rows</title>
<ellipse fill="none" stroke="#000000" cx="1127.6007" cy="-721.4271" rx="44.0415" ry="18"/>
<text text-anchor="middle" x="1127.6007" y="-717.2271" font-family="Times,serif" font-size="14.00" fill="#000000">No rows</text>
</g>
<!-- polygons__polygonID_polygonID__sites_join&#45;&gt;polygons__polygonID_polygonID__sites_join_No_Rows -->
<g id="edge29" class="edge">
<title>polygons__polygonID_polygonID__sites_join&#45;&gt;polygons__polygonID_polygonID__sites_join_No_Rows</title>
<path fill="none" stroke="#000000" d="M1031.5936,-860.9189C1055.3059,-826.4666 1089.1372,-777.3119 1109.6633,-747.4889"/>
<polygon fill="#000000" stroke="#000000" points="1112.7939,-749.1137 1115.5804,-738.8918 1107.0276,-745.145 1112.7939,-749.1137"/>
</g>
<!-- polygons__polygonID_polygonID__sites_where -->
<g id="node4" class="node">
<title>polygons__polygonID_polygonID__sites_where</title>
<ellipse fill="none" stroke="#000000" cx="882.6007" cy="-721.4271" rx="182.7015" ry="29.3315"/>
<text text-anchor="middle" x="882.6007" y="-725.6271" font-family="Times,serif" font-size="14.00" fill="#000000">WHERE IN</text>
<text text-anchor="middle" x="882.6007" y="-708.8271" font-family="Times,serif" font-size="14.00" fill="#000000">sites.healthReg = [&quot;Yukon&quot;,&quot;Yukon&#45;HNJ&quot;]</text>
</g>
<!-- polygons__polygonID_polygonID__sites_join_Has_Rows&#45;&gt;polygons__polygonID_polygonID__sites_where -->
<g id="edge3" class="edge">
<title>polygons__polygonID_polygonID__sites_join_Has_Rows&#45;&gt;polygons__polygonID_polygonID__sites_where</title>
<path fill="none" stroke="#000000" d="M950.3997,-787.9623C941.5708,-779.298 930.4518,-768.3862 919.7863,-757.9196"/>
<polygon fill="#000000" stroke="#000000" points="922.0976,-755.2839 912.5088,-750.7776 917.1946,-760.28 922.0976,-755.2839"/>
</g>
<!-- polygons__polygonID_polygonID__sites_where_Has_Rows -->
<g id="node5" class="node">
<title>polygons__polygonID_polygonID__sites_where_Has_Rows</title>
<ellipse fill="none" stroke="#000000" cx="882.6007" cy="-638.0114" rx="47.4704" ry="18"/>
<text text-anchor="middle" x="882.6007" y="-633.8114" font-family="Times,serif" font-size="14.00" fill="#000000">Has rows</text>
</g>
<!-- polygons__polygonID_polygonID__sites_where&#45;&gt;polygons__polygonID_polygonID__sites_where_Has_Rows -->
<g id="edge4" class="edge">
<title>polygons__polygonID_polygonID__sites_where&#45;&gt;polygons__polygonID_polygonID__sites_where_Has_Rows</title>
<path fill="none" stroke="#000000" d="M882.6007,-691.783C882.6007,-683.5778 882.6007,-674.691 882.6007,-666.5502"/>
<polygon fill="#000000" stroke="#000000" points="886.1008,-666.398 882.6007,-656.398 879.1008,-666.398 886.1008,-666.398"/>
</g>
<!-- polygons__polygonID_polygonID__sites_where_No_Rows -->
<g id="node23" class="node">
<title>polygons__polygonID_polygonID__sites_where_No_Rows</title>
<ellipse fill="none" stroke="#000000" cx="1043.6007" cy="-542.7164" rx="44.0415" ry="18"/>
<text text-anchor="middle" x="1043.6007" y="-538.5164" font-family="Times,serif" font-size="14.00" fill="#000000">No rows</text>
</g>
<!-- polygons__polygonID_polygonID__sites_where&#45;&gt;polygons__polygonID_polygonID__sites_where_No_Rows -->
<g id="edge27" class="edge">
<title>polygons__polygonID_polygonID__sites_where&#45;&gt;polygons__polygonID_polygonID__sites_where_No_Rows</title>
<path fill="none" stroke="#000000" d="M908.8265,-692.3164C940.0407,-657.6684 991.6337,-600.4 1021.1065,-567.6851"/>
<polygon fill="#000000" stroke="#000000" points="1024.0042,-569.6978 1028.0971,-559.9254 1018.8034,-565.0124 1024.0042,-569.6978"/>
</g>
<!-- sites__siteID_siteID__samples_join -->
<g id="node6" class="node">
<title>sites__siteID_siteID__samples_join</title>
<ellipse fill="none" stroke="#000000" cx="882.6007" cy="-542.7164" rx="93.4765" ry="41.0911"/>
<text text-anchor="middle" x="882.6007" y="-555.3164" font-family="Times,serif" font-size="14.00" fill="#000000">LEFT JOIN samples</text>
<text text-anchor="middle" x="882.6007" y="-538.5164" font-family="Times,serif" font-size="14.00" fill="#000000">At level: 2</text>
<text text-anchor="middle" x="882.6007" y="-521.7164" font-family="Times,serif" font-size="14.00" fill="#000000">Required: true</text>
</g>
<!-- polygons__polygonID_polygonID__sites_where_Has_Rows&#45;&gt;sites__siteID_siteID__samples_join -->
<g id="edge5" class="edge">
<title>polygons__polygonID_polygonID__sites_where_Has_Rows&#45;&gt;sites__siteID_siteID__samples_join</title>
<path fill="none" stroke="#000000" d="M882.6007,-619.6376C882.6007,-612.3285 882.6007,-603.5189 882.6007,-594.5101"/>
<polygon fill="#000000" stroke="#000000" points="886.1008,-594.3235 882.6007,-584.3236 879.1008,-594.3236 886.1008,-594.3235"/>
</g>
<!-- sites__siteID_siteID__samples_join_Has_Rows -->
<g id="node7" class="node">
<title>sites__siteID_siteID__samples_join_Has_Rows</title>
<ellipse fill="none" stroke="#000000" cx="869.6007" cy="-447.4214" rx="47.4704" ry="18"/>
<text text-anchor="middle" x="869.6007" y="-443.2214" font-family="Times,serif" font-size="14.00" fill="#000000">Has rows</text>
</g>
<!-- sites__siteID_siteID__samples_join&#45;&gt;sites__siteID_siteID__samples_join_Has_Rows -->
<g id="edge6" class="edge">
<title>sites__siteID_siteID__samples_join&#45;&gt;sites__siteID_siteID__samples_join_Has_Rows</title>
<path fill="none" stroke="#000000" d="M876.9743,-501.4728C875.791,-492.7989 874.5684,-483.8366 873.4672,-475.764"/>
<polygon fill="#000000" stroke="#000000" points="876.9225,-475.1986 872.1029,-465.7635 869.9868,-476.1448 876.9225,-475.1986"/>
</g>
<!-- sites__siteID_siteID__samples_join_No_Rows -->
<g id="node22" class="node">
<title>sites__siteID_siteID__samples_join_No_Rows</title>
<ellipse fill="none" stroke="#000000" cx="978.6007" cy="-447.4214" rx="44.0415" ry="18"/>
<text text-anchor="middle" x="978.6007" y="-443.2214" font-family="Times,serif" font-size="14.00" fill="#000000">No rows</text>
</g>
<!-- sites__siteID_siteID__samples_join&#45;&gt;sites__siteID_siteID__samples_join_No_Rows -->
<g id="edge25" class="edge">
<title>sites__siteID_siteID__samples_join&#45;&gt;sites__siteID_siteID__samples_join_No_Rows</title>
<path fill="none" stroke="#000000" d="M920.8183,-504.7795C932.1517,-493.5293 944.2449,-481.5249 954.4234,-471.4211"/>
<polygon fill="#000000" stroke="#000000" points="957.1582,-473.638 961.7895,-464.1091 952.2267,-468.6701 957.1582,-473.638"/>
</g>
<!-- samples__siteID_siteID__sites_join -->
<g id="node8" class="node">
<title>samples__siteID_siteID__sites_join</title>
<ellipse fill="none" stroke="#000000" cx="690.6007" cy="-352.1263" rx="78.8882" ry="41.0911"/>
<text text-anchor="middle" x="690.6007" y="-364.7263" font-family="Times,serif" font-size="14.00" fill="#000000">LEFT JOIN sites</text>
<text text-anchor="middle" x="690.6007" y="-347.9263" font-family="Times,serif" font-size="14.00" fill="#000000">At level: 1</text>
<text text-anchor="middle" x="690.6007" y="-331.1263" font-family="Times,serif" font-size="14.00" fill="#000000">Required: true</text>
</g>
<!-- sites__siteID_siteID__samples_join_Has_Rows&#45;&gt;samples__siteID_siteID__sites_join -->
<g id="edge7" class="edge">
<title>sites__siteID_siteID__samples_join_Has_Rows&#45;&gt;samples__siteID_siteID__sites_join</title>
<path fill="none" stroke="#000000" d="M842.0242,-432.7403C818.9169,-420.4386 785.008,-402.3864 755.1333,-386.4818"/>
<polygon fill="#000000" stroke="#000000" points="756.4796,-383.2335 746.0078,-381.6236 753.19,-389.4124 756.4796,-383.2335"/>
</g>
<!-- samples__dataID_dataID__datasets_join -->
<g id="node16" class="node">
<title>samples__dataID_dataID__datasets_join</title>
<ellipse fill="none" stroke="#000000" cx="880.6007" cy="-352.1263" rx="92.8656" ry="41.0911"/>
<text text-anchor="middle" x="880.6007" y="-364.7263" font-family="Times,serif" font-size="14.00" fill="#000000">LEFT JOIN datasets</text>
<text text-anchor="middle" x="880.6007" y="-347.9263" font-family="Times,serif" font-size="14.00" fill="#000000">At level: 1</text>
<text text-anchor="middle" x="880.6007" y="-331.1263" font-family="Times,serif" font-size="14.00" fill="#000000">Required: true</text>
</g>
<!-- sites__siteID_siteID__samples_join_Has_Rows&#45;&gt;samples__dataID_dataID__datasets_join -->
<g id="edge16" class="edge">
<title>sites__siteID_siteID__samples_join_Has_Rows&#45;&gt;samples__dataID_dataID__datasets_join</title>
<path fill="none" stroke="#000000" d="M871.7216,-429.0475C872.5653,-421.7384 873.5822,-412.9288 874.6221,-403.92"/>
<polygon fill="#000000" stroke="#000000" points="878.1281,-404.0689 875.798,-393.7335 871.1743,-403.2662 878.1281,-404.0689"/>
</g>
<!-- samples__siteID_siteID__sites_join_Has_Rows -->
<g id="node9" class="node">
<title>samples__siteID_siteID__sites_join_Has_Rows</title>
<ellipse fill="none" stroke="#000000" cx="372.6007" cy="-256.8313" rx="47.4704" ry="18"/>
<text text-anchor="middle" x="372.6007" y="-252.6313" font-family="Times,serif" font-size="14.00" fill="#000000">Has rows</text>
</g>
<!-- samples__siteID_siteID__sites_join&#45;&gt;samples__siteID_siteID__sites_join_Has_Rows -->
<g id="edge8" class="edge">
<title>samples__siteID_siteID__sites_join&#45;&gt;samples__siteID_siteID__sites_join_Has_Rows</title>
<path fill="none" stroke="#000000" d="M621.991,-331.566C560.9264,-313.2668 473.2264,-286.9858 419.7438,-270.9586"/>
<polygon fill="#000000" stroke="#000000" points="420.4296,-267.5104 409.8457,-267.9925 418.4202,-274.2158 420.4296,-267.5104"/>
</g>
<!-- samples__siteID_siteID__sites_join_No_Rows -->
<g id="node15" class="node">
<title>samples__siteID_siteID__sites_join_No_Rows</title>
<ellipse fill="none" stroke="#000000" cx="902.6007" cy="-173.4156" rx="44.0415" ry="18"/>
<text text-anchor="middle" x="902.6007" y="-169.2156" font-family="Times,serif" font-size="14.00" fill="#000000">No rows</text>
</g>
<!-- samples__siteID_siteID__sites_join&#45;&gt;samples__siteID_siteID__sites_join_No_Rows -->
<g id="edge14" class="edge">
<title>samples__siteID_siteID__sites_join&#45;&gt;samples__siteID_siteID__sites_join_No_Rows</title>
<path fill="none" stroke="#000000" d="M732.2321,-317.0321C774.7208,-281.2152 839.4159,-226.6788 875.6304,-196.1509"/>
<polygon fill="#000000" stroke="#000000" points="877.9465,-198.7762 883.3365,-189.6549 873.4348,-193.4241 877.9465,-198.7762"/>
</g>
<!-- samples__siteID_siteID__sites_where -->
<g id="node10" class="node">
<title>samples__siteID_siteID__sites_where</title>
<ellipse fill="none" stroke="#000000" cx="182.6007" cy="-173.4156" rx="182.7015" ry="29.3315"/>
<text text-anchor="middle" x="182.6007" y="-177.6156" font-family="Times,serif" font-size="14.00" fill="#000000">WHERE IN</text>
<text text-anchor="middle" x="182.6007" y="-160.8156" font-family="Times,serif" font-size="14.00" fill="#000000">sites.healthReg = [&quot;Yukon&quot;,&quot;Yukon&#45;HNJ&quot;]</text>
</g>
<!-- samples__siteID_siteID__sites_join_Has_Rows&#45;&gt;samples__siteID_siteID__sites_where -->
<g id="edge9" class="edge">
<title>samples__siteID_siteID__sites_join_Has_Rows&#45;&gt;samples__siteID_siteID__sites_where</title>
<path fill="none" stroke="#000000" d="M341.2261,-243.0569C317.7282,-232.7406 284.6189,-218.2047 254.7234,-205.0796"/>
<polygon fill="#000000" stroke="#000000" points="256.1263,-201.8731 245.5628,-201.0579 253.3123,-208.2826 256.1263,-201.8731"/>
</g>
<!-- samples__siteID_siteID__sites_where_Has_Rows -->
<g id="node11" class="node">
<title>samples__siteID_siteID__sites_where_Has_Rows</title>
<ellipse fill="none" stroke="#000000" cx="262.6007" cy="-90" rx="47.4704" ry="18"/>
<text text-anchor="middle" x="262.6007" y="-85.8" font-family="Times,serif" font-size="14.00" fill="#000000">Has rows</text>
</g>
<!-- samples__siteID_siteID__sites_where&#45;&gt;samples__siteID_siteID__sites_where_Has_Rows -->
<g id="edge10" class="edge">
<title>samples__siteID_siteID__sites_where&#45;&gt;samples__siteID_siteID__sites_where_Has_Rows</title>
<path fill="none" stroke="#000000" d="M210.5808,-144.2409C219.874,-134.5509 230.1215,-123.8659 239.0464,-114.56"/>
<polygon fill="#000000" stroke="#000000" points="241.7865,-116.7595 246.1822,-107.1195 236.7343,-111.9142 241.7865,-116.7595"/>
</g>
<!-- samples__siteID_siteID__sites_where_No_Rows -->
<g id="node13" class="node">
<title>samples__siteID_siteID__sites_where_No_Rows</title>
<ellipse fill="none" stroke="#000000" cx="738.6007" cy="-90" rx="44.0415" ry="18"/>
<text text-anchor="middle" x="738.6007" y="-85.8" font-family="Times,serif" font-size="14.00" fill="#000000">No rows</text>
</g>
<!-- samples__siteID_siteID__sites_where&#45;&gt;samples__siteID_siteID__sites_where_No_Rows -->
<g id="edge12" class="edge">
<title>samples__siteID_siteID__sites_where&#45;&gt;samples__siteID_siteID__sites_where_No_Rows</title>
<path fill="none" stroke="#000000" d="M314.3577,-153.0194C334.2078,-149.9768 354.4423,-146.8924 373.6007,-144 485.2869,-127.1381 616.2817,-107.8859 687,-97.5357"/>
<polygon fill="#000000" stroke="#000000" points="687.5991,-100.9854 696.9871,-96.0746 686.5857,-94.0592 687.5991,-100.9854"/>
</g>
<!-- granted -->
<g id="node12" class="node">
<title>granted</title>
<ellipse fill="none" stroke="#000000" cx="397.6007" cy="-18" rx="71.7874" ry="18"/>
<text text-anchor="middle" x="397.6007" y="-13.8" font-family="Times,serif" font-size="14.00" fill="#000000">Access Granted</text>
</g>
<!-- samples__siteID_siteID__sites_where_Has_Rows&#45;&gt;granted -->
<g id="edge11" class="edge">
<title>samples__siteID_siteID__sites_where_Has_Rows&#45;&gt;granted</title>
<path fill="none" stroke="#000000" d="M290.2457,-75.256C309.6852,-64.8883 335.9955,-50.8561 357.704,-39.2782"/>
<polygon fill="#000000" stroke="#000000" points="359.516,-42.2786 366.6925,-34.4844 356.2219,-36.1021 359.516,-42.2786"/>
</g>
<!-- denied -->
<g id="node14" class="node">
<title>denied</title>
<ellipse fill="none" stroke="#000000" cx="974.6007" cy="-18" rx="68.8581" ry="18"/>
<text text-anchor="middle" x="974.6007" y="-13.8" font-family="Times,serif" font-size="14.00" fill="#000000">Access Denied</text>
</g>
<!-- samples__siteID_siteID__sites_where_No_Rows&#45;&gt;denied -->
<g id="edge13" class="edge">
<title>samples__siteID_siteID__sites_where_No_Rows&#45;&gt;denied</title>
<path fill="none" stroke="#000000" d="M772.8828,-78.626C779.7347,-76.3963 786.8884,-74.0992 793.6007,-72 835.368,-58.9374 882.7763,-44.8191 918.5938,-34.2956"/>
<polygon fill="#000000" stroke="#000000" points="919.7639,-37.5999 928.3744,-31.4267 917.7936,-30.8829 919.7639,-37.5999"/>
</g>
<!-- samples__siteID_siteID__sites_join_No_Rows&#45;&gt;denied -->
<g id="edge15" class="edge">
<title>samples__siteID_siteID__sites_join_No_Rows&#45;&gt;denied</title>
<path fill="none" stroke="#000000" d="M910.86,-155.5875C923.3796,-128.5634 947.2565,-77.0239 961.9674,-45.2695"/>
<polygon fill="#000000" stroke="#000000" points="965.1881,-46.6438 966.2159,-36.0989 958.8366,-43.7013 965.1881,-46.6438"/>
</g>
<!-- samples__dataID_dataID__datasets_join_Has_Rows -->
<g id="node17" class="node">
<title>samples__dataID_dataID__datasets_join_Has_Rows</title>
<ellipse fill="none" stroke="#000000" cx="642.6007" cy="-256.8313" rx="47.4704" ry="18"/>
<text text-anchor="middle" x="642.6007" y="-252.6313" font-family="Times,serif" font-size="14.00" fill="#000000">Has rows</text>
</g>
<!-- samples__dataID_dataID__datasets_join&#45;&gt;samples__dataID_dataID__datasets_join_Has_Rows -->
<g id="edge17" class="edge">
<title>samples__dataID_dataID__datasets_join&#45;&gt;samples__dataID_dataID__datasets_join_Has_Rows</title>
<path fill="none" stroke="#000000" d="M812.0429,-324.297C800.8706,-319.783 789.4174,-315.1683 778.6007,-310.8313 747.31,-298.2852 711.9153,-284.2359 685.0794,-273.6131"/>
<polygon fill="#000000" stroke="#000000" points="686.1896,-270.2884 675.6033,-269.8636 683.6141,-276.7974 686.1896,-270.2884"/>
</g>
<!-- samples__dataID_dataID__datasets_join_No_Rows -->
<g id="node21" class="node">
<title>samples__dataID_dataID__datasets_join_No_Rows</title>
<ellipse fill="none" stroke="#000000" cx="910.6007" cy="-256.8313" rx="44.0415" ry="18"/>
<text text-anchor="middle" x="910.6007" y="-252.6313" font-family="Times,serif" font-size="14.00" fill="#000000">No rows</text>
</g>
<!-- samples__dataID_dataID__datasets_join&#45;&gt;samples__dataID_dataID__datasets_join_No_Rows -->
<g id="edge23" class="edge">
<title>samples__dataID_dataID__datasets_join&#45;&gt;samples__dataID_dataID__datasets_join_No_Rows</title>
<path fill="none" stroke="#000000" d="M893.4975,-311.1596C896.3427,-302.1219 899.2908,-292.7571 901.9215,-284.4007"/>
<polygon fill="#000000" stroke="#000000" points="905.2803,-285.3871 904.9447,-274.7975 898.6033,-283.285 905.2803,-285.3871"/>
</g>
<!-- samples__dataID_dataID__datasets_where -->
<g id="node18" class="node">
<title>samples__dataID_dataID__datasets_where</title>
<ellipse fill="none" stroke="#000000" cx="611.6007" cy="-173.4156" rx="228.5204" ry="29.3315"/>
<text text-anchor="middle" x="611.6007" y="-177.6156" font-family="Times,serif" font-size="14.00" fill="#000000">WHERE IN</text>
<text text-anchor="middle" x="611.6007" y="-160.8156" font-family="Times,serif" font-size="14.00" fill="#000000">datasets.dataID = [&quot;NML&#45;WWPCR&quot;,&quot;NML&#45;WWGX&quot;]</text>
</g>
<!-- samples__dataID_dataID__datasets_join_Has_Rows&#45;&gt;samples__dataID_dataID__datasets_where -->
<g id="edge18" class="edge">
<title>samples__dataID_dataID__datasets_join_Has_Rows&#45;&gt;samples__dataID_dataID__datasets_where</title>
<path fill="none" stroke="#000000" d="M635.8742,-238.7313C632.993,-230.9786 629.5088,-221.6032 626.0904,-212.4049"/>
<polygon fill="#000000" stroke="#000000" points="629.3443,-211.1132 622.5799,-202.9588 622.7828,-213.5517 629.3443,-211.1132"/>
</g>
<!-- samples__dataID_dataID__datasets_where_Has_Rows -->
<g id="node19" class="node">
<title>samples__dataID_dataID__datasets_where_Has_Rows</title>
<ellipse fill="none" stroke="#000000" cx="532.6007" cy="-90" rx="47.4704" ry="18"/>
<text text-anchor="middle" x="532.6007" y="-85.8" font-family="Times,serif" font-size="14.00" fill="#000000">Has rows</text>
</g>
<!-- samples__dataID_dataID__datasets_where&#45;&gt;samples__dataID_dataID__datasets_where_Has_Rows -->
<g id="edge19" class="edge">
<title>samples__dataID_dataID__datasets_where&#45;&gt;samples__dataID_dataID__datasets_where_Has_Rows</title>
<path fill="none" stroke="#000000" d="M583.5258,-143.7715C574.5174,-134.2596 564.6414,-123.8316 556.0042,-114.7116"/>
<polygon fill="#000000" stroke="#000000" points="558.5041,-112.2613 549.0866,-107.4073 553.4216,-117.0747 558.5041,-112.2613"/>
</g>
<!-- samples__dataID_dataID__datasets_where_No_Rows -->
<g id="node20" class="node">
<title>samples__dataID_dataID__datasets_where_No_Rows</title>
<ellipse fill="none" stroke="#000000" cx="846.6007" cy="-90" rx="44.0415" ry="18"/>
<text text-anchor="middle" x="846.6007" y="-85.8" font-family="Times,serif" font-size="14.00" fill="#000000">No rows</text>
</g>
<!-- samples__dataID_dataID__datasets_where&#45;&gt;samples__dataID_dataID__datasets_where_No_Rows -->
<g id="edge21" class="edge">
<title>samples__dataID_dataID__datasets_where&#45;&gt;samples__dataID_dataID__datasets_where_No_Rows</title>
<path fill="none" stroke="#000000" d="M689.5259,-145.7553C727.5452,-132.26 771.8234,-116.543 803.6592,-105.2425"/>
<polygon fill="#000000" stroke="#000000" points="804.866,-108.5282 813.1192,-101.8846 802.5244,-101.9314 804.866,-108.5282"/>
</g>
<!-- samples__dataID_dataID__datasets_where_Has_Rows&#45;&gt;granted -->
<g id="edge20" class="edge">
<title>samples__dataID_dataID__datasets_where_Has_Rows&#45;&gt;granted</title>
<path fill="none" stroke="#000000" d="M504.9557,-75.256C485.5162,-64.8883 459.2059,-50.8561 437.4974,-39.2782"/>
<polygon fill="#000000" stroke="#000000" points="438.9796,-36.1021 428.5089,-34.4844 435.6854,-42.2786 438.9796,-36.1021"/>
</g>
<!-- samples__dataID_dataID__datasets_where_No_Rows&#45;&gt;denied -->
<g id="edge22" class="edge">
<title>samples__dataID_dataID__datasets_where_No_Rows&#45;&gt;denied</title>
<path fill="none" stroke="#000000" d="M872.5034,-75.4297C890.83,-65.121 915.7095,-51.1263 936.3201,-39.5328"/>
<polygon fill="#000000" stroke="#000000" points="938.1548,-42.5166 945.1546,-34.5634 934.7229,-36.4156 938.1548,-42.5166"/>
</g>
<!-- samples__dataID_dataID__datasets_join_No_Rows&#45;&gt;denied -->
<g id="edge24" class="edge">
<title>samples__dataID_dataID__datasets_join_No_Rows&#45;&gt;denied</title>
<path fill="none" stroke="#000000" d="M929.0112,-240.1616C938.6384,-230.3052 949.6329,-217.0024 955.6007,-202.8313 977.4791,-150.8796 978.3417,-83.729 976.6854,-46.3373"/>
<polygon fill="#000000" stroke="#000000" points="980.1711,-45.975 976.1391,-36.1774 973.1812,-46.3509 980.1711,-45.975"/>
</g>
<!-- sites__siteID_siteID__samples_join_No_Rows&#45;&gt;denied -->
<g id="edge26" class="edge">
<title>sites__siteID_siteID__samples_join_No_Rows&#45;&gt;denied</title>
<path fill="none" stroke="#000000" d="M983.9881,-429.4795C993.5752,-395.9145 1012.6007,-321.1962 1012.6007,-256.8313 1012.6007,-256.8313 1012.6007,-256.8313 1012.6007,-173.4156 1012.6007,-127.7468 996.9266,-76.6338 985.7116,-45.9068"/>
<polygon fill="#000000" stroke="#000000" points="988.8988,-44.4379 982.1083,-36.3052 982.3451,-46.8974 988.8988,-44.4379"/>
</g>
<!-- polygons__polygonID_polygonID__sites_where_No_Rows&#45;&gt;denied -->
<g id="edge28" class="edge">
<title>polygons__polygonID_polygonID__sites_where_No_Rows&#45;&gt;denied</title>
<path fill="none" stroke="#000000" d="M1044.7099,-524.5922C1046.6837,-490.7269 1050.6007,-415.5336 1050.6007,-352.1263 1050.6007,-352.1263 1050.6007,-352.1263 1050.6007,-173.4156 1050.6007,-123.6627 1018.7801,-73.2252 996.3189,-43.8201"/>
<polygon fill="#000000" stroke="#000000" points="998.9091,-41.4515 989.9804,-35.7479 993.4035,-45.7746 998.9091,-41.4515"/>
</g>
<!-- polygons__polygonID_polygonID__sites_join_No_Rows&#45;&gt;denied -->
<g id="edge30" class="edge">
<title>polygons__polygonID_polygonID__sites_join_No_Rows&#45;&gt;denied</title>
<path fill="none" stroke="#000000" d="M1126.5964,-703.4237C1124.8884,-671.2032 1121.6007,-601.5441 1121.6007,-542.7164 1121.6007,-542.7164 1121.6007,-542.7164 1121.6007,-173.4156 1121.6007,-111.6975 1059.6576,-64.6174 1016.1907,-39.1779"/>
<polygon fill="#000000" stroke="#000000" points="1017.6479,-35.9803 1007.2248,-34.0804 1014.1881,-42.0656 1017.6479,-35.9803"/>
</g>
</g>
</svg>
