<?xml version="1.0" encoding="UTF-8" standalone="no"?>
<!DOCTYPE svg PUBLIC "-//W3C//DTD SVG 1.1//EN"
 "http://www.w3.org/Graphics/SVG/1.1/DTD/svg11.dtd">
<!-- Generated by graphviz version 2.40.1 (20161225.0304)
 -->
<!-- Title: G Pages: 1 -->
<svg width="981pt" height="1021pt"
 viewBox="0.00 0.00 981.35 1021.43" xmlns="http://www.w3.org/2000/svg" xmlns:xlink="http://www.w3.org/1999/xlink">
<g id="graph0" class="graph" transform="scale(1 1) rotate(0) translate(4 1017.4328)">
<title>G</title>
<polygon fill="#ffffff" stroke="transparent" points="-4,4 -4,-1017.4328 977.345,-1017.4328 977.345,4 -4,4"/>
<!-- polygons -->
<g id="node1" class="node">
<title>polygons</title>
<ellipse fill="none" stroke="#000000" cx="851.3242" cy="-995.4328" rx="46.3932" ry="18"/>
<text text-anchor="middle" x="851.3242" y="-991.2328" font-family="Times,serif" font-size="14.00" fill="#000000">polygons</text>
</g>
<!-- polygons__polygonID_polygonID__sites_join -->
<g id="node2" class="node">
<title>polygons__polygonID_polygonID__sites_join</title>
<ellipse fill="none" stroke="#000000" cx="851.3242" cy="-900.1377" rx="78.8882" ry="41.0911"/>
<text text-anchor="middle" x="851.3242" y="-912.7377" font-family="Times,serif" font-size="14.00" fill="#000000">LEFT JOIN sites</text>
<text text-anchor="middle" x="851.3242" y="-895.9377" font-family="Times,serif" font-size="14.00" fill="#000000">At level: 3</text>
<text text-anchor="middle" x="851.3242" y="-879.1377" font-family="Times,serif" font-size="14.00" fill="#000000">Required: true</text>
</g>
<!-- polygons&#45;&gt;polygons__polygonID_polygonID__sites_join -->
<g id="edge1" class="edge">
<title>polygons&#45;&gt;polygons__polygonID_polygonID__sites_join</title>
<path fill="none" stroke="#000000" d="M851.3242,-977.0589C851.3242,-969.7498 851.3242,-960.9402 851.3242,-951.9314"/>
<polygon fill="#000000" stroke="#000000" points="854.8243,-951.7449 851.3242,-941.7449 847.8243,-951.745 854.8243,-951.7449"/>
</g>
<!-- polygons__polygonID_polygonID__sites_join_Has_Rows -->
<g id="node3" class="node">
<title>polygons__polygonID_polygonID__sites_join_Has_Rows</title>
<ellipse fill="none" stroke="#000000" cx="814.3242" cy="-804.8427" rx="47.4704" ry="18"/>
<text text-anchor="middle" x="814.3242" y="-800.6427" font-family="Times,serif" font-size="14.00" fill="#000000">Has rows</text>
</g>
<!-- polygons__polygonID_polygonID__sites_join&#45;&gt;polygons__polygonID_polygonID__sites_join_Has_Rows -->
<g id="edge2" class="edge">
<title>polygons__polygonID_polygonID__sites_join&#45;&gt;polygons__polygonID_polygonID__sites_join_Has_Rows</title>
<path fill="none" stroke="#000000" d="M835.5256,-859.4477C831.968,-850.285 828.2742,-840.7715 824.9858,-832.302"/>
<polygon fill="#000000" stroke="#000000" points="828.2264,-830.978 821.3442,-822.9228 821.701,-833.5117 828.2264,-830.978"/>
</g>
<!-- polygons__polygonID_polygonID__sites_join_No_Rows -->
<g id="node24" class="node">
<title>polygons__polygonID_polygonID__sites_join_No_Rows</title>
<ellipse fill="none" stroke="#000000" cx="929.3242" cy="-721.4271" rx="44.0415" ry="18"/>
<text text-anchor="middle" x="929.3242" y="-717.2271" font-family="Times,serif" font-size="14.00" fill="#000000">No rows</text>
</g>
<!-- polygons__polygonID_polygonID__sites_join&#45;&gt;polygons__polygonID_polygonID__sites_join_No_Rows -->
<g id="edge29" class="edge">
<title>polygons__polygonID_polygonID__sites_join&#45;&gt;polygons__polygonID_polygonID__sites_join_No_Rows</title>
<path fill="none" stroke="#000000" d="M869.0237,-859.5855C883.8038,-825.7219 904.4715,-778.3686 917.368,-748.8209"/>
<polygon fill="#000000" stroke="#000000" points="920.6314,-750.0933 921.4239,-739.5281 914.2158,-747.2931 920.6314,-750.0933"/>
</g>
<!-- polygons__polygonID_polygonID__sites_where -->
<g id="node4" class="node">
<title>polygons__polygonID_polygonID__sites_where</title>
<ellipse fill="none" stroke="#000000" cx="775.3242" cy="-721.4271" rx="92.1488" ry="29.3315"/>
<text text-anchor="middle" x="775.3242" y="-725.6271" font-family="Times,serif" font-size="14.00" fill="#000000">WHERE</text>
<text text-anchor="middle" x="775.3242" y="-708.8271" font-family="Times,serif" font-size="14.00" fill="#000000">sites.siteID = &quot;HNJ&quot;</text>
</g>
<!-- polygons__polygonID_polygonID__sites_join_Has_Rows&#45;&gt;polygons__polygonID_polygonID__sites_where -->
<g id="edge3" class="edge">
<title>polygons__polygonID_polygonID__sites_join_Has_Rows&#45;&gt;polygons__polygonID_polygonID__sites_where</title>
<path fill="none" stroke="#000000" d="M805.8618,-786.7428C802.1654,-778.8366 797.6799,-769.2428 793.2979,-759.8702"/>
<polygon fill="#000000" stroke="#000000" points="796.3894,-758.2185 788.9834,-750.6421 790.0482,-761.1833 796.3894,-758.2185"/>
</g>
<!-- polygons__polygonID_polygonID__sites_where_Has_Rows -->
<g id="node5" class="node">
<title>polygons__polygonID_polygonID__sites_where_Has_Rows</title>
<ellipse fill="none" stroke="#000000" cx="739.3242" cy="-638.0114" rx="47.4704" ry="18"/>
<text text-anchor="middle" x="739.3242" y="-633.8114" font-family="Times,serif" font-size="14.00" fill="#000000">Has rows</text>
</g>
<!-- polygons__polygonID_polygonID__sites_where&#45;&gt;polygons__polygonID_polygonID__sites_where_Has_Rows -->
<g id="edge4" class="edge">
<title>polygons__polygonID_polygonID__sites_where&#45;&gt;polygons__polygonID_polygonID__sites_where_Has_Rows</title>
<path fill="none" stroke="#000000" d="M762.7332,-692.2523C758.9618,-683.5137 754.8413,-673.9659 751.1229,-665.3501"/>
<polygon fill="#000000" stroke="#000000" points="754.3117,-663.9059 747.1357,-656.1114 747.8847,-666.6797 754.3117,-663.9059"/>
</g>
<!-- polygons__polygonID_polygonID__sites_where_No_Rows -->
<g id="node23" class="node">
<title>polygons__polygonID_polygonID__sites_where_No_Rows</title>
<ellipse fill="none" stroke="#000000" cx="857.3242" cy="-542.7164" rx="44.0415" ry="18"/>
<text text-anchor="middle" x="857.3242" y="-538.5164" font-family="Times,serif" font-size="14.00" fill="#000000">No rows</text>
</g>
<!-- polygons__polygonID_polygonID__sites_where&#45;&gt;polygons__polygonID_polygonID__sites_where_No_Rows -->
<g id="edge27" class="edge">
<title>polygons__polygonID_polygonID__sites_where&#45;&gt;polygons__polygonID_polygonID__sites_where_No_Rows</title>
<path fill="none" stroke="#000000" d="M788.6815,-692.3164C804.2277,-658.4349 829.699,-602.9228 844.855,-569.8919"/>
<polygon fill="#000000" stroke="#000000" points="848.2157,-570.96 849.205,-560.4115 841.8535,-568.0407 848.2157,-570.96"/>
</g>
<!-- sites__siteID_siteID__samples_join -->
<g id="node6" class="node">
<title>sites__siteID_siteID__samples_join</title>
<ellipse fill="none" stroke="#000000" cx="702.3242" cy="-542.7164" rx="93.4765" ry="41.0911"/>
<text text-anchor="middle" x="702.3242" y="-555.3164" font-family="Times,serif" font-size="14.00" fill="#000000">LEFT JOIN samples</text>
<text text-anchor="middle" x="702.3242" y="-538.5164" font-family="Times,serif" font-size="14.00" fill="#000000">At level: 2</text>
<text text-anchor="middle" x="702.3242" y="-521.7164" font-family="Times,serif" font-size="14.00" fill="#000000">Required: true</text>
</g>
<!-- polygons__polygonID_polygonID__sites_where_Has_Rows&#45;&gt;sites__siteID_siteID__samples_join -->
<g id="edge5" class="edge">
<title>polygons__polygonID_polygonID__sites_where_Has_Rows&#45;&gt;sites__siteID_siteID__samples_join</title>
<path fill="none" stroke="#000000" d="M732.3648,-620.0872C729.319,-612.2425 725.5783,-602.6081 721.7836,-592.8347"/>
<polygon fill="#000000" stroke="#000000" points="725.0319,-591.5308 718.1497,-583.4756 718.5065,-594.0644 725.0319,-591.5308"/>
</g>
<!-- sites__siteID_siteID__samples_join_Has_Rows -->
<g id="node7" class="node">
<title>sites__siteID_siteID__samples_join_Has_Rows</title>
<ellipse fill="none" stroke="#000000" cx="689.3242" cy="-447.4214" rx="47.4704" ry="18"/>
<text text-anchor="middle" x="689.3242" y="-443.2214" font-family="Times,serif" font-size="14.00" fill="#000000">Has rows</text>
</g>
<!-- sites__siteID_siteID__samples_join&#45;&gt;sites__siteID_siteID__samples_join_Has_Rows -->
<g id="edge6" class="edge">
<title>sites__siteID_siteID__samples_join&#45;&gt;sites__siteID_siteID__samples_join_Has_Rows</title>
<path fill="none" stroke="#000000" d="M696.6979,-501.4728C695.5146,-492.7989 694.292,-483.8366 693.1907,-475.764"/>
<polygon fill="#000000" stroke="#000000" points="696.6461,-475.1986 691.8264,-465.7635 689.7103,-476.1448 696.6461,-475.1986"/>
</g>
<!-- sites__siteID_siteID__samples_join_No_Rows -->
<g id="node22" class="node">
<title>sites__siteID_siteID__samples_join_No_Rows</title>
<ellipse fill="none" stroke="#000000" cx="798.3242" cy="-447.4214" rx="44.0415" ry="18"/>
<text text-anchor="middle" x="798.3242" y="-443.2214" font-family="Times,serif" font-size="14.00" fill="#000000">No rows</text>
</g>
<!-- sites__siteID_siteID__samples_join&#45;&gt;sites__siteID_siteID__samples_join_No_Rows -->
<g id="edge25" class="edge">
<title>sites__siteID_siteID__samples_join&#45;&gt;sites__siteID_siteID__samples_join_No_Rows</title>
<path fill="none" stroke="#000000" d="M740.5418,-504.7795C751.8752,-493.5293 763.9684,-481.5249 774.147,-471.4211"/>
<polygon fill="#000000" stroke="#000000" points="776.8817,-473.638 781.5131,-464.1091 771.9502,-468.6701 776.8817,-473.638"/>
</g>
<!-- samples__siteID_siteID__sites_join -->
<g id="node8" class="node">
<title>samples__siteID_siteID__sites_join</title>
<ellipse fill="none" stroke="#000000" cx="510.3242" cy="-352.1263" rx="78.8882" ry="41.0911"/>
<text text-anchor="middle" x="510.3242" y="-364.7263" font-family="Times,serif" font-size="14.00" fill="#000000">LEFT JOIN sites</text>
<text text-anchor="middle" x="510.3242" y="-347.9263" font-family="Times,serif" font-size="14.00" fill="#000000">At level: 1</text>
<text text-anchor="middle" x="510.3242" y="-331.1263" font-family="Times,serif" font-size="14.00" fill="#000000">Required: true</text>
</g>
<!-- sites__siteID_siteID__samples_join_Has_Rows&#45;&gt;samples__siteID_siteID__sites_join -->
<g id="edge7" class="edge">
<title>sites__siteID_siteID__samples_join_Has_Rows&#45;&gt;samples__siteID_siteID__sites_join</title>
<path fill="none" stroke="#000000" d="M661.7478,-432.7403C638.6405,-420.4386 604.7315,-402.3864 574.8568,-386.4818"/>
<polygon fill="#000000" stroke="#000000" points="576.2031,-383.2335 565.7313,-381.6236 572.9136,-389.4124 576.2031,-383.2335"/>
</g>
<!-- samples__dataID_dataID__datasets_join -->
<g id="node16" class="node">
<title>samples__dataID_dataID__datasets_join</title>
<ellipse fill="none" stroke="#000000" cx="700.3242" cy="-352.1263" rx="92.8656" ry="41.0911"/>
<text text-anchor="middle" x="700.3242" y="-364.7263" font-family="Times,serif" font-size="14.00" fill="#000000">LEFT JOIN datasets</text>
<text text-anchor="middle" x="700.3242" y="-347.9263" font-family="Times,serif" font-size="14.00" fill="#000000">At level: 1</text>
<text text-anchor="middle" x="700.3242" y="-331.1263" font-family="Times,serif" font-size="14.00" fill="#000000">Required: true</text>
</g>
<!-- sites__siteID_siteID__samples_join_Has_Rows&#45;&gt;samples__dataID_dataID__datasets_join -->
<g id="edge16" class="edge">
<title>sites__siteID_siteID__samples_join_Has_Rows&#45;&gt;samples__dataID_dataID__datasets_join</title>
<path fill="none" stroke="#000000" d="M691.4452,-429.0475C692.2889,-421.7384 693.3058,-412.9288 694.3457,-403.92"/>
<polygon fill="#000000" stroke="#000000" points="697.8516,-404.0689 695.5215,-393.7335 690.8978,-403.2662 697.8516,-404.0689"/>
</g>
<!-- samples__siteID_siteID__sites_join_Has_Rows -->
<g id="node9" class="node">
<title>samples__siteID_siteID__sites_join_Has_Rows</title>
<ellipse fill="none" stroke="#000000" cx="237.3242" cy="-256.8313" rx="47.4704" ry="18"/>
<text text-anchor="middle" x="237.3242" y="-252.6313" font-family="Times,serif" font-size="14.00" fill="#000000">Has rows</text>
</g>
<!-- samples__siteID_siteID__sites_join&#45;&gt;samples__siteID_siteID__sites_join_Has_Rows -->
<g id="edge8" class="edge">
<title>samples__siteID_siteID__sites_join&#45;&gt;samples__siteID_siteID__sites_join_Has_Rows</title>
<path fill="none" stroke="#000000" d="M444.5865,-329.1795C394.275,-311.6175 326.2358,-287.8673 282.0672,-272.4495"/>
<polygon fill="#000000" stroke="#000000" points="283.0681,-269.0919 272.4733,-269.1006 280.7611,-275.7008 283.0681,-269.0919"/>
</g>
<!-- samples__siteID_siteID__sites_join_No_Rows -->
<g id="node15" class="node">
<title>samples__siteID_siteID__sites_join_No_Rows</title>
<ellipse fill="none" stroke="#000000" cx="722.3242" cy="-173.4156" rx="44.0415" ry="18"/>
<text text-anchor="middle" x="722.3242" y="-169.2156" font-family="Times,serif" font-size="14.00" fill="#000000">No rows</text>
</g>
<!-- samples__siteID_siteID__sites_join&#45;&gt;samples__siteID_siteID__sites_join_No_Rows -->
<g id="edge14" class="edge">
<title>samples__siteID_siteID__sites_join&#45;&gt;samples__siteID_siteID__sites_join_No_Rows</title>
<path fill="none" stroke="#000000" d="M551.9557,-317.0321C594.4443,-281.2152 659.1394,-226.6788 695.354,-196.1509"/>
<polygon fill="#000000" stroke="#000000" points="697.6701,-198.7762 703.0601,-189.6549 693.1584,-193.4241 697.6701,-198.7762"/>
</g>
<!-- samples__siteID_siteID__sites_where -->
<g id="node10" class="node">
<title>samples__siteID_siteID__sites_where</title>
<ellipse fill="none" stroke="#000000" cx="92.3242" cy="-173.4156" rx="92.1488" ry="29.3315"/>
<text text-anchor="middle" x="92.3242" y="-177.6156" font-family="Times,serif" font-size="14.00" fill="#000000">WHERE</text>
<text text-anchor="middle" x="92.3242" y="-160.8156" font-family="Times,serif" font-size="14.00" fill="#000000">sites.siteID = &quot;HNJ&quot;</text>
</g>
<!-- samples__siteID_siteID__sites_join_Has_Rows&#45;&gt;samples__siteID_siteID__sites_where -->
<g id="edge9" class="edge">
<title>samples__siteID_siteID__sites_join_Has_Rows&#45;&gt;samples__siteID_siteID__sites_where</title>
<path fill="none" stroke="#000000" d="M211.0658,-241.7253C192.9099,-231.2806 168.1136,-217.0157 145.8753,-204.2225"/>
<polygon fill="#000000" stroke="#000000" points="147.5894,-201.1708 137.1761,-199.218 144.0988,-207.2384 147.5894,-201.1708"/>
</g>
<!-- samples__siteID_siteID__sites_where_Has_Rows -->
<g id="node11" class="node">
<title>samples__siteID_siteID__sites_where_Has_Rows</title>
<ellipse fill="none" stroke="#000000" cx="149.3242" cy="-90" rx="47.4704" ry="18"/>
<text text-anchor="middle" x="149.3242" y="-85.8" font-family="Times,serif" font-size="14.00" fill="#000000">Has rows</text>
</g>
<!-- samples__siteID_siteID__sites_where&#45;&gt;samples__siteID_siteID__sites_where_Has_Rows -->
<g id="edge10" class="edge">
<title>samples__siteID_siteID__sites_where&#45;&gt;samples__siteID_siteID__sites_where_Has_Rows</title>
<path fill="none" stroke="#000000" d="M112.2601,-144.2409C118.5203,-135.0795 125.3883,-125.0286 131.4931,-116.0947"/>
<polygon fill="#000000" stroke="#000000" points="134.5405,-117.8386 137.2926,-107.6075 128.7609,-113.8893 134.5405,-117.8386"/>
</g>
<!-- samples__siteID_siteID__sites_where_No_Rows -->
<g id="node13" class="node">
<title>samples__siteID_siteID__sites_where_No_Rows</title>
<ellipse fill="none" stroke="#000000" cx="558.3242" cy="-90" rx="44.0415" ry="18"/>
<text text-anchor="middle" x="558.3242" y="-85.8" font-family="Times,serif" font-size="14.00" fill="#000000">No rows</text>
</g>
<!-- samples__siteID_siteID__sites_where&#45;&gt;samples__siteID_siteID__sites_where_No_Rows -->
<g id="edge12" class="edge">
<title>samples__siteID_siteID__sites_where&#45;&gt;samples__siteID_siteID__sites_where_No_Rows</title>
<path fill="none" stroke="#000000" d="M158.2734,-152.8071C169.8832,-149.5815 181.9052,-146.4953 193.3242,-144 223.2956,-137.4505 412.8019,-110.4645 506.2951,-97.2955"/>
<polygon fill="#000000" stroke="#000000" points="506.9767,-100.7341 516.3913,-95.8745 506.0011,-93.8024 506.9767,-100.7341"/>
</g>
<!-- granted -->
<g id="node12" class="node">
<title>granted</title>
<ellipse fill="none" stroke="#000000" cx="262.3242" cy="-18" rx="71.7874" ry="18"/>
<text text-anchor="middle" x="262.3242" y="-13.8" font-family="Times,serif" font-size="14.00" fill="#000000">Access Granted</text>
</g>
<!-- samples__siteID_siteID__sites_where_Has_Rows&#45;&gt;granted -->
<g id="edge11" class="edge">
<title>samples__siteID_siteID__sites_where_Has_Rows&#45;&gt;granted</title>
<path fill="none" stroke="#000000" d="M173.8436,-74.3771C189.4312,-64.4451 209.8612,-51.4278 227.1622,-40.4041"/>
<polygon fill="#000000" stroke="#000000" points="229.3293,-43.1735 235.882,-34.8481 225.5677,-37.27 229.3293,-43.1735"/>
</g>
<!-- denied -->
<g id="node14" class="node">
<title>denied</title>
<ellipse fill="none" stroke="#000000" cx="794.3242" cy="-18" rx="68.8581" ry="18"/>
<text text-anchor="middle" x="794.3242" y="-13.8" font-family="Times,serif" font-size="14.00" fill="#000000">Access Denied</text>
</g>
<!-- samples__siteID_siteID__sites_where_No_Rows&#45;&gt;denied -->
<g id="edge13" class="edge">
<title>samples__siteID_siteID__sites_where_No_Rows&#45;&gt;denied</title>
<path fill="none" stroke="#000000" d="M592.6063,-78.626C599.4582,-76.3963 606.612,-74.0992 613.3242,-72 655.0916,-58.9374 702.4998,-44.8191 738.3173,-34.2956"/>
<polygon fill="#000000" stroke="#000000" points="739.4874,-37.5999 748.098,-31.4267 737.5171,-30.8829 739.4874,-37.5999"/>
</g>
<!-- samples__siteID_siteID__sites_join_No_Rows&#45;&gt;denied -->
<g id="edge15" class="edge">
<title>samples__siteID_siteID__sites_join_No_Rows&#45;&gt;denied</title>
<path fill="none" stroke="#000000" d="M730.5836,-155.5875C743.1031,-128.5634 766.98,-77.0239 781.691,-45.2695"/>
<polygon fill="#000000" stroke="#000000" points="784.9116,-46.6438 785.9395,-36.0989 778.5601,-43.7013 784.9116,-46.6438"/>
</g>
<!-- samples__dataID_dataID__datasets_join_Has_Rows -->
<g id="node17" class="node">
<title>samples__dataID_dataID__datasets_join_Has_Rows</title>
<ellipse fill="none" stroke="#000000" cx="462.3242" cy="-256.8313" rx="47.4704" ry="18"/>
<text text-anchor="middle" x="462.3242" y="-252.6313" font-family="Times,serif" font-size="14.00" fill="#000000">Has rows</text>
</g>
<!-- samples__dataID_dataID__datasets_join&#45;&gt;samples__dataID_dataID__datasets_join_Has_Rows -->
<g id="edge17" class="edge">
<title>samples__dataID_dataID__datasets_join&#45;&gt;samples__dataID_dataID__datasets_join_Has_Rows</title>
<path fill="none" stroke="#000000" d="M631.7664,-324.297C620.5942,-319.783 609.141,-315.1683 598.3242,-310.8313 567.0335,-298.2852 531.6388,-284.2359 504.803,-273.6131"/>
<polygon fill="#000000" stroke="#000000" points="505.9131,-270.2884 495.3268,-269.8636 503.3376,-276.7974 505.9131,-270.2884"/>
</g>
<!-- samples__dataID_dataID__datasets_join_No_Rows -->
<g id="node21" class="node">
<title>samples__dataID_dataID__datasets_join_No_Rows</title>
<ellipse fill="none" stroke="#000000" cx="730.3242" cy="-256.8313" rx="44.0415" ry="18"/>
<text text-anchor="middle" x="730.3242" y="-252.6313" font-family="Times,serif" font-size="14.00" fill="#000000">No rows</text>
</g>
<!-- samples__dataID_dataID__datasets_join&#45;&gt;samples__dataID_dataID__datasets_join_No_Rows -->
<g id="edge23" class="edge">
<title>samples__dataID_dataID__datasets_join&#45;&gt;samples__dataID_dataID__datasets_join_No_Rows</title>
<path fill="none" stroke="#000000" d="M713.2211,-311.1596C716.0662,-302.1219 719.0144,-292.7571 721.6451,-284.4007"/>
<polygon fill="#000000" stroke="#000000" points="725.0038,-285.3871 724.6683,-274.7975 718.3269,-283.285 725.0038,-285.3871"/>
</g>
<!-- samples__dataID_dataID__datasets_where -->
<g id="node18" class="node">
<title>samples__dataID_dataID__datasets_where</title>
<ellipse fill="none" stroke="#000000" cx="431.3242" cy="-173.4156" rx="228.5204" ry="29.3315"/>
<text text-anchor="middle" x="431.3242" y="-177.6156" font-family="Times,serif" font-size="14.00" fill="#000000">WHERE IN</text>
<text text-anchor="middle" x="431.3242" y="-160.8156" font-family="Times,serif" font-size="14.00" fill="#000000">datasets.dataID = [&quot;NML&#45;WWPCR&quot;,&quot;NML&#45;WWGX&quot;]</text>
</g>
<!-- samples__dataID_dataID__datasets_join_Has_Rows&#45;&gt;samples__dataID_dataID__datasets_where -->
<g id="edge18" class="edge">
<title>samples__dataID_dataID__datasets_join_Has_Rows&#45;&gt;samples__dataID_dataID__datasets_where</title>
<path fill="none" stroke="#000000" d="M455.5977,-238.7313C452.7165,-230.9786 449.2323,-221.6032 445.8139,-212.4049"/>
<polygon fill="#000000" stroke="#000000" points="449.0678,-211.1132 442.3034,-202.9588 442.5063,-213.5517 449.0678,-211.1132"/>
</g>
<!-- samples__dataID_dataID__datasets_where_Has_Rows -->
<g id="node19" class="node">
<title>samples__dataID_dataID__datasets_where_Has_Rows</title>
<ellipse fill="none" stroke="#000000" cx="374.3242" cy="-90" rx="47.4704" ry="18"/>
<text text-anchor="middle" x="374.3242" y="-85.8" font-family="Times,serif" font-size="14.00" fill="#000000">Has rows</text>
</g>
<!-- samples__dataID_dataID__datasets_where&#45;&gt;samples__dataID_dataID__datasets_where_Has_Rows -->
<g id="edge19" class="edge">
<title>samples__dataID_dataID__datasets_where&#45;&gt;samples__dataID_dataID__datasets_where_Has_Rows</title>
<path fill="none" stroke="#000000" d="M411.0677,-143.7715C404.9239,-134.7805 398.2209,-124.9711 392.2421,-116.2215"/>
<polygon fill="#000000" stroke="#000000" points="395.0839,-114.1766 386.5522,-107.8947 389.3043,-118.1259 395.0839,-114.1766"/>
</g>
<!-- samples__dataID_dataID__datasets_where_No_Rows -->
<g id="node20" class="node">
<title>samples__dataID_dataID__datasets_where_No_Rows</title>
<ellipse fill="none" stroke="#000000" cx="666.3242" cy="-90" rx="44.0415" ry="18"/>
<text text-anchor="middle" x="666.3242" y="-85.8" font-family="Times,serif" font-size="14.00" fill="#000000">No rows</text>
</g>
<!-- samples__dataID_dataID__datasets_where&#45;&gt;samples__dataID_dataID__datasets_where_No_Rows -->
<g id="edge21" class="edge">
<title>samples__dataID_dataID__datasets_where&#45;&gt;samples__dataID_dataID__datasets_where_No_Rows</title>
<path fill="none" stroke="#000000" d="M509.2494,-145.7553C547.2687,-132.26 591.547,-116.543 623.3828,-105.2425"/>
<polygon fill="#000000" stroke="#000000" points="624.5896,-108.5282 632.8427,-101.8846 622.248,-101.9314 624.5896,-108.5282"/>
</g>
<!-- samples__dataID_dataID__datasets_where_Has_Rows&#45;&gt;granted -->
<g id="edge20" class="edge">
<title>samples__dataID_dataID__datasets_where_Has_Rows&#45;&gt;granted</title>
<path fill="none" stroke="#000000" d="M350.0219,-74.3771C334.5722,-64.4451 314.323,-51.4278 297.1751,-40.4041"/>
<polygon fill="#000000" stroke="#000000" points="298.8369,-37.3116 288.5324,-34.8481 295.0516,-43.1999 298.8369,-37.3116"/>
</g>
<!-- samples__dataID_dataID__datasets_where_No_Rows&#45;&gt;denied -->
<g id="edge22" class="edge">
<title>samples__dataID_dataID__datasets_where_No_Rows&#45;&gt;denied</title>
<path fill="none" stroke="#000000" d="M692.227,-75.4297C710.5536,-65.121 735.433,-51.1263 756.0436,-39.5328"/>
<polygon fill="#000000" stroke="#000000" points="757.8783,-42.5166 764.8781,-34.5634 754.4464,-36.4156 757.8783,-42.5166"/>
</g>
<!-- samples__dataID_dataID__datasets_join_No_Rows&#45;&gt;denied -->
<g id="edge24" class="edge">
<title>samples__dataID_dataID__datasets_join_No_Rows&#45;&gt;denied</title>
<path fill="none" stroke="#000000" d="M748.7347,-240.1616C758.362,-230.3052 769.3564,-217.0024 775.3242,-202.8313 797.2026,-150.8796 798.0653,-83.729 796.409,-46.3373"/>
<polygon fill="#000000" stroke="#000000" points="799.8946,-45.975 795.8626,-36.1774 792.9047,-46.3509 799.8946,-45.975"/>
</g>
<!-- sites__siteID_siteID__samples_join_No_Rows&#45;&gt;denied -->
<g id="edge26" class="edge">
<title>sites__siteID_siteID__samples_join_No_Rows&#45;&gt;denied</title>
<path fill="none" stroke="#000000" d="M803.7116,-429.4795C813.2987,-395.9145 832.3242,-321.1962 832.3242,-256.8313 832.3242,-256.8313 832.3242,-256.8313 832.3242,-173.4156 832.3242,-127.7468 816.6502,-76.6338 805.4352,-45.9068"/>
<polygon fill="#000000" stroke="#000000" points="808.6223,-44.4379 801.8318,-36.3052 802.0686,-46.8974 808.6223,-44.4379"/>
</g>
<!-- polygons__polygonID_polygonID__sites_where_No_Rows&#45;&gt;denied -->
<g id="edge28" class="edge">
<title>polygons__polygonID_polygonID__sites_where_No_Rows&#45;&gt;denied</title>
<path fill="none" stroke="#000000" d="M859.3841,-524.6121C863.0498,-490.7796 870.3242,-415.6381 870.3242,-352.1263 870.3242,-352.1263 870.3242,-352.1263 870.3242,-173.4156 870.3242,-123.6627 838.5036,-73.2252 816.0424,-43.8201"/>
<polygon fill="#000000" stroke="#000000" points="818.6326,-41.4515 809.704,-35.7479 813.127,-45.7746 818.6326,-41.4515"/>
</g>
<!-- polygons__polygonID_polygonID__sites_join_No_Rows&#45;&gt;denied -->
<g id="edge30" class="edge">
<title>polygons__polygonID_polygonID__sites_join_No_Rows&#45;&gt;denied</title>
<path fill="none" stroke="#000000" d="M929.3242,-703.417C929.3242,-671.186 929.3242,-601.511 929.3242,-542.7164 929.3242,-542.7164 929.3242,-542.7164 929.3242,-173.4156 929.3242,-113.8145 872.0372,-65.9138 832.099,-39.7613"/>
<polygon fill="#000000" stroke="#000000" points="833.9321,-36.7793 823.6172,-34.3597 830.1719,-42.6836 833.9321,-36.7793"/>
</g>
</g>
</svg>
