<?xml version="1.0" encoding="UTF-8" standalone="no"?>
<!DOCTYPE svg PUBLIC "-//W3C//DTD SVG 1.1//EN"
 "http://www.w3.org/Graphics/SVG/1.1/DTD/svg11.dtd">
<!-- Generated by graphviz version 2.40.1 (20161225.0304)
 -->
<!-- Title: G Pages: 1 -->
<svg width="830pt" height="1021pt"
 viewBox="0.00 0.00 830.35 1021.43" xmlns="http://www.w3.org/2000/svg" xmlns:xlink="http://www.w3.org/1999/xlink">
<g id="graph0" class="graph" transform="scale(1 1) rotate(0) translate(4 1017.4328)">
<title>G</title>
<polygon fill="#ffffff" stroke="transparent" points="-4,4 -4,-1017.4328 826.345,-1017.4328 826.345,4 -4,4"/>
<!-- polygons -->
<g id="node1" class="node">
<title>polygons</title>
<ellipse fill="none" stroke="#000000" cx="700.3242" cy="-995.4328" rx="46.3932" ry="18"/>
<text text-anchor="middle" x="700.3242" y="-991.2328" font-family="Times,serif" font-size="14.00" fill="#000000">polygons</text>
</g>
<!-- polygons__polygonID_polygonID__sites_join -->
<g id="node2" class="node">
<title>polygons__polygonID_polygonID__sites_join</title>
<ellipse fill="none" stroke="#000000" cx="700.3242" cy="-900.1377" rx="78.8882" ry="41.0911"/>
<text text-anchor="middle" x="700.3242" y="-912.7377" font-family="Times,serif" font-size="14.00" fill="#000000">LEFT JOIN sites</text>
<text text-anchor="middle" x="700.3242" y="-895.9377" font-family="Times,serif" font-size="14.00" fill="#000000">At level: 3</text>
<text text-anchor="middle" x="700.3242" y="-879.1377" font-family="Times,serif" font-size="14.00" fill="#000000">Required: true</text>
</g>
<!-- polygons&#45;&gt;polygons__polygonID_polygonID__sites_join -->
<g id="edge1" class="edge">
<title>polygons&#45;&gt;polygons__polygonID_polygonID__sites_join</title>
<path fill="none" stroke="#000000" d="M700.3242,-977.0589C700.3242,-969.7498 700.3242,-960.9402 700.3242,-951.9314"/>
<polygon fill="#000000" stroke="#000000" points="703.8243,-951.7449 700.3242,-941.7449 696.8243,-951.745 703.8243,-951.7449"/>
</g>
<!-- polygons__polygonID_polygonID__sites_join_Has_Rows -->
<g id="node3" class="node">
<title>polygons__polygonID_polygonID__sites_join_Has_Rows</title>
<ellipse fill="none" stroke="#000000" cx="663.3242" cy="-804.8427" rx="47.4704" ry="18"/>
<text text-anchor="middle" x="663.3242" y="-800.6427" font-family="Times,serif" font-size="14.00" fill="#000000">Has rows</text>
</g>
<!-- polygons__polygonID_polygonID__sites_join&#45;&gt;polygons__polygonID_polygonID__sites_join_Has_Rows -->
<g id="edge2" class="edge">
<title>polygons__polygonID_polygonID__sites_join&#45;&gt;polygons__polygonID_polygonID__sites_join_Has_Rows</title>
<path fill="none" stroke="#000000" d="M684.5256,-859.4477C680.968,-850.285 677.2742,-840.7715 673.9858,-832.302"/>
<polygon fill="#000000" stroke="#000000" points="677.2264,-830.978 670.3442,-822.9228 670.701,-833.5117 677.2264,-830.978"/>
</g>
<!-- polygons__polygonID_polygonID__sites_join_No_Rows -->
<g id="node24" class="node">
<title>polygons__polygonID_polygonID__sites_join_No_Rows</title>
<ellipse fill="none" stroke="#000000" cx="778.3242" cy="-721.4271" rx="44.0415" ry="18"/>
<text text-anchor="middle" x="778.3242" y="-717.2271" font-family="Times,serif" font-size="14.00" fill="#000000">No rows</text>
</g>
<!-- polygons__polygonID_polygonID__sites_join&#45;&gt;polygons__polygonID_polygonID__sites_join_No_Rows -->
<g id="edge29" class="edge">
<title>polygons__polygonID_polygonID__sites_join&#45;&gt;polygons__polygonID_polygonID__sites_join_No_Rows</title>
<path fill="none" stroke="#000000" d="M718.0237,-859.5855C732.8038,-825.7219 753.4715,-778.3686 766.368,-748.8209"/>
<polygon fill="#000000" stroke="#000000" points="769.6314,-750.0933 770.4239,-739.5281 763.2158,-747.2931 769.6314,-750.0933"/>
</g>
<!-- polygons__polygonID_polygonID__sites_where -->
<g id="node4" class="node">
<title>polygons__polygonID_polygonID__sites_where</title>
<ellipse fill="none" stroke="#000000" cx="624.3242" cy="-721.4271" rx="92.1488" ry="29.3315"/>
<text text-anchor="middle" x="624.3242" y="-725.6271" font-family="Times,serif" font-size="14.00" fill="#000000">WHERE</text>
<text text-anchor="middle" x="624.3242" y="-708.8271" font-family="Times,serif" font-size="14.00" fill="#000000">sites.siteID = &quot;HNJ&quot;</text>
</g>
<!-- polygons__polygonID_polygonID__sites_join_Has_Rows&#45;&gt;polygons__polygonID_polygonID__sites_where -->
<g id="edge3" class="edge">
<title>polygons__polygonID_polygonID__sites_join_Has_Rows&#45;&gt;polygons__polygonID_polygonID__sites_where</title>
<path fill="none" stroke="#000000" d="M654.8618,-786.7428C651.1654,-778.8366 646.6799,-769.2428 642.2979,-759.8702"/>
<polygon fill="#000000" stroke="#000000" points="645.3894,-758.2185 637.9834,-750.6421 639.0482,-761.1833 645.3894,-758.2185"/>
</g>
<!-- polygons__polygonID_polygonID__sites_where_Has_Rows -->
<g id="node5" class="node">
<title>polygons__polygonID_polygonID__sites_where_Has_Rows</title>
<ellipse fill="none" stroke="#000000" cx="588.3242" cy="-638.0114" rx="47.4704" ry="18"/>
<text text-anchor="middle" x="588.3242" y="-633.8114" font-family="Times,serif" font-size="14.00" fill="#000000">Has rows</text>
</g>
<!-- polygons__polygonID_polygonID__sites_where&#45;&gt;polygons__polygonID_polygonID__sites_where_Has_Rows -->
<g id="edge4" class="edge">
<title>polygons__polygonID_polygonID__sites_where&#45;&gt;polygons__polygonID_polygonID__sites_where_Has_Rows</title>
<path fill="none" stroke="#000000" d="M611.7332,-692.2523C607.9618,-683.5137 603.8413,-673.9659 600.1229,-665.3501"/>
<polygon fill="#000000" stroke="#000000" points="603.3117,-663.9059 596.1357,-656.1114 596.8847,-666.6797 603.3117,-663.9059"/>
</g>
<!-- polygons__polygonID_polygonID__sites_where_No_Rows -->
<g id="node23" class="node">
<title>polygons__polygonID_polygonID__sites_where_No_Rows</title>
<ellipse fill="none" stroke="#000000" cx="706.3242" cy="-542.7164" rx="44.0415" ry="18"/>
<text text-anchor="middle" x="706.3242" y="-538.5164" font-family="Times,serif" font-size="14.00" fill="#000000">No rows</text>
</g>
<!-- polygons__polygonID_polygonID__sites_where&#45;&gt;polygons__polygonID_polygonID__sites_where_No_Rows -->
<g id="edge27" class="edge">
<title>polygons__polygonID_polygonID__sites_where&#45;&gt;polygons__polygonID_polygonID__sites_where_No_Rows</title>
<path fill="none" stroke="#000000" d="M637.6815,-692.3164C653.2277,-658.4349 678.699,-602.9228 693.855,-569.8919"/>
<polygon fill="#000000" stroke="#000000" points="697.2157,-570.96 698.205,-560.4115 690.8535,-568.0407 697.2157,-570.96"/>
</g>
<!-- sites__siteID_siteID__samples_join -->
<g id="node6" class="node">
<title>sites__siteID_siteID__samples_join</title>
<ellipse fill="none" stroke="#000000" cx="551.3242" cy="-542.7164" rx="93.4765" ry="41.0911"/>
<text text-anchor="middle" x="551.3242" y="-555.3164" font-family="Times,serif" font-size="14.00" fill="#000000">LEFT JOIN samples</text>
<text text-anchor="middle" x="551.3242" y="-538.5164" font-family="Times,serif" font-size="14.00" fill="#000000">At level: 2</text>
<text text-anchor="middle" x="551.3242" y="-521.7164" font-family="Times,serif" font-size="14.00" fill="#000000">Required: true</text>
</g>
<!-- polygons__polygonID_polygonID__sites_where_Has_Rows&#45;&gt;sites__siteID_siteID__samples_join -->
<g id="edge5" class="edge">
<title>polygons__polygonID_polygonID__sites_where_Has_Rows&#45;&gt;sites__siteID_siteID__samples_join</title>
<path fill="none" stroke="#000000" d="M581.3648,-620.0872C578.319,-612.2425 574.5783,-602.6081 570.7836,-592.8347"/>
<polygon fill="#000000" stroke="#000000" points="574.0319,-591.5308 567.1497,-583.4756 567.5065,-594.0644 574.0319,-591.5308"/>
</g>
<!-- sites__siteID_siteID__samples_join_Has_Rows -->
<g id="node7" class="node">
<title>sites__siteID_siteID__samples_join_Has_Rows</title>
<ellipse fill="none" stroke="#000000" cx="538.3242" cy="-447.4214" rx="47.4704" ry="18"/>
<text text-anchor="middle" x="538.3242" y="-443.2214" font-family="Times,serif" font-size="14.00" fill="#000000">Has rows</text>
</g>
<!-- sites__siteID_siteID__samples_join&#45;&gt;sites__siteID_siteID__samples_join_Has_Rows -->
<g id="edge6" class="edge">
<title>sites__siteID_siteID__samples_join&#45;&gt;sites__siteID_siteID__samples_join_Has_Rows</title>
<path fill="none" stroke="#000000" d="M545.6979,-501.4728C544.5146,-492.7989 543.292,-483.8366 542.1907,-475.764"/>
<polygon fill="#000000" stroke="#000000" points="545.6461,-475.1986 540.8264,-465.7635 538.7103,-476.1448 545.6461,-475.1986"/>
</g>
<!-- sites__siteID_siteID__samples_join_No_Rows -->
<g id="node22" class="node">
<title>sites__siteID_siteID__samples_join_No_Rows</title>
<ellipse fill="none" stroke="#000000" cx="647.3242" cy="-447.4214" rx="44.0415" ry="18"/>
<text text-anchor="middle" x="647.3242" y="-443.2214" font-family="Times,serif" font-size="14.00" fill="#000000">No rows</text>
</g>
<!-- sites__siteID_siteID__samples_join&#45;&gt;sites__siteID_siteID__samples_join_No_Rows -->
<g id="edge25" class="edge">
<title>sites__siteID_siteID__samples_join&#45;&gt;sites__siteID_siteID__samples_join_No_Rows</title>
<path fill="none" stroke="#000000" d="M589.5418,-504.7795C600.8752,-493.5293 612.9684,-481.5249 623.147,-471.4211"/>
<polygon fill="#000000" stroke="#000000" points="625.8817,-473.638 630.5131,-464.1091 620.9502,-468.6701 625.8817,-473.638"/>
</g>
<!-- samples__siteID_siteID__sites_join -->
<g id="node8" class="node">
<title>samples__siteID_siteID__sites_join</title>
<ellipse fill="none" stroke="#000000" cx="359.3242" cy="-352.1263" rx="78.8882" ry="41.0911"/>
<text text-anchor="middle" x="359.3242" y="-364.7263" font-family="Times,serif" font-size="14.00" fill="#000000">LEFT JOIN sites</text>
<text text-anchor="middle" x="359.3242" y="-347.9263" font-family="Times,serif" font-size="14.00" fill="#000000">At level: 1</text>
<text text-anchor="middle" x="359.3242" y="-331.1263" font-family="Times,serif" font-size="14.00" fill="#000000">Required: true</text>
</g>
<!-- sites__siteID_siteID__samples_join_Has_Rows&#45;&gt;samples__siteID_siteID__sites_join -->
<g id="edge7" class="edge">
<title>sites__siteID_siteID__samples_join_Has_Rows&#45;&gt;samples__siteID_siteID__sites_join</title>
<path fill="none" stroke="#000000" d="M510.7478,-432.7403C487.6405,-420.4386 453.7315,-402.3864 423.8568,-386.4818"/>
<polygon fill="#000000" stroke="#000000" points="425.2031,-383.2335 414.7313,-381.6236 421.9136,-389.4124 425.2031,-383.2335"/>
</g>
<!-- samples__dataID_dataID__datasets_join -->
<g id="node16" class="node">
<title>samples__dataID_dataID__datasets_join</title>
<ellipse fill="none" stroke="#000000" cx="549.3242" cy="-352.1263" rx="92.8656" ry="41.0911"/>
<text text-anchor="middle" x="549.3242" y="-364.7263" font-family="Times,serif" font-size="14.00" fill="#000000">LEFT JOIN datasets</text>
<text text-anchor="middle" x="549.3242" y="-347.9263" font-family="Times,serif" font-size="14.00" fill="#000000">At level: 1</text>
<text text-anchor="middle" x="549.3242" y="-331.1263" font-family="Times,serif" font-size="14.00" fill="#000000">Required: true</text>
</g>
<!-- sites__siteID_siteID__samples_join_Has_Rows&#45;&gt;samples__dataID_dataID__datasets_join -->
<g id="edge16" class="edge">
<title>sites__siteID_siteID__samples_join_Has_Rows&#45;&gt;samples__dataID_dataID__datasets_join</title>
<path fill="none" stroke="#000000" d="M540.4452,-429.0475C541.2889,-421.7384 542.3058,-412.9288 543.3457,-403.92"/>
<polygon fill="#000000" stroke="#000000" points="546.8516,-404.0689 544.5215,-393.7335 539.8978,-403.2662 546.8516,-404.0689"/>
</g>
<!-- samples__siteID_siteID__sites_join_Has_Rows -->
<g id="node9" class="node">
<title>samples__siteID_siteID__sites_join_Has_Rows</title>
<ellipse fill="none" stroke="#000000" cx="181.3242" cy="-256.8313" rx="47.4704" ry="18"/>
<text text-anchor="middle" x="181.3242" y="-252.6313" font-family="Times,serif" font-size="14.00" fill="#000000">Has rows</text>
</g>
<!-- samples__siteID_siteID__sites_join&#45;&gt;samples__siteID_siteID__sites_join_Has_Rows -->
<g id="edge8" class="edge">
<title>samples__siteID_siteID__sites_join&#45;&gt;samples__siteID_siteID__sites_join_Has_Rows</title>
<path fill="none" stroke="#000000" d="M303.9797,-322.4967C275.9264,-307.478 242.6414,-289.6584 217.8283,-276.3743"/>
<polygon fill="#000000" stroke="#000000" points="219.2299,-273.1547 208.7619,-271.5204 215.926,-279.3259 219.2299,-273.1547"/>
</g>
<!-- samples__siteID_siteID__sites_join_No_Rows -->
<g id="node15" class="node">
<title>samples__siteID_siteID__sites_join_No_Rows</title>
<ellipse fill="none" stroke="#000000" cx="571.3242" cy="-173.4156" rx="44.0415" ry="18"/>
<text text-anchor="middle" x="571.3242" y="-169.2156" font-family="Times,serif" font-size="14.00" fill="#000000">No rows</text>
</g>
<!-- samples__siteID_siteID__sites_join&#45;&gt;samples__siteID_siteID__sites_join_No_Rows -->
<g id="edge14" class="edge">
<title>samples__siteID_siteID__sites_join&#45;&gt;samples__siteID_siteID__sites_join_No_Rows</title>
<path fill="none" stroke="#000000" d="M400.9557,-317.0321C443.4443,-281.2152 508.1394,-226.6788 544.354,-196.1509"/>
<polygon fill="#000000" stroke="#000000" points="546.6701,-198.7762 552.0601,-189.6549 542.1584,-193.4241 546.6701,-198.7762"/>
</g>
<!-- samples__siteID_siteID__sites_where -->
<g id="node10" class="node">
<title>samples__siteID_siteID__sites_where</title>
<ellipse fill="none" stroke="#000000" cx="92.3242" cy="-173.4156" rx="92.1488" ry="29.3315"/>
<text text-anchor="middle" x="92.3242" y="-177.6156" font-family="Times,serif" font-size="14.00" fill="#000000">WHERE</text>
<text text-anchor="middle" x="92.3242" y="-160.8156" font-family="Times,serif" font-size="14.00" fill="#000000">sites.siteID = &quot;HNJ&quot;</text>
</g>
<!-- samples__siteID_siteID__sites_join_Has_Rows&#45;&gt;samples__siteID_siteID__sites_where -->
<g id="edge9" class="edge">
<title>samples__siteID_siteID__sites_join_Has_Rows&#45;&gt;samples__siteID_siteID__sites_where</title>
<path fill="none" stroke="#000000" d="M163.3138,-239.9509C153.6472,-230.8909 141.3587,-219.3734 129.7329,-208.4771"/>
<polygon fill="#000000" stroke="#000000" points="131.9128,-205.7232 122.223,-201.4384 127.1259,-210.8306 131.9128,-205.7232"/>
</g>
<!-- samples__siteID_siteID__sites_where_Has_Rows -->
<g id="node11" class="node">
<title>samples__siteID_siteID__sites_where_Has_Rows</title>
<ellipse fill="none" stroke="#000000" cx="96.3242" cy="-90" rx="47.4704" ry="18"/>
<text text-anchor="middle" x="96.3242" y="-85.8" font-family="Times,serif" font-size="14.00" fill="#000000">Has rows</text>
</g>
<!-- samples__siteID_siteID__sites_where&#45;&gt;samples__siteID_siteID__sites_where_Has_Rows -->
<g id="edge10" class="edge">
<title>samples__siteID_siteID__sites_where&#45;&gt;samples__siteID_siteID__sites_where_Has_Rows</title>
<path fill="none" stroke="#000000" d="M93.7458,-143.7715C94.1392,-135.5664 94.5654,-126.6796 94.9557,-118.5388"/>
<polygon fill="#000000" stroke="#000000" points="98.4595,-118.5428 95.4426,-108.3866 91.4675,-118.2074 98.4595,-118.5428"/>
</g>
<!-- samples__siteID_siteID__sites_where_No_Rows -->
<g id="node13" class="node">
<title>samples__siteID_siteID__sites_where_No_Rows</title>
<ellipse fill="none" stroke="#000000" cx="402.3242" cy="-90" rx="44.0415" ry="18"/>
<text text-anchor="middle" x="402.3242" y="-85.8" font-family="Times,serif" font-size="14.00" fill="#000000">No rows</text>
</g>
<!-- samples__siteID_siteID__sites_where&#45;&gt;samples__siteID_siteID__sites_where_No_Rows -->
<g id="edge12" class="edge">
<title>samples__siteID_siteID__sites_where&#45;&gt;samples__siteID_siteID__sites_where_No_Rows</title>
<path fill="none" stroke="#000000" d="M160.5618,-153.4633C171.8265,-150.2482 183.3926,-146.9947 194.3242,-144 249.2888,-128.9425 312.7166,-112.628 354.9377,-101.9178"/>
<polygon fill="#000000" stroke="#000000" points="355.8334,-105.3016 364.668,-99.4535 354.1148,-98.5158 355.8334,-105.3016"/>
</g>
<!-- granted -->
<g id="node12" class="node">
<title>granted</title>
<ellipse fill="none" stroke="#000000" cx="181.3242" cy="-18" rx="71.7874" ry="18"/>
<text text-anchor="middle" x="181.3242" y="-13.8" font-family="Times,serif" font-size="14.00" fill="#000000">Access Granted</text>
</g>
<!-- samples__siteID_siteID__sites_where_Has_Rows&#45;&gt;granted -->
<g id="edge11" class="edge">
<title>samples__siteID_siteID__sites_where_Has_Rows&#45;&gt;granted</title>
<path fill="none" stroke="#000000" d="M116.0386,-73.3008C127.0617,-63.9636 140.9883,-52.1669 153.1448,-41.8697"/>
<polygon fill="#000000" stroke="#000000" points="155.4611,-44.4945 160.8294,-35.3603 150.9367,-39.1532 155.4611,-44.4945"/>
</g>
<!-- denied -->
<g id="node14" class="node">
<title>denied</title>
<ellipse fill="none" stroke="#000000" cx="643.3242" cy="-18" rx="68.8581" ry="18"/>
<text text-anchor="middle" x="643.3242" y="-13.8" font-family="Times,serif" font-size="14.00" fill="#000000">Access Denied</text>
</g>
<!-- samples__siteID_siteID__sites_where_No_Rows&#45;&gt;denied -->
<g id="edge13" class="edge">
<title>samples__siteID_siteID__sites_where_No_Rows&#45;&gt;denied</title>
<path fill="none" stroke="#000000" d="M437.8846,-79.3762C477.4072,-67.5686 541.7339,-48.3507 587.8809,-34.564"/>
<polygon fill="#000000" stroke="#000000" points="589.1488,-37.8381 597.7284,-31.622 587.1449,-31.1311 589.1488,-37.8381"/>
</g>
<!-- samples__siteID_siteID__sites_join_No_Rows&#45;&gt;denied -->
<g id="edge15" class="edge">
<title>samples__siteID_siteID__sites_join_No_Rows&#45;&gt;denied</title>
<path fill="none" stroke="#000000" d="M579.5836,-155.5875C592.1031,-128.5634 615.98,-77.0239 630.691,-45.2695"/>
<polygon fill="#000000" stroke="#000000" points="633.9116,-46.6438 634.9395,-36.0989 627.5601,-43.7013 633.9116,-46.6438"/>
</g>
<!-- samples__dataID_dataID__datasets_join_Has_Rows -->
<g id="node17" class="node">
<title>samples__dataID_dataID__datasets_join_Has_Rows</title>
<ellipse fill="none" stroke="#000000" cx="369.3242" cy="-256.8313" rx="47.4704" ry="18"/>
<text text-anchor="middle" x="369.3242" y="-252.6313" font-family="Times,serif" font-size="14.00" fill="#000000">Has rows</text>
</g>
<!-- samples__dataID_dataID__datasets_join&#45;&gt;samples__dataID_dataID__datasets_join_Has_Rows -->
<g id="edge17" class="edge">
<title>samples__dataID_dataID__datasets_join&#45;&gt;samples__dataID_dataID__datasets_join_Has_Rows</title>
<path fill="none" stroke="#000000" d="M489.3869,-320.3945C461.9402,-305.8637 430.2793,-289.1019 406.3632,-276.4403"/>
<polygon fill="#000000" stroke="#000000" points="407.7519,-273.2153 397.2764,-271.6296 404.4766,-279.4018 407.7519,-273.2153"/>
</g>
<!-- samples__dataID_dataID__datasets_join_No_Rows -->
<g id="node21" class="node">
<title>samples__dataID_dataID__datasets_join_No_Rows</title>
<ellipse fill="none" stroke="#000000" cx="583.3242" cy="-256.8313" rx="44.0415" ry="18"/>
<text text-anchor="middle" x="583.3242" y="-252.6313" font-family="Times,serif" font-size="14.00" fill="#000000">No rows</text>
</g>
<!-- samples__dataID_dataID__datasets_join&#45;&gt;samples__dataID_dataID__datasets_join_No_Rows -->
<g id="edge23" class="edge">
<title>samples__dataID_dataID__datasets_join&#45;&gt;samples__dataID_dataID__datasets_join_No_Rows</title>
<path fill="none" stroke="#000000" d="M563.9406,-311.1596C567.1651,-302.1219 570.5064,-292.7571 573.4879,-284.4007"/>
<polygon fill="#000000" stroke="#000000" points="576.8501,-285.3922 576.9141,-274.7975 570.2572,-283.0399 576.8501,-285.3922"/>
</g>
<!-- samples__dataID_dataID__datasets_where -->
<g id="node18" class="node">
<title>samples__dataID_dataID__datasets_where</title>
<ellipse fill="none" stroke="#000000" cx="356.3242" cy="-173.4156" rx="153.1956" ry="29.3315"/>
<text text-anchor="middle" x="356.3242" y="-177.6156" font-family="Times,serif" font-size="14.00" fill="#000000">WHERE</text>
<text text-anchor="middle" x="356.3242" y="-160.8156" font-family="Times,serif" font-size="14.00" fill="#000000">datasets.dataID = &quot;NML&#45;WWPCR&quot;</text>
</g>
<!-- samples__dataID_dataID__datasets_join_Has_Rows&#45;&gt;samples__dataID_dataID__datasets_where -->
<g id="edge18" class="edge">
<title>samples__dataID_dataID__datasets_join_Has_Rows&#45;&gt;samples__dataID_dataID__datasets_where</title>
<path fill="none" stroke="#000000" d="M366.5034,-238.7313C365.3206,-231.1418 363.8955,-221.9972 362.4911,-212.986"/>
<polygon fill="#000000" stroke="#000000" points="365.9266,-212.3005 360.9284,-202.9588 359.0101,-213.3785 365.9266,-212.3005"/>
</g>
<!-- samples__dataID_dataID__datasets_where_Has_Rows -->
<g id="node19" class="node">
<title>samples__dataID_dataID__datasets_where_Has_Rows</title>
<ellipse fill="none" stroke="#000000" cx="265.3242" cy="-90" rx="47.4704" ry="18"/>
<text text-anchor="middle" x="265.3242" y="-85.8" font-family="Times,serif" font-size="14.00" fill="#000000">Has rows</text>
</g>
<!-- samples__dataID_dataID__datasets_where&#45;&gt;samples__dataID_dataID__datasets_where_Has_Rows -->
<g id="edge19" class="edge">
<title>samples__dataID_dataID__datasets_where&#45;&gt;samples__dataID_dataID__datasets_where_Has_Rows</title>
<path fill="none" stroke="#000000" d="M324.7523,-144.475C313.7892,-134.4257 301.6324,-123.282 291.1849,-113.7053"/>
<polygon fill="#000000" stroke="#000000" points="293.3137,-110.9087 283.577,-106.7315 288.5836,-116.0688 293.3137,-110.9087"/>
</g>
<!-- samples__dataID_dataID__datasets_where_No_Rows -->
<g id="node20" class="node">
<title>samples__dataID_dataID__datasets_where_No_Rows</title>
<ellipse fill="none" stroke="#000000" cx="522.3242" cy="-90" rx="44.0415" ry="18"/>
<text text-anchor="middle" x="522.3242" y="-85.8" font-family="Times,serif" font-size="14.00" fill="#000000">No rows</text>
</g>
<!-- samples__dataID_dataID__datasets_where&#45;&gt;samples__dataID_dataID__datasets_where_No_Rows -->
<g id="edge21" class="edge">
<title>samples__dataID_dataID__datasets_where&#45;&gt;samples__dataID_dataID__datasets_where_No_Rows</title>
<path fill="none" stroke="#000000" d="M411.1389,-145.8711C435.433,-133.6632 463.3828,-119.6183 485.1818,-108.6642"/>
<polygon fill="#000000" stroke="#000000" points="486.7553,-111.7906 494.1191,-104.1732 483.6122,-105.5359 486.7553,-111.7906"/>
</g>
<!-- samples__dataID_dataID__datasets_where_Has_Rows&#45;&gt;granted -->
<g id="edge20" class="edge">
<title>samples__dataID_dataID__datasets_where_Has_Rows&#45;&gt;granted</title>
<path fill="none" stroke="#000000" d="M245.8418,-73.3008C234.9484,-63.9636 221.1857,-52.1669 209.1722,-41.8697"/>
<polygon fill="#000000" stroke="#000000" points="211.4484,-39.2109 201.578,-35.3603 206.8928,-44.5257 211.4484,-39.2109"/>
</g>
<!-- samples__dataID_dataID__datasets_where_No_Rows&#45;&gt;denied -->
<g id="edge22" class="edge">
<title>samples__dataID_dataID__datasets_where_No_Rows&#45;&gt;denied</title>
<path fill="none" stroke="#000000" d="M547.3955,-75.0816C564.4863,-64.9118 587.4012,-51.2765 606.5488,-39.8829"/>
<polygon fill="#000000" stroke="#000000" points="608.5206,-42.7824 615.3245,-34.661 604.9411,-36.7668 608.5206,-42.7824"/>
</g>
<!-- samples__dataID_dataID__datasets_join_No_Rows&#45;&gt;denied -->
<g id="edge24" class="edge">
<title>samples__dataID_dataID__datasets_join_No_Rows&#45;&gt;denied</title>
<path fill="none" stroke="#000000" d="M600.0923,-239.8713C608.8619,-229.9241 618.8792,-216.6271 624.3242,-202.8313 645.0194,-150.397 646.3142,-83.4227 645.0514,-46.1915"/>
<polygon fill="#000000" stroke="#000000" points="648.5431,-45.9193 644.6189,-36.078 641.5495,-46.2184 648.5431,-45.9193"/>
</g>
<!-- sites__siteID_siteID__samples_join_No_Rows&#45;&gt;denied -->
<g id="edge26" class="edge">
<title>sites__siteID_siteID__samples_join_No_Rows&#45;&gt;denied</title>
<path fill="none" stroke="#000000" d="M652.7116,-429.4795C662.2987,-395.9145 681.3242,-321.1962 681.3242,-256.8313 681.3242,-256.8313 681.3242,-256.8313 681.3242,-173.4156 681.3242,-127.7468 665.6502,-76.6338 654.4352,-45.9068"/>
<polygon fill="#000000" stroke="#000000" points="657.6223,-44.4379 650.8318,-36.3052 651.0686,-46.8974 657.6223,-44.4379"/>
</g>
<!-- polygons__polygonID_polygonID__sites_where_No_Rows&#45;&gt;denied -->
<g id="edge28" class="edge">
<title>polygons__polygonID_polygonID__sites_where_No_Rows&#45;&gt;denied</title>
<path fill="none" stroke="#000000" d="M708.3841,-524.6121C712.0498,-490.7796 719.3242,-415.6381 719.3242,-352.1263 719.3242,-352.1263 719.3242,-352.1263 719.3242,-173.4156 719.3242,-123.6627 687.5036,-73.2252 665.0424,-43.8201"/>
<polygon fill="#000000" stroke="#000000" points="667.6326,-41.4515 658.704,-35.7479 662.127,-45.7746 667.6326,-41.4515"/>
</g>
<!-- polygons__polygonID_polygonID__sites_join_No_Rows&#45;&gt;denied -->
<g id="edge30" class="edge">
<title>polygons__polygonID_polygonID__sites_join_No_Rows&#45;&gt;denied</title>
<path fill="none" stroke="#000000" d="M778.3242,-703.417C778.3242,-671.186 778.3242,-601.511 778.3242,-542.7164 778.3242,-542.7164 778.3242,-542.7164 778.3242,-173.4156 778.3242,-113.8145 721.0372,-65.9138 681.099,-39.7613"/>
<polygon fill="#000000" stroke="#000000" points="682.9321,-36.7793 672.6172,-34.3597 679.1719,-42.6836 682.9321,-36.7793"/>
</g>
</g>
</svg>
