<?xml version="1.0" encoding="UTF-8" standalone="no"?>
<!DOCTYPE svg PUBLIC "-//W3C//DTD SVG 1.1//EN"
 "http://www.w3.org/Graphics/SVG/1.1/DTD/svg11.dtd">
<!-- Generated by graphviz version 2.40.1 (20161225.0304)
 -->
<!-- Title: G Pages: 1 -->
<svg width="1060pt" height="473pt"
 viewBox="0.00 0.00 1059.78 473.42" xmlns="http://www.w3.org/2000/svg" xmlns:xlink="http://www.w3.org/1999/xlink">
<g id="graph0" class="graph" transform="scale(1 1) rotate(0) translate(4 469.4214)">
<title>G</title>
<polygon fill="#ffffff" stroke="transparent" points="-4,4 -4,-469.4214 1055.7808,-469.4214 1055.7808,4 -4,4"/>
<!-- samples -->
<g id="node1" class="node">
<title>samples</title>
<ellipse fill="none" stroke="#000000" cx="607.7601" cy="-447.4214" rx="42.2913" ry="18"/>
<text text-anchor="middle" x="607.7601" y="-443.2214" font-family="Times,serif" font-size="14.00" fill="#000000">samples</text>
</g>
<!-- samples__siteID_siteID__sites_join -->
<g id="node2" class="node">
<title>samples__siteID_siteID__sites_join</title>
<ellipse fill="none" stroke="#000000" cx="729.7601" cy="-352.1263" rx="78.8882" ry="41.0911"/>
<text text-anchor="middle" x="729.7601" y="-364.7263" font-family="Times,serif" font-size="14.00" fill="#000000">LEFT JOIN sites</text>
<text text-anchor="middle" x="729.7601" y="-347.9263" font-family="Times,serif" font-size="14.00" fill="#000000">At level: 1</text>
<text text-anchor="middle" x="729.7601" y="-331.1263" font-family="Times,serif" font-size="14.00" fill="#000000">Required: true</text>
</g>
<!-- samples&#45;&gt;samples__siteID_siteID__sites_join -->
<g id="edge1" class="edge">
<title>samples&#45;&gt;samples__siteID_siteID__sites_join</title>
<path fill="none" stroke="#000000" d="M628.1801,-431.4711C641.7684,-420.8572 660.2734,-406.4028 677.7677,-392.7379"/>
<polygon fill="#000000" stroke="#000000" points="679.987,-395.4457 685.7133,-386.5316 675.6779,-389.9291 679.987,-395.4457"/>
</g>
<!-- samples__dataID_dataID__datasets_join -->
<g id="node10" class="node">
<title>samples__dataID_dataID__datasets_join</title>
<ellipse fill="none" stroke="#000000" cx="485.7601" cy="-352.1263" rx="92.8656" ry="41.0911"/>
<text text-anchor="middle" x="485.7601" y="-364.7263" font-family="Times,serif" font-size="14.00" fill="#000000">LEFT JOIN datasets</text>
<text text-anchor="middle" x="485.7601" y="-347.9263" font-family="Times,serif" font-size="14.00" fill="#000000">At level: 1</text>
<text text-anchor="middle" x="485.7601" y="-331.1263" font-family="Times,serif" font-size="14.00" fill="#000000">Required: true</text>
</g>
<!-- samples&#45;&gt;samples__dataID_dataID__datasets_join -->
<g id="edge10" class="edge">
<title>samples&#45;&gt;samples__dataID_dataID__datasets_join</title>
<path fill="none" stroke="#000000" d="M587.34,-431.4711C574.3405,-421.3171 556.8411,-407.6482 540.0317,-394.5182"/>
<polygon fill="#000000" stroke="#000000" points="541.8932,-391.5311 531.8579,-388.1337 537.5842,-397.0477 541.8932,-391.5311"/>
</g>
<!-- samples__siteID_siteID__sites_join_Has_Rows -->
<g id="node3" class="node">
<title>samples__siteID_siteID__sites_join_Has_Rows</title>
<ellipse fill="none" stroke="#000000" cx="729.7601" cy="-256.8313" rx="47.4704" ry="18"/>
<text text-anchor="middle" x="729.7601" y="-252.6313" font-family="Times,serif" font-size="14.00" fill="#000000">Has rows</text>
</g>
<!-- samples__siteID_siteID__sites_join&#45;&gt;samples__siteID_siteID__sites_join_Has_Rows -->
<g id="edge2" class="edge">
<title>samples__siteID_siteID__sites_join&#45;&gt;samples__siteID_siteID__sites_join_Has_Rows</title>
<path fill="none" stroke="#000000" d="M729.7601,-310.6057C729.7601,-302.0541 729.7601,-293.2347 729.7601,-285.2742"/>
<polygon fill="#000000" stroke="#000000" points="733.2602,-285.0572 729.7601,-275.0572 726.2602,-285.0572 733.2602,-285.0572"/>
</g>
<!-- samples__siteID_siteID__sites_join_No_Rows -->
<g id="node9" class="node">
<title>samples__siteID_siteID__sites_join_No_Rows</title>
<ellipse fill="none" stroke="#000000" cx="1007.7601" cy="-173.4156" rx="44.0415" ry="18"/>
<text text-anchor="middle" x="1007.7601" y="-169.2156" font-family="Times,serif" font-size="14.00" fill="#000000">No rows</text>
</g>
<!-- samples__siteID_siteID__sites_join&#45;&gt;samples__siteID_siteID__sites_join_No_Rows -->
<g id="edge8" class="edge">
<title>samples__siteID_siteID__sites_join&#45;&gt;samples__siteID_siteID__sites_join_No_Rows</title>
<path fill="none" stroke="#000000" d="M779.782,-319.97C836.5875,-283.453 927.5966,-224.9482 975.6446,-194.0609"/>
<polygon fill="#000000" stroke="#000000" points="977.5791,-196.9782 984.0983,-188.6265 973.7938,-191.0899 977.5791,-196.9782"/>
</g>
<!-- samples__siteID_siteID__sites_where -->
<g id="node4" class="node">
<title>samples__siteID_siteID__sites_where</title>
<ellipse fill="none" stroke="#000000" cx="729.7601" cy="-173.4156" rx="216.315" ry="29.3315"/>
<text text-anchor="middle" x="729.7601" y="-177.6156" font-family="Times,serif" font-size="14.00" fill="#000000">WHERE IN</text>
<text text-anchor="middle" x="729.7601" y="-160.8156" font-family="Times,serif" font-size="14.00" fill="#000000">sites.healthReg = [&quot;Whitehorse&quot;,&quot;Haines Junction&quot;]</text>
</g>
<!-- samples__siteID_siteID__sites_join_Has_Rows&#45;&gt;samples__siteID_siteID__sites_where -->
<g id="edge3" class="edge">
<title>samples__siteID_siteID__sites_join_Has_Rows&#45;&gt;samples__siteID_siteID__sites_where</title>
<path fill="none" stroke="#000000" d="M729.7601,-238.7313C729.7601,-231.1418 729.7601,-221.9972 729.7601,-212.986"/>
<polygon fill="#000000" stroke="#000000" points="733.2602,-212.9587 729.7601,-202.9588 726.2602,-212.9588 733.2602,-212.9587"/>
</g>
<!-- samples__siteID_siteID__sites_where_Has_Rows -->
<g id="node5" class="node">
<title>samples__siteID_siteID__sites_where_Has_Rows</title>
<ellipse fill="none" stroke="#000000" cx="410.7601" cy="-90" rx="47.4704" ry="18"/>
<text text-anchor="middle" x="410.7601" y="-85.8" font-family="Times,serif" font-size="14.00" fill="#000000">Has rows</text>
</g>
<!-- samples__siteID_siteID__sites_where&#45;&gt;samples__siteID_siteID__sites_where_Has_Rows -->
<g id="edge4" class="edge">
<title>samples__siteID_siteID__sites_where&#45;&gt;samples__siteID_siteID__sites_where_Has_Rows</title>
<path fill="none" stroke="#000000" d="M629.7017,-147.2513C573.1344,-132.4594 504.927,-114.6238 459.8379,-102.8334"/>
<polygon fill="#000000" stroke="#000000" points="460.5795,-99.4097 450.0193,-100.2659 458.8086,-106.182 460.5795,-99.4097"/>
</g>
<!-- samples__siteID_siteID__sites_where_No_Rows -->
<g id="node7" class="node">
<title>samples__siteID_siteID__sites_where_No_Rows</title>
<ellipse fill="none" stroke="#000000" cx="643.7601" cy="-90" rx="44.0415" ry="18"/>
<text text-anchor="middle" x="643.7601" y="-85.8" font-family="Times,serif" font-size="14.00" fill="#000000">No rows</text>
</g>
<!-- samples__siteID_siteID__sites_where&#45;&gt;samples__siteID_siteID__sites_where_No_Rows -->
<g id="edge6" class="edge">
<title>samples__siteID_siteID__sites_where&#45;&gt;samples__siteID_siteID__sites_where_No_Rows</title>
<path fill="none" stroke="#000000" d="M699.6814,-144.2409C689.4385,-134.3057 678.1171,-123.3246 668.3555,-113.8563"/>
<polygon fill="#000000" stroke="#000000" points="670.5266,-111.0862 660.9117,-106.6362 665.6529,-116.1109 670.5266,-111.0862"/>
</g>
<!-- granted -->
<g id="node6" class="node">
<title>granted</title>
<ellipse fill="none" stroke="#000000" cx="334.7601" cy="-18" rx="71.7874" ry="18"/>
<text text-anchor="middle" x="334.7601" y="-13.8" font-family="Times,serif" font-size="14.00" fill="#000000">Access Granted</text>
</g>
<!-- samples__siteID_siteID__sites_where_Has_Rows&#45;&gt;granted -->
<g id="edge5" class="edge">
<title>samples__siteID_siteID__sites_where_Has_Rows&#45;&gt;granted</title>
<path fill="none" stroke="#000000" d="M392.7491,-72.937C383.1416,-63.8352 371.151,-52.4756 360.5705,-42.4519"/>
<polygon fill="#000000" stroke="#000000" points="362.8363,-39.7773 353.1697,-35.4407 358.0221,-44.859 362.8363,-39.7773"/>
</g>
<!-- denied -->
<g id="node8" class="node">
<title>denied</title>
<ellipse fill="none" stroke="#000000" cx="560.7601" cy="-18" rx="68.8581" ry="18"/>
<text text-anchor="middle" x="560.7601" y="-13.8" font-family="Times,serif" font-size="14.00" fill="#000000">Access Denied</text>
</g>
<!-- samples__siteID_siteID__sites_where_No_Rows&#45;&gt;denied -->
<g id="edge7" class="edge">
<title>samples__siteID_siteID__sites_where_No_Rows&#45;&gt;denied</title>
<path fill="none" stroke="#000000" d="M624.9261,-73.6621C614.0973,-64.2684 600.2984,-52.2983 588.2737,-41.8672"/>
<polygon fill="#000000" stroke="#000000" points="590.5243,-39.1862 580.6769,-35.2773 585.9374,-44.4739 590.5243,-39.1862"/>
</g>
<!-- samples__siteID_siteID__sites_join_No_Rows&#45;&gt;denied -->
<g id="edge9" class="edge">
<title>samples__siteID_siteID__sites_join_No_Rows&#45;&gt;denied</title>
<path fill="none" stroke="#000000" d="M983.1984,-158.4603C974.4156,-153.4706 964.3228,-148.1347 954.7601,-144 839.7106,-94.2554 698.398,-53.7729 620.1109,-33.0454"/>
<polygon fill="#000000" stroke="#000000" points="620.9802,-29.6551 610.4188,-30.4951 619.1989,-36.4247 620.9802,-29.6551"/>
</g>
<!-- samples__dataID_dataID__datasets_join_Has_Rows -->
<g id="node11" class="node">
<title>samples__dataID_dataID__datasets_join_Has_Rows</title>
<ellipse fill="none" stroke="#000000" cx="302.7601" cy="-256.8313" rx="47.4704" ry="18"/>
<text text-anchor="middle" x="302.7601" y="-252.6313" font-family="Times,serif" font-size="14.00" fill="#000000">Has rows</text>
</g>
<!-- samples__dataID_dataID__datasets_join&#45;&gt;samples__dataID_dataID__datasets_join_Has_Rows -->
<g id="edge11" class="edge">
<title>samples__dataID_dataID__datasets_join&#45;&gt;samples__dataID_dataID__datasets_join_Has_Rows</title>
<path fill="none" stroke="#000000" d="M425.3319,-320.6591C397.0833,-305.949 364.3513,-288.9042 339.8214,-276.1305"/>
<polygon fill="#000000" stroke="#000000" points="341.3342,-272.9722 330.8482,-271.4578 338.1011,-279.1809 341.3342,-272.9722"/>
</g>
<!-- samples__dataID_dataID__datasets_join_No_Rows -->
<g id="node15" class="node">
<title>samples__dataID_dataID__datasets_join_No_Rows</title>
<ellipse fill="none" stroke="#000000" cx="485.7601" cy="-256.8313" rx="44.0415" ry="18"/>
<text text-anchor="middle" x="485.7601" y="-252.6313" font-family="Times,serif" font-size="14.00" fill="#000000">No rows</text>
</g>
<!-- samples__dataID_dataID__datasets_join&#45;&gt;samples__dataID_dataID__datasets_join_No_Rows -->
<g id="edge17" class="edge">
<title>samples__dataID_dataID__datasets_join&#45;&gt;samples__dataID_dataID__datasets_join_No_Rows</title>
<path fill="none" stroke="#000000" d="M485.7601,-310.6057C485.7601,-302.0541 485.7601,-293.2347 485.7601,-285.2742"/>
<polygon fill="#000000" stroke="#000000" points="489.2602,-285.0572 485.7601,-275.0572 482.2602,-285.0572 489.2602,-285.0572"/>
</g>
<!-- samples__dataID_dataID__datasets_where -->
<g id="node12" class="node">
<title>samples__dataID_dataID__datasets_where</title>
<ellipse fill="none" stroke="#000000" cx="228.7601" cy="-173.4156" rx="228.5204" ry="29.3315"/>
<text text-anchor="middle" x="228.7601" y="-177.6156" font-family="Times,serif" font-size="14.00" fill="#000000">WHERE IN</text>
<text text-anchor="middle" x="228.7601" y="-160.8156" font-family="Times,serif" font-size="14.00" fill="#000000">datasets.dataID = [&quot;NML&#45;WWPCR&quot;,&quot;NML&#45;WWGX&quot;]</text>
</g>
<!-- samples__dataID_dataID__datasets_join_Has_Rows&#45;&gt;samples__dataID_dataID__datasets_where -->
<g id="edge12" class="edge">
<title>samples__dataID_dataID__datasets_join_Has_Rows&#45;&gt;samples__dataID_dataID__datasets_where</title>
<path fill="none" stroke="#000000" d="M287.4272,-239.5475C279.9381,-231.1054 270.6203,-220.6021 261.6316,-210.4697"/>
<polygon fill="#000000" stroke="#000000" points="264.1124,-207.992 254.8578,-202.834 258.8759,-212.6374 264.1124,-207.992"/>
</g>
<!-- samples__dataID_dataID__datasets_where_Has_Rows -->
<g id="node13" class="node">
<title>samples__dataID_dataID__datasets_where_Has_Rows</title>
<ellipse fill="none" stroke="#000000" cx="192.7601" cy="-90" rx="47.4704" ry="18"/>
<text text-anchor="middle" x="192.7601" y="-85.8" font-family="Times,serif" font-size="14.00" fill="#000000">Has rows</text>
</g>
<!-- samples__dataID_dataID__datasets_where&#45;&gt;samples__dataID_dataID__datasets_where_Has_Rows -->
<g id="edge13" class="edge">
<title>samples__dataID_dataID__datasets_where&#45;&gt;samples__dataID_dataID__datasets_where_Has_Rows</title>
<path fill="none" stroke="#000000" d="M215.9665,-143.7715C212.2478,-135.1551 208.2049,-125.7872 204.5509,-117.3206"/>
<polygon fill="#000000" stroke="#000000" points="207.659,-115.6893 200.483,-107.8947 201.232,-118.4631 207.659,-115.6893"/>
</g>
<!-- samples__dataID_dataID__datasets_where_No_Rows -->
<g id="node14" class="node">
<title>samples__dataID_dataID__datasets_where_No_Rows</title>
<ellipse fill="none" stroke="#000000" cx="301.7601" cy="-90" rx="44.0415" ry="18"/>
<text text-anchor="middle" x="301.7601" y="-85.8" font-family="Times,serif" font-size="14.00" fill="#000000">No rows</text>
</g>
<!-- samples__dataID_dataID__datasets_where&#45;&gt;samples__dataID_dataID__datasets_where_No_Rows -->
<g id="edge15" class="edge">
<title>samples__dataID_dataID__datasets_where&#45;&gt;samples__dataID_dataID__datasets_where_No_Rows</title>
<path fill="none" stroke="#000000" d="M254.7027,-143.7715C262.9437,-134.3547 271.9704,-124.0401 279.8943,-114.9856"/>
<polygon fill="#000000" stroke="#000000" points="282.5745,-117.2376 286.5263,-107.4073 277.3068,-112.6276 282.5745,-117.2376"/>
</g>
<!-- samples__dataID_dataID__datasets_where_Has_Rows&#45;&gt;granted -->
<g id="edge14" class="edge">
<title>samples__dataID_dataID__datasets_where_Has_Rows&#45;&gt;granted</title>
<path fill="none" stroke="#000000" d="M221.1546,-75.6028C241.9469,-65.0602 270.475,-50.5952 293.7413,-38.7982"/>
<polygon fill="#000000" stroke="#000000" points="295.3619,-41.9008 302.6981,-34.2568 292.1963,-35.6575 295.3619,-41.9008"/>
</g>
<!-- samples__dataID_dataID__datasets_where_No_Rows&#45;&gt;denied -->
<g id="edge16" class="edge">
<title>samples__dataID_dataID__datasets_where_No_Rows&#45;&gt;denied</title>
<path fill="none" stroke="#000000" d="M335.2892,-78.2118C341.7257,-76.0628 348.4316,-73.9015 354.7601,-72 403.3364,-57.4045 459.0086,-42.9445 500.2212,-32.6663"/>
<polygon fill="#000000" stroke="#000000" points="501.2465,-36.018 510.1084,-30.2114 499.5597,-29.2243 501.2465,-36.018"/>
</g>
<!-- samples__dataID_dataID__datasets_join_No_Rows&#45;&gt;denied -->
<g id="edge18" class="edge">
<title>samples__dataID_dataID__datasets_join_No_Rows&#45;&gt;denied</title>
<path fill="none" stroke="#000000" d="M487.4133,-238.5317C489.7778,-215.9422 494.9645,-176.5254 504.7601,-144 515.4108,-108.635 533.5646,-70.1305 546.3087,-45.1167"/>
<polygon fill="#000000" stroke="#000000" points="549.4218,-46.7161 550.9011,-36.2251 543.2024,-43.5038 549.4218,-46.7161"/>
</g>
</g>
</svg>
