<?xml version="1.0" encoding="UTF-8" standalone="no"?>
<!DOCTYPE svg PUBLIC "-//W3C//DTD SVG 1.1//EN"
 "http://www.w3.org/Graphics/SVG/1.1/DTD/svg11.dtd">
<!-- Generated by graphviz version 2.40.1 (20161225.0304)
 -->
<!-- Title: G Pages: 1 -->
<svg width="994pt" height="473pt"
 viewBox="0.00 0.00 993.78 473.42" xmlns="http://www.w3.org/2000/svg" xmlns:xlink="http://www.w3.org/1999/xlink">
<g id="graph0" class="graph" transform="scale(1 1) rotate(0) translate(4 469.4214)">
<title>G</title>
<polygon fill="#ffffff" stroke="transparent" points="-4,4 -4,-469.4214 989.7808,-469.4214 989.7808,4 -4,4"/>
<!-- samples -->
<g id="node1" class="node">
<title>samples</title>
<ellipse fill="none" stroke="#000000" cx="590.7601" cy="-447.4214" rx="42.2913" ry="18"/>
<text text-anchor="middle" x="590.7601" y="-443.2214" font-family="Times,serif" font-size="14.00" fill="#000000">samples</text>
</g>
<!-- samples__siteID_siteID__sites_join -->
<g id="node2" class="node">
<title>samples__siteID_siteID__sites_join</title>
<ellipse fill="none" stroke="#000000" cx="696.7601" cy="-352.1263" rx="78.8882" ry="41.0911"/>
<text text-anchor="middle" x="696.7601" y="-364.7263" font-family="Times,serif" font-size="14.00" fill="#000000">LEFT JOIN sites</text>
<text text-anchor="middle" x="696.7601" y="-347.9263" font-family="Times,serif" font-size="14.00" fill="#000000">At level: 1</text>
<text text-anchor="middle" x="696.7601" y="-331.1263" font-family="Times,serif" font-size="14.00" fill="#000000">Required: true</text>
</g>
<!-- samples&#45;&gt;samples__siteID_siteID__sites_join -->
<g id="edge1" class="edge">
<title>samples&#45;&gt;samples__siteID_siteID__sites_join</title>
<path fill="none" stroke="#000000" d="M609.2239,-430.8222C620.3345,-420.8337 635.0316,-407.6208 649.204,-394.8797"/>
<polygon fill="#000000" stroke="#000000" points="651.9008,-397.1617 656.9974,-387.8733 647.2208,-391.9561 651.9008,-397.1617"/>
</g>
<!-- samples__dataID_dataID__datasets_join -->
<g id="node10" class="node">
<title>samples__dataID_dataID__datasets_join</title>
<ellipse fill="none" stroke="#000000" cx="485.7601" cy="-352.1263" rx="92.8656" ry="41.0911"/>
<text text-anchor="middle" x="485.7601" y="-364.7263" font-family="Times,serif" font-size="14.00" fill="#000000">LEFT JOIN datasets</text>
<text text-anchor="middle" x="485.7601" y="-347.9263" font-family="Times,serif" font-size="14.00" fill="#000000">At level: 1</text>
<text text-anchor="middle" x="485.7601" y="-331.1263" font-family="Times,serif" font-size="14.00" fill="#000000">Required: true</text>
</g>
<!-- samples&#45;&gt;samples__dataID_dataID__datasets_join -->
<g id="edge10" class="edge">
<title>samples&#45;&gt;samples__dataID_dataID__datasets_join</title>
<path fill="none" stroke="#000000" d="M572.4705,-430.8222C561.8613,-421.1936 547.9508,-408.5689 534.387,-396.2588"/>
<polygon fill="#000000" stroke="#000000" points="536.6677,-393.6021 526.9104,-389.4732 531.9632,-398.7856 536.6677,-393.6021"/>
</g>
<!-- samples__siteID_siteID__sites_join_Has_Rows -->
<g id="node3" class="node">
<title>samples__siteID_siteID__sites_join_Has_Rows</title>
<ellipse fill="none" stroke="#000000" cx="696.7601" cy="-256.8313" rx="47.4704" ry="18"/>
<text text-anchor="middle" x="696.7601" y="-252.6313" font-family="Times,serif" font-size="14.00" fill="#000000">Has rows</text>
</g>
<!-- samples__siteID_siteID__sites_join&#45;&gt;samples__siteID_siteID__sites_join_Has_Rows -->
<g id="edge2" class="edge">
<title>samples__siteID_siteID__sites_join&#45;&gt;samples__siteID_siteID__sites_join_Has_Rows</title>
<path fill="none" stroke="#000000" d="M696.7601,-310.6057C696.7601,-302.0541 696.7601,-293.2347 696.7601,-285.2742"/>
<polygon fill="#000000" stroke="#000000" points="700.2602,-285.0572 696.7601,-275.0572 693.2602,-285.0572 700.2602,-285.0572"/>
</g>
<!-- samples__siteID_siteID__sites_join_No_Rows -->
<g id="node9" class="node">
<title>samples__siteID_siteID__sites_join_No_Rows</title>
<ellipse fill="none" stroke="#000000" cx="941.7601" cy="-173.4156" rx="44.0415" ry="18"/>
<text text-anchor="middle" x="941.7601" y="-169.2156" font-family="Times,serif" font-size="14.00" fill="#000000">No rows</text>
</g>
<!-- samples__siteID_siteID__sites_join&#45;&gt;samples__siteID_siteID__sites_join_No_Rows -->
<g id="edge8" class="edge">
<title>samples__siteID_siteID__sites_join&#45;&gt;samples__siteID_siteID__sites_join_No_Rows</title>
<path fill="none" stroke="#000000" d="M742.8427,-318.5122C792.3805,-282.3778 869.6779,-225.9946 911.8468,-195.2354"/>
<polygon fill="#000000" stroke="#000000" points="914.025,-197.9787 920.0415,-189.2579 909.8998,-192.3233 914.025,-197.9787"/>
</g>
<!-- samples__siteID_siteID__sites_where -->
<g id="node4" class="node">
<title>samples__siteID_siteID__sites_where</title>
<ellipse fill="none" stroke="#000000" cx="696.7601" cy="-173.4156" rx="182.7015" ry="29.3315"/>
<text text-anchor="middle" x="696.7601" y="-177.6156" font-family="Times,serif" font-size="14.00" fill="#000000">WHERE IN</text>
<text text-anchor="middle" x="696.7601" y="-160.8156" font-family="Times,serif" font-size="14.00" fill="#000000">sites.healthReg = [&quot;Yukon&quot;,&quot;Yukon&#45;HNJ&quot;]</text>
</g>
<!-- samples__siteID_siteID__sites_join_Has_Rows&#45;&gt;samples__siteID_siteID__sites_where -->
<g id="edge3" class="edge">
<title>samples__siteID_siteID__sites_join_Has_Rows&#45;&gt;samples__siteID_siteID__sites_where</title>
<path fill="none" stroke="#000000" d="M696.7601,-238.7313C696.7601,-231.1418 696.7601,-221.9972 696.7601,-212.986"/>
<polygon fill="#000000" stroke="#000000" points="700.2602,-212.9587 696.7601,-202.9588 693.2602,-212.9588 700.2602,-212.9587"/>
</g>
<!-- samples__siteID_siteID__sites_where_Has_Rows -->
<g id="node5" class="node">
<title>samples__siteID_siteID__sites_where_Has_Rows</title>
<ellipse fill="none" stroke="#000000" cx="410.7601" cy="-90" rx="47.4704" ry="18"/>
<text text-anchor="middle" x="410.7601" y="-85.8" font-family="Times,serif" font-size="14.00" fill="#000000">Has rows</text>
</g>
<!-- samples__siteID_siteID__sites_where&#45;&gt;samples__siteID_siteID__sites_where_Has_Rows -->
<g id="edge4" class="edge">
<title>samples__siteID_siteID__sites_where&#45;&gt;samples__siteID_siteID__sites_where_Has_Rows</title>
<path fill="none" stroke="#000000" d="M608.2265,-147.5937C558.6674,-133.1391 498.8469,-115.6917 458.1268,-103.8151"/>
<polygon fill="#000000" stroke="#000000" points="459.0404,-100.4358 448.4604,-100.9958 457.0804,-107.1558 459.0404,-100.4358"/>
</g>
<!-- samples__siteID_siteID__sites_where_No_Rows -->
<g id="node7" class="node">
<title>samples__siteID_siteID__sites_where_No_Rows</title>
<ellipse fill="none" stroke="#000000" cx="626.7601" cy="-90" rx="44.0415" ry="18"/>
<text text-anchor="middle" x="626.7601" y="-85.8" font-family="Times,serif" font-size="14.00" fill="#000000">No rows</text>
</g>
<!-- samples__siteID_siteID__sites_where&#45;&gt;samples__siteID_siteID__sites_where_No_Rows -->
<g id="edge6" class="edge">
<title>samples__siteID_siteID__sites_where&#45;&gt;samples__siteID_siteID__sites_where_No_Rows</title>
<path fill="none" stroke="#000000" d="M672.2775,-144.2409C664.2272,-134.6478 655.3586,-124.0795 647.6048,-114.8396"/>
<polygon fill="#000000" stroke="#000000" points="650.2356,-112.5298 641.1263,-107.1195 644.8734,-117.0296 650.2356,-112.5298"/>
</g>
<!-- granted -->
<g id="node6" class="node">
<title>granted</title>
<ellipse fill="none" stroke="#000000" cx="329.7601" cy="-18" rx="71.7874" ry="18"/>
<text text-anchor="middle" x="329.7601" y="-13.8" font-family="Times,serif" font-size="14.00" fill="#000000">Access Granted</text>
</g>
<!-- samples__siteID_siteID__sites_where_Has_Rows&#45;&gt;granted -->
<g id="edge5" class="edge">
<title>samples__siteID_siteID__sites_where_Has_Rows&#45;&gt;granted</title>
<path fill="none" stroke="#000000" d="M391.9735,-73.3008C381.5691,-64.0525 368.4504,-52.3914 356.9449,-42.1643"/>
<polygon fill="#000000" stroke="#000000" points="359.0899,-39.3881 349.2905,-35.3603 354.4393,-44.62 359.0899,-39.3881"/>
</g>
<!-- denied -->
<g id="node8" class="node">
<title>denied</title>
<ellipse fill="none" stroke="#000000" cx="555.7601" cy="-18" rx="68.8581" ry="18"/>
<text text-anchor="middle" x="555.7601" y="-13.8" font-family="Times,serif" font-size="14.00" fill="#000000">Access Denied</text>
</g>
<!-- samples__siteID_siteID__sites_where_No_Rows&#45;&gt;denied -->
<g id="edge7" class="edge">
<title>samples__siteID_siteID__sites_where_No_Rows&#45;&gt;denied</title>
<path fill="none" stroke="#000000" d="M610.2928,-73.3008C601.4136,-64.2965 590.2791,-53.0052 580.3901,-42.9769"/>
<polygon fill="#000000" stroke="#000000" points="582.6422,-40.276 573.1286,-35.6132 577.658,-45.1911 582.6422,-40.276"/>
</g>
<!-- samples__siteID_siteID__sites_join_No_Rows&#45;&gt;denied -->
<g id="edge9" class="edge">
<title>samples__siteID_siteID__sites_join_No_Rows&#45;&gt;denied</title>
<path fill="none" stroke="#000000" d="M916.5384,-158.4389C907.8727,-153.5576 898.0207,-148.2944 888.7601,-144 792.3506,-99.2928 675.2451,-57.8061 608.7241,-35.378"/>
<polygon fill="#000000" stroke="#000000" points="609.4831,-31.941 598.8891,-32.0768 607.2556,-38.5771 609.4831,-31.941"/>
</g>
<!-- samples__dataID_dataID__datasets_join_Has_Rows -->
<g id="node11" class="node">
<title>samples__dataID_dataID__datasets_join_Has_Rows</title>
<ellipse fill="none" stroke="#000000" cx="302.7601" cy="-256.8313" rx="47.4704" ry="18"/>
<text text-anchor="middle" x="302.7601" y="-252.6313" font-family="Times,serif" font-size="14.00" fill="#000000">Has rows</text>
</g>
<!-- samples__dataID_dataID__datasets_join&#45;&gt;samples__dataID_dataID__datasets_join_Has_Rows -->
<g id="edge11" class="edge">
<title>samples__dataID_dataID__datasets_join&#45;&gt;samples__dataID_dataID__datasets_join_Has_Rows</title>
<path fill="none" stroke="#000000" d="M425.3319,-320.6591C397.0833,-305.949 364.3513,-288.9042 339.8214,-276.1305"/>
<polygon fill="#000000" stroke="#000000" points="341.3342,-272.9722 330.8482,-271.4578 338.1011,-279.1809 341.3342,-272.9722"/>
</g>
<!-- samples__dataID_dataID__datasets_join_No_Rows -->
<g id="node15" class="node">
<title>samples__dataID_dataID__datasets_join_No_Rows</title>
<ellipse fill="none" stroke="#000000" cx="485.7601" cy="-256.8313" rx="44.0415" ry="18"/>
<text text-anchor="middle" x="485.7601" y="-252.6313" font-family="Times,serif" font-size="14.00" fill="#000000">No rows</text>
</g>
<!-- samples__dataID_dataID__datasets_join&#45;&gt;samples__dataID_dataID__datasets_join_No_Rows -->
<g id="edge17" class="edge">
<title>samples__dataID_dataID__datasets_join&#45;&gt;samples__dataID_dataID__datasets_join_No_Rows</title>
<path fill="none" stroke="#000000" d="M485.7601,-310.6057C485.7601,-302.0541 485.7601,-293.2347 485.7601,-285.2742"/>
<polygon fill="#000000" stroke="#000000" points="489.2602,-285.0572 485.7601,-275.0572 482.2602,-285.0572 489.2602,-285.0572"/>
</g>
<!-- samples__dataID_dataID__datasets_where -->
<g id="node12" class="node">
<title>samples__dataID_dataID__datasets_where</title>
<ellipse fill="none" stroke="#000000" cx="228.7601" cy="-173.4156" rx="228.5204" ry="29.3315"/>
<text text-anchor="middle" x="228.7601" y="-177.6156" font-family="Times,serif" font-size="14.00" fill="#000000">WHERE IN</text>
<text text-anchor="middle" x="228.7601" y="-160.8156" font-family="Times,serif" font-size="14.00" fill="#000000">datasets.dataID = [&quot;NML&#45;WWPCR&quot;,&quot;NML&#45;WWGX&quot;]</text>
</g>
<!-- samples__dataID_dataID__datasets_join_Has_Rows&#45;&gt;samples__dataID_dataID__datasets_where -->
<g id="edge12" class="edge">
<title>samples__dataID_dataID__datasets_join_Has_Rows&#45;&gt;samples__dataID_dataID__datasets_where</title>
<path fill="none" stroke="#000000" d="M287.4272,-239.5475C279.9381,-231.1054 270.6203,-220.6021 261.6316,-210.4697"/>
<polygon fill="#000000" stroke="#000000" points="264.1124,-207.992 254.8578,-202.834 258.8759,-212.6374 264.1124,-207.992"/>
</g>
<!-- samples__dataID_dataID__datasets_where_Has_Rows -->
<g id="node13" class="node">
<title>samples__dataID_dataID__datasets_where_Has_Rows</title>
<ellipse fill="none" stroke="#000000" cx="192.7601" cy="-90" rx="47.4704" ry="18"/>
<text text-anchor="middle" x="192.7601" y="-85.8" font-family="Times,serif" font-size="14.00" fill="#000000">Has rows</text>
</g>
<!-- samples__dataID_dataID__datasets_where&#45;&gt;samples__dataID_dataID__datasets_where_Has_Rows -->
<g id="edge13" class="edge">
<title>samples__dataID_dataID__datasets_where&#45;&gt;samples__dataID_dataID__datasets_where_Has_Rows</title>
<path fill="none" stroke="#000000" d="M215.9665,-143.7715C212.2478,-135.1551 208.2049,-125.7872 204.5509,-117.3206"/>
<polygon fill="#000000" stroke="#000000" points="207.659,-115.6893 200.483,-107.8947 201.232,-118.4631 207.659,-115.6893"/>
</g>
<!-- samples__dataID_dataID__datasets_where_No_Rows -->
<g id="node14" class="node">
<title>samples__dataID_dataID__datasets_where_No_Rows</title>
<ellipse fill="none" stroke="#000000" cx="301.7601" cy="-90" rx="44.0415" ry="18"/>
<text text-anchor="middle" x="301.7601" y="-85.8" font-family="Times,serif" font-size="14.00" fill="#000000">No rows</text>
</g>
<!-- samples__dataID_dataID__datasets_where&#45;&gt;samples__dataID_dataID__datasets_where_No_Rows -->
<g id="edge15" class="edge">
<title>samples__dataID_dataID__datasets_where&#45;&gt;samples__dataID_dataID__datasets_where_No_Rows</title>
<path fill="none" stroke="#000000" d="M254.7027,-143.7715C262.9437,-134.3547 271.9704,-124.0401 279.8943,-114.9856"/>
<polygon fill="#000000" stroke="#000000" points="282.5745,-117.2376 286.5263,-107.4073 277.3068,-112.6276 282.5745,-117.2376"/>
</g>
<!-- samples__dataID_dataID__datasets_where_Has_Rows&#45;&gt;granted -->
<g id="edge14" class="edge">
<title>samples__dataID_dataID__datasets_where_Has_Rows&#45;&gt;granted</title>
<path fill="none" stroke="#000000" d="M220.8147,-75.256C240.5421,-64.8883 267.2422,-50.8561 289.2723,-39.2782"/>
<polygon fill="#000000" stroke="#000000" points="291.1702,-42.2348 298.3939,-34.4844 287.9137,-36.0384 291.1702,-42.2348"/>
</g>
<!-- samples__dataID_dataID__datasets_where_No_Rows&#45;&gt;denied -->
<g id="edge16" class="edge">
<title>samples__dataID_dataID__datasets_where_No_Rows&#45;&gt;denied</title>
<path fill="none" stroke="#000000" d="M335.2987,-78.243C341.7342,-76.0911 348.4374,-73.9208 354.7601,-72 401.9307,-57.67 455.9144,-43.2762 496.0504,-32.9569"/>
<polygon fill="#000000" stroke="#000000" points="497.1243,-36.2949 505.9436,-30.4237 495.3879,-29.5137 497.1243,-36.2949"/>
</g>
<!-- samples__dataID_dataID__datasets_join_No_Rows&#45;&gt;denied -->
<g id="edge18" class="edge">
<title>samples__dataID_dataID__datasets_join_No_Rows&#45;&gt;denied</title>
<path fill="none" stroke="#000000" d="M487.5946,-238.5846C490.1417,-216.0485 495.5126,-176.6854 504.7601,-144 514.6854,-108.9184 531.2051,-70.2908 542.7452,-45.1736"/>
<polygon fill="#000000" stroke="#000000" points="546.0031,-46.4682 547.0505,-35.9253 539.657,-43.5139 546.0031,-46.4682"/>
</g>
</g>
</svg>
