<?xml version="1.0" encoding="UTF-8" standalone="no"?>
<!DOCTYPE svg PUBLIC "-//W3C//DTD SVG 1.1//EN"
 "http://www.w3.org/Graphics/SVG/1.1/DTD/svg11.dtd">
<!-- Generated by graphviz version 2.40.1 (20161225.0304)
 -->
<!-- Title: G Pages: 1 -->
<svg width="1164pt" height="831pt"
 viewBox="0.00 0.00 1164.36 830.84" xmlns="http://www.w3.org/2000/svg" xmlns:xlink="http://www.w3.org/1999/xlink">
<g id="graph0" class="graph" transform="scale(1 1) rotate(0) translate(4 826.8427)">
<title>G</title>
<polygon fill="#ffffff" stroke="transparent" points="-4,4 -4,-826.8427 1160.3608,-826.8427 1160.3608,4 -4,4"/>
<!-- sites -->
<g id="node1" class="node">
<title>sites</title>
<ellipse fill="none" stroke="#000000" cx="973.7601" cy="-804.8427" rx="28.4049" ry="18"/>
<text text-anchor="middle" x="973.7601" y="-800.6427" font-family="Times,serif" font-size="14.00" fill="#000000">sites</text>
</g>
<!-- sites_where -->
<g id="node2" class="node">
<title>sites_where</title>
<ellipse fill="none" stroke="#000000" cx="973.7601" cy="-721.4271" rx="182.7015" ry="29.3315"/>
<text text-anchor="middle" x="973.7601" y="-725.6271" font-family="Times,serif" font-size="14.00" fill="#000000">WHERE IN</text>
<text text-anchor="middle" x="973.7601" y="-708.8271" font-family="Times,serif" font-size="14.00" fill="#000000">sites.healthReg = [&quot;Yukon&quot;,&quot;Yukon&#45;HNJ&quot;]</text>
</g>
<!-- sites&#45;&gt;sites_where -->
<g id="edge1" class="edge">
<title>sites&#45;&gt;sites_where</title>
<path fill="none" stroke="#000000" d="M973.7601,-786.7428C973.7601,-779.1532 973.7601,-770.0087 973.7601,-760.9975"/>
<polygon fill="#000000" stroke="#000000" points="977.2602,-760.9702 973.7601,-750.9702 970.2602,-760.9702 977.2602,-760.9702"/>
</g>
<!-- sites_where_Has_Rows -->
<g id="node3" class="node">
<title>sites_where_Has_Rows</title>
<ellipse fill="none" stroke="#000000" cx="936.7601" cy="-638.0114" rx="47.4704" ry="18"/>
<text text-anchor="middle" x="936.7601" y="-633.8114" font-family="Times,serif" font-size="14.00" fill="#000000">Has rows</text>
</g>
<!-- sites_where&#45;&gt;sites_where_Has_Rows -->
<g id="edge2" class="edge">
<title>sites_where&#45;&gt;sites_where_Has_Rows</title>
<path fill="none" stroke="#000000" d="M960.6111,-691.783C956.7476,-683.0729 952.5435,-673.5949 948.7561,-665.0563"/>
<polygon fill="#000000" stroke="#000000" points="951.9516,-663.6281 944.6975,-655.9062 945.5528,-666.4664 951.9516,-663.6281"/>
</g>
<!-- sites_where_No_Rows -->
<g id="node21" class="node">
<title>sites_where_No_Rows</title>
<ellipse fill="none" stroke="#000000" cx="1051.7601" cy="-542.7164" rx="44.0415" ry="18"/>
<text text-anchor="middle" x="1051.7601" y="-538.5164" font-family="Times,serif" font-size="14.00" fill="#000000">No rows</text>
</g>
<!-- sites_where&#45;&gt;sites_where_No_Rows -->
<g id="edge25" class="edge">
<title>sites_where&#45;&gt;sites_where_No_Rows</title>
<path fill="none" stroke="#000000" d="M986.6402,-691.9166C1001.3844,-658.1352 1025.3466,-603.234 1039.7265,-570.2872"/>
<polygon fill="#000000" stroke="#000000" points="1043.0684,-571.38 1043.8608,-560.8149 1036.6528,-568.5799 1043.0684,-571.38"/>
</g>
<!-- sites__siteID_siteID__samples_join -->
<g id="node4" class="node">
<title>sites__siteID_siteID__samples_join</title>
<ellipse fill="none" stroke="#000000" cx="896.7601" cy="-542.7164" rx="93.4765" ry="41.0911"/>
<text text-anchor="middle" x="896.7601" y="-555.3164" font-family="Times,serif" font-size="14.00" fill="#000000">LEFT JOIN samples</text>
<text text-anchor="middle" x="896.7601" y="-538.5164" font-family="Times,serif" font-size="14.00" fill="#000000">At level: 2</text>
<text text-anchor="middle" x="896.7601" y="-521.7164" font-family="Times,serif" font-size="14.00" fill="#000000">Required: true</text>
</g>
<!-- sites_where_Has_Rows&#45;&gt;sites__siteID_siteID__samples_join -->
<g id="edge3" class="edge">
<title>sites_where_Has_Rows&#45;&gt;sites__siteID_siteID__samples_join</title>
<path fill="none" stroke="#000000" d="M929.2364,-620.0872C925.9436,-612.2425 921.8996,-602.6081 917.7972,-592.8347"/>
<polygon fill="#000000" stroke="#000000" points="920.9664,-591.3416 913.8687,-583.4756 914.5119,-594.0509 920.9664,-591.3416"/>
</g>
<!-- sites__siteID_siteID__samples_join_Has_Rows -->
<g id="node5" class="node">
<title>sites__siteID_siteID__samples_join_Has_Rows</title>
<ellipse fill="none" stroke="#000000" cx="806.7601" cy="-447.4214" rx="47.4704" ry="18"/>
<text text-anchor="middle" x="806.7601" y="-443.2214" font-family="Times,serif" font-size="14.00" fill="#000000">Has rows</text>
</g>
<!-- sites__siteID_siteID__samples_join&#45;&gt;sites__siteID_siteID__samples_join_Has_Rows -->
<g id="edge4" class="edge">
<title>sites__siteID_siteID__samples_join&#45;&gt;sites__siteID_siteID__samples_join_Has_Rows</title>
<path fill="none" stroke="#000000" d="M860.6722,-504.5053C850.3306,-493.5553 839.3348,-481.9126 829.9894,-472.0174"/>
<polygon fill="#000000" stroke="#000000" points="832.3033,-469.3699 822.8925,-464.5029 827.2141,-474.1763 832.3033,-469.3699"/>
</g>
<!-- sites__siteID_siteID__samples_join_No_Rows -->
<g id="node20" class="node">
<title>sites__siteID_siteID__samples_join_No_Rows</title>
<ellipse fill="none" stroke="#000000" cx="938.7601" cy="-447.4214" rx="44.0415" ry="18"/>
<text text-anchor="middle" x="938.7601" y="-443.2214" font-family="Times,serif" font-size="14.00" fill="#000000">No rows</text>
</g>
<!-- sites__siteID_siteID__samples_join&#45;&gt;sites__siteID_siteID__samples_join_No_Rows -->
<g id="edge23" class="edge">
<title>sites__siteID_siteID__samples_join&#45;&gt;sites__siteID_siteID__samples_join_No_Rows</title>
<path fill="none" stroke="#000000" d="M914.6937,-502.0263C918.732,-492.8636 922.925,-483.3501 926.6577,-474.8807"/>
<polygon fill="#000000" stroke="#000000" points="929.9611,-476.0637 930.7915,-465.5015 923.5557,-473.2406 929.9611,-476.0637"/>
</g>
<!-- samples__siteID_siteID__sites_join -->
<g id="node6" class="node">
<title>samples__siteID_siteID__sites_join</title>
<ellipse fill="none" stroke="#000000" cx="806.7601" cy="-352.1263" rx="78.8882" ry="41.0911"/>
<text text-anchor="middle" x="806.7601" y="-364.7263" font-family="Times,serif" font-size="14.00" fill="#000000">LEFT JOIN sites</text>
<text text-anchor="middle" x="806.7601" y="-347.9263" font-family="Times,serif" font-size="14.00" fill="#000000">At level: 1</text>
<text text-anchor="middle" x="806.7601" y="-331.1263" font-family="Times,serif" font-size="14.00" fill="#000000">Required: true</text>
</g>
<!-- sites__siteID_siteID__samples_join_Has_Rows&#45;&gt;samples__siteID_siteID__sites_join -->
<g id="edge5" class="edge">
<title>sites__siteID_siteID__samples_join_Has_Rows&#45;&gt;samples__siteID_siteID__sites_join</title>
<path fill="none" stroke="#000000" d="M806.7601,-429.0475C806.7601,-421.7384 806.7601,-412.9288 806.7601,-403.92"/>
<polygon fill="#000000" stroke="#000000" points="810.2602,-403.7335 806.7601,-393.7335 803.2602,-403.7335 810.2602,-403.7335"/>
</g>
<!-- samples__dataID_dataID__datasets_join -->
<g id="node14" class="node">
<title>samples__dataID_dataID__datasets_join</title>
<ellipse fill="none" stroke="#000000" cx="485.7601" cy="-352.1263" rx="92.8656" ry="41.0911"/>
<text text-anchor="middle" x="485.7601" y="-364.7263" font-family="Times,serif" font-size="14.00" fill="#000000">LEFT JOIN datasets</text>
<text text-anchor="middle" x="485.7601" y="-347.9263" font-family="Times,serif" font-size="14.00" fill="#000000">At level: 1</text>
<text text-anchor="middle" x="485.7601" y="-331.1263" font-family="Times,serif" font-size="14.00" fill="#000000">Required: true</text>
</g>
<!-- sites__siteID_siteID__samples_join_Has_Rows&#45;&gt;samples__dataID_dataID__datasets_join -->
<g id="edge14" class="edge">
<title>sites__siteID_siteID__samples_join_Has_Rows&#45;&gt;samples__dataID_dataID__datasets_join</title>
<path fill="none" stroke="#000000" d="M769.3091,-436.3033C721.4088,-422.0832 636.9654,-397.0145 572.6511,-377.9216"/>
<polygon fill="#000000" stroke="#000000" points="573.4958,-374.5214 562.9132,-375.0307 571.5036,-381.232 573.4958,-374.5214"/>
</g>
<!-- samples__siteID_siteID__sites_join_Has_Rows -->
<g id="node7" class="node">
<title>samples__siteID_siteID__sites_join_Has_Rows</title>
<ellipse fill="none" stroke="#000000" cx="719.7601" cy="-256.8313" rx="47.4704" ry="18"/>
<text text-anchor="middle" x="719.7601" y="-252.6313" font-family="Times,serif" font-size="14.00" fill="#000000">Has rows</text>
</g>
<!-- samples__siteID_siteID__sites_join&#45;&gt;samples__siteID_siteID__sites_join_Has_Rows -->
<g id="edge6" class="edge">
<title>samples__siteID_siteID__sites_join&#45;&gt;samples__siteID_siteID__sites_join_Has_Rows</title>
<path fill="none" stroke="#000000" d="M772.6251,-314.7367C762.4831,-303.6277 751.6281,-291.7377 742.4095,-281.6402"/>
<polygon fill="#000000" stroke="#000000" points="744.7392,-279.001 735.4121,-273.9756 739.5696,-283.7206 744.7392,-279.001"/>
</g>
<!-- samples__siteID_siteID__sites_join_No_Rows -->
<g id="node13" class="node">
<title>samples__siteID_siteID__sites_join_No_Rows</title>
<ellipse fill="none" stroke="#000000" cx="941.7601" cy="-173.4156" rx="44.0415" ry="18"/>
<text text-anchor="middle" x="941.7601" y="-169.2156" font-family="Times,serif" font-size="14.00" fill="#000000">No rows</text>
</g>
<!-- samples__siteID_siteID__sites_join&#45;&gt;samples__siteID_siteID__sites_join_No_Rows -->
<g id="edge12" class="edge">
<title>samples__siteID_siteID__sites_join&#45;&gt;samples__siteID_siteID__sites_join_No_Rows</title>
<path fill="none" stroke="#000000" d="M836.0531,-313.3488C862.168,-278.7783 899.6595,-229.1476 922.2647,-199.2233"/>
<polygon fill="#000000" stroke="#000000" points="925.2636,-201.06 928.4985,-190.9711 919.6781,-196.8407 925.2636,-201.06"/>
</g>
<!-- samples__siteID_siteID__sites_where -->
<g id="node8" class="node">
<title>samples__siteID_siteID__sites_where</title>
<ellipse fill="none" stroke="#000000" cx="696.7601" cy="-173.4156" rx="182.7015" ry="29.3315"/>
<text text-anchor="middle" x="696.7601" y="-177.6156" font-family="Times,serif" font-size="14.00" fill="#000000">WHERE IN</text>
<text text-anchor="middle" x="696.7601" y="-160.8156" font-family="Times,serif" font-size="14.00" fill="#000000">sites.healthReg = [&quot;Yukon&quot;,&quot;Yukon&#45;HNJ&quot;]</text>
</g>
<!-- samples__siteID_siteID__sites_join_Has_Rows&#45;&gt;samples__siteID_siteID__sites_where -->
<g id="edge7" class="edge">
<title>samples__siteID_siteID__sites_join_Has_Rows&#45;&gt;samples__siteID_siteID__sites_where</title>
<path fill="none" stroke="#000000" d="M714.7694,-238.7313C712.6543,-231.0602 710.1011,-221.8004 707.5906,-212.6954"/>
<polygon fill="#000000" stroke="#000000" points="710.9382,-211.6687 704.9059,-202.9588 704.19,-213.5294 710.9382,-211.6687"/>
</g>
<!-- samples__siteID_siteID__sites_where_Has_Rows -->
<g id="node9" class="node">
<title>samples__siteID_siteID__sites_where_Has_Rows</title>
<ellipse fill="none" stroke="#000000" cx="410.7601" cy="-90" rx="47.4704" ry="18"/>
<text text-anchor="middle" x="410.7601" y="-85.8" font-family="Times,serif" font-size="14.00" fill="#000000">Has rows</text>
</g>
<!-- samples__siteID_siteID__sites_where&#45;&gt;samples__siteID_siteID__sites_where_Has_Rows -->
<g id="edge8" class="edge">
<title>samples__siteID_siteID__sites_where&#45;&gt;samples__siteID_siteID__sites_where_Has_Rows</title>
<path fill="none" stroke="#000000" d="M608.2265,-147.5937C558.6674,-133.1391 498.8469,-115.6917 458.1268,-103.8151"/>
<polygon fill="#000000" stroke="#000000" points="459.0404,-100.4358 448.4604,-100.9958 457.0804,-107.1558 459.0404,-100.4358"/>
</g>
<!-- samples__siteID_siteID__sites_where_No_Rows -->
<g id="node11" class="node">
<title>samples__siteID_siteID__sites_where_No_Rows</title>
<ellipse fill="none" stroke="#000000" cx="739.7601" cy="-90" rx="44.0415" ry="18"/>
<text text-anchor="middle" x="739.7601" y="-85.8" font-family="Times,serif" font-size="14.00" fill="#000000">No rows</text>
</g>
<!-- samples__siteID_siteID__sites_where&#45;&gt;samples__siteID_siteID__sites_where_No_Rows -->
<g id="edge10" class="edge">
<title>samples__siteID_siteID__sites_where&#45;&gt;samples__siteID_siteID__sites_where_No_Rows</title>
<path fill="none" stroke="#000000" d="M712.0413,-143.7715C716.5313,-135.0615 721.4171,-125.5834 725.8187,-117.0449"/>
<polygon fill="#000000" stroke="#000000" points="729.0645,-118.387 730.5355,-107.8947 722.8425,-115.1796 729.0645,-118.387"/>
</g>
<!-- granted -->
<g id="node10" class="node">
<title>granted</title>
<ellipse fill="none" stroke="#000000" cx="301.7601" cy="-18" rx="71.7874" ry="18"/>
<text text-anchor="middle" x="301.7601" y="-13.8" font-family="Times,serif" font-size="14.00" fill="#000000">Access Granted</text>
</g>
<!-- samples__siteID_siteID__sites_where_Has_Rows&#45;&gt;granted -->
<g id="edge9" class="edge">
<title>samples__siteID_siteID__sites_where_Has_Rows&#45;&gt;granted</title>
<path fill="none" stroke="#000000" d="M387.1087,-74.3771C372.0728,-64.4451 352.366,-51.4278 335.6774,-40.4041"/>
<polygon fill="#000000" stroke="#000000" points="337.5393,-37.4394 327.2663,-34.8481 333.6812,-43.2802 337.5393,-37.4394"/>
</g>
<!-- denied -->
<g id="node12" class="node">
<title>denied</title>
<ellipse fill="none" stroke="#000000" cx="797.7601" cy="-18" rx="68.8581" ry="18"/>
<text text-anchor="middle" x="797.7601" y="-13.8" font-family="Times,serif" font-size="14.00" fill="#000000">Access Denied</text>
</g>
<!-- samples__siteID_siteID__sites_where_No_Rows&#45;&gt;denied -->
<g id="edge11" class="edge">
<title>samples__siteID_siteID__sites_where_No_Rows&#45;&gt;denied</title>
<path fill="none" stroke="#000000" d="M753.8003,-72.5708C760.7495,-63.9441 769.2771,-53.3582 776.966,-43.8134"/>
<polygon fill="#000000" stroke="#000000" points="779.8986,-45.7521 783.4463,-35.7689 774.4473,-41.3608 779.8986,-45.7521"/>
</g>
<!-- samples__siteID_siteID__sites_join_No_Rows&#45;&gt;denied -->
<g id="edge13" class="edge">
<title>samples__siteID_siteID__sites_join_No_Rows&#45;&gt;denied</title>
<path fill="none" stroke="#000000" d="M926.0754,-156.4876C900.8086,-129.2177 850.9422,-75.3981 821.3647,-43.4759"/>
<polygon fill="#000000" stroke="#000000" points="823.6734,-40.8179 814.3094,-35.8613 818.5386,-45.5755 823.6734,-40.8179"/>
</g>
<!-- samples__dataID_dataID__datasets_join_Has_Rows -->
<g id="node15" class="node">
<title>samples__dataID_dataID__datasets_join_Has_Rows</title>
<ellipse fill="none" stroke="#000000" cx="302.7601" cy="-256.8313" rx="47.4704" ry="18"/>
<text text-anchor="middle" x="302.7601" y="-252.6313" font-family="Times,serif" font-size="14.00" fill="#000000">Has rows</text>
</g>
<!-- samples__dataID_dataID__datasets_join&#45;&gt;samples__dataID_dataID__datasets_join_Has_Rows -->
<g id="edge15" class="edge">
<title>samples__dataID_dataID__datasets_join&#45;&gt;samples__dataID_dataID__datasets_join_Has_Rows</title>
<path fill="none" stroke="#000000" d="M425.3319,-320.6591C397.0833,-305.949 364.3513,-288.9042 339.8214,-276.1305"/>
<polygon fill="#000000" stroke="#000000" points="341.3342,-272.9722 330.8482,-271.4578 338.1011,-279.1809 341.3342,-272.9722"/>
</g>
<!-- samples__dataID_dataID__datasets_join_No_Rows -->
<g id="node19" class="node">
<title>samples__dataID_dataID__datasets_join_No_Rows</title>
<ellipse fill="none" stroke="#000000" cx="485.7601" cy="-256.8313" rx="44.0415" ry="18"/>
<text text-anchor="middle" x="485.7601" y="-252.6313" font-family="Times,serif" font-size="14.00" fill="#000000">No rows</text>
</g>
<!-- samples__dataID_dataID__datasets_join&#45;&gt;samples__dataID_dataID__datasets_join_No_Rows -->
<g id="edge21" class="edge">
<title>samples__dataID_dataID__datasets_join&#45;&gt;samples__dataID_dataID__datasets_join_No_Rows</title>
<path fill="none" stroke="#000000" d="M485.7601,-310.6057C485.7601,-302.0541 485.7601,-293.2347 485.7601,-285.2742"/>
<polygon fill="#000000" stroke="#000000" points="489.2602,-285.0572 485.7601,-275.0572 482.2602,-285.0572 489.2602,-285.0572"/>
</g>
<!-- samples__dataID_dataID__datasets_where -->
<g id="node16" class="node">
<title>samples__dataID_dataID__datasets_where</title>
<ellipse fill="none" stroke="#000000" cx="228.7601" cy="-173.4156" rx="228.5204" ry="29.3315"/>
<text text-anchor="middle" x="228.7601" y="-177.6156" font-family="Times,serif" font-size="14.00" fill="#000000">WHERE IN</text>
<text text-anchor="middle" x="228.7601" y="-160.8156" font-family="Times,serif" font-size="14.00" fill="#000000">datasets.dataID = [&quot;NML&#45;WWPCR&quot;,&quot;NML&#45;WWGX&quot;]</text>
</g>
<!-- samples__dataID_dataID__datasets_join_Has_Rows&#45;&gt;samples__dataID_dataID__datasets_where -->
<g id="edge16" class="edge">
<title>samples__dataID_dataID__datasets_join_Has_Rows&#45;&gt;samples__dataID_dataID__datasets_where</title>
<path fill="none" stroke="#000000" d="M287.4272,-239.5475C279.9381,-231.1054 270.6203,-220.6021 261.6316,-210.4697"/>
<polygon fill="#000000" stroke="#000000" points="264.1124,-207.992 254.8578,-202.834 258.8759,-212.6374 264.1124,-207.992"/>
</g>
<!-- samples__dataID_dataID__datasets_where_Has_Rows -->
<g id="node17" class="node">
<title>samples__dataID_dataID__datasets_where_Has_Rows</title>
<ellipse fill="none" stroke="#000000" cx="192.7601" cy="-90" rx="47.4704" ry="18"/>
<text text-anchor="middle" x="192.7601" y="-85.8" font-family="Times,serif" font-size="14.00" fill="#000000">Has rows</text>
</g>
<!-- samples__dataID_dataID__datasets_where&#45;&gt;samples__dataID_dataID__datasets_where_Has_Rows -->
<g id="edge17" class="edge">
<title>samples__dataID_dataID__datasets_where&#45;&gt;samples__dataID_dataID__datasets_where_Has_Rows</title>
<path fill="none" stroke="#000000" d="M215.9665,-143.7715C212.2478,-135.1551 208.2049,-125.7872 204.5509,-117.3206"/>
<polygon fill="#000000" stroke="#000000" points="207.659,-115.6893 200.483,-107.8947 201.232,-118.4631 207.659,-115.6893"/>
</g>
<!-- samples__dataID_dataID__datasets_where_No_Rows -->
<g id="node18" class="node">
<title>samples__dataID_dataID__datasets_where_No_Rows</title>
<ellipse fill="none" stroke="#000000" cx="301.7601" cy="-90" rx="44.0415" ry="18"/>
<text text-anchor="middle" x="301.7601" y="-85.8" font-family="Times,serif" font-size="14.00" fill="#000000">No rows</text>
</g>
<!-- samples__dataID_dataID__datasets_where&#45;&gt;samples__dataID_dataID__datasets_where_No_Rows -->
<g id="edge19" class="edge">
<title>samples__dataID_dataID__datasets_where&#45;&gt;samples__dataID_dataID__datasets_where_No_Rows</title>
<path fill="none" stroke="#000000" d="M254.7027,-143.7715C262.9437,-134.3547 271.9704,-124.0401 279.8943,-114.9856"/>
<polygon fill="#000000" stroke="#000000" points="282.5745,-117.2376 286.5263,-107.4073 277.3068,-112.6276 282.5745,-117.2376"/>
</g>
<!-- samples__dataID_dataID__datasets_where_Has_Rows&#45;&gt;granted -->
<g id="edge18" class="edge">
<title>samples__dataID_dataID__datasets_where_Has_Rows&#45;&gt;granted</title>
<path fill="none" stroke="#000000" d="M216.4115,-74.3771C231.4473,-64.4451 251.1542,-51.4278 267.8427,-40.4041"/>
<polygon fill="#000000" stroke="#000000" points="269.839,-43.2802 276.2539,-34.8481 265.9808,-37.4394 269.839,-43.2802"/>
</g>
<!-- samples__dataID_dataID__datasets_where_No_Rows&#45;&gt;denied -->
<g id="edge20" class="edge">
<title>samples__dataID_dataID__datasets_where_No_Rows&#45;&gt;denied</title>
<path fill="none" stroke="#000000" d="M334.2527,-77.7904C340.9613,-75.603 348.0335,-73.5349 354.7601,-72 481.1357,-43.1623 631.5349,-28.9538 720.5834,-22.5698"/>
<polygon fill="#000000" stroke="#000000" points="720.8707,-26.0584 730.6008,-21.8662 720.3802,-19.0756 720.8707,-26.0584"/>
</g>
<!-- samples__dataID_dataID__datasets_join_No_Rows&#45;&gt;denied -->
<g id="edge22" class="edge">
<title>samples__dataID_dataID__datasets_join_No_Rows&#45;&gt;denied</title>
<path fill="none" stroke="#000000" d="M483.8405,-238.7173C482.2834,-214.5152 483.1661,-171.4957 504.7601,-144 559.1674,-74.7228 659.1008,-42.8896 726.9686,-28.7157"/>
<polygon fill="#000000" stroke="#000000" points="728.0414,-32.0702 737.1565,-26.6698 726.6631,-25.2073 728.0414,-32.0702"/>
</g>
<!-- sites__siteID_siteID__samples_join_No_Rows&#45;&gt;denied -->
<g id="edge24" class="edge">
<title>sites__siteID_siteID__samples_join_No_Rows&#45;&gt;denied</title>
<path fill="none" stroke="#000000" d="M950.8101,-429.9351C972.0109,-397.4132 1013.7601,-324.7477 1013.7601,-256.8313 1013.7601,-256.8313 1013.7601,-256.8313 1013.7601,-173.4156 1013.7601,-96.1869 921.6552,-53.5481 857.7348,-33.256"/>
<polygon fill="#000000" stroke="#000000" points="858.7168,-29.8963 848.1299,-30.3059 856.6615,-36.5878 858.7168,-29.8963"/>
</g>
<!-- sites_where_No_Rows&#45;&gt;denied -->
<g id="edge26" class="edge">
<title>sites_where_No_Rows&#45;&gt;denied</title>
<path fill="none" stroke="#000000" d="M1051.7601,-524.5841C1051.7601,-490.7054 1051.7601,-415.4909 1051.7601,-352.1263 1051.7601,-352.1263 1051.7601,-352.1263 1051.7601,-173.4156 1051.7601,-118.8989 1026.8533,-104.0603 982.7601,-72 950.1091,-48.2594 907.1406,-34.902 870.8331,-27.4139"/>
<polygon fill="#000000" stroke="#000000" points="871.2684,-23.9329 860.7832,-25.4538 869.9283,-30.8035 871.2684,-23.9329"/>
</g>
</g>
</svg>
